# Blender v2.76 (sub 0) OBJ File: 'spines-design.blend'
# www.blender.org
mtllib spine32.mtl
o spine_9_lq_spine_9.001
v -0.236615 0.031647 0.414977
v -0.254337 -0.037243 0.362304
v -0.185181 -0.089743 0.423564
v -0.043520 -0.125214 0.268014
v 0.115522 -0.106828 0.263779
v 0.236615 -0.031647 0.414977
v 0.201552 0.074258 0.421672
v 0.254337 0.037243 0.362304
v -0.035346 0.043066 0.447185
v -0.161139 -0.009337 0.439853
v 0.041335 -0.096163 0.439968
v 0.156175 0.004920 0.440643
v -0.048737 -0.153646 0.414977
v 0.057354 -0.165154 0.362304
v 0.129108 -0.132649 0.416381
v -0.169720 -0.138730 0.373892
v 0.045411 0.144740 0.424494
v -0.057354 0.165154 0.362304
v -0.114358 0.130878 0.421672
v 0.169720 0.138730 0.373892
v -0.104998 -0.090659 0.141580
v 0.043520 0.125214 0.268014
v -0.115521 0.106828 0.263779
v -0.192830 0.028260 0.268014
v -0.164515 -0.075014 0.263779
v 0.192830 -0.028260 0.268014
v 0.164515 0.075014 0.263779
v 0.001433 0.106261 0.117476
v -0.138782 0.069230 0.142482
v 0.067703 -0.004586 -0.060663
v 0.048592 -0.037381 -0.041499
v 0.159584 0.023308 0.126707
v 0.140442 -0.065190 0.135262
v -0.161707 -0.021897 0.131035
v 0.037886 -0.105354 0.134819
v -0.077807 -0.025644 -0.020739
v -0.070080 0.033425 -0.017604
v -0.018839 -0.052485 -0.019751
v -0.018839 0.052485 -0.019751
v 0.047818 0.038212 -0.037405
v 0.082550 -0.012868 -0.255087
v -0.048722 -0.025614 -0.145517
v -0.042747 0.031467 -0.137746
v -0.001301 -0.001380 -0.228212
v 0.011979 0.022120 -0.225356
v -0.020881 -0.022891 -0.565175
v 0.029726 -0.029634 -0.221379
v 0.069227 0.024202 -0.249776
v 0.039721 0.015816 -0.541434
v -0.026935 0.019878 -0.558859
v 0.029224 -0.021376 -0.539298
v 0.023049 0.036775 -0.592092
v 0.028933 -0.157614 -1.062090
v 0.127300 -0.147063 -1.066125
v 0.117500 -0.025919 -0.672032
v 0.107589 0.038394 -0.679168
v 0.253446 0.037129 -1.154038
v 0.028933 0.157614 -1.062090
v 0.127300 0.147063 -1.066124
v 0.262259 -0.048440 -1.075600
v -0.113530 0.025422 -0.837745
v -0.085701 -0.065104 -0.826939
v -0.110364 -0.193586 -1.582197
v 0.011268 -0.180669 -1.569083
v -0.329075 0.073733 -1.291141
v -0.329074 -0.073733 -1.291139
v -0.152244 -0.164423 -1.215575
v -0.152244 0.164423 -1.215574
v -0.034228 0.150650 -1.654537
v -0.266761 0.161981 -1.617545
v -0.173066 0.138233 -1.675552
v -0.110364 0.193586 -1.582197
v 0.011268 0.180669 -1.569082
v 0.190012 0.039532 -1.363272
v 0.150346 -0.111485 -1.354762
v -0.354227 -0.000000 -1.313392
v -0.148590 0.033854 -1.705020
v 0.128052 0.023739 -1.642207
v -0.027018 -0.074119 -1.679681
v -0.228766 -0.065149 -1.701170
v 0.202409 -0.047370 -1.539999
v 0.159899 0.118912 -1.549081
v 0.127327 0.095420 -1.614329
v -0.374757 0.042855 -1.639715
v -0.291373 0.000000 -1.702332
v -0.335556 -0.094106 -1.664342
v -0.278262 0.079018 -1.692065
v -0.266761 -0.161981 -1.617545
v -0.034228 -0.150651 -1.654538
v -0.173066 -0.138233 -1.675551
v -0.213644 0.110208 0.373892
v 0.213644 -0.110208 0.373892
v 0.124101 0.080582 0.150408
v 0.204866 0.081326 -0.950370
v 0.187370 0.121234 -1.144700
v -0.278891 0.132231 -1.316437
v -0.072086 0.082998 -0.852156
v 0.209088 -0.114060 -1.064864
v -0.278892 -0.132232 -1.316438
v 0.117071 0.133234 -1.356244
v 0.134791 -0.127723 -1.593744
vn -0.761500 0.187300 0.620500
vn -0.186500 -0.006700 0.982400
vn -0.237200 0.649000 0.722800
vn -0.715400 0.694700 0.073900
vn -0.968800 -0.244000 -0.043300
vn -0.470200 -0.440400 0.764800
vn -0.012100 0.964300 -0.264500
vn -0.127900 0.963600 -0.234800
vn -0.719500 0.610000 -0.331900
vn 0.123700 -0.991100 -0.048300
vn -0.493100 -0.868100 0.055800
vn -0.128200 -0.956400 -0.262400
vn -0.685900 -0.630500 -0.363200
vn 0.760200 -0.197400 0.618900
vn 0.169700 -0.002800 0.985500
vn 0.281200 -0.690300 0.666600
vn 0.722600 -0.688800 0.057300
vn 0.969100 0.237200 -0.067300
vn -0.026300 0.094300 0.995200
vn 0.090800 0.708200 0.700200
vn 0.038500 -0.250300 0.967400
vn -0.101800 -0.804200 0.585500
vn 0.484000 0.870600 0.088000
vn -0.120300 0.992300 -0.029100
vn -0.442900 -0.854400 -0.271500
vn 0.403200 -0.862800 -0.304700
vn 0.128100 -0.961100 -0.244500
vn 0.710100 -0.620100 -0.333300
vn 0.131300 0.955700 -0.263300
vn 0.684900 0.631400 -0.363500
vn -0.883100 0.243200 -0.401100
vn -0.398600 0.863400 -0.309200
vn 0.882800 -0.242700 -0.402100
vn 0.903900 0.200500 -0.377800
vn 0.507200 -0.835600 -0.210800
vn 0.534100 0.801400 -0.269200
vn 0.503300 0.828700 -0.244600
vn -0.675000 0.665200 -0.319200
vn -0.910500 -0.200400 -0.361700
vn -0.810300 -0.448400 -0.377200
vn -0.668100 0.679600 -0.303000
vn -0.133000 -0.958500 -0.252200
vn 0.992500 -0.057000 -0.108200
vn 0.904800 -0.423300 -0.047000
vn 0.589700 0.806600 -0.040100
vn -0.777600 -0.524800 -0.346100
vn -0.117500 -0.984900 -0.126900
vn -0.949300 -0.159100 -0.271000
vn -0.447900 0.876000 -0.178600
vn 0.267300 -0.956400 0.118000
vn 0.608100 -0.787800 0.097400
vn 0.800600 -0.420200 0.427100
vn -0.758200 0.600900 0.253000
vn 0.677900 0.623700 0.389100
vn 0.720800 0.635100 0.277700
vn -0.640200 -0.745100 0.187000
vn -0.896400 0.211600 0.389500
vn -0.508400 0.804600 0.306700
vn 0.049000 0.954500 0.294200
vn -0.005900 -0.984600 0.174500
vn 0.515200 -0.842800 0.155900
vn -0.249600 -0.951400 0.180200
vn 0.764000 0.578800 0.284900
vn 0.303100 0.944400 0.127400
vn -0.003800 0.985000 0.172200
vn 0.955100 0.257100 -0.147100
vn 0.965100 -0.254000 0.063700
vn 0.752700 -0.655100 -0.064800
vn 0.609200 0.791200 -0.052900
vn 0.971900 0.220300 -0.082700
vn 0.246200 -0.952200 -0.180500
vn -0.248000 0.952300 0.177800
vn -0.847800 -0.460100 0.263500
vn -0.691700 -0.629200 0.354400
vn -0.408800 -0.874200 -0.261900
vn -0.028400 -0.979100 -0.201400
vn -0.558100 -0.815500 0.153200
vn -0.974800 -0.018200 0.222200
vn -0.839600 0.469700 0.272700
vn 0.614700 0.787300 -0.047300
vn -0.557400 0.815300 0.156600
vn 0.273100 0.936900 -0.218300
vn -0.028400 0.979100 -0.201400
vn 0.740400 0.627900 -0.239800
vn 0.584900 0.481200 -0.652900
vn 0.211000 0.628700 -0.748500
vn -0.034800 0.617800 -0.785600
vn -0.902000 0.234600 -0.362400
vn -0.322000 0.404100 -0.856100
vn -0.442000 0.847900 -0.292500
vn 0.951300 -0.198800 -0.235400
vn 0.597900 -0.647100 -0.473000
vn -0.699100 -0.486300 -0.524200
vn 0.233500 -0.187200 -0.954100
vn 0.197100 -0.652500 -0.731700
vn -0.031000 -0.618900 -0.784900
vn 0.091500 0.099100 -0.990800
vn -0.325500 0.001900 -0.945500
vn 0.574400 0.067600 -0.815700
vn -0.075000 -0.246200 -0.966300
vn 0.524700 0.409400 0.746300
usemtl None
s 1
f 1//1 10//2 19//3
f 1//1 91//4 2//5
f 1//1 3//6 10//2
f 28//7 39//8 37//9
f 14//10 16//11 4//12
f 4//12 16//11 25//13
f 6//14 12//15 15//16
f 6//14 92//17 8//18
f 9//19 12//15 17//20
f 9//19 17//20 19//3
f 11//21 10//2 3//6
f 13//22 11//21 3//6
f 13//22 16//11 14//10
f 13//22 15//16 11//21
f 17//20 20//23 18//24
f 4//12 25//13 21//25
f 5//26 35//27 33//28
f 18//24 20//23 22//29
f 22//29 20//23 27//30
f 2//5 91//4 24//31
f 24//31 91//4 23//32
f 8//18 92//17 26//33
f 26//33 92//17 5//26
f 32//34 33//28 31//35
f 28//7 93//36 40//37
f 22//29 27//30 93//36
f 23//32 28//7 29//38
f 26//33 5//26 33//28
f 27//30 32//34 93//36
f 24//31 23//32 29//38
f 25//13 34//39 21//25
f 40//37 93//36 32//34
f 36//40 37//9 43//41
f 36//40 21//25 34//39
f 34//39 29//38 37//9
f 31//35 33//28 35//27
f 38//42 35//27 21//25
f 30//43 41//44 48//45
f 38//42 42//46 47//47
f 36//40 42//46 38//42
f 38//42 47//47 31//35
f 39//8 43//41 37//9
f 48//45 43//41 39//8
f 44//48 42//46 43//41
f 41//44 30//43 31//35
f 48//45 45//49 43//41
f 54//50 98//51 55//52
f 42//46 44//48 47//47
f 41//44 31//35 47//47
f 50//53 44//48 45//49
f 55//52 56//54 49//55
f 49//55 48//45 41//44
f 44//48 50//53 46//56
f 61//57 50//53 97//58
f 50//53 49//55 52//59
f 52//59 49//55 56//54
f 53//60 51//61 67//62
f 53//60 54//50 51//61
f 56//54 94//63 59//64
f 52//59 59//64 58//65
f 57//66 60//67 75//68
f 50//53 52//59 97//58
f 95//69 57//66 74//70
f 60//67 98//51 75//68
f 54//50 64//71 75//68
f 94//63 95//69 59//64
f 52//59 68//72 97//58
f 94//63 57//66 95//69
f 61//57 66//73 62//74
f 67//62 88//75 63//76
f 66//73 99//77 62//74
f 76//78 61//57 65//79
f 67//62 62//74 99//77
f 63//76 64//71 54//50
f 59//64 95//69 100//80
f 96//81 97//58 68//72
f 59//64 73//82 72//83
f 73//82 82//84 83//85
f 58//65 72//83 68//72
f 72//83 73//82 69//86
f 72//83 69//86 71//87
f 84//88 65//79 96//81
f 71//87 87//89 70//90
f 73//82 100//80 82//84
f 72//83 70//90 68//72
f 75//68 81//91 74//70
f 75//68 101//92 81//91
f 76//78 65//79 84//88
f 76//78 84//88 86//93
f 66//73 86//93 88//75
f 79//94 89//95 90//96
f 77//97 85//98 87//89
f 78//99 101//92 79//94
f 77//97 79//94 80//100
f 78//99 83//85 82//84
f 81//91 101//92 78//99
f 63//76 88//75 90//96
f 84//88 70//90 87//89
f 84//88 85//98 86//93
f 88//75 86//93 90//96
f 86//93 80//100 90//96
f 64//71 89//95 101//92
f 91//4 1//1 19//3
f 1//1 2//5 3//6
f 3//6 2//5 16//11
f 4//12 5//26 14//10
f 5//26 92//17 14//10
f 6//14 8//18 7//101
f 7//101 8//18 20//23
f 12//15 6//14 7//101
f 92//17 6//14 15//16
f 17//20 12//15 7//101
f 10//2 9//19 19//3
f 11//21 9//19 10//2
f 12//15 9//19 11//21
f 12//15 11//21 15//16
f 16//11 13//22 3//6
f 13//22 14//10 15//16
f 15//16 14//10 92//17
f 20//23 17//20 7//101
f 17//20 18//24 19//3
f 19//3 18//24 91//4
f 35//27 4//12 21//25
f 5//26 4//12 35//27
f 22//29 23//32 18//24
f 23//32 91//4 18//24
f 24//31 25//13 2//5
f 25//13 16//11 2//5
f 26//33 27//30 8//18
f 27//30 20//23 8//18
f 39//8 28//7 40//37
f 28//7 22//29 93//36
f 23//32 22//29 28//7
f 32//34 26//33 33//28
f 27//30 26//33 32//34
f 34//39 24//31 29//38
f 25//13 24//31 34//39
f 32//34 30//43 40//37
f 36//40 34//39 37//9
f 38//42 31//35 35//27
f 36//40 38//42 21//25
f 48//45 39//8 40//37
f 47//47 51//61 41//44
f 47//47 46//56 51//61
f 48//45 49//55 50//53
f 45//49 48//45 50//53
f 49//55 51//61 55//52
f 49//55 41//44 51//61
f 44//48 46//56 47//47
f 61//57 62//74 50//53
f 46//56 50//53 62//74
f 67//62 51//61 62//74
f 51//61 46//56 62//74
f 60//67 55//52 98//51
f 56//54 55//52 94//63
f 52//59 58//65 68//72
f 60//67 94//63 55//52
f 94//63 60//67 57//66
f 61//57 97//58 65//79
f 67//62 99//77 88//75
f 75//68 64//71 101//92
f 61//57 76//78 66//73
f 96//81 65//79 97//58
f 63//76 53//60 67//62
f 53//60 63//76 54//50
f 58//65 59//64 72//83
f 68//72 70//90 96//81
f 74//70 82//84 100//80
f 69//86 77//97 71//87
f 71//87 77//97 87//89
f 77//97 69//86 78//99
f 78//99 69//86 83//85
f 77//97 78//99 79//94
f 79//94 101//92 89//95
f 85//98 77//97 80//100
f 74//70 81//91 82//84
f 85//98 84//88 87//89
f 86//93 85//98 80//100
f 64//71 63//76 89//95
f 29//38 28//7 37//9
f 30//43 32//34 31//35
f 42//46 36//40 43//41
f 40//37 30//43 48//45
f 45//49 44//48 43//41
f 51//61 54//50 55//52
f 52//59 56//54 59//64
f 74//70 57//66 75//68
f 100//80 95//69 74//70
f 98//51 54//50 75//68
f 73//82 59//64 100//80
f 69//86 73//82 83//85
f 70//90 72//83 71//87
f 70//90 84//88 96//81
f 66//73 76//78 86//93
f 99//77 66//73 88//75
f 80//100 79//94 90//96
f 81//91 78//99 82//84
f 89//95 63//76 90//96
