# Blender v2.76 (sub 0) OBJ File: 'spines-design.blend'
# www.blender.org
mtllib spine22.mtl
o spine_11_lq_spine_11.001
v 0.186687 -0.000000 0.289409
v 0.157124 0.100844 0.365649
v 0.170564 -0.030848 0.393388
v 0.151497 0.115900 0.285942
v -0.186491 0.000000 0.287275
v -0.153959 -0.113260 0.359452
v -0.135402 -0.039410 0.412448
v -0.153959 0.113260 0.359452
v -0.024443 -0.024443 0.433558
v 0.102388 0.035250 0.423374
v 0.019238 0.115040 0.421267
v 0.103404 -0.072487 0.414721
v -0.074477 0.136430 0.406827
v -0.043456 0.185533 0.287235
v 0.082297 0.184783 0.323346
v -0.043456 -0.185533 0.287235
v 0.087927 -0.156109 0.380389
v -0.027780 -0.156440 0.400903
v -0.016795 -0.046700 -0.018941
v -0.135198 0.098098 0.224842
v -0.135199 -0.098100 0.224841
v 0.125666 -0.136580 0.254756
v -0.045420 0.025169 -0.012645
v 0.054727 0.026285 0.017539
v 0.037957 -0.026269 -0.011932
v 0.006379 0.048441 -0.009293
v -0.164736 0.096063 -0.513748
v -0.077886 0.096232 -0.556173
v -0.045081 0.035074 -0.324969
v -0.071416 0.037429 -0.182999
v -0.054467 -0.027287 -0.104254
v -0.413959 -0.055913 -0.832748
v -0.381224 0.150337 -0.839474
v -0.164739 -0.096063 -0.513751
v -0.077886 -0.096232 -0.556176
v -0.188319 0.042953 -0.439504
v -0.029232 -0.000000 -0.550110
v -0.052822 -0.043853 -0.382651
v -0.398146 -0.052581 -0.946992
v -0.382791 0.093308 -0.947615
v -0.216463 0.251635 -0.846213
v -0.117458 -0.243685 -0.825965
v -0.324966 -0.211311 -0.848750
v 0.099863 -0.000000 -0.892875
v 0.079668 -0.105924 -0.902538
v 0.079669 0.105923 -0.902537
v -0.166112 0.243532 -0.937152
v -0.062236 0.246834 -0.904982
v -0.307618 0.195708 -0.952278
v -0.111683 -0.241699 -0.939620
v -0.307614 -0.195706 -0.952281
v -0.210954 -0.016977 -1.143201
v -0.198374 0.046822 -1.144233
v -0.167791 0.006318 -1.171568
v -0.127488 0.000000 -1.173720
v -0.067688 0.031992 -1.150926
v -0.082144 -0.056880 -1.147356
v -0.135617 0.070164 -1.154281
v -0.164243 -0.062623 -1.155201
v 0.026020 -0.193313 -0.898380
v -0.186265 -0.030607 -0.418953
v 0.026020 0.193313 -0.898381
vn 0.810700 -0.176000 0.558400
vn 0.290400 -0.266900 0.918900
vn 0.426300 -0.773700 0.468600
vn 0.655500 -0.719800 -0.228400
vn 0.988100 -0.042800 -0.147600
vn 0.800400 0.553700 -0.229600
vn 0.754800 0.469600 0.457900
vn 0.316400 0.151900 0.936300
vn 0.830600 0.375400 -0.411400
vn 0.739600 -0.543800 -0.396600
vn -0.997300 -0.000700 -0.073400
vn -0.763500 -0.543800 -0.348300
vn -0.769600 -0.551600 0.321600
vn -0.597500 -0.098400 0.795800
vn -0.787000 0.519800 0.332100
vn -0.755600 0.558300 -0.342400
vn -0.128100 -0.708200 0.694300
vn -0.059800 -0.066200 0.996000
vn -0.798300 0.433800 0.417700
vn -0.822100 0.542800 0.171800
vn -0.964800 -0.186800 0.185300
vn 0.107500 0.459400 0.881700
vn -0.287100 0.612000 0.736800
vn -0.239600 0.965700 -0.100200
vn 0.350700 0.927700 0.127700
vn -0.191200 -0.975200 -0.111100
vn -0.889400 0.409300 -0.203600
vn -0.274100 -0.880800 -0.386100
vn 0.107400 0.962800 -0.247900
vn -0.586100 0.779400 0.221400
vn -0.675900 -0.714400 0.181000
vn -0.184600 0.909600 0.372100
vn 0.796300 0.603000 -0.047600
vn 0.537200 0.782000 0.315900
vn 0.769000 -0.637300 0.049000
vn -0.579800 -0.806200 0.117600
vn -0.852400 -0.312100 0.419600
vn 0.551000 -0.762300 0.339600
vn -0.156000 -0.905100 0.395500
vn -0.887200 -0.190300 -0.420300
vn -0.516200 -0.731200 -0.445900
vn 0.974700 -0.002600 0.223300
vn -0.857800 0.287900 -0.425800
vn 0.924100 0.364000 -0.116100
vn 0.698400 0.709800 -0.091700
vn 0.996900 -0.003200 -0.078900
vn 0.924700 -0.360200 -0.122900
vn -0.623700 -0.140400 -0.768900
vn -0.199000 -0.521600 -0.829600
vn 0.126100 -0.964900 0.230200
vn 0.675600 -0.731400 -0.093100
vn 0.039700 0.582000 -0.812200
vn -0.521600 0.742900 -0.419600
vn -0.059000 0.911300 -0.407500
vn -0.207300 0.962000 0.177500
vn 0.334700 0.933600 -0.127900
vn 0.121200 -0.930300 -0.346100
vn -0.506600 0.368000 -0.779600
vn -0.286400 0.052800 -0.956600
vn 0.460400 -0.437000 -0.772600
vn 0.584400 0.241000 -0.774800
vn 0.132700 -0.023900 -0.990800
usemtl None
s 1
f 3//1 12//2 17//3
f 3//1 22//4 1//5
f 1//5 4//6 2//7
f 3//1 2//7 10//8
f 24//9 4//6 1//5
f 1//5 22//4 25//10
f 5//11 21//12 6//13
f 5//11 7//14 8//15
f 8//15 20//16 5//11
f 7//14 6//13 18//17
f 9//18 12//2 10//8
f 36//19 33//20 32//21
f 10//8 2//7 11//22
f 11//22 13//23 9//18
f 14//24 13//23 15//25
f 15//25 11//22 2//7
f 14//24 20//16 8//15
f 16//26 18//17 6//13
f 6//13 21//12 16//26
f 16//26 22//4 17//3
f 23//27 19//28 21//12
f 15//25 4//6 24//9
f 14//24 26//29 23//27
f 16//26 21//12 19//28
f 23//27 30//30 31//31
f 23//27 31//31 19//28
f 27//32 29//33 28//34
f 29//33 25//10 38//35
f 30//30 26//29 29//33
f 30//30 27//32 36//19
f 31//31 38//35 25//10
f 32//21 43//36 61//37
f 35//38 38//35 34//39
f 39//40 51//41 43//36
f 38//35 37//42 29//33
f 37//42 28//34 29//33
f 40//43 39//40 32//21
f 46//44 62//45 28//34
f 46//44 37//42 44//46
f 45//47 37//42 35//38
f 44//46 37//42 45//47
f 52//48 59//49 51//41
f 33//20 36//19 27//32
f 42//50 60//51 35//38
f 42//50 34//39 43//36
f 34//39 61//37 43//36
f 58//52 49//53 47//54
f 49//53 41//55 47//54
f 49//53 33//20 41//55
f 47//54 41//55 48//56
f 50//57 43//36 51//41
f 52//48 53//58 54//59
f 52//48 54//59 59//49
f 50//57 57//60 60//51
f 50//57 51//41 59//49
f 59//49 57//60 50//57
f 52//48 39//40 40//43
f 53//58 40//43 49//53
f 56//61 62//45 46//44
f 45//47 60//51 57//60
f 44//46 56//61 46//44
f 55//62 57//60 59//49
f 56//61 57//60 55//62
f 56//61 45//47 57//60
f 58//52 54//59 53//58
f 22//4 3//1 17//3
f 3//1 1//5 2//7
f 24//9 1//5 25//10
f 7//14 5//11 6//13
f 8//15 7//14 13//23
f 9//18 7//14 18//17
f 10//8 12//2 3//1
f 9//18 10//8 11//22
f 9//18 13//23 7//14
f 4//6 15//25 2//7
f 15//25 13//23 11//22
f 13//23 14//24 8//15
f 18//17 17//3 12//2
f 18//17 16//26 17//3
f 5//11 20//16 23//27
f 5//11 23//27 21//12
f 14//24 15//25 26//29
f 15//25 24//9 26//29
f 20//16 14//24 23//27
f 16//26 19//28 22//4
f 22//4 19//28 25//10
f 36//19 31//31 30//30
f 31//31 36//19 61//37
f 26//29 24//9 29//33
f 23//27 26//29 30//30
f 27//32 28//34 41//55
f 29//33 24//9 25//10
f 30//30 29//33 27//32
f 19//28 31//31 25//10
f 34//39 31//31 61//37
f 31//31 34//39 38//35
f 34//39 42//50 35//38
f 35//38 37//42 38//35
f 49//53 40//43 33//20
f 41//55 33//20 27//32
f 48//56 41//55 28//34
f 62//45 48//56 28//34
f 58//52 53//58 49//53
f 56//61 48//56 62//45
f 47//54 48//56 58//52
f 48//56 56//61 58//52
f 42//50 50//57 60//51
f 50//57 42//50 43//36
f 56//61 44//46 45//47
f 55//62 59//49 54//59
f 55//62 54//59 58//52
f 55//62 58//52 56//61
f 61//37 36//19 32//21
f 32//21 39//40 43//36
f 33//20 40//43 32//21
f 37//42 46//44 28//34
f 60//51 45//47 35//38
f 39//40 52//48 51//41
f 53//58 52//48 40//43
f 9//18 18//17 12//2
