# Blender v2.76 (sub 0) OBJ File: 'spines-design.blend'
# www.blender.org
mtllib spine28.mtl
o spine_5_lq_spine_5.001
v -0.229812 -0.006085 0.424012
v -0.050425 -0.079908 0.206186
v 0.230278 0.016506 0.424578
v 0.020398 -0.038957 0.455368
v 0.038780 0.118000 0.440330
v -0.147909 0.026813 0.444111
v -0.015901 -0.141441 0.429886
v -0.138947 -0.121900 0.412261
v 0.115799 -0.125502 0.422967
v 0.065670 0.145269 0.385037
v -0.135580 0.118045 0.420471
v -0.073254 0.064327 0.215313
v -0.123222 -0.008506 0.239887
v 0.090845 0.051596 0.162434
v 0.090716 -0.055949 0.204808
v -0.169919 0.022354 -0.015718
v 0.041181 -0.060349 -0.212622
v -0.029890 -0.111198 -0.465610
v -0.134716 0.022262 -0.232935
v -0.085875 -0.069986 -0.187191
v -0.027397 0.080951 -0.159509
v -0.010811 0.110912 -0.437067
v 0.078801 0.025114 -0.182566
v 0.117417 0.061301 -0.447304
v -0.170704 -0.050255 -0.507895
v -0.120056 0.074517 -0.708676
v -0.134320 0.014492 -0.672758
v -0.004148 -0.000395 -0.901014
v 0.075471 -0.075927 -0.864090
v 0.214108 -0.073855 -0.739408
v -0.209504 0.062259 -0.901426
v -0.125470 0.018047 -0.930221
v -0.121616 -0.043650 -0.920359
v -0.221831 -0.079704 -0.846049
v -0.476663 -0.067475 -0.842020
v -0.288171 -0.013986 -0.691488
v -0.297649 0.054251 -0.710167
v -0.106778 -0.072833 -0.692324
v -0.200733 -0.016533 -0.921471
v -0.343705 -0.038061 -0.976875
v -0.355554 0.049652 -0.974103
v -0.506693 0.017306 -0.824945
v -0.473225 0.071745 -0.897963
v -0.508563 -0.053465 -1.080937
v -0.451466 0.023405 -1.136954
v -0.550874 0.032022 -1.425317
v -0.585162 -0.004682 -1.430273
v -0.674151 0.001933 -1.359578
v -0.566744 -0.050148 -1.404553
v 0.431171 0.121532 -0.914645
v 0.090706 0.001099 -0.948608
v 0.074197 0.075643 -0.864481
v 0.227090 0.073557 -0.749797
v 0.267176 -0.003042 -0.705289
v 0.207070 -0.021282 -1.141596
v 0.239285 0.093239 -1.113220
v 0.391511 -0.129199 -0.966596
v 0.263474 -0.107624 -1.092077
v 0.495288 0.029317 -0.845606
v 0.486197 -0.067962 -0.863137
v 0.621447 -0.037292 -1.108625
v 0.487270 0.047293 -1.249208
v 0.602272 0.054944 -1.117441
v 0.469633 -0.045926 -1.254915
vn -0.937500 -0.042200 0.345300
vn -0.192000 0.063800 0.979300
vn -0.490800 0.791000 0.365300
vn -0.516600 -0.780400 0.352100
vn -0.046700 -0.854400 0.517500
vn 0.022200 -0.091200 0.995600
vn 0.918600 0.086300 0.385500
vn 0.451900 -0.791000 0.412300
vn 0.657700 -0.694600 -0.291300
vn -0.286200 -0.940700 -0.181800
vn -0.451100 -0.891100 0.049700
vn 0.106500 0.576300 0.810200
vn 0.262000 0.963300 0.058700
vn 0.934500 0.339700 0.106000
vn 0.720500 0.650700 -0.239800
vn -0.069500 0.994800 0.074100
vn -0.239900 0.960600 0.140300
vn -0.939700 0.337200 0.057200
vn -0.982300 0.186900 0.012700
vn -0.951700 -0.119100 -0.282800
vn -0.432700 0.886000 -0.166400
vn -0.020300 0.999600 0.019600
vn -0.267200 0.712300 0.649000
vn 0.070500 0.846200 -0.528000
vn -0.072500 -0.996700 0.037000
vn 0.520600 -0.843700 0.130400
vn 0.520800 0.833800 0.183000
vn -0.926700 -0.375500 -0.010600
vn -0.858200 0.097200 0.504000
vn -0.274700 -0.952800 0.128800
vn 0.237500 -0.934800 0.264100
vn 0.248800 0.920000 0.302600
vn 0.021400 -0.977200 -0.211100
vn 0.020000 -0.558600 -0.829200
vn -0.186200 -0.940300 -0.284700
vn 0.074200 -0.015500 -0.997100
vn -0.184700 0.942500 -0.278600
vn 0.054000 0.230700 -0.971500
vn 0.367700 0.747300 -0.553400
vn 0.089600 -0.313500 -0.945300
vn 0.544600 -0.388800 -0.743100
vn 0.118300 -0.482500 -0.867900
vn -0.665800 -0.166800 -0.727300
vn -0.395400 0.761700 -0.513300
vn -0.779100 0.226300 0.584600
vn -0.505400 -0.778000 0.373200
vn -0.320600 -0.281800 0.904300
vn -0.316600 0.941500 0.115000
vn -0.971900 0.066800 -0.225800
vn 0.090300 -0.977100 -0.192600
vn 0.880900 0.230100 -0.413600
vn 0.220600 -0.833200 -0.507000
vn 0.409300 0.571100 -0.711500
vn -0.245500 -0.089000 -0.965300
vn 0.271700 0.935700 0.225000
vn -0.747200 -0.031300 -0.663900
vn 0.144300 -0.987900 0.057400
vn 0.897800 -0.416900 -0.141700
vn 0.695000 0.290200 0.657800
vn 0.740500 -0.025600 0.671600
vn 0.594200 -0.604900 0.530100
vn 0.774500 0.604500 -0.186200
vn 0.203200 0.519000 -0.830300
vn -0.316200 -0.873600 -0.369900
usemtl None
s 1
f 1//1 6//2 11//3
f 8//4 7//5 4//6
f 3//7 9//8 15//9
f 15//9 2//10 20//11
f 4//6 5//12 6//2
f 7//5 8//4 2//10
f 10//13 5//12 3//7
f 23//14 14//15 15//9
f 22//16 26//17 19//18
f 16//19 20//11 2//10
f 16//19 13//20 12//21
f 16//19 19//18 20//11
f 21//22 14//15 23//14
f 21//22 19//18 16//19
f 37//23 26//17 31//24
f 20//11 18//25 17//26
f 21//22 23//14 24//27
f 19//18 25//28 20//11
f 25//28 19//18 26//17
f 27//29 38//30 25//28
f 27//29 25//28 26//17
f 30//31 17//26 18//25
f 38//30 30//31 18//25
f 13//20 2//10 8//4
f 22//16 24//27 53//32
f 22//16 53//32 26//17
f 34//33 33//34 29//35
f 28//36 29//35 33//34
f 52//37 32//38 31//24
f 52//37 31//24 26//17
f 52//37 26//17 53//32
f 41//39 31//24 39//40
f 37//23 27//29 26//17
f 34//33 40//41 39//40
f 39//40 33//34 34//33
f 39//40 31//24 32//38
f 39//40 32//38 33//34
f 64//42 55//43 56//44
f 42//45 35//46 36//47
f 36//47 35//46 38//30
f 42//45 36//47 37//23
f 37//23 43//48 42//45
f 48//49 44//50 35//46
f 44//50 40//41 34//33
f 45//51 40//41 44//50
f 45//51 44//50 49//52
f 46//53 43//48 45//51
f 46//53 49//52 47//54
f 50//55 56//44 52//37
f 52//37 53//32 50//55
f 51//56 52//37 56//44
f 57//57 64//42 61//58
f 57//57 30//31 29//35
f 59//59 50//55 53//32
f 59//59 54//60 60//61
f 61//58 63//62 59//59
f 62//63 63//62 61//58
f 1//1 11//3 12//21
f 7//5 2//10 9//8
f 9//8 2//10 15//9
f 10//13 3//7 14//15
f 6//2 5//12 11//3
f 4//6 6//2 1//1
f 3//7 4//6 9//8
f 11//3 10//13 12//21
f 14//15 12//21 10//13
f 14//15 3//7 15//9
f 14//15 21//22 12//21
f 12//21 21//22 16//19
f 13//20 16//19 2//10
f 21//22 24//27 22//16
f 30//31 54//60 17//26
f 24//27 54//60 53//32
f 23//14 17//26 54//60
f 23//14 54//60 24//27
f 38//30 18//25 25//28
f 52//37 28//36 32//38
f 38//30 29//35 30//31
f 34//33 29//35 38//30
f 27//29 36//47 38//30
f 37//23 36//47 27//29
f 41//39 40//41 45//51
f 45//51 43//48 41//39
f 41//39 43//48 31//24
f 42//45 43//48 48//49
f 42//45 48//49 35//46
f 35//46 44//50 34//33
f 49//52 44//50 48//49
f 46//53 45//51 49//52
f 46//53 48//49 43//48
f 47//54 49//52 48//49
f 47//54 48//49 46//53
f 51//56 29//35 28//36
f 51//56 28//36 52//37
f 29//35 51//56 58//64
f 54//60 30//31 60//61
f 54//60 59//59 53//32
f 57//57 58//64 64//42
f 60//61 57//57 61//58
f 55//43 58//64 51//56
f 57//57 60//61 30//31
f 58//64 57//57 29//35
f 59//59 63//62 50//55
f 62//63 50//55 63//62
f 50//55 62//63 56//44
f 58//64 55//43 64//42
f 5//12 4//6 3//7
f 13//20 1//1 12//21
f 9//8 4//6 7//5
f 5//12 10//13 11//3
f 25//28 18//25 20//11
f 32//38 28//36 33//34
f 35//46 34//33 38//30
f 55//43 51//56 56//44
f 59//59 60//61 61//58
f 62//63 61//58 64//42
f 1//1 8//4 4//6
f 17//26 15//9 20//11
f 17//26 23//14 15//9
f 21//22 22//16 19//18
f 43//48 37//23 31//24
f 1//1 13//20 8//4
f 40//41 41//39 39//40
f 62//63 64//42 56//44
