# Blender v2.76 (sub 0) OBJ File: 'spines-design.blend'
# www.blender.org
mtllib spine25.mtl
o spine_2_rot1_lq_spine_2_rot1.001
v -0.027805 0.100370 0.573594
v 0.064415 0.081111 0.532570
v -0.022815 -0.113589 0.587802
v 0.017478 -0.025954 0.623642
v -0.024183 0.033797 0.624401
v -0.044457 -0.075633 0.616707
v -0.099784 0.018611 0.614822
v -0.100901 -0.064324 0.596535
v 0.138149 -0.107252 0.599734
v 0.133907 -0.115687 0.573770
v 0.137342 0.120350 0.581214
v 0.142796 -0.028690 0.613241
v 0.141984 0.077547 0.607970
v 0.066477 -0.087079 0.530186
v -0.064718 0.006790 0.392427
v 0.089628 0.017376 0.522257
v -0.054181 -0.037257 0.387550
v 0.017984 -0.031557 0.385016
v -0.018264 -0.052219 0.378692
v -0.030026 0.034760 0.372638
v 0.018593 0.015719 0.381485
v -0.078030 -0.097860 0.280710
v -0.036677 0.022925 0.236915
v 0.010356 0.016123 0.247363
v -0.074815 0.015851 0.256134
v -0.094715 -0.013921 0.287353
v 0.036395 -0.019824 0.245622
v -0.096185 -0.204442 0.010171
v 0.003471 -0.196681 -0.006942
v 0.013375 -0.113615 0.253966
v -0.032217 -0.042868 0.051984
v -0.101492 -0.058690 0.064072
v -0.111346 -0.126764 0.091947
v 0.021432 -0.126764 0.080330
v 0.012886 -0.068813 0.054343
v -0.162056 -0.135899 -0.038064
v -0.060540 -0.212636 -0.091975
v -0.124646 -0.190872 -0.099501
v 0.001285 -0.190873 -0.110519
v 0.048894 -0.138459 -0.052540
v -0.131096 -0.091026 -0.200287
v -0.154276 -0.070544 -0.035823
v 0.037566 -0.053754 -0.037497
v -0.009863 -0.091024 -0.210890
v -0.043873 -0.135669 -0.216402
v -0.018185 -0.011265 -0.039488
v -0.115908 -0.022200 -0.036844
v -0.110371 -0.085196 -0.431163
v -0.111847 -0.111355 -0.242816
v -0.103615 -0.053619 -0.406448
v -0.074987 -0.051452 -0.409591
v -0.069635 -0.080812 -0.424248
v -0.154757 -0.248004 -0.793043
v -0.022151 -0.217834 -0.789158
v -0.083015 0.031186 -0.574739
v -0.153918 0.015049 -0.558123
v -0.192522 -0.035152 -0.562921
v -0.031756 -0.008678 -0.555033
v -0.280674 -0.163461 -0.946862
v -0.260552 -0.041953 -0.961073
v -0.115840 0.063936 -0.724062
v -0.021484 0.038891 -0.747262
v -0.191926 0.044832 -0.699312
v -0.265331 -0.119080 -0.738746
v -0.248370 0.004898 -0.768573
v 0.030628 -0.103445 -0.755343
v 0.016680 -0.020794 -0.772084
v -0.187578 -0.349451 -1.161812
v -0.030304 -0.313206 -1.174201
v 0.007801 -0.163461 -0.972100
v -0.014483 -0.041953 -0.982601
v -0.224386 -0.255539 -0.946124
v -0.098650 -0.275906 -0.957165
v -0.101998 0.015402 -0.973941
v -0.193190 0.008123 -0.965428
v -0.166646 -0.176951 -1.304778
v -0.080752 -0.175632 -1.301891
v -0.198993 -0.259902 -1.280796
v -0.250735 -0.175632 -1.287020
v -0.166406 -0.064323 -1.302024
v -0.067860 -0.096037 -1.298919
v -0.086346 -0.284042 -1.268060
v -0.262915 -0.096040 -1.281855
v -0.158992 0.024067 -1.217287
v -0.047333 0.000078 -1.201075
v -0.266139 0.000078 -1.181932
v -0.343469 -0.200655 -1.163921
v -0.331073 -0.086383 -1.177587
v 0.031949 -0.200655 -1.196766
v 0.017369 -0.086383 -1.208072
v -0.012272 0.085752 0.613620
v -0.071117 0.085613 0.598102
v -0.235451 -0.204444 -0.784483
v -0.029532 -0.238310 -0.967171
v -0.257079 -0.032145 -1.253796
v -0.009914 -0.198237 -1.272736
v -0.190178 -0.321547 -1.242551
v -0.315434 -0.198236 -1.246007
v -0.292060 -0.296409 -1.155483
v -0.068737 -0.032144 -1.270276
vn -0.099900 0.585100 0.804700
vn 0.742900 0.234200 0.627000
vn 0.615300 0.787700 -0.027800
vn -0.222800 0.972100 -0.072900
vn 0.292900 0.723700 -0.624700
vn 0.036600 -0.075400 0.996500
vn -0.199900 -0.412000 0.889000
vn 0.656100 -0.539700 0.527500
vn 0.783000 -0.052500 0.619800
vn -0.226800 -0.946200 0.230800
vn -0.820900 -0.467400 0.328000
vn -0.073500 0.116700 0.990400
vn -0.608400 0.705000 0.364400
vn 0.160800 0.985400 0.056400
vn 0.284000 0.954100 0.095300
vn -0.477200 0.869700 0.125700
vn -0.184200 0.968800 -0.165600
vn -0.015100 0.957600 -0.287700
vn -0.616100 0.781000 -0.101600
vn 0.375100 -0.699100 -0.608700
vn 0.605500 -0.726300 -0.325300
vn 0.785200 0.077800 -0.614300
vn 0.043400 -0.986200 0.159800
vn -0.772400 -0.626600 0.103700
vn -0.937100 0.341400 -0.071900
vn 0.882500 -0.447000 -0.146200
vn 0.804100 0.526200 -0.276400
vn 0.514300 0.829200 -0.218900
vn -0.967600 -0.226200 0.111900
vn -0.962500 -0.141200 0.231500
vn -0.720800 0.668400 0.183400
vn -0.957000 0.247300 0.151800
vn 0.970300 0.229300 -0.076400
vn 0.594000 -0.743500 0.307200
vn -0.609600 -0.683800 0.401000
vn -0.392500 -0.886600 0.244500
vn 0.525200 -0.837700 0.149700
vn 0.838600 0.543100 0.042600
vn 0.867700 0.494500 0.050100
vn 0.987800 -0.142700 0.061500
vn 0.973900 -0.216700 -0.066500
vn -0.620600 -0.741700 -0.254300
vn -0.965200 -0.174600 -0.194600
vn -0.634900 -0.715600 -0.291100
vn 0.576600 -0.738500 -0.349300
vn 0.329200 -0.817500 -0.472500
vn 0.919900 -0.165100 -0.355600
vn -0.019000 -0.972400 -0.232600
vn 0.607300 0.786600 0.111100
vn -0.683100 0.694800 0.224900
vn 0.193800 0.929400 0.314000
vn -0.461500 0.791500 0.400600
vn 0.770100 -0.626100 0.122100
vn -0.597700 -0.721000 0.350500
vn -0.925400 0.347700 0.150300
vn -0.876300 0.194500 0.440700
vn 0.002300 0.999900 0.015100
vn -0.502700 0.848900 0.163300
vn 0.614900 -0.756400 0.222800
vn 0.812900 0.484600 0.323000
vn 0.592900 0.805200 -0.005500
vn -0.851700 0.516500 0.087900
vn -0.963100 -0.172200 0.206500
vn -0.947600 -0.158900 0.277000
vn 0.223600 0.970200 -0.092800
vn -0.344100 0.938200 -0.037200
vn 0.984500 -0.133800 0.112900
vn 0.931200 0.363700 -0.021800
vn -0.530700 -0.802600 0.272300
vn -0.689100 -0.663200 0.291900
vn 0.274800 -0.625900 -0.729800
vn 0.586000 -0.802500 -0.112200
vn -0.117700 -0.993000 -0.013300
vn -0.826400 0.560100 0.057400
vn 0.196800 -0.951200 0.237700
vn 0.987400 -0.153100 0.039000
vn 0.839000 0.540400 -0.063300
vn 0.378000 0.207100 -0.902300
vn 0.180500 -0.134100 -0.974400
vn -0.070700 -0.118000 -0.990500
vn 0.731000 -0.666400 0.146900
vn -0.121400 -0.942700 0.310700
vn -0.264900 -0.437000 -0.859600
vn -0.208800 -0.785500 -0.582500
vn -0.700000 -0.712500 -0.048500
vn -0.080900 0.371600 -0.924900
vn 0.391600 0.596700 -0.700400
vn -0.529000 0.207100 -0.822900
vn 0.659600 -0.200800 -0.724300
vn -0.032200 0.935900 -0.350600
vn -0.562700 0.816800 -0.126900
vn 0.534000 0.815400 -0.223400
vn -0.507200 0.596700 -0.621800
vn -0.362900 -0.123300 -0.923600
vn -0.756800 -0.236000 -0.609500
vn -0.931100 0.340400 -0.130900
vn -0.980100 -0.198300 -0.007200
vn 0.960800 -0.212500 -0.178300
vn 0.894200 0.340400 -0.290600
vn -0.788000 0.174200 0.590600
usemtl None
s 1
f 91//1 13//2 11//3
f 1//4 11//3 2//5
f 4//6 6//7 9//8
f 4//6 12//9 13//2
f 3//10 6//7 8//11
f 5//12 91//1 92//13
f 31//14 46//15 47//16
f 20//17 23//18 25//19
f 5//12 6//7 4//6
f 3//10 14//20 10//21
f 10//21 12//9 9//8
f 16//22 10//21 14//20
f 19//23 8//11 17//24
f 17//24 8//11 15//25
f 16//22 14//20 18//26
f 20//17 2//5 21//27
f 18//26 21//27 16//22
f 1//4 20//17 15//25
f 20//17 21//27 24//28
f 36//29 33//30 32//31
f 26//32 15//25 20//17
f 20//17 25//19 26//32
f 27//33 18//26 30//34
f 27//33 24//28 21//27
f 26//32 25//19 33//30
f 26//32 33//30 22//35
f 28//36 29//37 30//34
f 28//36 30//34 22//35
f 31//14 35//38 43//39
f 35//38 34//40 40//41
f 32//31 23//18 24//28
f 31//14 27//33 35//38
f 34//40 35//38 27//33
f 34//40 30//34 29//37
f 36//29 38//42 28//36
f 41//43 49//44 38//42
f 39//45 45//46 44//47
f 45//46 38//42 49//44
f 37//48 45//46 39//45
f 29//37 39//45 40//41
f 37//48 28//36 38//42
f 51//49 50//50 47//16
f 51//49 55//51 56//52
f 40//41 44//47 43//39
f 51//49 46//15 43//39
f 52//53 44//47 45//46
f 52//53 49//44 48//54
f 50//50 49//44 41//43
f 42//55 47//16 50//50
f 50//50 56//52 57//56
f 55//51 61//57 63//58
f 48//54 54//59 52//53
f 57//56 56//52 63//58
f 55//51 58//60 62//61
f 60//62 59//63 64//64
f 61//57 74//65 75//66
f 66//67 52//53 54//59
f 66//67 67//68 58//60
f 67//68 62//61 58//60
f 72//69 93//70 59//63
f 61//57 62//61 74//65
f 82//71 69//72 68//73
f 63//58 75//66 65//74
f 64//64 57//56 65//74
f 68//73 69//72 73//75
f 66//67 70//76 71//77
f 81//78 77//79 76//80
f 76//80 77//79 82//71
f 70//76 54//59 94//81
f 53//82 73//75 54//59
f 73//75 94//81 54//59
f 72//69 53//82 93//70
f 60//62 65//74 75//66
f 74//65 62//61 71//77
f 78//83 97//84 99//85
f 80//86 100//87 81//78
f 83//88 80//86 76//80
f 96//89 69//72 82//71
f 84//90 86//91 75//66
f 84//90 85//92 100//87
f 83//88 95//93 80//86
f 79//94 98//95 83//88
f 86//91 60//62 75//66
f 84//90 80//86 95//93
f 74//65 71//77 85//92
f 99//85 72//69 59//63
f 88//96 87//97 59//63
f 88//96 83//88 98//95
f 70//76 89//98 90//99
f 89//98 70//76 94//81
f 86//91 95//93 88//96
f 87//97 98//95 99//85
f 96//89 81//78 90//99
f 90//99 85//92 71//77
f 90//99 100//87 85//92
f 90//99 81//78 100//87
f 1//4 92//13 11//3
f 92//13 91//1 11//3
f 3//10 9//8 6//7
f 91//1 5//12 13//2
f 5//12 7//100 6//7
f 7//100 15//25 8//11
f 7//100 8//11 6//7
f 3//10 10//21 9//8
f 13//2 10//21 11//3
f 12//9 10//21 13//2
f 11//3 16//22 2//5
f 16//22 11//3 10//21
f 19//23 14//20 3//10
f 19//23 3//10 8//11
f 15//25 7//100 92//13
f 16//22 21//27 2//5
f 14//20 19//23 18//26
f 19//23 30//34 18//26
f 22//35 19//23 17//24
f 19//23 22//35 30//34
f 23//18 20//17 24//28
f 26//32 17//24 15//25
f 17//24 26//32 22//35
f 27//33 21//27 18//26
f 34//40 27//33 30//34
f 31//14 43//39 46//15
f 31//14 32//31 24//28
f 32//31 25//19 23//18
f 31//14 24//28 27//33
f 32//31 33//30 25//19
f 22//35 33//30 28//36
f 36//29 28//36 33//30
f 42//55 32//31 47//16
f 40//41 34//40 29//37
f 45//46 37//48 38//42
f 37//48 29//37 28//36
f 29//37 37//48 39//45
f 41//43 36//29 42//55
f 51//49 43//39 44//47
f 52//53 51//49 44//47
f 52//53 45//46 49//44
f 50//50 41//43 42//55
f 48//54 50//50 64//64
f 48//54 49//44 50//50
f 48//54 53//82 54//59
f 58//60 51//49 52//53
f 55//51 51//49 58//60
f 61//57 55//51 62//61
f 57//56 64//64 50//50
f 48//54 64//64 93//70
f 52//53 66//67 58//60
f 59//63 93//70 64//64
f 20//17 1//4 2//5
f 99//85 68//73 72//69
f 97//84 68//73 99//85
f 67//68 71//77 62//61
f 70//76 66//67 54//59
f 53//82 72//69 73//75
f 96//89 77//79 81//78
f 78//83 82//71 97//84
f 77//79 96//89 82//71
f 76//80 78//83 79//94
f 79//94 78//83 98//95
f 86//91 88//96 60//62
f 83//88 88//96 95//93
f 96//89 89//98 69//72
f 53//82 48//54 93//70
f 73//75 69//72 94//81
f 72//69 68//73 73//75
f 84//90 74//65 85//92
f 12//9 4//6 9//8
f 5//12 4//6 13//2
f 7//100 5//12 92//13
f 32//31 31//14 47//16
f 92//13 1//4 15//25
f 42//55 36//29 32//31
f 43//39 35//38 40//41
f 36//29 41//43 38//42
f 40//41 39//45 44//47
f 46//15 51//49 47//16
f 50//50 51//49 56//52
f 56//52 55//51 63//58
f 65//74 57//56 63//58
f 65//74 60//62 64//64
f 63//58 61//57 75//66
f 97//84 82//71 68//73
f 67//68 66//67 71//77
f 80//86 81//78 76//80
f 78//83 76//80 82//71
f 98//95 78//83 99//85
f 79//94 83//88 76//80
f 74//65 84//90 75//66
f 80//86 84//90 100//87
f 86//91 84//90 95//93
f 87//97 99//85 59//63
f 60//62 88//96 59//63
f 87//97 88//96 98//95
f 71//77 70//76 90//99
f 69//72 89//98 94//81
f 89//98 96//89 90//99
