# Blender v2.76 (sub 0) OBJ File: 'spines-design.blend'
# www.blender.org
mtllib spine23.mtl
o spine_14_lq_spine_14.001
v -0.025490 0.168153 0.588771
v 0.093320 0.126949 0.621971
v 0.020558 0.114554 0.619633
v -0.025490 -0.168153 0.588771
v 0.100373 -0.138348 0.614273
v -0.003064 -0.117025 0.616084
v 0.013697 -0.034981 0.627555
v 0.094287 0.023250 0.637363
v -0.033436 0.094135 0.613452
v -0.101420 -0.023250 0.600085
v -0.155138 -0.035410 0.569061
v -0.135013 0.101271 0.569437
v -0.106232 0.071074 0.592891
v 0.155648 -0.035410 0.628260
v 0.149689 0.064480 0.624417
v 0.101407 -0.071074 0.632442
v -0.066088 -0.178083 0.540404
v 0.083369 -0.178083 0.568872
v 0.010370 -0.188564 0.545558
v 0.010370 0.188564 0.545558
v 0.057176 0.006402 0.131565
v 0.008288 -0.042900 0.246090
v 0.100546 0.053639 0.232267
v 0.083369 0.178082 0.568872
v -0.066088 0.178083 0.540404
v -0.178382 0.000000 0.520696
v -0.166297 0.076072 0.521316
v -0.166297 -0.076072 0.521316
v 0.195045 0.000000 0.591826
v 0.183578 -0.076073 0.587960
v 0.183578 0.076072 0.587960
v 0.118876 -0.029812 0.084135
v 0.131782 0.013994 0.259982
v 0.118670 -0.033196 0.221309
v 0.061469 -0.055027 0.212204
v 0.082888 -0.070812 0.275405
v 0.063164 0.038898 0.167208
v 0.130465 -0.004638 -0.024390
v 0.081736 -0.031844 0.085636
v 0.121531 0.012401 0.102796
v 0.102500 -0.006800 -0.025406
v 0.111864 -0.046711 -0.094909
v 0.150130 -0.040063 -0.087298
v 0.110046 -0.064429 -0.057800
v 0.122834 -0.033268 -0.092854
v 0.195450 -0.073670 -0.563359
v 0.189313 -0.087136 -0.415022
v 0.143108 -0.062180 -0.059761
v 0.218591 -0.076182 -0.612603
v 0.244887 -0.078129 -0.561664
v 0.204702 -0.024916 -0.568589
v 0.176396 0.014739 -0.742948
v 0.224444 -0.014900 -0.571200
v 0.191966 -0.044719 -0.578432
v 0.252023 -0.034133 -0.565412
v 0.332726 0.017795 -0.718665
v 0.353968 0.138708 -0.766890
v 0.241400 -0.042265 -0.752527
v 0.299123 -0.034034 -0.717361
v 0.248499 0.026031 -0.991579
v 0.186225 0.040194 -0.968306
v 0.342858 0.033052 -0.955568
v 0.250679 -0.034372 -0.868038
v 0.351073 -0.018276 -0.842766
v 0.290326 0.192062 -0.782750
v 0.219697 0.192738 -0.805323
v 0.170576 0.141599 -0.808404
v -0.015213 0.182251 -1.075790
v 0.014272 0.353666 -1.035494
v -0.161833 0.247420 -1.168629
v -0.149748 0.146905 -1.192342
v 0.265140 0.354154 -0.889658
v 0.332467 0.336714 -0.875487
v 0.140579 0.093140 -0.906908
v 0.146839 0.261432 -0.902245
v 0.098142 0.151075 -0.974159
v 0.440438 0.146236 -0.892497
v 0.404099 0.038794 -0.866932
v 0.427807 0.230877 -0.867831
v -0.100753 0.070786 -1.230829
v 0.006354 0.015669 -1.226176
v -0.082947 0.117236 -1.239194
v -0.053865 0.050775 -1.193134
v 0.435326 0.318715 -1.027527
v 0.373183 0.446043 -1.023651
v 0.128377 0.008294 -1.193499
v 0.072867 0.054696 -1.106940
v 0.321015 0.071197 -1.100589
v 0.183978 0.538553 -1.039079
v 0.325601 0.451922 -1.000958
v 0.129260 0.545144 -1.053802
v 0.131975 0.434225 -0.994409
v -0.142224 0.295071 -1.181810
v 0.081920 0.505688 -1.098789
v 0.066361 0.517930 -1.070991
v -0.024458 0.428088 -1.072604
v 0.204585 0.360606 -1.127706
v 0.265112 0.388162 -1.106004
v 0.104589 0.393684 -1.143385
v 0.134545 0.338850 -1.151501
v 0.192371 0.154663 -1.175218
v 0.378560 0.151207 -1.075460
v 0.263322 0.545234 -1.082921
v 0.207647 0.510004 -1.104529
v 0.388723 0.451667 -1.060790
v 0.298184 0.527942 -1.060859
v 0.316371 0.491274 -1.086658
v 0.318124 0.327646 -1.087574
v 0.417212 0.283358 -1.042012
v -0.164448 0.225820 -1.199644
v -0.114136 0.208026 -1.221680
v -0.150936 0.144285 -1.220390
v -0.036585 0.229613 -1.219417
v 0.089245 0.173633 -1.212113
v 0.086615 0.048783 -1.226131
v -0.007815 0.065356 -1.242176
v 0.023688 0.108174 -1.238564
v 0.099873 0.103254 -1.222314
v -0.128501 0.139762 0.527688
v 0.187651 -0.003706 -0.866434
v 0.388843 0.300284 -0.871032
v 0.169938 0.044987 -1.192709
v -0.108897 -0.109917 0.584267
v -0.128501 -0.139762 0.527688
v 0.146086 -0.139762 0.579991
v 0.146086 0.139762 0.579991
vn 0.167900 0.466000 0.868700
vn 0.300800 0.932400 0.200300
vn -0.226900 0.694300 0.682900
vn 0.674300 0.697000 0.244000
vn -0.257400 0.189900 0.947400
vn -0.667900 0.377700 0.641300
vn -0.535900 -0.392100 0.747600
vn -0.711200 -0.703000 -0.003400
vn -0.382100 -0.923200 0.041500
vn 0.009000 0.999700 -0.022500
vn -0.217000 -0.707100 0.673000
vn 0.298700 -0.939700 0.166200
vn 0.226500 -0.536300 0.813000
vn 0.689300 -0.686000 0.232900
vn -0.170200 -0.268800 0.948000
vn -0.753500 -0.106000 0.648800
vn -0.373200 -0.034200 0.927100
vn -0.419500 0.160800 0.893400
vn 0.017400 0.048100 0.998700
vn -0.165000 -0.040900 0.985400
vn 0.067100 -0.169700 0.983200
vn -0.133000 0.258300 0.956800
vn -0.947200 0.316100 -0.053300
vn -0.998900 0.018900 -0.043200
vn -0.932000 -0.357800 -0.056800
vn -0.692200 0.721200 -0.024500
vn 0.884900 -0.359700 0.296000
vn 0.456600 -0.124400 0.880900
vn 0.951900 0.009000 0.306300
vn 0.897400 0.346600 0.273000
vn 0.444600 0.221900 0.867800
vn -0.667800 -0.569400 -0.479300
vn 0.010600 -0.999600 -0.025000
vn 0.312700 -0.906000 -0.285000
vn -0.223500 -0.940300 -0.256500
vn -0.281100 0.875900 -0.392200
vn 0.503200 0.828900 -0.244400
vn -0.902200 0.197700 -0.383100
vn 0.964300 0.198600 -0.174900
vn 0.826700 -0.541600 -0.152200
vn -0.522500 0.787300 0.327200
vn -0.285300 0.917500 -0.277000
vn 0.857000 0.513700 0.040600
vn -0.501600 -0.863000 -0.060000
vn 0.823600 0.564300 -0.056800
vn -0.558400 -0.829500 0.007800
vn 0.665200 -0.716300 0.210500
vn 0.684600 -0.711800 0.157100
vn -0.957400 0.173400 -0.231000
vn -0.561800 0.747400 -0.354600
vn 0.462800 0.863400 -0.200800
vn -0.029600 0.597200 0.801500
vn 0.772000 0.370400 0.516500
vn 0.569800 0.359800 0.738900
vn -0.730300 -0.668600 -0.140000
vn 0.628000 -0.770300 0.110300
vn -0.989000 0.134900 0.060100
vn -0.971900 -0.230200 0.047900
vn -0.216500 -0.951600 -0.218000
vn -0.844800 0.303300 0.440900
vn -0.414300 0.556500 0.720100
vn 0.027100 0.602300 0.797800
vn 0.378800 -0.859600 -0.342900
vn 0.533900 -0.842400 -0.072700
vn -0.096300 -0.960600 -0.260700
vn 0.006900 -0.985800 -0.167700
vn -0.682600 -0.709900 -0.173200
vn -0.558100 -0.828100 -0.053200
vn 0.572700 -0.818900 0.037200
vn -0.779900 -0.295600 0.551700
vn -0.601100 -0.300500 0.740500
vn -0.434600 -0.765200 0.474800
vn -0.719600 0.191000 0.667600
vn -0.583100 0.100600 0.806100
vn 0.553400 0.524100 0.647400
vn 0.185400 0.631900 0.752500
vn -0.909800 0.093100 0.404400
vn -0.716800 0.507400 0.478200
vn -0.477900 -0.754800 0.449300
vn -0.812600 -0.399000 0.424800
vn 0.941600 0.160600 -0.296000
vn 0.631700 0.603800 0.486100
vn 0.850500 0.244500 0.465700
vn -0.118300 0.604400 0.787800
vn -0.401700 0.426000 0.810600
vn -0.945200 -0.300600 0.127000
vn 0.981500 -0.174400 0.078700
vn 0.885700 -0.250600 0.390700
vn 0.863900 -0.503600 -0.004600
vn -0.623400 -0.638000 -0.451900
vn -0.128700 0.033300 -0.991100
vn 0.000800 -0.151100 -0.988500
vn -0.794200 -0.226100 -0.564000
vn -0.154300 -0.892000 -0.424800
vn 0.298200 0.677500 0.672300
vn 0.749500 -0.200200 -0.631000
vn 0.593700 -0.578100 -0.559700
vn 0.810800 0.453700 -0.369700
vn 0.022200 -0.971900 -0.234200
vn 0.145000 -0.909400 -0.389800
vn 0.470800 -0.266200 -0.841100
vn 0.483000 0.847900 0.218500
vn -0.009000 0.789900 0.613100
vn -0.285400 0.928300 0.238100
vn 0.253300 0.881500 -0.398400
vn 0.299900 0.054000 -0.952400
vn 0.283100 0.162900 -0.945100
vn 0.066400 0.369500 -0.926800
vn 0.119800 0.299300 -0.946600
vn 0.241700 0.247200 -0.938300
vn 0.035100 0.299300 -0.953500
vn -0.685500 0.587400 -0.430200
vn -0.534800 0.826700 0.174500
vn -0.863600 0.130900 -0.486900
vn 0.398800 0.058700 -0.915200
vn 0.525300 0.037300 -0.850000
vn 0.415500 0.125700 -0.900800
vn 0.262400 0.228400 -0.937500
vn 0.399700 0.314300 -0.861100
vn -0.205500 0.643300 -0.737500
vn -0.175000 0.247700 -0.952900
vn 0.311400 0.083800 -0.946500
vn 0.126500 0.101700 -0.986700
vn 0.248800 -0.226700 -0.941600
vn -0.380300 0.923400 0.052000
vn -0.110200 -0.993800 0.011300
usemtl None
s 1
f 2//1 24//2 1//3
f 2//1 126//4 24//2
f 9//5 1//3 12//6
f 123//7 124//8 17//9
f 20//10 1//3 24//2
f 4//11 18//12 5//13
f 18//12 125//14 5//13
f 4//11 5//13 6//15
f 4//11 6//15 123//7
f 11//16 10//17 13//18
f 8//19 7//20 16//21
f 7//20 6//15 16//21
f 9//5 8//19 3//22
f 10//17 9//5 13//18
f 7//20 10//17 6//15
f 12//6 27//23 26//24
f 28//25 124//8 123//7
f 12//6 119//26 27//23
f 26//24 28//25 11//16
f 5//13 125//14 30//27
f 14//28 8//19 16//21
f 14//28 30//27 29//29
f 29//29 31//30 15//31
f 15//31 31//30 126//4
f 17//9 124//8 22//32
f 14//28 15//31 8//19
f 19//33 4//11 17//9
f 36//34 17//9 35//35
f 125//14 18//12 36//34
f 27//23 119//26 37//36
f 24//2 126//4 23//37
f 26//24 27//23 21//38
f 126//4 31//30 33//39
f 26//24 21//38 22//32
f 29//29 30//27 34//40
f 30//27 125//14 34//40
f 51//41 45//42 43//43
f 22//32 39//44 35//35
f 35//35 39//44 36//34
f 37//36 23//37 40//45
f 44//46 48//47 32//48
f 40//45 34//40 32//48
f 40//45 32//48 48//47
f 42//49 21//38 41//50
f 45//42 41//50 38//51
f 42//49 45//42 51//41
f 53//52 55//53 57//54
f 42//49 46//55 44//46
f 48//47 50//56 43//43
f 55//53 43//43 50//56
f 54//57 52//58 46//55
f 52//58 49//59 46//55
f 52//58 54//57 67//60
f 53//52 66//61 67//60
f 65//62 66//61 53//52
f 62//63 64//64 63//65
f 58//66 49//59 120//67
f 63//65 120//67 61//68
f 64//64 59//69 58//66
f 76//70 68//71 87//72
f 52//58 120//67 49//59
f 76//70 75//73 69//74
f 121//75 73//76 65//62
f 70//77 69//74 96//78
f 68//71 83//79 87//72
f 71//80 83//79 68//71
f 66//61 75//73 67//60
f 84//81 85//82 79//83
f 72//84 92//85 66//61
f 74//86 61//68 120//67
f 74//86 67//60 75//73
f 121//75 57//54 79//83
f 77//87 56//88 78//89
f 80//90 82//91 116//92
f 80//90 112//93 82//91
f 80//90 81//94 83//79
f 85//82 90//95 121//75
f 72//84 73//76 90//95
f 102//96 77//87 88//97
f 84//81 105//98 85//82
f 88//97 62//63 60//99
f 88//97 78//89 62//63
f 60//99 61//68 87//72
f 81//94 87//72 83//79
f 86//100 122//101 88//97
f 92//85 69//74 75//73
f 106//102 89//103 90//95
f 90//95 73//76 121//75
f 91//104 96//78 92//85
f 106//102 103//105 89//103
f 98//106 97//107 104//108
f 99//109 100//110 113//111
f 93//112 96//78 95//113
f 110//114 112//93 71//80
f 97//107 98//106 108//115
f 97//107 100//110 99//109
f 108//115 109//116 102//96
f 102//96 122//101 101//117
f 97//107 101//117 100//110
f 101//117 114//118 100//110
f 103//105 107//119 104//108
f 103//105 104//108 94//120
f 94//120 95//113 91//104
f 106//102 85//82 105//98
f 105//98 103//105 106//102
f 109//116 105//98 84//81
f 108//115 98//106 105//98
f 98//106 107//119 105//98
f 111//121 82//91 112//93
f 114//118 118//122 117//123
f 113//111 117//123 82//91
f 115//124 117//123 118//122
f 118//122 122//101 115//124
f 115//124 86//100 81//94
f 116//92 82//91 117//123
f 2//1 1//3 3//22
f 3//22 1//3 9//5
f 1//3 20//10 25//125
f 6//15 5//13 16//21
f 9//5 7//20 8//19
f 3//22 8//19 2//1
f 10//17 7//20 9//5
f 6//15 10//17 123//7
f 10//17 11//16 123//7
f 5//13 14//28 16//21
f 8//19 15//31 2//1
f 4//11 19//33 18//12
f 36//34 18//12 19//33
f 36//34 19//33 17//9
f 22//32 21//38 39//44
f 23//37 25//125 20//10
f 23//37 20//10 24//2
f 25//125 23//37 37//36
f 119//26 25//125 37//36
f 28//25 26//24 22//32
f 124//8 28//25 22//32
f 33//39 29//29 34//40
f 31//30 29//29 33//39
f 39//44 32//48 34//40
f 40//45 33//39 34//40
f 33//39 40//45 23//37
f 36//34 39//44 34//40
f 39//44 44//46 32//48
f 38//51 37//36 40//45
f 37//36 38//51 41//50
f 39//44 21//38 44//46
f 45//42 42//49 41//50
f 42//49 44//46 21//38
f 41//50 21//38 37//36
f 40//45 43//43 38//51
f 43//43 40//45 48//47
f 45//42 38//51 43//43
f 42//49 54//57 46//55
f 47//126 48//47 44//46
f 47//126 44//46 46//55
f 48//47 47//126 50//56
f 49//59 50//56 47//126
f 49//59 47//126 46//55
f 51//41 55//53 53//52
f 67//60 54//57 51//41
f 64//64 56//88 59//69
f 56//88 64//64 78//89
f 57//54 56//88 79//83
f 56//88 55//53 50//56
f 59//69 56//88 50//56
f 55//53 56//88 57//54
f 58//66 50//56 49//59
f 50//56 58//66 59//69
f 62//63 78//89 64//64
f 60//99 63//65 61//68
f 63//65 64//64 58//66
f 74//86 52//58 67//60
f 52//58 74//86 120//67
f 25//125 119//26 12//6
f 70//77 68//71 69//74
f 68//71 70//77 71//80
f 65//62 72//84 66//61
f 73//76 72//84 65//62
f 66//61 92//85 75//73
f 76//70 74//86 75//73
f 74//86 76//70 61//68
f 77//87 79//83 56//88
f 80//90 116//92 81//94
f 71//80 80//90 83//79
f 80//90 71//80 112//93
f 102//96 84//81 77//87
f 88//97 77//87 78//89
f 84//81 102//96 109//116
f 86//100 88//97 60//99
f 86//100 60//99 87//72
f 81//94 86//100 87//72
f 89//103 92//85 72//84
f 92//85 96//78 69//74
f 91//104 95//113 96//78
f 93//112 95//113 94//120
f 99//109 94//120 104//108
f 94//120 99//109 113//111
f 94//120 113//111 93//112
f 93//112 70//77 96//78
f 97//107 99//109 104//108
f 101//117 108//115 102//96
f 122//101 102//96 88//97
f 118//122 101//117 122//101
f 101//117 118//122 114//118
f 101//117 97//107 108//115
f 103//105 91//104 89//103
f 103//105 94//120 91//104
f 103//105 105//98 107//119
f 109//116 108//115 105//98
f 111//121 110//114 93//112
f 111//121 93//112 113//111
f 110//114 111//121 112//93
f 110//114 70//77 93//112
f 114//118 113//111 100//110
f 111//121 113//111 82//91
f 115//124 122//101 86//100
f 116//92 115//124 81//94
f 115//124 116//92 117//123
f 13//18 9//5 12//6
f 4//11 123//7 17//9
f 12//6 11//16 13//18
f 11//16 12//6 26//24
f 11//16 28//25 123//7
f 14//28 5//13 30//27
f 14//28 29//29 15//31
f 2//1 15//31 126//4
f 35//35 17//9 22//32
f 34//40 125//14 36//34
f 21//38 27//23 37//36
f 23//37 126//4 33//39
f 55//53 51//41 43//43
f 54//57 42//49 51//41
f 65//62 53//52 57//54
f 51//41 53//52 67//60
f 60//99 62//63 63//65
f 63//65 58//66 120//67
f 61//68 76//70 87//72
f 68//71 76//70 69//74
f 57//54 121//75 65//62
f 77//87 84//81 79//83
f 79//83 85//82 121//75
f 89//103 72//84 90//95
f 85//82 106//102 90//95
f 89//103 91//104 92//85
f 107//119 98//106 104//108
f 70//77 110//114 71//80
f 113//111 114//118 117//123
f 1//3 25//125 12//6
