# Blender v2.76 (sub 0) OBJ File: 'spines-design.blend'
# www.blender.org
mtllib spine29.mtl
o spine_6_lq_spine_6.001
v -0.324451 -0.023082 -1.315310
v -0.298281 -0.208620 -1.302484
v -0.330086 -0.251941 -0.949793
v -0.387219 -0.045295 -1.021383
v 0.116845 -0.450545 -0.975297
v -0.598153 -0.101398 -0.637060
v -0.322717 -0.321476 -0.635723
v -0.490764 0.047942 -0.503262
v -0.229705 -0.140849 -0.354306
v 0.041464 -0.108383 -0.211987
v -0.202640 -0.059892 -0.241120
v -0.086357 -0.097208 0.165186
v -0.018337 -0.009477 0.359477
v -0.160164 -0.178683 0.628806
v 0.091021 -0.121793 0.635390
v -0.751115 0.264052 -0.592438
v -0.534611 0.169416 -0.811489
v -0.395768 0.237189 -0.656581
v -0.715626 0.129679 -0.534559
v -0.189512 -0.023049 -1.362745
v -0.251263 0.119289 -1.101447
v -0.680722 0.059839 -0.720863
v -0.206185 0.314681 -0.850693
v 0.079518 0.385452 -0.753120
v -0.050512 0.179277 -0.189342
v -0.027135 0.036375 0.368697
v -0.019490 -0.015579 0.506491
v -0.200635 0.071337 0.632142
v -0.018989 0.215589 0.631297
v -0.037447 0.032670 0.510813
v 0.019888 0.040201 0.515828
v 0.277373 -0.359488 -1.090689
v 0.338684 -0.406372 -0.962549
v 0.274270 -0.148344 -1.099938
v 0.517283 -0.356611 -1.141176
v 0.586787 -0.233539 -1.239728
v 0.707053 -0.118006 -1.209179
v 0.236826 -0.370375 -0.721183
v 0.164874 -0.110735 -0.391762
v 0.389226 -0.211810 -0.617613
v 0.764219 -0.318080 -0.936423
v 0.796846 -0.126435 -1.063530
v 0.772937 -0.195002 -0.893965
v 0.408575 0.079443 -0.869887
v 0.130764 0.122898 -0.400062
v 0.436578 0.051960 -0.646519
v 0.101120 0.155415 -0.025157
v -0.008532 0.041618 0.385022
v 0.180543 0.197464 0.626907
vn -0.508400 -0.559900 -0.654200
vn 0.030800 -0.663600 -0.747500
vn -0.039500 -0.986600 -0.158200
vn 0.074000 0.308400 -0.948300
vn -0.689900 0.352100 -0.632500
vn -0.643500 -0.725200 -0.245200
vn -0.380700 -0.887600 0.259400
vn 0.606500 -0.749000 0.266600
vn -0.568600 -0.576000 0.587300
vn -0.435300 -0.805700 0.401600
vn -0.929000 0.120800 0.349700
vn -0.223900 0.176600 0.958500
vn -0.678200 -0.109100 0.726700
vn -0.740000 -0.635700 0.219600
vn -0.870300 -0.190900 -0.453900
vn -0.417800 0.750900 -0.511400
vn -0.876100 -0.026700 -0.481300
vn -0.495300 0.643400 -0.583700
vn -0.231900 0.921400 -0.311800
vn 0.252300 0.963800 -0.086200
vn -0.255700 0.916500 0.307600
vn -0.701900 0.684300 0.197700
vn -0.316400 0.899600 0.301000
vn -0.862800 0.464500 0.199400
vn 0.668600 0.732400 0.128600
vn 0.106500 -0.836700 0.537200
vn -0.020600 -0.580600 -0.813900
vn -0.630500 0.383100 -0.675000
vn -0.914300 0.324400 0.242300
vn 0.144400 -0.838900 -0.524700
vn 0.150600 -0.987800 -0.039100
vn 0.133900 -0.210300 -0.968400
vn 0.183000 0.328100 -0.926700
vn 0.503300 0.345300 -0.792100
vn 0.153500 -0.871800 0.465100
vn 0.576600 -0.434300 0.692000
vn 0.435300 -0.579600 0.688800
vn 0.726600 -0.669300 0.155500
vn 0.854900 0.099900 0.509000
vn 0.697900 0.522800 0.489500
vn 0.916900 0.327200 -0.228600
vn 0.450200 0.832300 -0.323300
vn 0.608100 -0.582300 0.539600
vn 0.757100 0.603400 0.250100
vn 0.531100 0.228600 -0.815900
vn 0.787800 0.598500 0.145300
vn 0.654800 -0.698000 0.289900
vn -0.225500 0.941300 0.251200
vn -0.575900 -0.799500 0.170800
usemtl None.003
s 1
f 2//1 32//2 5//3
f 2//1 20//4 32//2
f 2//1 1//5 20//4
f 5//3 3//6 2//1
f 3//6 5//3 7//7
f 7//7 10//8 9//9
f 9//9 12//10 11//11
f 8//12 19//13 6//14
f 22//15 21//16 4//17
f 17//18 23//19 21//16
f 21//16 20//4 1//5
f 21//16 24//20 20//4
f 9//9 11//11 18//21
f 18//21 24//20 23//19
f 18//21 17//18 16//22
f 16//22 17//18 22//15
f 18//21 11//11 25//23
f 12//10 26//24 11//11
f 26//24 48//25 25//23
f 13//26 27//27 26//24
f 48//25 27//27 13//26
f 26//24 30//28 48//25
f 28//29 30//28 27//27
f 35//30 33//31 32//2
f 36//32 34//33 37//34
f 5//3 38//35 7//7
f 5//3 33//31 38//35
f 7//7 38//35 39//36
f 39//36 38//35 40//37
f 38//35 41//38 40//37
f 40//37 43//39 39//36
f 37//34 41//38 36//32
f 46//40 43//39 42//41
f 35//30 36//32 41//38
f 44//42 20//4 24//20
f 46//40 44//42 24//20
f 25//23 45//43 46//40
f 45//43 47//44 10//8
f 25//23 47//44 45//43
f 47//44 48//25 10//8
f 31//45 49//46 15//47
f 20//4 34//33 32//2
f 10//8 13//26 12//10
f 34//33 20//4 44//42
f 45//43 10//8 39//36
f 27//27 31//45 15//47
f 1//5 2//1 4//17
f 22//15 3//6 6//14
f 6//14 3//6 7//7
f 4//17 3//6 22//15
f 9//9 10//8 12//10
f 22//15 6//14 19//13
f 22//15 19//13 16//22
f 1//5 4//17 21//16
f 22//15 17//18 21//16
f 23//19 24//20 21//16
f 8//12 18//21 16//22
f 9//9 18//21 8//12
f 18//21 25//23 24//20
f 19//13 8//12 16//22
f 25//23 11//11 26//24
f 26//24 27//27 30//28
f 15//47 29//48 28//29
f 28//29 29//48 30//28
f 30//28 31//45 48//25
f 32//2 33//31 5//3
f 31//45 30//28 29//48
f 44//42 37//34 34//33
f 38//35 33//31 41//38
f 44//42 42//41 37//34
f 37//34 42//41 41//38
f 42//41 43//39 41//38
f 40//37 41//38 43//39
f 33//31 35//30 41//38
f 45//43 39//36 46//40
f 25//23 46//40 24//20
f 46//40 42//41 44//42
f 10//8 48//25 13//26
f 10//8 7//7 39//36
f 48//25 47//44 25//23
f 15//47 49//46 29//48
f 9//9 8//12 6//14
f 27//27 14//49 28//29
f 14//49 15//47 28//29
f 6//14 7//7 9//9
f 14//49 27//27 15//47
f 23//19 17//18 18//21
f 12//10 13//26 26//24
f 48//25 31//45 27//27
f 36//32 32//2 34//33
f 36//32 35//30 32//2
f 43//39 46//40 39//36
f 2//1 3//6 4//17
f 49//46 31//45 29//48
