# Blender v2.76 (sub 0) OBJ File: 'spines-design.blend'
# www.blender.org
mtllib spine39.mtl
o spine_20_lq
v -0.246243 -0.000000 0.101397
v -0.228788 0.046010 0.091519
v -0.156061 0.000000 -0.134363
v -0.228788 -0.046010 0.091519
v -0.137560 0.044349 -0.124246
v 0.012099 0.008638 -0.296302
v -0.013499 -0.025040 -0.322053
v 0.246825 0.000000 0.098810
v 0.143379 0.000000 -0.089844
v 0.228795 0.046236 0.088603
v 0.228795 -0.046236 0.088603
v 0.085817 -0.040207 -0.145098
v 0.132633 0.032238 -0.089844
v 0.000000 0.000000 0.199340
v 0.121319 0.000000 0.189306
v 0.000000 0.060660 0.189306
v -0.121319 0.000000 0.189306
v 0.000000 -0.060660 0.189306
v 0.110139 -0.055069 0.179861
v 0.110139 0.055069 0.179861
v -0.110139 0.055069 0.179861
v -0.110139 -0.055069 0.179861
v 0.000154 -0.123285 0.100058
v 0.089045 -0.104830 0.033530
v -0.092059 -0.114450 0.090422
v 0.089259 -0.107709 0.140119
v 0.000154 0.123285 0.100058
v -0.092059 0.114450 0.090422
v 0.089044 0.104830 0.033529
v 0.089258 0.107709 0.140119
v -0.071156 -0.005114 -0.608089
v -0.048255 -0.007103 -0.451207
v -0.065039 0.017701 -0.471757
v -0.073291 -0.037574 -0.346581
v -0.052922 -0.064119 -0.148347
v -0.116693 -0.040528 -0.233931
v -0.054005 0.041751 -0.296756
v -0.052922 0.064119 -0.148347
v 0.039785 0.046090 -0.184247
v -0.149290 0.012639 -0.212285
v -0.143020 -0.023921 -0.152238
v -0.175089 -0.000974 -0.445348
v -0.144355 0.019384 -0.615227
v 0.006498 0.007881 -1.143638
v -0.104206 -0.017202 -0.738453
v -0.146956 -0.018749 -0.612525
v -0.089086 -0.020156 -0.580281
v -0.110001 0.025549 -0.545922
v -0.167774 0.001742 -0.563966
v -0.134692 0.000000 -0.729695
v 0.044274 0.010045 -1.155046
v -0.019160 0.005212 -1.047981
v 0.004944 -0.008577 -1.109543
v -0.053185 -0.010676 -0.779406
v 0.041304 -0.009780 -1.126369
v -0.070223 0.012941 -0.731096
v -0.017766 0.004455 -1.504705
v -0.006097 -0.019885 -1.578915
v 0.030162 0.010817 -1.615720
v -0.020491 -0.012800 -1.483894
v 0.002969 0.007633 -1.270120
v -0.047373 -0.006057 -1.413046
v 0.041533 -0.006935 -1.265544
v 0.039235 0.006412 -1.274301
v 0.004865 -0.009578 -1.284045
v -0.059000 0.092441 -1.777837
v 0.039259 0.085762 -1.734197
v -0.053254 -0.020528 -1.520070
v -0.103337 -0.033675 -1.643739
v -0.039624 -0.045236 -1.638655
v -0.040208 0.038375 -1.619618
v -0.027409 0.014219 -1.470719
v -0.087056 0.037819 -1.641594
v -0.032105 0.007671 -1.379950
v -0.133201 -0.009855 -1.655703
v 0.035876 -0.000000 -1.796387
v -0.095817 0.000000 -1.838266
v -0.069711 0.043425 -1.827515
v 0.017467 -0.048929 -1.796760
v -0.089429 -0.041339 -1.831212
v 0.100942 0.043431 -1.754854
v -0.203655 -0.000000 -1.828404
v -0.186896 0.034173 -1.824097
v -0.186895 -0.034174 -1.824097
v -0.121701 0.026200 -1.654347
v 0.145953 -0.000000 -1.696363
v 0.132583 -0.036287 -1.702804
v 0.132584 0.036288 -1.702805
v 0.015887 -0.032902 -1.622494
v -0.058999 -0.092441 -1.777837
v 0.039258 -0.085763 -1.734199
v -0.176602 -0.088572 0.093487
v -0.193646 -0.047292 0.151823
v -0.212448 0.000000 0.159349
v -0.193646 0.047292 0.151823
v 0.165591 -0.083733 0.042526
v 0.165591 0.083733 0.042526
v 0.170589 0.085218 0.110113
v 0.193646 0.047292 0.151823
v 0.212448 0.000000 0.159349
v 0.193646 -0.047292 0.151823
v -0.094583 -0.096823 0.151823
v 0.000000 -0.106224 0.159349
v 0.000000 0.106224 0.159349
v -0.094583 0.096823 0.151823
v -0.164867 0.000000 -1.848397
v -0.152174 -0.037134 -1.839396
v 0.009688 -0.080392 -1.785052
v -0.082917 -0.072650 -1.814800
v -0.082917 0.072650 -1.814800
v 0.009687 0.080394 -1.785053
v 0.136608 -0.017272 -1.737383
v 0.098191 0.067063 -1.713779
v -0.151124 0.065240 -1.807176
v -0.151124 -0.065240 -1.807177
v 0.098192 -0.067063 -1.713780
v -0.176602 0.088572 0.093487
v -0.137133 -0.062004 -0.070937
v 0.170588 -0.085218 0.110113
v -0.116693 0.040528 -0.233931
v -0.004261 0.028122 -1.606761
v -0.152176 0.037134 -1.839396
vn -0.830300 0.556900 0.022700
vn -0.992600 0.000000 0.121400
vn -0.660700 0.000000 0.750700
vn -0.607800 0.762900 -0.220300
vn -0.967400 0.042400 -0.249400
vn -0.534900 0.531000 0.657200
vn -0.478700 0.875500 0.066300
vn -0.873000 -0.456500 -0.171800
vn -0.829800 -0.557600 0.022100
vn -0.456000 -0.853400 -0.252300
vn 0.895200 0.090800 -0.436200
vn 0.852300 -0.079400 -0.516900
vn 0.625000 -0.652100 -0.429000
vn 0.832300 -0.552600 -0.043000
vn 0.653600 0.737300 -0.170900
vn 0.335300 0.889800 -0.309500
vn 0.952100 0.043900 -0.302700
vn 0.713300 0.519900 -0.469900
vn 0.833000 0.551800 -0.040400
vn 0.483800 0.840600 -0.243500
vn 0.666700 0.000000 0.745300
vn 0.998100 0.000000 0.060600
vn 0.429000 0.873400 0.230500
vn 0.000000 0.000000 1.000000
vn 0.007000 -0.377800 0.925800
vn 0.229600 -0.450300 0.862800
vn 0.523500 -0.543600 0.656100
vn 0.429000 -0.873400 0.230500
vn 0.219700 0.000000 0.975600
vn -0.002900 -0.793400 0.608700
vn 0.235700 -0.876200 0.420200
vn 0.229600 0.450300 0.862800
vn 0.007000 0.377800 0.925800
vn 0.235700 0.876200 0.420200
vn 0.523500 0.543600 0.656100
vn -0.209400 0.405400 0.889800
vn -0.219700 0.000000 0.975600
vn -0.002900 0.793400 0.608700
vn -0.211400 0.804400 0.555100
vn -0.209400 -0.405400 0.889800
vn -0.211400 -0.804400 0.555100
vn -0.534900 -0.531000 0.657200
vn -0.481900 -0.873400 0.069100
vn -0.193600 -0.981000 0.010200
vn 0.191900 -0.963400 -0.187100
vn 0.486900 -0.836000 -0.252900
vn -0.002000 -0.999500 0.032900
vn -0.196900 0.980400 0.005800
vn -0.078900 0.977900 -0.193600
vn 0.187100 0.965000 -0.183800
vn -0.002000 0.999500 0.032900
vn -0.999900 -0.010700 -0.004500
vn -0.406900 0.910100 -0.077600
vn -0.464500 0.878000 -0.115400
vn 0.898000 -0.439600 0.019100
vn 0.743400 -0.663900 -0.080900
vn 0.563200 0.824000 0.061800
vn 0.081600 -0.992800 -0.087400
vn 0.594400 -0.754600 -0.278000
vn -0.076300 -0.978300 -0.192600
vn 0.031600 0.993000 -0.113500
vn -0.386600 -0.919400 -0.072000
vn -0.925700 0.378200 -0.005000
vn 0.743600 0.667900 0.029300
vn -0.697200 0.715400 -0.044600
vn -0.068500 -0.996100 -0.056000
vn -0.542200 -0.832900 -0.110900
vn 0.062700 0.996900 -0.048100
vn 0.791700 -0.582500 0.183900
vn 0.761000 -0.627500 0.164600
vn -0.991800 0.100100 -0.079800
vn -0.951100 0.009400 -0.308600
vn -0.815000 0.567600 0.116400
vn -0.539800 -0.830300 -0.138600
vn -0.930200 -0.215300 -0.297100
vn -0.522200 -0.842400 0.132600
vn 0.978900 0.160900 0.125400
vn 0.325000 0.879700 0.347000
vn 0.316000 0.948600 0.013200
vn 0.700900 -0.585700 0.407100
vn 0.417300 -0.719400 0.555200
vn 0.673700 0.213100 0.707600
vn 0.015300 -0.990900 0.133500
vn 0.622100 -0.779800 -0.069600
vn 0.783800 -0.614900 -0.086600
vn 0.775600 0.615400 -0.140500
vn -0.854900 -0.418300 0.306800
vn -0.099000 0.991700 -0.082000
vn -0.457500 0.875200 -0.156900
vn -0.704300 0.632100 0.322900
vn 0.193700 0.978800 0.066000
vn -0.004900 0.962100 0.272500
vn 0.026700 0.722000 -0.691400
vn -0.142800 0.477700 -0.866800
vn 0.320100 0.699700 -0.638700
vn -0.276800 0.928700 0.246700
vn -0.456500 -0.845200 0.277700
vn -0.052900 -0.952900 0.298700
vn 0.197100 -0.003400 -0.980300
vn 0.408200 0.040800 -0.911900
vn 0.410500 -0.305900 -0.859000
vn -0.685000 0.676100 0.271400
vn -0.898800 -0.235200 0.369700
vn 0.190300 -0.283300 -0.939900
vn -0.144700 -0.477600 -0.866600
vn 0.338700 -0.728700 -0.595100
vn 0.046300 -0.710800 -0.701800
vn -0.205100 0.000000 -0.978700
vn 0.231800 0.275700 -0.932900
vn 0.812000 -0.211400 -0.543900
vn 0.491100 -0.870400 0.033900
vn 0.603100 0.451300 -0.657700
vn 0.488800 0.863500 0.124200
vn -0.463700 -0.872300 -0.154800
vn -0.744700 -0.594000 -0.304100
vn -0.941800 0.003000 -0.336000
vn -0.749000 0.589900 -0.301600
vn 0.800900 0.564800 0.198500
vn 0.933400 0.028800 0.357600
vn 0.754500 -0.587400 0.292600
vn 0.193500 -0.978800 0.067500
vn -0.094400 -0.991900 -0.084900
usemtl None
s 1
f 2//1 1//2 94//3
f 2//1 5//4 3//5
f 2//1 95//6 117//7
f 3//5 41//8 4//9
f 4//9 41//8 118//10
f 6//11 9//12 12//13
f 11//14 12//13 9//12
f 6//11 33//15 39//16
f 32//17 33//15 6//11
f 9//12 13//18 10//19
f 13//18 39//16 97//20
f 100//21 8//22 10//19
f 11//14 8//22 100//21
f 10//19 97//20 98//23
f 14//24 18//25 19//26
f 11//14 101//27 119//28
f 15//29 19//26 101//27
f 18//25 103//30 26//31
f 19//26 26//31 119//28
f 14//24 15//29 20//32
f 16//33 20//32 30//34
f 15//29 100//21 99//35
f 20//32 99//35 98//23
f 14//24 16//33 21//36
f 17//37 21//36 95//6
f 16//33 104//38 105//39
f 105//39 117//7 95//6
f 14//24 17//37 22//40
f 18//25 22//40 102//41
f 17//37 94//3 93//42
f 93//42 92//43 102//41
f 25//44 92//43 118//10
f 24//45 96//46 119//28
f 24//45 12//13 96//46
f 23//47 24//45 26//31
f 23//47 103//30 102//41
f 28//48 38//49 5//4
f 25//44 102//41 92//43
f 97//20 39//16 29//50
f 27//51 28//48 105//39
f 29//50 30//34 98//23
f 42//52 120//53 43//54
f 27//51 104//38 30//34
f 31//55 32//17 47//56
f 31//55 56//57 33//15
f 34//58 7//59 35//60
f 7//59 24//45 35//60
f 37//61 120//53 38//49
f 38//49 120//53 5//4
f 38//49 39//16 37//61
f 38//49 29//50 39//16
f 37//61 39//16 33//15
f 36//62 118//10 41//8
f 3//5 5//4 40//63
f 41//8 42//52 36//62
f 43//54 56//57 51//64
f 51//64 44//65 43//54
f 47//56 7//59 34//58
f 45//66 34//58 46//67
f 48//68 43//54 120//53
f 48//68 33//15 56//57
f 46//67 36//62 42//52
f 54//69 55//70 51//64
f 49//71 50//72 46//67
f 51//64 61//73 44//65
f 53//74 46//67 50//72
f 50//72 43//54 52//75
f 52//75 44//65 53//74
f 65//76 53//74 44//65
f 45//66 53//74 55//70
f 57//77 121//78 72//79
f 94//3 1//2 4//9
f 58//80 89//81 59//82
f 65//76 68//83 60//84
f 63//85 64//86 51//64
f 63//85 51//64 55//70
f 57//77 72//79 64//86
f 65//76 55//70 53//74
f 65//76 62//87 68//83
f 66//88 114//89 85//90
f 67//91 71//92 121//78
f 110//93 122//94 114//89
f 66//88 67//91 111//95
f 111//95 110//93 66//88
f 72//79 71//92 73//96
f 58//80 60//84 68//83
f 69//97 68//83 62//87
f 68//83 70//98 89//81
f 68//83 89//81 58//80
f 77//99 76//100 79//101
f 73//96 85//90 74//102
f 69//97 62//87 75//103
f 75//103 74//102 85//90
f 77//99 80//104 107//105
f 79//101 108//106 109//107
f 77//99 106//108 122//94
f 80//104 109//107 107//105
f 76//100 77//99 78//109
f 79//101 112//110 116//111
f 78//109 81//112 76//100
f 111//95 113//113 81//112
f 115//114 69//97 75//103
f 84//115 75//103 82//116
f 106//108 82//116 83//117
f 82//116 85//90 83//117
f 84//115 82//116 106//108
f 83//117 114//89 122//94
f 112//110 81//112 88//118
f 86//119 88//118 59//82
f 59//82 113//113 121//78
f 87//120 89//81 116//111
f 86//119 59//82 89//81
f 91//121 116//111 89//81
f 115//114 107//105 109//107
f 90//122 70//98 69//97
f 90//122 109//107 108//106
f 91//121 108//106 116//111
f 93//42 4//9 92//43
f 2//1 117//7 5//4
f 9//12 6//11 13//18
f 13//18 6//11 39//16
f 6//11 7//59 32//17
f 11//14 96//46 12//13
f 99//35 10//19 98//23
f 96//46 11//14 119//28
f 23//47 25//44 35//60
f 23//47 35//60 24//45
f 103//30 23//47 26//31
f 27//51 29//50 38//49
f 27//51 38//49 28//48
f 105//39 28//48 117//7
f 29//50 27//51 30//34
f 32//17 31//55 33//15
f 47//56 32//17 7//59
f 31//55 47//56 54//69
f 31//55 54//69 56//57
f 7//59 12//13 24//45
f 36//62 34//58 35//60
f 36//62 35//60 118//10
f 48//68 37//61 33//15
f 37//61 48//68 120//53
f 40//63 41//8 3//5
f 40//63 5//4 120//53
f 42//52 40//63 120//53
f 41//8 40//63 42//52
f 43//54 44//65 52//75
f 45//66 47//56 34//58
f 46//67 34//58 36//62
f 47//56 45//66 54//69
f 43//54 48//68 56//57
f 49//71 46//67 42//52
f 50//72 49//71 43//54
f 72//79 51//64 64//86
f 61//73 51//64 72//79
f 74//102 61//73 72//79
f 52//75 53//74 50//72
f 53//74 45//66 46//67
f 54//69 45//66 55//70
f 58//80 57//77 60//84
f 57//77 58//80 59//82
f 57//77 59//82 121//78
f 74//102 65//76 61//73
f 65//76 74//102 62//87
f 57//77 63//85 60//84
f 63//85 57//77 64//86
f 65//76 63//85 55//70
f 71//92 66//88 73//96
f 66//88 71//92 67//91
f 111//95 67//91 113//113
f 68//83 69//97 70//98
f 71//92 72//79 121//78
f 75//103 62//87 74//102
f 82//116 75//103 85//90
f 111//95 78//109 110//93
f 110//93 78//109 122//94
f 112//110 76//100 81//112
f 78//109 111//95 81//112
f 79//101 76//100 112//110
f 83//117 85//90 114//89
f 115//114 84//115 107//105
f 59//82 88//118 113//113
f 87//120 86//119 89//81
f 86//119 87//120 112//110
f 87//120 116//111 112//110
f 88//118 81//112 113//113
f 90//122 91//121 70//98
f 115//114 90//122 69//97
f 91//121 90//122 108//106
f 95//6 2//1 94//3
f 1//2 2//1 3//5
f 1//2 3//5 4//9
f 92//43 4//9 118//10
f 7//59 6//11 12//13
f 8//22 11//14 9//12
f 8//22 9//12 10//19
f 10//19 13//18 97//20
f 99//35 100//21 10//19
f 101//27 11//14 100//21
f 15//29 14//24 19//26
f 100//21 15//29 101//27
f 19//26 18//25 26//31
f 101//27 19//26 119//28
f 16//33 14//24 20//32
f 104//38 16//33 30//34
f 20//32 15//29 99//35
f 30//34 20//32 98//23
f 17//37 14//24 21//36
f 94//3 17//37 95//6
f 21//36 16//33 105//39
f 21//36 105//39 95//6
f 18//25 14//24 22//40
f 103//30 18//25 102//41
f 22//40 17//37 93//42
f 22//40 93//42 102//41
f 35//60 25//44 118//10
f 26//31 24//45 119//28
f 25//44 23//47 102//41
f 117//7 28//48 5//4
f 104//38 27//51 105//39
f 97//20 29//50 98//23
f 49//71 42//52 43//54
f 56//57 54//69 51//64
f 61//73 65//76 44//65
f 93//42 94//3 4//9
f 63//85 65//76 60//84
f 73//96 66//88 85//90
f 113//113 67//91 121//78
f 66//88 110//93 114//89
f 74//102 72//79 73//96
f 80//104 77//99 79//101
f 106//108 77//99 107//105
f 80//104 79//101 109//107
f 78//109 77//99 122//94
f 108//106 79//101 116//111
f 84//115 115//114 75//103
f 122//94 106//108 83//117
f 107//105 84//115 106//108
f 86//119 112//110 88//118
f 70//98 91//121 89//81
f 90//122 115//114 109//107
