# Blender v2.76 (sub 0) OBJ File: 'spines-design.blend'
# www.blender.org
mtllib spine27.mtl
o spine_4_lq_spine_4.001
v 0.192175 -0.031018 0.592844
v 0.158111 0.115738 0.594560
v 0.133743 -0.000000 0.618713
v -0.192175 -0.031018 0.592844
v -0.130919 0.027278 0.617645
v -0.145085 0.109466 0.604710
v 0.039979 0.021270 0.628006
v 0.026571 -0.113843 0.621784
v -0.026571 0.113843 0.621784
v -0.107583 -0.034661 0.622252
v 0.040469 0.180785 0.598441
v -0.073691 0.173273 0.595402
v 0.081228 0.120784 0.614736
v 0.040469 -0.180785 0.598441
v -0.115738 -0.158112 0.594560
v -0.081228 -0.120784 0.614736
v -0.203523 0.086940 0.547225
v -0.203523 -0.086940 0.547225
v -0.215501 0.000000 0.536662
v 0.215501 -0.000000 0.536662
v 0.007317 0.035983 0.061874
v -0.049029 0.066377 0.200902
v 0.061301 -0.034242 0.165655
v 0.203523 -0.086940 0.547225
v 0.203523 0.086940 0.547225
v 0.000000 0.217224 0.549113
v 0.086940 0.203523 0.547225
v -0.086940 0.203523 0.547225
v -0.000000 -0.217224 0.549113
v -0.086940 -0.203523 0.547225
v 0.086940 -0.203523 0.547225
v -0.034071 -0.023144 -0.004569
v 0.015993 -0.075237 0.190090
v -0.037939 -0.052246 0.149477
v -0.062888 0.013919 0.151487
v -0.080928 -0.023643 0.217861
v 0.044455 0.021638 0.100609
v -0.005301 -0.012947 -0.128885
v -0.036393 0.018232 0.005059
v 0.014173 -0.030115 0.015813
v -0.007771 0.018666 -0.124045
v -0.053384 0.023016 -0.204077
v -0.045786 -0.021571 -0.203715
v -0.073633 0.017122 -0.162027
v -0.038021 0.010261 -0.204116
v -0.084194 0.029352 -0.747867
v -0.099585 0.004521 -0.580020
v -0.071063 -0.019576 -0.171299
v -0.089545 0.010140 -0.799402
v -0.089290 -0.026512 -0.756535
v -0.028475 0.020084 -0.755716
v 0.060547 0.092422 -0.941492
v -0.017474 0.074572 -0.949562
v -0.017028 -0.001521 -0.762870
v -0.051108 0.036488 -0.764043
v -0.051108 -0.036488 -0.764043
v 0.060537 -0.092419 -0.941484
v -0.035160 -0.061758 -0.924707
v -0.048303 0.018219 -0.970067
v 0.027566 -0.021153 -1.219779
v 0.052329 0.126782 -1.207674
v -0.038968 0.033026 -1.103384
v -0.016417 -0.092374 -1.104793
v 0.218331 -0.029063 -1.013096
v 0.220912 0.054309 -1.025432
v 0.004770 0.113135 -1.074183
v 0.234661 0.357731 -1.296453
v 0.353770 0.334808 -1.255542
v 0.389132 0.015797 -1.118257
v 0.390867 -0.060084 -1.130415
v 0.176053 0.186199 -1.155104
v 0.242132 0.167458 -1.123896
v 0.133174 0.184241 -1.183444
v 0.093409 -0.157796 -1.104148
v 0.169280 -0.167679 -1.185068
v 0.254087 -0.164604 -1.132544
v 0.324752 0.158462 -1.328927
v 0.180447 0.159355 -1.361463
v 0.224429 0.287671 -1.349187
v 0.403070 0.277185 -1.288222
v 0.301980 -0.130045 -1.236866
v 0.119621 -0.096172 -1.286442
v 0.306969 -0.032893 -1.301394
v 0.194617 -0.017217 -1.330282
v 0.055625 0.132136 -1.345840
v 0.087798 0.263769 -1.334614
v 0.066776 0.039441 -1.336547
v 0.468315 0.145381 -1.187743
v 0.478883 0.075845 -1.223769
v 0.465410 0.217072 -1.224957
v 0.159728 0.159728 0.546297
v 0.360077 -0.118956 -1.145301
v 0.446951 0.141239 -1.271171
v 0.152837 0.291738 -1.352204
v 0.308634 0.350687 -1.310754
v 0.426676 0.288610 -1.234156
v 0.113225 -0.030527 -1.324068
v 0.125619 -0.125620 0.605624
v -0.159728 0.159728 0.546297
v -0.159728 -0.159728 0.546297
v 0.159728 -0.159728 0.546297
v -0.032864 -0.025208 -0.758596
v 0.179065 0.097139 -1.017465
v 0.181235 -0.098697 -1.020583
v 0.309048 0.133445 -1.108645
v 0.420750 -0.032566 -1.239211
v 0.111525 0.132356 -1.365280
vn 0.707100 -0.087200 0.701700
vn 0.268800 0.010100 0.963100
vn 0.392100 -0.386500 0.834700
vn -0.920800 -0.371800 0.117700
vn -0.726400 -0.680000 0.099700
vn -0.377700 -0.536100 0.754900
vn 0.941900 0.316700 0.111700
vn 0.536300 0.374700 0.756300
vn 0.680700 0.724800 0.105400
vn 0.999600 0.015900 -0.023800
vn 0.921700 -0.367900 0.122600
vn -0.189900 -0.075600 0.978900
vn -0.694300 -0.095100 0.713300
vn 0.364800 0.922000 0.129500
vn -0.466000 0.327400 0.822000
vn -0.934100 0.332400 0.130300
vn -0.700900 0.704400 0.111800
vn 0.034200 -0.193100 0.980600
vn -0.160800 -0.244900 0.956100
vn 0.040900 0.022300 0.998900
vn -0.048100 0.204000 0.977800
vn 0.169700 0.249900 0.953200
vn -0.258300 0.048400 0.964800
vn 0.124400 0.613400 0.779900
vn -0.016500 0.992000 0.124800
vn -0.341500 0.934700 0.098400
vn -0.221900 0.599100 0.769200
vn 0.106000 -0.618800 0.778300
vn -0.310700 -0.942800 0.120500
vn -0.026600 -0.989400 0.142500
vn 0.363000 -0.924000 0.120400
vn 0.698900 -0.703000 0.131400
vn -0.569400 0.745700 -0.345800
vn -0.999500 0.014800 -0.026500
vn -0.906000 -0.253900 -0.338500
vn -0.940300 0.267600 -0.210100
vn 0.875900 0.349500 -0.332700
vn 0.828900 -0.448600 -0.334300
vn 0.197700 0.958000 -0.207500
vn 0.198600 -0.914600 -0.352200
vn -0.541600 -0.783700 -0.304200
vn 0.775800 0.493000 0.393600
vn 0.917500 0.332100 -0.218700
vn 0.513700 -0.849500 -0.120200
vn -0.863000 0.504000 0.034900
vn 0.564300 -0.798400 -0.209900
vn -0.829500 0.547000 0.112200
vn -0.716300 -0.692900 0.082300
vn -0.711800 -0.701900 0.026200
vn 0.173400 0.983700 -0.047800
vn 0.747400 0.618200 -0.243200
vn 0.863400 -0.417000 -0.283900
vn 0.633200 -0.078600 0.770000
vn 0.696200 -0.610500 0.377600
vn 0.472500 -0.561500 0.679200
vn -0.657100 0.753700 0.001200
vn -0.778600 -0.626900 -0.028500
vn 0.049900 -0.982800 0.177700
vn 0.124000 0.970000 0.209200
vn -0.594400 0.801400 0.066100
vn 0.017900 0.926800 0.375100
vn 0.465400 0.563800 0.682300
vn -0.280600 -0.958900 0.040900
vn 0.014000 -0.923900 0.382300
vn -0.710300 -0.703900 0.004100
vn 0.266000 -0.935700 0.231700
vn -0.970600 0.162200 -0.177500
vn 0.565100 0.246600 0.787300
vn 0.608500 -0.155700 0.778100
vn -0.982700 0.144900 -0.115000
vn -0.638800 0.768800 0.030200
vn -0.951800 0.172800 -0.253200
vn -0.860500 0.507100 -0.049200
vn -0.793400 -0.570400 -0.212400
vn -0.859200 -0.200700 -0.470500
vn -0.326400 -0.668300 -0.668400
vn -0.199700 0.817600 0.540000
vn 0.081600 0.731700 0.676700
vn 0.303400 0.881300 0.362100
vn -0.469700 0.782500 0.408600
vn -0.745700 0.587600 -0.314000
vn 0.295400 0.521900 0.800200
vn 0.672000 0.687800 0.274500
vn -0.242900 0.969400 0.036200
vn 0.298800 0.784100 -0.544000
vn -0.252500 0.535100 -0.806100
vn 0.609600 -0.006000 0.792600
vn 0.752200 -0.365100 0.548500
vn 0.794100 0.178900 0.580900
vn 0.622700 -0.735300 0.267400
vn 0.665300 -0.024900 -0.746100
vn 0.742700 -0.498600 -0.446900
vn 0.302200 -0.372400 -0.877500
vn -0.128900 -0.953100 -0.273700
vn 0.324000 -0.048600 -0.944800
vn 0.110400 -0.352700 -0.929200
vn 0.130500 -0.038300 -0.990700
vn -0.133600 -0.041600 -0.990100
vn 0.153400 0.230000 -0.961000
vn 0.319500 -0.790200 -0.522800
vn 0.606900 0.352500 -0.712300
vn -0.231800 -0.420600 -0.877100
vn -0.591000 -0.277200 -0.757500
vn -0.789100 0.088400 -0.607900
vn 0.967700 -0.212900 -0.135000
vn 0.929100 0.360100 0.083900
vn -0.993800 0.106100 0.032200
usemtl None
s 1
f 1//1 3//2 98//3
f 18//4 100//5 15//6
f 1//1 25//7 2//8
f 25//7 91//9 2//8
f 1//1 2//8 3//2
f 20//10 1//1 24//11
f 10//12 4//13 15//6
f 2//8 91//9 27//14
f 6//15 17//16 4//13
f 6//15 99//17 17//16
f 8//18 10//12 16//19
f 7//20 8//18 3//2
f 9//21 7//20 13//22
f 7//20 3//2 13//22
f 10//12 9//21 5//23
f 11//24 9//21 13//22
f 11//24 27//14 26//25
f 26//25 28//26 12//27
f 12//27 28//26 99//17
f 14//28 8//18 16//19
f 11//24 12//27 9//21
f 15//6 30//29 29//30
f 31//31 101//32 98//3
f 15//6 100//5 30//29
f 29//30 31//31 14//28
f 17//16 99//17 22//33
f 19//34 4//13 17//16
f 36//35 17//16 35//36
f 100//5 18//4 36//35
f 27//14 91//9 37//37
f 24//11 101//32 23//38
f 26//25 27//14 21//39
f 101//32 31//31 33//40
f 26//25 21//39 22//33
f 29//30 30//29 34//41
f 30//29 100//5 34//41
f 51//42 45//43 43//44
f 22//33 39//45 35//36
f 35//36 39//45 36//35
f 37//37 23//38 40//46
f 44//47 48//48 32//49
f 40//46 34//41 32//49
f 40//46 32//49 48//48
f 42//50 21//39 41//51
f 45//43 41//51 38//52
f 42//50 45//43 51//42
f 54//53 102//54 104//55
f 42//50 46//56 44//47
f 48//48 50//57 43//44
f 56//58 43//44 50//57
f 55//59 53//60 46//56
f 52//61 51//42 103//62
f 74//63 57//64 58//65
f 57//64 76//66 104//55
f 57//64 56//58 58//65
f 56//58 57//64 102//54
f 49//67 46//56 53//60
f 54//53 65//68 103//62
f 64//69 65//68 54//53
f 59//70 53//60 66//71
f 62//72 66//71 61//73
f 63//74 60//75 82//76
f 63//74 58//65 59//70
f 71//77 72//78 68//79
f 71//77 52//61 72//78
f 71//77 66//71 53//60
f 73//80 86//81 61//73
f 72//78 105//82 96//83
f 74//63 63//74 82//76
f 67//84 68//79 95//85
f 95//85 94//86 67//84
f 65//68 105//82 103//62
f 69//87 64//69 70//88
f 70//88 64//69 104//55
f 69//87 88//89 65//68
f 71//77 73//80 66//71
f 73//80 61//73 66//71
f 72//78 103//62 105//82
f 92//90 104//55 76//66
f 93//91 106//92 83//93
f 74//63 75//94 76//66
f 77//95 83//93 84//96
f 78//97 107//98 94//86
f 78//97 84//96 107//98
f 77//95 78//97 79//99
f 81//100 82//76 84//96
f 79//99 80//101 77//95
f 95//85 96//83 80//101
f 81//100 76//66 75//94
f 106//92 92//90 81//100
f 86//81 94//86 107//98
f 97//102 107//98 84//96
f 81//100 83//93 106//92
f 97//102 82//76 87//103
f 85//104 61//73 86//81
f 106//92 89//105 70//88
f 88//89 96//83 105//82
f 88//89 70//88 89//105
f 93//91 80//101 90//106
f 3//2 2//8 13//22
f 1//1 20//10 25//7
f 5//23 4//13 10//12
f 6//15 4//13 5//23
f 8//18 7//20 10//12
f 3//2 8//18 98//3
f 10//12 7//20 9//21
f 5//23 9//21 6//15
f 2//8 11//24 13//22
f 9//21 12//27 6//15
f 8//18 14//28 98//3
f 4//13 19//34 18//4
f 36//35 18//4 19//34
f 36//35 19//34 17//16
f 22//33 21//39 39//45
f 23//38 25//7 20//10
f 23//38 20//10 24//11
f 25//7 23//38 37//37
f 91//9 25//7 37//37
f 28//26 26//25 22//33
f 99//17 28//26 22//33
f 33//40 29//30 34//41
f 31//31 29//30 33//40
f 39//45 32//49 34//41
f 40//46 33//40 34//41
f 33//40 40//46 23//38
f 36//35 39//45 34//41
f 39//45 44//47 32//49
f 38//52 37//37 40//46
f 37//37 38//52 41//51
f 39//45 21//39 44//47
f 45//43 42//50 41//51
f 42//50 44//47 21//39
f 41//51 21//39 37//37
f 40//46 43//44 38//52
f 43//44 40//46 48//48
f 45//43 38//52 43//44
f 42//50 55//59 46//56
f 56//58 102//54 43//44
f 47//107 48//48 44//47
f 47//107 44//47 46//56
f 48//48 47//107 50//57
f 49//67 50//57 47//107
f 49//67 47//107 46//56
f 51//42 102//54 54//53
f 55//59 52//61 53//60
f 52//61 55//59 51//42
f 58//65 63//74 74//63
f 57//64 74//63 76//66
f 58//65 56//58 50//57
f 102//54 57//64 104//55
f 59//70 50//57 49//67
f 59//70 49//67 53//60
f 50//57 59//70 58//65
f 60//75 63//74 62//72
f 60//75 62//72 61//73
f 98//3 101//32 24//11
f 62//72 63//74 59//70
f 52//61 71//77 53//60
f 72//78 52//61 103//62
f 71//77 67//84 73//80
f 73//80 67//84 86//81
f 95//85 68//79 96//83
f 67//84 94//86 86//81
f 64//69 69//87 65//68
f 92//90 70//88 104//55
f 65//68 88//89 105//82
f 95//85 79//99 94//86
f 93//91 77//95 80//101
f 79//99 95//85 80//101
f 81//100 92//90 76//66
f 82//76 81//100 75//94
f 82//76 97//102 84//96
f 85//104 87//103 60//75
f 87//103 82//76 60//75
f 85//104 60//75 61//73
f 87//103 85//104 107//98
f 97//102 87//103 107//98
f 88//89 90//106 96//83
f 88//89 69//87 70//88
f 89//105 106//92 93//91
f 88//89 89//105 90//106
f 90//106 80//101 96//83
f 4//13 18//4 15//6
f 16//19 10//12 15//6
f 11//24 2//8 27//14
f 11//24 26//25 12//27
f 6//15 12//27 99//17
f 15//6 14//28 16//19
f 14//28 15//6 29//30
f 14//28 31//31 98//3
f 35//36 17//16 22//33
f 34//41 100//5 36//35
f 21//39 27//14 37//37
f 23//38 101//32 33//40
f 102//54 51//42 43//44
f 55//59 42//50 51//42
f 64//69 54//53 104//55
f 51//42 54//53 103//62
f 62//72 59//70 66//71
f 67//84 71//77 68//79
f 68//79 72//78 96//83
f 75//94 74//63 82//76
f 77//95 93//91 83//93
f 78//97 77//95 84//96
f 79//99 78//97 94//86
f 83//93 81//100 84//96
f 85//104 86//81 107//98
f 92//90 106//92 70//88
f 89//105 93//91 90//106
f 1//1 98//3 24//11
