# Blender v2.76 (sub 0) OBJ File: 'spines-design.blend'
# www.blender.org
mtllib spine26.mtl
o spine_3_lq_spine_3.001
v -0.038887 -0.190058 0.490771
v 0.184980 -0.077253 0.493387
v 0.169940 0.110781 0.486824
v 0.044640 -0.048749 0.516134
v -0.123809 0.111251 0.499152
v -0.081204 -0.162806 0.280493
v 0.046857 0.176148 0.493311
v 0.136085 0.145768 0.235833
v -0.190683 0.009325 0.453302
v -0.083019 0.161266 0.283074
v 0.159721 -0.104002 0.189828
v -0.111504 -0.027050 0.129168
v -0.006550 -0.049876 0.069913
v -0.067831 0.066368 0.092892
v -0.357108 -0.139064 -0.424759
v -0.032684 0.033595 0.023647
v -0.058439 -0.085618 -0.254550
v -0.369173 0.129137 -0.484892
v -0.076520 -0.169025 -1.097344
v 0.009791 -0.168668 -0.884431
v -0.418448 -0.043797 -0.700388
v -0.162292 -0.222014 -0.611387
v -0.277032 -0.193625 -0.963599
v -0.271505 0.231584 -0.707749
v -0.078245 0.199178 -0.697449
v -0.107290 0.196619 -1.041674
v 0.065065 0.149802 -0.977432
v 0.055331 -0.000988 -0.828421
v -0.323168 -0.042003 -1.037447
v -0.325668 0.131318 -0.989248
v 0.103873 -0.067002 -1.180486
v 0.084550 0.084957 -1.168993
v -0.053856 0.077115 -1.267853
v -0.093701 -0.074691 -1.223379
v 0.140028 -0.064142 -1.459757
v 0.229334 0.014434 -1.443689
v 0.116211 0.096329 -1.384989
v 0.101291 0.024882 -1.470401
vn 0.024200 -0.062000 0.997800
vn 0.755200 -0.368600 0.542100
vn 0.727900 0.425600 0.537600
vn -0.504300 0.834100 -0.223300
vn -0.549100 0.503500 0.667100
vn 0.085100 0.788600 0.608900
vn 0.979300 0.012000 0.201800
vn 0.844700 0.465900 -0.263400
vn 0.896800 -0.442200 0.010100
vn -0.936500 -0.032700 0.349100
vn -0.454800 -0.858100 -0.238000
vn -0.200400 -0.810200 0.550800
vn 0.627500 0.691300 -0.358200
vn 0.730500 -0.518100 -0.444900
vn 0.346900 -0.780000 -0.520800
vn -0.938800 -0.329300 -0.100500
vn -0.433500 0.892500 -0.124200
vn -0.803100 0.539800 0.252200
vn -0.740300 -0.600900 0.301300
vn -0.494100 -0.817100 -0.296900
vn 0.089000 -0.989700 0.112200
vn -0.016200 0.951500 -0.307000
vn -0.343500 0.939100 0.007100
vn 0.511200 0.852300 0.110500
vn 0.855200 -0.493300 0.158900
vn 0.725600 0.688100 0.005800
vn 0.768900 0.638200 0.038500
vn 0.047300 -0.947000 -0.317700
vn -0.986200 -0.155600 -0.057000
vn -0.739500 0.537700 -0.405000
vn -0.821200 -0.166200 -0.545900
vn -0.491300 0.626000 -0.605500
vn -0.602500 -0.437500 -0.667500
vn 0.649500 -0.759000 0.045600
vn 0.903500 0.097300 -0.417300
vn 0.135300 -0.724100 -0.676200
vn 0.126300 0.951500 -0.280400
vn -0.315300 0.267600 -0.910500
usemtl None
s 1
f 4//1 2//2 3//3
f 10//4 5//5 7//6
f 28//7 16//8 17//9
f 9//10 6//11 1//12
f 8//13 3//3 2//2
f 16//8 8//13 11//14
f 11//14 13//15 16//8
f 12//16 9//10 10//4
f 10//4 14//17 12//16
f 12//16 18//18 15//19
f 15//19 23//20 22//21
f 26//22 24//23 25//24
f 14//17 24//23 18//18
f 16//8 13//15 17//9
f 25//24 14//17 16//8
f 31//25 32//26 27//27
f 28//7 25//24 16//8
f 19//28 22//21 23//20
f 21//29 18//18 30//30
f 21//29 29//31 23//20
f 24//23 30//30 18//18
f 26//22 33//32 30//30
f 26//22 27//27 32//26
f 13//15 12//16 15//19
f 29//31 34//33 23//20
f 31//25 28//7 20//34
f 31//25 20//34 19//28
f 36//35 31//25 35//36
f 35//36 19//28 34//33
f 37//37 38//38 33//32
f 37//37 32//26 36//35
f 5//5 9//10 1//12
f 1//12 11//14 2//2
f 1//12 6//11 11//14
f 5//5 4//1 7//6
f 7//6 4//1 3//3
f 4//1 5//5 1//12
f 4//1 1//12 2//2
f 13//15 6//11 12//16
f 6//11 13//15 11//14
f 7//6 8//13 10//4
f 10//4 9//10 5//5
f 11//14 8//13 2//2
f 10//4 8//13 14//17
f 8//13 16//8 14//17
f 9//10 12//16 6//11
f 12//16 14//17 18//18
f 13//15 22//21 17//9
f 17//9 22//21 20//34
f 25//24 24//23 14//17
f 21//29 15//19 18//18
f 19//28 20//34 22//21
f 29//31 21//29 30//30
f 15//19 21//29 23//20
f 33//32 26//22 32//26
f 24//23 26//22 30//30
f 28//7 27//27 25//24
f 33//32 34//33 29//31
f 33//32 29//31 30//30
f 34//33 19//28 23//20
f 38//38 34//33 33//32
f 34//33 38//38 35//36
f 35//36 31//25 19//28
f 37//37 33//32 32//26
f 38//38 36//35 35//36
f 3//3 8//13 7//6
f 31//25 36//35 32//26
f 37//37 36//35 38//38
f 20//34 28//7 17//9
f 27//27 26//22 25//24
f 28//7 31//25 27//27
f 22//21 13//15 15//19
