# Blender v2.76 (sub 0) OBJ File: 'spines-modeling.blend'
# www.blender.org
mtllib spine-14.mtl
o duplicate_spine_6.002
v -0.334731 0.007105 -0.614680
v -0.174594 -0.082138 -0.922137
v -0.137037 -0.126864 -0.912236
v -0.167440 -0.028010 -0.954018
v -0.133266 -0.076497 -0.967583
v -0.171037 -0.113999 -0.785245
v -0.186871 -0.036111 -0.847061
v -0.197779 -0.017137 -0.805094
v -0.036041 -0.183307 -0.856175
v -0.094349 -0.122987 -0.939540
v -0.067879 -0.048931 -0.970834
v 0.015542 -0.144320 -0.897080
v 0.032008 -0.100736 -0.903107
v -0.270144 -0.085079 -0.634475
v -0.201628 -0.132669 -0.604951
v -0.274924 -0.052412 -0.689491
v -0.154926 -0.134012 -0.770013
v -0.171204 -0.157145 -0.667392
v -0.270878 -0.069483 -0.597689
v -0.269578 0.001467 -0.563660
v -0.158025 -0.047949 -0.503452
v -0.050480 -0.183199 -0.693287
v -0.080755 -0.163553 -0.610670
v 0.002768 -0.069624 -0.430031
v -0.099614 -0.043282 -0.426020
v -0.084326 -0.082895 -0.474324
v -0.028479 -0.056247 -0.244500
v -0.050297 -0.041775 -0.224305
v -0.009168 -0.004739 -0.120262
v -0.066392 -0.098793 0.014651
v -0.095256 -0.054102 0.014228
v -0.022211 -0.011939 -0.039105
v 0.036715 -0.076172 0.013316
v 0.033399 -0.055777 0.026109
v -0.376828 0.104139 -0.615255
v -0.245233 0.073703 -0.730463
v -0.361238 0.130712 -0.608307
v -0.204036 0.119267 -0.661847
v -0.367434 0.059508 -0.589844
v -0.352092 0.126360 -0.582875
v -0.336639 0.062406 -0.559293
v -0.299257 0.096563 -0.562732
v -0.118188 -0.022206 -0.980719
v -0.153662 0.003081 -0.946094
v -0.140717 0.050231 -0.841858
v -0.081947 0.012333 -0.956310
v -0.083047 0.066231 -0.856826
v -0.045092 0.169005 -0.715797
v -0.005339 0.058239 -0.852798
v 0.040564 0.180827 -0.696902
v -0.351730 0.051618 -0.649048
v -0.219109 0.107320 -0.697473
v -0.218534 0.045345 -0.554840
v -0.186021 0.097283 -0.592633
v -0.148530 0.045371 -0.522182
v -0.145831 0.142449 -0.722581
v -0.097015 0.083433 -0.486968
v -0.002603 0.181892 -0.638195
v -0.011148 0.089976 -0.388983
v -0.089673 -0.008373 -0.395674
v -0.048549 0.062586 -0.375879
v -0.042667 0.019147 -0.189416
v -0.010077 0.017045 -0.115806
v -0.006807 -0.006865 -0.047011
v -0.003529 0.016069 -0.081516
v -0.100318 0.035668 0.016071
v -0.019944 0.098166 0.017702
v -0.018724 0.016335 -0.044593
v 0.009944 0.020101 -0.042086
v -0.006511 0.110197 0.013140
v 0.100077 -0.181285 -0.865594
v 0.077240 -0.218711 -0.740962
v 0.086075 -0.214633 -0.798576
v 0.158008 -0.192797 -0.801636
v 0.145915 -0.158296 -0.847559
v 0.103899 -0.058763 -0.857630
v 0.153106 -0.089649 -0.855791
v 0.226056 -0.178528 -0.863077
v 0.204452 -0.199077 -0.773695
v 0.247095 -0.116794 -0.908705
v 0.343441 -0.111837 -0.898647
v 0.300087 -0.092966 -0.911358
v 0.183943 -0.052248 -0.845222
v 0.302892 -0.047821 -0.893367
v 0.118413 -0.185188 -0.660591
v 0.049418 -0.103968 -0.530784
v 0.095308 -0.033221 -0.503525
v 0.150695 -0.113380 -0.581235
v 0.224555 -0.102971 -0.630405
v 0.321413 -0.168988 -0.741615
v 0.278836 -0.046967 -0.653404
v 0.359977 -0.168996 -0.787646
v 0.369355 -0.074189 -0.891836
v 0.292783 -0.173898 -0.859461
v 0.374593 -0.056000 -0.865751
v 0.398423 -0.063218 -0.831765
v 0.397034 -0.120592 -0.810633
v 0.380864 -0.140064 -0.755540
v 0.392928 -0.100350 -0.757300
v 0.037773 -0.028730 -0.419250
v 0.013558 -0.037446 -0.269976
v 0.066018 -0.004925 0.016667
v 0.137094 0.029295 -0.784570
v 0.204075 -0.004623 -0.801489
v 0.227356 0.028326 -0.736287
v 0.288795 0.003392 -0.754890
v 0.152320 0.088378 -0.693708
v 0.054017 0.058519 -0.460186
v 0.086989 0.065971 -0.530456
v 0.180376 0.033876 -0.589864
v 0.061215 0.176511 -0.655354
v 0.002148 0.123428 -0.496753
v 0.126994 0.101925 -0.610965
v 0.266892 -0.003221 -0.658059
v 0.230070 0.027540 -0.660413
v 0.045166 0.073982 -0.388715
v 0.050618 0.068379 -0.263639
v 0.014899 0.018504 -0.141227
v 0.007185 0.050333 -0.177421
v 0.074823 0.108462 0.015685
v 0.100225 0.086628 0.014610
vn -0.760800 -0.490300 -0.425100
vn -0.726600 -0.686700 -0.020300
vn -0.795500 -0.577700 0.182700
vn -0.648800 -0.546000 0.530000
vn -0.317700 -0.409400 -0.855300
vn -0.858700 -0.373200 -0.351200
vn -0.801100 0.152400 -0.578800
vn -0.982000 0.086500 -0.167700
vn -0.782900 -0.573100 -0.242000
vn -0.837000 -0.005400 -0.547100
vn -0.043300 -0.677600 -0.734100
vn 0.178000 -0.520700 -0.834900
vn -0.200000 -0.918400 -0.341300
vn -0.511100 -0.777200 -0.367100
vn 0.349000 -0.061400 -0.935100
vn 0.468500 -0.121200 -0.875100
vn -0.163900 -0.827100 0.537600
vn -0.688700 0.677900 0.257100
vn -0.862100 0.394000 0.318400
vn -0.123300 0.233300 -0.964500
vn -0.534700 -0.825900 -0.178800
vn -0.408500 -0.911600 -0.044700
vn -0.453000 -0.806000 0.381000
vn -0.110500 -0.922700 0.369300
vn -0.327000 -0.831200 0.449500
vn -0.258900 -0.965100 0.039100
vn -0.020700 -0.992000 0.124700
vn 0.384200 -0.874800 0.295100
vn 0.068700 -0.964500 0.254800
vn -0.738800 -0.568200 0.362400
vn -0.872400 -0.328100 0.362300
vn -0.444000 -0.881100 0.162600
vn -0.920400 -0.325200 0.217100
vn -0.455600 -0.214200 -0.864000
vn -0.835900 -0.172400 -0.521000
vn -0.954100 0.235000 -0.185800
vn -0.534100 0.838600 -0.106900
vn -0.502500 0.598900 -0.623500
vn -0.427900 -0.153300 0.890700
vn -0.380300 0.697100 0.607800
vn -0.876500 -0.316200 0.363000
vn 0.045600 0.461900 0.885700
vn -0.430600 -0.300900 0.850900
vn -0.176000 0.356400 0.917600
vn -0.177100 0.983000 0.047600
vn -0.562800 0.668300 -0.486400
vn -0.344900 0.890300 -0.297200
vn -0.109500 0.843700 -0.525400
vn 0.193200 0.653400 -0.731900
vn -0.586200 0.653300 -0.479000
vn -0.137000 0.932500 -0.334200
vn 0.262300 0.905000 -0.334800
vn 0.337900 0.683600 -0.646800
vn -0.341300 0.863600 -0.370900
vn -0.621700 -0.248500 0.742800
vn -0.627300 0.357500 0.691800
vn -0.148200 0.836600 0.527300
vn -0.664700 0.545100 0.510900
vn -0.078700 0.978900 0.188200
vn -0.141000 0.951800 0.272500
vn 0.539900 0.774200 0.330300
vn -0.927800 0.197900 0.316100
vn -0.694100 0.663100 0.280200
vn 0.029100 0.913500 0.405700
vn 0.783200 0.621200 -0.025000
vn 0.104300 -0.530800 -0.841000
vn 0.497300 0.226500 -0.837500
vn -0.571900 0.361100 -0.736600
vn -0.214700 0.975500 0.047300
vn -0.908600 0.351100 0.226200
vn -0.354100 0.511900 0.782600
vn 0.113400 -0.488200 -0.865300
vn 0.130900 -0.867500 -0.479800
vn 0.275200 -0.579200 -0.767200
vn 0.031400 -0.968800 -0.245600
vn 0.145300 -0.989300 0.004900
vn 0.351000 0.309400 -0.883800
vn -0.097900 0.143800 -0.984700
vn -0.080700 -0.806000 -0.586400
vn 0.240200 -0.840000 -0.486400
vn -0.200400 -0.116500 -0.972700
vn -0.143900 0.575400 -0.805100
vn 0.020400 0.695000 -0.718700
vn 0.036800 0.790700 -0.611000
vn 0.184600 -0.865200 0.466200
vn 0.289800 -0.768300 0.570700
vn 0.424900 -0.600500 0.677400
vn 0.690300 -0.192500 0.697400
vn 0.343700 -0.813300 0.469400
vn 0.504200 -0.472400 0.722900
vn 0.663100 0.026500 0.748000
vn 0.036400 0.060900 -0.997500
vn 0.631200 0.187200 -0.752700
vn 0.904000 -0.386600 -0.182500
vn 0.444700 -0.431600 -0.784800
vn 0.885000 0.104700 0.453500
vn 0.738200 -0.491200 0.462400
vn 0.533900 0.742800 -0.403900
vn 0.892200 0.432100 -0.131300
vn 0.689400 0.542200 0.480300
vn 0.525900 -0.850000 -0.031400
vn 0.369000 0.892700 -0.258800
vn 0.871100 -0.380700 0.310400
vn 0.765800 -0.626500 0.145100
vn 0.597200 -0.802000 0.008700
vn 0.932500 -0.274300 0.235000
vn 0.290200 -0.240200 0.926300
vn 0.341300 0.661200 -0.668000
vn 0.590900 0.774800 -0.224700
vn 0.888000 0.364600 0.280000
vn 0.674900 0.470300 0.568600
vn 0.451700 0.884200 0.119200
vn 0.626200 0.697200 0.348900
vn 0.598500 0.777000 0.195000
vn 0.452300 0.890200 -0.054400
vn 0.645200 0.440100 0.624400
vn 0.845100 0.517700 0.132900
vn 0.813200 0.552400 0.183200
vn 0.891400 0.098100 0.442300
vn 0.932400 0.325800 0.156100
vn 0.415700 0.888500 0.194400
usemtl None
s 1
f 16//1 14//2 1//3
f 19//4 1//3 14//2
f 5//5 2//6 4//7
f 7//8 6//9 8//10
f 10//11 12//12 9//13
f 10//11 9//13 3//14
f 12//12 11//15 13//16
f 3//14 5//5 10//11
f 5//5 11//15 10//11
f 10//11 11//15 12//12
f 29//17 63//18 62//19
f 5//5 4//7 43//20
f 9//13 17//21 3//14
f 14//2 18//22 15//23
f 6//9 17//21 16//1
f 23//24 26//25 15//23
f 17//21 9//13 22//26
f 17//21 22//26 18//22
f 18//22 22//26 23//24
f 22//26 72//27 23//24
f 23//24 24//28 26//25
f 15//23 19//4 14//2
f 26//25 27//29 28//30
f 26//25 28//30 25//31
f 30//32 31//33 32//34
f 51//35 16//1 1//3
f 35//36 37//37 36//38
f 41//39 40//40 39//41
f 35//36 39//41 40//40
f 41//39 42//42 40//40
f 20//43 53//44 41//39
f 1//3 41//39 39//41
f 20//43 41//39 1//3
f 37//37 40//40 38//45
f 51//35 45//46 8//10
f 36//38 56//47 45//46
f 47//48 46//49 44//50
f 48//51 47//48 56//47
f 47//48 50//52 49//53
f 47//48 49//53 46//49
f 44//50 45//46 47//48
f 52//54 56//47 36//38
f 21//55 25//31 55//56
f 53//44 55//56 54//57
f 54//57 57//58 38//45
f 55//56 57//58 54//57
f 38//45 58//59 56//47
f 58//59 48//51 56//47
f 58//59 50//52 48//51
f 59//60 112//61 58//59
f 38//45 57//58 59//60
f 38//45 52//54 37//37
f 35//36 36//38 51//35
f 40//40 54//57 38//45
f 54//57 40//40 42//42
f 55//56 60//62 57//58
f 61//63 119//64 59//60
f 60//62 61//63 57//58
f 28//30 62//19 60//62
f 62//19 119//64 61//63
f 65//65 64//66 29//17
f 63//18 119//64 62//19
f 29//17 64//66 63//18
f 69//67 68//68 70//69
f 63//18 68//68 65//65
f 66//70 68//68 32//34
f 66//70 67//71 70//69
f 64//66 32//34 68//68
f 75//72 74//73 71//74
f 9//13 73//75 72//27
f 9//13 71//74 73//75
f 73//75 79//76 72//27
f 71//74 76//77 77//78
f 13//16 76//77 71//74
f 15//23 26//25 21//55
f 78//79 74//73 75//72
f 78//79 94//80 79//76
f 80//81 83//82 84//83
f 77//78 83//82 80//81
f 76//77 104//84 83//82
f 73//75 74//73 79//76
f 72//27 85//85 23//24
f 72//27 79//76 85//85
f 23//24 85//85 86//86
f 86//86 85//85 88//87
f 88//87 87//88 86//86
f 85//85 90//89 89//90
f 89//90 91//91 87//88
f 85//85 89//90 88//87
f 82//92 84//83 93//93
f 93//93 97//94 81//95
f 97//94 99//96 98//97
f 95//98 96//99 93//93
f 114//100 99//96 96//99
f 81//95 97//94 92//101
f 94//80 81//95 92//101
f 99//96 114//100 91//91
f 105//102 84//83 104//84
f 79//76 92//101 90//89
f 24//28 87//88 100//103
f 86//86 87//88 24//28
f 100//103 101//104 24//28
f 33//105 102//106 34//107
f 46//49 49//53 76//77
f 103//108 49//53 50//52
f 104//84 107//109 105//102
f 76//77 103//108 104//84
f 103//108 107//109 104//84
f 50//52 107//109 103//108
f 108//110 109//111 112//61
f 58//59 111//112 50//52
f 113//113 107//109 111//112
f 111//112 107//109 50//52
f 115//114 106//115 105//102
f 115//114 114//100 106//115
f 105//102 107//109 115//114
f 115//114 110//116 114//100
f 112//61 109//111 113//113
f 108//110 116//117 100//103
f 112//61 116//117 108//110
f 117//118 118//119 101//104
f 121//120 69//67 120//121
f 119//64 63//18 118//119
f 69//67 121//120 102//106
f 120//121 34//107 102//106
f 102//106 121//120 120//121
f 9//13 72//27 22//26
f 11//15 76//77 13//16
f 101//104 29//17 27//29
f 59//60 116//117 112//61
f 117//118 116//117 59//60
f 91//91 114//100 110//116
f 44//50 43//20 4//7
f 11//15 43//20 46//49
f 4//7 7//8 44//50
f 76//77 49//53 103//108
f 108//110 100//103 87//88
f 33//105 69//67 102//106
f 64//66 69//67 33//105
f 3//14 2//6 5//5
f 3//14 17//21 6//9
f 5//5 43//20 11//15
f 2//6 3//14 6//9
f 4//7 2//6 7//8
f 16//1 17//21 14//2
f 16//1 51//35 8//10
f 14//2 17//21 18//22
f 15//23 18//22 23//24
f 8//10 6//9 16//1
f 26//25 24//28 27//29
f 24//28 101//104 27//29
f 28//30 27//29 29//17
f 30//32 32//34 64//66
f 33//105 34//107 30//32
f 37//37 35//36 40//40
f 51//35 1//3 39//41
f 51//35 39//41 35//36
f 44//50 7//8 45//46
f 51//35 36//38 45//46
f 7//8 8//10 45//46
f 43//20 44//50 46//49
f 56//47 47//48 45//46
f 48//51 50//52 47//48
f 37//37 52//54 36//38
f 20//43 21//55 53//44
f 53//44 54//57 42//42
f 21//55 55//56 53//44
f 38//45 59//60 58//59
f 41//39 53//44 42//42
f 55//56 25//31 60//62
f 59//60 57//58 61//63
f 61//63 60//62 62//19
f 63//18 64//66 68//68
f 118//119 63//18 65//65
f 34//107 67//71 66//70
f 66//70 70//69 68//68
f 68//68 69//67 65//65
f 71//74 74//73 73//75
f 12//12 13//16 71//74
f 75//72 71//74 77//78
f 80//81 84//83 82//92
f 80//81 81//95 94//80
f 104//84 84//83 83//82
f 76//77 83//82 77//78
f 78//79 80//81 94//80
f 85//85 79//76 90//89
f 88//87 89//90 87//88
f 84//83 95//98 93//93
f 106//115 96//99 95//98
f 93//93 96//99 97//94
f 97//94 98//97 92//101
f 96//99 99//96 97//94
f 106//115 95//98 84//83
f 89//90 90//89 98//97
f 89//90 98//97 91//91
f 98//97 99//96 91//91
f 79//76 94//80 92//101
f 90//89 92//101 98//97
f 109//111 87//88 110//116
f 110//116 113//113 109//111
f 112//61 111//112 58//59
f 112//61 113//113 111//112
f 115//114 113//113 110//116
f 107//109 113//113 115//114
f 114//100 96//99 106//115
f 105//102 106//115 84//83
f 101//104 116//117 117//118
f 118//119 117//118 119//64
f 116//117 101//104 100//103
f 120//121 70//69 67//71
f 101//104 118//119 29//17
f 71//74 9//13 12//12
f 24//28 23//24 86//86
f 119//64 117//118 59//60
f 34//107 120//121 67//71
f 76//77 11//15 46//49
f 21//55 20//43 1//3
f 25//31 28//30 60//62
f 32//34 31//33 66//70
f 31//33 30//32 66//70
f 30//32 34//107 66//70
f 21//55 26//25 25//31
f 19//4 21//55 1//3
f 30//32 64//66 33//105
f 56//47 52//54 38//45
f 65//65 69//67 64//66
f 74//73 78//79 79//76
f 81//95 80//81 82//92
f 80//81 75//72 77//78
f 80//81 78//79 75//72
f 93//93 81//95 82//92
f 2//6 6//9 7//8
f 28//30 29//17 62//19
f 118//119 65//65 29//17
f 120//121 69//67 70//69
f 19//4 15//23 21//55
f 87//88 91//91 110//116
f 109//111 108//110 87//88
