# Blender v2.76 (sub 0) OBJ File: 'spines-modeling.blend'
# www.blender.org
mtllib spine-15.mtl
o duplicate_spine_14.002
v -0.011682 0.078096 0.005598
v 0.002501 -0.095686 -0.011332
v 0.045451 -0.045570 0.009808
v -0.063606 -0.030041 0.006996
v -0.076318 0.053705 -0.003103
v 0.058055 0.044793 0.006333
v 0.050157 0.089994 -0.025133
v -0.083661 -0.065519 -0.022286
v 0.100193 -0.031429 -0.024616
v 0.013394 -0.011163 -0.234263
v -0.008329 -0.016206 -0.231456
v -0.000440 -0.006349 -0.307716
v 0.003536 -0.010233 -0.594917
v -0.015890 -0.031786 -0.593538
v 0.004903 -0.041749 -0.591753
v -0.037744 0.001773 -0.785606
v 0.047766 -0.000525 -0.748153
v -0.023655 0.095552 -0.706600
v -0.086960 0.059797 -0.787261
v -0.170883 0.204571 -0.817896
v 0.041140 0.164674 -0.759734
v 0.079918 0.100937 -0.761882
v -0.239156 0.046624 -0.883633
v 0.027899 0.240386 -0.853917
v -0.088572 0.274249 -0.823743
v -0.095836 0.244157 -0.853810
v -0.034669 0.185325 -0.864219
v -0.117903 0.036122 -0.906251
v 0.006107 0.042756 -0.867117
v -0.026810 0.273936 -0.852592
v -0.251186 0.131379 -0.860500
v -0.209624 0.090099 -0.894127
v -0.156732 0.015971 -0.906647
vn 0.523400 0.291100 0.800800
vn 0.451600 0.887700 0.089800
vn -0.192000 0.772400 0.605400
vn 0.079800 -0.934300 0.347400
vn -0.419000 -0.163000 0.893200
vn -0.798700 -0.572400 0.185300
vn 0.942500 -0.293000 0.160500
vn 0.311800 -0.332800 0.889900
vn -0.734000 0.548700 0.400100
vn -0.099200 0.986400 -0.131000
vn 0.794900 -0.580900 -0.175200
vn 0.262500 -0.959700 -0.100600
vn -0.923500 -0.374200 0.083700
vn 0.455900 -0.887700 0.064100
vn 0.333200 0.681900 0.651100
vn -0.701500 -0.384200 0.600200
vn -0.271200 0.505000 0.819400
vn 0.674000 -0.715700 -0.183000
vn -0.276800 -0.954400 -0.111300
vn -0.663500 0.512000 0.545500
vn 0.980700 0.129200 0.146200
vn -0.820100 -0.548100 -0.164400
vn -0.266200 0.201000 -0.942700
vn -0.220200 -0.771800 -0.596600
vn 0.651000 0.637400 -0.412100
vn 0.516100 0.541400 0.663600
vn -0.261800 0.942300 0.208500
vn 0.518300 -0.447500 -0.728700
vn 0.178400 -0.139000 -0.974100
vn -0.960300 0.278400 0.015200
vn 0.094800 0.134500 -0.986400
vn -0.246400 0.503800 -0.827900
vn 0.311800 0.901900 -0.298800
usemtl None
s 1
f 6//1 7//2 1//3
f 2//4 4//5 8//6
f 2//4 9//7 3//8
f 2//4 3//8 4//5
f 4//5 1//3 5//9
f 6//1 9//7 7//2
f 8//6 5//9 12//10
f 7//2 9//7 10//11
f 8//6 12//10 11//12
f 12//10 14//13 11//12
f 10//11 15//14 12//10
f 13//15 12//10 15//14
f 19//16 15//14 14//13
f 19//16 14//13 18//17
f 17//18 15//14 16//19
f 19//16 16//19 15//14
f 19//16 18//17 20//20
f 22//21 15//14 17//18
f 23//22 32//23 33//24
f 24//25 21//26 22//21
f 25//27 21//26 24//25
f 29//28 17//18 16//19
f 33//24 19//16 23//22
f 33//24 28//29 29//28
f 25//27 20//20 18//17
f 31//30 20//20 25//27
f 27//31 24//25 29//28
f 27//31 28//29 26//32
f 1//3 3//8 6//1
f 4//5 3//8 1//3
f 11//12 2//4 8//6
f 12//10 1//3 7//2
f 5//9 1//3 12//10
f 15//14 10//11 11//12
f 15//14 11//12 14//13
f 18//17 14//13 13//15
f 13//15 15//14 22//21
f 31//30 19//16 20//20
f 19//16 31//30 23//22
f 21//26 25//27 18//17
f 29//28 24//25 22//21
f 29//28 22//21 17//18
f 33//24 29//28 16//19
f 33//24 16//19 19//16
f 31//30 25//27 26//32
f 26//32 32//23 31//30
f 27//31 26//32 30//33
f 28//29 27//31 29//28
f 30//33 26//32 25//27
f 31//30 32//23 23//22
f 28//29 32//23 26//32
f 4//5 5//9 8//6
f 3//8 9//7 6//1
f 12//10 7//2 10//11
f 14//13 12//10 13//15
f 18//17 13//15 22//21
f 9//7 2//4 11//12
f 22//21 21//26 18//17
f 30//33 25//27 24//25
f 24//25 27//31 30//33
f 32//23 28//29 33//24
f 10//11 9//7 11//12
