# Blender v2.76 (sub 0) OBJ File: 'spines-modeling.blend'
# www.blender.org
mtllib spine-20.mtl
o duplicate_spine_18_hq.002
v 0.055651 -0.033324 0.011598
v -0.042827 -0.035595 0.014927
v 0.025968 0.055388 0.011941
v -0.016052 -0.027246 -0.395602
v -0.021390 -0.003050 -0.058389
v -0.016138 -0.006909 -0.287312
v 0.076557 -0.033944 -0.511830
v 0.050369 0.054811 -0.501981
v -0.000733 0.000754 -0.799174
v -0.052248 0.142828 -0.968341
v 0.006792 -0.006304 -0.900766
v 0.002880 0.003928 -0.908498
v -0.027647 -0.002760 -0.898243
v -0.141464 0.037556 -0.972224
v -0.193802 -0.031967 -0.948790
v 0.088209 0.000109 -0.982461
v -0.059214 -0.139020 -0.970146
v -0.013472 0.011921 -0.340535
vn 0.198000 0.856900 0.475900
vn 0.719800 -0.552000 0.420900
vn 0.972600 -0.231300 0.022100
vn -0.768500 -0.494700 0.405700
vn -0.971100 -0.221600 -0.088900
vn -0.686400 -0.722300 0.084200
vn -0.584000 0.786200 0.202000
vn 0.366200 0.926800 0.083900
vn 0.784800 -0.618700 0.034400
vn -0.989300 -0.145400 0.013600
vn 0.741500 -0.404700 0.535100
vn 0.455900 0.706200 0.541700
vn -0.050500 0.989500 -0.135400
vn -0.180700 -0.181600 0.966600
vn -0.638000 0.429000 -0.639400
vn -0.046400 -0.983600 -0.174400
vn -0.976700 -0.203400 0.068300
vn 0.947100 0.003800 -0.320700
usemtl None
s 1
f 3//1 1//2 6//3
f 2//4 1//2 3//1
f 6//3 5//5 4//6
f 18//7 5//5 3//1
f 8//8 18//7 6//3
f 7//9 6//3 4//6
f 4//6 9//10 7//9
f 9//10 11//11 7//9
f 9//10 18//7 8//8
f 12//12 7//9 11//11
f 12//12 8//8 7//9
f 10//13 13//14 12//12
f 11//11 9//10 13//14
f 14//15 17//16 15//17
f 15//17 10//13 14//15
f 17//16 16//18 11//11
f 11//11 13//14 15//17
f 2//4 3//1 5//5
f 18//7 4//6 5//5
f 6//3 1//2 5//5
f 6//3 18//7 3//1
f 7//9 8//8 6//3
f 8//8 12//12 9//10
f 10//13 15//17 13//14
f 16//18 10//13 12//12
f 12//12 13//14 9//10
f 16//18 14//15 10//13
f 17//16 14//15 16//18
f 16//18 12//12 11//11
f 17//16 11//11 15//17
f 5//5 1//2 2//4
f 18//7 9//10 4//6
