# Blender v2.76 (sub 0) OBJ File: 'spines-modeling.blend'
# www.blender.org
mtllib spine-13.mtl
o duplicate_spine_7.002
v 0.113406 0.005685 -0.039203
v 0.038198 0.039416 0.006331
v -0.054791 0.029099 0.015192
v 0.028418 0.125514 -0.017373
v -0.096744 -0.134157 0.020564
v 0.097425 -0.132510 -0.006183
v -0.092848 0.067822 -0.015241
v -0.040273 -0.074557 -0.100801
v 0.045916 -0.037554 -0.112731
v 0.026968 0.054173 -0.127929
v 0.017610 0.023194 -0.378818
v -0.026040 0.014840 -0.367065
v 0.003007 -0.024129 -0.358797
v 0.027128 -0.081103 -0.564313
v -0.233190 -0.204472 -0.620158
v -0.156601 0.050663 -0.511557
v -0.120364 -0.095586 -0.508716
v -0.102279 0.179279 -0.589252
v 0.052596 -0.123623 -0.645215
v 0.022242 0.142814 -0.636073
v -0.394233 0.004242 -0.637491
v -0.106317 -0.171604 -0.756536
v -0.306887 -0.201880 -0.795647
v -0.235375 0.200301 -0.888984
v -0.312903 0.173723 -0.645290
v -0.079340 0.151206 -0.763448
v -0.039500 -0.045591 -0.768892
v -0.049972 -0.192178 -0.878792
v -0.240354 -0.122971 -0.937304
v -0.399787 -0.051554 -0.806882
v -0.376229 0.129820 -0.800598
v -0.089775 0.195080 -0.897589
v 0.042744 -0.036764 -0.886322
v 0.016561 0.119602 -0.892192
v -0.208275 0.009591 -0.984820
v -0.106804 -0.091751 -0.982110
v -0.090549 0.023380 -0.989298
v 0.113407 0.005684 -0.039203
v 0.038198 0.039416 0.006331
v -0.054791 0.029099 0.015192
v 0.028418 0.125514 -0.017373
v -0.096744 -0.134157 0.020564
v 0.097425 -0.132510 -0.006183
v -0.011033 -0.097127 -0.076406
v -0.081874 0.001500 -0.087669
v -0.080283 0.084119 -0.009257
v 0.046917 -0.036514 -0.112762
v 0.021896 0.057699 -0.128597
v -0.021190 0.005544 -0.351747
v 0.006413 0.024766 -0.362475
v 0.004253 -0.024987 -0.360353
v 0.027128 -0.081103 -0.564314
v -0.147372 -0.173657 -0.581516
v -0.160187 0.022920 -0.505177
v -0.102277 0.179277 -0.589250
v 0.008168 0.152670 -0.628633
v 0.066056 0.046917 -0.650419
v 0.028470 -0.146785 -0.637148
v -0.394197 0.004043 -0.637079
v -0.306889 -0.201879 -0.795647
v -0.306373 -0.176077 -0.639322
v -0.235368 0.200304 -0.888983
v -0.312899 0.173735 -0.645310
v -0.079339 -0.151205 -0.763448
v -0.106316 0.171604 -0.756536
v -0.039500 0.045592 -0.768892
v -0.049972 -0.192178 -0.878792
v -0.240355 -0.122974 -0.937305
v -0.399787 -0.051554 -0.806881
v -0.376229 0.129821 -0.800597
v -0.089765 0.195075 -0.897598
v 0.042745 -0.036764 -0.886323
v 0.016563 0.119599 -0.892192
v -0.208125 0.010188 -0.984858
v -0.107194 -0.091110 -0.982452
v -0.090988 0.019982 -0.989365
vn -0.195900 0.683100 0.703500
vn -0.585400 -0.276300 -0.762200
vn -0.093900 -0.008600 -0.995500
vn -0.061400 -0.271400 -0.960500
vn 0.208300 -0.469600 -0.858000
vn 0.056000 0.885600 0.461000
vn -0.136600 0.025000 -0.990300
vn 0.379600 -0.779600 0.498100
vn 0.893000 0.061800 0.445900
vn -0.718900 -0.579700 0.383500
vn -0.780500 0.229200 0.581600
vn 0.751500 0.612300 0.245700
vn -0.378200 0.918400 0.116100
vn 0.215700 -0.970000 0.111700
vn -0.979500 -0.192300 0.060300
vn -0.916100 0.358600 0.179300
vn 0.953200 0.267400 0.140700
vn -0.998900 -0.032400 -0.033000
vn -0.829800 -0.113300 0.546400
vn -0.959300 0.222300 -0.174200
vn -0.391600 -0.831600 -0.393800
vn -0.274100 0.811800 -0.515700
vn -0.274000 0.961400 -0.023200
vn -0.604500 0.388700 0.695400
vn 0.225000 -0.571700 -0.789000
vn -0.370900 -0.923300 0.099900
vn 0.495500 0.315100 -0.809500
vn -0.803500 -0.156100 -0.574500
vn 0.764400 0.563800 -0.312700
vn -0.811000 0.387000 -0.438900
vn 0.037000 -0.444500 0.895000
vn 0.676400 0.460900 0.574500
vn -0.105300 0.971600 -0.212000
vn 0.140400 0.835500 0.531300
vn -0.557400 -0.800900 -0.218600
vn -0.052200 -0.950400 -0.306800
vn -0.594000 0.388500 0.704400
vn 0.695600 -0.114900 0.709200
vn 0.031200 0.057900 0.997800
vn 0.512500 -0.159500 -0.843800
vn -0.556000 -0.131800 -0.820700
vn 0.033300 -0.987400 0.155000
vn 0.751700 0.173900 -0.636100
vn -0.199000 0.938100 -0.283400
vn -0.005800 -0.804700 -0.593600
vn 0.519700 -0.591800 -0.616300
vn -0.275000 0.812700 -0.513700
vn 0.451700 0.094700 -0.887200
vn 0.491600 -0.273900 -0.826600
vn 0.050800 -0.994400 -0.092300
vn -0.755600 0.426700 -0.497100
vn 0.991600 -0.129100 0.010000
vn 0.057000 0.731400 0.679600
vn 0.607900 -0.285900 0.740800
vn -0.568400 0.131000 0.812300
vn 0.248000 0.273100 0.929500
vn -0.725600 -0.036000 0.687200
vn -0.963000 -0.101100 -0.250000
vn 0.474200 -0.878700 0.055000
vn 0.872200 -0.429300 -0.234300
vn -0.353800 -0.439400 0.825700
vn 0.658000 0.107900 0.745300
vn -0.631000 -0.076700 0.772000
vn -0.775500 -0.173800 0.607000
vn -0.164700 0.982800 0.083700
vn -0.235500 -0.963900 0.124300
vn -0.810200 -0.148300 -0.567100
vn 0.840900 0.505200 -0.194000
vn 0.088400 -0.469600 0.878400
vn 0.643700 0.333700 -0.688700
vn -0.552900 0.124900 0.823800
vn -0.054800 -0.861400 0.505000
vn 0.431600 -0.809800 0.397400
vn 0.766300 -0.360000 -0.532200
vn 0.659100 -0.699800 0.275300
vn -0.162200 -0.809600 -0.564100
vn 0.978900 0.194900 0.060900
vn 0.543800 0.758100 -0.360000
vn -0.619300 -0.666500 0.415000
vn 0.323000 0.178300 0.929400
vn -0.672200 0.652300 0.350100
vn 0.257500 0.928100 0.268700
vn -0.945700 0.099000 0.309600
vn 0.602300 0.768200 0.217000
vn 0.691500 0.722300 -0.010000
vn 0.833600 -0.425400 0.352200
vn 0.984300 0.173500 -0.030900
vn 0.979500 0.189500 -0.067700
vn 0.720900 -0.692600 -0.021500
vn 0.006700 0.909700 0.415100
vn -0.455400 -0.870200 -0.188000
vn 0.567700 -0.819300 0.079600
vn -0.494900 0.745700 0.446000
vn 0.463000 0.886300 -0.009200
vn -0.512100 -0.708500 0.485400
vn -0.856000 -0.006000 0.517000
vn -0.924600 -0.200900 -0.323700
vn -0.279800 0.818000 -0.502500
vn 0.976600 -0.162700 -0.140500
vn 0.849300 0.480700 -0.218300
vn -0.822600 0.493700 -0.282000
vn 0.491600 -0.846100 -0.206100
vn 0.277400 0.869700 -0.408300
vn 0.261900 0.162000 -0.951400
vn -0.354700 0.110300 -0.928400
vn -0.408600 -0.512200 -0.755400
vn 0.180900 -0.394500 -0.900900
vn -0.956800 -0.089800 -0.276500
vn -0.174100 0.169800 0.970000
usemtl Material.000
s off
f 8//1 6//1 9//1
f 1//2 2//2 4//2
f 2//3 5//3 3//3
f 4//4 2//4 3//4
f 4//5 3//5 7//5
f 5//6 6//6 8//6
f 5//7 2//7 6//7
f 4//8 7//8 10//8
f 7//9 5//9 8//9
f 1//10 4//10 10//10
f 9//11 6//11 1//11
f 13//12 12//12 8//12
f 8//13 9//13 13//13
f 10//14 12//14 11//14
f 11//15 9//15 10//15
f 11//16 13//16 9//16
f 7//17 8//17 12//17
f 14//18 11//18 20//18
f 27//19 19//19 20//19
f 11//20 14//20 13//20
f 18//21 20//21 11//21
f 15//22 17//22 14//22
f 15//23 19//23 22//23
f 19//24 27//24 22//24
f 18//25 16//25 25//25
f 18//26 24//26 26//26
f 21//27 17//27 15//27
f 34//28 33//28 27//28
f 21//29 15//29 23//29
f 27//30 28//30 22//30
f 32//31 24//31 35//31
f 30//32 23//32 29//32
f 23//33 22//33 28//33
f 28//34 29//34 23//34
f 32//35 34//35 26//35
f 32//36 26//36 24//36
f 33//37 36//37 28//37
f 35//38 31//38 30//38
f 37//39 35//39 36//39
f 7//40 3//40 5//40
f 1//41 6//41 2//41
f 10//42 7//42 12//42
f 17//43 16//43 12//43
f 14//44 17//44 13//44
f 18//45 11//45 12//45
f 18//46 12//46 16//46
f 19//47 15//47 14//47
f 21//48 16//48 17//48
f 16//49 21//49 25//49
f 24//50 18//50 25//50
f 27//51 33//51 28//51
f 30//52 31//52 21//52
f 28//53 36//53 29//53
f 35//54 24//54 31//54
f 33//55 37//55 36//55
f 29//56 36//56 35//56
f 9//57 1//57 10//57
f 19//58 14//58 20//58
f 31//59 24//59 25//59
f 21//60 31//60 25//60
f 34//61 32//61 37//61
f 35//62 30//62 29//62
f 33//63 34//63 37//63
f 26//64 27//64 20//64
f 23//65 15//65 22//65
f 20//66 18//66 26//66
f 26//67 34//67 27//67
f 30//68 21//68 23//68
f 37//69 32//69 35//69
f 13//70 17//70 12//70
s 37
f 54//71 53//72 51//73
f 47//74 43//75 44//76
f 38//77 47//74 48//78
f 44//76 43//75 42//79
f 43//75 39//80 42//79
f 48//78 46//81 41//82
f 48//78 41//82 38//77
f 38//77 43//75 47//74
f 51//73 47//74 49//83
f 51//73 50//84 47//74
f 56//85 50//84 52//86
f 66//87 57//88 58//89
f 54//71 49//83 50//84
f 53//72 52//86 51//73
f 50//84 55//90 54//71
f 53//72 58//89 52//86
f 53//72 60//91 64//92
f 63//93 54//71 55//90
f 57//88 66//87 65//94
f 57//88 56//85 52//86
f 55//90 56//85 65//94
f 54//71 61//95 53//72
f 59//96 54//71 63//93
f 69//97 60//91 61//95
f 55//90 62//98 63//93
f 72//99 73//100 66//87
f 72//99 66//87 64//92
f 66//87 73//100 65//94
f 62//98 70//101 63//93
f 72//99 64//92 67//102
f 71//103 76//104 74//105
f 70//101 59//96 63//93
f 67//102 64//92 60//91
f 60//91 68//106 67//102
f 62//98 65//94 71//103
f 71//103 73//100 76//104
f 67//102 75//107 72//99
f 69//97 70//101 74//105
f 76//104 75//107 74//105
f 42//79 46//81 45//108
f 46//81 42//79 40//109
f 44//76 42//79 45//108
f 39//80 38//77 41//82
f 38//77 39//80 43//75
f 42//79 39//80 40//109
f 39//80 41//82 40//109
f 40//109 41//82 46//81
f 49//83 47//74 44//76
f 48//78 50//84 46//81
f 47//74 50//84 48//78
f 50//84 45//108 46//81
f 49//83 45//108 50//84
f 52//86 50//84 51//73
f 56//85 55//90 50//84
f 56//85 57//88 65//94
f 54//71 59//96 61//95
f 60//91 53//72 61//95
f 69//97 59//96 70//101
f 67//102 68//106 75//107
f 60//91 69//97 68//106
f 74//105 70//101 62//98
f 72//99 75//107 76//104
f 68//106 74//105 75//107
f 45//108 49//83 44//76
f 57//88 52//86 58//89
f 73//100 71//103 65//94
f 74//105 68//106 69//97
f 72//99 76//104 73//100
f 49//83 54//71 51//73
f 64//92 66//87 58//89
f 58//89 53//72 64//92
f 62//98 55//90 65//94
f 59//96 69//97 61//95
f 62//98 71//103 74//105
