# Blender v2.76 (sub 0) OBJ File: 'spines-modeling.blend'
# www.blender.org
mtllib spine-5.mtl
o duplicate_spine_5.002
v 0.003546 -0.040558 -0.115395
v 0.115139 0.008253 0.012289
v 0.049980 -0.050848 0.023603
v -0.103505 0.030934 0.016203
v -0.034124 -0.071939 0.013121
v 0.029091 0.069768 0.017107
v -0.054796 0.020780 -0.085369
v 0.033240 0.018041 -0.167285
v -0.075836 0.010208 -0.280179
v -0.011211 -0.047511 -0.359364
v 0.003240 0.048395 -0.347900
v -0.060028 0.037259 -0.554338
v -0.078244 -0.026533 -0.538666
v 0.037735 -0.037963 -0.632045
v -0.064088 -0.000000 -0.666659
v -0.148733 0.012113 -0.545619
v -0.113371 -0.012593 -0.660719
v -0.124866 0.029217 -0.653759
v -0.243129 0.031890 -0.622269
v -0.222787 -0.038466 -0.630974
v -0.225733 0.011703 -0.768477
v -0.275437 0.016011 -0.912658
v -0.286892 -0.015569 -0.913497
v -0.337075 0.000966 -0.879789
v 0.182344 0.049485 -0.629752
v 0.009459 0.000113 -0.649624
v 0.037098 0.037822 -0.632240
v 0.125652 -0.019175 -0.548733
v 0.105877 0.022923 -0.774251
v 0.147979 -0.067845 -0.729074
v 0.251319 -0.013304 -0.618823
v 0.319580 0.000339 -0.755734
v 0.237316 0.001429 -0.833978
vn -0.411500 0.323300 0.852200
vn -0.310600 0.937100 0.159000
vn 0.147000 0.892800 -0.425600
vn 0.932600 0.045000 0.358100
vn 0.402200 -0.682900 0.609800
vn 0.043700 -0.972100 -0.230400
vn -0.375000 -0.829700 0.413300
vn -0.874600 0.293300 0.386100
vn 0.140000 0.848500 0.510300
vn 0.889700 0.445300 -0.099900
vn -0.067000 -0.991900 0.107700
vn -0.989900 0.111400 0.087600
vn 0.083200 0.993700 0.075700
vn -0.428000 -0.799700 0.421000
vn 0.562900 -0.674300 0.477900
vn 0.311500 0.917500 0.247100
vn -0.461700 -0.847700 0.261300
vn 0.051300 -0.083300 -0.995200
vn -0.174200 -0.969300 -0.173600
vn -0.159800 -0.013900 -0.987000
vn -0.182700 0.937700 -0.295300
vn 0.364100 -0.744900 -0.559100
vn -0.665100 0.588100 0.460100
vn 0.874400 0.308100 -0.374800
vn 0.077700 -0.617300 -0.782900
vn 0.375400 0.545800 -0.749100
vn -0.515000 0.390200 -0.763200
vn -0.136600 -0.949200 -0.283400
vn 0.271000 0.088700 -0.958500
vn 0.968700 0.044400 -0.244000
vn -0.873300 0.364700 -0.322900
vn -0.968200 0.032700 -0.248100
vn 0.740000 -0.216800 0.636700
usemtl None
s 1
f 16//1 12//2 18//3
f 2//4 3//5 1//6
f 5//7 3//5 4//8
f 3//5 6//9 4//8
f 8//10 1//6 10//11
f 9//12 10//11 1//6
f 11//13 12//2 9//12
f 9//12 13//14 10//11
f 13//14 9//12 12//2
f 13//14 28//15 10//11
f 11//13 25//16 12//2
f 20//17 15//18 14//19
f 26//20 14//19 15//18
f 27//21 15//18 18//3
f 27//21 18//3 12//2
f 27//21 12//2 25//16
f 16//1 13//14 12//2
f 17//22 15//18 20//17
f 17//22 18//3 15//18
f 19//23 20//17 16//1
f 16//1 20//17 13//14
f 21//24 17//22 20//17
f 21//24 20//17 23//25
f 22//26 19//23 21//24
f 25//16 29//27 27//21
f 26//20 27//21 29//27
f 30//28 33//29 32//30
f 30//28 28//15 14//19
f 5//7 1//6 3//5
f 6//9 2//4 8//10
f 4//8 6//9 7//31
f 8//10 7//31 6//9
f 8//10 2//4 1//6
f 8//10 11//13 7//31
f 7//31 11//13 9//12
f 7//31 9//12 1//6
f 11//13 28//15 25//16
f 8//10 10//11 28//15
f 8//10 28//15 11//13
f 27//21 26//20 15//18
f 13//14 14//19 28//15
f 20//17 14//19 13//14
f 18//3 17//22 21//24
f 21//24 19//23 18//3
f 19//23 24//32 20//17
f 23//25 20//17 24//32
f 22//26 21//24 23//25
f 22//26 24//32 19//23
f 23//25 24//32 22//26
f 14//19 26//20 30//28
f 28//15 31//33 25//16
f 31//33 30//28 32//30
f 29//27 30//28 26//20
f 30//28 31//33 28//15
f 31//33 32//30 25//16
f 33//29 25//16 32//30
f 25//16 33//29 29//27
f 30//28 29//27 33//29
f 6//9 3//5 2//4
f 7//31 1//6 5//7
f 19//23 16//1 18//3
f 4//8 7//31 5//7
