# Blender v2.76 (sub 0) OBJ File: 'spines-modeling.blend'
# www.blender.org
mtllib spine-19.mtl
o duplicate_spine_15_lq.002
v -0.078670 -0.036748 0.018452
v -0.013407 -0.015934 -0.241252
v 0.153538 0.008724 -0.009107
v 0.051705 -0.068431 -0.005110
v -0.000495 0.067656 0.009019
v 0.022405 0.015658 -0.207084
v -0.089776 0.041947 0.003849
v 0.030386 0.012618 -0.810513
v -0.110469 0.056897 -0.950132
v -0.032535 -0.000872 -0.770542
v 0.016616 -0.029449 -1.011981
v -0.145342 -0.020274 -0.986757
v 0.065153 0.043735 -1.003361
v 0.027888 -0.056702 -0.954174
vn -0.774000 0.509800 0.375400
vn -0.003000 -0.994000 -0.109000
vn -0.622200 -0.530700 0.575400
vn 0.054100 0.827400 0.559000
vn 0.256000 -0.862600 0.436200
vn 0.946500 0.105700 0.304700
vn 0.749500 0.524100 -0.404400
vn 0.762400 0.613300 0.206500
vn -0.942600 0.223300 0.248300
vn 0.462400 -0.884200 -0.066400
vn -0.574500 0.810800 -0.111600
vn -0.845000 -0.313700 -0.433000
vn 0.703500 0.490300 -0.514400
vn 0.228800 -0.479300 -0.847300
usemtl None
s 1
f 7//1 2//2 1//3
f 5//4 7//1 1//3
f 4//5 1//3 2//2
f 3//6 4//5 2//2
f 6//7 8//8 10//9
f 8//8 2//2 14//10
f 8//8 6//7 2//2
f 9//11 10//9 8//8
f 12//12 9//11 13//13
f 12//12 10//9 9//11
f 13//13 8//8 14//10
f 1//3 4//5 3//6
f 1//3 3//6 5//4
f 5//4 3//6 6//7
f 7//1 5//4 6//7
f 6//7 3//6 2//2
f 7//1 6//7 10//9
f 7//1 10//9 2//2
f 14//10 2//2 10//9
f 13//13 9//11 8//8
f 11//14 12//12 13//13
f 11//14 13//13 14//10
f 14//10 10//9 12//12
f 11//14 14//10 12//12
