# Blender v2.76 (sub 0) OBJ File: ''
# www.blender.org
mtllib spine6.mtl
o spine6_spine6_Synapse_sample.008_Vert.314
v 0.037284 0.056672 0.049207
v 0.081077 0.054641 0.026490
v 0.059896 0.083653 0.018774
v 0.030790 0.102093 0.029895
v 0.000723 0.083540 0.038166
v -0.011452 0.054557 0.057209
v 0.005883 0.022320 0.053479
v 0.038834 0.007105 0.053804
v 0.065057 0.022432 0.034088
v 0.038394 0.008739 -0.876873
v 0.070130 0.001288 -0.856399
v 0.067328 -0.038570 -0.855235
v 0.032708 -0.032071 -0.870517
v -0.011019 -0.036718 -0.859325
v -0.004789 0.004308 -0.864510
v -0.010891 0.034923 -0.840136
v 0.032631 0.037668 -0.850392
v 0.067457 0.033071 -0.836046
v 0.023831 0.091138 0.009231
v 0.055181 0.080575 0.002184
v 0.031357 0.056499 -0.011131
v 0.018449 0.061092 -0.009059
v 0.006300 0.056028 -0.004806
v -0.005737 0.080322 0.021550
v -0.013215 0.048211 0.032688
v 0.003262 0.041463 -0.000480
v 0.008576 0.027055 0.001736
v -0.000387 0.016185 0.037370
v 0.030963 0.005621 0.030324
v 0.021484 0.022462 -0.000337
v 0.033633 0.027527 -0.004590
v 0.060531 0.016437 0.018004
v 0.068009 0.048548 0.006866
v 0.036671 0.042091 -0.008915
v 0.015866 0.076425 -0.788152
v 0.091795 0.052703 -0.793095
v -0.060247 0.054421 -0.794735
v -0.114720 0.072899 -0.720345
v 0.004135 0.109281 -0.716706
v 0.122928 0.073775 -0.728528
v -0.085861 -0.013882 -0.812295
v -0.060795 -0.082758 -0.829309
v -0.114907 -0.142765 -0.766727
v -0.154421 -0.035079 -0.742172
v 0.015135 -0.106480 -0.834251
v 0.091246 -0.084476 -0.827670
v 0.122740 -0.141890 -0.774912
v 0.003885 -0.178271 -0.778549
v 0.116860 -0.016173 -0.810109
v 0.162441 -0.033911 -0.753085
v 0.025444 0.069715 -0.560906
v 0.118683 0.041567 -0.562619
v 0.147933 0.071915 -0.627606
v 0.026419 0.108016 -0.614469
v -0.093415 0.064616 -0.608286
v -0.066666 0.035650 -0.560409
v -0.045961 0.007622 -0.510852
v 0.015536 0.029922 -0.504230
v 0.077182 0.010936 -0.494580
v -0.095865 -0.058656 -0.561864
v -0.131115 -0.055850 -0.615497
v -0.088365 -0.173883 -0.629148
v -0.063282 -0.150991 -0.564055
v -0.045516 -0.116238 -0.501764
v -0.066263 -0.054860 -0.509019
v 0.029957 -0.179141 -0.565768
v 0.033151 -0.209984 -0.642286
v 0.152982 -0.166584 -0.648469
v 0.122067 -0.145076 -0.566266
v 0.077626 -0.112924 -0.485493
v 0.016130 -0.135224 -0.492114
v 0.151267 -0.050768 -0.564810
v 0.190683 -0.046118 -0.641258
v 0.097927 -0.050442 -0.487325
v -0.003112 0.022901 -0.201205
v 0.013489 0.017501 -0.199121
v 0.014044 0.007614 -0.222574
v -0.003451 0.013577 -0.224505
v -0.019952 0.005771 -0.220683
v -0.018745 0.015558 -0.197951
v -0.018219 0.024542 -0.174155
v -0.002788 0.031906 -0.176674
v 0.013571 0.026537 -0.175094
v -0.022665 -0.003880 -0.189749
v -0.024126 -0.015189 -0.211736
v -0.016970 -0.035536 -0.203420
v -0.015840 -0.022670 -0.181935
v -0.015437 -0.013654 -0.161861
v -0.022127 0.005112 -0.167852
v 0.000763 -0.028069 -0.179851
v 0.000526 -0.041500 -0.201489
v 0.017026 -0.033693 -0.205312
v 0.016396 -0.020726 -0.183105
v 0.016354 -0.011660 -0.162800
v 0.000922 -0.019023 -0.160281
v 0.020316 -0.001289 -0.191307
v 0.021201 -0.012732 -0.214258
v 0.020261 0.007771 -0.169103
v -0.003564 0.004502 -0.246373
v 0.014822 -0.002534 -0.246063
v 0.014114 -0.009375 -0.268563
v -0.004808 -0.001657 -0.266512
v -0.023121 -0.010581 -0.262935
v -0.021060 -0.004037 -0.242526
v -0.025706 -0.027652 -0.235702
v -0.028413 -0.035747 -0.259705
v -0.021294 -0.060510 -0.258353
v -0.018391 -0.050766 -0.230056
v -0.000005 -0.057804 -0.229746
v -0.002370 -0.068228 -0.260404
v 0.015943 -0.059304 -0.263982
v 0.017492 -0.049265 -0.233591
v 0.022137 -0.025649 -0.240416
v 0.021235 -0.034138 -0.267211
v 0.016689 0.049238 -0.021245
v 0.023030 0.046877 -0.021380
v 0.016427 0.041294 -0.123237
v -0.002801 0.048090 -0.123906
v -0.020919 0.039001 -0.121678
v 0.010727 0.046257 -0.020119
v 0.009248 0.038140 -0.018422
v -0.025480 0.014790 -0.117073
v -0.017592 -0.008655 -0.112989
v 0.011869 0.030229 -0.017145
v 0.018211 0.027868 -0.017281
v 0.001634 -0.015451 -0.112321
v 0.019753 -0.006362 -0.114549
v 0.024172 0.030849 -0.018407
v 0.025651 0.038966 -0.020104
v 0.024314 0.017849 -0.119153
v -0.002717 0.040025 -0.151111
v 0.014702 0.034133 -0.149884
v -0.019151 0.031944 -0.149118
v -0.023318 0.010619 -0.144160
v -0.016201 -0.009977 -0.139457
v 0.001218 -0.015868 -0.138230
v 0.017652 -0.007788 -0.140224
v 0.021819 0.013538 -0.145182
v -0.008545 -0.002235 -0.284630
v 0.010210 -0.009336 -0.289055
v 0.004778 -0.005935 -0.308452
v -0.013698 0.000129 -0.303098
v -0.032464 -0.007145 -0.300457
v -0.027191 -0.010580 -0.281360
v -0.033264 -0.033957 -0.281809
v -0.039105 -0.027350 -0.303196
v -0.033334 -0.047151 -0.308599
v -0.026867 -0.056917 -0.284823
v -0.008113 -0.064019 -0.289247
v -0.014858 -0.053213 -0.313952
v 0.003908 -0.045941 -0.316592
v 0.010534 -0.055674 -0.292518
v 0.016605 -0.032297 -0.292069
v 0.010549 -0.025736 -0.313855
v -0.019196 0.002792 -0.324293
v -0.000515 -0.002687 -0.327673
v -0.002196 -0.000323 -0.346096
v -0.022111 0.005126 -0.346464
v -0.042179 -0.000698 -0.346834
v -0.038134 -0.003388 -0.322886
v -0.044790 -0.020995 -0.325051
v -0.049073 -0.017670 -0.346962
v -0.042640 -0.034518 -0.346842
v -0.038909 -0.038368 -0.328811
v -0.020229 -0.043849 -0.332192
v -0.022726 -0.039968 -0.346473
v -0.002658 -0.034143 -0.346102
v -0.001291 -0.037669 -0.333598
v 0.005367 -0.020062 -0.331433
v 0.004237 -0.017170 -0.345976
v -0.019525 0.006500 -0.367863
v 0.003204 0.000435 -0.363096
v 0.017590 0.000451 -0.389191
v -0.011558 0.008558 -0.398093
v -0.041204 -0.001249 -0.403171
v -0.042584 -0.000464 -0.370490
v -0.050710 -0.020154 -0.368512
v -0.051749 -0.028402 -0.399768
v -0.042697 -0.054989 -0.391706
v -0.043573 -0.039543 -0.364070
v -0.020845 -0.045608 -0.359303
v -0.013549 -0.063094 -0.382804
v 0.016096 -0.053287 -0.377725
v 0.002213 -0.038644 -0.356676
v 0.010340 -0.018955 -0.358654
v 0.026643 -0.026134 -0.381128
v 0.001666 0.012951 -0.446754
v 0.042867 0.000592 -0.434895
v -0.039901 -0.001616 -0.454199
v -0.054245 -0.042373 -0.450796
v -0.041000 -0.082395 -0.440959
v 0.000202 -0.094755 -0.429100
v 0.041769 -0.080188 -0.421655
v 0.056113 -0.039431 -0.425057
v 0.013484 0.120508 -0.662607
v 0.145494 0.081416 -0.678137
v -0.117604 0.076665 -0.659896
v -0.160069 -0.048530 -0.676085
v -0.114836 -0.172141 -0.698356
v 0.017175 -0.211234 -0.713887
v 0.148263 -0.167390 -0.716598
v 0.190728 -0.042196 -0.700408
vn 0.302900 0.256100 0.918000
vn 0.961700 0.141100 0.235100
vn 0.692100 0.718700 0.066700
vn 0.103500 0.944500 0.311800
vn -0.514800 0.718300 0.467900
vn -0.626200 0.140100 0.767000
vn -0.413600 -0.484900 0.770600
vn 0.238800 -0.655700 0.716300
vn 0.794100 -0.482700 0.369400
vn 0.138700 0.282600 -0.949200
vn 0.604000 0.213600 -0.767800
vn 0.480900 -0.234300 -0.844900
vn 0.071300 -0.260200 -0.962900
vn -0.344000 -0.184500 -0.920700
vn -0.388600 0.249100 -0.887100
vn -0.346500 0.637600 -0.688100
vn 0.077900 0.739700 -0.668500
vn 0.497700 0.637200 -0.588400
vn -0.185100 0.796700 -0.575300
vn 0.450800 0.520800 -0.725000
vn 0.326300 0.358700 -0.874600
vn -0.222700 0.612100 -0.758800
vn -0.750000 0.345500 -0.564000
vn -0.791200 0.525600 -0.312500
vn -0.991700 -0.101500 -0.078700
vn -0.922000 -0.156900 -0.353900
vn -0.669500 -0.671200 -0.318100
vn -0.687400 -0.726300 0.003900
vn -0.033800 -0.991800 -0.123500
vn -0.099800 -0.914700 -0.391700
vn 0.412300 -0.659300 -0.628800
vn 0.559000 -0.719700 -0.411800
vn 0.746300 -0.099600 -0.658100
vn 0.601100 -0.136300 -0.787500
vn 0.010100 0.883500 -0.468400
vn 0.527600 0.680300 -0.508800
vn -0.457100 0.662200 -0.593700
vn -0.659900 0.691100 -0.294700
vn -0.041700 0.956500 -0.288800
vn 0.563900 0.719000 -0.406200
vn -0.656400 0.180400 -0.732500
vn -0.454900 -0.295600 -0.840100
vn -0.658300 -0.534000 -0.530600
vn -0.922000 0.075600 -0.379800
vn -0.000400 -0.532600 -0.846400
vn 0.507200 -0.353500 -0.786000
vn 0.562600 -0.530800 -0.633800
vn -0.040500 -0.782500 -0.621300
vn 0.766500 0.148900 -0.624800
vn 0.846600 0.096900 -0.523400
vn -0.007000 0.821300 0.570400
vn 0.586100 0.575900 0.569900
vn 0.686500 0.656400 0.312800
vn 0.028200 0.911700 0.409900
vn -0.601000 0.611800 0.514200
vn -0.588800 0.556300 0.586400
vn -0.675400 0.622800 0.394900
vn -0.053200 0.900600 0.431400
vn 0.560400 0.629500 0.538200
vn -0.859400 -0.042200 0.509600
vn -0.879200 -0.066300 0.471800
vn -0.591600 -0.734200 0.333100
vn -0.577900 -0.657400 0.483700
vn -0.641200 -0.614300 0.459900
vn -0.934400 -0.005400 0.356200
vn 0.036300 -0.894200 0.446200
vn 0.060800 -0.979000 0.194400
vn 0.717300 -0.674100 0.176300
vn 0.625700 -0.609700 0.486500
vn 0.563500 -0.580000 0.588300
vn -0.026200 -0.851800 0.523300
vn 0.857900 -0.002700 0.513700
vn 0.976000 0.003400 0.217900
vn 0.822700 0.024500 0.567900
vn -0.069000 0.930700 -0.359200
vn 0.707300 0.659000 -0.255800
vn 0.716000 0.648400 -0.258800
vn -0.071800 0.922900 -0.378400
vn -0.803800 0.559400 -0.202500
vn -0.797100 0.570000 -0.199300
vn -0.791000 0.578000 -0.200600
vn -0.067200 0.943900 -0.323300
vn 0.701000 0.670200 -0.243900
vn -0.997000 -0.040400 0.066100
vn -0.995600 -0.036100 0.085900
vn -0.707600 -0.593600 0.383200
vn -0.715400 -0.608700 0.343200
vn -0.725500 -0.660700 0.192700
vn -0.998400 -0.056000 0.004800
vn 0.072500 -0.879300 0.470700
vn 0.075800 -0.856900 0.509800
vn 0.801700 -0.510800 0.310400
vn 0.807600 -0.519100 0.279800
vn 0.814200 -0.561700 0.146900
vn 0.070600 -0.957200 0.280700
vn 0.997000 0.076400 -0.011700
vn 0.997500 0.070800 0.004000
vn 0.996100 0.069900 -0.053900
vn -0.064000 0.940000 -0.335300
vn 0.734100 0.636700 -0.236000
vn 0.755900 0.630100 -0.177900
vn -0.034800 0.988100 -0.149600
vn -0.798800 0.600700 0.033200
vn -0.809400 0.566600 -0.154500
vn -0.993400 -0.041800 0.106800
vn -0.985000 -0.054400 0.163900
vn -0.690300 -0.701700 0.176400
vn -0.695900 -0.632000 0.341200
vn 0.080700 -0.910000 0.406800
vn 0.053900 -0.994300 0.091700
vn 0.762300 -0.646400 -0.031800
vn 0.796000 -0.559800 0.230300
vn 0.999000 0.041900 -0.017100
vn 0.993200 -0.000100 -0.116700
vn -0.116700 0.913300 -0.390200
vn 0.636700 0.591900 -0.494200
vn 0.699500 0.697400 -0.156200
vn -0.085200 0.986400 -0.140300
vn -0.801800 0.597500 -0.004800
vn -0.819800 0.546200 -0.172000
vn -0.997100 -0.073400 0.019900
vn -0.989900 -0.049500 0.132700
vn -0.706400 -0.671500 0.224000
vn -0.726800 -0.679700 0.099100
vn 0.024100 -0.999200 0.032400
vn 0.051600 -0.975000 0.216300
vn 0.783200 -0.616000 0.084300
vn 0.731400 -0.645900 -0.218800
vn 0.920600 -0.014900 -0.390300
vn 0.996400 0.052600 -0.065700
vn -0.068100 0.954200 -0.291400
vn 0.704700 0.671100 -0.230400
vn -0.794700 0.573200 -0.199700
vn -0.995700 -0.076000 -0.052100
vn -0.714100 -0.698700 0.042900
vn 0.066100 -0.994700 0.079100
vn 0.800300 -0.599500 0.011800
vn 0.994200 0.054900 -0.093000
vn -0.008800 0.997400 0.071400
vn 0.737300 0.665800 -0.114300
vn 0.702800 0.707500 -0.074400
vn -0.001900 0.989000 0.147900
vn -0.692000 0.658400 0.296100
vn -0.738900 0.630800 0.237100
vn -0.975500 -0.042300 0.216000
vn -0.971800 -0.024800 0.234400
vn -0.733900 -0.673700 -0.087400
vn -0.724100 -0.689500 -0.014900
vn -0.015200 -0.966600 -0.255700
vn -0.051900 -0.914700 -0.400800
vn 0.646100 -0.612200 -0.455800
vn 0.696100 -0.638400 -0.328500
vn 0.971400 0.007900 -0.237300
vn 0.958300 0.032100 -0.284000
vn -0.014400 0.990900 0.133700
vn 0.672700 0.739700 -0.016400
vn 0.620700 0.772100 0.136000
vn -0.034700 0.995200 0.091200
vn -0.676400 0.728400 0.109400
vn -0.677000 0.694700 0.243000
vn -0.978600 0.000400 0.205900
vn -0.990900 0.041500 0.128100
vn -0.728300 -0.673700 0.125000
vn -0.720400 -0.691600 -0.051600
vn -0.039000 -0.941200 -0.335500
vn -0.042600 -0.995500 0.084200
vn 0.673500 -0.724000 0.149000
vn 0.650000 -0.660100 -0.376600
vn 0.980000 0.026200 -0.197300
vn 0.982900 0.046700 0.178300
vn -0.039900 0.997600 0.055800
vn 0.579800 0.767300 0.273900
vn 0.575900 0.752300 0.320000
vn -0.041400 0.997200 0.061700
vn -0.691400 0.721600 -0.034500
vn -0.678900 0.734100 -0.012800
vn -0.997600 0.045200 0.053100
vn -0.998600 0.032500 0.041300
vn -0.722900 -0.611900 0.321000
vn -0.720500 -0.634200 0.280500
vn -0.076800 -0.871900 0.483700
vn -0.102100 -0.828100 0.551200
vn 0.505700 -0.551100 0.663800
vn 0.533500 -0.588800 0.607200
vn 0.861500 0.078400 0.501700
vn 0.827200 0.088900 0.554800
vn -0.056500 0.983600 0.171100
vn 0.577000 0.716500 0.392100
vn -0.711700 0.697000 0.087400
vn -0.991400 0.021800 0.129200
vn -0.708500 -0.609100 0.356400
vn -0.082600 -0.842300 0.532700
vn 0.531000 -0.569000 0.628000
vn 0.831700 0.062300 0.551800
vn -0.022900 0.998600 0.046700
vn 0.667700 0.734600 -0.120300
vn -0.707400 0.682300 0.184400
vn -0.986300 -0.035900 0.160800
vn -0.687800 -0.725300 -0.029400
vn 0.001100 -0.976400 -0.216000
vn 0.682900 -0.671700 -0.287200
vn 0.970300 0.041800 -0.238300
usemtl Material.025
s 1
f 1//1 2//2 3//3 4//4
f 1//1 4//4 5//5 6//6
f 1//1 6//6 7//7 8//8
f 1//1 8//8 9//9 2//2
f 10//10 11//11 12//12 13//13
f 10//10 13//13 14//14 15//15
f 10//10 15//15 16//16 17//17
f 10//10 17//17 18//18 11//11
f 19//19 20//20 21//21 22//22
f 19//19 22//22 23//23 24//24
f 19//19 24//24 5//5 4//4
f 19//19 4//4 3//3 20//20
f 25//25 24//24 23//23 26//26
f 25//25 26//26 27//27 28//28
f 25//25 28//28 7//7 6//6
f 25//25 6//6 5//5 24//24
f 29//29 28//28 27//27 30//30
f 29//29 30//30 31//31 32//32
f 29//29 32//32 9//9 8//8
f 29//29 8//8 7//7 28//28
f 33//33 32//32 31//31 34//34
f 33//33 34//34 21//21 20//20
f 33//33 20//20 3//3 2//2
f 33//33 2//2 9//9 32//32
f 35//35 36//36 18//18 17//17
f 35//35 17//17 16//16 37//37
f 35//35 37//37 38//38 39//39
f 35//35 39//39 40//40 36//36
f 41//41 37//37 16//16 15//15
f 41//41 15//15 14//14 42//42
f 41//41 42//42 43//43 44//44
f 41//41 44//44 38//38 37//37
f 45//45 42//42 14//14 13//13
f 45//45 13//13 12//12 46//46
f 45//45 46//46 47//47 48//48
f 45//45 48//48 43//43 42//42
f 49//49 46//46 12//12 11//11
f 49//49 11//11 18//18 36//36
f 49//49 36//36 40//40 50//50
f 49//49 50//50 47//47 46//46
f 51//51 52//52 53//53 54//54
f 51//51 54//54 55//55 56//56
f 51//51 56//56 57//57 58//58
f 51//51 58//58 59//59 52//52
f 60//60 56//56 55//55 61//61
f 60//60 61//61 62//62 63//63
f 60//60 63//63 64//64 65//65
f 60//60 65//65 57//57 56//56
f 66//66 63//63 62//62 67//67
f 66//66 67//67 68//68 69//69
f 66//66 69//69 70//70 71//71
f 66//66 71//71 64//64 63//63
f 72//72 69//69 68//68 73//73
f 72//72 73//73 53//53 52//52
f 72//72 52//52 59//59 74//74
f 72//72 74//74 70//70 69//69
f 75//75 76//76 77//77 78//78
f 75//75 78//78 79//79 80//80
f 75//75 80//80 81//81 82//82
f 75//75 82//82 83//83 76//76
f 84//84 80//80 79//79 85//85
f 84//84 85//85 86//86 87//87
f 84//84 87//87 88//88 89//89
f 84//84 89//89 81//81 80//80
f 90//90 87//87 86//86 91//91
f 90//90 91//91 92//92 93//93
f 90//90 93//93 94//94 95//95
f 90//90 95//95 88//88 87//87
f 96//96 93//93 92//92 97//97
f 96//96 97//97 77//77 76//76
f 96//96 76//76 83//83 98//98
f 96//96 98//98 94//94 93//93
f 99//99 100//100 101//101 102//102
f 99//99 102//102 103//103 104//104
f 99//99 104//104 79//79 78//78
f 99//99 78//78 77//77 100//100
f 105//105 104//104 103//103 106//106
f 105//105 106//106 107//107 108//108
f 105//105 108//108 86//86 85//85
f 105//105 85//85 79//79 104//104
f 109//109 108//108 107//107 110//110
f 109//109 110//110 111//111 112//112
f 109//109 112//112 92//92 91//91
f 109//109 91//91 86//86 108//108
f 113//113 112//112 111//111 114//114
f 113//113 114//114 101//101 100//100
f 113//113 100//100 77//77 97//97
f 113//113 97//97 92//92 112//112
f 115//115 116//116 117//117 118//118
f 115//115 118//118 119//119 120//120
f 115//115 120//120 23//23 22//22
f 115//115 22//22 21//21 116//116
f 121//121 120//120 119//119 122//122
f 121//121 122//122 123//123 124//124
f 121//121 124//124 27//27 26//26
f 121//121 26//26 23//23 120//120
f 125//125 124//124 123//123 126//126
f 125//125 126//126 127//127 128//128
f 125//125 128//128 31//31 30//30
f 125//125 30//30 27//27 124//124
f 129//129 128//128 127//127 130//130
f 129//129 130//130 117//117 116//116
f 129//129 116//116 21//21 34//34
f 129//129 34//34 31//31 128//128
f 131//131 132//132 83//83 82//82
f 131//131 82//82 81//81 133//133
f 131//131 133//133 119//119 118//118
f 131//131 118//118 117//117 132//132
f 134//134 133//133 81//81 89//89
f 134//134 89//89 88//88 135//135
f 134//134 135//135 123//123 122//122
f 134//134 122//122 119//119 133//133
f 136//136 135//135 88//88 95//95
f 136//136 95//95 94//94 137//137
f 136//136 137//137 127//127 126//126
f 136//136 126//126 123//123 135//135
f 138//138 137//137 94//94 98//98
f 138//138 98//98 83//83 132//132
f 138//138 132//132 117//117 130//130
f 138//138 130//130 127//127 137//137
f 139//139 140//140 141//141 142//142
f 139//139 142//142 143//143 144//144
f 139//139 144//144 103//103 102//102
f 139//139 102//102 101//101 140//140
f 145//145 144//144 143//143 146//146
f 145//145 146//146 147//147 148//148
f 145//145 148//148 107//107 106//106
f 145//145 106//106 103//103 144//144
f 149//149 148//148 147//147 150//150
f 149//149 150//150 151//151 152//152
f 149//149 152//152 111//111 110//110
f 149//149 110//110 107//107 148//148
f 153//153 152//152 151//151 154//154
f 153//153 154//154 141//141 140//140
f 153//153 140//140 101//101 114//114
f 153//153 114//114 111//111 152//152
f 155//155 156//156 157//157 158//158
f 155//155 158//158 159//159 160//160
f 155//155 160//160 143//143 142//142
f 155//155 142//142 141//141 156//156
f 161//161 160//160 159//159 162//162
f 161//161 162//162 163//163 164//164
f 161//161 164//164 147//147 146//146
f 161//161 146//146 143//143 160//160
f 165//165 164//164 163//163 166//166
f 165//165 166//166 167//167 168//168
f 165//165 168//168 151//151 150//150
f 165//165 150//150 147//147 164//164
f 169//169 168//168 167//167 170//170
f 169//169 170//170 157//157 156//156
f 169//169 156//156 141//141 154//154
f 169//169 154//154 151//151 168//168
f 171//171 172//172 173//173 174//174
f 171//171 174//174 175//175 176//176
f 171//171 176//176 159//159 158//158
f 171//171 158//158 157//157 172//172
f 177//177 176//176 175//175 178//178
f 177//177 178//178 179//179 180//180
f 177//177 180//180 163//163 162//162
f 177//177 162//162 159//159 176//176
f 181//181 180//180 179//179 182//182
f 181//181 182//182 183//183 184//184
f 181//181 184//184 167//167 166//166
f 181//181 166//166 163//163 180//180
f 185//185 184//184 183//183 186//186
f 185//185 186//186 173//173 172//172
f 185//185 172//172 157//157 170//170
f 185//185 170//170 167//167 184//184
f 187//187 188//188 59//59 58//58
f 187//187 58//58 57//57 189//189
f 187//187 189//189 175//175 174//174
f 187//187 174//174 173//173 188//188
f 190//190 189//189 57//57 65//65
f 190//190 65//65 64//64 191//191
f 190//190 191//191 179//179 178//178
f 190//190 178//178 175//175 189//189
f 192//192 191//191 64//64 71//71
f 192//192 71//71 70//70 193//193
f 192//192 193//193 183//183 182//182
f 192//192 182//182 179//179 191//191
f 194//194 193//193 70//70 74//74
f 194//194 74//74 59//59 188//188
f 194//194 188//188 173//173 186//186
f 194//194 186//186 183//183 193//193
f 195//195 196//196 40//40 39//39
f 195//195 39//39 38//38 197//197
f 195//195 197//197 55//55 54//54
f 195//195 54//54 53//53 196//196
f 198//198 197//197 38//38 44//44
f 198//198 44//44 43//43 199//199
f 198//198 199//199 62//62 61//61
f 198//198 61//61 55//55 197//197
f 200//200 199//199 43//43 48//48
f 200//200 48//48 47//47 201//201
f 200//200 201//201 68//68 67//67
f 200//200 67//67 62//62 199//199
f 202//202 201//201 47//47 50//50
f 202//202 50//50 40//40 196//196
f 202//202 196//196 53//53 73//73
f 202//202 73//73 68//68 201//201
