# Blender v2.76 (sub 0) OBJ File: 'spines-modeling-2.blend'
# www.blender.org
mtllib spine-12-lr.mtl
o spine-12-lr_Cube.059
v -0.144902 1.056728 -1.674120
v -0.243209 1.371150 -1.764324
v -0.224232 1.233060 -1.716251
v -0.284510 1.389527 -1.862059
v -0.170638 1.294616 -1.836675
v -0.200392 1.408962 -1.890552
v -0.295226 1.469772 -1.928550
v -0.255661 1.420423 -1.929103
v -0.253994 1.469165 -1.933179
v -0.253725 1.449818 -1.869438
v -0.123468 1.056760 -1.395128
v -0.118183 1.126792 -1.456838
v -0.078316 0.973115 -1.342236
v -0.010225 0.896058 -1.169103
v 0.015668 0.894455 -1.393591
v 0.076933 0.805065 -1.157625
v -0.005928 1.070010 -1.364280
v 0.181655 0.967481 -1.206602
v -0.091772 0.944209 -1.501246
v -0.126883 0.984505 -1.586388
v -0.178313 1.066304 -1.522661
v -0.109818 1.161438 -1.781950
v -0.003091 0.965744 -1.584270
v -0.023446 1.205833 -1.732122
v -0.000657 1.059905 -1.696375
v 0.153046 0.869897 -1.333577
v -0.021371 1.191356 -1.563193
v 0.134223 0.964052 -1.457470
v 0.093351 1.006855 -1.587220
v 0.087617 1.076247 -1.534023
v -0.187669 1.199090 -1.562454
v -0.147373 1.297076 -1.656113
v -0.086484 1.246097 -1.799426
v -0.127222 1.340720 -1.783027
v -0.085619 1.246110 -1.801098
v -0.050576 1.284187 -1.682872
v -0.035151 -0.049901 0.004012
v -0.137568 0.121254 0.118070
v -0.125232 0.118991 0.045629
v -0.090515 0.034649 0.054884
v -0.053675 0.170791 -0.147928
v -0.135522 0.160010 0.133989
v -0.124552 0.153777 0.119690
v -0.059086 0.147186 0.139266
v -0.043265 -0.050174 -0.062486
v -0.093917 0.092534 -0.111878
v -0.076257 0.022543 -0.098562
v -0.000814 -0.006982 -0.140733
v -0.071380 0.093325 -0.173367
v -0.029461 0.107095 -0.242182
v -0.070518 0.093350 -0.172921
v -0.028953 -0.046060 -0.046413
v 0.036129 0.009945 0.040203
v 0.114697 0.021359 -0.112010
v 0.110346 0.089944 -0.272271
v -0.095900 0.225366 0.152181
v -0.069774 0.227098 0.170269
v -0.071742 0.214792 0.150426
v -0.042335 0.197192 0.071020
v 0.005415 0.249014 -0.225870
v 0.070595 0.222932 -0.134015
v 0.040720 0.185885 -0.415090
v -0.024955 0.277809 -0.357421
v 0.000276 0.311550 -0.523785
v -0.021352 0.469894 -0.581723
v 0.016802 0.601337 -0.574703
v 0.046781 0.422160 -0.679973
v 0.153405 0.410827 -0.668227
v -0.018406 0.645049 -0.721933
v 0.037823 0.617961 -0.878946
v 0.035522 0.456022 -0.432380
v 0.086666 0.307246 -0.295129
v 0.151229 0.418045 -0.392432
v 0.191553 0.290410 -0.403433
v 0.114582 0.282314 -0.537665
v 0.149450 0.182014 -0.399950
v 0.212004 0.364400 -0.552979
v 0.134499 0.587829 -0.546569
v 0.225449 0.523936 -0.632891
v 0.040787 0.187064 0.138174
v 0.138662 0.168382 0.034587
v 0.102185 0.134968 0.131699
v 0.152325 0.151642 0.116233
v 0.158073 0.152179 0.119002
v 0.154469 0.085727 0.032474
v 0.182042 0.088862 -0.159296
v 0.193931 0.128897 -0.084960
v -0.043460 0.216225 0.156201
v -0.066227 0.241729 0.172128
v 0.137958 0.178352 0.136721
v 0.178881 0.184959 -0.234481
v 0.223913 0.428213 -0.479720
v 0.005908 0.795193 -0.952820
v 0.061665 0.766016 -0.754078
v 0.127150 0.540823 -0.840681
v 0.176439 0.657825 -0.982493
v 0.249324 0.665841 -0.895548
v 0.068262 0.913565 -1.015796
v 0.172002 0.890086 -0.926939
v 0.166592 0.734644 -1.088539
v 0.234731 0.840825 -1.188178
v 0.261940 0.763241 -1.073947
v 0.288618 0.831398 -1.047817
v 0.027744 0.983925 -1.204082
v 0.200003 0.749536 -0.755360
v 0.271752 0.767428 -0.880797
v 0.260855 0.867412 -0.965688
vn 0.803800 0.331700 -0.493800
vn 0.095200 -0.410000 -0.907100
vn -0.071900 -0.428600 -0.900600
vn -0.971400 -0.231400 -0.052500
vn -0.979800 -0.196800 -0.034800
vn -0.484200 0.581300 0.653900
vn -0.042000 0.857100 0.513500
vn -0.737600 0.548900 -0.393200
vn 0.353300 0.709200 -0.610100
vn -0.950100 -0.222600 0.218600
vn -0.860300 -0.209200 0.464900
vn -0.704600 0.254700 0.662300
vn -0.977000 -0.128500 0.170300
vn -0.234000 -0.936900 -0.259800
vn -0.385500 -0.823700 -0.415700
vn -0.359000 0.801200 0.478600
vn 0.653900 0.756000 0.028400
vn -0.011500 0.838900 0.544100
vn -0.989400 0.144800 0.011700
vn -0.412400 0.835400 0.363200
vn -0.517500 -0.850900 -0.090000
vn -0.559600 -0.761400 -0.327200
vn -0.417700 0.670900 0.612600
vn -0.556200 -0.648600 -0.519600
vn -0.053700 -0.484300 -0.873200
vn 0.472800 -0.443000 -0.761700
vn 0.604400 -0.647400 -0.464200
vn 0.471200 0.789700 0.392900
vn 0.839300 -0.357200 -0.409900
vn 0.101500 -0.860800 -0.498700
vn 0.783300 -0.286900 -0.551400
vn 0.833300 0.548400 -0.068900
vn 0.848900 0.188200 -0.493900
vn -0.656200 0.492200 0.571900
vn -0.077200 -0.996700 0.024300
vn -0.111500 -0.843500 -0.525400
vn 0.529200 -0.842900 -0.097200
vn 0.557800 0.394500 -0.730200
vn 0.502500 0.129700 -0.854800
vn 0.670300 0.727000 -0.148600
vn 0.673200 0.724000 0.150300
vn -0.174700 0.791000 0.586300
vn -0.650800 0.741900 0.161100
vn -0.914200 -0.009800 0.405200
vn -0.769700 -0.320600 0.552000
vn -0.965000 0.183000 -0.187800
vn -0.606400 -0.644900 0.465000
vn -0.037400 -0.399400 0.916000
vn -0.813300 -0.487900 -0.316900
vn -0.704900 -0.460100 -0.539800
vn -0.847300 -0.363900 -0.386800
vn -0.747000 -0.566800 -0.347400
vn -0.800100 0.592600 -0.092700
vn -0.154600 -0.942900 0.294900
vn -0.962600 0.014500 -0.270400
vn 0.314200 -0.763400 0.564300
vn 0.155300 0.874700 0.459100
vn 0.194100 0.674600 0.712200
vn 0.599000 0.781200 -0.175600
vn -0.484900 -0.864800 0.130200
vn -0.231200 0.958500 -0.166800
vn 0.095100 0.960400 0.261900
vn -0.429800 0.821100 0.375500
vn -0.418400 -0.715800 -0.559000
vn 0.582900 -0.670300 -0.459200
vn 0.347100 -0.793100 -0.500400
vn -0.977900 0.186300 0.094400
vn -0.716600 -0.517500 -0.467500
vn -0.999100 -0.022900 -0.034200
vn -0.479300 -0.644900 -0.595300
vn 0.204700 -0.768200 -0.606500
vn -0.674700 -0.537700 -0.505600
vn -0.581500 0.580100 0.570300
vn -0.978300 0.200700 0.051700
vn 0.128800 0.762900 0.633500
vn 0.983400 -0.114100 0.141200
vn 0.420700 0.506000 0.752900
vn 0.830200 -0.469500 -0.300600
vn 0.449400 -0.638400 -0.624800
vn 0.999500 0.018500 0.023700
vn 0.918600 0.208400 0.335800
vn 0.593200 0.566600 0.571800
vn 0.330900 0.677800 0.656500
vn -0.484000 0.592700 0.643700
vn 0.818800 -0.464800 0.337000
vn 0.896000 0.019100 0.443600
vn 0.916300 -0.294800 0.270900
vn 0.198200 -0.469100 0.860600
vn 0.847200 -0.490600 -0.203800
vn 0.986300 0.082400 0.142900
vn 0.666900 0.738900 0.095800
vn -0.643500 0.712600 0.279500
vn -0.109300 -0.320600 0.940900
vn 0.979800 0.197900 0.027500
vn 0.158900 -0.780000 -0.605200
vn 0.871600 -0.480400 -0.097500
vn 0.496200 0.562200 0.661500
vn 0.175000 0.673000 0.718600
vn -0.372000 0.766100 0.524100
vn 0.761300 -0.319200 -0.564400
vn 0.193100 -0.820300 -0.538300
vn 0.059400 -0.783100 -0.619000
vn 0.701300 0.650800 0.290700
vn 0.982200 0.152700 -0.108800
vn 0.935800 0.085400 0.342100
vn 0.132100 0.881300 0.453600
vn 0.717300 -0.558700 -0.416200
usemtl sample
s 1
f 6//1 5//2 8//3
f 4//4 5//2 3//5
f 4//4 2//6 10//7
f 10//7 7//8 4//4
f 9//9 6//1 8//3
f 7//8 10//7 9//9
f 2//6 4//4 3//5
f 21//10 13//11 11//12
f 14//13 15//14 16//15
f 104//16 13//11 14//13
f 104//16 18//17 17//18
f 14//13 93//19 98//20
f 19//21 21//10 20//22
f 11//12 12//23 21//10
f 20//22 21//10 1//24
f 22//25 25//26 1//24
f 15//14 26//27 16//15
f 17//18 27//28 12//23
f 28//29 23//30 29//31
f 30//32 27//28 17//18
f 30//32 28//29 29//31
f 30//32 29//31 25//26
f 25//26 29//31 23//30
f 24//33 30//32 25//26
f 20//22 1//24 23//30
f 31//34 3//5 21//10
f 52//35 48//36 54//37
f 5//2 33//38 22//25
f 33//38 35//39 22//25
f 5//2 35//39 33//38
f 34//40 35//39 5//2
f 24//33 35//39 33//38
f 36//41 32//42 27//28
f 32//42 36//41 34//40
f 6//1 34//40 5//2
f 2//6 34//40 10//7
f 22//25 3//5 5//2
f 21//10 12//23 31//34
f 22//25 24//33 25//26
f 27//28 30//32 24//33
f 43//43 42//44 38//45
f 38//45 42//44 39//46
f 40//47 44//48 38//45
f 40//47 38//45 39//46
f 47//49 50//50 48//36
f 49//51 51//52 41//53
f 37//54 40//47 47//49
f 51//52 49//51 46//55
f 47//49 51//52 50//50
f 46//55 49//51 47//49
f 39//46 46//55 47//49
f 52//35 53//56 37//54
f 89//57 88//58 58//59
f 47//49 45//60 52//35
f 59//61 61//62 41//53
f 61//62 60//63 41//53
f 62//64 76//65 55//66
f 62//64 55//66 50//50
f 63//67 64//68 62//64
f 63//67 65//69 64//68
f 64//68 67//70 75//71
f 65//69 70//72 67//70
f 65//69 66//73 69//74
f 60//63 72//75 63//67
f 74//76 73//77 72//75
f 75//71 74//76 76//65
f 75//71 77//78 74//76
f 68//79 79//80 77//78
f 77//78 79//80 92//81
f 74//76 77//78 92//81
f 75//71 68//79 77//78
f 79//80 105//82 78//83
f 71//84 65//69 63//67
f 53//56 44//48 40//47
f 85//85 84//86 83//87
f 83//87 84//86 82//88
f 53//56 54//37 85//85
f 85//85 86//89 87//90
f 54//37 86//89 85//85
f 85//85 87//90 81//91
f 81//91 84//86 85//85
f 92//81 73//77 74//76
f 43//43 42//44 56//92
f 58//59 88//58 57//93
f 57//93 89//57 56//92
f 54//37 55//66 86//89
f 55//66 91//94 86//89
f 55//66 76//65 91//94
f 91//94 87//90 86//89
f 91//94 72//75 61//62
f 44//48 57//93 56//92
f 58//59 57//93 44//48
f 95//95 97//96 79//80
f 39//46 59//61 41//53
f 27//28 32//42 31//34
f 90//97 84//86 83//87
f 82//88 90//97 80//98
f 90//97 83//87 81//91
f 41//53 63//67 50//50
f 44//48 88//58 58//59
f 94//99 93//19 69//74
f 78//83 94//99 66//73
f 78//83 105//82 94//99
f 18//17 101//100 26//27
f 95//95 96//101 97//96
f 16//15 101//100 100//102
f 18//17 104//16 98//20
f 107//103 103//104 18//17
f 106//105 107//103 105//82
f 107//103 18//17 99//106
f 70//72 16//15 100//102
f 100//102 96//101 70//72
f 70//72 93//19 16//15
f 97//96 103//104 106//105
f 16//15 26//27 101//100
f 97//96 106//105 105//82
f 93//19 14//13 16//15
f 67//70 95//95 68//79
f 94//99 98//20 93//19
f 5//2 4//4 8//3
f 4//4 7//8 8//3
f 7//8 9//9 8//3
f 6//1 9//9 10//7
f 14//13 13//11 15//14
f 11//12 13//11 17//18
f 13//11 104//16 17//18
f 11//12 17//18 12//23
f 98//20 104//16 14//13
f 1//24 25//26 23//30
f 17//18 18//17 30//32
f 28//29 30//32 18//17
f 15//14 19//21 23//30
f 19//21 20//22 23//30
f 23//30 28//29 15//14
f 15//14 28//29 26//27
f 3//5 31//34 32//42
f 24//33 36//41 27//28
f 35//39 24//33 22//25
f 34//40 36//41 24//33
f 35//39 34//40 33//38
f 33//38 34//40 24//33
f 2//6 32//42 34//40
f 3//5 32//42 2//6
f 34//40 6//1 10//7
f 13//11 21//10 19//21
f 15//14 13//11 19//21
f 21//10 3//5 1//24
f 22//25 1//24 3//5
f 43//43 38//45 44//48
f 42//44 43//43 44//48
f 42//44 43//43 39//46
f 40//47 39//46 47//49
f 45//60 47//49 48//36
f 49//51 41//53 50//50
f 49//51 50//50 51//52
f 48//36 55//66 54//37
f 50//50 55//66 48//36
f 51//52 46//55 41//53
f 49//51 51//52 47//49
f 46//55 39//46 41//53
f 45//60 48//36 52//35
f 59//61 56//92 58//59
f 75//71 76//65 62//64
f 70//72 69//74 93//19
f 70//72 65//69 69//74
f 71//84 63//67 72//75
f 71//84 73//77 78//83
f 66//73 71//84 78//83
f 67//70 68//79 75//71
f 78//83 92//81 79//80
f 64//68 75//71 62//64
f 71//84 66//73 65//69
f 73//77 92//81 78//83
f 64//68 65//69 67//70
f 71//84 72//75 73//77
f 44//48 53//56 82//88
f 44//48 82//88 80//98
f 82//88 85//85 83//87
f 53//56 85//85 82//88
f 84//86 81//91 83//87
f 88//58 89//57 57//93
f 80//98 81//91 59//61
f 80//98 90//97 81//91
f 88//58 80//98 59//61
f 81//91 91//94 61//62
f 37//54 53//56 40//47
f 58//59 88//58 59//61
f 81//91 61//62 59//61
f 72//75 91//94 74//76
f 41//53 60//63 63//67
f 60//63 61//62 72//75
f 39//46 43//43 59//61
f 62//64 50//50 63//67
f 44//48 80//98 88//58
f 84//86 90//97 82//88
f 87//90 91//94 81//91
f 76//65 74//76 91//94
f 70//72 95//95 67//70
f 94//99 99//106 98//20
f 96//101 100//102 102//107
f 100//102 101//100 102//107
f 98//20 99//106 18//17
f 105//82 107//103 99//106
f 97//96 102//107 103//104
f 94//99 105//82 99//106
f 97//96 96//101 102//107
f 103//104 107//103 106//105
f 102//107 101//100 103//104
f 101//100 18//17 103//104
f 69//74 66//73 94//99
f 95//95 70//72 96//101
f 53//56 52//35 54//37
f 52//35 37//54 47//49
f 56//92 89//57 58//59
f 59//61 43//43 56//92
f 42//44 44//48 56//92
f 68//79 95//95 79//80
f 12//23 27//28 31//34
f 28//29 18//17 26//27
f 79//80 97//96 105//82
s 2
f 45//60 37//54 52//35
f 45//60 52//35 37//54
