# Blender v2.76 (sub 0) OBJ File: 'spines-modeling-2.blend'
# www.blender.org
mtllib spine-23-lr.mtl
o spine-23-lr_Cube.043
v 0.197735 0.395639 -1.483003
v 0.350800 0.492655 -1.436628
v 0.253484 0.511865 -1.600157
v 0.321460 0.586487 -1.360335
v 0.324086 0.474626 -1.310104
v 0.155435 0.321121 -1.175181
v 0.260229 0.432089 -1.179363
v 0.215108 0.528690 -1.195032
v 0.227504 0.653644 -1.550759
v 0.147151 0.606553 -1.732599
v 0.145348 0.379646 -1.020352
v -0.024197 0.269809 -1.319832
v -0.088439 0.354774 -1.599408
v 0.132098 0.733667 -1.550436
v 0.034504 0.493004 -1.770581
v 0.118909 0.672530 -1.370691
v -0.116630 0.257039 -1.101923
v -0.040659 0.239699 -0.981427
v -0.050504 0.527417 -1.162601
v 0.051220 0.436851 -1.007026
v -0.220839 0.466395 -1.783631
v 0.036944 0.744214 -1.737701
v -0.075565 0.806618 -1.664639
v -0.009948 0.769202 -1.523313
v 0.020341 0.341326 -0.798788
v -0.084536 0.389580 -0.966014
v -0.127132 0.667140 -1.360342
v -0.224034 0.328382 -1.431385
v -0.200163 0.371373 -1.173230
v -0.007607 0.629783 -1.875872
v -0.331788 0.456752 -1.491811
v -0.166698 0.586137 -1.910043
v -0.116110 0.720187 -1.901833
v -0.157348 0.795265 -1.784991
v -0.201431 0.758897 -1.571265
v -0.274552 0.394074 -1.602539
v -0.107679 0.258016 -0.840897
v -0.295261 0.616026 -1.461678
v -0.006206 0.190507 -0.718950
v 0.055902 0.257177 -0.862339
v -0.132391 0.299485 -0.960333
v -0.200206 0.536600 -1.252333
v -0.346224 0.503386 -1.696457
v 0.002191 0.187830 -0.622810
v 0.010586 0.247396 -0.544847
v -0.243950 0.715557 -1.896422
v -0.090611 0.305118 -0.736337
v -0.332562 0.698925 -1.613493
v -0.017238 0.135274 -0.419627
v -0.070787 0.189671 -0.682738
v -0.003383 0.168053 -0.335658
v -0.029934 0.295278 -0.572875
v -0.316273 0.607236 -1.844012
v -0.369188 0.611884 -1.664996
v 0.034804 0.080002 -0.202024
v -0.076873 0.134490 -0.411371
v -0.309992 0.732115 -1.762639
v -0.070659 0.210683 -0.422488
v 0.042381 0.079792 -0.130068
v -0.017197 0.070221 -0.146030
v 0.014721 0.092195 -0.142832
v 0.024835 0.022318 -0.127258
v 0.043414 0.035780 -0.049694
v 0.045098 0.052698 -0.053262
v 0.064872 0.040780 -0.032718
v 0.042260 0.054164 -0.054971
v 0.040610 0.054718 -0.054358
v 0.040023 0.004477 -0.067491
v 0.041575 0.011561 -0.069494
v 0.045177 0.019021 -0.039681
v 0.038657 0.033016 -0.028938
v 0.033730 0.058393 -0.051160
v 0.029342 0.000790 -0.074466
v 0.033921 0.002124 -0.068830
v 0.046321 -0.016144 -0.051856
v 0.042917 0.029328 -0.030246
v 0.069528 0.028862 -0.032458
v 0.070089 0.025825 -0.034095
v 0.043547 0.032250 -0.026774
v 0.017490 0.062600 -0.041891
v 0.046995 0.060489 -0.003752
v 0.051431 0.058961 -0.004855
v -0.001878 -0.010965 -0.078194
v 0.008129 -0.007121 -0.082895
v 0.016721 -0.006872 -0.081560
v 0.021141 -0.009739 -0.077469
v -0.021193 0.052380 -0.073173
v -0.023433 0.048211 -0.074773
v -0.021502 0.055099 -0.062771
v 0.036343 -0.024147 -0.052785
v 0.034915 -0.030612 -0.050424
v 0.031535 -0.031315 -0.054035
v -0.012877 0.057818 -0.048796
v -0.011503 0.059841 0.003364
v -0.028643 0.049223 -0.030587
v -0.043329 0.042791 -0.034070
v -0.019818 0.005503 -0.084114
v 0.018810 -0.036910 -0.059905
v -0.023874 0.041854 -0.080474
v -0.025584 0.037796 -0.083327
v -0.039099 0.032475 -0.056372
v -0.038894 0.034621 -0.054574
v -0.024646 0.024805 -0.087483
v -0.024192 0.019669 -0.086725
v -0.052809 -0.017043 -0.063093
v -0.053934 -0.012845 -0.063768
v -0.053408 0.012514 -0.065978
v -0.053689 0.016848 -0.064558
v -0.148946 -0.030614 0.069924
v -0.116619 0.001047 0.154568
v -0.114721 -0.055203 0.146028
v -0.095155 0.015061 -0.034439
v -0.000073 0.032988 0.154246
v -0.083143 -0.099718 0.029334
v -0.106657 -0.038628 -0.036276
v -0.053208 -0.083670 -0.037944
v 0.026716 -0.077543 0.114851
v -0.049596 0.056797 0.081222
v -0.014543 -0.106685 -0.034834
v -0.063146 0.028486 -0.057089
v 0.039193 0.098539 0.104082
v 0.065768 -0.052662 -0.049218
v 0.088381 0.083464 0.105410
v 0.079116 0.036068 -0.029903
v 0.060393 -0.108606 0.005958
v 0.085000 0.077563 0.040949
v 0.126694 0.029342 -0.029936
v 0.130382 -0.077009 0.057219
v 0.145926 0.017494 0.050849
v 0.177590 -0.048961 -0.018633
v 0.186729 -0.018695 -0.056072
v 0.207786 0.010193 -0.038886
vn 0.465000 -0.829000 -0.310700
vn 0.946300 -0.257000 -0.196200
vn 0.913800 -0.286900 0.287600
vn 0.017900 -0.987900 -0.153800
vn -0.521900 -0.850800 -0.061500
vn -0.924600 -0.185600 0.332700
vn 0.760200 0.602000 0.244100
vn 0.571700 -0.819800 0.031400
vn 0.451300 0.660500 0.600100
vn 0.874000 -0.152600 0.461200
vn 0.745000 0.636700 -0.198800
vn 0.227600 0.866300 0.444500
vn 0.486000 0.872700 0.046200
vn 0.847700 0.112600 0.518400
vn 0.053700 -0.911000 -0.408800
vn -0.084900 -0.993400 -0.077100
vn -0.232900 0.767300 0.597500
vn 0.165500 0.831500 0.530300
vn 0.827000 -0.546300 0.132400
vn 0.293700 -0.948400 -0.118900
vn -0.239800 -0.764300 -0.598600
vn 0.383100 -0.643100 -0.663100
vn -0.526300 -0.810400 -0.257400
vn 0.526000 0.001600 -0.850400
vn 0.738500 0.121100 -0.663300
vn 0.525900 0.758500 -0.384700
vn 0.103400 0.951600 0.289300
vn -0.541900 0.742900 0.392900
vn -0.055800 -0.382500 -0.922200
vn 0.114500 0.993200 0.021000
vn -0.257300 0.799700 0.542400
vn -0.349200 0.878400 0.326300
vn -0.953900 -0.239400 0.180900
vn 0.213700 0.510200 -0.833100
vn -0.075600 0.964100 -0.254300
vn -0.940500 -0.275500 0.198500
vn -0.638100 0.469600 0.610100
vn -0.505400 -0.862300 -0.031100
vn 0.519600 0.742000 0.423400
vn 0.933900 0.305500 0.185600
vn 0.725700 -0.683400 -0.079900
vn -0.835700 -0.467000 -0.289000
vn -0.641300 -0.764500 -0.065800
vn -0.778000 -0.626800 -0.040900
vn -0.709200 0.612800 0.348600
vn -0.760500 -0.165000 -0.628000
vn -0.770100 0.434000 0.467500
vn -0.760000 0.598300 0.253700
vn -0.791300 0.565600 0.232200
vn -0.429100 0.458200 -0.778300
vn 0.675700 0.699300 0.233300
vn 0.586200 -0.786700 -0.193500
vn -0.994800 0.101400 -0.008400
vn 0.029800 0.939100 0.342400
vn -0.887300 -0.461100 0.006100
vn 0.855100 0.504800 0.118000
vn 0.960700 -0.164500 -0.223600
vn -0.992700 0.114500 -0.036200
vn 0.373500 -0.765600 -0.523700
vn 0.871500 -0.261100 -0.415100
vn 0.259900 -0.148800 -0.954100
vn 0.478900 0.775000 -0.412300
vn 0.823500 0.531000 -0.199800
vn 0.460300 0.128800 -0.878400
vn 0.935800 -0.221600 -0.274200
vn -0.717100 0.673000 -0.181100
vn 0.971000 -0.102500 -0.215900
vn 0.349400 0.901400 0.255700
vn 0.387900 0.918600 0.075100
vn 0.462400 0.878800 0.117600
vn 0.810000 -0.400400 -0.428400
vn 0.455900 -0.040600 -0.889100
vn 0.572400 -0.584900 -0.574600
vn -0.026400 0.488100 -0.872400
vn 0.719000 0.349100 -0.600900
vn -0.400100 -0.488200 -0.775600
vn 0.039800 0.994900 0.092400
vn 0.105700 0.966500 -0.234000
vn -0.672200 0.740300 -0.003600
vn -0.948300 0.311800 -0.058800
vn 0.412900 -0.310400 -0.856200
vn 0.574100 -0.038000 -0.817900
vn 0.433100 -0.613700 -0.660100
vn -0.341000 0.935600 0.091600
vn -0.222600 0.971900 -0.076400
vn -0.443800 -0.282500 -0.850400
vn -0.370400 0.895300 -0.247300
vn 0.079300 -0.836200 -0.542600
vn 0.059600 -0.809600 -0.583900
vn -0.536100 0.639900 -0.550500
vn -0.531400 0.732100 -0.426200
vn -0.893200 0.422000 -0.155000
vn -0.468500 -0.135700 -0.873000
vn -0.726900 -0.248400 -0.640200
vn -0.872200 -0.032900 -0.488100
vn -0.546300 0.338100 -0.766300
vn -0.909700 0.321300 -0.262900
vn -0.733100 -0.235700 -0.638000
vn -0.999800 0.006800 -0.019200
vn -0.713300 0.525800 -0.463400
vn -0.578200 0.385000 0.719300
vn -0.467400 -0.553700 0.689200
vn 0.086500 0.294600 0.951700
vn -0.442100 0.890700 0.105800
vn -0.442000 -0.896400 -0.031900
vn -0.348200 -0.591300 -0.727400
vn -0.063600 -0.790200 -0.609400
vn -0.601900 0.057900 -0.796400
vn -0.267400 -0.339400 -0.901800
vn 0.152000 -0.433700 -0.888100
vn 0.218300 -0.961700 -0.165700
vn 0.254600 -0.657400 0.709200
vn -0.135700 -0.660500 -0.738400
vn 0.797300 0.327500 0.507000
vn 0.607600 0.583600 0.538600
vn -0.456200 0.597900 -0.659100
vn 0.182000 -0.328300 -0.926900
vn 0.726200 -0.532000 -0.435400
vn -0.100100 0.963100 0.249900
vn 0.320600 0.914300 -0.247200
vn 0.608800 -0.593400 0.526400
vn 0.089200 0.364000 -0.927100
vn 0.205800 0.742900 -0.637000
vn -0.053600 -0.259000 -0.964400
vn 0.446400 -0.220900 -0.867100
vn 0.725800 -0.685800 -0.054200
vn 0.870800 0.416000 -0.262000
vn 0.774300 -0.260800 -0.576500
vn -0.139300 0.938900 0.314800
vn -0.923600 0.347800 -0.161000
vn 0.410300 0.037800 -0.911100
vn 0.270600 0.892000 -0.361900
usemtl sample
s 1
f 1//1 2//2 5//3
f 12//4 17//5 29//6
f 5//3 2//2 4//7
f 5//3 6//8 1//1
f 8//9 7//10 5//3
f 7//10 6//8 5//3
f 5//3 4//7 8//9
f 9//11 16//12 4//7
f 9//11 14//13 16//12
f 8//9 11//14 7//10
f 12//4 13//15 1//1
f 18//16 17//5 12//4
f 16//12 19//17 8//9
f 19//17 20//18 8//9
f 18//16 40//19 39//20
f 11//14 40//19 6//8
f 40//19 18//16 6//8
f 13//15 21//21 15//22
f 13//15 36//23 21//21
f 30//24 10//25 15//22
f 22//26 24//27 14//13
f 19//17 26//28 20//18
f 21//21 32//29 15//22
f 23//30 24//27 22//26
f 27//31 24//27 35//32
f 18//16 41//33 17//5
f 30//24 15//22 32//29
f 33//34 34//35 22//26
f 22//26 34//35 23//30
f 31//36 29//6 42//37
f 30//24 32//29 33//34
f 23//30 34//35 35//32
f 29//6 41//33 26//28
f 28//38 31//36 36//23
f 19//17 27//31 42//37
f 25//39 45//40 44//41
f 36//23 31//36 43//42
f 29//6 19//17 42//37
f 50//43 56//44 58//45
f 21//21 53//46 32//29
f 21//21 36//23 43//42
f 38//47 35//32 48//48
f 25//39 26//28 47//49
f 26//28 41//33 47//49
f 42//37 27//31 38//47
f 32//29 53//46 46//50
f 45//40 51//51 49//52
f 39//20 44//41 50//43
f 54//53 38//47 48//48
f 43//42 31//36 54//53
f 52//54 25//39 47//49
f 37//55 50//43 47//49
f 49//52 56//44 50//43
f 51//51 59//56 55//57
f 53//46 43//42 54//53
f 51//51 58//45 60//58
f 58//45 52//54 47//49
f 49//52 62//59 60//58
f 71//60 79//61 76//62
f 64//63 65//64 63//65
f 48//48 57//66 54//53
f 62//59 63//65 69//67
f 64//63 59//56 66//68
f 72//69 67//70 59//56
f 68//71 75//72 74//73
f 76//62 77//74 70//75
f 97//76 60//58 62//59
f 72//69 80//77 81//78
f 89//79 60//58 87//80
f 90//81 92//82 86//83
f 93//84 94//85 80//77
f 89//79 95//86 96//87
f 84//88 62//59 85//89
f 101//90 102//91 88//92
f 97//76 106//93 104//94
f 103//95 108//96 100//97
f 115//98 109//99 112//100
f 110//101 111//102 113//103
f 110//101 118//104 109//99
f 109//99 115//98 114//105
f 114//105 116//106 119//107
f 107//108 106//93 112//100
f 105//109 98//110 116//106
f 114//105 125//111 117//112
f 114//105 119//107 125//111
f 107//108 112//100 108//96
f 115//98 106//93 105//109
f 98//110 83//113 86//83
f 101//90 100//97 108//96
f 95//86 89//79 102//91
f 113//103 129//114 123//115
f 101//90 120//116 102//91
f 122//117 125//111 119//107
f 94//85 93//84 96//87
f 90//81 73//118 74//73
f 118//104 121//119 126//120
f 81//78 94//85 126//120
f 128//121 129//114 117//112
f 122//117 75//72 78//122
f 77//74 127//123 78//122
f 64//63 67//70 72//69
f 124//124 77//74 79//61
f 65//64 79//61 63//65
f 126//120 121//119 123//115
f 122//117 127//123 131//125
f 130//126 122//117 131//125
f 126//120 129//114 127//123
f 129//114 130//126 132//127
f 127//123 132//127 131//125
f 130//126 131//125 132//127
f 3//128 2//2 1//1
f 3//128 10//25 9//11
f 4//7 16//12 8//9
f 1//1 15//22 3//128
f 6//8 12//4 1//1
f 6//8 7//10 11//14
f 1//1 13//15 15//22
f 12//4 6//8 18//16
f 3//128 15//22 10//25
f 9//11 10//25 22//26
f 9//11 22//26 14//13
f 14//13 24//27 16//12
f 12//4 28//38 13//15
f 11//14 8//9 20//18
f 16//12 24//27 27//31
f 13//15 28//38 36//23
f 19//17 16//12 27//31
f 11//14 25//39 40//19
f 29//6 17//5 41//33
f 11//14 20//18 25//39
f 10//25 30//24 22//26
f 33//34 22//26 30//24
f 28//38 29//6 31//36
f 38//47 27//31 35//32
f 41//33 18//16 37//55
f 24//27 23//30 35//32
f 2//2 3//128 9//11
f 26//28 19//17 29//6
f 18//16 50//43 37//55
f 25//39 20//18 26//28
f 46//50 33//34 32//29
f 34//35 33//34 46//50
f 34//35 57//66 35//32
f 41//33 37//55 47//49
f 40//19 44//41 39//20
f 53//46 21//21 43//42
f 34//35 46//50 57//66
f 48//48 35//32 57//66
f 45//40 49//52 44//41
f 45//40 25//39 52//54
f 54//53 31//36 38//47
f 45//40 52//54 51//51
f 55//57 49//52 51//51
f 44//41 49//52 50//43
f 57//66 46//50 53//46
f 58//45 51//51 52//54
f 62//59 49//52 55//57
f 60//58 61//129 51//51
f 66//68 59//56 67//70
f 53//46 54//53 57//66
f 68//71 62//59 69//67
f 58//45 56//44 60//58
f 74//73 73//118 62//59
f 62//59 68//71 74//73
f 84//88 83//113 62//59
f 86//83 85//89 62//59
f 88//92 87//80 60//58
f 99//130 60//58 100//97
f 104//94 103//95 60//58
f 110//101 109//99 111//102
f 109//99 114//105 111//102
f 115//98 116//106 114//105
f 112//100 109//99 118//104
f 111//102 114//105 117//112
f 118//104 110//101 113//103
f 113//103 111//102 117//112
f 118//104 113//103 121//119
f 119//107 116//106 122//117
f 92//82 91//131 122//117
f 113//103 117//112 129//114
f 90//81 122//117 91//131
f 121//119 113//103 123//115
f 125//111 128//121 117//112
f 82//132 81//78 126//120
f 130//126 125//111 122//117
f 126//120 123//115 129//114
f 130//126 128//121 125//111
f 128//121 130//126 129//114
f 129//114 132//127 127//123
f 28//38 12//4 29//6
f 50//43 18//16 39//20
f 38//47 31//36 42//37
f 40//19 25//39 44//41
f 47//49 50//43 58//45
f 56//44 49//52 60//58
f 63//65 71//60 76//62
f 63//65 55//57 59//56
f 59//56 64//63 63//65
f 70//75 69//67 63//65
f 62//59 55//57 63//65
f 59//56 51//51 61//129
f 61//129 72//69 59//56
f 78//122 70//75 77//74
f 63//65 76//62 70//75
f 83//113 97//76 62//59
f 72//69 61//129 80//77
f 81//78 82//132 72//69
f 86//83 62//59 73//118
f 73//118 90//81 86//83
f 91//131 92//82 90//81
f 80//77 61//129 93//84
f 60//58 93//84 61//129
f 93//84 60//58 89//79
f 96//87 93//84 89//79
f 88//92 60//58 99//130
f 99//130 101//90 88//92
f 104//94 60//58 97//76
f 97//76 105//109 106//93
f 100//97 60//58 103//95
f 103//95 107//108 108//96
f 115//98 112//100 106//93
f 107//108 103//95 104//94
f 104//94 106//93 107//108
f 116//106 115//98 105//109
f 105//109 97//76 83//113
f 98//110 122//117 116//106
f 105//109 83//113 98//110
f 92//82 122//117 98//110
f 85//89 86//83 84//88
f 83//113 84//88 86//83
f 92//82 98//110 86//83
f 120//116 101//90 108//96
f 108//96 112//100 120//116
f 99//130 100//97 101//90
f 120//116 112//100 96//87
f 96//87 95//86 102//91
f 89//79 87//80 88//92
f 102//91 120//116 96//87
f 89//79 88//92 102//91
f 96//87 112//100 118//104
f 118//104 94//85 96//87
f 74//73 75//72 90//81
f 122//117 90//81 75//72
f 118//104 126//120 94//85
f 81//78 80//77 94//85
f 70//75 78//122 75//72
f 127//123 122//117 78//122
f 75//72 68//71 70//75
f 69//67 70//75 68//71
f 72//69 82//132 64//63
f 126//120 127//123 82//132
f 65//64 64//63 82//132
f 66//68 67//70 64//63
f 82//132 127//123 65//64
f 76//62 79//61 77//74
f 124//124 127//123 77//74
f 65//64 127//123 124//124
f 71//60 63//65 79//61
f 124//124 79//61 65//64
f 4//7 2//2 9//11
