# Blender v2.76 (sub 0) OBJ File: 'spines-modeling-2.blend'
# www.blender.org
mtllib spine-9-lr.mtl
o spine-9-lr_Cube.038
v 0.055678 0.546783 -1.516189
v 0.146098 0.489885 -1.415696
v 0.167659 0.340535 -1.448096
v 0.186616 0.367544 -1.286186
v -0.033440 0.527445 -1.473066
v 0.145191 0.442523 -1.254397
v 0.079118 0.462396 -1.615548
v 0.074949 0.526288 -1.349514
v 0.182111 0.219940 -1.223701
v 0.072394 0.287728 -1.671199
v -0.034861 0.387877 -1.804814
v -0.014014 0.443218 -1.277346
v 0.083386 0.428024 -1.200221
v -0.087990 0.240692 -1.902739
v -0.029933 0.077896 -1.751778
v 0.140816 0.284776 -1.098885
v 0.113199 0.088806 -1.366376
v 0.054516 0.336183 -1.113060
v -0.094458 0.472532 -1.698085
v -0.199259 0.385768 -1.495461
v -0.036525 -0.058155 -1.553456
v 0.080575 0.253068 -1.024876
v -0.021869 0.247666 -1.086569
v -0.158759 0.026178 -1.909967
v -0.157316 0.108936 -1.957714
v 0.030172 -0.067715 -1.310819
v -0.025176 -0.084666 -1.187035
v 0.095466 0.170152 -0.918417
v -0.191571 -0.049628 -1.803425
v 0.079951 -0.029415 -1.023165
v -0.319544 0.249981 -1.479417
v -0.125898 -0.104786 -1.429967
v -0.064777 0.075978 -1.019020
v -0.181626 -0.112706 -1.627421
v -0.199371 0.341817 -1.933579
v -0.403688 0.287700 -1.943360
v -0.183523 0.212789 -1.255875
v -0.155149 -0.063365 -1.298620
v 0.140470 0.090367 -0.934801
v 0.005296 -0.031478 -0.965535
v -0.262645 0.195883 -2.019867
v -0.302445 0.369875 -1.847145
v -0.382436 0.153891 -1.543363
v 0.092354 0.079717 -0.698401
v -0.298893 -0.095179 -1.730662
v -0.341917 0.285058 -1.999090
v -0.306296 -0.011919 -1.487009
v 0.033281 0.113577 -0.847606
v 0.111080 -0.000499 -0.722589
v 0.062164 -0.027959 -0.821897
v -0.090652 -0.030415 -1.144057
v -0.276594 -0.098667 -1.587847
v -0.410499 0.247795 -1.766425
v -0.232002 0.076891 -1.302842
v -0.298440 0.047882 -1.972522
v -0.400888 0.180616 -1.985262
v 0.096843 0.013020 -0.512321
v 0.044593 0.025842 -0.666727
v -0.435625 0.091776 -1.682565
v 0.134511 0.003985 -0.611035
v 0.126147 0.033602 -0.619919
v -0.355701 -0.038737 -1.859244
v -0.434251 0.068497 -1.873188
v -0.393075 -0.031180 -1.711558
v 0.070355 0.045372 -0.388366
v 0.029881 0.057374 -0.083239
v 0.036618 0.053553 -0.070199
v 0.011888 0.049624 -0.066690
v 0.013533 0.035559 -0.227394
v 0.030990 0.047237 -0.027194
v 0.029310 0.038266 -0.030934
v 0.030795 0.032252 -0.060970
v 0.040192 0.024245 -0.185738
v 0.024586 0.064708 -0.007022
v 0.050555 0.067276 0.008201
v 0.054144 0.065099 0.005219
v 0.037523 0.056377 -0.015252
v -0.000126 0.033949 -0.098836
v 0.003542 0.053058 -0.015978
v 0.001476 0.054409 -0.008159
v -0.012181 0.054005 0.004529
v 0.007999 0.061833 0.002024
v 0.035893 0.041335 -0.024782
v -0.102651 -0.062032 0.008875
v -0.113635 -0.046180 0.065678
v -0.071940 -0.030377 0.127199
v -0.072099 -0.013786 -0.002760
v -0.054382 -0.092311 0.031364
v -0.086744 -0.076788 0.103943
v 0.010613 0.025987 0.133569
v -0.048211 -0.062025 -0.020681
v -0.040122 0.036231 -0.010097
v -0.043062 0.037526 0.067726
v 0.017748 -0.083683 -0.027733
v 0.043959 -0.008320 -0.031511
v 0.029012 0.079776 0.058834
v 0.034692 0.025515 -0.035266
v 0.059118 -0.101403 0.003790
v 0.058075 0.073631 0.082675
v 0.081517 0.037407 0.112797
v 0.115392 -0.062288 -0.036390
v 0.085730 0.060119 0.016422
v 0.157157 0.008494 -0.027392
v 0.145336 0.028659 0.038378
v 0.192181 -0.039060 -0.035625
v 0.048834 -0.053626 0.088540
v 0.141917 -0.080601 0.001250
v 0.182759 -0.036360 0.007299
v 0.208253 0.000766 -0.024617
vn 0.962700 -0.035700 -0.268100
vn 0.704400 0.488200 -0.515200
vn 0.818100 0.569800 -0.077000
vn 0.886200 -0.084400 -0.455500
vn 0.268100 0.939100 -0.214800
vn 0.099500 0.937200 0.334200
vn -0.447200 0.884700 0.131700
vn -0.149200 0.944600 -0.292200
vn 0.566200 0.515600 -0.643000
vn 0.977800 0.184400 0.098700
vn 0.988400 -0.148800 0.029500
vn 0.651700 0.636600 0.412400
vn 0.729500 0.477100 0.490100
vn 0.891900 -0.404200 -0.202800
vn 0.030600 0.754300 0.655800
vn -0.532900 0.682800 0.499700
vn -0.150400 0.688600 0.709400
vn -0.657300 0.702100 0.273600
vn -0.603900 0.552000 0.575000
vn 0.610600 -0.785600 -0.099600
vn 0.627600 -0.738300 -0.247100
vn 0.698000 0.064900 -0.713100
vn 0.207000 0.662800 -0.719600
vn 0.796700 -0.423500 -0.431100
vn 0.563600 -0.255500 -0.785500
vn 0.992600 -0.033700 0.116600
vn 0.371300 0.768600 0.520900
vn -0.028900 -0.982500 0.183800
vn -0.063900 -0.994900 0.078200
vn -0.787900 0.448600 0.421900
vn -0.760500 0.382200 0.524900
vn 0.622900 -0.781500 0.033300
vn -0.049100 0.765300 0.641800
vn -0.447300 0.881400 -0.151500
vn -0.888700 0.013300 0.458200
vn 0.353400 -0.832700 -0.426300
vn -0.891700 0.439900 0.106100
vn -0.846100 -0.144800 0.513000
vn -0.596400 -0.726600 0.341000
vn -0.463700 -0.856800 0.225600
vn -0.590800 0.710100 0.382900
vn 0.178400 -0.973000 -0.146200
vn 0.163900 0.014900 -0.986300
vn 0.063000 0.956100 0.286100
vn 0.893200 0.442500 0.079900
vn 0.496500 -0.630700 -0.596400
vn -0.111800 -0.570900 -0.813300
vn -0.441500 -0.870700 0.216600
vn 0.533700 -0.839300 0.103500
vn -0.803800 0.510100 -0.306000
vn -0.722800 -0.084500 -0.685800
vn -0.685300 -0.605200 0.405100
vn -0.752600 -0.501900 0.426300
vn -0.933600 -0.257600 0.248900
vn -0.244500 0.519100 -0.819000
vn -0.909100 0.086100 0.407500
vn -0.906300 -0.274700 -0.321100
vn -0.975000 -0.080100 0.207100
vn -0.393400 -0.798000 -0.456500
vn -0.789600 -0.605800 0.097200
vn 0.535200 -0.822300 0.193200
vn 0.813500 -0.567000 0.128900
vn 0.517300 0.849900 0.100300
vn -0.987800 -0.036800 -0.151000
vn 0.929200 0.368600 0.027600
vn 0.611700 -0.791000 0.011200
vn 0.439400 -0.896600 0.054200
vn 0.126400 0.947300 -0.294400
vn 0.283200 0.795800 -0.535200
vn 0.647900 0.637700 -0.416600
vn -0.386500 0.902400 -0.190500
vn -0.321000 0.901400 -0.290600
vn -0.069300 0.983300 -0.168000
vn 0.716800 0.105000 -0.689300
vn -0.819900 -0.336000 -0.463500
vn -0.995800 -0.006100 0.091000
vn -0.659000 0.392800 -0.641300
vn -0.340800 -0.331600 -0.879700
vn -0.431600 0.085600 0.898000
vn -0.616200 0.757500 0.215600
vn -0.127000 -0.584200 -0.801600
vn -0.228800 -0.971900 -0.054900
vn -0.450600 -0.699800 0.554300
vn 0.322300 -0.617800 0.717200
vn -0.070500 0.316500 0.945900
vn 0.171100 0.907700 0.383000
vn -0.175400 0.971300 0.160300
vn -0.013900 0.130300 -0.991400
vn -0.672000 0.510700 -0.536300
vn 0.117100 -0.992200 -0.043300
vn 0.616400 -0.144200 -0.774100
vn -0.302800 0.918300 -0.255000
vn 0.102600 -0.423700 -0.900000
vn -0.483800 0.862700 -0.146700
vn -0.933600 -0.344500 -0.098500
vn -0.439000 0.881000 -0.176500
vn 0.907800 0.192800 -0.372400
vn 0.352600 0.853300 -0.384000
vn 0.536900 0.221000 0.814100
vn 0.722000 0.529300 0.445500
vn 0.126900 0.622500 -0.772200
vn 0.644100 -0.406800 -0.647700
vn 0.741800 -0.358900 0.566400
vn 0.445700 -0.890200 0.093800
vn 0.869800 0.399200 -0.289800
vn -0.056600 -0.985700 0.158800
vn -0.231700 -0.954800 -0.186200
vn 0.344100 -0.734000 -0.585500
vn -0.000100 0.998900 -0.046700
usemtl sample
s 1
f 3//1 7//2 2//3
f 10//4 7//2 3//1
f 1//5 8//6 2//3
f 5//7 8//6 1//5
f 19//8 7//2 11//9
f 3//1 4//10 9//11
f 5//7 1//5 19//8
f 4//10 6//12 16//13
f 9//11 17//14 3//1
f 9//11 4//10 16//13
f 13//15 12//16 18//17
f 19//8 20//18 5//7
f 5//7 20//18 12//16
f 13//15 16//13 6//12
f 12//16 20//18 23//19
f 16//13 13//15 18//17
f 17//14 26//20 21//21
f 14//22 35//23 11//9
f 18//17 12//16 23//19
f 15//24 25//25 14//22
f 39//26 16//13 28//27
f 27//28 32//29 26//20
f 31//30 37//31 20//18
f 30//32 27//28 26//20
f 22//33 28//27 16//13
f 42//34 19//8 35//23
f 22//33 23//19 28//27
f 23//19 37//31 33//35
f 29//36 15//24 21//21
f 20//18 53//37 31//30
f 31//30 54//38 37//31
f 32//29 27//28 38//39
f 27//28 30//32 40//40
f 23//19 48//41 28//27
f 32//29 34//42 21//21
f 14//22 25//25 41//43
f 35//23 14//22 41//43
f 44//44 61//45 39//26
f 24//46 55//47 25//25
f 34//42 32//29 52//48
f 41//43 25//25 55//47
f 39//26 61//45 49//49
f 36//50 56//51 53//37
f 38//39 51//52 54//38
f 32//29 47//53 52//48
f 32//29 38//39 47//53
f 33//35 51//52 40//40
f 48//41 33//35 58//54
f 36//50 46//55 56//51
f 24//46 29//36 55//47
f 47//53 54//38 43//56
f 53//37 63//57 59//58
f 55//47 62//59 63//57
f 47//53 64//60 52//48
f 61//45 57//61 60//62
f 65//63 58//54 69//64
f 64//60 63//57 62//59
f 67//65 72//66 73//67
f 75//68 76//69 77//70
f 69//64 57//61 73//67
f 79//71 80//72 74//73
f 67//65 77//70 83//74
f 84//75 85//76 87//77
f 84//75 87//77 91//78
f 86//79 93//80 85//76
f 94//81 88//82 91//78
f 86//79 89//83 106//84
f 85//76 84//75 88//82
f 106//84 90//85 86//79
f 93//80 99//86 96//87
f 91//78 87//77 95//88
f 93//80 92//89 87//77
f 88//82 98//90 106//84
f 88//82 94//81 98//90
f 92//89 72//66 97//91
f 96//87 75//68 82//92
f 101//93 98//90 94//81
f 68//94 69//64 78//95
f 81//96 80//72 79//71
f 71//97 97//91 72//66
f 97//91 71//97 83//74
f 102//98 83//74 76//69
f 100//99 99//86 90//85
f 99//86 104//100 102//98
f 101//93 103//101 105//102
f 105//102 108//103 107//104
f 104//100 108//103 109//105
f 108//103 105//102 109//105
f 3//1 17//14 10//4
f 8//6 13//15 6//12
f 17//14 15//24 10//4
f 8//6 12//16 13//15
f 1//5 7//2 19//8
f 11//9 10//4 14//22
f 17//14 9//11 39//26
f 9//11 16//13 39//26
f 14//22 10//4 15//24
f 15//24 17//14 21//21
f 39//26 30//32 17//14
f 20//18 37//31 23//19
f 19//8 11//9 35//23
f 26//20 32//29 21//21
f 17//14 30//32 26//20
f 22//33 18//17 23//19
f 15//24 24//46 25//25
f 24//46 15//24 29//36
f 54//38 31//30 43//56
f 42//34 53//37 20//18
f 29//36 21//21 34//42
f 36//50 53//37 42//34
f 38//39 27//28 51//52
f 40//40 51//52 27//28
f 23//19 33//35 48//41
f 28//27 48//41 44//44
f 40//40 30//32 50//106
f 33//35 37//31 54//38
f 45//107 29//36 34//42
f 35//23 41//43 46//55
f 30//32 49//49 50//106
f 33//35 54//38 51//52
f 56//51 41//43 55//47
f 42//34 35//23 46//55
f 58//54 44//44 48//41
f 40//40 50//106 58//54
f 62//59 29//36 45//107
f 42//34 46//55 36//50
f 49//49 61//45 60//62
f 49//49 58//54 50//106
f 53//37 56//51 63//57
f 43//56 53//37 59//58
f 47//53 59//58 64//60
f 49//49 60//62 57//61
f 65//63 61//45 44//44
f 44//44 58//54 65//63
f 45//107 52//48 64//60
f 64//60 59//58 63//57
f 61//45 65//63 57//61
f 45//107 64//60 62//59
f 70//108 67//65 83//74
f 84//75 91//78 88//82
f 87//77 85//76 93//80
f 89//83 85//76 88//82
f 93//80 86//79 90//85
f 89//83 88//82 106//84
f 93//80 90//85 99//86
f 94//81 91//78 95//88
f 92//89 93//80 81//96
f 94//81 95//88 101//93
f 90//85 106//84 100//99
f 106//84 98//90 107//104
f 75//68 102//98 76//69
f 107//104 98//90 101//93
f 99//86 102//98 96//87
f 101//93 95//88 103//101
f 105//102 107//104 101//93
f 106//84 104//100 100//99
f 95//88 102//98 103//101
f 99//86 100//99 104//100
f 106//84 108//103 104//100
f 109//105 105//102 103//101
f 104//100 109//105 103//101
f 2//3 7//2 1//5
f 2//3 6//12 4//10
f 6//12 2//3 8//6
f 4//10 3//1 2//3
f 7//2 10//4 11//9
f 8//6 5//7 12//16
f 42//34 20//18 19//8
f 22//33 16//13 18//17
f 49//49 30//32 39//26
f 31//30 53//37 43//56
f 28//27 44//44 39//26
f 45//107 34//42 52//48
f 46//55 41//43 56//51
f 47//53 38//39 54//38
f 58//54 33//35 40//40
f 59//58 47//53 43//56
f 49//49 57//61 58//54
f 29//36 62//59 55//47
f 56//51 55//47 63//57
f 67//65 65//63 66//109
f 85//76 89//83 86//79
f 102//98 104//100 103//101
f 108//103 106//84 107//104
f 69//64 68//94 66//109
f 66//109 65//63 69//64
f 57//61 65//63 73//67
f 67//65 70//108 72//66
f 71//97 72//66 70//108
f 73//67 65//63 67//65
f 77//70 67//65 74//73
f 74//73 75//68 77//70
f 67//65 66//109 74//73
f 69//64 58//54 57//61
f 73//67 78//95 69//64
f 82//92 74//73 80//72
f 66//109 68//94 74//73
f 80//72 81//96 82//92
f 68//94 79//71 74//73
f 95//88 87//77 92//89
f 92//89 78//95 72//66
f 97//91 95//88 92//89
f 78//95 73//67 72//66
f 81//96 93//80 96//87
f 96//87 102//98 75//68
f 75//68 74//73 82//92
f 82//92 81//96 96//87
f 92//89 81//96 79//71
f 79//71 68//94 92//89
f 78//95 92//89 68//94
f 70//108 83//74 71//97
f 95//88 97//91 83//74
f 77//70 76//69 83//74
f 102//98 95//88 83//74
