# Blender v2.76 (sub 0) OBJ File: 'spines-modeling-2.blend'
# www.blender.org
mtllib spine-20-lr.mtl
o spine-20-lr_Cube.058
v -0.052163 0.142487 -1.738222
v -0.080936 0.227263 -1.787043
v -0.087313 0.316178 -1.688885
v -0.027896 0.299183 -1.896113
v 0.011769 0.404065 -1.906908
v -0.088540 0.343712 -1.840388
v 0.009711 0.197106 -1.805269
v 0.026347 0.139552 -1.694250
v 0.052451 0.544469 -1.818068
v 0.067864 0.489887 -1.881429
v -0.045703 0.455372 -1.757767
v 0.002141 0.547470 -1.727976
v 0.128714 0.608096 -1.678758
v -0.070825 0.188903 -1.677462
v -0.013825 0.150507 -1.635144
v 0.023475 0.261790 -1.476330
v 0.033136 0.487135 -1.224281
v 0.092281 0.189555 -1.557838
v 0.136083 0.209632 -1.666592
v 0.235783 0.281793 -1.435875
v 0.265446 0.294304 -1.625789
v -0.037211 0.401100 -1.479712
v -0.008012 0.529530 -1.548559
v 0.079667 0.613039 -1.358533
v 0.197112 0.472966 -1.857773
v 0.136192 0.326251 -1.838311
v 0.158362 0.555235 -1.854156
v 0.245527 0.572194 -1.804585
v 0.298649 0.590270 -1.689240
v 0.337982 0.514754 -1.705528
v 0.315871 0.398675 -1.681747
v 0.376346 0.545621 -1.536828
v 0.061668 0.370194 -1.218390
v 0.165274 0.323821 -1.225776
v 0.093471 0.430230 -1.079813
v 0.301207 0.383226 -1.223382
v 0.371039 0.420436 -1.470966
v 0.194862 0.407697 -1.069442
v 0.132773 0.501121 -0.964051
v 0.305159 0.456272 -1.088904
v 0.341703 0.336959 -1.525786
v 0.362352 0.580769 -1.395476
v 0.367767 0.498852 -1.269131
v 0.159442 0.660245 -1.440492
v 0.270813 0.632965 -1.465721
v 0.176081 0.625063 -1.092124
v 0.296332 0.590263 -1.175924
v 0.113838 0.588694 -1.031120
v 0.126155 0.581769 -0.898666
v 0.147832 0.617386 -0.989640
v 0.149691 0.614023 -0.971211
v 0.144903 0.612367 -0.962168
v 0.142770 0.555653 -0.806250
v 0.228103 0.489688 -0.947270
v 0.166501 0.530912 -0.842637
v 0.155436 0.598928 -0.904131
v 0.144600 0.577195 -0.845316
v 0.141628 0.578477 -0.835542
v 0.155999 0.562154 -0.813613
v 0.166485 0.560292 -0.766126
v 0.196432 0.572370 -0.877351
v 0.277216 0.531624 -0.998101
v -0.212249 0.133683 0.165052
v -0.185437 0.072139 0.174934
v -0.125374 -0.001119 0.171736
v -0.014805 -0.161628 0.183480
v -0.122857 -0.085408 0.188009
v -0.078609 -0.141075 0.181841
v -0.103393 -0.114991 0.189246
v -0.139256 -0.044010 0.200950
v -0.090264 -0.115985 0.179660
v -0.022021 -0.121499 0.163165
v -0.114186 -0.063112 0.179899
v -0.097891 -0.092453 0.186490
v -0.092243 -0.076986 0.188927
v -0.068220 -0.068072 0.169305
v -0.076073 -0.119790 0.192431
v -0.152167 -0.036000 0.193634
v -0.126924 0.018742 0.205812
v -0.144544 -0.038194 0.190844
v -0.081757 -0.073879 0.203302
v 0.037491 -0.161516 0.172888
v 0.090502 -0.168126 0.191632
v 0.154294 -0.169025 0.191466
v 0.165138 -0.150285 0.201677
v 0.099792 -0.008321 0.145948
v 0.037292 -0.126326 0.161015
v 0.021220 -0.141352 0.190966
v 0.065153 -0.131156 0.164062
v 0.131566 -0.139432 0.176065
v 0.150731 -0.154484 0.196475
v 0.106276 -0.068210 0.215157
v 0.199205 -0.124595 0.197505
v 0.257729 -0.094117 0.195071
v 0.277119 -0.074081 0.203244
v 0.260155 -0.046142 0.212613
v 0.259950 -0.080323 0.198894
v 0.267589 -0.063720 0.200488
v 0.278714 -0.008396 0.195565
v 0.233872 -0.070241 0.184111
v 0.267281 0.041642 0.216035
v 0.280754 -0.062463 0.196489
v 0.290489 -0.012205 0.215432
v 0.303287 -0.016061 0.206590
v -0.325994 0.547235 0.051490
v -0.343986 0.508038 0.080301
v -0.341485 0.546531 0.077810
v -0.202970 0.576310 -0.038878
v -0.284064 0.496102 0.024276
v -0.344148 0.525676 0.074988
v -0.267270 0.610710 0.060441
v -0.207802 0.644889 0.039207
v 0.100267 0.538670 -0.553536
v 0.076713 0.545510 -0.463214
v -0.038355 0.500401 -0.243806
v -0.018117 0.453754 -0.217241
v -0.048640 0.526292 -0.223402
v -0.110993 0.506609 -0.146551
v -0.168107 0.660848 0.059387
v -0.077049 0.626545 -0.016237
v -0.055732 0.548983 -0.164331
v -0.055496 0.524765 -0.208636
v 0.028219 0.528004 -0.316477
v 0.050145 0.526889 -0.430680
v 0.049455 0.496171 -0.396276
v 0.115502 0.486884 -0.422699
v 0.124298 0.541751 -0.422710
v 0.102023 0.437954 -0.198725
v -0.006337 0.533961 -0.218337
v 0.135720 0.519529 -0.129338
v -0.259909 0.246606 0.137475
v -0.293756 0.324645 0.110176
v -0.311408 0.394254 0.103247
v -0.261090 0.355665 0.153988
v -0.307650 0.301676 0.154664
v -0.319130 0.323799 0.138311
v -0.321000 0.335935 0.136425
v -0.246904 0.183971 0.172601
v -0.240514 0.237307 0.180082
v -0.201032 0.152301 0.193211
v -0.219326 0.178359 0.149689
v -0.244460 0.194958 0.170770
v -0.103795 0.161626 0.113674
v -0.288614 0.513245 0.105997
v -0.166086 0.631485 0.095091
v -0.134116 0.370265 -0.001034
v -0.214457 0.653730 0.070460
v -0.214507 0.654687 0.070732
v -0.037077 0.667724 0.083301
v 0.081224 0.644227 0.072713
v -0.019712 0.645662 0.119965
v 0.048260 0.648310 0.127575
v 0.020311 0.666636 0.110662
v 0.020260 0.667616 0.110942
v 0.051202 0.667146 0.109591
v 0.081996 0.659584 0.119509
v 0.081937 0.660715 0.119831
v 0.110835 0.627517 0.126945
v 0.214458 0.291470 0.049564
v 0.325751 0.381091 0.101912
v 0.194839 0.582384 0.071091
v 0.188275 0.560722 0.138581
v 0.011671 0.224646 0.208120
v -0.008878 0.519994 0.156903
v 0.236520 0.451973 0.130022
v 0.327711 0.112396 0.172557
v 0.339280 0.250787 0.188127
v 0.385346 0.238122 0.153911
v 0.383238 0.296659 0.145857
v 0.145582 0.535351 -0.641663
v 0.135940 0.547663 -0.624421
v 0.157882 0.551200 -0.688979
v 0.178229 0.550648 -0.706565
v 0.197208 0.539895 -0.827559
v 0.168359 0.551576 -0.782565
v 0.178125 0.548762 -0.750959
v 0.185526 0.554299 -0.774065
v 0.133694 0.546480 -0.614254
v 0.121815 0.552491 -0.564831
v 0.154210 0.541002 -0.586022
v 0.154277 0.508698 -0.387617
vn -0.828800 -0.409100 -0.381700
vn -0.243800 -0.339000 -0.908600
vn 0.165000 -0.729500 -0.663700
vn -0.983900 0.053000 0.170800
vn -0.898500 0.155800 -0.410400
vn -0.667600 0.727100 -0.160000
vn -0.201800 0.965100 -0.167100
vn -0.486800 0.733400 -0.474400
vn -0.887600 -0.366200 0.279200
vn -0.339400 -0.847500 0.408100
vn -0.550200 -0.677100 0.488600
vn 0.571300 -0.791900 -0.215600
vn 0.291900 -0.947800 -0.128000
vn -0.971600 -0.022900 0.235500
vn -0.958100 0.135500 0.252300
vn -0.819500 0.571200 0.046700
vn 0.423000 -0.878000 0.224200
vn 0.637000 -0.729000 -0.250300
vn 0.209700 -0.904900 0.370200
vn -0.869700 0.456800 -0.187000
vn 0.478000 0.637300 -0.604500
vn 0.520000 0.808600 -0.275200
vn 0.892800 0.087800 -0.441900
vn -0.253700 0.442900 -0.859900
vn 0.080600 0.652700 -0.753300
vn 0.519700 -0.077400 -0.850800
vn 0.818000 -0.381000 -0.431000
vn 0.811000 -0.584400 0.026600
vn 0.366200 0.927900 -0.070200
vn 0.924300 0.359200 -0.128800
vn 0.797500 0.600700 0.055800
vn -0.691200 -0.591100 0.415600
vn -0.674400 -0.555000 0.487000
vn 0.080700 -0.864500 0.496100
vn 0.782400 -0.475900 0.401700
vn 0.402100 -0.767200 0.499700
vn -0.714800 -0.570000 0.405100
vn 0.659800 -0.698100 0.277900
vn 0.977400 -0.001000 0.211500
vn 0.895300 0.167300 0.412800
vn 0.946300 -0.321100 0.036300
vn -0.852300 0.502700 0.144500
vn -0.895700 0.402500 0.189000
vn -0.373100 0.917600 0.136800
vn 0.520300 -0.475200 -0.709600
vn -0.665400 0.741400 0.087100
vn -0.003500 0.991700 0.128100
vn -0.566000 0.824100 0.022600
vn 0.254200 0.964000 -0.076800
vn 0.788600 0.471200 0.395000
vn -0.198700 0.979600 0.028700
vn -0.166900 0.967000 0.192500
vn -0.182000 -0.910800 0.370500
vn -0.772800 -0.443100 0.454400
vn 0.768600 -0.493800 0.406700
vn 0.573000 0.760900 0.304400
vn 0.025000 0.964300 0.263500
vn 0.156100 0.724400 0.671400
vn 0.647700 0.736700 0.194200
vn -0.240800 -0.106300 -0.964700
vn -0.144100 -0.232400 -0.961900
vn -0.664200 -0.019600 -0.747200
vn -0.522900 -0.847900 -0.087400
vn -0.149800 -0.238800 0.959400
vn -0.474700 -0.143300 0.868400
vn -0.757200 -0.646400 -0.093700
vn -0.191300 -0.376700 -0.906300
vn 0.123200 -0.066000 -0.990200
vn -0.273900 -0.247300 -0.929400
vn -0.257000 -0.958500 0.123000
vn -0.549700 -0.739900 0.387700
vn -0.225500 -0.248000 0.942100
vn -0.729600 0.045500 -0.682400
vn -0.484300 -0.133600 0.864700
vn -0.423300 -0.147300 0.893900
vn -0.856600 -0.495900 -0.142600
vn -0.979500 -0.103600 0.172800
vn -0.011400 -0.643400 -0.765400
vn 0.213400 -0.350200 -0.912000
vn 0.065400 -0.960800 0.269500
vn 0.563400 -0.648800 0.511500
vn 0.135800 -0.157000 0.978200
vn -0.157700 -0.936900 0.312100
vn 0.560300 -0.825200 -0.071100
vn 0.272200 -0.164300 -0.948100
vn 0.724400 -0.570000 0.387700
vn 0.074700 -0.221200 -0.972400
vn 0.079900 -0.414700 -0.906400
vn 0.028800 -0.296500 -0.954600
vn -0.012300 -0.249900 0.968200
vn 0.578100 -0.797400 0.172900
vn 0.403700 -0.644200 0.649600
vn 0.731100 -0.676600 -0.087400
vn -0.020100 -0.112000 0.993500
vn -0.584000 -0.183700 -0.790700
vn 0.220400 0.030800 0.974900
vn 0.045200 -0.004400 0.999000
vn 0.966200 -0.252600 0.051800
vn 0.386000 -0.279500 -0.879100
vn 0.898200 -0.414700 -0.145800
vn 0.610600 -0.319000 -0.724800
vn -0.621800 -0.256100 -0.740000
vn -0.990900 -0.129400 -0.035900
vn -0.980800 -0.052600 0.187700
vn -0.731900 0.268200 -0.626400
vn -0.517900 0.503000 -0.691900
vn -0.643400 0.749500 0.155900
vn -0.351100 0.795300 -0.494300
vn -0.868200 0.385400 0.312500
vn -0.936100 0.190300 -0.295700
vn -0.903000 0.181600 -0.389300
vn -0.697000 -0.632700 -0.337500
vn -0.350400 -0.900800 -0.256500
vn -0.421200 -0.799700 -0.427900
vn -0.358900 -0.594300 -0.719700
vn -0.722300 -0.039000 -0.690500
vn -0.001100 0.876200 -0.481900
vn -0.216500 0.864400 -0.453700
vn -0.679700 0.641400 -0.355800
vn 0.056500 -0.532700 -0.844400
vn -0.423400 0.884500 -0.195800
vn 0.994000 -0.097600 -0.050000
vn 0.346900 0.932600 0.099500
vn 0.741300 0.558500 -0.372100
vn 0.486100 -0.815800 -0.313400
vn -0.405700 0.910700 -0.077700
vn -0.004100 0.992000 -0.126300
vn -0.811500 -0.179000 -0.556300
vn -0.781400 -0.272700 0.561200
vn -0.285500 0.253600 0.924200
vn -0.393600 0.519100 -0.758600
vn -0.971800 -0.203400 -0.118900
vn -0.583400 -0.360100 -0.728000
vn -0.711400 -0.564000 -0.419300
vn -0.970800 -0.124800 0.204700
vn -0.496200 -0.003700 0.868200
vn -0.491100 -0.363600 -0.791600
vn -0.809000 -0.507600 -0.296200
vn -0.017300 0.125700 0.991900
vn -0.012600 0.435000 0.900300
vn 0.447600 0.813200 0.372000
vn 0.112600 0.982400 0.148800
vn -0.041400 0.201900 0.978500
vn -0.323000 0.253600 0.911700
vn -0.188200 0.515400 0.836000
vn 0.339200 -0.424000 -0.839700
vn -0.200400 -0.377100 -0.904200
vn -0.192700 0.530400 0.825600
vn -0.047600 0.996800 0.063900
vn -0.087000 0.995200 0.044500
vn 0.358300 0.870400 -0.337600
vn -0.388600 0.241100 0.889300
vn -0.046200 0.879600 0.473400
vn 0.052400 0.982300 0.179500
vn 0.976700 -0.209200 -0.047700
vn 0.361300 0.174300 0.916000
vn 0.785500 0.607500 -0.118000
vn 0.588300 0.498600 0.636600
vn 0.412200 0.642800 0.645600
vn 0.908000 0.390000 -0.153400
vn 0.918700 0.394100 0.027100
vn 0.552700 0.386100 0.738500
vn -0.431700 0.822800 0.369500
vn -0.051100 0.201600 0.978100
vn 0.958900 0.164600 0.231000
vn 0.677700 0.683300 0.271700
vn 0.429700 -0.901300 -0.055200
vn -0.760600 0.628200 -0.163400
vn -0.261700 0.959900 0.100300
vn 0.371300 -0.925900 -0.069400
vn 0.965600 0.259600 -0.010700
vn 0.491200 0.663000 -0.564900
vn 0.193800 -0.957900 -0.211500
vn -0.130700 0.987700 -0.085800
vn -0.239600 0.222100 -0.945100
vn -0.471700 -0.838900 -0.271400
vn 0.013600 -0.916900 0.398800
vn -0.155700 0.986300 -0.054900
vn 0.205600 -0.423100 0.882400
vn 0.574700 0.027400 0.817900
vn 0.280300 -0.956800 -0.076800
usemtl sample
s 1
f 2//1 4//2 7//3
f 2//1 3//4 6//5
f 2//1 6//5 4//2
f 12//6 13//7 9//8
f 14//9 15//10 16//11
f 7//3 19//12 8//13
f 22//14 17//15 23//16
f 20//17 19//12 21//18
f 8//13 18//19 15//10
f 18//19 19//12 20//17
f 11//20 22//14 23//16
f 3//4 22//14 11//20
f 3//4 16//11 22//14
f 28//21 29//22 30//23
f 10//24 27//25 25//26
f 13//7 28//21 27//25
f 27//25 28//21 25//26
f 21//18 31//27 41//28
f 29//22 13//7 45//29
f 29//22 32//30 30//23
f 25//26 28//21 30//23
f 45//29 42//31 32//30
f 45//29 32//30 29//22
f 31//27 25//26 30//23
f 13//7 29//22 28//21
f 16//11 33//32 22//14
f 17//15 33//32 35//33
f 18//19 20//17 16//11
f 21//18 41//28 20//17
f 38//34 40//35 54//36
f 35//33 38//34 39//37
f 36//38 40//35 38//34
f 43//39 40//35 36//38
f 62//40 40//35 43//39
f 37//41 43//39 36//38
f 33//32 38//34 35//33
f 41//28 37//41 20//17
f 41//28 31//27 37//41
f 37//41 32//30 43//39
f 30//23 37//41 31//27
f 48//42 49//43 52//44
f 19//12 7//3 26//45
f 17//15 24//46 23//16
f 17//15 48//42 24//46
f 46//47 24//46 48//42
f 17//15 39//37 48//42
f 58//48 60//49 59//50
f 46//47 52//44 51//51
f 51//51 52//44 50//52
f 48//42 51//51 50//52
f 55//53 53//54 39//37
f 55//53 54//36 174//55
f 39//37 53//54 49//43
f 61//56 56//57 57//58
f 61//56 46//47 56//57
f 56//57 58//48 57//58
f 49//43 57//58 58//48
f 53//54 58//48 57//58
f 48//42 39//37 49//43
f 56//57 52//44 49//43
f 55//53 59//50 53//54
f 60//49 58//48 53//54
f 62//40 174//55 54//36
f 53//54 57//58 49//43
f 40//35 62//40 54//36
f 62//40 47//59 61//56
f 76//60 72//61 71//62
f 47//59 42//31 45//29
f 68//63 71//62 72//61
f 81//64 70//65 67//66
f 75//67 74//68 73//69
f 68//63 72//61 66//70
f 74//68 71//62 67//66
f 68//63 69//71 71//62
f 67//66 71//62 69//71
f 69//71 71//62 74//68
f 74//68 71//62 77//72
f 73//69 67//66 80//73
f 70//65 81//64 79//74
f 79//74 140//75 64//76
f 67//66 78//77 80//73
f 82//78 90//79 83//80
f 95//81 96//82 98//83
f 90//79 84//84 83//80
f 100//85 98//83 97//86
f 72//61 76//60 86//87
f 87//88 89//89 88//90
f 86//87 87//88 72//61
f 100//85 93//91 90//79
f 90//79 93//91 91//92
f 100//85 94//93 93//91
f 93//91 94//93 97//86
f 93//91 96//82 92//94
f 65//95 86//87 76//60
f 97//86 94//93 100//85
f 101//96 92//94 96//82
f 101//96 103//97 104//98
f 88//90 92//94 81//64
f 86//87 99//99 100//85
f 104//98 166//100 101//96
f 99//99 102//101 100//85
f 97//86 98//83 102//101
f 95//81 102//101 104//98
f 82//78 88//90 89//89
f 100//85 102//101 98//83
f 86//87 166//100 99//99
f 96//82 103//97 99//99
f 104//98 103//97 96//82
f 72//61 87//88 82//78
f 91//92 84//84 90//79
f 83//80 84//84 91//92
f 109//102 133//103 106//104
f 81//64 92//94 79//74
f 109//102 105//105 108//106
f 111//107 112//108 108//106
f 108//106 105//105 111//107
f 105//105 106//104 107//109
f 124//110 113//111 125//112
f 107//109 111//107 105//105
f 113//111 170//113 125//112
f 116//114 146//115 118//116
f 146//115 109//102 118//116
f 108//106 112//108 120//117
f 118//116 108//106 121//118
f 118//116 117//119 122//120
f 125//112 123//121 124//110
f 181//122 127//123 130//124
f 130//124 127//123 123//121
f 130//124 128//125 181//122
f 124//110 123//121 114//126
f 121//118 130//124 129//127
f 117//119 122//120 129//127
f 115//128 116//114 118//116
f 118//116 122//120 115//128
f 135//129 134//130 137//131
f 136//132 137//131 132//133
f 133//103 136//132 134//130
f 131//134 138//135 139//136
f 139//136 134//130 135//129
f 132//133 137//131 133//103
f 132//133 146//115 131//134
f 133//103 146//115 132//133
f 141//137 63//138 138//135
f 140//75 163//139 139//136
f 152//140 157//141 155//142
f 139//136 163//139 134//130
f 134//130 164//143 144//144
f 144//144 145//145 111//107
f 79//74 163//139 140//75
f 146//115 159//146 143//147
f 151//148 149//149 145//145
f 145//145 149//149 119//150
f 164//143 151//148 145//145
f 151//148 164//143 152//140
f 149//149 150//151 120//117
f 156//152 157//141 152//140
f 153//153 154//154 155//142
f 155//142 157//141 156//152
f 153//153 154//154 151//148
f 152//140 153//153 151//148
f 149//149 154//154 153//153
f 155//142 150//151 149//149
f 151//148 154//154 149//149
f 166//100 168//155 167//156
f 128//125 159//146 146//115
f 161//157 165//158 130//124
f 158//159 161//157 150//151
f 160//160 169//161 159//146
f 130//124 160//160 159//146
f 101//96 167//156 163//139
f 159//146 168//155 166//100
f 169//161 168//155 159//146
f 165//158 162//162 164//143
f 130//124 165//158 160//160
f 161//157 162//162 165//158
f 164//143 162//162 158//159
f 156//152 157//141 150//151
f 163//139 165//158 164//143
f 160//160 165//158 167//156
f 119//150 149//149 120//117
f 116//114 128//125 146//115
f 112//108 148//163 147//164
f 147//164 148//163 111//107
f 108//106 118//116 109//102
f 131//134 146//115 143//147
f 60//49 173//165 177//166
f 111//107 148//163 112//108
f 177//166 61//56 175//167
f 170//113 171//168 172//169
f 176//170 177//166 173//165
f 173//165 180//171 170//113
f 113//111 178//172 170//113
f 180//171 181//122 126//173
f 180//171 172//169 171//168
f 178//172 179//174 180//171
f 113//111 171//168 178//172
f 170//113 175//167 176//170
f 61//56 177//166 174//55
f 170//113 176//170 173//165
f 174//55 177//166 176//170
f 173//165 60//49 172//169
f 174//55 176//170 175//167
f 179//174 127//123 180//171
f 127//123 181//122 180//171
f 53//54 170//113 172//169
f 55//53 174//55 175//167
f 60//49 175//167 59//50
f 53//54 59//50 175//167
f 125//112 170//113 126//173
f 54//36 39//37 38//34
f 2//1 14//9 3//4
f 4//2 5//175 26//45
f 1//176 2//1 7//3
f 4//2 26//45 7//3
f 6//5 11//20 5//175
f 3//4 11//20 6//5
f 3//4 14//9 16//11
f 24//46 13//7 23//16
f 1//176 14//9 2//1
f 23//16 13//7 12//6
f 18//19 16//11 15//10
f 5//175 25//26 26//45
f 9//8 13//7 27//25
f 19//12 26//45 21//18
f 26//45 31//27 21//18
f 25//26 31//27 26//45
f 5//175 10//24 25//26
f 22//14 33//32 17//15
f 33//32 16//11 34//177
f 34//177 20//17 36//38
f 33//32 34//177 38//34
f 34//177 36//38 38//34
f 20//17 37//41 36//38
f 42//31 43//39 32//30
f 30//23 32//30 37//41
f 13//7 44//178 45//29
f 46//47 44//178 24//46
f 47//59 45//29 46//47
f 52//44 46//47 50//52
f 48//42 50//52 46//47
f 39//37 54//36 55//53
f 58//48 56//57 49//43
f 52//44 56//57 51//51
f 51//51 56//57 46//47
f 61//56 47//59 46//47
f 35//33 39//37 17//15
f 47//59 62//40 43//39
f 47//59 43//39 42//31
f 46//47 45//29 44//178
f 64//76 63//138 143//147
f 64//76 143//147 65//95
f 74//68 75//67 76//60
f 75//67 73//69 76//60
f 74//68 77//72 75//67
f 74//68 75//67 81//64
f 69//71 81//64 67//66
f 69//71 77//72 71//62
f 78//77 80//73 79//74
f 80//73 70//65 79//74
f 78//77 70//65 80//73
f 78//77 67//66 70//65
f 75//67 77//72 81//64
f 65//95 79//74 64//76
f 4//2 6//5 5//175
f 84//84 93//91 85//179
f 86//87 89//89 87//88
f 90//79 86//87 100//85
f 83//80 92//94 88//90
f 97//86 98//83 96//82
f 91//92 85//179 92//94
f 94//93 95//81 97//86
f 88//90 81//64 77//72
f 99//99 103//97 101//96
f 99//99 166//100 104//98
f 94//93 102//101 95//81
f 94//93 97//86 102//101
f 99//99 101//96 96//82
f 65//95 143//147 86//87
f 88//90 77//72 66//70
f 105//105 109//102 110//180
f 146//115 133//103 109//102
f 106//104 105//105 110//180
f 106//104 110//180 107//109
f 113//111 124//110 114//126
f 125//112 116//114 115//128
f 117//119 118//116 121//118
f 120//117 112//108 119//150
f 121//118 108//106 120//117
f 117//119 121//118 122//120
f 128//125 126//173 181//122
f 125//112 126//173 116//114
f 129//127 130//124 123//121
f 130//124 121//118 120//117
f 123//121 127//123 114//126
f 122//120 121//118 129//127
f 117//119 115//128 122//120
f 136//132 131//134 135//129
f 138//135 63//138 140//75
f 142//181 131//134 141//137
f 63//138 64//76 140//75
f 142//181 140//75 139//136
f 63//138 141//137 143//147
f 135//129 131//134 139//136
f 131//134 143//147 141//137
f 138//135 142//181 139//136
f 144//144 133//103 134//130
f 148//163 145//145 119//150
f 152//140 158//159 156//152
f 153//153 155//142 149//149
f 130//124 120//117 150//151
f 158//159 162//162 161//157
f 150//151 161//157 130//124
f 101//96 166//100 167//156
f 163//139 167//156 165//158
f 169//161 160//160 167//156
f 86//87 143//147 159//146
f 156//152 150//151 155//142
f 157//141 158//159 150//151
f 106//104 133//103 144//144
f 107//109 144//144 111//107
f 107//109 110//180 144//144
f 147//164 119//150 112//108
f 79//74 92//94 163//139
f 111//107 145//145 147//164
f 145//145 144//144 164//143
f 163//139 164//143 134//130
f 171//168 113//111 179//174
f 175//167 60//49 176//170
f 171//168 179//174 178//172
f 172//169 60//49 53//54
f 163//139 92//94 101//96
f 8//13 1//176 7//3
f 10//24 5//175 11//20
f 23//16 12//6 11//20
f 10//24 11//20 9//8
f 9//8 11//20 12//6
f 1//176 15//10 14//9
f 18//19 8//13 19//12
f 16//11 20//17 34//177
f 24//46 44//178 13//7
f 68//63 66//70 77//72
f 69//71 68//63 77//72
f 87//88 88//90 82//78
f 84//84 91//92 93//91
f 84//84 85//179 91//92
f 115//128 123//121 125//112
f 116//114 126//173 128//125
f 123//121 115//128 117//119
f 136//132 133//103 137//131
f 138//135 140//75 142//181
f 147//164 148//163 119//150
f 148//163 147//164 145//145
f 154//154 153//153 152//140
f 86//87 159//146 166//100
f 168//155 169//161 167//156
f 152//140 164//143 158//159
f 171//168 170//113 178//172
f 180//171 173//165 172//169
f 175//167 61//56 59//50
f 1//176 8//13 15//10
f 27//25 10//24 9//8
f 51//51 48//42 52//44
f 57//58 58//48 59//50
f 59//50 61//56 57//58
f 62//40 61//56 174//55
f 74//68 76//60 71//62
f 73//69 74//68 67//66
f 81//64 69//71 74//68
f 65//95 73//69 80//73
f 79//74 65//95 78//77
f 78//77 65//95 80//73
f 66//70 82//78 83//80
f 97//86 95//81 98//83
f 96//82 93//91 97//86
f 85//179 93//91 92//94
f 89//89 86//87 90//79
f 73//69 65//95 76//60
f 102//101 99//99 104//98
f 96//82 95//81 104//98
f 90//79 82//78 89//89
f 66//70 83//80 88//90
f 92//94 83//80 91//92
f 82//78 66//70 72//61
f 110//180 109//102 106//104
f 179//174 114//126 127//123
f 123//121 117//119 129//127
f 136//132 137//131 134//130
f 136//132 135//129 137//131
f 131//134 136//132 132//133
f 138//135 131//134 142//181
f 142//181 141//137 138//135
f 154//154 152//140 155//142
f 157//141 156//152 158//159
f 128//125 130//124 159//146
f 106//104 144//144 110//180
f 176//170 60//49 177//166
f 176//170 177//166 175//167
f 170//113 180//171 126//173
f 178//172 180//171 171//168
f 59//50 55//53 175//167
f 170//113 53//54 175//167
f 114//126 179//174 113//111
