# Blender v2.76 (sub 0) OBJ File: 'spines-modeling-2.blend'
# www.blender.org
mtllib spine-17-lr.mtl
o spine-17-lr_Cube.031
v -0.203751 -0.187095 -0.736093
v -0.284461 -0.007482 -0.730168
v -0.397022 -0.177409 -1.007644
v -0.065091 -0.069686 -0.418443
v -0.472533 -0.023059 -1.052357
v -0.242483 -0.309850 -1.053474
v -0.089698 0.064386 -0.493591
v -0.565229 -0.141496 -1.342346
v -0.482413 -0.278531 -1.371117
v -0.025905 0.019893 -0.255350
v -0.445927 0.130312 -1.075587
v 0.047037 -0.081196 -0.395978
v 0.012891 -0.233434 -0.726787
v -0.040368 -0.044807 -0.145758
v -0.048349 -0.029922 -0.076049
v -0.037601 -0.024708 -0.066382
v -0.033962 -0.010706 -0.078936
v -0.030879 0.001997 -0.119326
v -0.582040 -0.223922 -1.626362
v 0.161191 -0.137820 -0.639728
v -0.005102 -0.050429 -0.149377
v 0.021922 -0.047400 -0.143603
v -0.012200 -0.371198 -1.224562
v -0.343019 -0.378939 -1.570866
v 0.007660 -0.048823 -0.060466
v 0.002024 -0.047785 -0.050423
v -0.033067 -0.043773 -0.050798
v -0.044169 -0.042245 -0.052291
v -0.047055 -0.041740 -0.063592
v -0.028069 0.030260 -0.108661
v -0.038303 0.005284 -0.081378
v -0.037898 0.024897 -0.072806
v 0.032560 0.061252 -0.376504
v -0.369292 0.260100 -1.169390
v -0.600860 0.002395 -1.461465
v 0.111354 -0.010860 -0.464368
v 0.049538 -0.009435 -0.250610
v 0.051637 -0.017824 -0.067400
v 0.045397 -0.027433 -0.049740
v 0.030772 -0.037962 -0.063935
v -0.054835 -0.422192 -1.683969
v 0.217056 -0.251880 -1.001224
v -0.235692 0.188091 -0.803041
v 0.021689 0.028351 -0.102776
v -0.018005 0.033620 -0.058600
v -0.013581 0.033737 -0.051076
v 0.006879 0.033045 -0.043183
v 0.025235 0.037201 -0.035575
v 0.040198 0.033612 -0.129953
v -0.136635 0.302883 -1.029711
v -0.451627 -0.298335 -1.845983
v 0.064857 -0.029360 -0.051609
v -0.247174 -0.409036 -1.833964
v 0.293611 -0.035623 -0.873715
v 0.057243 0.012899 -0.049925
v 0.059921 0.003231 -0.042749
v 0.059230 -0.005620 -0.045303
v 0.020468 0.196591 -0.671502
v -0.281452 0.300976 -1.416697
v -0.498956 0.185354 -1.492137
v -0.492306 -0.128366 -1.877003
v -0.610198 -0.122581 -1.745397
v -0.581482 0.029769 -1.704328
v 0.153198 0.094016 -0.593004
v 0.202303 -0.354576 -1.514953
v 0.019390 0.315343 -1.348898
v -0.261708 -0.358239 -1.934347
v 0.234424 0.174276 -0.852685
v -0.088090 -0.369701 -1.905814
v 0.370333 -0.214439 -1.390138
v 0.444825 -0.023743 -1.449311
v 0.099670 0.290819 -0.992294
v -0.372861 0.231304 -1.619958
v -0.246116 -0.240391 -1.961537
v 0.370457 0.124152 -1.150473
v 0.336970 -0.255867 -1.708274
v 0.436892 -0.165900 -1.618609
v -0.142728 0.222417 -1.639672
v -0.325587 -0.098933 -1.936695
v 0.140705 -0.339070 -1.819517
v 0.419108 0.061832 -1.640159
v 0.410422 -0.093351 -1.723414
v 0.264417 0.254906 -1.256619
v -0.396714 0.071651 -1.784026
v 0.235467 0.182293 -1.595845
v 0.031444 -0.244389 -1.936432
v 0.403704 0.151304 -1.453479
v -0.030757 -0.028197 -1.868196
v 0.238248 -0.167367 -1.855561
v 0.298497 0.003904 -1.776418
v -0.121801 0.013594 0.046000
v -0.145970 -0.059018 0.071188
v -0.169608 -0.058165 0.152339
v -0.137092 -0.032127 0.174885
v -0.126670 -0.049343 -0.013320
v -0.104978 0.009537 0.135703
v -0.079681 -0.082040 -0.011774
v -0.139113 -0.070441 0.161159
v -0.072551 0.035936 -0.007431
v -0.113399 -0.009736 -0.034513
v -0.083076 -0.043251 -0.047693
v 0.025726 0.046380 0.163327
v -0.049919 -0.124261 0.044445
v -0.061591 -0.093607 0.176296
v -0.104267 -0.108818 0.116440
v -0.059584 -0.023424 0.196533
v 0.009963 -0.002935 0.215435
v -0.080423 -0.017155 -0.071602
v -0.020004 -0.122610 0.143637
v -0.060671 0.008679 -0.066621
v -0.047375 -0.013187 -0.072031
v 0.052050 -0.066969 0.174015
v 0.002185 0.097849 0.119919
v 0.016430 -0.128422 -0.035585
v 0.022429 -0.088997 -0.050536
v 0.025891 0.059985 0.007168
v -0.047661 0.064082 0.083846
v 0.015703 -0.060740 -0.047455
v 0.044884 0.113883 0.113173
v 0.044182 -0.040252 -0.050264
v -0.003196 0.038270 -0.040862
v 0.036025 0.108876 0.070615
v 0.073431 -0.126429 0.104739
v 0.055217 -0.136617 0.001080
v 0.073381 -0.044060 -0.051384
v 0.088757 -0.124803 -0.038936
v 0.119774 0.088470 0.100413
v 0.073588 -0.002937 -0.043126
v 0.061168 0.131664 0.076862
v 0.160447 -0.082219 0.093354
v 0.104906 0.114760 0.063968
v 0.134815 -0.070119 -0.049859
v 0.111108 0.082218 0.021380
v 0.113922 0.016243 -0.032467
v 0.127919 -0.119995 0.005629
v 0.165723 0.081502 0.045155
v 0.200496 -0.084824 -0.024254
v 0.150701 -0.112790 0.063492
v 0.216040 0.052636 -0.012240
v 0.224606 -0.045070 -0.062394
v 0.206169 0.015487 -0.051710
v 0.240532 -0.046815 -0.006532
v 0.170238 0.054355 -0.022031
v 0.252016 -0.051515 -0.047365
v 0.265939 -0.006273 -0.049714
v 0.198714 0.013419 0.041594
v 0.256066 0.001383 -0.072519
v 0.251755 0.028205 -0.050247
vn -0.531900 -0.701300 0.474700
vn -0.836300 0.017800 0.547900
vn -0.732300 -0.531300 0.425900
vn -0.689600 -0.587000 0.424100
vn -0.904800 -0.024700 0.425100
vn -0.315400 -0.902300 0.293800
vn -0.647500 0.576900 0.497800
vn -0.918700 -0.288000 0.270100
vn 0.076500 -0.928900 0.362400
vn -0.628000 -0.747400 0.216900
vn -0.737600 0.665200 0.116100
vn -0.824700 0.440700 0.354500
vn -0.972000 0.200400 0.122700
vn 0.425600 -0.841000 0.334100
vn -0.341500 -0.937600 0.065600
vn -0.038000 -0.996500 0.074200
vn -0.319700 0.101400 -0.942000
vn -0.868900 0.160100 -0.468300
vn -0.823200 -0.089900 -0.560600
vn -0.538200 0.705200 0.461500
vn -0.835200 -0.550000 -0.001800
vn 0.688700 -0.603100 0.402400
vn 0.521000 0.852500 0.043100
vn 0.325400 0.885300 0.332000
vn 0.085300 -0.979600 0.182000
vn -0.133200 -0.884100 -0.447900
vn -0.292400 -0.930200 -0.221700
vn -0.032200 -0.975000 -0.219600
vn -0.978500 0.187700 -0.085900
vn -0.835800 -0.005300 -0.549000
vn -0.603400 0.787400 -0.126300
vn -0.532900 0.826400 0.181700
vn -0.927500 -0.083000 -0.364500
vn 0.898300 -0.010800 0.439300
vn 0.994800 -0.043100 0.092300
vn 0.883100 -0.380100 -0.275200
vn 0.476900 -0.878300 0.035100
vn 0.103500 -0.993400 -0.048000
vn 0.586200 -0.763700 0.270400
vn -0.131700 0.981000 -0.142600
vn 0.057200 0.998000 0.028400
vn -0.571400 0.748900 0.335600
vn -0.954900 -0.243500 -0.170000
vn -0.947100 -0.205100 0.246900
vn 0.070000 0.910500 0.407600
vn -0.143300 0.969600 0.198200
vn -0.696100 0.713100 -0.082600
vn -0.600500 -0.617800 -0.507600
vn 0.932100 -0.131200 0.337600
vn -0.191000 -0.957000 -0.218300
vn 0.814700 0.492900 -0.305600
vn 0.623600 0.214300 -0.751800
vn -0.202000 0.971300 -0.125900
vn -0.568200 0.104100 -0.816200
vn -0.754400 0.527100 -0.391200
vn 0.738500 0.521900 0.426900
vn 0.421400 -0.906000 0.038600
vn 0.791500 -0.586100 0.172900
vn 0.122500 0.981400 -0.147600
vn -0.213600 -0.585000 -0.782300
vn 0.710400 0.608700 0.353300
vn 0.172900 -0.721900 -0.670000
vn 0.994700 -0.022600 0.100700
vn 0.248800 0.947900 0.199100
vn -0.334800 0.825800 -0.453800
vn -0.259100 0.676700 -0.689200
vn -0.091200 -0.036000 -0.995200
vn 0.897500 0.372800 0.235300
vn 0.434000 -0.756300 -0.489500
vn 0.660600 -0.662400 -0.353300
vn 0.922900 -0.364700 -0.123500
vn 0.060500 0.834900 -0.547100
vn 0.485600 0.874000 0.014600
vn -0.152200 0.352600 -0.923300
vn 0.823200 -0.010000 -0.567600
vn 0.272200 0.842400 -0.465000
vn 0.272600 -0.101700 -0.956700
vn 0.764600 0.637900 -0.092000
vn 0.784300 0.470800 -0.403900
vn 0.124800 0.528200 -0.839900
vn 0.478000 -0.061300 -0.876200
vn 0.375900 0.495400 -0.783100
vn -0.803200 0.593800 -0.048200
vn -0.214000 -0.755200 -0.619500
vn -0.341500 -0.930200 -0.134400
vn -0.445100 -0.719700 -0.532700
vn -0.824800 -0.348600 -0.445000
vn -0.792600 0.298100 -0.531900
vn -0.391300 -0.601900 -0.696000
vn -0.489500 -0.868000 0.083300
vn -0.143500 -0.605500 0.782800
vn -0.459900 -0.664700 0.588800
vn -0.241600 0.199700 0.949600
vn 0.138400 0.538600 0.831100
vn 0.183400 0.215400 0.959100
vn -0.498400 -0.037500 -0.866100
vn -0.172600 -0.145600 -0.974200
vn 0.098200 -0.299700 -0.949000
vn 0.237800 -0.725400 -0.645900
vn -0.059400 -0.960300 -0.272400
vn -0.133400 -0.310200 -0.941300
vn -0.497600 0.863100 0.086200
vn -0.099800 0.845800 -0.524100
vn -0.425200 0.856200 -0.293300
vn 0.054800 0.886600 -0.459300
vn 0.744700 0.197400 0.637500
vn 0.564500 0.450100 0.691900
vn 0.003800 -0.898700 0.438400
vn 0.224400 -0.894000 0.387800
vn 0.047900 -0.997500 -0.052300
vn 0.583700 -0.760500 -0.284300
vn 0.754100 0.384600 -0.532400
vn -0.499800 0.738600 0.452300
vn -0.049800 0.847400 0.528600
vn -0.399800 0.825300 -0.398700
vn 0.060100 0.069400 -0.995800
vn 0.263600 0.891300 -0.368800
vn 0.285000 0.943400 -0.169300
vn -0.083600 0.970600 -0.225500
vn 0.230600 -0.166100 -0.958700
vn 0.346200 -0.518000 -0.782200
vn 0.250800 0.006000 -0.968000
vn 0.337500 -0.920000 -0.198800
vn 0.159600 0.352900 -0.921900
vn 0.674100 -0.322200 0.664600
vn 0.436400 -0.304400 0.846700
vn 0.401300 -0.240500 -0.883800
vn 0.008100 0.777000 -0.629400
vn -0.095500 0.434600 -0.895500
vn 0.415600 -0.867200 -0.274200
vn 0.817600 -0.356900 0.451800
vn 0.611700 0.778500 0.140500
vn -0.172000 0.428300 -0.887100
vn 0.088800 -0.356900 -0.929900
vn 0.737600 -0.577300 -0.350000
vn 0.581700 0.810900 -0.063400
vn -0.022200 0.747300 -0.664100
vn 0.451700 0.112700 -0.885000
vn 0.999100 -0.029900 -0.027600
vn 0.571900 0.780200 -0.253500
vn -0.533800 0.335900 0.776000
vn -0.468600 0.539400 -0.699600
vn -0.235900 -0.778400 -0.581700
vn 0.514400 -0.817800 0.257800
vn -0.821700 -0.569700 0.014100
vn -0.668400 0.735100 -0.113500
vn 0.059800 0.904500 -0.422300
vn -0.468900 -0.308100 -0.827800
usemtl sample
s 1
f 1//1 2//2 3//3
f 4//4 2//2 1//1
f 2//2 5//5 3//3
f 3//3 6//6 1//1
f 2//2 4//4 7//7
f 8//8 3//3 5//5
f 4//4 1//1 13//9
f 3//3 9//10 6//6
f 6//6 13//9 1//1
f 4//4 10//11 7//7
f 2//2 11//12 5//5
f 8//8 5//5 35//13
f 9//10 3//3 8//8
f 13//9 12//14 4//4
f 6//6 9//10 24//15
f 21//16 4//4 12//14
f 111//17 17//18 15//19
f 11//12 2//2 43//20
f 35//13 19//21 8//8
f 11//12 35//13 5//5
f 19//21 9//10 8//8
f 20//22 12//14 13//9
f 49//23 33//24 10//11
f 6//6 24//15 23//25
f 13//9 6//6 23//25
f 43//20 2//2 7//7
f 27//26 29//27 25//28
f 18//29 31//30 30//31
f 33//24 7//7 10//11
f 34//32 11//12 43//20
f 19//21 35//13 62//33
f 19//21 24//15 9//10
f 20//22 36//34 12//14
f 37//35 38//36 22//37
f 23//25 24//15 41//38
f 20//22 13//9 42//39
f 30//31 45//40 44//41
f 96//42 92//43 93//44
f 58//45 7//7 33//24
f 34//32 43//20 50//46
f 34//32 60//47 11//12
f 62//33 51//48 19//21
f 11//12 60//47 35//13
f 19//21 51//48 24//15
f 36//34 20//22 54//49
f 12//14 36//34 37//35
f 53//50 41//38 24//15
f 13//9 23//25 42//39
f 20//22 42//39 54//49
f 58//45 43//20 7//7
f 55//51 57//52 38//36
f 34//32 50//46 59//53
f 51//48 62//33 61//54
f 60//47 63//55 35//13
f 24//15 51//48 53//50
f 54//49 64//56 36//34
f 33//24 37//35 36//34
f 65//57 42//39 23//25
f 70//58 54//49 42//39
f 50//46 43//20 58//45
f 64//56 58//45 33//24
f 60//47 34//32 59//53
f 50//46 66//59 59//53
f 63//55 62//33 35//13
f 67//60 53//50 51//48
f 68//61 64//56 54//49
f 33//24 36//34 64//56
f 23//25 41//38 65//57
f 69//62 41//38 53//50
f 70//58 42//39 65//57
f 54//49 70//58 71//63
f 68//61 58//45 64//56
f 50//46 58//45 72//64
f 59//53 73//65 60//47
f 66//59 50//46 72//64
f 60//47 84//66 63//55
f 51//48 61//54 74//67
f 61//54 62//33 63//55
f 51//48 74//67 67//60
f 53//50 67//60 69//62
f 75//68 68//61 54//49
f 41//38 80//69 65//57
f 69//62 80//69 41//38
f 76//70 70//58 65//57
f 71//63 70//58 77//71
f 68//61 72//64 58//45
f 78//72 73//65 59//53
f 73//65 84//66 60//47
f 72//64 83//73 66//59
f 59//53 66//59 78//72
f 61//54 63//55 84//66
f 79//74 74//67 61//54
f 74//67 69//62 67//60
f 75//68 54//49 71//63
f 80//69 76//70 65//57
f 70//58 76//70 77//71
f 82//75 71//63 77//71
f 83//73 72//64 68//61
f 84//66 73//65 78//72
f 66//59 83//73 85//76
f 78//72 66//59 85//76
f 61//54 84//66 79//74
f 69//62 74//67 86//77
f 68//61 75//68 83//73
f 87//78 75//68 71//63
f 69//62 86//77 80//69
f 82//75 77//71 76//70
f 87//78 71//63 81//79
f 82//75 81//79 71//63
f 84//66 78//72 88//80
f 85//76 88//80 78//72
f 79//74 88//80 74//67
f 88//80 86//77 74//67
f 75//68 87//78 83//73
f 80//69 89//81 76//70
f 80//69 86//77 89//81
f 76//70 89//81 82//75
f 85//76 87//78 81//79
f 81//79 82//75 90//82
f 88//80 79//74 84//66
f 85//76 83//73 87//78
f 85//76 90//82 88//80
f 89//81 86//77 88//80
f 89//81 90//82 82//75
f 85//76 81//79 90//82
f 88//80 90//82 89//81
f 92//43 96//42 91//83
f 114//84 103//85 97//86
f 95//87 92//43 100//88
f 97//86 95//87 101//89
f 105//90 104//91 98//92
f 96//42 106//93 102//94
f 92//43 97//86 103//85
f 106//93 107//95 102//94
f 15//19 108//96 111//17
f 15//19 29//27 108//96
f 115//97 132//98 126//99
f 27//26 101//89 28//100
f 27//26 118//101 97//86
f 97//86 118//101 115//97
f 117//102 116//103 99//104
f 111//17 31//30 17//18
f 121//105 45//40 99//104
f 146//106 127//107 102//94
f 109//108 103//85 123//109
f 103//85 124//110 123//109
f 103//85 114//84 124//110
f 40//111 25//28 22//37
f 121//105 46//112 45//40
f 113//113 119//114 122//115
f 125//116 115//97 118//101
f 121//105 116//103 48//117
f 122//115 117//102 113//113
f 127//107 131//118 129//119
f 120//120 39//121 52//122
f 132//98 135//123 126//99
f 116//103 128//124 55//51
f 123//109 130//125 112//126
f 128//124 52//122 57//52
f 56//127 128//124 57//52
f 116//103 133//128 134//129
f 134//129 125//116 128//124
f 137//130 142//131 130//125
f 131//118 136//132 133//128
f 136//132 131//118 127//107
f 146//106 136//132 127//107
f 132//98 141//133 140//134
f 137//130 132//98 140//134
f 140//134 144//135 137//130
f 136//132 139//136 143//137
f 140//134 147//138 145//139
f 139//136 141//133 143//137
f 142//131 145//139 146//106
f 146//106 145//139 148//140
f 141//133 148//140 147//138
f 145//139 147//138 148//140
f 100//88 92//43 91//83
f 92//43 95//87 97//86
f 92//43 98//92 93//44
f 92//43 105//90 98//92
f 93//44 98//92 94//141
f 96//42 94//141 106//93
f 101//89 95//87 100//88
f 91//83 96//42 117//102
f 94//141 98//92 106//93
f 101//89 100//88 108//96
f 99//104 91//83 117//102
f 100//88 91//83 99//104
f 105//90 92//43 103//85
f 106//93 98//92 104//91
f 104//91 105//90 109//108
f 106//93 112//126 107//95
f 117//102 96//42 102//94
f 28//100 101//89 29//27
f 108//96 100//88 110//142
f 104//91 112//126 106//93
f 102//94 113//113 117//102
f 111//17 108//96 110//142
f 100//88 99//104 110//142
f 112//126 104//91 109//108
f 107//95 112//126 102//94
f 105//90 103//85 109//108
f 113//113 102//94 119//114
f 26//143 25//28 118//101
f 112//126 146//106 102//94
f 109//108 123//109 112//126
f 123//109 124//110 135//123
f 120//120 125//116 118//101
f 125//116 132//98 115//97
f 117//102 122//115 116//103
f 122//115 119//114 129//119
f 112//126 130//125 146//106
f 119//114 102//94 127//107
f 114//84 126//99 124//110
f 135//123 138//144 123//109
f 55//51 128//124 56//127
f 126//99 135//123 124//110
f 137//130 135//123 132//98
f 116//103 122//115 133//128
f 122//115 129//119 131//118
f 133//128 122//115 131//118
f 130//125 123//109 138//144
f 125//116 134//129 132//98
f 134//129 133//128 143//137
f 137//130 138//144 135//123
f 132//98 134//129 141//133
f 146//106 139//136 136//132
f 130//125 142//131 146//106
f 148//140 139//136 146//106
f 147//138 140//134 141//133
f 144//135 142//131 137//130
f 134//129 143//137 141//133
f 139//136 148//140 141//133
f 145//139 142//131 144//135
f 22//37 21//16 12//14
f 10//11 4//4 14//145
f 14//145 15//19 18//29
f 17//18 18//29 15//19
f 10//11 14//145 18//29
f 44//41 49//23 10//11
f 14//145 4//4 21//16
f 21//16 29//27 14//145
f 26//143 27//26 25//28
f 28//100 29//27 27//26
f 21//16 25//28 29//27
f 32//146 30//31 31//30
f 10//11 18//29 30//31
f 31//30 110//142 32//146
f 40//111 22//37 38//36
f 12//14 37//35 22//37
f 38//36 39//121 40//111
f 120//120 40//111 39//121
f 48//117 44//41 47//147
f 10//11 30//31 44//41
f 45//40 46//112 47//147
f 47//147 44//41 45//40
f 46//112 121//105 47//147
f 94//141 96//42 93//44
f 37//35 33//24 49//23
f 49//23 55//51 38//36
f 56//127 57//52 55//51
f 38//36 37//35 49//23
f 115//97 114//84 97//86
f 101//89 108//96 29//27
f 15//19 14//145 29//27
f 114//84 115//97 126//99
f 118//101 27//26 26//143
f 101//89 27//26 97//86
f 18//29 17//18 31//30
f 111//17 110//142 31//30
f 110//142 45//40 32//146
f 116//103 121//105 99//104
f 45//40 30//31 32//146
f 110//142 99//104 45//40
f 40//111 120//120 118//101
f 21//16 22//37 25//28
f 118//101 25//28 40//111
f 47//147 121//105 48//117
f 119//114 127//107 129//119
f 38//36 52//122 39//121
f 125//116 120//120 52//122
f 48//117 116//103 55//51
f 49//23 44//41 55//51
f 134//129 128//124 116//103
f 55//51 44//41 48//117
f 38//36 57//52 52//122
f 128//124 125//116 52//122
f 138//144 137//130 130//125
f 133//128 136//132 143//137
f 144//135 140//134 145//139
s 2
f 16//148 111//17 15//19
f 16//148 15//19 111//17
