# Blender v2.76 (sub 0) OBJ File: 'spines-modeling-2.blend'
# www.blender.org
mtllib spine-11-lr.mtl
o spine-11-lr_Cube.023
v 0.064662 -0.034834 -0.242204
v 0.066761 -0.044465 -0.112097
v 0.058772 -0.059068 -0.100627
v 0.040107 -0.049761 -0.125796
v 0.069596 -0.020414 -0.130228
v 0.074977 -0.029892 -0.068515
v 0.103696 -0.039430 -0.065233
v 0.024870 -0.049021 -0.147348
v 0.075928 -0.019839 -0.061611
v -0.004665 -0.073236 -0.063556
v 0.075153 -0.003165 -0.108963
v 0.079819 -0.012250 -0.058220
v -0.012682 -0.073955 -0.058720
v -0.008855 -0.055537 -0.115348
v 0.075172 0.000527 -0.107466
v -0.028938 -0.064374 -0.057179
v -0.032504 -0.053031 -0.062957
v -0.026064 -0.031069 -0.116365
v 0.028959 -0.032156 -0.292010
v 0.074006 0.018317 -0.078006
v 0.073498 0.013296 -0.045418
v 0.075738 0.002251 -0.041680
v 0.075820 -0.001418 -0.052465
v -0.051040 -0.060602 -0.041832
v -0.047293 -0.044058 -0.057585
v 0.074272 0.016663 -0.043907
v -0.039721 -0.038512 -0.073290
v 0.072817 0.023638 -0.039587
v 0.081641 0.014159 -0.036112
v 0.082304 0.012307 -0.037054
v -0.047179 -0.033699 -0.066692
v 0.077430 0.034017 -0.081539
v 0.101211 0.027493 -0.039561
v 0.078016 0.029670 -0.031250
v 0.081668 0.008981 -0.231566
v -0.058021 -0.022983 -0.067424
v -0.046146 -0.024901 -0.082352
v 0.046876 0.046706 -0.092215
v 0.073234 0.054268 -0.030135
v 0.030614 0.030816 -0.264159
v -0.060908 -0.015447 -0.070959
v -0.047043 0.003272 -0.092014
v 0.040157 0.051242 -0.059956
v -0.029549 0.004264 -0.125196
v 0.045300 0.054555 -0.018341
v -0.060912 0.005960 -0.077142
v 0.064017 -0.015589 -0.628634
v 0.040513 0.057483 -0.012014
v 0.042251 0.062401 0.004281
v 0.044287 0.061014 0.002519
v 0.133460 -0.006347 -0.581578
v -0.065671 0.013554 -0.063904
v -0.054922 0.032517 -0.059158
v -0.026405 0.035744 -0.116215
v -0.014313 0.054846 -0.053216
v 0.083752 0.032521 -0.716322
v 0.037361 0.058265 -0.012400
v -0.039276 0.040257 -0.068369
v 0.025668 0.054690 -0.074302
v 0.032447 0.063363 -0.007944
v 0.101362 0.049453 -0.611906
v -0.046145 0.046240 -0.039109
v -0.050263 0.047502 -0.027065
v -0.031905 0.056177 -0.021591
v -0.023741 0.057534 -0.025148
v 0.102080 -0.038330 -0.605866
v 0.007650 0.061852 -0.013151
v 0.021340 0.062473 -0.010691
v 0.131065 0.032862 -0.582483
v -0.031130 0.066857 0.028470
v -0.018501 0.060881 -0.014566
v -0.005728 0.063887 -0.004881
v 0.014144 0.068172 0.011629
v 0.017748 0.067643 0.009049
v -0.010001 0.069797 0.016702
v 0.153362 0.030977 -0.803019
v 0.183624 -0.015383 -0.870774
v 0.058668 -0.007542 -0.904816
v 0.129916 -0.034436 -0.908020
v 0.130712 0.049416 -1.019236
v 0.289974 -0.015188 -1.139817
v 0.035562 -0.067606 -1.066040
v -0.058009 0.152191 -1.193210
v -0.171629 -0.202649 -1.194853
v 0.259121 0.016500 -1.077480
v -0.275365 0.178153 -1.295460
v -0.137793 -0.017258 -1.128205
v 0.377275 -0.018762 -1.358545
v 0.424499 0.011615 -1.348147
v 0.143244 0.022020 -1.126595
v -0.358395 0.002182 -1.269264
v 0.050502 0.121422 -1.181806
v 0.195170 -0.022497 -1.124786
v -0.335565 -0.158503 -1.245114
v 0.319983 0.016633 -1.275382
v 0.001265 -0.155835 -1.236133
v -0.042655 -0.336779 -1.395840
v 0.075576 0.002408 -1.174460
v 0.090664 -0.043860 -1.123576
v -0.200264 -0.377769 -1.320945
v -0.183467 0.293543 -1.370025
v 0.036071 0.196408 -1.336701
v -0.364298 -0.336242 -1.328700
v 0.553544 0.050369 -1.604148
v -0.377643 0.265290 -1.442603
v -0.302122 0.323691 -1.454376
v -0.045799 0.271848 -1.388078
v -0.324010 -0.483949 -1.395611
v 0.545820 -0.030802 -1.565739
v 0.440088 -0.022678 -1.386319
v 0.468954 0.041406 -1.530466
v 0.075888 0.064074 -1.345557
v -0.433088 0.101324 -1.427114
v 0.058803 -0.223550 -1.421133
v 0.468463 0.002049 -1.678373
v 0.100635 -0.032527 -1.474766
v -0.172039 -0.448269 -1.457549
v -0.307826 -0.499337 -1.459175
v -0.409541 -0.323662 -1.467237
v 0.624303 -0.092006 -1.771356
v -0.450325 -0.129425 -1.383813
v -0.002213 -0.294412 -1.508969
v -0.445499 -0.048412 -1.543916
v -0.196251 0.354105 -1.534882
v 0.680637 -0.048738 -1.768409
v 0.518806 -0.060739 -1.653779
v 0.528046 0.096983 -1.778797
v 0.073907 0.112345 -1.501185
v -0.068800 -0.260281 -1.576366
v -0.324883 0.311214 -1.601321
v 0.690302 0.045153 -1.770023
v 0.512495 -0.023992 -1.939188
v 0.637948 0.123539 -1.801621
v 0.040069 0.220462 -1.446491
v -0.218980 0.301536 -1.660854
v -0.266025 -0.360251 -1.563944
v -0.346884 -0.140974 -1.630942
v 0.627736 -0.105960 -1.927284
v -0.405174 0.165010 -1.614209
v 0.720787 -0.089998 -1.919021
v 0.738920 0.104627 -1.924907
v -0.199642 -0.095448 -1.665283
v 0.538715 -0.069815 -1.892903
v -0.300410 0.149004 -1.696390
v -0.057315 0.248336 -1.575055
v 0.512368 0.058179 -1.943158
v 0.685422 0.180339 -1.922275
v -0.006782 -0.035056 -1.594464
v 0.756906 -0.009571 -1.877887
v 0.529726 0.141559 -1.953421
v 0.602330 0.178375 -1.936733
v -0.164845 0.142626 -1.684286
v 0.569051 0.120788 -2.042148
v 0.714605 -0.073757 -2.053653
v 0.606701 -0.014625 -2.060977
v 0.695366 0.175886 -2.016012
v 0.770616 -0.023579 -2.005499
v 0.720192 0.120970 -2.074841
v 0.716246 0.016189 -2.113166
v 0.665671 0.103129 -2.107313
v -0.082724 0.011697 0.071593
v -0.105613 -0.050338 0.045353
v -0.065947 0.038282 -0.004906
v -0.080499 -0.012230 -0.037851
v -0.061642 -0.048406 -0.044304
v -0.069154 -0.072175 -0.017942
v -0.040119 -0.089253 0.035914
v -0.067500 -0.041646 0.107344
v 0.000565 0.030073 0.126344
v -0.042390 -0.083578 -0.035029
v 0.065556 -0.042005 0.081193
v -0.063489 -0.004415 -0.073067
v -0.026003 0.067126 0.075283
v -0.017526 -0.092660 -0.030303
v 0.007999 0.083585 0.055090
v -0.043928 0.045763 -0.042713
v 0.091454 -0.085968 -0.018093
v 0.037539 0.073865 0.022988
v 0.051552 0.085843 0.079219
v 0.030091 0.068723 0.012809
v 0.083073 -0.001333 -0.042744
v 0.098723 0.075916 0.022384
v 0.097002 0.049400 0.099016
v 0.105260 0.000562 -0.043265
v 0.121599 0.079880 0.060445
v 0.172217 -0.037870 -0.046057
v 0.169215 -0.076151 -0.037166
v 0.165454 0.023695 -0.028463
v 0.171720 0.019428 0.027297
v 0.179363 -0.048569 -0.010637
v 0.213002 -0.001788 -0.032381
vn 0.326000 -0.878300 -0.349600
vn 0.573900 -0.818800 -0.006100
vn 0.919600 -0.346600 -0.185200
vn -0.005400 -0.977700 -0.209700
vn 0.972500 -0.231100 -0.028700
vn 0.742300 0.477200 -0.470300
vn 0.097500 -0.985500 -0.139000
vn 0.783600 0.111100 -0.611200
vn 0.934800 0.354100 0.025600
vn 0.991600 -0.124200 -0.035600
vn -0.034600 -0.923200 -0.382600
vn -0.319900 -0.805400 -0.499000
vn -0.478900 -0.822800 -0.305900
vn -0.688300 -0.536500 -0.488200
vn -0.848100 -0.382400 -0.366700
vn 0.953600 -0.001900 -0.300900
vn 0.899600 0.394200 -0.187800
vn 0.997600 -0.061100 0.033200
vn -0.540900 -0.497600 -0.678100
vn -0.542300 -0.552600 -0.632800
vn 0.918200 0.203600 -0.339600
vn 0.282400 0.406500 -0.868900
vn 0.293400 0.385200 -0.874900
vn 0.269400 0.350300 -0.897000
vn 0.349500 -0.679300 -0.645300
vn 0.883500 -0.322900 -0.339200
vn -0.642200 -0.563000 -0.520100
vn -0.758200 -0.444900 -0.476600
vn -0.709000 -0.582800 -0.397000
vn -0.171600 0.966200 -0.192200
vn -0.133600 0.957900 -0.253900
vn -0.013200 0.971600 -0.236200
vn -0.733800 -0.662300 -0.150900
vn 0.112000 -0.993500 0.019800
vn 0.275900 0.949700 -0.148000
vn 0.900500 0.402100 -0.165600
vn -0.820300 -0.134300 -0.555900
vn -0.692600 -0.549800 -0.466900
vn -0.903000 -0.418100 -0.098300
vn -0.483900 0.857400 -0.175400
vn 0.294000 0.917800 -0.266700
vn 0.090900 0.919100 -0.383300
vn 0.130100 0.973100 -0.189800
vn -0.834100 0.154900 -0.529300
vn -0.693700 0.635400 -0.339100
vn -0.892800 -0.017400 -0.450100
vn 0.208700 0.969000 -0.131800
vn 0.442900 0.847800 -0.291400
vn -0.466500 0.113700 0.877100
vn -0.956500 -0.118400 0.266500
vn 0.033500 0.988200 0.149300
vn -0.469400 0.852900 -0.228400
vn -0.220800 0.957900 -0.183700
vn 0.135600 0.982500 -0.127500
vn 0.240200 0.938200 -0.249100
vn -0.713100 0.522900 -0.466900
vn -0.590700 0.786200 -0.181400
vn -0.351900 0.919900 -0.172800
vn 0.804500 -0.542800 0.241000
vn 0.926000 -0.355800 0.126100
vn -0.599000 0.798900 -0.053800
vn -0.006800 0.981700 -0.190000
vn -0.021200 0.999800 -0.000500
vn -0.032400 0.955100 -0.294400
vn -0.029900 0.959400 -0.280200
vn 0.020400 -0.994800 0.099700
vn 0.591200 0.796400 0.127000
vn 0.809800 0.572400 0.128500
vn 0.585700 -0.741100 0.328100
vn 0.697200 0.663600 0.271200
vn 0.044400 -0.930400 0.363800
vn -0.104100 -0.914600 -0.390700
vn 0.992300 0.077100 0.097000
vn 0.780800 0.590200 0.204700
vn 0.665900 0.730100 0.153100
vn -0.072400 -0.511600 0.856200
vn -0.107800 0.721400 0.684000
vn -0.464000 0.509700 0.724500
vn -0.444700 -0.883200 -0.148400
vn 0.559500 -0.740500 -0.372300
vn 0.710500 -0.603100 0.362400
vn 0.705300 0.523100 0.478400
vn -0.490400 0.783300 -0.382000
vn 0.543200 -0.739600 0.397300
vn 0.276400 0.464700 -0.841200
vn 0.873000 -0.183200 -0.451900
vn 0.963700 -0.111900 -0.242500
vn -0.681500 0.203400 0.703000
vn -0.583100 -0.158700 0.796700
vn -0.982600 -0.095800 -0.159200
vn 0.184700 -0.672600 0.716600
vn 0.628000 -0.715400 0.306400
vn -0.927000 0.256400 0.273500
vn 0.398500 0.886600 0.234700
vn -0.756500 0.569400 0.321700
vn -0.258300 0.966000 0.006000
vn -0.359500 0.874600 0.325400
vn -0.953500 -0.073300 0.292200
vn -0.640900 -0.409300 0.649400
vn -0.352600 -0.932700 0.075300
vn 0.553100 0.683700 0.475900
vn 0.449200 -0.878700 -0.161200
vn -0.383400 -0.810400 0.442900
vn -0.888000 -0.384500 -0.251900
vn 0.626300 0.560500 -0.541800
vn 0.160300 0.983200 -0.086700
vn 0.742200 -0.435800 0.509100
vn 0.785600 0.283800 0.549800
vn -0.239800 -0.918900 -0.313000
vn -0.923200 -0.052200 -0.380800
vn 0.716400 -0.537500 -0.444900
vn 0.924000 -0.382100 0.014700
vn -0.543100 0.731600 -0.412000
vn 0.774900 0.623900 -0.101100
vn -0.837200 0.216300 -0.502200
vn -0.482200 -0.260800 -0.836300
vn -0.145200 -0.514500 -0.845100
vn 0.205000 -0.943800 0.259300
vn 0.723500 -0.498000 0.478000
vn 0.607100 -0.087500 -0.789700
vn 0.884200 0.238200 -0.401800
vn -0.305200 0.090900 -0.947900
vn -0.180500 -0.966500 -0.182600
vn -0.584900 0.795500 0.158100
vn 0.293600 0.834500 0.466200
vn -0.600200 -0.780800 -0.173500
vn 0.396500 -0.401800 -0.825400
vn 0.942400 -0.119400 0.312500
vn -0.836800 -0.382300 -0.391900
vn -0.949600 0.081300 -0.302900
vn 0.887300 0.416800 0.197600
vn 0.418800 0.869300 0.262500
vn 0.097500 0.634800 -0.766500
vn -0.772700 0.612000 -0.168500
vn 0.567600 -0.817500 0.097200
vn -0.262900 0.964400 0.026200
vn 0.666200 0.518700 -0.535700
vn 0.959700 -0.223600 -0.170200
vn 0.112600 -0.224500 -0.967900
vn 0.347900 0.090100 -0.933100
vn -0.639100 0.424200 -0.641600
vn 0.271300 -0.784300 -0.557900
vn 0.366300 0.882700 -0.294400
vn -0.550700 -0.434200 -0.712800
vn -0.845300 0.376400 -0.379100
vn -0.944700 0.019600 -0.327400
vn -0.779400 0.620000 -0.090100
vn 0.368900 -0.176800 -0.912500
vn -0.140700 0.374500 -0.916500
vn -0.820400 0.441400 0.363400
vn -0.933000 -0.334800 0.131500
vn -0.436200 -0.374300 0.818300
vn -0.668200 -0.665400 -0.332800
vn -0.646800 -0.457300 -0.610200
vn -0.106500 -0.962200 -0.250400
vn -0.170500 -0.947500 0.270400
vn -0.481700 0.834700 -0.266800
vn -0.699500 -0.511900 -0.498600
vn -0.758700 -0.378900 -0.529900
vn -0.458100 -0.789800 -0.407900
vn -0.571500 -0.580000 -0.580500
vn 0.223500 0.912700 -0.342100
vn 0.557800 0.796500 0.233000
vn 0.821900 0.277000 0.497700
vn -0.478300 0.875600 -0.067500
vn -0.709700 0.642100 -0.289700
vn 0.265600 -0.963300 -0.039000
vn -0.487100 0.780600 0.391700
vn 0.026000 0.922600 0.384800
vn -0.172200 0.985000 -0.008300
vn 0.334000 -0.607000 0.721100
vn 0.003200 0.937900 -0.347000
vn 0.474200 -0.058700 -0.878400
vn -0.100300 0.212400 0.972000
vn 0.446500 0.184300 0.875600
vn 0.087600 0.362600 -0.927800
vn -0.021500 0.982000 -0.187400
vn 0.778300 0.264300 -0.569500
vn -0.079400 0.929400 -0.360300
vn 0.133100 0.675900 -0.724800
vn 0.343400 0.849300 -0.401000
vn 0.660300 0.441900 -0.607100
vn 0.462900 -0.800200 -0.381200
vn 0.732400 -0.570500 0.371600
vn 0.249100 0.912300 -0.325100
vn 0.362900 0.713100 -0.599800
vn 0.449400 -0.188900 -0.873100
vn 0.923500 0.183900 -0.336600
vn 0.999800 0.015500 0.006500
vn -0.241800 0.954300 -0.175800
vn -0.042100 0.838500 0.543300
usemtl sample
s 1
f 3//1 1//2 2//3
f 4//4 1//2 3//1
f 5//5 6//6 2//3
f 8//7 1//2 4//4
f 6//6 5//5 9//8
f 35//9 5//5 1//2
f 11//10 9//8 5//5
f 10//11 13//12 14//13
f 14//13 17//14 18//15
f 21//16 23//17 20//18
f 17//14 24//19 25//20
f 21//16 20//18 26//21
f 29//22 30//23 26//21
f 33//24 34//25 28//26
f 31//27 37//28 27//29
f 71//30 75//31 72//32
f 19//33 66//34 1//2
f 38//35 32//36 35//9
f 37//28 172//37 42//38
f 19//33 47//39 66//34
f 47//39 19//33 40//40
f 48//41 50//42 45//43
f 46//44 54//45 44//46
f 48//41 43//47 57//48
f 87//49 78//50 80//51
f 54//45 58//52 55//53
f 59//54 60//55 43//47
f 62//56 63//57 64//58
f 66//34 77//59 51//60
f 56//61 78//50 47//39
f 67//62 59//54 55//53
f 61//63 56//61 40//40
f 73//64 74//65 67//62
f 47//39 79//66 66//34
f 76//67 61//63 69//68
f 80//51 78//50 56//61
f 77//59 81//69 85//70
f 78//50 82//71 79//66
f 79//66 81//69 77//59
f 82//71 93//72 79//66
f 78//50 87//49 82//71
f 79//66 93//72 81//69
f 112//73 102//74 92//75
f 87//49 84//76 82//71
f 83//77 86//78 87//49
f 93//72 88//79 81//69
f 93//72 82//71 99//80
f 82//71 84//76 96//81
f 85//70 81//69 89//82
f 95//83 80//51 85//70
f 88//79 93//72 95//83
f 89//82 81//69 110//84
f 85//70 89//82 95//83
f 92//75 90//85 98//86
f 116//87 112//73 96//81
f 87//49 91//88 94//89
f 95//83 115//90 88//79
f 96//81 100//91 97//92
f 86//78 113//93 91//88
f 98//86 90//85 99//80
f 92//75 107//94 83//77
f 86//78 105//95 113//93
f 89//82 111//96 95//83
f 86//78 106//97 105//95
f 94//89 121//98 103//99
f 110//84 88//79 126//100
f 89//82 104//101 111//96
f 40//40 35//9 69//68
f 91//88 121//98 94//89
f 117//102 100//91 108//103
f 119//104 108//103 103//99
f 145//105 124//106 107//94
f 125//107 131//108 104//101
f 108//103 119//104 118//109
f 123//110 119//104 121//98
f 122//111 114//112 97//92
f 106//97 130//113 105//95
f 107//94 134//114 145//105
f 105//95 130//113 139//115
f 119//104 137//116 136//117
f 120//118 125//107 109//119
f 109//119 126//100 120//118
f 97//92 117//102 122//111
f 130//113 106//97 124//106
f 148//120 116//87 114//112
f 112//73 116//87 128//121
f 134//114 112//73 128//121
f 144//122 137//116 123//110
f 126//100 138//123 120//118
f 127//124 104//101 133//125
f 115//90 143//126 126//100
f 129//127 117//102 136//117
f 125//107 149//128 131//108
f 132//129 115//90 146//130
f 117//102 118//109 136//117
f 138//123 126//100 143//126
f 133//125 141//131 147//132
f 130//113 124//106 135//133
f 146//130 127//124 150//134
f 138//123 140//135 120//118
f 150//134 127//124 151//136
f 158//137 141//131 157//138
f 135//133 144//122 130//113
f 142//139 148//120 129//127
f 145//105 152//140 135//133
f 150//134 153//141 146//130
f 145//105 148//120 152//140
f 140//135 154//142 157//138
f 153//141 151//136 156//143
f 156//143 151//136 147//132
f 141//131 156//143 147//132
f 144//122 135//133 152//140
f 143//126 155//144 138//123
f 140//135 138//123 154//142
f 149//128 157//138 141//131
f 156//143 141//131 158//137
f 154//142 138//123 155//144
f 52//145 164//146 163//147
f 154//142 159//148 157//138
f 153//141 155//144 146//130
f 156//143 158//137 160//149
f 161//150 162//151 168//152
f 158//137 159//148 160//149
f 166//153 164//146 165//154
f 174//155 167//156 166//153
f 162//151 166//153 167//156
f 62//56 176//157 163//147
f 31//27 25//20 36//158
f 24//19 166//153 165//154
f 41//159 37//28 36//158
f 170//160 24//19 16//161
f 13//12 170//160 16//161
f 182//162 185//163 189//164
f 46//44 42//38 172//37
f 10//11 174//155 13//12
f 70//165 64//58 163//147
f 176//157 58//52 53//166
f 177//167 10//11 3//1
f 173//168 179//169 175//170
f 71//30 64//58 70//165
f 167//156 177//167 171//171
f 167//156 174//155 177//167
f 178//172 73//64 175//170
f 7//173 177//167 3//1
f 175//170 179//169 178//172
f 169//174 171//171 183//175
f 184//176 7//173 9//8
f 179//169 183//175 185//163
f 68//177 67//62 74//65
f 12//178 184//176 9//8
f 180//179 60//55 68//177
f 181//180 12//178 23//17
f 49//181 48//41 60//55
f 183//175 179//169 169//174
f 22//182 181//180 23//17
f 49//181 178//172 50//42
f 177//167 187//183 190//184
f 181//180 22//182 30//23
f 18//15 44//46 40//40
f 39//185 45//43 50//42
f 189//164 185//163 183//175
f 29//22 184//176 30//23
f 184//176 188//186 186//187
f 182//162 33//24 39//185
f 33//24 29//22 34//25
f 190//184 186//187 191//188
f 188//186 191//188 186//187
f 8//7 19//33 1//2
f 15//189 11//10 35//9
f 43//47 38//35 40//40
f 51//60 35//9 1//2
f 35//9 51//60 69//68
f 51//60 1//2 66//34
f 40//40 56//61 47//39
f 64//58 65//190 55//53
f 71//30 55//53 65//190
f 76//67 69//68 51//60
f 47//39 78//50 79//66
f 61//63 76//67 56//61
f 56//61 76//67 80//51
f 76//67 77//59 85//70
f 80//51 92//75 83//77
f 80//51 90//85 92//75
f 91//88 87//49 86//78
f 103//99 84//76 94//89
f 81//69 88//79 110//84
f 90//85 80//51 95//83
f 99//80 82//71 96//81
f 84//76 103//99 100//91
f 90//85 93//72 99//80
f 96//81 84//76 100//91
f 93//72 90//85 95//83
f 101//191 86//78 83//77
f 88//79 115//90 126//100
f 98//86 99//80 96//81
f 97//92 100//91 117//102
f 92//75 102//74 107//94
f 103//99 108//103 100//91
f 109//119 89//82 110//84
f 83//77 107//94 101//191
f 95//83 111//96 115//90
f 89//82 109//119 104//101
f 98//86 96//81 112//73
f 110//84 126//100 109//119
f 96//81 97//92 114//112
f 124//106 101//191 107//94
f 106//97 101//191 124//106
f 112//73 134//114 102//74
f 107//94 102//74 134//114
f 121//98 119//104 103//99
f 127//124 115//90 111//96
f 104//101 131//108 133//125
f 123//110 121//98 113//93
f 137//116 119//104 123//110
f 111//96 104//101 127//124
f 113//93 139//115 123//110
f 129//127 148//120 122//111
f 139//115 130//113 144//122
f 115//90 132//129 143//126
f 145//105 135//133 124//106
f 145//105 134//114 128//121
f 125//107 140//135 149//128
f 125//107 120//118 140//135
f 115//90 127//124 146//130
f 133//125 151//136 127//124
f 133//125 131//108 141//131
f 128//121 116//87 148//120
f 141//131 131//108 149//128
f 151//136 133//125 147//132
f 148//120 145//105 128//121
f 136//117 137//116 142//139
f 137//116 144//122 142//139
f 142//139 144//122 152//140
f 150//134 151//136 153//141
f 152//140 148//120 142//139
f 155//144 143//126 132//129
f 155//144 132//129 146//130
f 153//141 160//149 155//144
f 159//148 154//142 155//144
f 160//149 159//148 155//144
f 164//146 162//151 161//150
f 162//151 164//146 166//153
f 164//146 161//150 163//147
f 168//152 162//151 167//156
f 169//174 168//152 171//171
f 161//150 168//152 169//174
f 166//153 170//160 174//155
f 164//146 41//159 36//158
f 169//174 173//168 161//150
f 41//159 164//146 172//37
f 168//152 167//156 171//171
f 164//146 52//145 46//44
f 173//168 169//174 179//169
f 73//64 178//172 74//65
f 171//171 177//167 190//184
f 178//172 179//169 182//162
f 182//162 179//169 185//163
f 171//171 189//164 183//175
f 187//183 177//167 186//187
f 188//186 184//176 33//24
f 171//171 190//184 189//164
f 189//164 191//188 188//186
f 51//60 77//59 76//67
f 66//34 79//66 77//59
f 85//70 80//51 76//67
f 94//89 84//76 87//49
f 106//97 86//78 101//191
f 91//88 113//93 121//98
f 117//102 108//103 118//109
f 122//111 117//102 129//127
f 149//128 140//135 157//138
f 163//147 161//150 173//168
f 187//183 186//187 190//184
f 191//188 189//164 190//184
f 7//173 2//3 6//6
f 1//2 5//5 2//3
f 5//5 35//9 11//10
f 11//10 12//178 9//8
f 14//13 19//33 8//7
f 8//7 10//11 14//13
f 18//15 19//33 14//13
f 14//13 16//161 17//14
f 35//9 20//18 15//189
f 21//16 22//182 23//17
f 23//17 15//189 20//18
f 25//20 27//29 17//14
f 18//15 17//14 27//29
f 24//19 165//154 25//20
f 26//21 20//18 28//26
f 28//26 29//22 26//21
f 28//26 20//18 32//36
f 32//36 33//24 28//26
f 20//18 35//9 32//36
f 18//15 27//29 37//28
f 31//27 36//158 37//28
f 55//53 71//30 72//32
f 35//9 40//40 38//35
f 38//35 39//185 32//36
f 42//38 44//46 18//15
f 18//15 37//28 42//38
f 41//159 172//37 37//28
f 45//43 43//47 48//41
f 48//41 49//181 50//42
f 40//40 44//46 54//45
f 46//44 52//145 53//166
f 53//166 54//45 46//44
f 83//77 87//49 80//51
f 176//157 55//53 58//52
f 40//40 54//45 55//53
f 57//48 43//47 60//55
f 40//40 59//54 43//47
f 64//58 55//53 176//157
f 176//157 62//56 64//58
f 40//40 55//53 59//54
f 67//62 68//177 59//54
f 67//62 55//53 72//32
f 72//32 73//64 67//62
f 98//86 112//73 92//75
f 114//112 116//87 96//81
f 61//63 40//40 69//68
f 109//119 125//107 104//101
f 113//93 105//95 139//115
f 118//109 119//104 136//117
f 122//111 148//120 114//112
f 139//115 144//122 123//110
f 142//139 129//127 136//117
f 159//148 158//137 157//138
f 160//149 153//141 156//143
f 53//166 52//145 163//147
f 63//57 62//56 163//147
f 165//154 164//146 36//158
f 31//27 27//29 25//20
f 165//154 36//158 25//20
f 17//14 16//161 24//19
f 170//160 166//153 24//19
f 13//12 174//155 170//160
f 16//161 14//13 13//12
f 188//186 182//162 189//164
f 172//37 164//146 46//44
f 46//44 44//46 42//38
f 63//57 163//147 64//58
f 173//168 70//165 163//147
f 53//166 163//147 176//157
f 58//52 54//45 53//166
f 4//4 3//1 10//11
f 177//167 174//155 10//11
f 10//11 8//7 4//4
f 173//168 175//170 70//165
f 75//31 71//30 70//165
f 65//190 64//58 71//30
f 70//165 175//170 75//31
f 75//31 175//170 73//64
f 73//64 72//32 75//31
f 7//173 186//187 177//167
f 3//1 2//3 7//173
f 6//6 9//8 7//173
f 184//176 186//187 7//173
f 74//65 178//172 180//179
f 180//179 68//177 74//65
f 59//54 68//177 60//55
f 180//179 178//172 60//55
f 15//189 23//17 12//178
f 181//180 184//176 12//178
f 12//178 11//10 15//189
f 57//48 60//55 48//41
f 178//172 49//181 60//55
f 26//21 30//23 21//16
f 184//176 181//180 30//23
f 22//182 21//16 30//23
f 19//33 18//15 40//40
f 50//42 178//172 182//162
f 39//185 38//35 43//47
f 50//42 182//162 39//185
f 39//185 43//47 45//43
f 32//36 39//185 33//24
f 182//162 188//186 33//24
f 28//26 34//25 29//22
f 33//24 184//176 29//22
