# Blender v2.76 (sub 0) OBJ File: 'spines-modeling-2.blend'
# www.blender.org
mtllib spine-5-lr.mtl
o spine-5-lr_Cube.032
v -0.126876 -0.118436 -0.109274
v -0.128847 -0.090487 -0.097914
v -0.111698 -0.071091 -0.062660
v -0.106498 -0.090101 -0.069821
v -0.126579 -0.124119 -0.109223
v -0.135931 -0.078345 -0.100168
v -0.115211 -0.060882 -0.060211
v -0.113936 -0.067127 -0.060158
v -0.129515 -0.136233 -0.100902
v -0.105184 -0.119272 -0.066353
v -0.106983 -0.124509 -0.065465
v -0.139126 -0.062647 -0.099819
v -0.117228 -0.135248 -0.060316
v -0.118088 -0.136725 -0.050136
v -0.120717 -0.139872 -0.043863
v -0.121634 -0.141564 -0.014340
v -0.139271 -0.148920 0.018189
v -0.154149 -0.042965 -0.097090
v -0.145791 -0.022863 -0.053378
v -0.126397 -0.038089 -0.051039
v -0.123042 -0.045874 -0.057129
v -0.122747 -0.144133 0.012517
v -0.126949 -0.147509 0.044354
v -0.130102 -0.149522 0.073834
v -0.161428 -0.162660 -0.108209
v -0.158492 -0.044386 -0.103440
v -0.126863 -0.147294 0.069312
v -0.176275 -0.082556 -0.197821
v -0.166132 -0.039733 -0.100114
v -0.171242 -0.157340 0.044810
v -0.129284 -0.146435 0.084535
v -0.141150 -0.151831 0.081066
v -0.181744 -0.034458 -0.098984
v -0.170878 -0.017582 -0.064054
v -0.143022 -0.151736 0.088520
v -0.175565 -0.131296 -0.170055
v -0.198186 -0.041839 -0.106815
v -0.200219 -0.009279 -0.067772
v -0.148278 -0.147501 0.115147
v -0.136480 -0.146295 0.107851
v -0.140368 -0.145903 0.113679
v -0.216141 -0.114479 -0.392105
v -0.209426 -0.090450 -0.204380
v -0.205713 -0.045335 -0.109055
v -0.155423 -0.150734 0.108703
v -0.218835 -0.143492 -0.084233
v -0.215114 -0.151886 0.014305
v -0.240158 -0.142648 -0.017808
v -0.236375 -0.141872 -0.037707
v -0.224335 -0.056716 -0.108004
v -0.238349 -0.029621 -0.069667
v -0.152762 -0.147253 0.117991
v -0.146366 -0.146094 0.118693
v -0.134372 -0.144657 0.116512
v -0.151430 -0.144475 0.126726
v -0.207598 -0.143877 0.118203
v -0.225616 -0.137631 0.125306
v -0.231811 -0.145047 0.098745
v -0.152968 -0.147675 0.117583
v -0.220824 -0.141331 -0.084133
v -0.253720 -0.144158 0.023984
v -0.226953 -0.122603 -0.464362
v -0.228855 -0.059164 -0.106878
v -0.228886 -0.151433 0.073188
v -0.186063 -0.148962 0.114180
v -0.167973 -0.131291 0.144933
v -0.241741 -0.106153 -0.067825
v -0.244972 -0.135030 -0.033540
v -0.249145 -0.131640 -0.026255
v -0.252236 -0.126353 -0.025218
v -0.262201 -0.107027 -0.028118
v -0.241412 -0.148889 0.066266
v -0.246688 -0.146794 0.052947
v -0.246020 -0.147447 0.046643
v -0.246571 -0.147330 0.044706
v -0.243249 -0.069574 -0.089933
v -0.259673 -0.048941 -0.055171
v -0.252381 -0.037256 -0.068287
v -0.260949 -0.094914 -0.029673
v -0.271708 -0.090486 -0.016619
v -0.261311 -0.080432 -0.037260
v -0.262536 -0.061830 -0.047595
v -0.236884 -0.084980 -0.086308
v -0.258027 -0.055454 -0.055585
v -0.270904 -0.086823 -0.017905
v -0.272634 -0.080938 -0.019416
v -0.228571 -0.104085 -0.437830
v -0.210532 -0.141289 -0.686453
v -0.213259 -0.124045 -0.602136
v -0.224571 -0.131717 -0.829590
v -0.221148 -0.124033 -0.684341
v -0.211973 -0.125468 -0.826479
v -0.223460 -0.100334 -0.912135
v -0.227482 -0.144087 -1.118018
v -0.189140 -0.098103 -1.040104
v -0.054935 -0.130103 -1.175490
v -0.214408 -0.305337 -1.322065
v -0.217613 -0.075512 -1.059360
v -0.171472 0.015587 -1.177134
v -0.395881 0.000410 -1.540509
v -0.325374 -0.264261 -1.548599
v -0.158035 -0.427637 -1.596978
v -0.302576 0.195444 -1.392690
v -0.138766 0.242107 -1.318658
v -0.042162 -0.329792 -1.322903
v 0.094954 -0.240891 -1.290300
v 0.103216 -0.074260 -1.284144
v -0.240811 -0.393269 -1.912176
v 0.046534 -0.436415 -1.598664
v 0.135035 -0.338661 -1.466395
v 0.175899 -0.186032 -1.434072
v 0.000673 0.109113 -1.279079
v -0.377251 -0.178270 -1.850170
v -0.233094 0.303553 -1.437797
v -0.352487 0.210793 -1.624892
v -0.060981 0.297516 -1.464812
v -0.373511 0.018323 -1.881755
v -0.275721 -0.268797 -2.088949
v -0.021117 -0.424065 -1.871542
v -0.137681 -0.421274 -2.088950
v -0.157136 -0.283152 -2.158767
v -0.196901 0.301304 -1.648862
v 0.175829 -0.259091 -1.654733
v 0.105236 0.074670 -1.546970
v -0.083389 0.270384 -1.673703
v -0.256266 0.200703 -1.831115
v 0.176230 -0.065221 -1.722345
v -0.229993 -0.066772 -2.073447
v 0.073584 -0.201426 -1.898962
v 0.063761 0.010769 -1.823930
v -0.065322 -0.107036 -2.038320
v -0.047380 -0.332835 -2.072582
v -0.081799 0.125186 -1.866420
v -0.278543 -0.064179 0.102622
v -0.287991 -0.082676 0.001177
v -0.172296 0.026910 0.143986
v -0.300061 -0.106849 0.038831
v -0.267062 -0.027868 -0.035400
v -0.264734 -0.138742 0.012873
v -0.251629 -0.136630 -0.020088
v -0.225092 -0.116261 0.154096
v -0.231232 -0.024943 -0.070219
v -0.222673 0.021523 -0.029178
v -0.230426 0.035129 0.056732
v -0.255663 -0.139597 0.050822
v -0.131939 0.033847 -0.010670
v -0.150927 0.000151 -0.041888
v -0.137282 -0.076982 0.147998
v -0.111227 0.074711 0.063182
v -0.102293 -0.127358 0.117788
v -0.017290 -0.061493 0.006467
v -0.053047 0.030536 0.080244
v -0.079640 -0.050937 -0.050797
v -0.074535 -0.106326 -0.048707
v -0.011161 0.020373 -0.016443
v 0.017899 -0.032229 -0.050072
v -0.119238 -0.140977 -0.040076
v -0.099088 -0.131280 -0.035303
vn 0.312500 0.533100 -0.786200
vn 0.297900 0.184100 -0.936600
vn 0.651000 0.178700 -0.737800
vn 0.833700 0.219600 -0.506700
vn 0.538300 0.263700 -0.800400
vn 0.460600 0.360000 -0.811300
vn 0.825300 -0.229900 -0.515800
vn 0.729300 -0.219500 -0.648000
vn 0.717000 -0.607100 -0.342300
vn 0.483000 0.599000 -0.638600
vn 0.367300 0.591900 -0.717500
vn 0.468200 0.592100 -0.655800
vn 0.280600 -0.959600 -0.019100
vn 0.428300 -0.903300 -0.023600
vn 0.037500 -0.999200 0.012800
vn 0.442000 -0.885700 -0.141900
vn -0.136900 -0.954900 -0.263500
vn 0.185500 -0.838200 -0.512900
vn 0.326500 0.852000 -0.409300
vn 0.653800 0.625300 -0.426000
vn 0.301200 0.847000 -0.437900
vn 0.466000 -0.880600 0.086100
vn 0.435300 -0.888600 0.144400
vn 0.240600 -0.968000 0.071000
vn -0.229900 0.543600 0.807200
vn -0.772400 0.390700 0.500800
vn -0.980100 0.016200 0.197900
vn 0.968800 0.167100 -0.183000
vn -0.445500 0.880000 0.164300
vn 0.971600 -0.236500 0.010000
vn 0.895600 0.079200 0.437700
vn 0.228700 -0.967300 0.110000
vn -0.538600 -0.841900 0.033600
vn -0.195700 0.834900 -0.514500
vn 0.109000 0.850200 -0.515100
vn 0.078600 -0.973600 0.214100
vn 0.269700 -0.951600 0.147400
vn 0.202600 -0.943600 0.261900
vn -0.937400 0.299800 -0.176900
vn -0.347100 0.802400 -0.485500
vn -0.159200 -0.985700 -0.055500
vn -0.390900 -0.884300 -0.255300
vn -0.493000 0.868700 0.046400
vn -0.491400 0.722900 -0.485700
vn -0.472500 0.694100 -0.543100
vn -0.431300 0.671800 -0.602200
vn 0.064500 -0.915400 0.397300
vn 0.203000 -0.767100 0.608400
vn -0.116000 -0.947500 0.298000
vn -0.126200 -0.917200 0.377800
vn -0.515000 -0.799700 0.308500
vn -0.182300 -0.979500 0.086000
vn -0.562900 -0.799900 0.208200
vn -0.331100 -0.942600 0.042900
vn -0.597600 -0.550700 0.582800
vn -0.785100 -0.485400 -0.384800
vn -0.756200 -0.575900 -0.310600
vn -0.860600 -0.268200 -0.432900
vn 0.944200 0.328100 0.027600
vn -0.658300 0.585200 -0.473400
vn -0.922900 -0.121600 -0.365300
vn -0.714600 0.452700 -0.533200
vn -0.846100 -0.256200 -0.467300
vn -0.851400 -0.112600 -0.512200
vn -0.897500 -0.090500 -0.431600
vn -0.874600 -0.336600 -0.348900
vn -0.778000 -0.216800 -0.589600
vn -0.851300 -0.284600 -0.440700
vn 0.347000 -0.936700 0.047000
vn -0.851600 0.524100 0.006300
vn -0.579600 -0.814900 -0.003600
vn -0.662400 -0.506700 0.551700
vn -0.372200 0.879800 0.295500
vn 0.487000 0.859400 0.155400
vn -0.144900 0.955800 -0.255900
vn -0.622500 0.729900 0.282100
vn 0.116000 -0.811800 0.572200
vn -0.488900 -0.756900 0.433700
vn 0.471700 -0.151700 0.868600
vn -0.848900 -0.501200 0.167900
vn 0.610600 -0.419000 0.672000
vn 0.594700 0.493800 0.634400
vn 0.785700 0.208300 0.582400
vn 0.016300 0.718600 0.695200
vn -0.336900 -0.928600 0.155200
vn -0.819700 0.568500 -0.069400
vn -0.867500 0.290600 -0.403700
vn -0.587300 -0.805000 -0.083700
vn -0.956900 -0.254100 -0.140600
vn 0.446500 -0.866700 -0.222500
vn 0.720500 -0.635800 0.276700
vn 0.397400 -0.915100 0.067900
vn 0.979200 0.001200 0.202700
vn -0.756000 -0.228600 -0.613300
vn -0.007100 -0.827700 -0.561100
vn 0.870400 0.492200 0.002400
vn -0.292300 0.765800 -0.572700
vn 0.484200 0.797300 -0.360200
vn 0.949500 -0.272900 -0.154700
vn 0.040900 -0.066100 -0.996900
vn -0.243600 0.464300 -0.851500
vn 0.741900 -0.259800 -0.618100
vn -0.911100 -0.122100 -0.393600
vn 0.441600 0.668900 -0.598000
vn 0.546100 0.382700 -0.745200
vn 0.943400 0.261400 -0.203700
vn 0.846300 -0.064600 -0.528800
vn 0.702500 0.524100 -0.481500
vn -0.947500 0.015000 -0.319300
vn -0.837000 0.122800 0.533200
vn -0.858600 0.407600 -0.311000
vn -0.804500 -0.243200 -0.541900
vn -0.748800 -0.002000 -0.662700
vn -0.141300 0.524900 0.839300
vn -0.596800 0.796400 0.097400
vn -0.959400 -0.273000 0.070600
vn -0.632000 -0.752300 -0.185900
vn 0.331700 -0.942000 -0.051100
vn 0.562100 -0.819800 -0.108900
vn 0.431600 -0.901600 -0.028200
vn -0.950800 -0.096000 -0.294500
vn -0.849400 -0.305400 -0.430400
vn -0.702600 -0.606400 -0.372300
vn -0.832900 -0.423200 -0.356500
vn -0.347300 0.836400 -0.424000
vn -0.496700 -0.855000 -0.149100
vn -0.462700 -0.756300 0.462400
vn -0.024700 0.769700 -0.637800
vn -0.413500 -0.200000 0.888200
vn 0.298100 0.587600 -0.752200
vn 0.171800 -0.537900 0.825300
vn 0.518300 0.731000 -0.443700
vn 0.324200 0.724500 -0.608200
vn 0.318400 -0.005700 0.947900
vn 0.005500 0.781000 -0.624400
vn 0.106700 0.989400 0.098500
vn 0.795700 0.402700 -0.452400
vn 0.669500 -0.487000 0.560800
vn 0.862800 -0.480400 0.157500
vn 0.695400 0.649300 -0.307800
vn 0.712600 0.400500 0.575900
vn 0.329200 -0.880900 0.340100
vn -0.101400 0.009400 0.994800
vn 0.803500 0.150900 -0.575800
vn 0.825200 -0.099200 -0.556000
vn 0.713700 -0.416900 -0.562800
vn 0.703800 -0.588600 -0.397700
vn 0.599800 -0.780900 -0.174200
vn 0.054000 -0.981700 -0.182200
vn 0.549400 -0.828100 -0.111300
vn 0.180800 -0.967100 0.178800
vn 0.735000 0.326600 -0.594100
vn -0.344800 -0.925400 -0.156800
vn 0.171000 -0.947800 0.268900
vn -0.313500 -0.931200 -0.185800
vn -0.845100 -0.502900 0.181400
vn -0.846600 -0.507400 0.160500
vn -0.848200 -0.506800 0.153800
usemtl sample
s 1
f 3//1 153//2 4//3
f 6//4 7//5 8//6
f 5//7 10//8 9//9
f 19//10 20//11 21//12
f 17//13 23//14 30//15
f 15//16 17//13 25//17
f 30//15 36//18 25//17
f 26//19 28//20 29//21
f 24//22 31//23 32//24
f 99//25 103//26 100//27
f 42//28 28//20 36//18
f 93//29 92//30 95//31
f 35//32 30//15 32//24
f 62//33 42//28 36//18
f 28//20 37//34 33//35
f 45//36 40//37 39//38
f 37//34 43//39 44//40
f 30//15 47//41 46//42
f 87//43 43//39 28//20
f 87//43 28//20 42//28
f 50//44 51//45 142//46
f 52//47 55//48 65//49
f 56//50 58//51 64//52
f 145//53 61//54 47//41
f 52//47 45//36 59//55
f 60//56 68//57 67//58
f 62//33 89//59 42//28
f 36//18 43//39 62//33
f 63//60 76//61 78//62
f 67//58 71//63 79//64
f 82//65 83//66 67//58
f 83//66 76//61 43//39
f 79//64 85//67 81//68
f 89//59 87//43 42//28
f 62//33 88//69 89//59
f 29//21 28//20 33//35
f 88//69 62//33 91//70
f 91//70 62//33 87//43
f 89//59 91//70 87//43
f 88//69 92//30 89//59
f 92//30 88//69 90//71
f 91//70 89//59 92//30
f 88//69 91//70 90//71
f 91//70 93//29 90//71
f 93//29 91//70 92//30
f 92//30 90//71 94//72
f 90//71 93//29 94//72
f 94//72 95//31 92//30
f 114//73 116//74 122//75
f 94//72 93//29 98//76
f 95//31 98//76 93//29
f 105//77 94//72 97//78
f 105//77 96//79 94//72
f 96//79 99//25 95//31
f 94//72 101//80 97//78
f 98//76 99//25 94//72
f 106//81 96//79 105//77
f 101//80 94//72 100//27
f 99//25 96//79 112//82
f 106//81 107//83 96//79
f 107//83 112//82 96//79
f 112//82 104//84 99//25
f 104//84 103//26 99//25
f 97//78 101//80 102//85
f 115//86 117//87 100//27
f 108//88 102//85 101//80
f 113//89 101//80 100//27
f 113//89 108//88 101//80
f 102//85 108//88 119//90
f 102//85 105//77 97//78
f 114//73 103//26 104//84
f 110//91 106//81 105//77
f 103//26 115//86 100//27
f 109//92 105//77 102//85
f 109//92 110//91 105//77
f 111//93 106//81 110//91
f 111//93 107//83 106//81
f 113//89 100//27 117//87
f 6//4 36//18 28//20
f 113//89 118//94 108//88
f 120//95 119//90 108//88
f 118//94 120//95 108//88
f 112//82 116//74 104//84
f 107//83 124//96 112//82
f 114//73 115//86 103//26
f 107//83 111//93 124//96
f 126//97 117//87 115//86
f 113//89 117//87 118//94
f 125//98 126//97 122//75
f 110//91 109//92 123//99
f 118//94 121//100 120//95
f 118//94 117//87 128//101
f 109//92 119//90 123//99
f 123//99 111//93 110//91
f 118//94 128//101 121//100
f 121//100 132//102 120//95
f 84//103 83//66 82//65
f 116//74 125//98 122//75
f 115//86 122//75 126//97
f 123//99 124//96 111//93
f 117//87 126//97 128//101
f 125//98 116//74 124//96
f 128//101 133//104 131//105
f 123//99 127//106 124//96
f 133//104 125//98 124//96
f 119//90 132//102 129//107
f 129//107 123//99 119//90
f 127//106 123//99 129//107
f 130//108 124//96 127//106
f 132//102 119//90 120//95
f 133//104 124//96 130//108
f 126//97 125//98 133//104
f 127//106 129//107 130//108
f 128//101 131//105 121//100
f 121//100 131//105 132//102
f 130//108 129//107 131//105
f 133//104 130//108 131//105
f 129//107 132//102 131//105
f 135//109 134//110 138//111
f 82//65 81//68 86//112
f 85//67 79//64 80//113
f 136//114 144//115 134//110
f 137//116 139//117 145//53
f 16//118 158//119 22//120
f 134//110 135//109 137//116
f 139//117 135//109 71//63
f 77//121 76//61 84//103
f 69//122 140//123 70//124
f 51//45 63//60 78//62
f 144//115 143//125 138//111
f 68//57 140//123 69//122
f 51//45 138//111 142//46
f 60//56 46//42 49//126
f 58//51 57//127 134//110
f 142//46 38//128 37//34
f 141//129 57//127 56//50
f 143//125 147//130 38//128
f 66//131 141//129 56//50
f 19//10 18//132 34//133
f 55//48 148//134 66//131
f 146//135 153//2 20//11
f 146//135 144//115 149//136
f 21//12 7//5 12//137
f 150//138 151//139 148//134
f 59//55 45//36 39//38
f 153//2 146//135 155//140
f 8//6 153//2 3//1
f 151//139 155//140 152//141
f 54//142 40//37 31//23
f 24//22 150//138 27//143
f 151//139 150//138 23//14
f 4//3 10//8 1//144
f 153//2 155//140 156//145
f 10//8 154//146 11//147
f 11//147 158//119 13//148
f 151//139 153//2 156//145
f 158//119 154//146 151//139
f 15//16 158//119 157//149
f 14//150 158//119 15//16
f 151//139 156//145 155//140
f 1//144 5//7 36//18
f 26//19 18//132 28//20
f 60//56 36//18 46//42
f 63//60 50//44 43//39
f 30//15 65//49 56//50
f 87//43 62//33 43//39
f 95//31 94//72 96//79
f 98//76 95//31 99//25
f 109//92 102//85 119//90
f 104//84 116//74 114//73
f 116//74 112//82 124//96
f 128//101 126//97 133//104
f 138//111 134//110 144//115
f 135//109 85//67 80//113
f 138//111 77//121 84//103
f 134//110 148//134 136//114
f 141//129 148//134 134//110
f 61//54 145//53 139//117
f 144//115 136//114 149//136
f 148//134 152//141 136//114
f 55//48 54//142 150//138
f 20//11 153//2 21//12
f 148//134 151//139 152//141
f 149//136 136//114 152//141
f 7//5 153//2 8//6
f 40//37 54//142 41//151
f 2//152 8//6 3//1
f 146//135 149//136 155//140
f 151//139 154//146 153//2
f 14//150 13//148 158//119
f 85//67 135//109 86//112
f 143//125 144//115 146//135
f 155//140 149//136 152//141
f 4//3 1//144 2//152
f 2//152 3//1 4//3
f 1//144 36//18 2//152
f 8//6 2//152 6//4
f 36//18 6//4 2//152
f 11//147 9//9 10//8
f 36//18 5//7 9//9
f 21//12 12//137 18//132
f 18//132 19//10 21//12
f 12//137 28//20 18//132
f 24//22 30//15 23//14
f 17//13 22//120 23//14
f 30//15 25//17 17//13
f 36//18 9//9 25//17
f 13//148 14//150 15//16
f 157//149 158//119 16//118
f 9//9 13//148 25//17
f 15//16 157//149 16//118
f 16//118 17//13 15//16
f 25//17 13//148 15//16
f 32//24 30//15 24//22
f 24//22 27//143 31//23
f 94//72 99//25 100//27
f 38//128 33//35 37//34
f 28//20 43//39 37//34
f 41//151 39//38 40//37
f 45//36 30//15 35//32
f 35//32 40//37 45//36
f 49//126 46//42 47//41
f 36//18 30//15 46//42
f 47//41 48//153 49//126
f 142//46 44//40 50//44
f 43//39 50//44 44//40
f 53//154 54//142 55//48
f 65//49 30//15 45//36
f 52//47 53//154 55//48
f 65//49 45//36 52//47
f 64//52 30//15 56//50
f 56//50 57//127 58//51
f 47//41 30//15 64//52
f 140//123 48//153 139//117
f 61//54 139//117 48//153
f 64//52 145//53 47//41
f 48//153 47//41 61//54
f 71//63 68//57 70//124
f 36//18 60//56 67//58
f 68//57 69//122 70//124
f 71//63 67//58 68//57
f 145//53 64//52 72//155
f 63//60 43//39 76//61
f 138//111 78//62 77//121
f 76//61 77//121 78//62
f 80//113 79//64 71//63
f 71//63 135//109 80//113
f 36//18 67//58 83//66
f 81//68 82//65 67//58
f 43//39 36//18 83//66
f 83//66 84//103 76//61
f 86//112 81//68 85//67
f 67//58 79//64 81//68
f 34//133 29//21 33//35
f 115//86 114//73 122//75
f 12//137 6//4 28//20
f 138//111 84//103 82//65
f 86//112 135//109 138//111
f 138//111 82//65 86//112
f 134//110 137//116 145//53
f 17//13 16//118 22//120
f 71//63 70//124 139//117
f 140//123 139//117 70//124
f 137//116 135//109 139//117
f 78//62 138//111 51//45
f 51//45 50//44 63//60
f 48//153 140//123 68//57
f 68//57 60//56 49//126
f 49//126 48//153 68//57
f 134//110 145//53 58//51
f 72//155 64//52 58//51
f 57//127 141//129 134//110
f 72//155 58//51 145//53
f 37//34 44//40 142//46
f 142//46 138//111 143//125
f 143//125 38//128 142//46
f 33//35 38//128 34//133
f 143//125 146//135 147//130
f 34//133 38//128 147//130
f 66//131 148//134 141//129
f 56//50 65//49 66//131
f 29//21 34//133 18//132
f 147//130 19//10 34//133
f 18//132 26//19 29//21
f 55//48 150//138 148//134
f 66//131 65//49 55//48
f 20//11 19//10 147//130
f 147//130 146//135 20//11
f 21//12 153//2 7//5
f 6//4 12//137 7//5
f 39//38 41//151 53//154
f 54//142 53//154 41//151
f 52//47 59//55 39//38
f 39//38 53//154 52//47
f 32//24 31//23 35//32
f 40//37 35//32 31//23
f 150//138 54//142 31//23
f 150//138 31//23 27//143
f 23//14 22//120 151//139
f 158//119 151//139 22//120
f 150//138 24//22 23//14
f 4//3 153//2 154//146
f 5//7 1//144 10//8
f 154//146 10//8 4//3
f 11//147 154//146 158//119
f 13//148 9//9 11//147
s 2
f 145//53 73//156 74//157
f 145//53 74//157 73//156
s 3
f 74//157 145//53 75//158
f 74//157 75//158 145//53
s 4
f 145//53 72//155 73//156
f 145//53 73//156 72//155
