# Blender v2.76 (sub 0) OBJ File: 'spines-modeling-2.blend'
# www.blender.org
mtllib spine-16-lr.mtl
o spine-16-lr_Cube.065
v 0.126017 0.056648 0.148812
v 0.214881 0.136047 0.139156
v 0.095730 0.236388 0.157448
v 0.072849 0.153870 0.166864
v 0.134184 0.219198 0.165076
v 0.123674 0.215194 0.164622
v 0.135866 0.232485 0.160585
v 0.163564 0.201595 0.122531
v 0.241889 0.150839 0.063039
v 0.227983 0.097532 0.112020
v -0.110018 0.213684 0.144903
v -0.211245 0.202883 0.125128
v -0.261656 0.105282 0.116052
v -0.217931 0.052090 0.102709
v -0.277789 0.099495 0.095037
v -0.258244 0.156049 0.119267
v -0.289357 0.136331 0.106810
v -0.249011 0.168379 0.103028
v -0.271282 0.136872 0.097670
v -0.155626 0.147276 0.144339
v -0.189159 0.194037 0.117390
v -0.137576 0.157591 0.059206
v -0.158932 0.215644 0.117102
v 0.034957 0.220834 0.162396
v -0.108600 0.051327 0.141206
v -0.165808 0.065950 0.060271
v -0.048033 0.017378 0.100798
v 0.013963 0.013247 0.143646
v 0.033715 0.052306 0.163307
v 0.038333 0.017024 0.146530
v 0.067691 0.017945 0.128767
v -0.036462 0.223927 0.116222
v 0.070725 0.169729 0.015585
v 0.156875 0.132627 -0.098853
v 0.020451 0.046341 0.001420
v 0.099397 0.076259 -0.100618
v 0.064251 0.096124 -0.064973
v 0.141934 0.052170 0.055422
v 0.230921 0.115633 -0.026588
v 0.205152 0.161500 -0.014598
v 0.152406 0.074416 -0.095246
v 0.234289 0.123301 -0.133526
v 0.196987 0.110158 -0.169746
v 0.213106 0.093470 -0.158631
v 0.115989 0.091798 -0.112893
v 0.112560 0.087372 -0.132020
v 0.156812 0.108518 -0.171583
v 0.194973 0.096735 -0.202221
v 0.210154 0.109893 -0.258830
v 0.236166 0.104677 -0.329923
v 0.248372 0.108662 -0.273328
v 0.264912 0.115872 -0.346645
v 0.269475 0.102031 -0.357029
v 0.233324 0.142074 -0.445763
v 0.245235 0.100951 -0.455772
v 0.270411 0.115721 -0.389988
v 0.292123 0.118724 -0.409182
v 0.283625 0.164078 -0.500371
v 0.308758 0.122095 -0.523744
v 0.305112 0.195357 -0.642543
v 0.193800 0.116840 -0.516776
v 0.185544 0.094818 -0.662495
v 0.287916 0.083758 -0.635775
v 0.218657 0.212969 -0.592176
v 0.162137 0.162941 -0.606905
v 0.154761 0.216665 -0.688044
v 0.208352 0.227247 -0.736511
v 0.239006 0.074383 -0.774027
v 0.134028 0.084824 -0.908765
v 0.349147 0.106288 -0.661295
v 0.355783 0.146960 -0.734668
v 0.324722 0.102821 -0.769775
v 0.264760 0.098147 -0.911044
v 0.132351 0.166981 -0.784319
v 0.057860 0.159751 -0.926188
v 0.087380 0.226347 -0.949480
v 0.178572 0.217326 -0.854203
v 0.284677 0.182482 -0.848655
v 0.186065 0.227500 -0.946375
v 0.292388 0.137777 -1.010834
v 0.269266 0.099493 -1.048836
v 0.250067 0.166872 -1.094065
v 0.170289 0.044185 -1.082425
v -0.022372 0.200709 -1.047869
v 0.010854 0.124659 -1.002003
v 0.095570 0.250259 -1.051620
v -0.036024 0.246531 -1.216430
v -0.077369 0.088990 -1.165264
v -0.143536 0.062748 -1.329351
v -0.099060 -0.010336 -1.309253
v -0.111831 0.176040 -1.206422
v -0.139387 0.174249 -1.357164
v 0.026385 0.005070 -1.186925
v 0.239513 0.067684 -1.168951
v 0.280809 0.121332 -1.080241
v 0.205969 0.175259 -1.273685
v 0.184780 0.223967 -1.157889
v 0.112126 0.235492 -1.240383
v 0.124375 -0.031160 -1.309444
v 0.084820 0.228929 -1.370627
v -0.078330 0.240435 -1.412458
v 0.034115 0.294425 -1.508431
v 0.015182 0.351235 -1.616356
v -0.165359 0.067402 -1.484503
v -0.163911 0.180187 -1.492844
v -0.179981 0.104743 -1.606714
v -0.035388 -0.069018 -1.427589
v -0.138140 -0.022774 -1.441283
v -0.113762 -0.051730 -1.598479
v -0.047175 -0.080317 -1.716288
v -0.103814 0.255788 -1.569587
v -0.062857 0.300799 -1.714560
v -0.155000 0.179659 -1.715707
v -0.004676 0.291052 -1.824560
v 0.281523 0.121060 -1.080605
v 0.250902 0.076241 -1.334692
v 0.223214 -0.012404 -1.392497
v 0.206068 0.139022 -1.442081
v 0.152350 0.240606 -1.527644
v 0.256075 0.010616 -1.459219
v 0.127627 0.349234 -1.644007
v 0.125718 -0.083139 -1.553202
v 0.240006 0.049271 -1.512791
v 0.214651 0.126184 -1.602242
v 0.192123 -0.005966 -1.654880
v -0.006726 -0.112410 -1.577583
v 0.013644 -0.107925 -1.655746
v 0.089551 -0.068715 -1.722924
v 0.110617 -0.005576 -1.839442
v 0.230673 -0.028463 -1.537970
v 0.163623 -0.012553 -1.757132
v 0.208091 0.252909 -1.699280
v 0.053345 0.368001 -1.738056
v 0.087940 0.313769 -1.835556
v 0.159492 0.341761 -1.766027
v 0.030181 0.151115 -1.892610
v 0.058702 0.214503 -1.882065
v -0.064924 0.161910 -1.844879
v 0.196134 0.089065 -1.775263
v 0.170909 0.236729 -1.832121
v 0.099411 0.110256 -1.884396
v -0.143704 -0.014955 -1.744028
v -0.158762 0.075839 -1.809175
v -0.099960 0.020366 -1.854970
v -0.021456 -0.048926 -1.817000
v 0.028900 0.003274 -1.893129
vn 0.070200 -0.017700 0.997300
vn 0.607700 0.557900 0.565100
vn 0.022500 0.191900 0.981100
vn -0.562500 0.363600 0.742500
vn -0.208200 0.059100 0.976300
vn -0.669900 0.742200 0.018000
vn 0.631100 0.159900 0.759000
vn 0.498800 0.822400 0.273600
vn 0.566500 0.712200 0.414400
vn 0.062100 0.930200 0.361600
vn 0.809600 -0.543300 0.222100
vn 0.968500 0.248600 -0.010400
vn 0.383400 -0.593000 0.708000
vn -0.469800 -0.875700 0.111000
vn -0.474300 -0.283200 0.833500
vn -0.830800 -0.445200 -0.334000
vn -0.896400 0.390400 0.209900
vn -0.680000 0.304300 -0.667100
vn -0.156800 0.647900 0.745400
vn -0.151400 0.539800 0.828100
vn -0.086500 0.965900 -0.244000
vn -0.236700 0.931000 -0.277900
vn -0.298300 -0.450600 -0.841400
vn -0.164600 -0.984500 -0.060600
vn -0.195000 -0.524000 0.829100
vn -0.264200 0.434700 -0.860900
vn -0.222800 0.861200 0.456800
vn 0.025300 -0.919900 0.391300
vn 0.161300 -0.941500 -0.295800
vn -0.009200 -0.217500 0.976000
vn -0.533200 0.705600 -0.466500
vn 0.390800 -0.917400 -0.075700
vn 0.241500 -0.954600 0.174400
vn -0.573000 0.028000 -0.819100
vn -0.219800 -0.818300 -0.531100
vn 0.421900 0.871100 -0.251400
vn -0.250300 0.889400 -0.382500
vn -0.102500 0.857900 -0.503500
vn 0.951000 -0.307700 -0.030700
vn -0.328900 -0.923400 -0.197700
vn 0.175000 -0.971900 -0.157200
vn 0.919800 0.306000 -0.245600
vn -0.854900 -0.203300 -0.477200
vn -0.054500 -0.988200 -0.142800
vn -0.214700 0.939400 -0.267200
vn 0.932900 0.057700 0.355500
vn -0.607500 0.289700 -0.739500
vn -0.550300 0.584400 -0.596200
vn -0.749500 0.606700 -0.264700
vn -0.948200 -0.310300 -0.068200
vn 0.824400 -0.055400 0.563300
vn 0.532800 0.777900 0.333100
vn -0.632600 0.585800 0.506600
vn 0.653400 -0.731000 0.196500
vn 0.557300 0.774700 0.298700
vn -0.304400 -0.932300 0.195200
vn 0.922700 -0.294300 0.248900
vn 0.621600 0.770800 0.139200
vn 0.887600 -0.431900 0.159700
vn 0.909800 0.361600 -0.203800
vn 0.182100 -0.978000 0.102000
vn -0.024000 0.996300 -0.081800
vn -0.176900 0.928200 0.327300
vn -0.687600 0.719000 0.100800
vn -0.941700 0.121800 0.313600
vn -0.953700 0.228100 0.195800
vn -0.358000 -0.885300 0.296900
vn 0.063800 -0.997900 -0.012300
vn -0.586800 -0.798300 0.135700
vn -0.774500 0.014900 0.632400
vn -0.140400 0.979400 0.145100
vn 0.708500 -0.640200 -0.296900
vn 0.646200 -0.762900 -0.018500
vn 0.959000 0.222900 -0.175200
vn 0.764600 0.612200 -0.201200
vn -0.841200 -0.413800 0.347800
vn -0.746500 -0.407000 0.526300
vn -0.755300 -0.427300 0.496800
vn -0.223500 -0.890600 0.396100
vn 0.278100 0.960500 0.004400
vn -0.395200 0.815400 0.423000
vn 0.756100 0.628700 -0.181900
vn 0.994000 0.077000 -0.076900
vn -0.748500 0.481200 0.456200
vn -0.888700 0.327600 0.320600
vn -0.338100 0.936600 0.091900
vn 0.708000 -0.706200 0.008600
vn 0.268700 -0.942900 0.196700
vn 0.817100 -0.571200 0.077800
vn 0.987100 0.157200 -0.029800
vn 0.697600 0.692800 -0.182500
vn 0.504700 0.861900 -0.048800
vn 0.261400 0.956800 -0.126800
vn 0.015700 0.995300 0.095100
vn 0.044400 -0.422700 -0.905200
vn -0.519400 -0.336300 -0.785500
vn -0.527300 0.312200 -0.790200
vn 0.326900 0.941200 0.085100
vn -0.413600 0.893900 0.172600
vn -0.946400 -0.188300 0.262200
vn 0.027100 0.908600 0.416700
vn 0.469500 0.835400 0.285700
vn -0.261500 0.928300 0.264200
vn -0.891700 0.423300 0.160100
vn -0.984500 -0.158900 0.073500
vn -0.909300 0.407800 0.083200
vn -0.999500 0.010300 -0.030500
vn -0.584300 -0.717900 0.378300
vn -0.196900 -0.953900 0.226600
vn -0.773000 -0.623400 0.117700
vn -0.707000 -0.707000 0.012800
vn -0.684800 0.721200 0.104700
vn -0.676700 0.705100 -0.212100
vn -0.891700 0.386900 -0.234700
vn -0.494700 0.587000 -0.640900
vn 0.636700 -0.741200 0.212500
vn 0.996600 0.079300 -0.021200
vn 0.968700 -0.248300 -0.007000
vn 0.989400 0.142900 -0.026100
vn 0.955800 0.293400 0.016000
vn 0.712600 0.624800 0.318900
vn 0.832000 0.554700 -0.004500
vn 0.969800 0.160100 -0.183900
vn -0.292500 -0.925500 -0.240500
vn 0.349200 -0.892000 -0.287100
vn -0.017900 -0.981700 -0.189700
vn 0.526200 -0.586100 -0.616100
vn 0.724700 -0.606500 -0.326900
vn 0.801400 -0.570500 -0.179600
vn -0.164200 -0.983800 0.071500
vn 0.351200 -0.936200 0.013900
vn 0.606800 0.740400 -0.288900
vn 0.094500 0.648800 -0.755100
vn -0.000400 0.293800 -0.955900
vn 0.907000 -0.158800 -0.390000
vn 0.375300 -0.072000 -0.924100
vn 0.724500 0.206500 -0.657600
vn -0.272100 -0.223900 -0.935900
vn 0.960100 -0.212400 -0.181700
vn -0.155900 0.967000 -0.201400
vn 0.209700 -0.942000 0.261900
vn 0.840100 -0.493500 -0.225000
vn -0.888500 0.035600 -0.457500
vn -0.804600 -0.557500 -0.204500
vn -0.142900 -0.868100 -0.475300
vn 0.436300 -0.866100 -0.243900
usemtl sample
s 1
f 4//1 5//2 6//3
f 16//4 20//5 21//6
f 4//1 2//7 8//8
f 8//8 6//3 5//2
f 6//3 8//8 7//9
f 3//10 5//2 7//9
f 10//11 9//12 2//7
f 2//7 1//13 10//11
f 2//7 9//12 8//8
f 14//14 13//15 15//16
f 16//4 17//17 19//18
f 20//5 11//19 21//6
f 11//19 4//1 24//20
f 24//20 32//21 11//19
f 32//21 23//22 11//19
f 26//23 27//24 14//14
f 14//14 27//24 25//25
f 19//18 22//26 26//23
f 11//19 12//27 21//6
f 28//28 30//29 29//30
f 20//5 13//15 25//25
f 16//4 12//27 18//31
f 13//15 16//4 19//18
f 13//15 17//17 15//16
f 26//23 14//14 15//16
f 27//24 38//32 31//33
f 30//29 27//24 31//33
f 22//26 37//34 35//35
f 1//13 29//30 30//29
f 1//13 28//28 31//33
f 40//36 34//37 33//38
f 38//32 39//39 9//12
f 37//34 36//40 41//41
f 42//42 39//39 41//41
f 46//43 48//44 41//41
f 39//39 42//42 40//36
f 43//45 42//42 51//46
f 36//40 46//43 45//47
f 31//33 38//32 1//13
f 45//47 46//43 37//34
f 37//34 46//43 36//40
f 38//32 35//35 41//41
f 33//38 37//34 22//26
f 43//45 47//48 34//37
f 34//37 45//47 37//34
f 33//38 32//21 3//10
f 43//45 49//49 47//48
f 4//1 25//25 29//30
f 48//44 51//46 42//42
f 48//44 50//50 51//46
f 47//48 49//49 48//44
f 4//1 29//30 1//13
f 10//11 1//13 38//32
f 57//51 58//52 54//53
f 8//8 40//36 33//38
f 53//54 52//55 51//46
f 50//50 55//56 53//54
f 55//56 59//57 57//51
f 60//58 59//57 70//59
f 51//46 50//50 53//54
f 52//55 56//60 54//53
f 54//53 55//56 50//50
f 52//55 54//53 50//50
f 53//54 57//51 52//55
f 56//60 57//51 53//54
f 52//55 57//51 56//60
f 59//57 55//56 63//61
f 60//58 67//62 64//63
f 64//63 66//64 65//65
f 65//65 66//64 74//66
f 69//67 68//68 62//69
f 75//70 74//66 77//71
f 63//61 72//72 70//59
f 68//68 73//73 72//72
f 63//61 68//68 72//72
f 71//74 72//72 78//75
f 54//53 65//65 61//76
f 85//77 88//78 93//79
f 77//71 74//66 67//62
f 77//71 79//80 76//81
f 78//75 82//82 79//80
f 73//73 80//83 78//75
f 80//83 82//82 78//75
f 60//58 78//75 67//62
f 76//81 84//84 75//70
f 75//70 84//84 85//77
f 91//85 88//78 84//84
f 84//84 87//86 91//85
f 81//87 83//88 94//89
f 94//89 95//90 81//87
f 82//82 96//91 97//92
f 96//91 98//93 97//92
f 86//94 97//92 98//93
f 146//95 144//96 138//97
f 100//98 101//99 87//86
f 85//77 84//84 88//78
f 88//78 91//85 89//100
f 86//94 82//82 97//92
f 102//101 121//102 103//103
f 89//100 92//104 104//105
f 105//106 104//105 92//104
f 92//104 101//99 105//106
f 105//106 106//107 104//105
f 93//79 90//108 107//109
f 108//110 104//105 109//111
f 108//110 107//109 90//108
f 102//101 111//112 101//99
f 112//113 138//97 113//114
f 103//103 112//113 111//112
f 112//113 114//115 138//97
f 117//116 116//117 94//89
f 116//117 82//82 94//89
f 120//118 116//117 117//116
f 124//119 132//120 119//121
f 119//121 132//120 121//102
f 118//122 123//123 124//119
f 110//124 128//125 127//126
f 128//125 129//127 131//128
f 120//118 130//129 123//123
f 126//130 127//126 122//131
f 121//102 132//120 135//132
f 134//133 137//134 114//115
f 137//134 138//97 114//115
f 139//135 132//120 124//119
f 139//135 141//136 140//137
f 141//136 137//134 140//137
f 132//120 140//137 135//132
f 138//97 137//134 136//138
f 140//137 132//120 139//135
f 95//90 115//139 82//82
f 95//90 115//139 81//87
f 96//91 118//122 100//98
f 109//111 127//126 126//130
f 134//133 114//115 133//140
f 122//131 130//129 117//116
f 99//141 122//131 117//116
f 130//129 120//118 117//116
f 3//10 24//20 6//3
f 119//121 118//122 124//119
f 131//128 139//135 125//142
f 125//142 139//135 124//119
f 143//143 138//97 144//96
f 142//144 145//145 110//124
f 144//96 146//95 145//145
f 113//114 143//143 142//144
f 143//143 144//96 142//144
f 144//96 145//145 142//144
f 106//107 142//144 109//111
f 141//136 138//97 136//138
f 51//46 52//55 49//49
f 81//87 115//139 80//83
f 80//83 115//139 95//90
f 75//70 69//67 74//66
f 73//73 78//75 72//72
f 2//7 4//1 1//13
f 24//20 4//1 6//3
f 7//9 8//8 3//10
f 5//2 4//1 8//8
f 5//2 6//3 7//9
f 32//21 24//20 3//10
f 12//27 11//19 23//22
f 17//17 16//4 18//31
f 17//17 18//31 19//18
f 17//17 19//18 15//16
f 25//25 4//1 20//5
f 23//22 32//21 22//26
f 21//6 23//22 22//26
f 4//1 11//19 20//5
f 12//27 23//22 21//6
f 13//15 14//14 25//25
f 19//18 18//31 22//26
f 21//6 22//26 18//31
f 17//17 13//15 19//18
f 13//15 20//5 16//4
f 21//6 18//31 12//27
f 28//28 25//25 27//24
f 28//28 27//24 30//29
f 28//28 1//13 30//29
f 28//28 30//29 31//33
f 35//35 37//34 41//41
f 38//32 41//41 39//39
f 9//12 39//39 40//36
f 42//42 43//45 34//37
f 40//36 42//42 34//37
f 46//43 45//47 47//48
f 46//43 47//48 48//44
f 41//41 48//44 43//45
f 41//41 43//45 44//146
f 43//45 48//44 44//146
f 41//41 36//40 45//47
f 38//32 27//24 35//35
f 33//38 34//37 37//34
f 45//47 34//37 47//48
f 27//24 26//23 35//35
f 48//44 49//49 50//50
f 32//21 33//38 22//26
f 44//146 48//44 42//42
f 8//8 9//12 40//36
f 57//51 59//57 58//52
f 53//54 55//56 56//60
f 58//52 59//57 60//58
f 55//56 62//69 63//61
f 55//56 61//76 62//69
f 54//53 64//63 65//65
f 54//53 58//52 64//63
f 74//66 69//67 62//69
f 65//65 74//66 62//69
f 59//57 63//61 70//59
f 60//58 71//74 78//75
f 72//72 71//74 70//59
f 68//68 69//67 73//73
f 65//65 62//69 61//76
f 63//61 62//69 68//68
f 55//56 54//53 61//76
f 58//52 60//58 64//63
f 66//64 67//62 74//66
f 79//80 82//82 86//94
f 73//73 81//87 80//83
f 78//75 79//80 77//71
f 76//81 79//80 86//94
f 67//62 78//75 77//71
f 73//73 69//67 83//88
f 75//70 85//77 69//67
f 86//94 87//86 84//84
f 89//100 91//85 92//104
f 91//85 87//86 92//104
f 87//86 101//99 92//104
f 69//67 93//79 83//88
f 93//79 107//109 99//141
f 83//88 99//141 94//89
f 83//88 93//79 99//141
f 98//93 96//91 100//98
f 88//78 90//108 93//79
f 84//84 76//81 86//94
f 98//93 100//98 87//86
f 101//99 100//98 102//101
f 100//98 119//121 102//101
f 88//78 89//100 90//108
f 90//108 89//100 108//110
f 107//109 109//111 126//130
f 108//110 109//111 107//109
f 104//105 106//107 109//111
f 108//110 89//100 104//105
f 101//99 111//112 105//106
f 103//103 121//102 133//140
f 133//140 112//113 103//103
f 111//112 113//114 106//107
f 111//112 106//107 105//106
f 111//112 112//113 113//114
f 112//113 133//140 114//115
f 115//139 94//89 82//82
f 94//89 99//141 117//116
f 116//117 118//122 96//91
f 119//121 100//98 118//122
f 116//117 120//118 123//123
f 118//122 116//117 123//123
f 82//82 116//117 96//91
f 123//123 125//142 124//119
f 128//125 145//145 129//127
f 128//125 110//124 145//145
f 122//131 127//126 128//125
f 122//131 125//142 130//129
f 130//129 125//142 123//123
f 122//131 128//125 125//142
f 128//125 131//128 125//142
f 135//132 140//137 134//133
f 121//102 135//132 133//140
f 133//140 135//132 134//133
f 131//128 129//127 139//135
f 129//127 141//136 139//135
f 137//134 134//133 140//137
f 136//138 137//134 141//136
f 95//90 94//89 115//139
f 102//101 119//121 121//102
f 107//109 122//131 99//141
f 109//111 110//124 127//126
f 122//131 107//109 126//130
f 102//101 103//103 111//112
f 129//127 145//145 146//95
f 110//124 109//111 142//144
f 113//114 138//97 143//143
f 146//95 141//136 129//127
f 52//55 50//50 49//49
f 80//83 95//90 82//82
f 64//63 67//62 66//64
f 73//73 83//88 81//87
f 12//27 16//4 21//6
f 15//16 19//18 26//23
f 25//25 28//28 29//30
f 26//23 22//26 35//35
f 10//11 38//32 9//12
f 44//146 42//42 41//41
f 45//47 46//43 41//41
f 49//49 43//45 51//46
f 8//8 33//38 3//10
f 56//60 57//51 54//53
f 56//60 55//56 57//51
f 71//74 60//58 70//59
f 76//81 75//70 77//71
f 69//67 85//77 93//79
f 87//86 86//94 98//93
f 141//136 146//95 138//97
f 5//2 3//10 6//3
f 106//107 113//114 142//144
