# Blender v2.76 (sub 0) OBJ File: 'spines-modeling-2.blend'
# www.blender.org
mtllib spine-24-lr.mtl
o spine-24-lr_Cube.037
v -0.548604 -0.025436 0.058274
v -0.579796 -0.031760 -0.011960
v -0.498622 -0.017156 -0.095591
v -0.393190 -0.022994 0.122485
v 0.198615 -0.100790 0.043346
v -0.089797 -0.095120 -0.063800
v -0.098015 0.021196 0.133286
v 0.154301 -0.033998 -0.160382
v 0.053968 -0.009515 -0.476743
v -0.067410 0.038542 -0.291182
v 0.117633 -0.002174 -0.724838
v 0.086607 -0.007423 -0.876758
v 0.081454 0.013510 -1.022936
v 0.080398 0.115847 -1.141660
v -0.207991 -0.017594 -0.239778
v -0.438301 0.054669 0.078484
v -0.406818 0.096140 -0.010463
v -0.195203 0.100176 0.075550
v -0.288318 0.092179 -0.104277
v 0.015689 0.106906 -0.008289
v 0.091915 0.017227 -0.504442
v 0.094398 0.019982 -0.379729
v 0.148502 0.043090 -0.189625
v -0.009358 0.026667 -1.142527
v 0.107112 -0.051684 -1.104348
v 0.093973 -0.297467 -1.512250
v 0.012679 -0.116663 -1.271722
v -0.125781 0.019696 -1.387498
v -0.019745 -0.403885 -1.878715
v -0.259897 -0.302149 -1.974488
v -0.370003 -0.125334 -2.014593
v 0.142464 -0.378253 -1.923046
v 0.124924 0.052613 -2.156755
v -0.005230 -0.264708 -2.018787
v -0.334015 -0.007181 -1.927873
v 0.254040 0.345335 -1.429580
v -0.198565 0.173882 -1.690137
v 0.126609 0.442671 -1.642618
v -0.078488 0.342547 -1.567473
v -0.064754 0.112454 -2.159633
v 0.029227 0.303446 -2.138852
v 0.157865 0.237621 -2.177563
v 0.396147 -0.060944 0.049964
v 0.400717 0.004869 0.083768
v 0.241634 -0.059102 0.113449
v 0.298611 -0.060978 -0.052951
v 0.351464 0.072308 0.037095
v 0.330525 0.073128 -0.053455
v 0.214993 -0.214433 -1.393431
v 0.464601 -0.170100 -1.532214
v 0.579208 -0.212899 -1.737059
v 0.337087 -0.213520 -1.980164
v 0.406632 0.455227 -1.640800
v 0.650355 0.441976 -1.778173
v 0.789729 0.198527 -1.688251
v 0.390665 -0.002533 -2.061785
v 0.245918 0.395922 -2.113867
v 0.294840 0.503550 -2.018336
v 0.143331 -0.409170 -1.767547
v 0.176322 0.495190 -1.926793
v 0.076273 0.418577 -2.056922
v -0.238875 -0.068884 -1.659899
v -0.414183 -0.080125 0.070020
v -0.117196 -0.076513 0.103613
v -0.457621 -0.071915 -0.040251
v -0.003881 -0.046697 -0.301339
v 0.064802 -0.029562 -0.268356
v -0.558430 0.030410 -0.011344
v -0.410024 0.047593 -0.126489
v -0.323339 -0.203619 -1.907255
v -0.127727 -0.133264 -1.433953
v -0.065506 -0.227693 -1.456515
v -0.081881 -0.346474 -1.704384
v -0.192506 -0.232841 -1.650985
v -0.288219 -0.210846 -2.034743
v -0.187366 -0.030482 -2.124714
v -0.091522 0.197477 -1.368610
v 0.011436 0.322708 -1.393443
v -0.304606 0.008157 -2.069853
v -0.192238 0.214766 -2.004437
v 0.436260 0.010732 -0.007755
v 0.344769 0.016682 -0.103090
v 0.332911 -0.334852 -1.648489
v 0.626896 -0.073515 -1.882615
v 0.373440 -0.327738 -1.839350
v 0.514165 0.239681 -1.475697
v 0.387525 0.510949 -1.854936
v 0.746895 0.012484 -1.713045
v 0.591714 0.387673 -1.616062
v 0.752530 0.332201 -1.673858
v 0.517957 0.425462 -1.965091
v 0.770317 0.332647 -1.832351
v 0.378324 0.233033 -2.110096
v 0.102566 -0.014393 -0.470036
v 0.096294 -0.007625 -0.867875
v 0.093092 0.002822 -0.878227
v 0.118704 -0.006978 -0.756663
v 0.063004 -0.001366 -0.941625
v 0.131048 0.007318 -0.628335
v -0.250022 -0.314601 -1.855775
v -0.170040 -0.362607 -1.902156
v 0.158703 0.078470 0.095398
v 0.543434 0.042593 -1.477463
v 0.158085 0.015065 -1.136089
v 0.709733 0.179255 -1.902483
v 0.079780 -0.007401 -0.894759
v 0.080669 -0.006132 -0.891726
v 0.080765 -0.005340 -0.891125
v 0.109531 -0.008533 -0.826442
v 0.109392 -0.007659 -0.827898
v 0.105018 -0.005308 -0.846294
v 0.105547 -0.008489 -0.831673
v 0.104021 -0.004537 -0.848514
v 0.076394 -0.014874 -0.925534
v 0.080951 -0.004759 -0.890497
v -0.050666 0.376030 -1.853697
vn -0.413700 0.603700 -0.681500
vn -0.576000 -0.215900 -0.788400
vn -0.761800 0.642800 -0.080000
vn -0.259500 0.965700 -0.002300
vn -0.320300 0.674100 0.665500
vn -0.194600 -0.131300 0.972000
vn -0.204600 -0.891000 0.405300
vn -0.016400 -0.766600 0.641900
vn -0.011100 0.168500 0.985600
vn 0.145100 -0.449400 0.881500
vn -0.691600 -0.456200 -0.560000
vn -0.408400 -0.449100 -0.794600
vn -0.202600 0.896500 -0.394000
vn 0.807200 0.589600 0.028300
vn 0.480700 0.578800 -0.658800
vn 0.486500 -0.860100 -0.153200
vn 0.924600 0.371800 -0.082600
vn 0.398200 0.860100 0.318700
vn -0.933700 0.358000 0.007800
vn -0.819500 -0.352000 0.452200
vn -0.333000 -0.914100 0.231300
vn 0.715400 -0.657800 -0.235500
vn 0.467400 -0.760700 -0.450300
vn 0.859500 0.463200 0.215900
vn -0.954100 -0.062600 0.292900
vn 0.844900 0.516100 -0.140200
vn 0.142800 0.988000 0.058700
vn 0.691400 -0.716300 -0.094100
vn -0.681100 -0.566900 0.463300
vn -0.833200 -0.245000 0.495800
vn -0.964600 -0.054400 0.257900
vn 0.893900 -0.173100 0.413500
vn 0.184600 -0.770900 0.609600
vn 0.710800 0.078900 0.699000
vn 0.982600 0.166800 0.081300
vn -0.022400 0.705100 0.708800
vn -0.227100 0.964100 -0.137100
vn -0.927100 -0.160200 -0.338800
vn -0.926100 -0.335100 0.173000
vn -0.945900 0.295400 0.134200
vn -0.118900 0.947600 -0.296500
vn 0.053000 0.997900 -0.036000
vn -0.056000 0.865700 0.497400
vn -0.053300 -0.876700 0.478000
vn -0.474600 -0.689600 0.547000
vn -0.443400 -0.731600 0.517800
vn 0.085100 -0.989400 0.117700
vn -0.348400 -0.868700 0.352100
vn -0.141800 -0.956200 -0.256100
vn -0.687600 -0.691000 0.223100
vn -0.515700 -0.722000 -0.461200
vn 0.107800 0.714300 0.691400
vn 0.170300 -0.810300 -0.560700
vn 0.031100 -0.553400 -0.832300
vn -0.276800 -0.934000 -0.225600
vn -0.654600 0.727800 0.204400
vn -0.617300 0.786000 -0.033700
vn -0.890100 0.412800 0.193100
vn -0.221100 0.943000 0.248600
vn -0.331200 0.789000 0.517500
vn 0.159300 0.777900 0.607800
vn 0.126200 0.494000 -0.860300
vn 0.081500 0.114800 -0.990000
vn -0.362900 0.465300 -0.807300
vn -0.400900 0.777100 -0.485200
vn -0.022500 -0.991900 -0.124600
vn -0.263600 -0.933200 -0.244300
vn 0.615700 -0.754500 0.226800
vn 0.090900 -0.989300 0.113600
vn 0.685200 -0.727200 0.041800
vn 0.907400 -0.399700 0.129300
vn 0.575300 -0.587000 0.569600
vn 0.965100 0.087600 -0.246600
vn 0.638000 0.168700 0.751300
vn 0.597600 0.000100 -0.801800
vn 0.356900 0.872900 -0.332700
vn 0.216300 -0.803000 0.555300
vn 0.349600 -0.879600 0.322600
vn 0.676700 -0.455100 -0.578700
vn 0.453700 -0.834400 -0.312900
vn 0.342000 -0.520800 -0.782100
vn 0.737300 -0.094600 -0.668900
vn 0.519500 0.334500 0.786300
vn 0.364100 0.714000 0.598000
vn 0.113500 0.910900 0.396600
vn 0.138000 0.990400 0.004800
vn 0.382300 -0.303100 -0.872900
vn 0.128100 -0.274300 -0.953000
vn 0.417000 0.060200 -0.906900
vn 0.473100 0.611900 -0.633800
vn 0.095300 0.873400 -0.477600
vn 0.633300 -0.773200 0.033000
vn -0.290100 0.955600 -0.051100
vn -0.925800 -0.017900 0.377400
vn -0.898800 -0.030500 0.437200
vn -0.791900 0.404900 0.457100
vn 0.354000 -0.724200 -0.591800
vn 0.017000 -0.984200 -0.176200
vn -0.239200 -0.183200 -0.953500
vn -0.781800 -0.339200 0.523100
vn -0.486900 -0.509000 -0.709800
vn -0.731500 0.263500 -0.628900
vn -0.729400 0.598100 -0.331900
vn -0.292000 0.118400 -0.949000
vn 0.668800 -0.180600 0.721100
vn 0.314800 -0.838600 -0.444600
vn 0.743800 0.472700 0.472500
vn 0.954200 -0.056700 0.293600
vn 0.848100 0.363100 -0.385800
vn 0.458400 0.888600 0.013700
vn -0.594200 -0.710700 0.376500
vn -0.706600 -0.250500 0.661800
vn -0.909600 -0.395700 -0.126400
vn 0.371900 0.881000 0.292400
vn -0.842600 -0.035300 0.537300
vn -0.754200 -0.500700 0.424800
usemtl sample
s 1
f 69//1 3//2 68//3
f 17//4 68//3 16//5
f 4//6 63//7 64//8
f 64//8 7//9 4//6
f 7//9 64//8 45//10
f 9//11 15//12 10//13
f 22//14 23//15 67//16
f 99//17 96//18 11//19
f 12//20 114//21 95//22
f 12//20 109//23 110//24
f 12//20 95//22 112//25
f 12//20 110//24 111//26
f 12//20 111//26 113//27
f 110//24 109//23 95//22
f 95//22 109//23 112//25
f 97//28 95//22 96//18
f 107//29 108//30 98//31
f 98//31 108//30 115//32
f 25//33 104//34 13//35
f 13//35 104//34 14//36
f 15//12 69//1 10//13
f 21//37 11//19 9//11
f 4//6 7//9 16//5
f 31//38 70//39 35//40
f 17//4 19//41 69//1
f 20//42 17//4 18//43
f 19//41 10//13 69//1
f 22//14 10//13 23//15
f 22//14 21//37 10//13
f 26//44 27//45 72//46
f 59//47 73//48 29//49
f 100//50 70//39 30//51
f 102//52 7//9 45//10
f 32//53 59//47 29//49
f 34//54 32//53 29//49
f 34//54 29//49 101//55
f 39//56 116//57 37//58
f 38//59 78//60 36//61
f 57//62 42//63 41//64
f 41//64 61//65 57//62
f 6//66 65//67 15//12
f 43//68 45//10 5//69
f 51//70 88//71 50//72
f 43//68 81//73 44//74
f 81//73 82//75 48//76
f 49//77 25//33 27//45
f 50//72 49//77 83//78
f 84//79 85//80 52//81
f 105//82 88//71 84//79
f 86//83 89//84 36//61
f 20//42 23//15 10//13
f 36//61 14//36 86//83
f 38//59 36//61 53//85
f 53//85 87//86 38//59
f 56//87 33//88 93//89
f 93//89 57//62 91//90
f 93//89 42//63 57//62
f 58//91 57//62 61//65
f 94//92 9//11 97//28
f 61//65 116//57 60//93
f 37//58 35//40 62//94
f 28//95 77//96 37//58
f 17//4 69//1 68//3
f 67//16 8//97 6//66
f 66//98 15//12 9//11
f 97//28 9//11 11//19
f 11//19 21//37 99//17
f 95//22 115//32 96//18
f 96//18 98//31 12//20
f 76//99 33//88 34//54
f 7//9 102//52 18//43
f 71//100 27//45 28//95
f 75//101 30//51 70//39
f 79//102 31//38 35//40
f 32//53 85//80 59//47
f 80//103 41//64 40//104
f 78//60 39//56 77//96
f 76//99 40//104 33//88
f 60//93 116//57 38//59
f 116//57 39//56 38//59
f 50//72 103//105 104//34
f 79//102 40//104 76//99
f 80//103 61//65 41//64
f 33//88 40//104 42//63
f 86//83 14//36 104//34
f 43//68 5//69 46//106
f 82//75 81//73 46//106
f 90//107 55//108 92//109
f 84//79 88//71 51//70
f 52//81 34//54 56//87
f 60//93 38//59 87//86
f 53//85 36//61 89//84
f 89//84 86//83 90//107
f 96//18 111//26 110//24
f 91//90 87//86 54//110
f 90//107 86//83 55//108
f 97//28 11//19 112//25
f 49//77 27//45 26//44
f 96//18 106//111 114//21
f 96//18 113//27 111//26
f 11//19 110//24 109//23
f 11//19 109//23 112//25
f 10//13 21//37 9//11
f 94//92 66//98 9//11
f 97//28 99//17 94//92
f 96//18 12//20 113//27
f 107//29 106//111 12//20
f 106//111 114//21 12//20
f 95//22 106//111 107//29
f 95//22 114//21 106//111
f 95//22 107//29 108//30
f 95//22 108//30 115//32
f 110//24 111//26 97//28
f 111//26 113//27 97//28
f 98//31 115//32 12//20
f 107//29 106//111 96//18
f 101//55 100//50 30//51
f 25//33 114//21 98//31
f 97//28 96//18 99//17
f 105//82 55//108 88//71
f 23//15 82//75 8//97
f 103//105 55//108 86//83
f 88//71 103//105 50//72
f 1//112 2//113 65//67
f 2//113 3//2 65//67
f 2//113 68//3 3//2
f 65//67 6//66 63//7
f 64//8 5//69 45//10
f 75//101 31//38 79//102
f 46//106 6//66 8//97
f 6//66 46//106 5//69
f 94//92 22//14 67//16
f 109//23 12//20 112//25
f 110//24 95//22 111//26
f 111//26 95//22 113//27
f 95//22 97//28 113//27
f 107//29 98//31 106//111
f 106//111 98//31 114//21
f 25//33 13//35 96//18
f 15//12 3//2 69//1
f 16//5 1//112 4//6
f 17//4 20//42 19//41
f 102//52 20//42 18//43
f 20//42 47//114 48//76
f 99//17 21//37 22//14
f 23//15 20//42 48//76
f 28//95 27//45 24//115
f 74//116 71//100 62//94
f 72//46 74//116 73//48
f 72//46 71//100 74//116
f 28//95 62//94 71//100
f 34//54 30//51 75//101
f 31//38 75//101 70//39
f 34//54 33//88 56//87
f 30//51 34//54 101//55
f 14//36 36//61 78//60
f 37//58 77//96 39//56
f 78//60 38//59 39//56
f 42//63 40//104 41//64
f 102//52 44//74 47//114
f 23//15 48//76 82//75
f 47//114 81//73 48//76
f 51//70 83//78 85//80
f 83//78 51//70 50//72
f 53//85 54//110 87//86
f 54//110 53//85 89//84
f 57//62 58//91 91//90
f 105//82 56//87 93//89
f 84//79 56//87 105//82
f 105//82 91//90 92//109
f 105//82 93//89 91//90
f 58//91 87//86 91//90
f 59//47 85//80 83//78
f 61//65 60//93 58//91
f 1//112 16//5 68//3
f 28//95 37//58 62//94
f 56//87 84//79 52//81
f 63//7 4//6 1//112
f 5//69 64//8 6//66
f 6//66 64//8 63//7
f 15//12 65//67 3//2
f 67//16 66//98 94//92
f 67//16 6//66 66//98
f 24//115 98//31 14//36
f 96//18 14//36 98//31
f 68//3 2//113 1//112
f 16//5 7//9 18//43
f 18//43 17//4 16//5
f 62//94 35//40 70//39
f 70//39 74//116 62//94
f 27//45 71//100 72//46
f 25//33 24//115 27//45
f 101//55 73//48 100//50
f 100//50 73//48 74//116
f 26//44 73//48 59//47
f 78//60 77//96 14//36
f 77//96 24//115 14//36
f 24//115 77//96 28//95
f 80//103 37//58 116//57
f 80//103 79//102 35//40
f 80//103 116//57 61//65
f 42//63 93//89 33//88
f 81//73 47//114 44//74
f 50//72 25//33 49//77
f 59//47 83//78 26//44
f 85//80 84//79 51//70
f 52//81 32//53 34//54
f 1//112 65//67 63//7
f 91//90 54//110 92//109
f 49//77 26//44 83//78
f 25//33 98//31 24//115
f 82//75 46//106 8//97
f 23//15 8//97 67//16
f 94//92 99//17 22//14
f 14//36 96//18 13//35
f 107//29 12//20 108//30
f 108//30 12//20 115//32
f 110//24 97//28 109//23
f 107//29 96//18 108//30
f 108//30 96//18 115//32
f 47//114 20//42 102//52
f 105//82 92//109 55//108
f 103//105 88//71 55//108
f 45//10 43//68 44//74
f 74//116 70//39 100//50
f 72//46 73//48 26//44
f 73//48 101//55 29//49
f 32//53 52//81 85//80
f 37//58 80//103 35//40
f 81//73 43//68 46//106
f 60//93 87//86 58//91
f 90//107 54//110 89//84
f 44//74 102//52 45//10
f 66//98 6//66 15//12
f 19//41 20//42 10//13
f 75//101 76//99 34//54
f 79//102 80//103 40//104
f 25//33 50//72 104//34
f 103//105 86//83 104//34
f 54//110 90//107 92//109
f 11//19 96//18 110//24
f 109//23 97//28 112//25
f 25//33 96//18 114//21
f 76//99 75//101 79//102
