# Blender v2.76 (sub 0) OBJ File: 'spines-modeling-2.blend'
# www.blender.org
mtllib spine-3-lr.mtl
o spine-3-lr_Cube.061
v 0.335113 0.310394 -0.900939
v 0.339354 0.293696 -0.870969
v 0.353884 0.369984 -1.001817
v 0.359864 0.358232 -0.983735
v 0.364901 0.379565 -0.974474
v 0.340998 0.288635 -0.876859
v 0.344708 0.333058 -0.933858
v 0.356812 0.341678 -0.934419
v 0.329215 0.257812 -0.840782
v 0.391467 0.366016 -1.090159
v 0.387022 0.411452 -1.071212
v 0.312990 0.203847 -0.778096
v 0.313331 0.181106 -0.768689
v 0.410823 0.390707 -1.171583
v 0.324274 0.174462 -0.763513
v 0.452480 0.412884 -1.197245
v 0.426490 0.362471 -1.207226
v 0.414569 0.413772 -1.070670
v 0.329010 0.216997 -0.796650
v 0.396598 0.378559 -1.027763
v 0.322987 0.229747 -0.799700
v 0.302912 0.141987 -0.724965
v 0.294682 0.154786 -0.722361
v 0.437365 0.351676 -1.192898
v 0.467528 0.394732 -1.162335
v 0.316165 0.146441 -0.719790
v 0.295607 0.106846 -0.678282
v 0.455825 0.360883 -1.168912
v 0.282735 0.082343 -0.606520
v 0.305010 0.117260 -0.672536
v 0.268058 0.097706 -0.642545
v 0.265244 0.058823 -0.597871
v 0.209126 0.035745 -0.509069
v 0.219639 0.016452 -0.497224
v 0.538889 0.368011 -1.320386
v 0.298047 0.143934 -0.689598
v 0.521487 0.347999 -1.354874
v 0.606378 0.341768 -1.484808
v 0.517269 0.393045 -1.305243
v 0.526665 0.380254 -1.390197
v 0.201195 0.047513 -0.474217
v 0.130689 -0.013059 -0.334894
v 0.237609 0.031789 -0.491804
v 0.619422 0.367503 -1.473304
v 0.648844 0.384006 -1.554067
v 0.122106 0.009772 -0.303589
v 0.152820 0.009053 -0.275625
v 0.578020 0.349878 -1.532490
v 0.228435 0.055662 -0.482848
v 0.619061 0.372040 -1.645940
v 0.595367 0.329442 -1.519414
v 0.158891 -0.011128 -0.318936
v 0.592510 0.386349 -1.470033
v 0.638669 0.337064 -1.708033
v 0.659275 0.385456 -1.665241
v 0.674728 0.357662 -1.643494
v 0.147677 0.022992 -0.302688
v 0.661443 0.324508 -1.678642
v 0.715146 0.324887 -1.832838
v 0.048223 0.006387 -0.052117
v 0.697041 0.358451 -1.798826
v 0.665887 0.366830 -1.783392
v 0.012976 -0.023249 -0.089401
v 0.680240 0.309923 -1.823007
v 0.696014 0.352121 -1.880180
v 0.660584 0.337985 -1.819496
v 0.746689 0.366724 -1.937268
v 0.718927 0.304389 -1.919023
v 0.683411 0.310751 -1.888455
v 0.079922 -0.043341 -0.189879
v 0.700904 0.326184 -1.928349
v 0.007931 0.013564 0.032088
v 0.005140 0.009075 0.020344
v -0.017276 0.016455 0.029905
v -0.014061 0.017715 0.030873
v 0.069479 -0.037365 -0.074348
v 0.044577 -0.028032 0.014997
v 0.054661 -0.045466 0.012619
v 0.000437 -0.052466 -0.074299
v 0.020478 0.012130 0.019988
v 0.049692 -0.001362 0.021350
v 0.073036 -0.009208 -0.057915
v 0.041226 0.003942 0.036149
v 0.002985 0.006650 0.018828
v 0.026564 -0.052239 0.014923
v 0.049356 -0.013651 0.016505
v 0.046790 -0.010072 0.033120
v 0.044312 -0.014776 0.032504
v 0.744262 0.308267 -2.013855
v 0.035621 0.008773 0.028248
v 0.033151 0.010673 0.023290
v 0.049859 -0.010375 0.017836
v 0.048478 0.001289 0.036886
v 0.048159 -0.001607 0.036190
v -0.011814 -0.010472 -0.013411
v -0.019593 0.002400 0.017458
v 0.015312 -0.056124 0.021676
v 0.017257 -0.056560 0.024500
v 0.020832 -0.062935 -0.036708
v 0.010898 -0.058390 0.024544
v 0.010849 -0.061993 0.020415
v -0.031114 -0.070496 0.012663
v -0.015566 -0.013278 -0.014363
v -0.027619 -0.026331 -0.014291
v 0.022688 -0.055732 -0.004797
v -0.006180 -0.081940 0.019432
v -0.027627 -0.084346 0.029543
v -0.033832 -0.074800 0.031659
v 0.012393 -0.057458 0.024231
v -0.039746 -0.020238 0.011945
v -0.055771 -0.015626 0.012657
v -0.035143 -0.006895 0.013069
v 0.013656 -0.057083 0.022015
v -0.040843 -0.074174 0.034446
v -0.056916 -0.078006 0.040760
v -0.030870 -0.030023 -0.013602
v -0.052434 -0.072154 0.023355
v -0.051224 -0.061932 0.013356
v -0.055206 -0.042371 0.021910
v -0.057388 -0.039069 0.022722
v -0.050262 -0.033504 0.014886
v -0.087618 -0.050659 0.030832
v -0.065203 -0.050390 0.030279
v -0.056643 -0.047556 0.023397
v 0.794427 0.310191 -1.990053
v -0.055258 -0.043498 0.020824
v -0.040879 -0.044000 -0.004728
v 0.806360 0.434182 -2.118467
v 0.732455 0.361883 -2.013335
v 0.903514 0.376848 -2.070580
v 0.861415 0.435255 -2.088771
v 0.776580 0.401439 -2.175238
v 0.769952 0.339168 -2.163328
v 0.896013 0.276790 -2.180614
v 0.986877 0.381991 -2.175061
v 0.817089 0.283887 -2.152095
v 0.845976 0.401048 -2.307034
v 0.920912 0.315406 -2.114841
v 0.851640 0.454768 -2.265248
v 0.956167 0.444336 -2.177542
v 0.878739 0.334567 -2.321799
v 0.994874 0.306946 -2.275335
v 1.021823 0.432025 -2.284135
v 0.915653 0.479027 -2.247731
v 0.979272 0.299069 -2.334353
v 0.986933 0.475091 -2.275144
v 0.919040 0.290792 -2.308975
v 1.028010 0.338462 -2.362121
v 1.041851 0.369786 -2.309062
v 0.936481 0.405241 -2.377356
v 0.910395 0.458058 -2.338852
v 1.017959 0.398196 -2.367685
v 0.979604 0.461209 -2.338589
v 0.974147 0.341851 -2.384996
v -0.159856 -0.007834 0.200407
v -0.171101 -0.054155 0.140729
v -0.112702 0.007690 0.246430
v -0.156912 -0.089878 0.208753
v -0.138539 -0.041296 0.046070
v -0.148514 -0.047702 0.242136
v -0.135859 0.015706 0.111854
v -0.127214 -0.004933 0.038054
v -0.122988 -0.080048 0.074068
v 0.011325 0.018598 0.229304
v -0.105333 -0.025069 0.011785
v -0.069593 -0.036240 0.018810
v -0.076838 -0.095526 0.052102
v -0.061723 -0.101811 0.038591
v -0.075969 -0.085438 0.236276
v -0.053967 0.032534 0.053448
v -0.068801 0.057563 0.174910
v -0.048787 -0.108157 0.039335
v -0.080503 -0.113594 0.114581
v -0.055612 0.007969 0.018948
v 0.005027 -0.104853 0.034536
v 0.038584 -0.097241 0.189157
v 0.026962 -0.067816 0.025746
v 0.001731 0.076509 0.111993
v 0.053802 -0.119099 0.075605
v 0.052853 0.007300 0.039961
v 0.056483 0.019089 0.048287
v 0.068769 0.095475 0.198736
v 0.092863 -0.061786 0.026822
v 0.084005 0.079906 0.100242
v 0.111343 0.096415 0.140826
v 0.038893 0.101543 0.167312
v 0.126242 -0.103598 0.110241
v 0.135834 -0.093686 0.045588
v 0.160893 0.021865 0.041035
v 0.163869 -0.038503 0.121873
v 0.169279 0.037483 0.104011
v 0.217965 -0.000540 0.039556
v 0.197070 -0.061121 0.052336
v 0.189045 -0.039151 0.019802
vn 0.548500 -0.745100 -0.379400
vn -0.987300 -0.024400 -0.156600
vn -0.988400 -0.012100 -0.151200
vn -0.030300 -0.931000 -0.363800
vn 0.949200 -0.286400 0.130600
vn 0.727900 -0.591900 -0.346100
vn -0.844500 -0.297800 -0.445100
vn 0.846600 -0.368600 0.383800
vn 0.255500 0.666600 0.700200
vn 0.883900 -0.378100 -0.275300
vn -0.938800 0.083200 -0.334100
vn -0.121900 0.774700 0.620400
vn -0.020100 0.839500 0.543000
vn -0.590000 0.805600 -0.052300
vn -0.495600 -0.500900 -0.709500
vn -0.873600 0.333400 -0.354500
vn -0.429200 -0.896900 -0.106400
vn 0.500900 0.788000 0.357800
vn -0.823200 -0.426500 -0.374700
vn 0.959100 -0.281300 0.030400
vn 0.726000 -0.544800 -0.419600
vn -0.218500 -0.738700 -0.637600
vn -0.033400 0.993600 -0.107400
vn 0.067400 0.836500 0.543800
vn -0.975300 0.141800 -0.169200
vn 0.570700 -0.749400 0.335600
vn -0.181400 -0.983400 -0.006000
vn -0.901400 -0.095200 -0.422400
vn 0.189600 -0.860600 -0.472700
vn 0.969600 -0.088500 0.227900
vn 0.884500 0.277700 0.374700
vn -0.790000 0.503100 -0.350300
vn -0.303900 -0.946700 -0.106800
vn 0.881100 -0.236600 0.409500
vn 0.960500 -0.142500 0.238900
vn 0.161600 -0.907700 -0.387200
vn -0.855200 -0.229300 -0.464800
vn 0.487700 0.868100 0.092000
vn 0.464100 0.795100 0.390500
vn 0.024200 -0.956000 -0.292300
vn 0.232700 -0.961900 0.143300
vn -0.169200 -0.985400 -0.015600
vn -0.868000 -0.389600 -0.307800
vn 0.576200 -0.762300 0.294700
vn 0.899100 -0.362600 0.245200
vn 0.549300 -0.655200 0.518600
vn 0.627400 0.177100 0.758200
vn 0.199000 0.823500 0.531300
vn 0.598300 -0.794700 0.102200
vn -0.626500 -0.659400 -0.415600
vn -0.747800 0.606800 -0.269400
vn -0.656400 0.742900 -0.131100
vn 0.898400 0.241600 0.366700
vn -0.771100 0.577100 -0.268900
vn 0.888000 0.111900 0.445900
vn 0.973000 -0.035500 0.228100
vn 0.740400 0.627200 0.241600
vn 0.285100 0.957900 -0.031600
vn 0.187600 0.976100 0.109700
vn -0.801600 -0.584500 -0.125800
vn -0.961900 0.010300 -0.273200
vn 0.644800 0.762200 0.056400
vn -0.254000 -0.965900 0.049500
vn -0.763900 0.534800 -0.361000
vn 0.045500 0.997700 -0.051000
vn -0.911800 -0.190500 -0.363800
vn -0.609500 0.762800 -0.215800
vn -0.373300 0.892700 -0.252500
vn 0.903400 0.337900 0.263900
vn -0.759600 -0.587200 -0.279500
vn -0.163500 -0.984900 -0.057000
vn 0.838400 -0.439000 0.323000
vn -0.917100 0.367200 -0.155200
vn 0.336500 0.874300 0.349800
vn -0.002100 0.998200 -0.059600
vn -0.206900 0.869100 -0.449300
vn 0.096600 0.914000 -0.394100
vn 0.976700 0.200200 0.076500
vn 0.737600 -0.273700 -0.617300
vn 0.750400 -0.638500 0.171000
vn 0.224600 -0.904400 -0.362600
vn 0.560400 -0.821600 0.104700
vn 0.862100 -0.003300 0.506700
vn 0.644700 -0.581000 0.496800
vn 0.650300 -0.736000 0.188000
vn 0.380900 0.900300 0.210600
vn 0.887800 0.444300 0.120000
vn -0.307100 0.782400 -0.541800
vn 0.918800 -0.299200 0.257500
vn 0.252200 0.955900 0.150500
vn 0.958100 -0.168700 0.231300
vn -0.600200 -0.783600 -0.160200
vn -0.420700 0.835000 -0.354700
vn 0.713200 -0.035100 -0.700000
vn 0.819300 -0.337700 -0.463300
vn 0.300300 -0.952500 -0.051200
vn 0.060000 -0.747200 -0.661800
vn -0.183700 -0.928600 -0.322200
vn -0.570400 0.701800 -0.426700
vn 0.374400 -0.831000 -0.411400
vn -0.704500 0.562700 -0.432500
vn -0.292000 0.475400 -0.829900
vn -0.223100 -0.671600 -0.706500
vn -0.521000 -0.586900 -0.619600
vn 0.487400 -0.863700 0.128300
vn 0.147700 -0.645600 -0.749200
vn -0.241100 -0.832600 -0.498600
vn -0.783300 0.425600 -0.453000
vn -0.748700 0.030900 -0.662100
vn -0.281700 -0.522000 -0.805100
vn -0.589700 -0.035900 -0.806800
vn -0.765800 -0.205100 -0.609400
vn -0.291500 -0.535000 -0.792900
vn -0.202700 0.146200 -0.968200
vn -0.853600 0.115400 -0.508000
vn -0.889600 0.230300 -0.394500
vn -0.399400 -0.905500 -0.143400
vn -0.872600 -0.323100 -0.366200
vn -0.450800 0.886600 0.103800
vn 0.191100 -0.975200 0.111600
vn -0.362400 -0.454300 -0.813800
vn 0.054500 -0.764600 -0.642100
vn -0.874500 0.403400 -0.269100
vn -0.774300 0.110300 -0.623100
vn 0.544300 0.691300 0.475200
vn -0.626400 -0.430600 -0.649700
vn -0.253100 -0.877700 -0.406900
vn 0.884700 0.454700 0.102700
vn 0.471600 0.879400 0.064500
vn 0.236300 -0.906200 -0.350700
vn -0.598000 0.752500 -0.275700
vn -0.349400 0.718600 -0.601300
vn 0.740900 -0.420100 -0.523900
vn 0.994400 -0.081200 0.068100
vn 0.626500 0.342200 -0.700200
vn 0.320800 0.793000 -0.517800
vn -0.030600 -0.352000 -0.935500
vn -0.271600 0.209400 -0.939300
vn -0.962600 -0.219100 -0.159200
vn -0.856700 0.461400 0.230400
vn -0.684300 0.708500 -0.172100
vn -0.583100 -0.093600 0.807000
vn -0.776800 -0.269600 -0.569000
vn -0.666700 0.533400 -0.520400
vn -0.253100 0.467700 0.846900
vn -0.186200 -0.746800 -0.638500
vn -0.252300 -0.967100 -0.031500
vn -0.509000 -0.662300 -0.549800
vn -0.349500 0.910500 0.220700
vn 0.241000 0.235600 0.941500
vn -0.574300 -0.716900 -0.395200
vn -0.438200 -0.451100 -0.777500
vn 0.578300 0.798300 0.168200
vn 0.360100 0.528000 0.769100
vn -0.205200 0.867900 -0.452300
vn -0.731900 0.048400 -0.679700
vn -0.056400 0.038800 -0.997700
vn -0.532600 0.262400 -0.804600
vn -0.356500 -0.072600 -0.931500
vn -0.118600 0.603700 -0.788300
vn -0.229700 0.961600 0.150200
vn -0.229200 0.883500 -0.408600
vn 0.062900 -0.617400 0.784100
vn 0.315800 -0.695600 0.645200
vn 0.109100 -0.970600 -0.214500
vn -0.047500 0.723300 -0.688900
vn -0.112700 0.750900 -0.650700
vn 0.068300 -0.344900 -0.936100
vn 0.061300 0.858400 -0.509300
vn 0.041600 -0.565600 -0.823600
vn 0.058500 0.828200 -0.557300
vn 0.746400 0.586500 0.314400
vn 0.471600 -0.820300 0.323400
vn 0.383200 0.790000 -0.478500
vn 0.548900 0.413700 -0.726300
vn 0.902600 -0.061100 -0.426200
vn 0.934500 -0.001400 -0.355900
vn 0.062600 -0.225700 -0.972200
vn 0.236100 -0.809700 -0.537200
vn 0.053200 0.563400 -0.824500
vn 0.881900 -0.385100 0.272000
vn 0.886900 0.045000 -0.459700
vn 0.714300 -0.182700 0.675500
vn 0.375800 -0.188600 -0.907300
vn 0.151100 0.667300 -0.729300
vn 0.887100 0.329300 -0.323400
vn 0.800400 -0.598000 -0.039700
vn 0.004800 0.987300 0.158800
vn 0.088300 -0.988600 -0.121700
vn -0.670200 -0.578900 -0.464300
vn 0.212400 -0.976700 -0.030300
vn -0.069600 0.995700 0.060700
vn -0.670700 -0.668500 0.321400
vn 0.009300 -0.514100 -0.857600
usemtl sample
s 1
f 7//1 1//2 3//3
f 7//1 3//3 4//4
f 7//1 8//5 6//6
f 6//6 9//7 1//2
f 7//1 4//4 8//5
f 4//4 20//8 8//5
f 2//9 19//10 6//6
f 9//7 12//11 21//12
f 9//7 6//6 19//10
f 3//3 5//13 11//14
f 19//10 13//15 12//11
f 12//11 9//7 19//10
f 3//3 14//16 10//17
f 20//8 18//18 5//13
f 5//13 18//18 11//14
f 14//16 17//19 10//17
f 19//10 26//20 15//21
f 13//15 15//21 22//22
f 18//18 16//23 11//14
f 21//12 36//24 19//10
f 22//22 15//21 26//20
f 12//11 36//24 21//12
f 12//11 13//15 23//25
f 28//26 10//17 24//27
f 12//11 23//25 36//24
f 31//28 22//22 27//29
f 22//22 31//28 23//25
f 36//24 30//30 26//20
f 25//31 16//23 18//18
f 27//29 26//20 30//30
f 17//19 14//16 40//32
f 24//27 37//33 28//26
f 28//26 37//33 35//34
f 29//35 30//30 36//24
f 32//36 33//37 31//28
f 25//31 39//38 16//23
f 49//39 36//24 31//28
f 29//35 36//24 49//39
f 32//36 34//40 33//37
f 40//32 16//23 39//38
f 58//41 51//42 48//43
f 38//44 35//34 37//33
f 43//45 29//35 49//39
f 48//43 51//42 37//33
f 125//46 130//47 131//48
f 34//40 52//49 42//50
f 33//37 46//51 41//52
f 43//45 47//53 52//49
f 40//32 50//54 48//43
f 44//55 56//56 45//57
f 45//57 55//58 53//59
f 48//43 50//54 54//60
f 56//56 38//44 58//41
f 66//61 54//60 50//54
f 56//56 61//62 55//58
f 54//60 64//63 58//41
f 66//61 64//63 54//60
f 46//51 63//64 60//65
f 42//50 63//64 46//51
f 71//66 66//61 65//67
f 66//61 62//68 65//67
f 61//62 65//67 62//68
f 47//53 82//69 52//49
f 66//61 71//66 69//70
f 64//63 68//71 59//72
f 69//70 71//66 68//71
f 65//67 129//73 71//66
f 67//74 129//73 65//67
f 59//72 125//46 67//74
f 80//75 73//76 72//77
f 82//69 77//78 78//79
f 76//80 85//81 105//82
f 135//83 138//84 142//85
f 60//65 90//86 81//87
f 73//76 60//65 84//88
f 82//69 86//89 77//78
f 90//86 60//65 91//90
f 82//69 81//87 92//91
f 125//46 68//71 89//92
f 60//65 95//93 84//88
f 105//82 100//94 101//95
f 99//96 106//97 102//98
f 95//93 63//64 103//99
f 100//94 105//82 109//100
f 104//101 112//102 103//99
f 114//103 102//98 108//104
f 109//100 105//82 113//105
f 114//103 115//106 117//107
f 104//101 63//64 116//108
f 119//109 120//110 121//111
f 118//112 122//113 123//114
f 119//109 127//115 126//116
f 89//92 136//117 125//46
f 133//118 136//117 89//92
f 67//74 131//48 128//119
f 138//84 125//46 134//120
f 107//121 106//97 175//122
f 1//2 9//7 2//9
f 132//123 137//124 133//118
f 140//125 131//48 130//47
f 140//125 130//47 135//83
f 141//126 133//118 137//124
f 136//117 147//127 134//120
f 147//127 136//117 141//126
f 140//125 143//128 146//129
f 142//85 134//120 145//130
f 139//131 151//132 137//124
f 142//85 148//133 149//134
f 149//134 152//135 143//128
f 143//128 153//136 146//129
f 143//128 152//135 153//136
f 152//135 154//137 150//138
f 156//139 155//140 161//141
f 155//140 156//139 160//142
f 159//143 156//139 162//144
f 160//142 157//145 155//140
f 172//146 173//147 167//148
f 157//145 171//149 155//140
f 157//145 160//142 164//150
f 163//151 159//143 122//113
f 173//147 156//139 163//151
f 167//148 168//152 172//146
f 185//153 182//154 164//150
f 161//141 170//155 162//144
f 126//116 124//156 119//109
f 167//148 122//113 117//107
f 111//157 110//158 121//111
f 115//106 114//103 172//146
f 172//146 175//122 173//147
f 165//159 174//160 111//157
f 171//149 186//161 178//162
f 95//93 103//99 112//102
f 169//163 173//147 176//164
f 173//147 179//165 176//164
f 173//147 175//122 179//165
f 74//166 84//88 96//167
f 177//168 175//122 106//97
f 170//155 75//169 74//166
f 100//94 109//100 98//170
f 184//171 185//153 191//172
f 176//164 179//165 187//173
f 83//174 90//86 72//77
f 93//175 180//176 94//177
f 78//79 177//168 85//81
f 183//178 188//179 179//165
f 181//180 178//162 184//171
f 94//177 87//181 92//91
f 183//178 78//79 88//182
f 87//181 181//180 88//182
f 190//183 176//164 187//173
f 179//165 188//179 187//173
f 1//2 2//9 5//13
f 190//183 191//172 164//150
f 188//179 183//178 194//184
f 183//178 189//185 194//184
f 191//172 190//183 192//186
f 192//186 193//187 194//184
f 7//1 6//6 1//2
f 6//6 8//5 2//9
f 2//9 8//5 5//13
f 2//9 9//7 21//12
f 10//17 20//8 4//4
f 19//10 15//21 13//15
f 14//16 3//3 11//14
f 14//16 11//14 16//23
f 20//8 10//17 28//26
f 25//31 20//8 28//26
f 20//8 25//31 18//18
f 19//10 36//24 26//20
f 22//22 26//20 27//29
f 23//25 31//28 36//24
f 28//26 35//34 25//31
f 24//27 17//19 37//33
f 27//29 32//36 31//28
f 25//31 35//34 39//38
f 40//32 14//16 16//23
f 32//36 29//35 43//45
f 34//40 32//36 43//45
f 35//34 38//44 44//55
f 39//38 35//34 53//59
f 35//34 44//55 53//59
f 39//38 53//59 40//32
f 37//33 40//32 48//43
f 34//40 42//50 33//37
f 50//54 40//32 53//59
f 49//39 41//52 57//188
f 49//39 57//188 47//53
f 56//56 44//55 38//44
f 50//54 53//59 55//58
f 45//57 56//56 55//58
f 52//49 70//189 42//50
f 58//41 38//44 51//42
f 57//188 41//52 46//51
f 42//50 70//189 79//190
f 57//188 60//65 47//53
f 62//68 50//54 55//58
f 56//56 59//72 61//62
f 42//50 79//190 63//64
f 62//68 55//58 61//62
f 61//62 67//74 65//67
f 66//61 69//70 64//63
f 47//53 60//65 82//69
f 64//63 69//70 68//71
f 125//46 59//72 68//71
f 97//191 105//82 98//170
f 63//64 79//190 127//115
f 79//190 117//107 118//112
f 129//73 67//74 128//119
f 130//47 125//46 138//84
f 133//118 129//73 132//123
f 125//46 136//117 134//120
f 138//84 135//83 130//47
f 133//118 141//126 136//117
f 128//119 131//48 144//192
f 139//131 128//119 144//192
f 139//131 132//123 128//119
f 140//125 135//83 143//128
f 131//48 140//125 144//192
f 138//84 134//120 142//85
f 137//124 132//123 139//131
f 135//83 149//134 143//128
f 134//120 147//127 145//130
f 140//125 146//129 144//192
f 137//124 151//132 150//138
f 141//126 137//124 150//138
f 151//132 139//131 144//192
f 144//192 146//129 153//136
f 144//192 153//136 151//132
f 150//138 151//132 153//136
f 149//134 148//133 152//135
f 145//130 147//127 154//137
f 154//137 141//126 150//138
f 154//137 152//135 148//133
f 150//138 153//136 152//135
f 145//130 154//137 148//133
f 162//144 156//139 161//141
f 156//139 159//143 163//151
f 161//141 155//140 171//149
f 159//143 162//144 165//159
f 122//113 159//143 165//159
f 169//163 158//193 173//147
f 160//142 169//163 164//150
f 171//149 157//145 164//150
f 166//194 122//113 165//159
f 164//150 169//163 176//164
f 115//106 167//148 117//107
f 171//149 164//150 186//161
f 170//155 171//149 178//162
f 162//144 170//155 174//160
f 175//122 177//168 183//178
f 85//81 177//168 98//170
f 176//164 190//183 164//150
f 186//161 164//150 182//154
f 184//171 178//162 186//161
f 182//154 185//153 186//161
f 193//187 190//183 187//173
f 181//180 184//171 189//185
f 183//178 181//180 189//185
f 191//172 192//186 189//185
f 192//186 190//183 193//187
f 4//4 3//3 10//17
f 2//9 21//12 19//10
f 24//27 10//17 17//19
f 31//28 33//37 41//52
f 38//44 37//33 51//42
f 33//37 42//50 46//51
f 43//45 49//39 47//53
f 56//56 58//41 59//72
f 57//188 46//51 60//65
f 62//68 66//61 50//54
f 89//92 71//66 129//73
f 68//71 71//66 89//92
f 92//91 86//89 82//69
f 129//73 128//119 132//123
f 148//133 142//85 145//130
f 147//127 141//126 154//137
f 169//163 160//142 158//193
f 170//155 161//141 171//149
f 170//155 178//162 181//180
f 194//184 189//185 192//186
f 8//5 20//8 5//13
f 13//15 22//22 23//25
f 29//35 32//36 27//29
f 52//49 34//40 43//45
f 45//57 53//59 44//55
f 59//72 58//41 64//63
f 61//62 59//72 67//74
f 89//92 129//73 133//118
f 156//139 158//193 160//142
f 156//139 173//147 158//193
f 173//147 163//151 167//148
f 179//165 175//122 183//178
f 187//173 188//179 193//187
f 186//161 185//153 184//171
f 188//179 194//184 193//187
f 37//33 17//19 40//32
f 41//52 49//39 31//28
f 54//60 58//41 48//43
f 67//74 125//46 131//48
f 75//169 72//77 73//76
f 80//75 60//65 73//76
f 73//76 74//166 75//169
f 78//79 76//80 82//69
f 52//49 82//69 76//80
f 105//82 70//189 76//80
f 52//49 76//80 70//189
f 85//81 98//170 105//82
f 149//134 135//83 142//85
f 83//174 81//87 90//86
f 82//69 60//65 81//87
f 88//182 77//78 86//89
f 86//89 87//181 88//182
f 94//177 92//91 81//87
f 81//87 93//175 94//177
f 96//167 84//88 95//93
f 60//65 63//64 95//93
f 101//95 99//96 105//82
f 70//189 105//82 99//96
f 102//98 79//190 99//96
f 70//189 99//96 79//190
f 106//97 107//121 102//98
f 108//104 102//98 107//121
f 112//102 104//101 110//158
f 63//64 104//101 103//99
f 110//158 111//157 112//102
f 117//107 79//190 102//98
f 102//98 114//103 117//107
f 121//111 116//108 127//115
f 63//64 127//115 116//108
f 120//110 166//194 121//111
f 127//115 119//109 121//111
f 124//156 127//115 118//112
f 79//190 118//112 127//115
f 123//114 124//156 118//112
f 172//146 107//121 175//122
f 191//172 185//153 164//150
f 122//113 166//194 123//114
f 120//110 119//109 124//156
f 126//116 127//115 124//156
f 124//156 123//114 120//110
f 166//194 120//110 123//114
f 118//112 117//107 122//113
f 167//148 163//151 122//113
f 116//108 121//111 110//158
f 166//194 165//159 111//157
f 110//158 104//101 116//108
f 166//194 111//157 121//111
f 168//152 167//148 115//106
f 107//121 172//146 114//103
f 114//103 108//104 107//121
f 168//152 115//106 172//146
f 112//102 111//157 174//160
f 165//159 162//144 174//160
f 112//102 174//160 96//167
f 96//167 95//93 112//102
f 96//167 174//160 74//166
f 74//166 73//76 84//88
f 174//160 170//155 74//166
f 101//95 177//168 106//97
f 106//97 99//96 101//95
f 97//191 98//170 109//100
f 177//168 101//95 98//170
f 113//105 105//82 97//191
f 101//95 100//94 98//170
f 109//100 113//105 97//191
f 189//185 184//171 191//172
f 75//169 170//155 72//77
f 181//180 180//176 83//174
f 93//175 81//87 83//174
f 91//90 60//65 80//75
f 180//176 93//175 83//174
f 90//86 91//90 80//75
f 181//180 83//174 72//77
f 72//77 170//155 181//180
f 90//86 80//75 72//77
f 78//79 183//178 177//168
f 85//81 76//80 78//79
f 94//177 180//176 181//180
f 86//89 92//91 87//181
f 94//177 181//180 87//181
f 77//78 88//182 78//79
f 181//180 183//178 88//182
f 3//3 1//2 5//13
f 30//30 29//35 27//29
