# Blender v2.82 (sub 7) OBJ File: 'eyewire-neuron-em-stack.blend'
# www.blender.org
mtllib spine_15.mtl
o <bpy_struct,_Object("spine_15")>-simple_2.122
v -0.798583 -0.168661 1.698440
v -0.637281 -0.238045 1.745061
v -0.822941 0.061845 1.717056
v -0.755865 -0.134230 1.563954
v -0.639706 -0.256882 1.532241
v -0.275796 -0.309565 1.349374
v -0.481537 -0.252200 1.612418
v -0.254953 -0.385806 1.698816
v -0.613928 -0.120781 1.343455
v -0.447844 -0.144845 1.224304
v -0.113377 -0.199725 1.227450
v -0.254103 -0.100990 1.257114
v -0.504250 0.009117 1.248523
v -0.267373 0.219899 1.180056
v -0.641477 -0.027130 1.932624
v -0.737598 0.140501 1.930395
v -0.657117 0.263368 1.452226
v -0.620916 0.358160 1.537226
v -0.749559 0.429523 1.978147
v -0.787876 0.446729 1.791488
v -0.732516 0.530814 2.013800
v -0.475156 0.251238 2.061109
v -0.748613 0.428203 1.975282
v -0.836975 0.611254 1.791534
v -0.681005 0.477351 1.702288
v -0.768793 0.666306 1.939001
v -0.552802 0.800793 2.040780
v -0.396100 -0.297769 1.849472
v -0.317689 -0.094285 2.002096
v -0.437845 0.048867 1.998438
v 0.097483 -0.149434 1.821779
v -0.007848 0.107496 2.016059
v 0.171412 -0.070007 1.798474
v -0.279757 0.253417 2.161581
v -0.244067 0.394194 2.211183
v -0.270262 0.607672 2.343327
v -0.183049 0.684561 2.313259
v 0.163364 0.228543 2.059127
v 0.121247 0.423212 2.136688
v -0.585631 0.182721 1.295974
v -0.616598 0.083822 1.429010
v -0.433755 0.440514 1.387330
v -0.645167 0.616860 1.622108
v -0.606383 0.692604 1.585125
v -0.471565 0.621035 1.427696
v -0.262737 0.442329 1.346315
v -0.302060 0.628285 1.461385
v -0.489837 0.661569 2.112651
v -0.365822 0.506746 2.194296
v -0.440862 0.759082 2.051147
v -0.515471 0.881304 1.896593
v -0.499735 0.836163 1.753849
v -0.409395 0.702596 1.654290
v -0.315590 0.752828 1.757927
v -0.140145 0.804481 2.098355
v 0.026473 0.751915 2.061773
v 0.151097 0.714197 2.171242
v 0.151634 0.714184 2.171534
v 0.005532 -0.424363 1.516663
v 0.169299 -0.454007 1.398864
v 0.381551 -0.344008 1.488038
v 0.157912 -0.270420 1.198744
v 0.261566 -0.372668 1.370588
v 0.439364 -0.158447 1.094826
v 0.627001 -0.060753 1.263127
v -0.018390 -0.107364 1.194460
v 0.251320 0.015584 0.935074
v 0.377456 0.011624 0.880136
v 0.196960 0.125977 0.986642
v 0.155489 0.007078 0.715571
v 0.284621 -0.000659 0.627509
v 0.478697 0.268297 0.903628
v 0.423438 0.235870 0.588738
v 0.407057 0.333644 0.701383
v 0.114338 -0.296026 1.620876
v 0.402758 0.062473 1.797699
v 0.486802 -0.108132 1.545303
v 0.297093 -0.111823 1.661572
v 0.630529 -0.104691 1.488633
v 0.687467 0.269503 1.871205
v 0.282985 0.297223 2.066533
v 0.276670 0.292578 2.121155
v 0.420715 0.429964 2.177251
v 0.274117 0.301858 2.112730
v 0.565211 0.267652 1.998521
v 0.491947 0.346218 2.028557
v 0.324496 0.617763 2.210027
v 0.348349 0.593265 2.009341
v 0.595045 0.526047 1.994676
v 0.639393 0.431903 1.945809
v 0.545256 0.470468 2.089773
v -0.026103 0.629490 1.732669
v 0.385359 0.447148 1.585676
v -0.024901 0.242538 1.177115
v -0.077469 0.412069 1.390525
v 0.048656 0.399272 1.450174
v 0.286942 0.303009 1.304290
v 0.587686 0.348753 1.428284
v 0.232259 0.236511 1.073524
v 0.435276 0.363270 1.059434
v 0.214611 0.703133 2.040842
v 0.267428 0.560485 1.830251
v 0.566020 0.413026 1.698234
v 0.583075 0.528394 1.831754
v 0.727393 0.037645 1.423399
v 0.741364 0.254985 1.689029
v 0.776373 0.435603 1.854879
v 0.582165 0.048973 1.096126
v 0.530801 0.253786 1.137238
v 0.709399 0.275495 1.482071
v 0.380170 0.376622 0.863749
v -0.128593 -0.131466 0.058584
v 0.005958 -0.115014 0.017199
v -0.136069 -0.097913 0.219493
v 0.137501 -0.249825 0.274830
v -0.000810 -0.107915 0.356645
v 0.118638 -0.164263 0.138891
v -0.068462 -0.062062 -0.075409
v 0.023244 -0.167044 -0.204225
v -0.023380 -0.101375 -0.070097
v -0.030080 -0.090169 -0.097630
v -0.000717 -0.137046 -0.179738
v -0.076740 0.121806 -0.220676
v -0.181686 0.091292 0.166001
v -0.043046 0.181462 0.107768
v -0.036281 -0.063376 -0.073124
v -0.033759 0.105628 -0.101321
v 0.024129 0.109103 0.072518
v -0.131704 0.151517 -0.036861
v -0.041377 0.003689 -0.109430
v -0.002037 0.190870 -0.146046
v 0.022896 0.100408 0.593195
v -0.093743 0.091059 0.430164
v 0.213322 -0.070095 0.509426
v 0.061049 -0.026507 0.393154
v 0.073031 0.004940 0.414716
v 0.090441 0.049331 0.376319
v 0.058914 0.021601 0.496975
v 0.206250 0.273626 0.467313
v 0.078770 0.005367 0.349321
v -0.027133 0.334484 0.659244
v 0.094939 0.237171 0.709500
v 0.152694 0.279226 0.860171
v -0.066197 0.393790 0.440824
v 0.005175 0.370801 0.314966
v 0.125507 0.390328 0.464552
v -0.081079 0.252458 -0.186441
v 0.218968 -0.219952 0.194621
v 0.202413 -0.118055 0.335516
v 0.029851 -0.143463 -0.153644
v 0.107650 0.012031 -0.320467
v 0.040336 -0.002645 -0.152519
v 0.255646 0.086666 0.540659
v 0.212470 0.458471 0.602794
v -0.014511 0.070406 -0.350566
v 0.002157 0.122353 -0.298593
v -0.033174 0.267521 -0.351284
v -0.003523 0.246221 -0.421814
v 0.258032 0.433626 0.841590
vn -0.9985 0.0276 -0.0468
vn -0.8408 -0.3555 -0.4083
vn -0.7879 -0.6107 0.0795
vn -0.2033 -0.9791 0.0066
vn -0.1005 -0.9673 0.2326
vn -0.2047 -0.7895 0.5787
vn -0.4664 -0.8643 -0.1885
vn -0.3789 -0.8536 0.3575
vn -0.0404 -0.9905 0.1313
vn 0.3355 -0.6729 0.6592
vn -0.2747 -0.3373 -0.9004
vn -0.0403 0.0797 -0.9960
vn -0.1748 -0.4298 -0.8858
vn -0.4690 -0.0128 -0.8831
vn -0.7101 -0.2759 -0.6477
vn -0.2018 -0.8695 -0.4508
vn -0.3229 -0.4537 0.8306
vn -0.6970 -0.1712 0.6963
vn -0.7647 0.4551 -0.4562
vn -0.9290 0.1533 0.3370
vn -0.4105 0.2133 0.8866
vn -0.4065 -0.2537 0.8777
vn -0.7642 0.1105 -0.6354
vn -0.7671 0.3609 -0.5304
vn -0.9729 -0.0276 -0.2295
vn -0.9399 0.2357 -0.2470
vn -0.1966 0.9801 0.0273
vn -0.7911 0.2493 -0.5585
vn -0.7589 0.5250 0.3852
vn -0.2905 0.6950 0.6577
vn -0.0660 -0.5235 0.8494
vn -0.3605 -0.3684 0.8569
vn -0.1124 -0.3664 0.9236
vn 0.3390 -0.2795 0.8983
vn 0.2547 -0.5175 0.8169
vn 0.4071 -0.5984 0.6900
vn -0.0738 -0.4033 0.9121
vn -0.6267 -0.1650 0.7615
vn 0.0621 -0.3046 0.9504
vn -0.0070 0.5600 0.8284
vn -0.3007 0.0831 0.9501
vn -0.6695 0.1673 -0.7237
vn -0.1982 -0.5510 -0.8106
vn -0.4089 0.4204 -0.8099
vn 0.0125 0.6054 -0.7958
vn -0.1425 0.2065 -0.9680
vn -0.0943 0.4650 -0.8802
vn -0.3007 0.5111 -0.8052
vn 0.2227 0.7591 -0.6117
vn 0.3287 0.7045 -0.6290
vn 0.1107 0.8523 -0.5112
vn -0.1116 0.6670 0.7366
vn -0.2415 0.2782 0.9297
vn 0.1592 0.9640 0.2130
vn 0.3245 0.8558 -0.4027
vn -0.0365 0.8925 -0.4496
vn 0.2209 0.9725 -0.0732
vn 0.0981 0.5882 0.8027
vn 0.2768 0.8516 -0.4451
vn -0.6737 -0.0305 0.7383
vn -0.6076 0.5999 -0.5205
vn -0.1033 -0.5983 -0.7946
vn 0.1030 -0.9771 -0.1863
vn 0.8251 -0.4581 -0.3306
vn 0.5404 -0.7729 0.3324
vn 0.4548 -0.7587 -0.4663
vn 0.3756 -0.7172 -0.5869
vn -0.3070 -0.1696 -0.9365
vn -0.5075 -0.8057 -0.3052
vn 0.4258 -0.8574 0.2890
vn 0.7583 -0.6383 -0.1326
vn -0.5167 -0.7877 0.3354
vn 0.5210 -0.7591 -0.3903
vn -0.9863 0.1261 -0.1060
vn -0.7588 0.1993 0.6200
vn -0.6564 0.7324 -0.1810
vn 0.7986 -0.0974 -0.5939
vn 0.7476 0.0123 -0.6640
vn 0.9382 0.2392 -0.2499
vn 0.8304 -0.1549 -0.5351
vn 0.3543 -0.5617 0.7476
vn 0.6792 -0.6719 0.2953
vn 0.4265 -0.6439 0.6351
vn 0.4124 -0.7449 0.5244
vn 0.3364 -0.3473 0.8753
vn -0.2198 -0.3031 0.9272
vn 0.1736 -0.6392 0.7492
vn 0.4001 -0.7842 0.4743
vn 0.4949 -0.3461 0.7970
vn 0.7310 0.1265 0.6705
vn 0.7072 0.6052 0.3655
vn 0.5551 -0.2745 0.7852
vn 0.8064 0.0707 0.5871
vn 0.4496 0.8875 -0.1008
vn 0.3342 0.4915 0.8041
vn 0.1395 0.7976 -0.5868
vn -0.0145 0.9431 -0.3320
vn 0.2154 0.8862 -0.4102
vn 0.3693 0.8741 -0.3156
vn 0.2669 0.9089 -0.3205
vn 0.3892 0.8966 -0.2111
vn 0.8328 0.4628 -0.3037
vn 0.7438 0.6424 -0.1846
vn 0.4504 0.8868 0.1038
vn 0.2604 0.9602 0.1008
vn 0.7339 0.6409 -0.2247
vn 0.8023 -0.2999 0.5161
vn 0.3952 0.8783 -0.2691
vn 0.8970 0.3005 0.3242
vn 0.3876 0.7993 -0.4592
vn 0.9679 -0.2215 0.1187
vn 0.9591 -0.1960 -0.2040
vn 0.1390 -0.5521 0.8221
vn -0.7997 -0.5342 0.2738
vn 0.0741 -0.9725 0.2208
vn -0.4679 -0.6138 0.6358
vn -0.7054 -0.6984 -0.1204
vn -0.8893 -0.4480 -0.0915
vn 0.0422 -0.9615 -0.2714
vn -0.9774 0.2052 -0.0506
vn -0.6238 -0.3611 -0.6931
vn -0.6885 -0.6613 -0.2978
vn 0.8329 0.5139 -0.2050
vn -0.7651 0.5996 -0.2345
vn 0.2173 0.8961 -0.3869
vn 0.7969 0.5267 0.2957
vn -0.5776 -0.7416 0.3412
vn 0.9943 0.0127 0.1059
vn 0.7748 0.1547 -0.6129
vn 0.5378 -0.5622 -0.6282
vn 0.6188 -0.5833 -0.5261
vn -0.9637 -0.0785 -0.2551
vn -0.4889 -0.7647 0.4198
vn -0.8412 -0.2681 0.4696
vn 0.9857 0.0402 -0.1632
vn 0.9484 0.2989 0.1055
vn 0.3706 -0.6565 0.6570
vn 0.7472 0.0649 -0.6614
vn 0.7229 0.1885 -0.6647
vn -0.7248 -0.4724 0.5015
vn -0.8422 -0.1996 0.5007
vn -0.7910 0.3076 0.5288
vn 0.2196 0.9368 -0.2724
vn -0.6681 0.7439 -0.0174
vn 0.4387 0.6599 -0.6099
vn 0.5704 -0.4012 -0.7167
vn 0.7839 -0.4019 -0.4732
vn 0.8825 -0.1560 -0.4436
vn 0.7340 -0.5211 0.4355
vn 0.8540 0.0486 0.5179
vn -0.6166 -0.2893 -0.7321
vn 0.0538 0.6780 -0.7331
vn -0.5394 0.8242 0.1725
vn -0.4520 0.8754 0.1714
vn -0.0703 0.9151 0.3971
vn 0.6342 -0.6700 0.3858
vn 0.2733 -0.9618 -0.0154
vn -0.1565 0.8758 -0.4565
vn 0.0537 0.8198 -0.5700
usemtl color.basal_dendrites_skeleton_color_0_color
s 1
f 3//1 4//2 1//3
f 7//4 8//5 28//6
f 5//7 7//4 2//8
f 59//9 75//10 8//5
f 7//4 59//9 8//5
f 10//11 12//12 11//13
f 13//14 12//12 10//11
f 9//15 13//14 10//11
f 1//3 4//2 2//8
f 9//15 6//16 5//7
f 1//3 15//17 16//18
f 3//1 17//19 4//2
f 23//20 16//18 19//21
f 22//22 19//21 16//18
f 25//23 18//24 20//25
f 24//26 25//23 20//25
f 18//24 3//1 20//25
f 24//26 51//27 43//28
f 26//29 27//30 24//26
f 27//30 51//27 24//26
f 29//31 30//32 28//6
f 28//6 30//32 2//8
f 2//8 7//4 28//6
f 30//32 15//17 2//8
f 29//31 34//33 30//32
f 75//10 31//34 28//6
f 29//31 32//35 34//33
f 28//6 33//36 29//31
f 31//34 33//36 28//6
f 35//37 49//38 34//33
f 32//35 39//39 34//33
f 39//39 37//40 36//41
f 39//39 35//37 34//33
f 36//41 49//38 35//37
f 35//37 39//39 36//41
f 40//42 41//43 4//2
f 18//24 42//44 40//42
f 46//45 14//46 42//44
f 14//46 46//45 94//47
f 45//48 47//49 42//44
f 47//49 46//45 42//44
f 47//49 95//50 46//45
f 47//49 45//48 53//51
f 50//52 48//53 49//38
f 49//38 48//53 22//22
f 50//52 36//41 55//54
f 50//52 51//27 27//30
f 54//55 52//56 51//27
f 56//57 37//40 58//58
f 56//57 92//59 55//54
f 48//53 21//60 22//22
f 50//52 27//30 48//53
f 16//18 3//1 1//3
f 21//60 23//20 22//22
f 21//60 26//29 24//26
f 43//28 51//27 44//61
f 11//13 62//62 60//63
f 20//25 23//20 19//21 21//60
f 65//64 61//65 63//66
f 64//67 65//64 63//66
f 63//66 61//65 60//63
f 11//13 66//68 62//62
f 66//68 11//13 12//12
f 66//68 67//69 64//67
f 66//68 64//67 62//62
f 134//70 71//71 70//72
f 70//72 71//71 68//73
f 69//74 143//75 70//72
f 69//74 67//69 66//68
f 99//76 69//74 66//68
f 153//77 73//78 68//73
f 72//79 68//73 73//78
f 72//79 64//67 68//73
f 72//79 108//80 64//67
f 59//9 11//13 60//63
f 77//81 75//10 61//65
f 77//81 61//65 79//82
f 78//83 33//36 75//10
f 78//83 77//81 76//84
f 83//85 84//86 82//87
f 84//86 39//39 82//87
f 81//88 86//89 83//85
f 81//88 83//85 82//87
f 84//86 81//88 82//87
f 86//89 90//90 89//91
f 85//92 86//89 81//88
f 91//93 88//94 87//95
f 86//89 91//93 83//85
f 96//96 97//97 94//47
f 93//98 98//99 97//97
f 102//100 56//57 101//101
f 101//101 88//94 102//100
f 110//102 65//64 108//80
f 110//102 109//103 98//99
f 108//80 72//79 109//103
f 72//79 111//104 100//105
f 74//106 111//104 72//79
f 100//105 109//103 72//79
f 79//82 80//107 77//81
f 104//108 90//90 107//109
f 107//109 103//110 104//108
f 98//99 103//110 110//102
f 97//97 109//103 100//105
f 100//105 111//104 99//76
f 109//103 97//97 98//99
f 110//102 106//111 105//112
f 104//108 89//91 90//90
f 110//102 103//110 107//109
f 33//36 85//92 81//88
f 33//36 81//88 38//113
f 76//84 85//92 33//36
f 103//110 98//99 93//98
f 114//114 115//115 116//116
f 121//117 122//118 119//119
f 124//120 118//121 112//122
f 128//123 129//124 125//125
f 131//126 129//124 128//123
f 130//127 127//128 126//129
f 124//120 125//125 129//124
f 129//124 118//121 124//120
f 112//122 120//130 113//131
f 124//120 112//122 114//114
f 130//127 123//132 122//118
f 116//116 138//133 133//134
f 149//135 140//136 135//137
f 137//138 139//139 153//77
f 132//140 142//141 141//142
f 154//143 144//144 141//142
f 125//125 124//120 144//144
f 125//125 146//145 140//136
f 133//134 124//120 114//114
f 141//142 144//144 133//134
f 141//142 133//134 132//140
f 117//146 149//135 148//147
f 119//119 151//148 150//149
f 151//148 122//118 150//149
f 151//148 152//150 122//118
f 122//118 152//150 150//149
f 74//106 73//78 154//143
f 73//78 153//77 154//143
f 155//151 158//152 151//148
f 117//146 148//147 115//115
f 119//119 150//149 120//130
f 150//149 121//117 120//130
f 152//150 130//127 126//129
f 153//77 149//135 137//138
f 156//153 155//151 123//132
f 147//154 127//128 129//124
f 131//126 147//154 129//124
f 155//151 151//148 119//119
f 131//126 152//150 156//153
f 140//136 149//135 128//123
f 154//143 159//155 74//106
f 11//13 59//9 6//16
f 33//36 38//113 32//35
f 95//50 94//47 46//45
f 101//101 56//57 57//156
f 132//140 138//133 70//72
f 70//72 143//75 132//140
f 153//77 134//70 149//135
f 14//46 94//47 12//12
f 42//44 14//46 40//42
f 79//82 61//65 65//64
f 108//80 65//64 64//67
f 5//7 6//16 7//4
f 7//4 6//16 59//9
f 41//43 13//14 9//15
f 4//2 41//43 9//15
f 40//42 14//46 13//14
f 14//46 12//12 13//14
f 9//15 10//11 6//16
f 41//43 40//42 13//14
f 4//2 9//15 5//7
f 6//16 10//11 11//13
f 2//8 4//2 5//7
f 15//17 30//32 16//18
f 3//1 18//24 17//19
f 16//18 23//20 20//25
f 26//29 21//60 48//53 27//30
f 3//1 16//18 20//25
f 22//22 23//20 19//21
f 20//25 21//60 24//26
f 38//113 81//88 84//86 82//87
f 30//32 34//33 22//22
f 29//31 33//36 32//35
f 49//38 22//22 34//33
f 32//35 38//113 39//39
f 18//24 40//42 17//19
f 43//28 18//24 25//23
f 44//61 45//48 42//44
f 53//51 45//48 44//61
f 43//28 44//61 42//44
f 43//28 42//44 18//24
f 54//55 96//96 47//49
f 37//40 55//54 36//41
f 52//56 44//61 51//27
f 52//56 54//55 53//51
f 52//56 53//51 44//61
f 55//54 51//27 50//52
f 92//59 56//57 102//100
f 56//57 55//54 37//40
f 56//57 58//58 57//156
f 57//156 58//58 37//40
f 92//59 96//96 54//55
f 54//55 47//49 53//51
f 49//38 36//41 50//52
f 51//27 55//54 54//55
f 54//55 55//54 92//59
f 30//32 22//22 16//18
f 17//19 40//42 4//2
f 24//26 43//28 25//23
f 39//39 57//156 37//40
f 39//39 58//58 57//156
f 19//21 23//20 21//60
f 59//9 61//65 75//10
f 60//63 61//65 59//9
f 60//63 62//62 63//66
f 67//69 68//73 64//67
f 67//69 70//72 68//73
f 69//74 70//72 67//69
f 12//12 94//47 66//68
f 94//47 99//76 66//68
f 153//77 68//73 71//71
f 74//106 72//79 73//78
f 62//62 64//67 63//66
f 75//10 33//36 31//34
f 78//83 76//84 33//36
f 77//81 80//107 76//84
f 75//10 77//81 78//83
f 39//39 84//86 83//85
f 102//100 88//94 89//91 104//108
f 38//113 82//87 39//39
f 87//95 39//39 83//85
f 76//84 80//107 85//92
f 85//92 80//107 86//89
f 106//111 90//90 80//107
f 80//107 90//90 86//89
f 89//91 88//94 91//93
f 91//93 87//95 83//85
f 89//91 91//93 86//89
f 93//98 97//97 92//59
f 95//50 96//96 94//47
f 97//97 99//76 94//47
f 95//50 47//49 96//96
f 92//59 97//97 96//96
f 69//74 99//76 159//155
f 99//76 111//104 159//155
f 97//97 100//105 99//76
f 93//98 92//59 102//100
f 104//108 103//110 93//98
f 102//100 104//108 93//98
f 113//131 117//146 115//115 112//122
f 65//64 105//112 79//82
f 79//82 105//112 106//111
f 106//111 80//107 79//82
f 106//111 110//102 107//109
f 108//80 109//103 110//102
f 106//111 107//109 90//90
f 65//64 110//102 105//112
f 101//101 87//95 88//94
f 115//115 114//114 112//122
f 117//146 113//131 128//123 149//135
f 120//130 112//122 118//121 121//117
f 119//119 120//130 121//117
f 130//127 118//121 129//124 123//132
f 126//129 127//128 113//131
f 128//123 125//125 140//136
f 127//128 123//132 129//124
f 120//130 121//117 126//129 113//131
f 118//121 130//127 126//129
f 127//128 128//123 113//131
f 131//126 128//123 127//128
f 122//118 121//117 126//129 130//127
f 126//129 121//117 118//121
f 136//157 135//137 134//70 138//133
f 149//135 135//137 136//157 137//138
f 136//157 138//133 116//116 135//137
f 136//157 135//137 140//136 137//138
f 156//153 157//158 147//154 131//126
f 138//133 132//140 133//134
f 143//75 142//141 132//140
f 143//75 141//142 142//141
f 154//143 146//145 144//144
f 139//139 146//145 154//143
f 145//159 125//125 144//144
f 145//159 146//145 125//125
f 146//145 145//159 144//144
f 146//145 137//138 140//136
f 133//134 144//144 124//120
f 146//145 139//139 137//138
f 119//119 122//118 155//151
f 152//150 131//126 127//128
f 139//139 154//143 153//77
f 152//150 126//129 121//117 150//149
f 158//152 157//158 156//153
f 156//153 157//158 155//151
f 155//151 157//158 158//152
f 115//115 148//147 149//135
f 122//118 123//132 155//151
f 130//127 152//150 127//128
f 57//156 58//58 87//95 101//101
f 147//154 157//158 123//132
f 123//132 157//158 156//153
f 127//128 147//154 123//132
f 158//152 156//153 152//150
f 158//152 152//150 151//148
f 134//70 135//137 116//116
f 116//116 115//115 134//70
f 116//116 133//134 114//114
f 111//104 74//106 159//155
f 87//95 58//58 39//39
f 134//70 70//72 138//133
f 153//77 71//71 134//70
f 149//135 134//70 115//115
f 69//74 159//155 143//75
f 1//3 2//8 15//17
f 8//5 75//10 28//6
f 141//142 159//155 154//143
f 143//75 159//155 141//142
