# Blender v2.82 (sub 7) OBJ File: 'eyewire-neuron-em-stack.blend'
# www.blender.org
mtllib spine_31.mtl
o <bpy_struct,_Object("spine_31")>-simple_2.107
v -0.221627 0.194868 1.867836
v -0.182055 0.292387 1.990143
v -0.205819 0.318082 1.737986
v -0.209961 0.289534 1.571803
v -0.150311 0.438148 1.717595
v -0.162308 0.352528 1.425651
v -0.179232 -0.098240 0.746282
v -0.192285 -0.058098 0.650416
v -0.274183 -0.004776 0.875145
v -0.325689 0.147550 0.901235
v -0.334601 0.065743 0.812523
v -0.318070 0.047443 0.653001
v -0.292320 0.125087 0.624647
v -0.203572 0.170902 0.996596
v -0.283494 0.021438 0.592317
v -0.341291 0.055165 0.420310
v -0.231496 -0.054243 0.497093
v -0.163864 0.184240 0.609084
v -0.654800 0.345860 0.084796
v -0.636490 0.336332 -0.043152
v -0.709314 0.500599 0.009681
v -0.589534 0.514722 0.070720
v -0.650636 0.567474 -0.072438
v -0.454731 0.020358 0.112701
v -0.407499 -0.061352 -0.049749
v -0.332954 -0.095519 0.226143
v -0.200387 -0.156159 0.225443
v -0.248643 -0.196471 -0.172643
v -0.316057 -0.113663 0.022890
v -0.201242 -0.193465 -0.009517
v -0.431801 0.011987 0.220194
v -0.439834 0.301543 0.140074
v -0.324142 -0.049700 0.369124
v -0.373955 0.059778 0.327733
v -0.320295 0.177235 0.334035
v -0.295533 0.122839 0.459446
v -0.234584 0.180244 0.402921
v -0.255877 0.188629 0.301446
v -0.254648 0.186427 0.302893
v -0.202226 0.202219 0.271564
v -0.385651 0.134361 0.147621
v -0.308657 0.300663 0.218748
v -0.335248 0.289742 0.167036
v -0.213562 0.321186 0.175874
v -0.346113 -0.185674 -0.176615
v -0.526235 -0.162161 -0.310866
v -0.395227 -0.209872 -0.302331
v -0.571032 0.008690 -0.101755
v -0.556609 -0.015388 -0.127864
v -0.601386 -0.097488 -0.216926
v -0.521194 -0.141802 -0.235778
v -0.512692 -0.025208 -0.214356
v -0.565067 0.002215 -0.130779
v -0.570911 -0.048985 -0.150499
v -0.560197 0.086400 -0.123459
v -0.487780 -0.051373 -0.095288
v -0.377535 0.035871 -0.254959
v -0.436904 -0.090023 -0.321943
v -0.293480 -0.244293 -0.319580
v -0.297305 -0.232356 -0.299901
v -0.267889 -0.139433 -0.313098
v -0.216486 -0.323882 -0.355531
v -0.290543 -0.241530 -0.317240
v -0.171075 -0.284627 -0.218506
v -0.212301 -0.190206 -0.318617
v -0.640577 0.151009 0.036521
v -0.444180 0.187965 -0.164092
v -0.583966 0.295603 -0.090504
v -0.343447 0.324653 -0.161093
v -0.428914 0.495551 -0.119225
v -0.281523 0.166818 -0.203580
v -0.241360 0.563974 -0.088220
v -0.275841 0.234596 0.878180
v -0.108781 0.301790 0.988764
v -0.325820 0.468405 0.094879
v -0.310551 0.602282 -0.025082
v -0.171979 0.469771 0.012342
v -0.173980 0.544581 -0.063089
v -0.388900 0.638006 -0.067314
v 0.041549 -0.031363 2.869657
v 0.151965 -0.015727 2.814450
v 0.064889 0.195591 2.866629
v 0.058543 -0.006370 3.054634
v 0.201066 -0.035609 3.073707
v 0.075070 0.078111 2.999952
v 0.120785 0.163852 2.938881
v 0.224962 0.052967 2.999411
v 0.165973 -0.013865 2.950801
v 0.274966 0.027857 2.839221
v 0.277903 0.207626 2.783759
v 0.020751 0.006971 2.743582
v 0.046739 0.087491 2.374710
v 0.220441 -0.047669 2.700028
v 0.218137 0.100195 2.582234
v 0.216199 0.144755 2.339943
v -0.019410 0.075357 2.702265
v 0.024700 0.226695 2.716802
v 0.107513 0.165099 2.518104
v 0.144931 0.290223 2.850920
v 0.057154 0.303713 2.761197
v 0.140837 0.418322 2.694242
v 0.203971 0.418141 2.709657
v 0.073548 0.303362 2.551164
v 0.212717 0.127934 2.504762
v 0.302617 0.314918 2.587949
v 0.288215 0.298402 2.505950
v 0.157651 0.402936 2.485520
v 0.310271 0.521056 2.603040
v 0.238249 0.488875 2.511187
v 0.243547 0.491240 2.516791
v 0.345040 0.376763 2.462513
v -0.002137 0.097952 2.216616
v -0.197730 0.210561 1.953641
v -0.053148 0.183883 1.951509
v -0.073776 0.171279 2.123259
v -0.004243 0.284207 2.011540
v 0.031896 0.322429 2.055292
v 0.150884 0.076184 2.220375
v 0.051930 0.151986 2.045523
v 0.088142 0.311351 2.100716
v 0.159303 0.161543 2.086440
v 0.018265 0.288975 2.275574
v -0.098401 0.340617 2.107583
v -0.003403 0.394787 2.103603
v 0.013448 0.341507 2.169200
v -0.000892 0.405434 2.008718
v 0.098190 0.346474 2.262885
v 0.267118 0.344459 2.388601
v 0.218119 0.266108 2.230173
v 0.206529 0.471097 2.474922
v -0.134030 0.187927 1.894461
v 0.008509 0.301153 1.887091
v -0.133561 0.187028 1.895637
v -0.104983 0.352628 1.958509
v -0.144521 0.364129 1.826006
v 0.032773 0.288000 1.785202
v -0.173383 0.175461 1.574305
v -0.142180 0.179766 1.634610
v 0.103509 0.182829 1.556705
v -0.116063 0.157902 1.492506
v -0.006776 0.231812 1.624331
v 0.016638 0.082121 1.479869
v 0.149951 0.090813 1.485631
v 0.224659 0.078850 1.429276
v 0.150635 0.299981 1.611189
v 0.180269 0.455914 1.682265
v 0.235347 0.270176 1.468246
v 0.036499 0.418175 1.914613
v 0.040194 0.470892 1.834726
v -0.045506 0.445458 1.624092
v 0.070478 0.456870 1.780166
v 0.105777 0.426027 1.713838
v 0.102610 0.442175 1.723825
v 0.106219 0.444312 1.724563
v 0.099969 0.442587 1.727420
v 0.177439 0.466821 1.512319
v -0.018064 0.097319 1.092607
v 0.178830 0.061956 1.249004
v 0.013494 0.062632 1.062619
v 0.127408 0.062412 1.021362
v -0.113679 -0.000415 0.863392
v 0.059608 0.088995 0.870891
v 0.032655 0.065809 0.784445
v -0.042940 0.006973 0.530366
v -0.151112 -0.009182 0.485797
v -0.061213 0.065255 0.466702
v -0.030436 0.151534 0.694131
v -0.140308 -0.251359 -0.033833
v -0.140935 -0.254064 -0.034445
v -0.083919 -0.264869 -0.057973
v -0.050665 -0.152132 -0.026152
v 0.111957 -0.083341 0.091112
v 0.101703 -0.084410 0.060162
v -0.073588 -0.089864 0.419520
v 0.096060 0.023072 0.201274
v -0.058828 0.142941 0.198927
v -0.081854 0.381006 -0.002930
v 0.027744 0.256299 0.106710
v 0.165191 0.037414 0.167435
v 0.124289 0.246310 0.038527
v 0.224218 0.014178 0.069700
v 0.275352 0.059172 0.057565
v -0.115340 -0.278198 -0.047085
v 0.178451 -0.121444 -0.195482
v 0.036824 0.093856 -0.177839
v 0.062784 -0.138477 -0.103236
v 0.078396 -0.205194 -0.158581
v 0.183199 -0.185179 -0.221346
v 0.234839 -0.150806 -0.107752
v 0.114257 0.207840 -0.149563
v -0.144224 0.425423 -0.131148
v -0.039601 0.447506 -0.094689
v 0.274864 0.129761 -0.145218
v 0.201567 0.263190 -0.102532
v 0.349961 -0.114191 -0.025182
v 0.289157 0.021994 0.028628
v 0.315491 -0.121596 -0.089674
v 0.287147 -0.006458 -0.133476
v 0.371070 -0.036504 -0.075394
v 0.288019 -0.121258 -0.106200
v 0.286398 0.037799 0.047085
v 0.358514 0.070352 -0.094933
v 0.343034 0.117913 -0.090938
v 0.357908 0.070044 -0.093697
v 0.314084 0.205318 -0.153177
v -0.012905 0.096894 1.330682
v 0.170441 0.437988 1.341372
v -0.062544 0.245636 1.237395
v -0.043194 0.355581 1.195930
v 0.043804 0.387116 1.004836
v 0.087349 0.041899 1.243162
v 0.238134 0.211152 1.305252
v 0.213503 0.283309 1.103925
v 0.183873 0.409982 1.134055
v -0.039573 0.297847 0.811276
v 0.102694 0.233517 0.897550
v 0.172731 0.346613 0.986384
v -0.104640 0.498436 -0.032758
vn -0.8553 0.3705 0.3620
vn -0.9814 0.1910 0.0196
vn -0.7353 -0.6775 0.0163
vn -0.3302 -0.9077 0.2589
vn -0.6002 0.7934 0.1011
vn -0.9908 -0.0434 -0.1278
vn -0.8329 0.4133 -0.3679
vn -0.7647 -0.5500 0.3357
vn -0.4788 -0.6924 0.5397
vn -0.5379 -0.0114 0.8429
vn -0.8879 0.1420 0.4375
vn -0.8885 -0.3446 -0.3029
vn -0.0640 -0.9925 -0.1045
vn -0.9385 -0.2589 -0.2283
vn -0.8290 0.5293 -0.1804
vn -0.7061 0.6840 0.1830
vn -0.9291 -0.0339 0.3682
vn 0.2097 -0.9765 -0.0494
vn 0.2267 -0.8899 0.3958
vn -0.3615 -0.8757 0.3201
vn -0.8719 -0.1494 -0.4664
vn -0.7472 0.1109 -0.6552
vn -0.8827 -0.3162 0.3475
vn -0.7724 -0.4466 0.4515
vn -0.5963 -0.7829 0.1776
vn -0.6140 -0.7611 0.2092
vn -0.7367 -0.5854 0.3385
vn -0.9387 0.0468 0.3416
vn 0.0013 0.9781 0.2080
vn 0.4459 0.8686 0.2162
vn 0.1802 0.4635 -0.8675
vn 0.3696 0.7720 0.5170
vn -0.5876 0.6867 0.4279
vn -0.3690 0.8092 0.4571
vn -0.5153 0.4435 0.7332
vn 0.1118 0.5527 0.8258
vn -0.2177 0.0041 0.9760
vn 0.3093 0.6337 0.7090
vn 0.4083 0.5898 0.6967
vn -0.9242 -0.1671 0.3432
vn -0.9424 -0.1358 0.3058
vn -0.2657 -0.5707 0.7769
vn -0.5084 -0.6161 0.6015
vn -0.5673 0.4527 -0.6879
vn -0.8469 0.2230 0.4827
vn -0.1479 0.4266 -0.8922
vn -0.7232 -0.6628 0.1938
vn -0.4555 -0.7331 0.5050
vn -0.9172 -0.2596 -0.3022
vn -0.3050 -0.8968 0.3205
vn -0.2182 -0.8328 -0.5087
vn -0.3888 -0.8928 0.2274
vn -0.5753 -0.7957 -0.1890
vn 0.0542 0.1864 -0.9810
vn -0.3489 -0.7191 0.6009
vn -0.1987 -0.9467 0.2533
vn -0.9648 -0.0479 -0.2587
vn 0.1065 0.2304 -0.9672
vn -0.2043 -0.7340 -0.6476
vn -0.4916 -0.7873 0.3721
vn -0.1772 0.2904 -0.9403
vn -0.7343 -0.4147 -0.5373
vn -0.4920 0.0545 -0.8689
vn -0.3371 0.2427 -0.9096
vn -0.0932 0.2211 -0.9708
vn -0.5883 0.6644 -0.4609
vn -0.1074 0.2214 -0.9692
vn 0.1579 0.4090 -0.8987
vn 0.0052 0.2811 -0.9596
vn 0.3851 0.7663 -0.5142
vn 0.0349 0.9460 -0.3221
vn -0.6505 0.7511 0.1123
vn -0.2397 0.5712 0.7850
vn 0.0216 0.9727 -0.2309
vn 0.3088 0.8419 0.4425
vn -0.5629 0.5002 0.6579
vn -0.9408 -0.2040 -0.2705
vn -0.6012 -0.7934 0.0948
vn -0.0191 0.6720 0.7403
vn -0.7610 0.4298 0.4858
vn 0.8493 -0.5019 0.1636
vn 0.7884 0.1206 0.6032
vn 0.1003 -0.9879 0.1179
vn -0.6185 -0.3130 0.7207
vn 0.4367 -0.8961 -0.0784
vn 0.4894 -0.5148 0.7039
vn -0.8138 -0.5771 -0.0682
vn 0.6213 -0.5996 -0.5044
vn 0.3917 -0.8689 -0.3027
vn -0.8006 0.5437 0.2518
vn -0.9567 0.2897 -0.0283
vn -0.8156 0.4234 0.3943
vn -0.6164 -0.7067 0.3473
vn 0.5120 -0.8577 -0.0459
vn 0.9658 -0.1727 0.1930
vn -0.9539 0.2952 -0.0544
vn 0.8714 -0.4718 -0.1342
vn 0.4320 0.8484 0.3059
vn 0.0170 0.9266 -0.3756
vn -0.5527 0.8212 -0.1416
vn -0.6294 0.7521 -0.1954
vn -0.4183 0.8056 -0.4195
vn 0.2809 0.7895 0.5456
vn -0.9722 -0.2274 0.0553
vn -0.4393 0.8775 0.1921
vn -0.5599 -0.7785 -0.2835
vn 0.9091 0.0337 -0.4151
vn 0.0415 0.6273 0.7776
vn -0.6493 -0.7595 0.0404
vn 0.4239 -0.8668 -0.2624
vn -0.7427 -0.6177 0.2584
vn 0.8686 0.2872 -0.4037
vn 0.8893 -0.4316 -0.1510
vn 0.2832 -0.6521 -0.7032
vn 0.6388 -0.3369 -0.6916
vn -0.7137 0.5225 0.4664
vn 0.8946 0.2966 -0.3342
vn 0.2630 0.9063 0.3307
vn 0.0067 0.9645 0.2638
vn 0.7244 0.3558 -0.5905
vn 0.5271 0.6700 -0.5227
vn -0.0610 0.9921 -0.1096
vn 0.8362 -0.5458 0.0534
vn 0.3537 -0.8472 -0.3965
vn 0.9063 -0.3939 0.1526
vn 0.3442 -0.7056 -0.6194
vn -0.6833 -0.6953 -0.2226
vn -0.2083 -0.7788 0.5917
vn -0.6135 -0.7847 -0.0884
vn 0.3256 -0.5870 0.7412
vn 0.2723 -0.6818 0.6789
vn 0.9536 0.0108 0.3007
vn 0.7645 -0.3870 0.5155
vn -0.7319 -0.6812 0.0139
vn 0.4251 0.8077 0.4085
vn 0.6694 0.6669 0.3273
vn 0.7005 -0.6366 0.3226
vn -0.6165 0.7255 0.3058
vn -0.4897 0.8609 0.1375
vn -0.1628 0.9772 -0.1361
vn 0.7398 0.6153 0.2723
vn 0.2986 -0.5984 -0.7434
vn 0.9118 0.3483 -0.2174
vn -0.2174 -0.9531 0.2106
vn 0.5879 0.8087 0.0158
vn 0.0885 -0.9283 -0.3610
vn 0.6990 0.4974 0.5137
vn 0.8897 -0.1934 -0.4135
vn 0.1819 0.9637 0.1955
vn -0.1969 -0.9677 0.1575
vn -0.7013 -0.5866 0.4050
vn 0.7732 -0.5545 -0.3077
vn 0.8263 -0.5219 -0.2116
vn 0.9387 0.3373 0.0713
vn 0.7358 0.4484 -0.5074
vn 0.7891 0.1876 -0.5849
vn 0.7534 -0.6290 -0.1916
vn 0.5709 -0.7737 -0.2746
vn 0.0423 -0.8108 0.5837
vn 0.4450 -0.7403 0.5040
vn -0.9450 -0.0695 -0.3194
vn -0.4658 -0.4515 0.7610
vn 0.3931 -0.7645 0.5108
vn 0.9185 -0.3937 -0.0349
vn -0.0860 -0.9743 0.2082
vn -0.2596 -0.9014 0.3466
vn 0.4581 -0.6913 0.5588
vn 0.7386 0.0426 0.6728
vn 0.4631 0.6829 0.5650
vn 0.2958 0.6159 0.7302
vn 0.4384 0.5829 0.6841
vn 0.6419 -0.1188 0.7575
vn 0.6174 0.5718 0.5402
vn 0.5991 -0.2606 0.7570
vn 0.5135 0.1849 -0.8379
vn 0.6365 -0.4367 -0.6357
vn 0.3118 -0.8624 0.3987
vn 0.5802 -0.8116 0.0683
vn 0.2551 -0.7678 0.5877
vn 0.4303 -0.0795 -0.8991
vn 0.1659 0.1997 -0.9657
vn 0.5105 0.8001 -0.3150
vn 0.6018 0.7476 0.2808
vn 0.3845 0.2718 0.8822
vn 0.5313 0.8320 -0.1597
vn 0.4147 -0.7282 0.5456
vn 0.9748 -0.0736 -0.2105
vn 0.4670 -0.5585 0.6855
vn -0.2499 -0.1437 0.9575
vn 0.3329 -0.8185 -0.4682
vn 0.2839 -0.0939 -0.9542
vn 0.9168 0.3975 -0.0370
vn -0.2557 0.1408 -0.9564
vn 0.7109 0.4375 -0.5505
vn 0.5103 -0.8263 0.2382
vn 0.1647 -0.4306 0.8874
vn 0.4691 0.8704 -0.1493
vn -0.6711 0.7364 -0.0857
vn -0.9555 -0.2703 -0.1179
vn -0.6668 0.7168 0.2038
vn -0.1812 -0.9834 -0.0016
vn 0.9944 -0.0258 -0.1025
vn 0.6847 -0.6614 0.3059
vn 0.5452 0.8264 -0.1406
vn -0.0946 0.9379 -0.3337
vn 0.9748 -0.0074 -0.2229
vn 0.1546 0.8590 -0.4881
vn 0.6612 0.4408 -0.6071
vn 0.4776 -0.7983 0.3668
vn -0.9377 0.3110 0.1547
vn 0.3813 0.9244 0.0049
vn -0.7523 -0.0956 0.6518
vn -0.7621 0.2204 0.6087
vn 0.9308 0.2008 0.3056
vn 0.3489 -0.7570 0.5524
vn 0.6243 -0.7752 -0.0963
vn 0.1314 0.2723 -0.9532
vn 0.7025 0.4976 -0.5088
usemtl color.basal_dendrites_skeleton_color_0_color
s 1
f 2//1 3//2 1//3
f 1//3 3//2 138//4
f 3//2 5//5 4//6
f 138//4 3//2 4//6
f 4//6 5//5 6//7
f 113//8 2//1 1//3
f 9//9 14//10 10//11
f 15//12 8//13 12//14
f 12//14 13//15 15//12
f 13//15 36//16 16//17
f 7//18 161//19 9//9
f 16//17 17//20 13//15
f 20//21 55//22 66//23
f 24//24 29//25 26//26
f 26//26 33//27 34//28
f 33//27 17//20 16//17
f 37//29 39//30 38//31
f 39//30 40//32 38//31
f 35//33 39//30 42//34
f 43//35 75//36 32//37
f 44//38 77//39 75//36
f 42//34 43//35 34//28
f 31//40 24//24 26//26
f 42//34 34//28 35//33
f 44//38 39//30 38//31
f 44//38 42//34 39//30
f 36//16 35//33 16//17
f 54//41 49//42 48//43
f 55//22 52//44 54//41
f 55//22 54//41 53//45
f 57//46 52//44 55//22
f 51//47 56//48 50//49
f 56//48 51//47 45//50
f 49//42 53//45 48//43
f 54//41 52//44 50//49
f 56//48 54//41 50//49
f 47//51 28//52 45//50
f 47//51 60//53 28//52
f 61//54 63//55 60//53
f 64//56 63//55 59//57
f 59//57 63//55 60//53
f 65//58 62//59 59//57
f 56//48 45//50 25//60
f 57//46 61//54 58//61
f 61//54 65//58 63//55
f 63//55 65//58 60//53
f 52//44 58//61 46//62
f 58//61 47//51 46//62
f 58//61 61//54 47//51
f 68//63 67//64 55//22
f 70//65 68//63 23//66
f 70//65 69//67 68//63
f 191//68 71//69 72//70
f 72//70 71//69 69//67
f 67//64 71//69 57//46
f 68//63 55//22 20//21
f 29//25 25//60 45//50
f 56//48 24//24 66//23
f 67//64 57//46 55//22
f 37//29 36//16 18//71
f 73//72 10//11 14//10
f 23//66 22//73 79//74
f 22//73 75//36 79//74
f 72//70 76//75 77//39
f 77//39 76//75 75//36
f 85//76 96//77 80//78
f 86//79 82//80 85//76
f 89//81 87//82 81//83
f 85//76 80//78 83//84
f 81//83 87//82 88//85
f 83//84 88//85 84//86
f 87//82 85//76 84//86
f 98//87 94//88 93//89
f 100//90 97//91 82//80
f 85//76 82//80 96//77
f 82//80 97//91 96//77
f 122//92 92//93 98//87
f 98//87 104//94 94//88
f 105//95 94//88 104//94
f 98//87 103//96 122//92
f 106//97 105//95 104//94
f 108//98 110//99 109//100
f 107//101 110//99 130//102
f 102//103 108//98 107//101
f 97//91 98//87 96//77
f 13//15 12//14 11//104 10//11
f 101//105 103//96 97//91
f 100//90 101//105 97//91
f 98//87 91//106 96//77
f 108//98 105//95 111//107
f 110//99 111//107 109//100
f 81//83 93//89 89//81
f 99//108 82//80 86//79
f 89//81 93//89 94//88
f 92//93 104//94 98//87
f 96//77 91//106 80//78
f 92//93 112//109 118//110
f 2//1 113//8 115//111
f 129//112 95//113 118//110
f 115//111 119//114 112//109
f 118//110 121//115 129//112
f 92//93 122//92 112//109
f 115//111 123//116 2//1
f 117//117 124//118 125//119
f 128//120 95//113 129//112
f 117//117 125//119 120//121
f 125//119 123//116 122//92
f 130//102 128//120 107//101
f 107//101 128//120 127//122
f 127//122 125//119 122//92
f 132//123 114//124 133//125
f 133//125 114//124 131//126
f 206//127 142//128 140//129
f 139//130 143//131 147//132
f 139//130 147//132 145//133
f 143//131 139//130 140//129
f 142//128 143//131 140//129
f 4//6 140//129 137//134
f 149//135 148//136 136//137
f 148//136 135//138 134//139
f 150//140 149//135 151//141
f 150//140 5//5 149//135
f 152//142 154//143 151//141
f 152//142 155//144 154//143
f 155//144 156//145 153//146
f 146//147 156//145 155//144
f 156//145 150//140 153//146
f 130//102 111//107 128//120
f 132//123 116//148 114//124
f 113//8 133//125 131//126
f 148//136 117//117 116//148
f 117//117 148//136 126//149
f 148//136 134//139 126//149
f 122//92 123//116 115//111
f 136//137 155//144 153//146
f 146//147 155//144 145//133
f 136//137 151//141 149//135
f 95//113 104//94 118//110
f 130//102 110//99 109//100
f 130//102 109//100 111//107
f 161//19 159//150 157//151
f 161//19 7//18 8//13
f 164//152 163//153 161//19
f 166//154 18//71 167//155
f 216//156 162//157 163//153
f 162//157 159//150 161//19
f 159//150 162//157 160//158
f 183//159 170//160 168//161
f 170//160 169//162 168//161
f 171//163 172//164 27//165
f 169//162 30//166 168//161
f 170//160 171//163 169//162
f 166//154 174//167 175//168
f 176//169 37//29 166//154
f 178//170 176//169 175//168
f 176//169 177//171 44//38
f 178//170 177//171 176//169
f 179//172 180//173 175//168
f 180//173 179//172 181//174
f 181//174 179//172 175//168
f 184//175 188//176 62//59
f 64//56 62//59 187//177
f 189//178 186//179 187//177
f 184//175 198//180 189//178
f 198//180 184//175 185//181
f 192//182 218//183 177//171
f 192//182 177//171 178//170
f 181//174 182//184 194//185
f 192//182 178//170 180//173
f 195//186 199//187 196//188
f 198//180 200//189 197//190
f 200//189 199//187 197//190
f 193//191 203//192 204//193
f 202//194 193//191 204//193
f 186//179 189//178 173//195
f 186//179 173//195 171//163
f 196//188 200//189 195//186
f 173//195 175//168 172//164
f 193//191 198//180 185//181
f 201//196 182//184 196//188
f 181//174 201//196 196//188
f 18//71 166//154 37//29
f 207//197 209//198 6//7
f 208//199 209//198 74//200
f 211//201 208//199 157//151
f 208//199 74//200 157//151
f 212//202 147//132 144//203
f 206//127 211//201 142//128
f 214//204 210//205 209//198
f 214//204 212//202 213//206
f 74//200 215//207 73//72
f 215//207 74//200 210//205
f 217//208 216//156 210//205
f 217//208 213//206 216//156
f 210//205 74//200 209//198
f 214//204 213//206 217//208
f 1//3 132//123 131//126
f 135//138 5//5 3//2
f 27//165 174//167 17//20
f 174//167 165//209 17//20
f 30//166 171//163 27//165
f 176//169 44//38 40//32
f 64//56 183//159 28//52
f 57//46 185//181 61//54
f 28//52 183//159 169//162
f 177//171 77//39 44//38
f 157//151 74//200 14//10
f 73//72 215//207 18//71
f 142//128 144//203 143//131
f 4//6 206//127 140//129
f 21//210 23//66 20//21
f 75//36 22//73 32//37
f 162//157 216//156 160//158
f 78//211 218//183 191//68
f 7//18 12//14 8//13
f 10//11 73//72 13//15
f 9//9 10//11 11//104
f 48//43 66//23 55//22 49//42
f 9//9 11//104 12//14
f 8//13 15//12 17//20
f 18//71 36//16 13//15
f 13//15 17//20 15//12
f 13//15 73//72 18//71
f 7//18 9//9 12//14
f 19//212 21//210 20//21
f 22//73 21//210 19//212
f 66//23 19//212 20//21
f 24//24 56//48 25//60
f 27//165 26//26 30//166
f 26//26 29//25 30//166
f 24//24 25//60 29//25
f 31//40 41//213 24//24
f 66//23 24//24 41//213
f 43//35 32//37 66//23
f 35//33 34//28 16//17
f 33//27 16//17 34//28
f 33//27 26//26 17//20
f 39//30 37//29 40//32
f 35//33 38//31 39//30
f 37//29 38//31 35//33
f 36//16 37//29 35//33
f 43//35 44//38 75//36
f 44//38 43//35 42//34
f 31//40 26//26 34//28
f 40//32 44//38 38//31
f 66//23 41//213 43//35
f 34//28 43//35 41//213
f 34//28 41//213 31//40
f 45//50 46//62 47//51
f 56//48 66//23 49//42
f 54//41 56//48 49//42
f 48//43 49//42 66//23
f 52//44 51//47 50//49
f 52//44 46//62 51//47
f 48//43 53//45 54//41
f 49//42 55//22 53//45
f 61//54 60//53 47//51
f 59//57 62//59 64//56
f 28//52 60//53 63//55
f 64//56 28//52 63//55
f 59//57 60//53 65//58
f 52//44 57//46 58//61
f 45//50 51//47 46//62
f 28//52 30//166 45//50
f 19//212 32//37 22//73
f 69//67 71//69 67//64
f 70//65 72//70 69//67
f 69//67 67//64 68//63
f 66//23 32//37 19//212
f 23//66 68//63 20//21
f 29//25 45//50 30//166
f 26//26 27//165 17//20
f 81//83 88//85 83//84 80//78
f 74//200 73//72 14//10
f 21//210 22//73 23//66
f 23//66 79//74 70//65
f 75//36 76//75 79//74
f 77//39 78//211 72//70
f 79//74 72//70 70//65
f 72//70 79//74 76//75
f 102//103 99//108 86//79 90//214
f 83//84 84//86 85//76
f 87//82 90//214 86//79
f 89//81 90//214 87//82
f 85//76 87//82 86//79
f 88//85 87//82 84//86
f 91//106 93//89 81//83
f 91//106 98//87 93//89
f 94//88 90//214 89//81
f 99//108 100//90 82//80
f 99//108 101//105 100//90
f 99//108 102//103 101//105
f 98//87 97//91 103//96
f 104//94 95//113 106//97
f 108//98 109//100 107//101
f 105//95 108//98 102//103
f 107//101 109//100 110//99
f 102//103 107//101 101//105
f 114//124 116//148 117//117 119//114
f 103//96 101//105 107//101
f 90//214 105//95 102//103
f 105//95 90//214 94//88
f 106//97 111//107 105//95
f 110//99 108//98 111//107
f 80//78 91//106 81//83
f 112//109 122//92 115//111
f 115//111 113//8 114//124
f 134//139 123//116 124//118 126//149
f 115//111 114//124 119//114
f 92//93 118//110 104//94
f 120//121 121//115 119//114
f 112//109 119//114 121//115
f 117//117 120//121 119//114
f 112//109 121//115 118//110
f 2//1 123//116 134//139
f 125//119 124//118 123//116
f 170//160 183//159 64//56 187//177
f 117//117 126//149 124//118
f 127//122 122//92 103//96
f 127//122 128//120 129//112
f 127//122 120//121 125//119
f 120//121 127//122 129//112
f 132//123 133//125 131//126
f 137//134 140//129 138//4
f 138//4 140//129 139//130
f 143//131 144//203 147//132
f 139//130 145//133 141//215
f 141//215 145//133 136//137
f 141//215 136//137 132//123
f 138//4 141//215 132//123
f 138//4 139//130 141//215
f 149//135 135//138 148//136
f 154//143 155//144 153//146
f 152//142 153//146 155//144
f 150//140 154//143 153//146
f 154//143 150//140 151//141
f 149//135 5//5 135//138
f 113//8 131//126 114//124
f 120//121 129//112 121//115
f 136//137 148//136 132//123
f 136//137 153//146 152//142
f 136//137 145//133 155//144
f 156//145 146//147 145//133
f 136//137 152//142 151//141
f 132//123 148//136 116//148
f 107//101 127//122 103//96
f 128//120 106//97 95//113
f 106//97 128//120 111//107
f 159//150 160//158 158//216
f 211//201 159//150 158//216
f 163//153 162//157 161//19
f 165//209 166//154 164//152
f 18//71 215//207 167//155
f 166//154 167//155 164//152
f 164//152 161//19 8//13
f 167//155 163//153 164//152
f 167//155 216//156 163//153
f 27//165 172//164 174//167
f 183//159 168//161 169//162
f 173//195 189//178 181//174
f 171//163 173//195 172//164
f 169//162 171//163 30//166
f 166//154 175//168 176//169
f 175//168 180//173 178//170
f 199//187 202//194 203//192 182//184
f 184//175 62//59 65//58
f 62//59 188//176 187//177
f 185//181 184//175 65//58
f 184//175 189//178 188//176
f 188//176 189//178 187//177
f 170//160 187//177 186//179
f 77//39 177//171 218//183
f 191//68 218//183 192//182
f 191//68 192//182 190//217
f 194//185 205//218 190//217
f 190//217 193//191 185//181
f 203//192 194//185 182//184
f 190//217 205//218 193//191
f 194//185 192//182 180//173
f 192//182 194//185 190//217
f 200//189 198//180 199//187
f 198//180 202//194 204//193 199//187
f 202//194 204//193 203//192
f 199//187 204//193 202//194
f 205//218 203//192 193//191
f 189//178 198//180 197//190
f 200//189 201//196 189//178
f 189//178 197//190 200//189
f 203//192 205//218 194//185
f 186//179 171//163 170//160
f 195//186 197//190 199//187
f 196//188 201//196 200//189
f 199//187 201//196 196//188
f 195//186 200//189 197//190
f 181//174 194//185 180//173
f 181//174 175//168 173//195
f 174//167 172//164 175//168
f 165//209 164//152 8//13 17//20
f 193//191 202//194 198//180
f 201//196 199//187 182//184
f 196//188 182//184 181//174
f 181//174 189//178 201//196
f 174//167 166//154 165//209
f 206//127 208//199 211//201
f 208//199 6//7 209//198
f 5//5 207//197 6//7
f 6//7 208//199 206//127
f 142//128 211//201 158//216
f 144//203 158//216 212//202
f 158//216 213//206 212//202
f 142//128 158//216 144//203
f 207//197 147//132 212//202
f 207//197 156//145 147//132
f 212//202 214//204 207//197
f 207//197 214//204 209//198
f 160//158 216//156 213//206
f 210//205 216//156 215//207
f 217//208 210//205 214//204
f 218//183 78//211 77//39
f 134//139 135//138 2//1
f 1//3 138//4 132//123
f 131//126 133//125 1//3
f 135//138 3//2 2//1
f 4//6 137//134 138//4
f 113//8 1//3 133//125
f 9//9 161//19 14//10
f 28//52 169//162 168//161
f 28//52 168//161 30//166
f 176//169 40//32 37//29
f 185//181 65//58 61//54
f 71//69 191//68 190//217
f 71//69 190//217 185//181
f 71//69 185//181 57//46
f 4//6 6//7 206//127
f 150//140 207//197 5//5
f 147//132 156//145 145//133
f 150//140 156//145 207//197
f 157//151 159//150 211//201
f 160//158 213//206 158//216
f 215//207 216//156 167//155
f 14//10 161//19 157//151
f 78//211 191//68 72//70
