# Blender v2.76 (sub 0) OBJ File: 'spines-modeling.blend'
# www.blender.org
mtllib spine-3.mtl
o duplicate_spine_17_hq.002
v -0.124781 0.023209 -0.057103
v -0.035549 -0.002331 0.001215
v 0.070421 -0.051917 -0.008739
v 0.069518 0.045620 -0.005961
v 0.065547 -0.015647 -0.223639
v -0.009021 0.003243 -0.241266
v -0.008213 0.001803 -0.802602
v -0.033658 -0.005665 -0.772466
v -0.035205 0.015683 -0.489412
v -0.045021 -0.000524 -0.792257
v -0.128348 0.034308 -0.967938
v -0.014899 0.005180 -0.999993
v 0.075430 -0.028706 -0.911716
v -0.089927 -0.049003 -0.975968
v 0.018420 0.052453 -0.974011
vn 0.488600 -0.724400 0.486300
vn -0.967500 -0.252500 -0.007800
vn 0.808800 -0.461100 -0.365000
vn 0.541000 0.655400 0.527000
vn -0.985700 0.142400 0.090500
vn -0.441900 -0.217800 0.870200
vn -0.829600 0.556700 0.043300
vn 0.925000 -0.374300 0.064800
vn 0.610600 0.593800 0.524000
vn -0.169000 -0.985300 0.024300
vn -0.898400 0.069800 0.433600
vn 0.471000 0.769500 -0.431300
vn -0.850300 0.445000 -0.280800
vn 0.213400 -0.108900 -0.970900
vn -0.464300 -0.776500 -0.425900
usemtl None
s 1
f 3//1 6//2 5//3
f 4//4 1//5 2//6
f 4//4 6//2 1//5
f 5//3 9//7 4//4
f 13//8 7//9 8//10
f 3//1 5//3 4//4
f 10//11 7//9 15//12
f 15//12 11//13 10//11
f 11//13 12//14 14//15
f 13//8 15//12 7//9
f 13//8 8//10 10//11
f 10//11 14//15 13//8
f 12//14 13//8 14//15
f 13//8 12//14 15//12
f 2//6 1//5 3//1
f 3//1 1//5 6//2
f 2//6 3//1 4//4
f 5//3 6//2 8//10
f 6//2 9//7 8//10
f 9//7 5//3 7//9
f 8//10 7//9 5//3
f 9//7 10//11 8//10
f 7//9 10//11 9//7
f 10//11 11//13 14//15
f 12//14 11//13 15//12
f 4//4 9//7 6//2
