# Blender v2.82 (sub 7) OBJ File: 'eyewire-neuron-em-stack.blend'
# www.blender.org
mtllib spine_25.mtl
o <bpy_struct,_Object("spine_25")>-simple_2.112
v -0.173346 0.144589 2.362406
v -0.069890 0.054950 2.522191
v -0.007498 0.107468 2.601434
v -0.055839 -0.017931 2.368017
v -0.173578 0.008371 2.216241
v -0.099678 -0.126970 2.140453
v -0.134596 0.300310 2.438332
v -0.147725 0.252296 2.183719
v -0.172429 0.011973 1.938489
v -0.131846 0.224763 1.987895
v -0.171671 0.186970 1.951938
v -0.088835 -0.088754 1.824466
v -0.128213 0.220543 1.716761
v -0.174036 0.103752 1.804199
v -0.111352 0.025616 1.593059
v -0.084384 0.166270 1.548677
v -0.066860 0.056797 1.370176
v 0.063816 0.147115 1.262848
v 0.073864 0.000761 2.627310
v 0.221365 -0.230344 2.378172
v 0.097093 -0.282491 2.036240
v -0.071123 -0.187394 2.060265
v -0.048244 -0.228529 1.933186
v 0.078313 -0.256671 1.983076
v -0.033305 -0.154946 1.699310
v 0.034726 -0.202560 1.742889
v 0.116671 -0.108094 1.703864
v 0.142281 -0.077426 1.691043
v 0.142320 -0.077294 1.691059
v 0.136224 -0.211787 1.771656
v 0.101846 -0.231780 1.665072
v 0.016098 -0.132331 1.525572
v 0.142323 -0.077292 1.691057
v 0.141676 -0.077830 1.689976
v -0.032667 -0.023607 1.426467
v 0.164857 -0.061368 1.370034
v 0.038705 -0.117476 1.261022
v 0.060264 -0.011149 1.177282
v 0.060144 -0.057711 1.153815
v 0.060146 -0.057709 1.153814
v 0.083044 -0.016439 1.161161
v 0.143328 -0.162954 1.207614
v 0.092592 -0.098763 1.174799
v 0.143327 -0.162953 1.207615
v 0.060271 -0.057811 1.149061
v 0.145254 0.095967 1.181929
v 0.103584 0.019459 1.045402
v 0.124003 -0.137503 1.048122
v 0.143324 -0.162952 1.207615
v 0.232784 -0.133347 1.191534
v 0.175062 -0.170180 1.167245
v 0.078018 0.220878 2.600806
v 0.137663 0.313152 2.520123
v 0.243967 0.179511 2.577362
v 0.266120 0.311965 2.555027
v 0.307148 0.296321 2.372203
v 0.309771 0.441142 2.497166
v -0.028824 0.431189 2.415980
v 0.062430 0.542250 2.282883
v -0.004022 0.463820 2.133920
v 0.133781 0.481400 2.440129
v 0.247283 0.520481 2.308991
v -0.126906 0.350649 1.958604
v -0.001633 0.442823 2.082204
v 0.060570 0.396466 1.981729
v 0.163431 0.323217 1.958147
v 0.273459 0.370157 2.100347
v -0.001523 0.321802 1.852657
v 0.016631 0.250529 1.691612
v 0.080179 0.258880 1.798078
v 0.036781 0.231299 1.495057
v 0.139631 0.224699 1.664938
v 0.205851 0.016241 1.503563
v 0.143478 0.093621 1.314049
v 0.250144 0.049197 2.601781
v 0.330813 0.195289 2.495624
v 0.371245 -0.107151 2.472442
v 0.354512 -0.120836 2.189953
v 0.370541 0.027107 2.307943
v 0.370189 0.067297 2.300927
v 0.285920 0.126036 2.065556
v 0.275197 0.050857 2.027678
v 0.342556 -0.043711 2.097673
v 0.303341 0.206382 2.189945
v 0.233155 -0.047267 1.862558
v 0.289529 0.081473 1.906757
v 0.230867 -0.181259 2.020697
v 0.286047 -0.092161 1.955027
v 0.206034 0.142607 1.772778
v 0.187504 0.098557 1.592535
v 0.226972 -0.050529 1.184831
v 0.229915 0.075902 1.042931
v 0.332479 -0.098554 1.074773
v -0.082336 0.004744 0.235296
v 0.064015 0.115578 0.188139
v -0.039650 0.075281 0.106190
v -0.082250 0.128672 0.057331
v -0.039617 0.079331 -0.028977
v -0.103649 -0.016081 -0.026776
v 0.061272 -0.009363 0.002178
v -0.123367 0.054446 -0.138755
v -0.251502 -0.127803 -0.225285
v -0.268142 -0.063709 -0.241741
v -0.300043 -0.078206 -0.285511
v -0.216690 -0.016513 -0.320074
v -0.211125 -0.044326 -0.336174
v 0.093565 0.135420 -0.121583
v 0.035794 0.226439 -0.410186
v -0.167629 0.017234 -0.404500
v -0.169088 0.010027 -0.445526
v -0.196572 0.035465 -0.447138
v -0.219802 0.071059 -0.520306
v -0.031894 0.215458 -0.439907
v -0.194004 0.036163 -0.444255
v -0.113345 0.062888 -0.529473
v 0.039816 0.002239 -0.507839
v -0.098687 0.183585 -0.599018
v 0.144648 -0.033729 0.939760
v 0.191566 -0.109246 0.818652
v 0.271521 -0.193389 1.044130
v 0.243517 -0.206575 0.731724
v 0.168128 -0.114701 0.684279
v 0.313388 -0.201283 0.564666
v 0.209333 -0.148116 0.697956
v 0.325847 -0.210205 0.753274
v 0.082040 -0.082641 0.532761
v 0.144592 0.052055 0.535162
v 0.248172 -0.163545 0.456725
v 0.035635 0.009052 0.402109
v -0.001225 -0.106142 0.400042
v -0.055975 -0.083774 0.333499
v 0.085448 -0.167543 0.375743
v -0.060490 -0.069758 0.318125
v -0.063553 -0.069656 0.319570
v -0.061385 -0.071045 0.319930
v 0.117114 -0.075502 0.222889
v 0.168034 -0.017514 0.215295
v -0.032895 -0.094496 0.013736
v 0.017300 -0.091308 0.181949
v -0.103648 -0.147973 -0.082344
v 0.083252 -0.165844 -0.129354
v 0.008970 -0.056182 -0.027731
v 0.009197 -0.056080 -0.028010
v -0.041093 -0.093418 -0.052169
v -0.209903 -0.220772 -0.185983
v -0.073828 -0.319123 -0.288862
v -0.044339 -0.340677 -0.310354
v -0.021413 -0.351645 -0.324435
v 0.001065 -0.299267 -0.315885
v 0.227100 -0.144151 -0.264607
v -0.079254 -0.105044 -0.352986
v 0.107161 -0.194154 -0.376015
v 0.192336 -0.187876 -0.426671
v 0.262187 -0.257578 -0.383835
v 0.067588 0.199877 -0.213207
v 0.237240 0.123395 -0.137119
v 0.185291 0.318191 -0.306368
v 0.361441 0.154945 -0.210938
v 0.084609 0.271625 -0.390996
v 0.045496 0.274033 -0.545562
v 0.164286 0.340521 -0.487860
v 0.167831 0.344313 -0.497923
v 0.237610 0.342498 -0.356678
v 0.237609 0.384238 -0.420688
v 0.285287 0.312736 -0.347770
v 0.285210 0.313939 -0.348187
v 0.173205 0.348056 -0.469826
v 0.179024 0.346488 -0.468122
v 0.276567 0.108454 0.944232
v 0.354464 -0.208602 0.917283
v 0.207812 0.060223 0.807308
v 0.209856 0.069040 0.718762
v 0.411660 -0.155161 0.809628
v 0.219165 0.085636 0.618144
v 0.418082 -0.118857 0.615169
v 0.324994 -0.128605 0.527180
v 0.146677 0.092442 0.456766
v 0.168078 0.024637 0.345493
v 0.212467 -0.025535 -0.109947
v 0.300758 -0.030081 -0.205657
v 0.264497 0.030487 -0.304138
v 0.233383 0.160495 -0.364273
v 0.291622 -0.040253 -0.368927
v 0.348221 -0.162710 -0.364782
vn -0.9573 -0.0998 0.2712
vn -0.6408 -0.6788 0.3587
vn -0.7613 -0.4357 0.4802
vn -0.9100 0.4117 -0.0483
vn -0.9142 -0.3522 0.2002
vn -0.9596 -0.2664 -0.0904
vn -0.6919 -0.6684 0.2728
vn -0.1295 0.8740 -0.4684
vn -0.7267 0.6199 -0.2959
vn -0.9833 -0.0523 -0.1743
vn -0.8468 -0.4801 -0.2287
vn 0.0211 0.9434 -0.3308
vn -0.7954 0.4969 -0.3469
vn -0.9362 0.0670 -0.3450
vn -0.8989 -0.4145 -0.1421
vn 0.0054 -0.9935 -0.1135
vn -0.6623 -0.7201 0.2065
vn -0.5740 -0.8118 -0.1068
vn 0.0473 -0.9698 -0.2394
vn 0.0645 -0.9380 0.3404
vn -0.2108 -0.4050 0.8897
vn 0.9893 -0.0038 -0.1456
vn 0.9071 -0.3662 0.2075
vn 0.6515 -0.2805 0.7048
vn -0.2400 -0.9578 -0.1579
vn -0.7156 -0.6897 -0.1106
vn -0.2215 -0.9291 -0.2960
vn 0.4846 -0.8710 -0.0806
vn 0.8991 -0.2821 -0.3346
vn 0.5913 0.7781 0.2118
vn 0.9934 -0.1076 -0.0395
vn 0.4713 -0.7451 -0.4718
vn -0.6552 -0.7362 -0.1694
vn 0.8239 -0.5463 0.1506
vn 0.8541 -0.0634 -0.5162
vn -0.9673 -0.1199 -0.2233
vn -0.4000 0.5064 -0.7638
vn -0.4177 -0.8896 -0.1847
vn -0.0479 -0.7369 -0.6743
vn -0.7876 0.4789 -0.3877
vn -0.6286 -0.6893 -0.3602
vn -0.9896 -0.0889 -0.1132
vn -0.3486 -0.7192 -0.6010
vn -0.6904 -0.6765 -0.2561
vn -0.0558 -0.9890 0.1369
vn 0.4318 -0.4339 0.7907
vn 0.9015 -0.0392 -0.4309
vn 0.8353 0.1910 0.5156
vn -0.4878 0.0355 0.8722
vn 0.4107 -0.1440 0.9003
vn -0.1100 0.3807 0.9181
vn -0.5484 0.6807 0.4855
vn 0.3888 0.2095 0.8972
vn -0.0902 0.4950 0.8642
vn 0.4090 0.2635 0.8736
vn 0.9078 0.2047 0.3661
vn 0.9940 0.1078 -0.0181
vn 0.6589 0.4927 0.5684
vn -0.1411 0.7511 0.6449
vn -0.7677 0.4526 -0.4536
vn -0.7966 0.3854 0.4656
vn 0.7745 0.4062 -0.4849
vn -0.2515 0.9662 -0.0570
vn 0.4438 0.8310 -0.3352
vn 0.6123 0.6071 -0.5064
vn 0.4366 0.7559 -0.4878
vn 0.9356 0.3159 -0.1578
vn 0.9814 0.1440 -0.1265
vn 0.9510 0.2030 -0.2333
vn 0.9792 0.0334 -0.2001
vn 0.9707 0.0282 -0.2385
vn 0.9483 0.2107 -0.2374
vn 0.9936 0.0077 -0.1125
vn 0.8953 -0.2650 -0.3581
vn 0.8842 -0.1356 -0.4469
vn 0.9056 0.3014 -0.2985
vn 0.8262 0.5629 -0.0231
vn 0.2082 0.9434 -0.2583
vn 0.1904 0.9621 0.1949
vn 0.1209 -0.9690 0.2152
vn 0.9148 -0.0041 0.4038
vn -0.9289 -0.0468 0.3674
vn -0.1541 0.9805 0.1221
vn -0.6497 0.7074 0.2781
vn -0.3266 0.9451 0.0063
vn -0.7993 0.4034 0.4453
vn -0.9491 -0.0117 -0.3147
vn -0.7527 -0.0541 0.6561
vn -0.6169 -0.2905 -0.7314
vn -0.6978 -0.6695 0.2546
vn -0.7330 0.6211 -0.2774
vn -0.3402 0.8044 0.4869
vn -0.6139 0.4721 0.6326
vn 0.0681 0.7207 0.6898
vn -0.8415 0.5164 0.1587
vn -0.5516 0.6934 0.4636
vn -0.9008 0.3747 0.2193
vn -0.3793 0.4020 -0.8334
vn 0.1531 -0.4049 -0.9015
vn -0.1542 -0.6274 -0.7632
vn -0.9321 -0.1694 -0.3201
vn -0.5987 -0.6379 -0.4844
vn -0.9548 -0.2968 -0.0184
vn -0.8693 0.3220 0.3749
vn 0.2630 0.9566 0.1251
vn -0.9499 -0.3124 0.0032
vn -0.9489 0.0305 -0.3139
vn -0.5294 -0.8464 -0.0574
vn -0.2175 0.9155 0.3385
vn -0.8318 -0.3103 0.4601
vn -0.8608 -0.4653 0.2058
vn 0.2188 -0.9146 -0.3401
vn -0.7182 -0.6913 -0.0787
vn 0.2792 -0.9590 -0.0486
vn 0.6876 0.6478 -0.3280
vn 0.2967 -0.7909 -0.5351
vn -0.0167 -0.9866 -0.1619
vn -0.3144 0.9134 0.2586
vn -0.7614 -0.4075 0.5040
vn 0.4426 -0.8553 0.2691
vn -0.8632 -0.4946 0.1004
vn 0.5001 -0.7385 -0.4521
vn -0.2475 -0.9256 -0.2862
vn -0.3058 -0.1252 0.9438
vn 0.9013 -0.0099 0.4331
vn 0.2525 0.9676 0.0032
vn 0.1102 -0.9933 -0.0344
vn 0.7972 -0.0862 -0.5974
vn -0.6993 0.7099 0.0833
vn 0.3594 -0.7370 0.5723
vn 0.5997 -0.2170 0.7702
vn 0.3046 -0.7322 0.6091
vn -0.3611 -0.8638 0.3514
vn 0.6659 -0.6015 -0.4414
vn -0.3464 -0.9349 -0.0774
vn -0.2843 -0.5648 0.7747
vn -0.3877 -0.5481 -0.7411
vn -0.5879 -0.8089 -0.0089
vn 0.5610 -0.6546 0.5066
vn -0.0299 -0.7364 0.6758
vn -0.1112 -0.8904 -0.4414
vn 0.0382 -0.4041 -0.9139
vn 0.2914 -0.9388 -0.1835
vn 0.2818 -0.9273 -0.2465
vn 0.3222 0.3464 0.8810
vn -0.1677 0.8282 0.5347
vn -0.5919 0.7739 0.2251
vn 0.7497 -0.1015 -0.6540
vn 0.4521 0.7233 -0.5219
vn 0.9320 -0.2060 0.2981
vn 0.2652 0.7767 0.5712
vn 0.3894 0.8495 -0.3559
vn 0.9499 0.1824 0.2536
vn 0.7262 -0.0823 -0.6825
vn 0.8123 0.5720 -0.1131
vn 0.9210 0.3851 0.0588
vn 0.4305 0.7010 -0.5686
vn 0.9850 -0.1465 0.0912
vn 0.6315 -0.7335 0.2514
vn 0.3489 0.9369 0.0208
vn 0.2216 0.9588 -0.1775
vn 0.9556 0.0287 -0.2933
vn 0.7554 0.0398 -0.6540
vn 0.0773 0.9969 0.0155
vn 0.9092 -0.3756 0.1796
vn 0.9353 0.1721 -0.3092
vn 0.9940 0.0700 -0.0837
vn 0.9865 -0.1362 -0.0906
vn -0.7330 0.6753 -0.0810
vn -0.8190 0.5357 -0.2057
vn 0.0764 0.9611 -0.2654
vn -0.0978 0.6713 -0.7347
vn 0.7364 -0.4669 0.4895
vn -0.2145 0.8199 -0.5307
vn -0.1338 -0.9905 -0.0308
vn -0.9310 -0.2250 -0.2874
vn 0.8704 -0.4644 -0.1634
vn 0.6163 -0.7103 -0.3400
vn -0.5001 0.8455 -0.1869
vn -0.2137 0.9276 -0.3064
vn 0.5025 0.8575 -0.1102
vn 0.1629 0.8658 -0.4730
vn 0.9449 0.0232 -0.3266
vn -0.3789 0.8976 -0.2251
usemtl color.basal_dendrites_skeleton_color_0_color
s 1
f 1//1 4//2 2//3
f 11//4 5//5 1//1
f 5//5 9//6 6//7
f 68//8 13//9 11//4
f 14//10 12//11 9//6
f 13//9 69//12 16//13
f 16//13 17//14 35//15
f 11//4 14//10 9//6
f 6//7 21//16 4//2
f 22//17 23//18 24//19
f 20//20 19//21 21//16
f 24//19 21//16 22//17
f 4//2 21//16 19//21
f 29//22 28//23 27//24
f 26//25 23//18 12//11
f 25//26 32//27 31//28
f 31//28 34//29 33//30
f 73//31 34//29 32//27
f 28//23 33//30 27//24
f 33//30 29//22 27//24
f 23//18 30//32 24//19
f 35//15 37//33 32//27
f 37//33 36//34 32//27
f 40//35 39//36 38//37
f 37//33 40//35 38//37
f 37//33 44//38 42//39
f 47//40 48//41 45//42
f 40//35 47//40 41//43
f 43//44 48//41 44//38
f 51//45 50//46 49//47
f 91//48 36//34 42//39
f 42//39 50//46 91//48
f 42//39 51//45 49//47
f 48//41 51//45 44//38
f 9//6 12//11 23//18
f 3//49 75//50 52//51
f 52//51 58//52 3//49
f 54//53 53//54 52//51
f 55//55 54//53 76//56
f 56//57 57//58 55//55
f 53//54 61//59 58//52
f 53//54 54//53 55//55
f 58//52 63//60 7//61
f 67//62 57//58 56//57
f 61//59 59//63 58//52
f 70//64 68//8 66//65
f 68//8 70//64 69//12
f 72//66 90//67 69//12
f 76//56 54//53 75//50
f 80//68 84//69 76//56
f 82//70 86//71 81//72
f 80//68 79//73 82//70
f 88//74 85//75 82//70
f 89//76 66//65 86//71
f 86//71 85//75 89//76
f 34//29 73//31 90//67
f 90//67 89//76 34//29
f 91//48 74//77 36//34
f 46//78 92//79 47//40
f 91//48 92//79 46//78
f 120//80 93//81 50//46
f 91//48 46//78 74//77
f 50//46 93//81 91//48
f 99//82 98//83 101//84
f 98//83 99//82 97//85
f 103//86 104//87 102//88
f 106//89 145//90 104//87
f 106//89 104//87 105//91
f 155//92 108//93 101//84
f 107//94 155//92 101//84
f 101//84 109//95 105//91
f 105//91 109//95 106//89
f 109//95 113//96 114//97
f 117//98 116//99 115//100
f 117//98 115//100 112//101
f 114//97 110//102 111//103
f 109//95 114//97 111//103
f 94//104 97//85 99//82
f 96//105 97//85 94//104
f 119//106 120//80 118//107
f 118//107 48//41 47//40
f 119//106 121//108 120//80
f 172//109 126//110 122//111
f 123//112 121//108 124//113
f 121//108 125//114 120//80
f 122//111 124//113 119//106
f 123//112 124//113 122//111
f 178//115 128//116 132//117
f 132//117 128//116 126//110
f 126//110 127//118 130//119
f 133//120 132//117 131//121
f 133//120 136//122 132//117
f 135//123 131//121 134//124
f 100//125 95//126 136//122
f 139//127 136//122 135//123
f 133//120 178//115 135//123
f 137//128 132//117 136//122
f 129//129 178//115 133//120
f 141//130 179//131 100//125
f 143//132 100//125 142//133
f 142//133 100//125 139//127
f 149//134 141//130 147//135
f 140//136 103//86 145//90
f 151//137 146//138 145//90
f 141//130 140//136 145//90
f 150//139 179//131 141//130
f 141//130 144//140 140//136
f 152//141 141//130 149//134
f 146//138 149//134 147//135
f 153//142 154//143 152//141
f 152//141 149//134 151//137
f 151//137 148//144 147//135
f 147//135 148//144 146//138
f 156//145 157//146 155//92
f 108//93 159//147 113//96
f 182//148 162//149 161//150
f 163//151 164//152 157//146
f 158//153 165//154 166//155
f 164//152 166//155 165//154
f 162//149 167//156 168//157
f 164//152 163//151 166//155
f 182//148 161//150 168//157
f 159//147 168//157 161//150
f 155//92 157//146 159//147
f 155//92 159//147 108//93
f 157//146 166//155 165//154
f 125//114 173//158 170//159
f 170//159 173//158 169//160
f 173//158 174//161 172//109
f 123//112 175//162 125//114
f 175//162 173//158 125//114
f 176//163 177//164 127//118
f 128//116 176//163 123//112
f 178//115 137//128 95//126
f 176//163 128//116 178//115
f 174//161 127//118 172//109
f 175//162 176//163 174//161
f 180//165 179//131 150//139
f 179//131 156//145 107//94
f 179//131 180//165 156//145
f 107//94 100//125 179//131
f 150//139 183//166 181//167
f 150//139 184//168 183//166
f 183//166 182//148 181//167
f 47//40 92//79 118//107
f 8//169 7//61 10//170
f 7//61 1//1 2//3 3//49
f 16//13 71//171 17//14
f 116//99 117//98 160//172
f 77//173 75//50 20//20
f 20//20 75//50 19//21
f 46//78 40//35 18//174
f 127//118 177//164 129//129
f 137//128 136//122 95//126
f 172//109 127//118 126//110
f 184//168 154//143 153//142
f 4//2 19//21 2//3
f 75//50 54//53 52//51
f 76//56 84//69 56//57
f 73//31 71//171 90//67
f 90//67 71//171 69//12
f 134//124 133//120 94//104
f 99//82 138//175 94//104
f 99//82 144//140 138//175
f 140//136 144//140 99//82
f 151//137 145//90 106//89
f 115//100 116//99 151//137
f 19//21 75//50 3//49
f 45//42 39//36 41//43 47//40
f 7//61 8//169 1//1
f 1//1 5//5 4//2
f 5//5 6//7 4//2
f 11//4 8//169 10//170
f 5//5 11//4 9//6
f 1//1 8//169 11//4
f 11//4 13//9 14//10
f 16//13 35//15 15//176
f 13//9 16//13 15//176
f 14//10 13//9 15//176
f 11//4 10//170 68//8
f 21//16 78//177 20//20
f 22//17 9//6 23//18
f 87//178 21//16 24//19
f 87//178 78//177 21//16
f 22//17 21//16 6//7
f 29//22 30//32 28//23
f 26//25 28//23 30//32
f 12//11 25//26 26//25
f 31//28 32//27 34//29
f 25//26 31//28 26//25
f 28//23 31//28 33//30
f 33//30 34//29 29//22
f 31//28 28//23 26//25
f 23//18 26//25 30//32
f 35//15 17//14 37//33
f 18//174 37//33 17//14
f 40//35 41//43 39//36
f 38//37 39//36 37//33
f 37//33 18//174 40//35
f 37//33 43//44 44//38
f 40//35 46//78 47//40
f 43//44 39//36 45//42 48//41
f 37//33 39//36 43//44
f 51//45 48//41 120//80 50//46
f 63//60 58//52 60//179 64//180
f 37//33 42//39 36//34
f 42//39 49//47 50//46
f 42//39 44//38 51//45
f 36//34 73//31 32//27
f 52//51 53//54 58//52
f 55//55 57//58 61//59
f 53//54 55//55 61//59
f 61//59 57//58 62//181
f 58//52 59//63 60//179
f 56//57 84//69 67//62
f 64//180 65//182 63//60
f 97//85 96//105 100//125 98//83
f 67//62 65//182 64//180
f 59//63 67//62 64//180
f 59//63 64//180 60//179
f 66//65 67//62 84//69
f 62//181 67//62 59//63
f 65//182 66//65 68//8
f 67//62 66//65 65//182
f 62//181 59//63 61//59
f 57//58 67//62 62//181
f 63//60 68//8 10//170
f 89//76 72//66 70//64
f 66//65 89//76 70//64
f 71//171 16//13 69//12
f 69//12 70//64 72//66
f 74//77 18//174 71//171
f 18//174 74//77 46//78
f 65//182 68//8 63//60
f 77//173 80//68 76//56
f 75//50 77//173 76//56
f 77//173 79//73 80//68
f 83//183 79//73 78//177
f 80//68 81//72 84//69
f 81//72 86//71 66//65
f 88//74 83//183 87//178
f 78//177 87//178 83//183
f 80//68 82//70 81//72
f 79//73 83//183 82//70
f 83//183 88//74 82//70
f 77//173 78//177 79//73
f 88//74 30//32 85//75
f 93//81 92//79 91//48
f 73//31 36//34 74//77
f 86//71 82//70 85//75
f 95//126 96//105 94//104
f 94//104 178//115 95//126
f 96//105 95//126 100//125
f 99//82 101//84 103//86
f 113//96 112//101 111//103 114//97
f 104//87 145//90 102//88
f 103//86 101//84 105//91
f 103//86 105//91 104//87
f 101//84 108//93 109//95
f 101//84 98//83 107//94
f 140//136 99//82 103//86
f 106//89 110//102 151//137
f 109//95 110//102 106//89
f 109//95 111//103 110//102
f 113//96 109//95 108//93
f 110//102 115//100 151//137
f 112//101 113//96 117//98
f 114//97 111//103 112//101 115//100
f 135//123 134//124 138//175 139//127
f 114//97 115//100 110//102
f 48//41 118//107 120//80
f 126//110 123//112 122//111
f 119//106 124//113 121//108
f 129//129 130//119 127//118
f 130//119 132//117 126//110
f 133//120 135//123 136//122
f 135//123 133//120 131//121
f 131//121 130//119 129//129 133//120
f 100//125 136//122 139//127
f 130//119 131//121 132//117
f 143//132 142//133 144//140 141//130
f 132//117 137//128 178//115
f 142//133 143//132 138//175
f 141//130 145//90 146//138 147//135
f 144//140 142//133 138//175
f 139//127 143//132 142//133
f 138//175 143//132 139//127
f 141//130 100//125 143//132
f 151//137 147//135 146//138
f 151//137 116//99 153//142 152//141
f 152//141 150//139 141//130
f 150//139 152//141 154//143
f 146//138 148//144 149//134
f 149//134 148//144 151//137
f 163//151 157//146 165//154 166//155
f 156//145 155//92 107//94
f 156//145 158//153 157//146
f 159//147 160//172 113//96
f 159//147 161//150 160//172
f 162//149 182//148 116//99
f 158//153 182//148 165//154
f 182//148 164//152 165//154
f 167//156 160//172 161//150 168//157
f 182//148 168//157 164//152
f 160//172 162//149 116//99
f 157//146 164//152 159//147
f 172//109 122//111 119//106 171//184
f 160//172 167//156 162//149
f 162//149 168//157 161//150
f 159//147 164//152 168//157
f 158//153 166//155 157//146
f 118//107 92//79 171//184
f 169//160 173//158 171//184
f 92//79 169//160 171//184
f 170//159 169//160 93//81
f 120//80 170//159 93//81
f 30//32 29//22 89//76 85//75
f 171//184 173//158 172//109
f 173//158 175//162 174//161
f 176//163 178//115 177//164
f 176//163 175//162 123//112
f 176//163 127//118 174//161
f 150//139 181//167 180//165
f 180//165 181//167 182//148
f 156//145 180//165 158//153
f 158//153 180//165 182//148
f 93//81 169//160 92//79
f 7//61 3//49 58//52
f 7//61 63//60 10//170
f 13//9 68//8 69//12
f 71//171 18//174 17//14
f 98//83 100//125 107//94
f 113//96 160//172 117//98
f 78//177 77//173 20//20
f 24//19 88//74 87//178
f 25//26 15//176 35//15 32//27
f 34//29 89//76 29//22
f 30//32 88//74 24//19
f 118//107 171//184 119//106
f 125//114 170//159 120//80
f 121//108 123//112 125//114
f 129//129 177//164 178//115
f 128//116 123//112 126//110
f 154//143 184//168 150//139
f 182//148 183//166 116//99
f 183//166 153//142 116//99
f 184//168 153//142 183//166
f 2//3 19//21 3//49
f 6//7 9//6 22//17
f 12//11 14//10 25//26
f 14//10 15//176 25//26
f 76//56 56//57 55//55
f 81//72 66//65 84//69
f 90//67 72//66 89//76
f 73//31 74//77 71//171
f 134//124 131//121 133//120
f 133//120 135//123 94//104
f 94//104 135//123 178//115
f 134//124 94//104 138//175
f 102//88 145//90 103//86
