# Blender v2.82 (sub 7) OBJ File: 'eyewire-neuron-em-stack.blend'
# www.blender.org
mtllib spine_1.mtl
o <bpy_struct,_Object("spine_1")>-simple_2.093
v 0.055193 -0.201553 2.988939
v 0.082801 -0.042694 2.947303
v 0.007322 -0.067137 2.900506
v 0.031729 -0.197444 2.823442
v 0.082472 -0.058977 2.725507
v 0.029105 -0.202031 2.635443
v 0.024368 -0.115258 2.512405
v 0.001215 -0.207265 2.523199
v 0.022905 -0.064645 2.562645
v 0.107212 -0.001277 2.465690
v 0.034709 0.001298 2.293861
v -0.029379 -0.191635 2.386738
v 0.013545 -0.289459 2.251723
v -0.049834 -0.066748 2.230368
v 0.065348 0.090422 2.128527
v -0.021372 0.088960 2.039593
v -0.080089 -0.187436 2.218032
v -0.075242 -0.246772 1.894296
v -0.103501 0.013897 1.918158
v 0.137131 0.020585 2.026932
v 0.107525 0.056781 1.839967
v -0.023271 0.147801 1.888112
v -0.079892 -0.211948 1.803229
v 0.058020 -0.256432 1.968787
v 0.029941 -0.254762 1.792055
v -0.022004 -0.311092 1.642471
v 0.003801 -0.270499 1.562395
v 0.159252 -0.099628 1.626217
v 0.104839 -0.150611 1.507923
v -0.211170 -0.002912 1.781191
v -0.185001 0.146888 1.711256
v -0.185663 0.019815 1.652827
v -0.265968 -0.023703 1.553031
v -0.182064 0.097640 1.593470
v -0.185701 0.017771 1.477805
v -0.108899 0.106155 1.526333
v -0.058269 0.138927 1.773061
v -0.082456 0.118438 1.661791
v -0.028556 0.072483 1.578686
v -0.265560 -0.102695 1.266893
v -0.158929 -0.183491 1.611746
v -0.262454 -0.301710 1.276973
v -0.243598 -0.261915 1.399685
v -0.240860 -0.278431 1.192420
v -0.025005 -0.333058 1.502398
v -0.109929 -0.291027 1.335385
v 0.031282 -0.163051 1.384515
v -0.057336 -0.202743 1.254792
v -0.264979 -0.063950 1.346837
v -0.087965 -0.066182 1.348694
v -0.346470 -0.184852 1.241749
v -0.293023 -0.039917 1.154360
v -0.212383 -0.091065 1.116870
v -0.258971 -0.061520 1.138517
v -0.237317 -0.075247 1.128438
v -0.212401 -0.091194 1.117490
v -0.029405 0.025784 1.496272
v -0.265837 -0.346418 1.010827
v -0.154931 -0.337233 1.036681
v -0.225157 -0.339600 0.937394
v -0.293160 -0.203767 1.105977
v -0.295913 -0.154029 0.965292
v -0.214705 -0.090860 1.081396
v -0.293579 -0.192792 0.867898
v -0.211393 -0.097567 0.911954
v -0.131548 -0.204762 1.104688
v -0.249083 -0.158880 0.714823
v -0.209217 -0.322775 0.881925
v -0.197313 -0.292640 0.712294
v -0.232465 -0.235690 0.779401
v -0.140868 -0.079462 0.722846
v -0.077342 -0.042727 0.603618
v -0.072162 -0.252366 0.889606
v -0.068507 -0.299734 0.758455
v 0.028935 -0.220005 0.706394
v 0.023242 -0.138821 0.616329
v -0.211297 -0.237185 0.481823
v -0.132116 -0.164934 0.395181
v -0.027265 -0.261240 0.606535
v -0.081239 -0.234796 0.481448
v 0.079075 -0.216142 0.528355
v 0.003799 -0.073106 0.444142
v -0.077102 -0.170289 0.275019
v -0.024337 -0.267350 0.406225
v 0.049587 -0.230649 0.315825
v -0.269978 0.162083 0.031249
v -0.393823 0.226572 -0.033593
v -0.335408 0.285848 -0.074141
v -0.426633 0.426445 -0.066757
v 0.004568 0.016254 0.372547
v -0.080129 0.007893 0.385743
v -0.023503 0.097768 0.231800
v -0.079307 -0.050846 0.149369
v 0.082785 -0.076763 0.325261
v 0.060296 0.048984 0.219032
v 0.051419 -0.149359 0.194212
v 0.082786 -0.076761 0.325260
v 0.057693 0.099359 0.143299
v -0.211872 0.377524 0.031824
v -0.194288 0.531194 -0.057001
v -0.027434 0.228875 0.116242
v -0.078990 0.343325 0.046579
v -0.017191 0.565468 -0.013905
v 0.061995 0.620666 0.018586
v -0.310621 0.113799 -0.006741
v -0.265388 0.106731 -0.023264
v -0.257363 0.113824 -0.016587
v -0.250166 0.091740 -0.039659
v -0.236711 0.160705 -0.069127
v -0.158603 0.125259 0.006660
v -0.211853 0.142735 0.018411
v -0.105278 0.107759 -0.005106
v -0.148603 0.121977 0.004453
v -0.181449 0.085043 -0.035661
v 0.016730 -0.135890 0.097834
v 0.029491 0.052241 -0.120479
v 0.080496 -0.054482 0.064870
v 0.024116 -0.058244 0.005447
v -0.096059 0.055109 0.045976
v -0.090750 0.026715 0.073969
v -0.095979 0.054655 0.046417
v -0.103379 0.105351 -0.005173
v -0.102144 0.132478 -0.059646
v 0.030158 0.145643 -0.114146
v -0.338084 0.457258 -0.079301
v -0.167586 0.486784 -0.112459
v -0.353133 0.355672 -0.030498
v -0.319820 0.567567 -0.124981
v -0.230784 0.582591 -0.116694
v -0.067729 0.334017 -0.105804
v 0.124258 0.496796 -0.110885
v -0.137800 0.672672 -0.108088
v 0.134477 0.740225 -0.069159
v 0.063663 0.680994 -0.079181
v 0.163817 -0.237487 3.001544
v 0.081546 -0.025347 3.086383
v 0.161867 -0.022809 3.084444
v 0.164364 -0.209540 2.848155
v 0.168968 -0.075604 2.861323
v 0.236713 -0.182798 2.781537
v 0.139923 -0.229977 2.650732
v 0.244117 -0.132359 2.649832
v 0.213131 -0.195920 2.746252
v 0.243243 -0.147888 2.681770
v 0.242928 -0.147264 2.681757
v 0.209003 -0.270615 2.417907
v 0.248038 -0.130998 2.629217
v 0.297846 -0.127254 2.377804
v 0.051946 -0.283096 2.346040
v 0.217464 -0.280376 2.355483
v 0.223520 -0.234104 2.326097
v 0.244730 -0.248079 2.165703
v 0.217463 -0.280377 2.355483
v 0.138321 0.035887 2.258605
v 0.240982 -0.085981 2.216046
v 0.136430 -0.278861 2.089197
v 0.136428 -0.278861 2.089195
v 0.136429 -0.278862 2.089197
v 0.217773 -0.122186 2.028294
v 0.242997 -0.017966 2.016645
v 0.271028 -0.050360 2.108647
v 0.162074 -0.221842 1.940313
v 0.110763 -0.202493 1.830451
v 0.216670 -0.093063 1.930383
v 0.028507 0.075381 1.621298
v 0.188628 -0.092065 1.752948
v 0.244088 -0.027724 1.814651
v 0.106872 -0.225096 1.690760
v 0.076190 -0.115617 0.370327
v 0.082785 -0.076762 0.325259
v 0.103005 -0.091401 0.242214
v 0.082870 -0.045938 0.133772
v 0.137596 0.522544 0.026404
v 0.188033 0.461450 -0.002095
v 0.189669 0.075886 0.010621
v 0.188562 0.122399 -0.116125
v 0.027115 0.468213 -0.014454
v 0.081770 0.474062 -0.017799
v 0.173434 0.267153 -0.116773
v 0.263438 0.352217 -0.015950
v 0.235346 0.249262 -0.086483
v 0.280682 0.365863 -0.114396
v 0.124634 0.374009 -0.116836
v 0.121367 0.657247 -0.118377
v 0.250004 0.465911 -0.091038
v 0.292258 0.299914 -0.098393
v 0.370414 0.361115 -0.096617
v 0.165715 0.552406 -0.054436
v 0.141549 0.671635 -0.150893
vn -0.5306 0.5069 0.6793
vn -0.3842 0.9207 0.0687
vn -0.6858 -0.5599 0.4649
vn -0.7434 -0.6552 -0.1340
vn -0.3849 0.9227 0.0194
vn -0.7927 -0.5674 0.2231
vn -0.9481 0.3125 0.0585
vn -0.8383 -0.4743 0.2690
vn -0.0368 0.9810 0.1903
vn -0.8780 0.4783 0.0164
vn -0.2691 -0.9464 0.1787
vn -0.9509 -0.1823 0.2501
vn -0.4042 -0.9131 -0.0536
vn -0.8684 0.4172 0.2681
vn -0.9378 -0.3294 0.1096
vn 0.0125 0.9917 0.1277
vn -0.3815 0.8856 0.2649
vn -0.9000 0.2308 0.3698
vn -0.5849 0.7524 0.3030
vn -0.6817 -0.7314 -0.0170
vn 0.1500 -0.9846 0.0902
vn -0.0009 -0.9996 -0.0260
vn -0.1088 -0.9897 -0.0929
vn 0.4724 -0.8802 -0.0449
vn 0.7259 -0.6788 -0.1110
vn -0.7516 -0.5891 0.2967
vn -0.7478 -0.6467 0.1499
vn -0.9427 0.0204 0.3330
vn 0.1772 0.7174 -0.6737
vn -0.3085 0.8130 -0.4938
vn -0.6444 0.7512 -0.1430
vn -0.9495 0.2089 0.2340
vn -0.9891 0.0468 0.1394
vn -0.0757 0.9967 0.0294
vn -0.0575 0.9725 0.2257
vn 0.5434 0.7604 -0.3557
vn 0.3263 0.8330 -0.4469
vn 0.1864 0.9514 -0.2448
vn 0.3831 0.7324 -0.5628
vn 0.6375 0.7688 -0.0508
vn -0.6660 -0.6688 0.3302
vn -0.6167 0.7397 0.2692
vn -0.5320 -0.8407 0.1007
vn 0.8515 0.0248 -0.5237
vn 0.8881 -0.1546 -0.4327
vn -0.1306 -0.9857 -0.1061
vn 0.8249 -0.2027 -0.5277
vn 0.2828 -0.9454 -0.1621
vn 0.2416 -0.9613 0.1323
vn 0.3912 0.7598 -0.5192
vn -0.7435 0.5977 -0.2998
vn -0.4713 0.1021 0.8760
vn -0.1490 0.3240 -0.9342
vn -0.9905 -0.0565 -0.1249
vn -0.3248 0.9178 -0.2283
vn 0.1045 0.9322 -0.3465
vn 0.3453 -0.1451 0.9272
vn 0.9991 0.0307 0.0272
vn -0.5893 -0.8073 0.0323
vn 0.5327 -0.8109 0.2421
vn -0.1528 -0.9467 -0.2835
vn -0.2558 -0.9306 -0.2618
vn -0.9682 0.0618 -0.2424
vn -0.0150 0.9993 0.0334
vn 0.0211 0.9983 0.0550
vn -0.8911 0.4517 -0.0429
vn -0.9265 0.3123 -0.2096
vn -0.5244 -0.8299 -0.1906
vn -0.8678 -0.4379 -0.2349
vn -0.0101 0.9830 0.1831
vn -0.0759 0.9887 0.1292
vn 0.9200 -0.2004 0.3367
vn -0.5904 0.7956 0.1360
vn 0.3905 -0.9199 0.0350
vn 0.8617 0.3937 0.3199
vn 0.9678 -0.1376 0.2107
vn -0.9322 -0.0741 0.3542
vn -0.7465 -0.3839 -0.5435
vn 0.4348 -0.8937 -0.1104
vn 0.8969 -0.4021 0.1839
vn 0.6635 0.6496 0.3712
vn -0.9118 -0.1547 -0.3804
vn -0.7342 -0.5510 -0.3966
vn -0.1207 -0.9696 -0.2128
vn -0.6151 0.0823 0.7841
vn -0.4318 -0.0975 -0.8967
vn -0.9817 -0.1894 -0.0173
vn 0.4378 0.6920 0.5739
vn -0.6226 0.7271 0.2891
vn 0.4664 0.4530 0.7597
vn -0.3160 0.8220 0.4738
vn -0.2542 0.2744 0.9274
vn -0.9551 -0.1970 -0.2214
vn 0.7213 0.3778 0.5804
vn 0.8159 0.5024 0.2860
vn -0.2048 0.3432 0.9166
vn -0.1533 0.4035 0.9021
vn -0.1053 -0.1306 0.9858
vn -0.1322 0.4007 0.9066
vn -0.2730 0.2632 0.9253
vn 0.1037 -0.9830 -0.1516
vn -0.2617 -0.7731 -0.5777
vn 0.1183 -0.6946 0.7096
vn -0.3930 -0.8603 0.3247
vn -0.8455 -0.4361 0.3080
vn -0.2191 -0.3230 -0.9207
vn -0.5583 -0.7969 -0.2307
vn -0.1619 -0.2678 0.9498
vn -0.0310 -0.8524 -0.5220
vn 0.7105 -0.6479 -0.2746
vn 0.5606 -0.7846 -0.2648
vn -0.9597 -0.2786 -0.0365
vn -0.1586 -0.4863 -0.8593
vn -0.9709 -0.2277 -0.0743
vn -0.5059 -0.7021 -0.5011
vn -0.7838 -0.5593 -0.2696
vn -0.3945 -0.0223 0.9186
vn -0.2157 -0.9015 0.3753
vn 0.2210 0.9189 -0.3268
vn -0.3467 0.6954 0.6294
vn -0.0687 0.0390 -0.9969
vn -0.7453 0.5685 -0.3483
vn -0.6541 0.7485 -0.1087
vn -0.0798 -0.0404 -0.9960
vn -0.1385 -0.0114 -0.9903
vn 0.0147 0.0332 -0.9993
vn -0.9078 0.4178 -0.0356
vn -0.4904 -0.8619 0.1284
vn 0.3278 0.9445 0.0186
vn 0.4664 0.2556 -0.8468
vn -0.5426 0.8028 -0.2472
vn -0.4274 0.9040 -0.0034
vn 0.4903 -0.7605 0.4257
vn 0.5568 0.5353 0.6352
vn 0.7566 0.6509 0.0622
vn 0.7643 0.6209 0.1739
vn 0.8404 -0.4678 0.2735
vn 0.8954 -0.4195 0.1493
vn 0.4480 -0.8607 0.2417
vn 0.9703 0.1518 0.1884
vn 0.0972 -0.9576 0.2712
vn -0.1373 -0.9792 -0.1494
vn 0.5358 -0.8437 -0.0314
vn 0.9825 0.1823 -0.0388
vn 0.7974 -0.5824 -0.1579
vn 0.0342 0.9891 -0.1432
vn -0.6187 -0.3945 0.6794
vn -0.2314 0.7746 -0.5885
vn 0.0714 -0.4835 0.8724
vn -0.2916 0.8537 0.4314
vn -0.9762 0.2010 0.0810
vn 0.9189 -0.3469 -0.1879
vn 0.7635 0.5122 -0.3932
vn 0.4303 0.8638 -0.2620
vn 0.9882 -0.0318 -0.1498
vn 0.9918 0.1214 0.0395
vn 0.9621 0.2568 0.0913
vn 0.9481 -0.0877 -0.3056
vn 0.7265 -0.6590 -0.1943
vn 0.9028 0.3561 -0.2413
vn 0.9301 0.0558 -0.3630
vn 0.6949 -0.6753 -0.2470
vn 0.2770 0.0601 0.9590
vn 0.8967 0.4425 -0.0074
vn 0.3894 0.1022 0.9153
vn 0.8195 -0.4146 -0.3955
vn 0.5192 -0.0029 0.8546
vn 0.5928 -0.3548 -0.7230
vn 0.4143 0.2008 0.8877
vn 0.9084 -0.3101 0.2805
vn 0.1374 0.0424 -0.9896
vn 0.6675 0.6400 -0.3804
vn 0.2038 0.1133 -0.9724
vn 0.5463 -0.7337 -0.4039
vn 0.9861 -0.0057 -0.1663
vn 0.1438 -0.0520 -0.9882
vn -0.8608 0.4842 0.1566
vn 0.3847 0.8812 0.2747
vn 0.1738 0.9829 0.0602
vn 0.3544 0.8070 0.4723
vn -0.0769 -0.7518 -0.6548
vn 0.6072 -0.7883 -0.0991
vn 0.0012 -0.9918 -0.1276
vn 0.7386 -0.5608 -0.3740
vn 0.0611 -0.4130 0.9087
vn 0.9821 -0.1666 0.0874
vn 0.3216 -0.9396 0.1172
vn 0.6748 0.2947 -0.6766
vn 0.9608 -0.2542 0.1104
usemtl color.basal_dendrites_skeleton_color_0_color
s 1
f 136//1 2//2 1//3
f 4//4 5//5 6//6
f 7//7 8//8 6//6
f 10//9 7//7 9//10
f 149//11 8//8 12//12
f 13//13 149//11 12//12
f 14//14 17//15 12//12
f 15//16 16//17 14//14
f 19//18 17//15 16//17
f 11//19 15//16 14//14
f 18//20 25//21 24//22
f 26//23 27//24 168//25
f 27//24 26//23 41//26
f 26//23 23//27 41//26
f 23//27 25//21 18//20
f 30//28 41//26 23//27
f 36//29 35//30 34//31
f 34//31 35//30 33//32
f 32//33 34//31 33//32
f 37//34 30//28 22//35
f 165//36 39//37 38//38
f 39//37 165//36 57//39
f 38//38 36//29 34//31
f 19//18 18//20 17//15
f 22//35 19//18 16//17
f 21//40 22//35 16//17
f 32//33 33//32 41//26
f 12//12 8//8 7//7
f 6//6 9//10 7//7
f 9//10 6//6 5//5
f 43//41 41//26 33//32
f 43//41 40//42 42//43
f 47//44 29//45 27//24
f 44//46 48//47 46//48
f 41//26 45//49 27//24
f 43//41 46//48 41//26
f 46//48 48//47 47//44
f 50//50 49//51 57//39
f 35//30 57//39 49//51
f 53//52 55//53 61//54
f 53//52 61//54 52//55
f 56//56 40//42 50//50
f 53//52 56//56 54//57
f 56//56 61//54 55//53
f 56//56 55//53 54//57
f 44//46 66//58 48//47
f 58//59 59//60 44//46
f 60//61 68//62 59//60
f 64//63 58//59 61//54
f 66//58 65//64 63//65
f 63//65 62//66 61//54
f 62//66 64//63 61//54
f 65//64 62//66 63//65
f 67//67 69//68 70//69
f 70//69 69//68 68//62
f 72//70 67//67 71//71
f 71//71 67//67 65//64
f 66//58 59//60 73//72
f 31//73 37//34 38//38 34//31
f 69//68 74//74 68//62
f 76//75 71//71 65//64
f 65//64 66//58 73//72
f 65//64 67//67 64//63
f 75//76 76//75 73//72
f 63//65 61//54 56//56
f 33//32 49//51 43//41
f 49//51 40//42 43//41
f 40//42 51//77 42//43
f 51//77 61//54 42//43
f 50//50 29//45 47//44
f 50//50 47//44 48//47
f 44//46 61//54 58//59
f 59//60 66//58 44//46
f 72//70 77//78 67//67
f 79//79 76//75 75//76
f 81//80 82//81 76//75
f 78//82 83//83 80//84
f 80//84 69//68 77//78
f 79//79 75//76 74//74
f 127//85 88//86 87//87
f 82//81 90//88 91//89
f 90//88 82//81 94//90
f 92//91 101//92 93//93
f 98//94 101//92 92//91
f 90//88 92//91 91//89
f 95//95 92//91 90//88
f 101//92 98//94 103//96
f 103//96 102//97 101//92
f 178//98 104//99 103//96
f 102//97 103//96 99//100
f 114//101 123//102 113//103
f 114//101 107//104 106//105
f 109//106 114//101 108//107
f 108//107 114//101 106//105
f 107//104 86//108 106//105
f 115//109 117//110 96//111
f 119//112 116//113 120//114
f 120//114 101//92 121//115
f 119//112 122//116 123//102
f 113//103 112//117 110//118
f 129//119 100//120 126//121
f 100//120 128//122 125//123
f 126//121 125//123 128//122
f 130//124 124//125 109//106
f 183//126 124//125 130//124
f 88//86 130//124 109//106
f 86//108 127//85 87//87
f 88//86 109//106 87//87
f 89//127 88//86 127//85
f 93//93 115//109 83//83
f 115//109 96//111 83//83
f 101//92 120//114 93//93
f 109//106 107//104 105//128
f 101//92 99//100 112//117
f 124//125 123//102 109//106
f 109//106 105//128 87//87
f 103//96 104//99 133//129
f 184//130 132//131 134//132
f 100//120 103//96 132//131
f 132//131 126//121 100//120
f 135//133 137//134 136//1
f 139//135 2//2 137//134
f 137//134 2//2 136//1
f 142//136 10//9 5//5
f 140//137 144//138 139//135
f 6//6 140//137 4//4
f 8//8 146//139 6//6
f 147//140 141//141 146//139
f 147//140 142//136 145//142
f 4//4 138//143 135//133
f 147//140 148//144 10//9
f 152//145 151//146 150//147
f 153//148 150//147 151//146
f 152//145 153//148 151//146
f 158//149 157//150 24//22
f 156//151 24//22 157//150
f 159//152 152//145 157//150
f 13//13 157//150 152//145
f 160//153 20//154 15//16
f 160//153 159//152 164//155
f 159//152 161//156 155//157
f 166//158 164//155 163//159
f 167//160 166//158 21//40
f 166//158 167//160 164//155
f 28//161 166//158 168//25
f 168//25 166//158 163//159
f 24//22 162//162 158//149
f 162//162 159//152 158//149
f 164//155 21//40 20//154
f 165//36 28//161 29//45
f 146//139 148//144 147//140
f 152//145 155//157 153//148
f 155//157 148//144 153//148
f 173//163 188//164 104//99
f 188//164 173//163 174//165
f 181//166 180//167 176//168
f 180//167 177//169 175//170
f 182//171 183//126 185//172
f 131//173 185//172 183//126
f 186//174 187//175 180//167
f 182//171 186//174 181//166
f 181//166 186//174 180//167
f 187//175 185//172 180//167
f 187//175 182//171 185//172
f 183//126 182//171 179//176
f 184//130 133//129 188//164
f 5//5 3//177 2//2
f 25//21 26//23 163//159
f 165//36 29//45 57//39
f 154//178 11//19 10//9
f 170//179 90//88 94//90
f 81//80 94//90 82//81
f 97//180 170//179 94//90
f 173//163 104//99 178//98
f 118//181 117//110 115//109
f 116//113 117//110 118//181
f 35//30 49//51 33//32
f 72//70 91//89 78//82
f 96//111 85//182 83//83
f 85//182 94//90 84//183
f 94//90 169//184 84//183
f 1//3 2//2 3//177
f 1//3 3//177 4//4
f 4//4 3//177 5//5
f 1//3 4//4 135//133
f 7//7 11//19 12//12
f 11//19 14//14 12//12
f 20//154 16//17 15//16
f 20//154 21//40 16//17
f 14//14 16//17 17//15
f 19//18 30//28 23//27
f 18//20 19//18 23//27
f 23//27 26//23 25//21
f 30//28 31//73 32//33
f 19//18 22//35 30//28
f 165//36 38//38 37//34
f 22//35 21//40 165//36
f 37//34 22//35 165//36
f 38//38 39//37 36//29
f 103//96 100//120 127//85 99//100
f 30//28 37//34 31//73
f 39//37 35//30 36//29
f 31//73 34//31 32//33
f 18//20 24//22 17//15
f 30//28 32//33 41//26
f 17//15 13//13 12//12
f 61//54 44//46 42//43
f 43//41 42//43 46//48
f 42//43 44//46 46//48
f 45//49 46//48 47//44
f 45//49 47//44 27//24
f 41//26 46//48 45//49
f 49//51 50//50 40//42
f 53//52 54//57 55//53
f 52//55 54//57 53//52
f 53//52 54//57 40//42
f 40//42 54//57 52//55
f 51//77 52//55 61//54
f 48//47 56//56 50//50
f 40//42 52//55 51//77
f 56//56 53//52 40//42
f 50//50 57//39 29//45
f 66//58 56//56 48//47
f 58//59 60//61 59//60
f 62//66 65//64 64//63
f 64//63 67//67 70//69
f 70//69 68//62 64//63
f 74//74 75//76 73//72
f 71//71 76//75 72//70
f 68//62 74//74 73//72
f 58//59 64//63 68//62
f 73//72 76//75 65//64
f 59//60 68//62 73//72
f 56//56 66//58 63//65
f 58//59 68//62 60//61
f 79//79 80//84 81//80
f 79//79 81//80 76//75
f 76//75 82//81 72//70
f 83//83 84//183 80//84
f 84//183 83//83 85//182
f 80//84 79//79 69//68
f 72//70 78//82 77//78
f 80//84 84//183 81//80
f 67//67 77//78 69//68
f 77//78 78//82 80//84
f 69//68 79//79 74//74
f 89//127 127//85 125//123
f 82//81 91//89 72//70
f 78//82 91//89 83//83
f 83//83 91//89 93//93
f 91//89 92//91 93//93
f 92//91 95//95 98//94
f 98//94 177//169 103//96
f 103//96 177//169 178//98
f 99//100 101//92 102//97
f 108//107 106//105 107//104 109//106
f 114//101 111//185 86//108 107//104
f 105//128 107//104 106//105
f 110//118 112//117 111//185
f 109//106 123//102 114//101
f 105//128 106//105 86//108
f 110//118 111//185 114//101
f 114//101 113//103 110//118
f 115//109 93//93 116//113 118//181
f 117//110 172//186 96//111
f 121//115 119//112 123//102 116//113
f 119//112 121//115 116//113
f 120//114 121//115 119//112
f 123//102 124//125 116//113
f 101//92 112//117 119//112 121//115
f 130//124 126//121 131//173 183//126
f 119//112 112//117 122//116
f 123//102 122//116 113//103
f 113//103 122//116 112//117
f 116//113 93//93 120//114
f 127//85 86//108 99//100
f 127//85 100//120 125//123
f 128//122 100//120 129//119
f 128//122 129//119 126//121
f 126//121 130//124 88//86
f 147//140 145//142 144//138 141//141
f 125//123 126//121 89//127
f 89//127 126//121 88//86
f 105//128 86//108 87//87
f 111//185 112//117 99//100
f 111//185 99//100 86//108
f 133//129 134//132 103//96
f 103//96 134//132 132//131
f 184//130 131//173 132//131
f 132//131 131//173 126//121
f 138//143 137//134 135//133
f 139//135 5//5 2//2
f 138//143 139//135 137//134
f 140//137 138//143 4//4
f 6//6 141//141 140//137
f 138//143 140//137 139//135
f 144//138 142//136 139//135
f 144//138 145//142 142//136
f 140//137 145//142 144//138
f 140//137 141//141 143//187
f 139//135 142//136 5//5
f 143//187 145//142 140//137
f 144//138 145//142 143//187
f 6//6 146//139 141//141
f 189//188 184//130 134//132 133//129
f 141//141 144//138 143//187
f 149//11 146//139 8//8
f 153//148 148//144 150//147
f 149//11 152//145 150//147
f 146//139 150//147 148//144
f 149//11 150//147 146//139
f 149//11 13//13 152//145
f 158//149 159//152 157//150
f 13//13 156//151 157//150
f 159//152 155//157 152//145
f 154//178 161//156 160//153
f 160//153 164//155 20//154
f 159//152 160//153 161//156
f 155//157 161//156 154//178
f 154//178 160//153 15//16
f 21//40 164//155 167//160
f 27//24 28//161 168//25
f 28//161 21//40 166//158
f 21//40 28//161 165//36
f 162//162 163//159 164//155
f 26//23 168//25 163//159
f 162//162 164//155 159//152
f 155//157 154//178 10//9
f 148//144 155//157 10//9
f 10//9 142//136 147//140
f 171//189 172//186 95//95
f 173//163 178//98 174//165
f 172//186 117//110 175//170
f 117//110 176//168 175//170
f 116//113 176//168 117//110
f 175//170 177//169 98//94
f 182//171 181//166 179//176
f 177//169 180//167 178//98
f 179//176 181//166 176//168
f 131//173 184//130 188//164
f 174//165 180//167 185//172
f 188//164 185//172 131//173
f 180//167 174//165 178//98
f 187//175 186//174 182//171
f 185//172 188//164 174//165
f 176//168 180//167 175//170
f 184//130 189//188 133//129
f 176//168 124//125 183//126 179//176
f 188//164 133//129 104//99
f 136//1 1//3 135//133
f 10//9 9//10 5//5
f 10//9 11//19 7//7
f 154//178 15//16 11//19
f 24//22 156//151 17//15
f 17//15 156//151 13//13
f 25//21 163//159 162//162
f 24//22 25//21 162//162
f 84//183 169//184 81//80
f 170//179 171//189 90//88
f 81//80 170//179 94//90
f 97//180 96//111 171//189
f 90//88 171//189 95//95
f 97//180 171//189 170//179
f 96//111 172//186 171//189
f 172//186 175//170 98//94
f 124//125 176//168 116//113
f 95//95 172//186 98//94
f 39//37 57//39 35//30
f 96//111 97//180 85//182
f 85//182 97//180 94//90
f 169//184 170//179 81//80
f 94//90 170//179 169//184
f 28//161 27//24 29//45
