# Blender v2.76 (sub 0) OBJ File: 'spines-modeling.blend'
# www.blender.org
mtllib spine-2.mtl
o duplicate_spine_19_hq.002
v 0.051773 -0.005496 0.001501
v -0.025942 -0.053321 0.007448
v -0.039634 0.054435 0.002102
v -0.108469 -0.004562 -0.256732
v -0.056742 -0.014641 -0.187588
v -0.057852 0.022740 -0.174979
v -0.029501 0.020228 -0.600637
v -0.055701 -0.036231 -0.612174
v -0.078917 0.020962 -0.574674
v 0.067567 0.091762 -0.948785
v -0.025505 0.039956 -0.912937
v 0.026719 -0.024292 -0.895805
v 0.022959 -0.008185 -1.053222
v 0.095171 -0.018450 -0.896905
v 0.058865 -0.090544 -0.988693
vn -0.802700 0.569000 0.178400
vn -0.803700 0.587200 -0.095500
vn 0.835000 0.533200 0.135200
vn 0.925900 -0.019800 0.377100
vn -0.225600 -0.785500 0.576200
vn 0.676700 -0.699000 -0.231300
vn -0.124900 -0.991900 -0.022500
vn -0.989400 -0.132000 0.060100
vn 0.100700 -0.673800 0.731900
vn 0.768100 -0.141400 0.624500
vn 0.404300 0.914600 0.006800
vn 0.421300 0.865400 -0.271100
vn -0.158700 -0.083800 -0.983700
vn 0.160200 -0.920400 -0.356600
vn -0.320700 0.774800 0.544800
usemtl None
s 1
f 11//1 9//2 7//3
f 1//4 2//5 5//6
f 8//7 5//6 4//8
f 5//6 2//5 4//8
f 12//9 14//10 10//11
f 9//2 6//12 7//3
f 4//8 6//12 9//2
f 10//11 14//10 13//13
f 9//2 11//1 8//7
f 10//11 13//13 11//1
f 13//13 8//7 11//1
f 14//10 15//14 13//13
f 6//12 1//4 5//6
f 3//15 1//4 6//12
f 2//5 1//4 3//15
f 4//8 9//2 8//7
f 4//8 3//15 6//12
f 3//15 4//8 2//5
f 5//6 7//3 6//12
f 8//7 7//3 5//6
f 7//3 8//7 12//9
f 13//13 12//9 8//7
f 12//9 13//13 15//14
f 15//14 14//10 12//9
f 12//9 11//1 7//3
f 11//1 12//9 10//11
