# Blender v2.76 (sub 0) OBJ File: 'spines-modeling.blend'
# www.blender.org
mtllib spine-12.mtl
o duplicate_spine_2.002
v -0.049341 -0.028291 0.000416
v -0.014922 -0.010017 0.014512
v 0.031491 -0.052197 -0.001734
v 0.056915 0.065286 -0.004215
v -0.014541 0.070740 0.014932
v -0.053152 0.059295 -0.003145
v 0.010748 -0.015884 -0.108807
v -0.033189 -0.017000 -0.176049
v -0.027457 -0.019387 -0.110413
v -0.024467 0.028992 -0.170234
v 0.066917 -0.025855 -0.340214
v 0.002729 0.023679 -0.101487
v -0.020694 0.033336 -0.298914
v -0.011485 -0.035166 -0.277849
v 0.050720 0.042353 -0.317694
v 0.014733 -0.055251 -0.330537
v 0.043788 0.028749 -0.376796
v -0.031477 -0.006091 -0.498681
v -0.024525 0.009949 -0.514213
v -0.110942 0.041741 -0.640793
v -0.039211 0.010088 -0.503634
v 0.023551 -0.052295 -0.736270
v -0.082366 -0.062464 -0.623215
v 0.067044 0.031205 -0.897005
v -0.031979 0.072912 -0.686201
v 0.026174 0.043234 -0.727857
v -0.100430 0.048248 -0.770774
v -0.028502 -0.016252 -0.959370
v 0.034740 -0.002231 -0.950077
v -0.090664 -0.025743 -0.950124
v -0.110454 0.043172 -0.936344
v -0.002918 -0.092479 -0.923255
v -0.094365 -0.071036 -0.891921
v -0.036509 0.082826 -0.945232
vn -0.064900 -0.153100 0.986100
vn -0.109800 0.798000 0.592500
vn -0.762000 0.609800 0.217900
vn -0.762900 0.646300 -0.014100
vn -0.749600 0.568300 0.339300
vn -0.111300 -0.983500 0.142500
vn -0.731200 -0.540500 0.416000
vn 0.505800 -0.774600 0.379700
vn 0.763500 -0.627900 -0.151200
vn -0.804000 -0.576100 -0.147100
vn 0.753300 0.605200 0.257300
vn 0.198100 0.905700 -0.374800
vn -0.678400 0.731700 0.066200
vn -0.945900 -0.320900 -0.048000
vn -0.588500 -0.802400 0.098800
vn 0.893900 -0.437200 -0.098500
vn 0.587500 0.809000 -0.015500
vn 0.611000 0.691700 -0.385000
vn -0.858400 0.463800 0.219200
vn -0.497700 -0.816700 0.291800
vn 0.025900 -0.996200 0.083000
vn -0.856100 0.515700 0.034300
vn 0.843800 0.503000 0.187000
vn 0.849600 0.500500 0.166300
vn -0.688600 -0.715000 -0.120900
vn 0.716400 -0.672900 0.184100
vn 0.126700 0.977800 0.166700
vn -0.783600 0.382300 -0.489600
vn 0.008500 0.807900 -0.589200
vn 0.011400 -0.141300 -0.989900
vn 0.932600 0.308100 -0.188000
vn 0.633700 -0.071600 -0.770200
vn 0.296500 -0.869100 -0.395800
vn -0.568800 -0.290400 -0.769500
usemtl None
s 1
f 2//1 5//2 6//3
f 13//4 21//5 18//6
f 2//1 1//7 3//8
f 7//9 3//8 9//10
f 6//3 4//11 12//12
f 9//10 6//3 12//12
f 9//10 12//12 10//13
f 9//10 8//14 14//15
f 9//10 14//15 7//9
f 11//16 15//17 12//12
f 11//16 12//12 7//9
f 14//15 8//14 10//13
f 15//17 13//4 10//13
f 17//18 11//16 18//6
f 21//5 20//19 23//20
f 15//17 17//18 13//4
f 16//21 14//15 18//6
f 23//20 20//19 27//22
f 18//6 26//23 19//24
f 33//25 22//26 23//20
f 25//27 19//24 26//23
f 25//27 20//19 21//5
f 31//28 34//29 28//30
f 34//29 25//27 26//23
f 34//29 24//31 29//32
f 28//30 32//33 30//34
f 32//33 22//26 33//25
f 33//25 30//34 32//33
f 34//29 31//28 27//22
f 1//7 2//1 6//3
f 5//2 4//11 6//3
f 7//9 4//11 3//8
f 9//10 3//8 1//7
f 4//11 7//9 12//12
f 8//14 9//10 10//13
f 15//17 10//13 12//12
f 13//4 14//15 10//13
f 7//9 14//15 11//16
f 16//21 11//16 14//15
f 17//18 15//17 11//16
f 21//5 13//4 17//18
f 19//24 21//5 17//18
f 19//24 17//18 18//6
f 18//6 22//26 26//23
f 2//1 3//8 4//11
f 18//6 23//20 22//26
f 19//24 25//27 21//5
f 9//10 1//7 6//3
f 32//33 24//31 22//26
f 29//32 24//31 32//33
f 28//30 29//32 32//33
f 16//21 18//6 11//16
f 22//26 24//31 26//23
f 20//19 25//27 27//22
f 28//30 34//29 29//32
f 31//28 33//25 27//22
f 33//25 31//28 30//34
f 25//27 34//29 27//22
f 14//15 13//4 18//6
f 18//6 21//5 23//20
f 33//25 23//20 27//22
f 30//34 31//28 28//30
f 24//31 34//29 26//23
f 5//2 2//1 4//11
