# Blender v2.76 (sub 0) OBJ File: 'spines-modeling.blend'
# www.blender.org
mtllib spine-18.mtl
o duplicate_spine_2_rot1.002
v -0.028689 0.049000 -0.003311
v -0.008888 0.016631 0.013343
v -0.051803 -0.031459 0.006785
v 0.065298 -0.056993 -0.002717
v 0.071602 0.016306 0.006768
v 0.058215 0.052333 -0.014942
v -0.025113 -0.024360 -0.104798
v -0.032521 0.010762 -0.176665
v -0.029161 0.013339 -0.110871
v 0.013895 0.002841 -0.173832
v -0.054438 -0.109215 -0.325577
v 0.014844 -0.015484 -0.102018
v 0.007138 -0.017102 -0.300908
v -0.059182 -0.023586 -0.272965
v 0.015279 -0.090312 -0.311297
v -0.083458 -0.056229 -0.319996
v -0.003459 -0.090876 -0.369390
v -0.049530 -0.031554 -0.496248
v -0.034818 -0.040406 -0.512124
v -0.015040 0.029388 -0.650828
v -0.033926 -0.024506 -0.503523
v -0.115498 -0.116055 -0.720121
v -0.117014 0.003252 -0.620789
v -0.045735 -0.179437 -0.880793
v 0.012953 -0.054664 -0.688516
v -0.019575 -0.117599 -0.719804
v -0.019680 0.002596 -0.778533
v -0.099452 -0.092504 -0.950273
v -0.083987 -0.154072 -0.934380
v -0.108789 -0.029671 -0.948105
v -0.039163 -0.008305 -0.942975
v -0.171986 -0.113338 -0.904730
v -0.148919 -0.018673 -0.887101
v 0.000383 -0.082780 -0.945941
vn -0.068000 0.188500 0.979700
vn 0.845000 0.183500 0.502300
vn 0.617900 0.783400 0.066600
vn 0.634200 0.755100 -0.165900
vn 0.587300 0.786300 0.191700
vn -0.968700 0.128300 0.212600
vn -0.510500 0.777800 0.366500
vn -0.733200 -0.454000 0.506200
vn -0.630200 -0.776400 0.001000
vn -0.595500 0.779100 -0.196000
vn 0.633400 -0.714900 0.296100
vn 0.872000 -0.243700 -0.424500
vn 0.727100 0.681400 -0.083400
vn -0.334200 0.932300 -0.138100
vn -0.797300 0.596200 0.093800
vn -0.434200 -0.899200 0.052800
vn 0.811100 -0.584800 -0.012100
vn 0.662500 -0.654600 -0.364200
vn 0.471600 0.879100 0.068500
vn -0.793900 0.530500 0.297100
vn -0.985000 -0.015300 0.172100
vn 0.507300 0.853600 -0.118400
vn 0.526500 -0.813500 0.246800
vn 0.522300 -0.821900 0.227300
vn -0.730200 0.667900 -0.143500
vn -0.646600 -0.687600 0.330400
vn 0.989900 -0.104700 0.095400
vn 0.329900 0.715800 -0.615500
vn 0.754000 -0.082600 -0.651600
vn -0.226200 -0.135900 -0.964500
vn 0.300900 -0.948900 -0.095700
vn -0.130900 -0.725700 -0.675400
vn -0.896800 -0.344000 -0.278200
vn -0.362000 0.467400 -0.806500
usemtl None
s 1
f 2//1 5//2 6//3
f 13//4 21//5 18//6
f 2//1 1//7 3//8
f 7//9 3//8 9//10
f 6//3 4//11 12//12
f 9//10 6//3 12//12
f 9//10 12//12 10//13
f 9//10 8//14 14//15
f 9//10 14//15 7//9
f 11//16 15//17 12//12
f 11//16 12//12 7//9
f 14//15 8//14 10//13
f 15//17 13//4 10//13
f 17//18 11//16 18//6
f 21//5 20//19 23//20
f 15//17 17//18 13//4
f 16//21 14//15 18//6
f 23//20 20//19 27//22
f 18//6 26//23 19//24
f 33//25 22//26 23//20
f 25//27 19//24 26//23
f 25//27 20//19 21//5
f 31//28 34//29 28//30
f 34//29 25//27 26//23
f 34//29 24//31 29//32
f 28//30 32//33 30//34
f 32//33 22//26 33//25
f 33//25 30//34 32//33
f 34//29 31//28 27//22
f 1//7 2//1 6//3
f 5//2 4//11 6//3
f 7//9 4//11 3//8
f 9//10 3//8 1//7
f 4//11 7//9 12//12
f 8//14 9//10 10//13
f 15//17 10//13 12//12
f 13//4 14//15 10//13
f 7//9 14//15 11//16
f 16//21 11//16 14//15
f 17//18 15//17 11//16
f 21//5 13//4 17//18
f 19//24 21//5 17//18
f 19//24 17//18 18//6
f 18//6 22//26 26//23
f 2//1 3//8 4//11
f 18//6 23//20 22//26
f 19//24 25//27 21//5
f 9//10 1//7 6//3
f 32//33 24//31 22//26
f 29//32 24//31 32//33
f 28//30 29//32 32//33
f 16//21 18//6 11//16
f 22//26 24//31 26//23
f 20//19 25//27 27//22
f 28//30 34//29 29//32
f 31//28 33//25 27//22
f 33//25 31//28 30//34
f 25//27 34//29 27//22
f 14//15 13//4 18//6
f 18//6 21//5 23//20
f 33//25 23//20 27//22
f 30//34 31//28 28//30
f 24//31 34//29 26//23
f 5//2 2//1 4//11
