# Blender v2.76 (sub 0) OBJ File: 'spines-modeling-2.blend'
# www.blender.org
mtllib spine-14-lr.mtl
o spine-14-lr_Cube.040
v 1.361851 -0.582627 -1.376317
v 1.547799 -0.449075 -1.679045
v 1.445235 -0.500156 -1.561558
v 1.580600 -0.522715 -1.767476
v 1.586222 -0.564653 -1.605796
v 1.669028 -0.534646 -1.720101
v 1.660818 -0.526920 -1.851735
v 1.656638 -0.560839 -1.790313
v 1.692572 -0.531408 -1.818602
v 1.646993 -0.488370 -1.779237
v 1.233699 -0.336858 -1.235403
v 1.316842 -0.343099 -1.297040
v 1.183075 -0.346934 -1.126100
v 1.091515 -0.246634 -0.948258
v 1.225679 -0.444429 -1.024002
v 1.088581 -0.297139 -0.817202
v 1.311232 -0.301262 -1.130668
v 1.301970 -0.246942 -0.843096
v 1.235879 -0.506579 -1.190924
v 1.281340 -0.554276 -1.281129
v 1.267079 -0.442605 -1.342088
v 1.512808 -0.606671 -1.454099
v 1.357086 -0.565121 -1.164906
v 1.578734 -0.532408 -1.385151
v 1.479604 -0.600078 -1.266107
v 1.292411 -0.387961 -0.861090
v 1.473277 -0.388415 -1.312664
v 1.391231 -0.454418 -0.991709
v 1.455774 -0.539869 -1.108286
v 1.470363 -0.446553 -1.129964
v 1.387616 -0.383645 -1.420272
v 1.512257 -0.403380 -1.507097
v 1.595334 -0.564711 -1.490548
v 1.620819 -0.486164 -1.571899
v 1.596828 -0.566176 -1.490560
v 1.585725 -0.435648 -1.431760
v -0.164790 0.144859 0.089429
v -0.180925 0.361427 -0.045835
v -0.137060 0.296238 -0.065763
v -0.173568 0.231221 0.019797
v 0.048381 0.161625 -0.120356
v -0.150282 0.400775 -0.058293
v -0.151432 0.386148 -0.053280
v -0.118406 0.403188 0.008695
v -0.133637 0.103952 0.072368
v -0.051219 0.140260 -0.093517
v -0.092772 0.105709 -0.031294
v -0.045911 0.062972 0.045949
v -0.002754 0.086635 -0.102007
v 0.071751 0.035945 -0.103950
v -0.002345 0.087044 -0.101098
v -0.142413 0.119920 0.063729
v -0.095923 0.191323 0.122891
v 0.050794 0.091005 0.124144
v 0.176665 -0.002091 0.010818
v -0.103995 0.457960 -0.048861
v -0.089081 0.480025 -0.025791
v -0.086307 0.460585 -0.028964
v -0.048540 0.375548 -0.032872
v 0.183968 0.145860 -0.149386
v 0.165660 0.209255 -0.039201
v 0.264628 -0.063580 -0.166737
v 0.249047 0.049492 -0.249436
v 0.375517 -0.074191 -0.320685
v 0.495737 -0.017953 -0.455101
v 0.607673 0.077276 -0.495030
v 0.563406 -0.135706 -0.411845
v 0.627257 -0.134409 -0.311210
v 0.687318 -0.022797 -0.614608
v 0.790510 -0.178604 -0.619506
v 0.450626 0.104196 -0.333376
v 0.317289 0.124303 -0.144590
v 0.488192 0.113656 -0.196325
v 0.437528 0.017500 -0.094049
v 0.445638 -0.106222 -0.213520
v 0.332762 -0.052866 -0.066025
v 0.579352 -0.065700 -0.186376
v 0.669506 0.091003 -0.375993
v 0.742330 -0.046311 -0.316987
v -0.020041 0.425079 0.075546
v 0.091690 0.320760 0.123821
v -0.006899 0.382535 0.154280
v 0.048726 0.381232 0.181045
v 0.051810 0.384036 0.186812
v 0.049029 0.261627 0.183371
v 0.170025 0.096005 0.120776
v 0.167137 0.188605 0.140627
v -0.070409 0.460674 -0.004150
v -0.078418 0.487059 -0.029342
v 0.045683 0.417375 0.162642
v 0.270788 0.094880 0.029996
v 0.592953 0.042060 -0.180594
v 0.924277 -0.124455 -0.781672
v 0.842673 0.030077 -0.629863
v 0.779306 -0.178099 -0.458629
v 0.969956 -0.240590 -0.570040
v 0.976762 -0.139208 -0.475162
v 1.081271 -0.100777 -0.824419
v 1.094769 -0.039689 -0.683502
v 1.069660 -0.285020 -0.671053
v 1.242660 -0.300696 -0.717723
v 1.149564 -0.251086 -0.600409
v 1.201395 -0.183223 -0.605324
v 1.196121 -0.219169 -0.981796
v 0.935007 0.002375 -0.497593
v 1.059845 -0.079022 -0.508562
v 1.163707 -0.089181 -0.612539
vn 0.951000 -0.189200 0.244500
vn 0.232700 -0.969600 -0.075700
vn 0.112300 -0.975200 -0.190700
vn -0.747300 -0.182500 -0.638900
vn -0.760200 -0.123800 -0.637800
vn -0.272000 0.871200 -0.408700
vn 0.251100 0.929500 -0.270000
vn 0.033500 0.022900 -0.999100
vn 0.939500 -0.051200 -0.338600
vn -0.829200 0.064600 -0.555100
vn -0.901700 0.240200 -0.359500
vn -0.613900 0.676300 -0.407000
vn -0.791300 0.055500 -0.608800
vn -0.585600 -0.773700 0.241600
vn -0.533100 -0.845200 -0.036200
vn 0.058100 0.876200 -0.478500
vn 0.871500 0.467800 0.147200
vn 0.250500 0.945200 -0.209600
vn -0.561000 0.096700 -0.822100
vn 0.088000 0.799900 -0.593700
vn -0.808300 -0.588700 0.009700
vn -0.673200 -0.720600 -0.166000
vn -0.161400 0.880700 -0.445400
vn -0.514200 -0.804300 -0.297900
vn 0.077700 -0.987300 -0.138100
vn 0.395600 -0.872900 0.285600
vn 0.323900 -0.702300 0.633900
vn 0.564400 0.820400 0.091000
vn 0.508700 -0.546600 0.665200
vn -0.222400 -0.919600 0.323800
vn 0.593200 -0.612100 0.522900
vn 0.905700 0.290500 0.308600
vn 0.896000 -0.256200 0.362600
vn -0.285500 0.839800 -0.461600
vn 0.061600 0.947900 -0.312500
vn 0.939900 -0.334800 -0.066000
vn 0.800300 -0.599300 -0.019500
vn 0.942900 0.324000 0.077100
vn 0.796800 0.562000 0.221700
vn 0.067800 0.863000 0.500500
vn -0.697900 0.307400 -0.646900
vn -0.931100 0.270500 -0.244500
vn -0.430900 -0.036700 -0.901600
vn -0.998000 -0.027800 0.057000
vn -0.703800 0.476400 0.527000
vn -0.665700 -0.604800 -0.437000
vn -0.497400 -0.717100 -0.488200
vn -0.388600 -0.875300 0.287800
vn -0.592000 -0.529000 -0.608000
vn -0.667900 -0.631200 -0.394300
vn -0.119700 0.283100 -0.951600
vn -0.141100 -0.599100 0.788100
vn -0.487100 -0.104200 0.867100
vn -0.495700 -0.209800 -0.842700
vn -0.723400 -0.655300 -0.217400
vn -0.824200 -0.269400 0.498000
vn -0.147700 -0.832900 0.533300
vn 0.493100 0.418900 -0.762400
vn 0.517400 0.793900 -0.319500
vn 0.042300 0.798000 -0.601100
vn -0.445100 -0.879100 -0.170300
vn 0.187400 -0.772900 0.606300
vn -0.029500 -0.880200 0.473700
vn -0.567600 0.188100 -0.801500
vn -0.559000 -0.687100 -0.464100
vn -0.646900 -0.045600 -0.761200
vn -0.402400 -0.874900 -0.269400
vn -0.049700 -0.949500 0.309800
vn -0.528200 -0.753500 -0.391400
vn -0.288200 0.809500 -0.511400
vn -0.537900 0.162200 -0.827200
vn 0.249700 0.967300 -0.043900
vn 0.506900 0.042800 0.860900
vn 0.235800 0.903400 0.358000
vn 0.399200 -0.522100 0.753600
vn 0.186900 -0.897300 0.399900
vn 0.636500 -0.045100 0.770000
vn 0.585300 0.382700 0.714700
vn 0.465700 0.764100 0.446300
vn 0.356700 0.915800 0.184300
vn -0.252700 0.872500 -0.418100
vn 0.085000 -0.010100 0.996300
vn 0.385800 0.367200 0.846300
vn 0.300100 0.024200 0.953600
vn -0.569300 0.376900 0.730600
vn 0.353300 -0.458700 0.815300
vn 0.624000 0.165100 0.763800
vn 0.834900 0.526800 0.159200
vn 0.462300 0.858900 -0.220300
vn 0.251600 0.958000 0.137300
vn 0.959900 0.195100 -0.201300
vn -0.645100 0.652900 0.396900
vn -0.291000 0.621100 -0.727700
vn 0.742900 0.143700 0.653700
vn 0.350900 0.867100 0.353600
vn 0.185400 0.980900 0.058800
vn 0.002000 0.896600 -0.442900
vn 0.003300 -0.928300 0.371800
vn 0.344100 -0.296400 0.890900
vn -0.108700 -0.903200 0.415200
vn 0.542600 -0.660500 0.518800
vn -0.147500 -0.966900 0.208300
vn 0.710000 0.634100 0.306200
vn 0.774900 0.007700 0.632000
vn 0.513800 0.334700 0.789900
vn 0.411600 0.897600 -0.157700
vn 0.310000 -0.658600 0.685600
usemtl sample
s 1
f 6//1 5//2 8//3
f 4//4 5//2 3//5
f 4//4 2//6 10//7
f 10//7 7//8 4//4
f 9//9 6//1 8//3
f 7//8 10//7 9//9
f 2//6 4//4 3//5
f 21//10 13//11 11//12
f 14//13 15//14 16//15
f 104//16 13//11 14//13
f 104//16 18//17 17//18
f 14//13 93//19 98//20
f 19//21 21//10 20//22
f 11//12 12//23 21//10
f 20//22 21//10 1//24
f 22//25 25//26 1//24
f 15//14 26//27 16//15
f 17//18 27//28 12//23
f 28//29 23//30 29//31
f 30//32 27//28 17//18
f 30//32 28//29 29//31
f 30//32 29//31 25//26
f 25//26 29//31 23//30
f 24//33 30//32 25//26
f 20//22 1//24 23//30
f 31//34 3//5 21//10
f 27//28 32//35 31//34
f 5//2 33//36 22//25
f 33//36 35//37 22//25
f 5//2 35//37 33//36
f 34//38 35//37 5//2
f 24//33 35//37 33//36
f 36//39 32//35 27//28
f 32//35 36//39 34//38
f 6//1 34//38 5//2
f 2//6 34//38 10//7
f 22//25 3//5 5//2
f 21//10 12//23 31//34
f 22//25 24//33 25//26
f 27//28 30//32 24//33
f 43//40 42//41 38//42
f 38//42 42//41 39//43
f 40//44 44//45 38//42
f 40//44 38//42 39//43
f 47//46 50//47 48//48
f 49//49 51//50 41//51
f 48//48 54//52 53//53
f 51//50 49//49 46//54
f 47//46 51//50 50//47
f 46//54 49//49 47//46
f 39//43 46//54 47//46
f 40//44 47//46 52//55
f 53//53 37//56 45//57
f 47//46 45//57 52//55
f 59//58 61//59 41//51
f 61//59 60//60 41//51
f 62//61 76//62 55//63
f 62//61 55//63 50//47
f 63//64 64//65 62//61
f 63//64 65//66 64//65
f 64//65 67//67 75//68
f 65//66 70//69 67//67
f 65//66 66//70 69//71
f 60//60 72//72 63//64
f 74//73 73//74 72//72
f 75//68 74//73 76//62
f 75//68 77//75 74//73
f 68//76 79//77 77//75
f 77//75 79//77 92//78
f 74//73 77//75 92//78
f 75//68 68//76 77//75
f 79//77 105//79 78//80
f 71//81 65//66 63//64
f 53//53 44//45 40//44
f 85//82 84//83 83//84
f 83//84 84//83 82//85
f 53//53 54//52 85//82
f 85//82 86//86 87//87
f 54//52 86//86 85//82
f 85//82 87//87 81//88
f 81//88 84//83 85//82
f 92//78 73//74 74//73
f 89//89 88//90 58//91
f 58//91 88//90 57//92
f 57//92 89//89 56//93
f 54//52 55//63 86//86
f 55//63 91//94 86//86
f 55//63 76//62 91//94
f 91//94 87//87 86//86
f 91//94 72//72 61//59
f 42//41 56//93 59//58
f 58//91 57//92 44//45
f 44//45 57//92 56//93
f 39//43 59//58 41//51
f 90//95 84//83 83//84
f 82//85 90//95 80//96
f 90//95 83//84 81//88
f 41//51 63//64 50//47
f 44//45 88//90 58//91
f 94//97 93//19 69//71
f 78//80 94//97 66//70
f 78//80 105//79 94//97
f 95//98 97//99 79//77
f 95//98 96//100 97//99
f 16//15 101//101 100//102
f 18//17 104//16 98//20
f 107//103 103//104 18//17
f 106//105 107//103 105//79
f 107//103 18//17 99//106
f 70//69 16//15 100//102
f 100//102 96//100 70//69
f 70//69 93//19 16//15
f 97//99 103//104 106//105
f 16//15 26//27 101//101
f 18//17 101//101 26//27
f 93//19 14//13 16//15
f 97//99 106//105 105//79
f 67//67 95//98 68//76
f 94//97 98//20 93//19
f 5//2 4//4 8//3
f 4//4 7//8 8//3
f 7//8 9//9 8//3
f 6//1 9//9 10//7
f 14//13 13//11 15//14
f 11//12 13//11 17//18
f 13//11 104//16 17//18
f 11//12 17//18 12//23
f 98//20 104//16 14//13
f 1//24 25//26 23//30
f 17//18 18//17 30//32
f 28//29 30//32 18//17
f 15//14 19//21 23//30
f 19//21 20//22 23//30
f 23//30 28//29 15//14
f 15//14 28//29 26//27
f 3//5 31//34 32//35
f 12//23 27//28 31//34
f 24//33 36//39 27//28
f 35//37 24//33 22//25
f 34//38 36//39 24//33
f 35//37 34//38 33//36
f 33//36 34//38 24//33
f 2//6 32//35 34//38
f 3//5 32//35 2//6
f 34//38 6//1 10//7
f 13//11 21//10 19//21
f 15//14 13//11 19//21
f 21//10 3//5 1//24
f 22//25 1//24 3//5
f 43//40 38//42 44//45
f 42//41 43//40 44//45
f 42//41 43//40 39//43
f 40//44 39//43 47//46
f 45//57 47//46 48//48
f 49//49 41//51 50//47
f 49//49 50//47 51//50
f 52//55 48//48 53//53
f 48//48 55//63 54//52
f 50//47 55//63 48//48
f 51//50 46//54 41//51
f 49//49 51//50 47//46
f 46//54 39//43 41//51
f 37//56 40//44 52//55
f 45//57 48//48 52//55
f 52//55 53//53 45//57
f 45//57 37//56 52//55
f 59//58 56//93 58//91
f 75//68 76//62 62//61
f 70//69 69//71 93//19
f 70//69 65//66 69//71
f 71//81 63//64 72//72
f 71//81 73//74 78//80
f 66//70 71//81 78//80
f 67//67 68//76 75//68
f 78//80 92//78 79//77
f 64//65 75//68 62//61
f 71//81 66//70 65//66
f 73//74 92//78 78//80
f 64//65 65//66 67//67
f 71//81 72//72 73//74
f 44//45 53//53 82//85
f 44//45 82//85 80//96
f 82//85 85//82 83//84
f 53//53 85//82 82//85
f 84//83 81//88 83//84
f 88//90 89//89 57//92
f 80//96 81//88 59//58
f 80//96 90//95 81//88
f 88//90 80//96 59//58
f 81//88 91//94 61//59
f 37//56 53//53 40//44
f 56//93 89//89 58//91
f 58//91 88//90 59//58
f 81//88 61//59 59//58
f 72//72 91//94 74//73
f 41//51 60//60 63//64
f 60//60 61//59 72//72
f 43//40 42//41 59//58
f 42//41 44//45 56//93
f 39//43 43//40 59//58
f 62//61 50//47 63//64
f 44//45 80//96 88//90
f 84//83 90//95 82//85
f 87//87 91//94 81//88
f 76//62 74//73 91//94
f 70//69 95//98 67//67
f 68//76 95//98 79//77
f 94//97 99//106 98//20
f 96//100 100//102 102//107
f 100//102 101//101 102//107
f 98//20 99//106 18//17
f 105//79 107//103 99//106
f 97//99 102//107 103//104
f 94//97 105//79 99//106
f 97//99 96//100 102//107
f 103//104 107//103 106//105
f 28//29 18//17 26//27
f 102//107 101//101 103//104
f 101//101 18//17 103//104
f 79//77 97//99 105//79
f 69//71 66//70 94//97
f 95//98 70//69 96//100
