# Blender v2.76 (sub 0) OBJ File: 'spines-modeling.blend'
# www.blender.org
mtllib spine-10.mtl
o duplicate_spine_1.002
v 0.100155 -0.021182 0.008093
v 0.065213 0.085743 -0.003049
v -0.089617 -0.042201 0.012544
v 0.021253 -0.096650 0.008272
v -0.053690 0.091352 0.006818
v -0.001530 0.041761 -0.467600
v -0.034778 -0.023169 -0.450606
v -0.065784 0.141676 -0.839384
v 0.067994 0.066748 -0.657269
v 0.026636 -0.034685 -0.555461
v -0.123609 -0.062522 -0.808477
v 0.169361 0.088893 -0.794286
v -0.006718 -0.151551 -0.888982
v 0.213534 -0.092685 -0.896242
v -0.061879 0.049717 -0.954430
v 0.110517 -0.032630 -1.000135
v 0.115966 0.060027 -0.990972
v 0.219813 0.055253 -0.942676
vn -0.757300 -0.336500 0.559700
vn 0.814200 -0.167200 0.555900
vn -0.486400 0.690200 0.535800
vn -0.911200 -0.411700 0.014900
vn 0.129500 -0.826700 0.547500
vn 0.746400 -0.581500 0.323600
vn 0.548600 0.696600 0.462400
vn 0.057700 0.991600 0.115200
vn -0.935200 -0.350800 -0.048100
vn -0.493000 0.861400 -0.122600
vn -0.255300 -0.913000 -0.318200
vn 0.654600 0.625400 0.424500
vn 0.707500 0.614000 0.349900
vn 0.784900 -0.611000 -0.102500
vn -0.586700 0.280900 -0.759500
vn 0.111100 -0.326700 -0.938600
vn 0.085400 0.732000 -0.675900
vn 0.792800 0.452000 -0.408800
usemtl None
s 1
f 3//1 1//2 5//3
f 7//4 3//1 5//3
f 4//5 3//1 7//4
f 10//6 1//2 4//5
f 5//3 2//7 6//8
f 6//8 2//7 1//2
f 11//9 7//4 8//10
f 7//4 6//8 8//10
f 7//4 11//9 13//11
f 8//10 9//12 12//13
f 10//6 14//14 9//12
f 12//13 9//12 14//14
f 11//9 15//15 13//11
f 16//16 15//15 17//17
f 13//11 16//16 14//14
f 8//10 12//13 18//18
f 18//18 17//17 15//15
f 17//17 18//18 16//16
f 18//18 14//14 16//16
f 18//18 12//13 14//14
f 5//3 1//2 2//7
f 1//2 3//1 4//5
f 10//6 6//8 1//2
f 10//6 9//12 6//8
f 13//11 10//6 7//4
f 10//6 13//11 14//14
f 8//10 6//8 9//12
f 15//15 11//9 8//10
f 8//10 18//18 15//15
f 13//11 15//15 16//16
f 6//8 7//4 5//3
f 10//6 4//5 7//4
