# Blender v2.76 (sub 0) OBJ File: 'spines-modeling.blend'
# www.blender.org
mtllib spine-16.mtl
o duplicate_spine_4.002
v -0.068128 -0.043046 0.009189
v 0.032932 0.052366 0.013201
v -0.083874 0.077010 -0.007770
v 0.034332 -0.072692 0.007995
v -0.102614 -0.052101 -0.028230
v 0.110798 0.030775 -0.010314
v 0.025189 0.110458 -0.026925
v 0.033067 -0.114476 -0.023754
v -0.012758 -0.015308 -0.267730
v -0.018521 0.009519 -0.264522
v -0.020373 0.009486 -0.403418
v -0.006121 -0.003645 -0.340325
v -0.052847 0.000592 -0.647230
v -0.016337 0.013037 -0.676451
v -0.020551 -0.016439 -0.678347
v -0.002976 0.046098 -0.866736
v 0.063821 -0.042768 -0.781824
v 0.160364 0.186424 -0.951067
v 0.183345 -0.056487 -0.858871
v 0.086735 0.090578 -0.872363
v 0.123919 0.050934 -0.831726
v 0.017123 -0.071113 -0.870564
v 0.084300 0.071768 -0.983604
v 0.091587 0.147846 -0.976920
v 0.157838 -0.038716 -0.947278
v 0.027802 0.107710 -0.969076
v 0.043855 -0.017324 -0.961167
v 0.249578 0.098819 -0.913877
vn 0.920300 0.167600 0.353400
vn 0.148700 0.299400 0.942400
vn 0.281800 -0.401900 0.871200
vn -0.404200 -0.312400 0.859600
vn -0.876900 -0.461300 0.135100
vn 0.296600 -0.935600 0.191400
vn -0.682100 0.608000 0.406300
vn 0.207200 0.959000 0.193300
vn 0.979100 -0.115900 -0.166800
vn -0.875500 0.417000 -0.244100
vn -0.807800 -0.561300 -0.179800
vn 0.312800 0.949400 -0.028500
vn -0.994700 0.057700 0.085400
vn 0.345600 -0.854500 0.387800
vn 0.493100 0.766200 0.412000
vn -0.901000 0.424700 -0.087800
vn -0.219500 0.826400 0.518500
vn 0.444200 0.427700 0.787200
vn 0.435100 -0.675400 0.595300
vn -0.536900 -0.821100 -0.193600
vn 0.266500 0.933300 -0.240400
vn -0.743700 0.489900 -0.454900
vn 0.659100 -0.667400 0.346500
vn 0.953100 0.301600 -0.024600
vn -0.233100 0.669300 -0.705500
vn 0.043900 -0.057200 -0.997400
vn 0.388900 -0.623600 -0.678100
vn -0.473500 -0.456000 -0.753500
usemtl None
s 1
f 6//1 2//2 4//3
f 1//4 5//5 8//6
f 5//5 1//4 3//7
f 7//8 6//1 12//9
f 6//1 8//6 12//9
f 7//8 12//9 10//10
f 8//6 5//5 9//11
f 11//12 13//13 10//10
f 9//11 13//13 12//9
f 15//14 12//9 13//13
f 14//15 16//16 13//13
f 20//17 14//15 21//18
f 17//19 15//14 22//20
f 17//19 21//18 14//15
f 20//17 21//18 18//21
f 20//17 26//22 16//16
f 19//23 28//24 21//18
f 24//25 18//21 23//26
f 25//27 19//23 22//20
f 27//28 23//26 25//27
f 15//14 14//15 11//12
f 4//3 2//2 1//4
f 1//4 2//2 3//7
f 10//10 5//5 3//7
f 3//7 7//8 10//10
f 11//12 10//10 12//9
f 11//12 14//15 13//13
f 13//13 9//11 10//10
f 14//15 20//17 16//16
f 17//19 22//20 19//23
f 22//20 15//14 13//13
f 13//13 16//16 22//20
f 27//28 22//20 16//16
f 6//1 4//3 8//6
f 20//17 18//21 26//22
f 18//21 24//25 26//22
f 17//19 19//23 21//18
f 28//24 23//26 18//21
f 27//28 25//27 22//20
f 26//22 27//28 16//16
f 27//28 26//22 23//26
f 2//2 6//1 7//8
f 2//2 7//8 3//7
f 4//3 1//4 8//6
f 9//11 5//5 10//10
f 12//9 8//6 9//11
f 14//15 15//14 17//19
f 18//21 21//18 28//24
f 23//26 28//24 25//27
f 23//26 26//22 24//25
f 25//27 28//24 19//23
f 12//9 15//14 11//12
