# Blender v3.5.0 OBJ File: 'spine-models.blend'
# www.blender.org
mtllib spine_19.mtl
o spine_19_<bpy_struct,_Object("spine_19")>-simple_2.002
v 0.196972 -0.072423 2.606311
v 0.117185 -0.081026 2.691352
v 0.115360 -0.317326 2.536663
v 0.191843 -0.242955 2.123954
v 0.227995 -0.206443 2.454073
v 0.289501 -0.102794 2.317847
v 0.192761 0.026096 2.506952
v 0.280373 -0.101548 2.025092
v 0.274513 -0.062852 2.195744
v 0.289347 -0.099153 2.265828
v 0.311138 0.096531 2.159135
v 0.293769 -0.058460 2.276592
v 0.291857 -0.058627 2.278831
v 0.106340 -0.180345 1.614507
v 0.208134 -0.083502 1.672340
v 0.229930 -0.180959 1.893502
v 0.155313 -0.039053 1.544869
v 0.240226 0.123594 1.769889
v 0.145189 -0.261061 1.827360
v 0.145375 -0.092297 1.457092
v -0.024902 -0.276605 1.954770
v 0.223517 0.022691 2.315509
v 0.174627 0.208998 2.350662
v 0.142622 0.323710 2.375928
v 0.074214 0.314784 2.489210
v 0.109741 0.158941 2.469620
v -0.083283 0.296103 2.278455
v 0.302875 0.168427 2.010366
v 0.207375 0.298553 2.128596
v 0.214806 0.261260 2.061937
v -0.047720 0.229560 2.042969
v 0.158917 0.016649 2.573169
v 0.165712 0.242753 1.750735
v 0.211079 0.187897 1.826667
v 0.048220 0.135670 1.786504
v 0.121839 0.194263 1.804646
v 0.184801 0.117411 1.621689
v 0.143115 0.249056 1.837431
v -0.051707 0.157707 1.277225
v 0.011909 0.127356 1.455670
v 0.076602 0.200413 1.292938
v 0.089764 0.066079 1.241241
v 0.089765 0.066078 1.241243
v 0.081667 0.052719 1.249596
v 0.008454 0.021748 1.139723
v 0.089768 0.066081 1.241248
v 0.139687 0.104618 1.343327
v 0.073133 0.164060 1.133056
v 0.076603 0.200416 1.292950
v 0.076595 0.200418 1.292936
v 0.076602 0.200414 1.292937
v -0.020951 0.289836 1.133527
v -0.045784 -0.370151 2.518337
v -0.331223 -0.199184 2.608391
v -0.328219 -0.302878 2.422579
v -0.214929 -0.320771 2.551458
v -0.230331 -0.123823 2.654150
v -0.247680 -0.060017 2.470155
v -0.106655 0.008099 2.691918
v -0.120563 -0.155708 2.632989
v -0.016684 -0.129703 2.699140
v 0.066580 -0.361767 2.058125
v -0.067390 -0.391615 2.346925
v -0.084151 -0.382972 2.198272
v -0.123121 -0.314844 2.096293
v -0.284791 -0.171592 2.216745
v -0.169376 -0.191820 2.068807
v -0.162758 0.049276 2.162962
v -0.211729 -0.005251 2.287627
v -0.181439 -0.420970 2.392421
v -0.075074 0.014316 1.680810
v -0.024335 -0.191285 1.605580
v -0.015573 -0.209254 1.789200
v -0.040018 -0.230583 1.896132
v -0.107249 -0.112219 1.762516
v -0.115726 -0.016261 1.869680
v 0.125139 -0.277719 2.076618
v -0.095699 0.299216 2.562443
v -0.191821 0.153958 2.396775
v -0.221599 0.018129 2.598015
v -0.001411 0.210976 2.584458
v -0.066989 0.103684 2.696701
v -0.103246 0.119387 2.099188
v -0.128294 0.221269 2.211855
v -0.146894 0.086743 2.003004
v -0.115727 -0.016259 1.869679
v -0.115726 -0.016253 1.869685
v -0.074388 0.019566 1.679118
v -0.074387 0.019568 1.679117
v -0.057736 0.087453 1.597646
v -0.075223 0.017363 1.683766
v -0.122794 0.244716 1.163652
v -0.064088 -0.019952 1.278248
v -0.055098 -0.014752 1.408619
v -0.064323 0.218841 1.270772
v -0.041890 -0.098768 0.282752
v 0.059261 -0.120031 0.198596
v 0.135316 -0.089868 0.300478
v 0.064791 -0.196461 0.160197
v 0.161487 -0.078035 0.058448
v 0.055280 -0.124380 0.062433
v 0.148626 -0.148901 -0.056998
v 0.402440 -0.189689 -0.271945
v 0.325500 -0.231181 -0.268749
v 0.355222 -0.213356 -0.336341
v 0.316288 -0.129304 -0.160046
v 0.432776 -0.164141 -0.217482
v 0.403948 -0.188572 -0.271183
v 0.274791 -0.083152 -0.265834
v 0.214892 -0.144921 -0.276838
v 0.192205 -0.141185 -0.290489
v 0.327321 -0.142983 -0.329911
v -0.000965 -0.028707 -0.268809
v 0.115488 -0.162781 -0.326399
v -0.066341 -0.208531 -0.302162
v 0.228643 -0.211583 -0.356408
v 0.340091 -0.010586 -0.116634
v 0.340569 -0.010028 -0.120120
v -0.092854 -0.177310 -0.110978
v 0.035589 -0.142214 -0.050389
v 0.030984 -0.020274 0.501502
v 0.158865 0.033406 0.441464
v 0.061753 0.089068 0.620551
v 0.145854 0.046151 0.421502
v 0.168277 -0.004208 0.405756
v 0.171288 -0.014090 0.397731
v 0.153877 0.042096 0.268725
v 0.018399 0.094317 0.324119
v 0.169281 -0.005031 0.406909
v -0.077571 0.034065 0.441896
v 0.098455 0.156355 0.459240
v 0.006938 0.155683 0.765499
v -0.074846 0.312653 0.676012
v -0.007092 0.280978 0.810116
v 0.017228 0.004680 0.090470
v 0.142003 0.021662 0.033593
v 0.089459 0.156865 -0.061779
v 0.266020 0.022405 -0.207697
v 0.199072 0.152792 -0.128323
v 0.375469 0.036017 -0.120525
v -0.003083 0.160184 -0.202668
v 0.063493 0.103247 -0.218229
v -0.202419 -0.023930 -0.037031
v -0.314571 -0.211534 -0.228222
v -0.126386 0.035716 1.148655
v -0.005700 0.085183 1.028642
v -0.188854 0.064107 1.038801
v -0.113622 0.034961 0.910201
v -0.158833 0.153299 1.026911
v -0.009633 0.195251 0.864736
v -0.122850 0.031607 0.828204
v -0.171207 0.326776 0.903870
v -0.093733 0.346951 0.991248
v -0.178272 0.149723 0.982658
v -0.180539 0.136887 0.997882
v -0.185246 0.136781 1.000783
v -0.071230 0.005623 0.637310
v -0.088749 -0.021848 0.554550
v -0.203894 0.294022 0.711776
v -0.146265 0.031575 0.714340
v -0.142202 0.283796 0.648646
v -0.043341 0.244116 0.545880
v -0.097975 0.134550 0.516759
v -0.107326 -0.106998 -0.036187
v -0.103945 0.092122 -0.012405
v -0.235273 0.142168 -0.292215
v -0.191820 0.269623 -0.269275
v -0.114303 0.157202 -0.265426
v -0.285522 0.128273 -0.188160
v -0.436781 0.114335 -0.145945
v -0.337265 0.033165 -0.106944
v -0.495754 -0.017732 -0.146263
v -0.373914 -0.158810 -0.252716
v -0.409855 -0.042851 -0.261944
v -0.454274 -0.072741 -0.193805
v -0.458824 0.015633 -0.220612
v -0.385646 0.138521 -0.266643
v -0.354401 0.207601 -0.257527
v -0.430689 0.191190 -0.187878
v -0.101957 0.207219 -0.204268
v -0.192946 0.153949 -0.124544
v -0.019958 0.191113 -0.158065
v -0.480330 -0.079766 -0.195231
v -0.027919 -0.118825 1.426801
v -0.018480 -0.112279 1.357064
v 0.120121 0.117860 2.557405
v 0.267499 0.011692 1.929229
v -0.115725 -0.016260 1.869678
v 0.234605 0.034395 -0.006455
v 0.504116 0.017932 -0.164899
v 0.351464 -0.051999 -0.223502
v -0.494105 -0.167479 -0.242127
v 0.099178 0.063596 2.712024
v -0.041831 0.158566 1.961317
v 0.415645 -0.117994 -0.087066
v 0.504105 -0.107263 -0.171358
v 0.400592 -0.042999 -0.074586
v -0.074385 0.019570 1.679115
v -0.572104 -0.112722 -0.227278
v -0.061025 0.069087 0.307299
vn 0.8576 0.0714 0.5094
vn 0.4865 -0.1543 0.8599
vn 0.4778 -0.7425 0.4695
vn 0.6668 -0.7421 -0.0677
vn 0.8802 -0.4103 0.2385
vn 0.9751 -0.1192 0.1871
vn 0.8608 0.3780 0.3407
vn 0.9490 -0.3009 -0.0938
vn 0.9953 0.0128 -0.0964
vn 0.9612 -0.2653 -0.0757
vn 0.9650 0.1705 0.1992
vn 0.9411 -0.2640 0.2114
vn 0.8187 0.3601 0.4473
vn 0.9411 -0.2641 0.2113
vn 0.4313 -0.8362 -0.3388
vn 0.8968 -0.2882 -0.3358
vn 0.8785 -0.4452 -0.1733
vn 0.9638 -0.1768 -0.1997
vn 0.9533 0.2414 -0.1816
vn 0.3612 -0.8948 -0.2625
vn 0.7608 -0.5352 -0.3671
vn -0.3037 -0.8351 -0.4588
vn 0.8718 0.3615 0.3307
vn 0.9132 0.2335 0.3338
vn 0.5713 0.7818 0.2497
vn 0.4400 0.7820 0.4415
vn 0.8694 0.3541 0.3446
vn -0.4850 0.8636 -0.1378
vn 0.9227 0.3622 -0.1322
vn 0.5132 0.8495 -0.1221
vn 0.4826 0.8515 -0.2050
vn -0.6069 0.7041 -0.3687
vn 0.8165 0.4054 0.4110
vn 0.0565 0.9799 -0.1915
vn 0.7676 0.6153 -0.1792
vn -0.5928 0.7474 -0.2999
vn -0.3594 0.8632 -0.3545
vn 0.6555 0.6506 -0.3835
vn 0.0435 0.8533 -0.5196
vn -0.7460 0.2510 0.6169
vn -0.4049 0.9021 0.1489
vn -0.7841 0.3710 0.4976
vn -0.6170 -0.7730 0.1476
vn 0.7314 0.2709 -0.6258
vn 0.5199 -0.6589 -0.5436
vn 0.4089 -0.8293 -0.3810
vn -0.4172 0.0087 -0.9088
vn 0.9647 0.2294 -0.1293
vn 0.8623 0.1914 -0.4689
vn 0.1510 0.3402 0.9281
vn 0.1573 0.6016 0.7831
vn -0.7400 0.1011 0.6649
vn 0.4231 0.8905 0.1670
vn 0.1220 -0.8488 0.5145
vn -0.7918 -0.0536 0.6084
vn -0.8815 -0.4682 -0.0612
vn -0.2567 -0.6946 0.6720
vn -0.4671 -0.0055 0.8842
vn -0.9073 0.4204 0.0014
vn -0.3315 0.0513 0.9421
vn -0.1545 -0.4362 0.8865
vn -0.0789 -0.3632 0.9284
vn 0.3997 -0.7980 -0.4511
vn 0.2786 -0.9603 0.0175
vn -0.3128 -0.9070 -0.2820
vn -0.7446 -0.6071 -0.2774
vn -0.8893 0.0283 -0.4565
vn -0.8675 -0.2426 -0.4344
vn -0.9293 0.3042 -0.2094
vn -0.9256 0.3169 -0.2071
vn -0.3062 -0.9518 -0.0149
vn -0.9406 -0.0923 -0.3266
vn -0.5703 -0.7990 -0.1905
vn -0.4795 -0.8274 -0.2922
vn -0.6162 -0.6935 -0.3734
vn -0.8195 -0.3787 -0.4301
vn -0.7143 -0.4965 0.4932
vn 0.7335 -0.4416 -0.5167
vn -0.3659 0.7958 0.4825
vn -0.9251 0.3758 -0.0552
vn -0.8688 0.3007 0.3935
vn 0.3804 0.5658 0.7315
vn -0.2241 0.3670 0.9028
vn -0.8444 0.5007 -0.1905
vn -0.8688 0.4136 -0.2722
vn -0.8544 0.4794 -0.2005
vn -0.6954 0.1565 -0.7013
vn -0.4310 0.0493 0.9010
vn 0.0302 0.4983 0.8665
vn 0.8517 -0.1317 0.5072
vn -0.7953 0.6060 -0.0118
vn -0.9126 0.4085 0.0148
vn -0.7611 0.5106 0.3999
vn -0.7005 -0.6790 -0.2197
vn -0.9992 -0.0236 0.0322
vn -0.4999 0.4449 0.7431
vn -0.7244 -0.6875 0.0503
vn -0.7556 -0.6348 0.1615
vn 0.6088 -0.7164 0.3408
vn -0.2743 -0.9590 0.0719
vn 0.8269 -0.4154 0.3791
vn -0.3790 -0.9095 0.1709
vn 0.2178 -0.9345 0.2817
vn 0.7721 -0.5655 -0.2898
vn -0.0032 -0.9411 0.3382
vn 0.5151 -0.4796 -0.7104
vn 0.0224 -0.8131 0.5817
vn 0.7722 -0.5655 -0.2898
vn 0.6446 -0.7023 -0.3019
vn 0.8993 -0.1537 -0.4094
vn 0.0386 0.5395 -0.8411
vn -0.6327 -0.7486 -0.1985
vn 0.2954 -0.6836 -0.6674
vn 0.2606 0.5139 -0.8173
vn 0.1215 0.2654 -0.9565
vn 0.2073 -0.4808 -0.8520
vn 0.0332 -0.7320 -0.6805
vn -0.6939 -0.3753 -0.6146
vn 0.5022 -0.2205 0.8362
vn 0.4587 -0.1215 0.8802
vn -0.1160 -0.8743 0.4713
vn -0.0891 -0.9183 0.3858
vn 0.1731 -0.9808 0.0902
vn 0.9576 0.0037 0.2882
vn 0.8845 -0.1278 0.4487
vn 0.7604 0.4842 -0.4329
vn 0.9781 -0.0316 0.2056
vn 0.9043 -0.4107 -0.1162
vn 0.7933 0.6017 -0.0928
vn -0.1378 0.9335 -0.3310
vn 0.2676 -0.0761 0.9605
vn 0.9781 -0.0317 0.2056
vn -0.9332 -0.1890 -0.3055
vn 0.5268 0.8214 -0.2188
vn 0.9640 -0.1154 0.2398
vn 0.3430 0.8972 -0.2782
vn 0.8665 0.4881 -0.1045
vn -0.7022 0.5140 0.4926
vn 0.4292 0.6355 0.6418
vn 0.1448 0.9168 0.3721
vn 0.2468 0.5634 -0.7885
vn 0.3433 0.9316 -0.1195
vn 0.5642 0.6214 0.5435
vn 0.4489 0.6470 -0.6164
vn 0.2110 0.5694 -0.7945
vn -0.4087 -0.1379 0.9022
vn -0.5550 -0.8166 -0.1586
vn -0.6934 -0.7026 0.1599
vn 0.7758 -0.5423 -0.3225
vn -0.9144 -0.4036 0.0311
vn -0.1526 -0.9460 -0.2861
vn -0.9001 0.3361 0.2773
vn 0.9775 -0.2049 0.0508
vn -0.2774 -0.8990 0.3390
vn -0.7700 0.6258 0.1245
vn -0.1363 0.9630 0.2326
vn -0.8653 -0.2156 -0.4525
vn -0.9960 -0.0886 0.0125
vn -0.9934 0.0618 0.0970
vn -0.2922 -0.9406 0.1730
vn -0.6435 -0.7636 0.0534
vn -0.8501 0.4453 -0.2812
vn -0.7815 -0.5963 -0.1836
vn -0.5914 0.5242 -0.6128
vn 0.1565 0.7979 -0.5822
vn -0.8234 0.1980 -0.5318
vn -0.4414 -0.5636 0.6983
vn -0.3657 0.5084 0.7796
vn -0.0289 0.0854 -0.9959
vn 0.0779 0.9598 -0.2698
vn 0.3817 0.3240 -0.8656
vn -0.1609 0.7108 0.6848
vn -0.5616 0.4150 0.7158
vn -0.2962 0.0849 0.9514
vn -0.8412 -0.1648 0.5151
vn -0.0025 -0.8638 -0.5038
vn -0.3786 0.0225 -0.9253
vn -0.5628 -0.6471 0.5143
vn -0.8189 0.1144 -0.5624
vn -0.4826 0.1889 -0.8552
vn -0.2815 0.8918 -0.3541
vn -0.5621 0.7854 0.2590
vn 0.2210 0.9753 0.0002
vn -0.3533 0.7796 0.5171
vn 0.2315 0.9719 0.0417
vn -0.5041 0.0432 0.8626
vn -0.5783 -0.7833 -0.2281
vn -0.2605 -0.8521 -0.4539
vn 0.8587 0.4309 0.2774
vn 0.9607 -0.0620 -0.2706
vn 0.3319 -0.2195 -0.9174
vn 0.5623 0.3183 0.7632
vn 0.7921 0.6022 -0.0993
vn 0.3243 0.4309 -0.8421
vn -0.2872 -0.9417 -0.1750
vn 0.4806 0.3008 0.8237
vn -0.6805 0.6187 -0.3925
vn 0.1092 -0.5399 0.8346
vn 0.9366 -0.3214 -0.1395
vn -0.0450 0.1947 0.9798
vn -0.4212 -0.5543 0.7178
vn -0.6326 -0.7486 -0.1985
vn 0.5022 -0.2206 0.8362
vn -0.9988 -0.0316 0.0374
vn -0.5959 0.5587 -0.5769
usemtl color.basal_dendrites_skeleton_color_0_color.011
s 1
f 1//1 2//2 3//3
f 4//4 5//5 3//3
f 6//6 7//7 5//5
f 8//8 9//9 10//10
f 5//5 8//8 10//10
f 9//9 11//11 12//12
f 10//10 9//9 13//13
f 12//12 11//11 13//13
f 13//13 6//6 12//14
f 14//15 15//16 16//17
f 17//18 15//16 14//15
f 15//16 18//19 16//17
f 14//15 16//17 19//20
f 20//21 17//18 14//15
f 21//22 19//20 4//4
f 7//7 22//23 23//24
f 24//25 25//26 26//27
f 27//28 25//26 24//25
f 9//9 28//29 11//11
f 29//30 30//31 31//32
f 11//11 29//30 22//23
f 29//30 24//25 23//24
f 27//28 24//25 29//30
f 24//25 26//27 23//24
f 7//7 26//27 32//33
f 18//19 33//34 34//35
f 35//36 36//37 33//34
f 35//36 33//34 37//38
f 28//29 38//39 30//31
f 28//29 34//35 38//39
f 38//39 36//37 35//36
f 33//34 36//37 34//35
f 39//40 40//41 41//42
f 42//43 43//44 44//45
f 43//44 45//46 46//47
f 47//48 48//49 49//50
f 47//48 49//50 41//42
f 43//44 48//49 47//48
f 50//51 51//52 52//53
f 40//41 37//38 47//48
f 48//49 52//53 49//50
f 38//39 31//32 30//31
f 3//3 2//2 53//54
f 54//55 55//56 56//57
f 57//58 58//59 54//55
f 59//60 60//61 61//62
f 2//2 61//62 53//54
f 57//58 54//55 56//57
f 53//54 62//63 3//3
f 63//64 64//65 62//63
f 64//65 65//66 62//63
f 66//67 67//68 64//65
f 68//69 67//68 69//70
f 66//67 69//70 67//68
f 67//68 65//66 64//65
f 55//56 70//71 56//57
f 66//67 54//55 58//59
f 71//72 72//73 73//74
f 74//75 75//76 73//74
f 75//76 71//72 73//74
f 75//76 74//75 76//77
f 67//68 74//75 21//22
f 62//63 21//22 77//78
f 78//79 79//80 80//81
f 81//82 78//79 82//83
f 79//80 78//79 27//28
f 83//84 68//69 79//80
f 31//32 84//85 27//28
f 68//69 69//70 79//80
f 83//84 79//80 84//85
f 78//79 25//26 27//28
f 85//86 35//36 86//87
f 87//88 86//87 35//36
f 88//89 71//72 89//90
f 22//23 6//6 13//13 11//11
f 90//91 71//72 88//89
f 35//36 91//92 87//88
f 39//40 92//93 93//94
f 93//94 94//95 39//40
f 95//96 92//93 39//40
f 85//86 67//68 68//69
f 96//97 97//98 98//99
f 98//99 99//100 100//101
f 100//101 101//102 102//103
f 97//98 101//102 99//100
f 103//104 104//105 105//106
f 106//107 103//108 107//109
f 106//107 104//105 108//110
f 109//111 110//112 111//113
f 109//111 112//114 110//112
f 113//115 114//116 115//117
f 112//114 105//106 116//118
f 116//118 105//106 104//105
f 114//116 111//113 106//107
f 102//103 114//116 106//107
f 117//119 106//107 118//120
f 119//121 102//103 120//122
f 108//110 107//109 103//108
f 121//123 122//124 123//125
f 124//126 125//127 126//128
f 127//129 128//130 129//131
f 126//128 128//130 124//126
f 127//129 126//128 125//132
f 121//123 125//127 122//124
f 126//128 130//133 129//131
f 124//126 131//134 122//124
f 121//123 130//133 126//128
f 132//135 133//136 134//137
f 135//138 127//129 136//139
f 135//138 136//139 137//140
f 138//141 139//142 140//143
f 141//144 142//145 113//115
f 143//146 144//147 119//121
f 119//121 144//147 115//117
f 45//46 145//148 146//149
f 147//150 148//151 145//148
f 149//152 147//150 92//93
f 150//153 151//154 132//135
f 133//136 152//155 153//156
f 154//157 148//151 155//158
f 155//158 152//155 156//159
f 148//151 154//157 152//155
f 152//155 154//157 156//159
f 157//160 158//161 121//123
f 159//162 157//160 160//163
f 159//162 133//136 161//164
f 161//164 133//136 162//165
f 163//166 157//160 161//164
f 164//167 165//168 143//146
f 166//169 167//170 168//171
f 169//172 170//173 171//174
f 171//174 172//175 173//176
f 174//177 175//178 176//179
f 170//173 176//179 172//175
f 177//180 174//177 176//179
f 178//181 179//182 169//172
f 177//180 178//181 166//169
f 178//181 169//172 180//183
f 169//172 179//182 170//173
f 181//184 165//168 182//185
f 176//179 175//178 183//186
f 45//46 48//49 46//47
f 93//94 145//148 45//46
f 3//3 62//63 77//78
f 20//21 184//187 185//188
f 184//187 20//21 14//15
f 25//26 81//82 186//189
f 93//94 45//46 42//43
f 44//45 93//94 42//43
f 52//53 95//96 50//51
f 134//137 153//156 52//53
f 158//161 130//133 121//123
f 168//171 141//144 113//115
f 141//144 180//183 182//185
f 187//190 28//29 8//8
f 17//18 37//38 15//16
f 80//81 58//59 57//58
f 188//191 76//77 67//68
f 75//76 89//90 71//72
f 90//91 94//95 72//73
f 98//99 126//128 96//97
f 98//99 127//129 125//132
f 100//101 136//139 98//99
f 96//97 135//138 97//98
f 117//119 189//192 106//107
f 189//192 136//139 100//101
f 138//141 190//193 191//194
f 113//115 138//141 109//111
f 140//143 118//120 190//193
f 118//120 140//143 117//119
f 192//195 174//177 173//176
f 193//196 82//83 2//2
f 168//171 113//115 115//117
f 1//1 32//33 2//2
f 1//1 5//5 7//7
f 1//1 3//3 5//5
f 7//7 32//33 1//1
f 10//10 12//14 6//6
f 7//7 6//6 22//23
f 5//5 10//10 6//6
f 187//190 8//8 16//17 18//19
f 4//4 3//3 77//78
f 21//22 4//4 77//78
f 10//10 13//13 12//14
f 4//4 8//8 5//5
f 12//12 13//13 9//9
f 16//17 8//8 4//4 19//20
f 47//48 20//21 185//188
f 186//189 193//196 2//2 32//33
f 51//52 41//42 49//50 52//53
f 26//27 25//26 186//189
f 32//33 26//27 186//189
f 29//30 23//24 22//23
f 23//24 26//27 7//7
f 11//11 28//29 30//31
f 29//30 11//11 30//31
f 18//19 34//35 187//190
f 18//19 15//16 37//38
f 18//19 37//38 33//34
f 37//38 90//91 35//36
f 187//190 34//35 28//29
f 36//37 38//39 34//35
f 38//39 35//36 194//197
f 40//41 90//91 37//38
f 17//18 20//21 47//48
f 37//38 17//18 47//48
f 47//48 41//42 40//41
f 42//43 45//46 43//44
f 44//45 43//44 47//48
f 43//44 46//47 48//49
f 50//51 39//40 51//52
f 41//42 51//52 39//40
f 59//60 61//62 2//2 82//83
f 90//91 88//89 91//92 35//36
f 60//61 53//54 61//62
f 60//61 59//60 57//58
f 60//61 57//58 56//57
f 53//54 60//61 56//57
f 53//54 63//64 62//63
f 56//57 70//71 53//54
f 55//56 66//67 70//71
f 70//71 66//67 64//65
f 54//55 66//67 55//56
f 69//70 66//67 58//59
f 63//64 53//54 70//71
f 63//64 70//71 64//65
f 19//20 21//22 74//75
f 67//68 76//77 74//75
f 19//20 74//75 73//74
f 94//95 184//187 72//73
f 94//95 93//94 185//188
f 94//95 185//188 184//187
f 71//72 90//91 72//73
f 62//63 65//66 21//22
f 65//66 67//68 21//22
f 193//196 81//82 82//83
f 81//82 25//26 78//79
f 82//83 80//81 59//60
f 82//83 78//79 80//81
f 79//80 27//28 84//85
f 80//81 79//80 69//70
f 83//84 31//32 194//197
f 84//85 31//32 83//84
f 80//81 69//70 58//59
f 87//88 188//191 86//87
f 85//86 86//87 67//68
f 35//36 85//86 194//197
f 91//92 88//89 89//90
f 195//198 196//199 190//193 197//200
f 89//90 198//201 91//92
f 94//95 90//91 40//41
f 92//93 145//148 93//94
f 39//40 94//95 40//41
f 83//84 194//197 85//86
f 85//86 68//69 83//84
f 112//114 108//110 103//104 105//106
f 99//100 98//99 97//98
f 100//101 102//103 106//107
f 101//102 100//101 99//100
f 102//103 101//102 120//122
f 135//138 101//102 97//98
f 189//192 100//101 106//107
f 196//199 195//198 107//109
f 191//194 190//193 196//199
f 107//109 191//194 196//199
f 195//198 118//120 106//107
f 103//104 108//110 104//105
f 104//105 106//107 110//202 116//118
f 110//202 111//113 116//118
f 111//113 110//112 112//114 116//118
f 106//107 111//113 110//202
f 106//107 108//110 103//108
f 112//114 109//111 191//194
f 108//110 112//114 191//194
f 102//103 119//121 115//117
f 114//116 113//115 109//111
f 102//103 115//117 114//116
f 195//198 197//200 117//203 118//120
f 114//116 109//111 111//113
f 117//203 197//200 190//193 118//120
f 195//198 106//107 107//109
f 108//110 191//194 107//109
f 134//137 52//53 146//149 150//153
f 45//46 146//149 48//49
f 48//49 146//149 52//53
f 137//140 142//145 141//144 182//185
f 150//153 132//135 134//137
f 123//125 162//165 133//136
f 126//128 129//131 128//130
f 127//129 129//131 126//128
f 122//124 125//127 124//126
f 121//123 126//128 125//127
f 128//130 130//133 131//134
f 121//123 123//125 157//160
f 124//126 128//130 131//134
f 123//125 122//124 131//134
f 162//165 123//125 131//134
f 123//125 133//136 132//135
f 128//130 135//138 96//97
f 127//129 135//138 128//130
f 189//192 137//140 136//139
f 189//192 139//142 137//140
f 165//168 135//138 137//140
f 190//193 138//141 140//143
f 142//145 138//141 113//115
f 115//117 144//147 174//177 166//169
f 139//142 142//145 137//140
f 138//141 142//145 139//142
f 140//143 139//142 189//192
f 182//185 165//168 137//140
f 164//167 143//146 119//121
f 148//151 147//150 156//159 155//158
f 173//176 174//177 144//147
f 145//148 148//151 146//149
f 149//152 155//158 156//159 147//150
f 160//163 151//154 152//155 159//162
f 92//93 147//150 145//148
f 52//53 153//156 92//93
f 92//93 153//156 149//152
f 148//151 150//153 146//149
f 123//125 132//135 151//154
f 151//154 150//153 148//151
f 155//158 156//159 154//157
f 153//156 152//155 149//152
f 155//158 149//152 152//155
f 152//155 151//154 148//151
f 157//160 163//166 158//161
f 163//166 161//164 162//165
f 159//162 161//164 157//160
f 163//166 130//133 158//161
f 123//125 151//154 157//160
f 175//178 174//177 199//204 183//186
f 151//154 160//163 157//160
f 133//136 159//162 152//155
f 165//168 181//184 143//146
f 135//138 165//168 164//167
f 166//169 168//171 115//117
f 180//183 181//184 182//185
f 180//183 169//172 181//184
f 168//171 167//170 180//183
f 167//170 178//181 180//183
f 143//146 171//174 173//176
f 169//172 171//174 181//184
f 173//176 172//175 175//178
f 143//146 181//184 171//174
f 170//173 172//175 171//174
f 179//182 178//181 177//180
f 176//179 170//173 179//182
f 174//177 177//180 166//169
f 178//181 167//170 166//169
f 176//179 179//182 177//180
f 176//179 183//186 172//175
f 76//77 87//88 91//92 75//76
f 172//175 183//186 175//178
f 200//205 96//97 130//133
f 92//93 95//96 52//53
f 73//74 72//73 14//15
f 19//20 73//74 14//15
f 14//15 72//73 184//187
f 101//102 135//138 164//167
f 120//122 164//167 119//121
f 101//102 164//167 120//122
f 186//189 81//82 193//196
f 31//32 27//28 29//30
f 194//197 31//32 38//39
f 44//45 185//188 93//94
f 39//40 50//51 95//96
f 133//136 153//156 134//137
f 130//133 163//166 131//134
f 131//134 163//166 162//165
f 128//130 200//205 130//133
f 200//205 128//130 96//97
f 168//171 180//183 141//144
f 8//8 28//29 9//9
f 47//48 185//188 44//45
f 59//60 80//81 57//58
f 188//191 87//88 76//77
f 86//87 188//191 67//68
f 75//76 198//201 89//90
f 91//92 198//201 75//76
f 98//99 125//132 126//128
f 126//128 129//131 96//97
f 96//97 129//131 130//133
f 98//99 136//139 127//129
f 117//119 140//143 189//192
f 109//111 138//141 191//194
f 173//176 144//147 143//146
f 173//176 175//178 192//195
f 192//195 183//186 199//204
f 192//195 175//178 183//186
f 199//204 174//177 192//195
