# Blender v2.76 (sub 0) OBJ File: 'spines-modeling.blend'
# www.blender.org
mtllib spine-1.mtl
o duplicate_spine_20_hq.002
v -0.126310 0.006849 -0.036419
v -0.030553 0.006923 -0.314027
v 0.115343 0.023324 -0.016288
v -0.032512 -0.000771 -0.000733
v 0.045536 -0.063363 -0.028242
v -0.015680 0.065055 -0.030250
v -0.058113 -0.012208 -0.297869
v 0.027376 0.003809 -0.692352
v -0.009366 0.010782 -0.889633
v 0.007023 -0.000315 -0.707273
v 0.025961 -0.004235 -0.701840
v 0.073839 0.030584 -0.961704
v -0.087717 0.006971 -1.023153
v 0.017332 -0.040163 -0.979957
vn 0.891200 0.386900 -0.236500
vn 0.888200 0.235300 0.394500
vn 0.307800 -0.879100 0.363900
vn -0.935600 -0.012700 0.352900
vn -0.201100 -0.964400 -0.171500
vn -0.206200 -0.119200 0.971200
vn -0.078600 0.918900 0.386500
vn 0.781800 0.616800 0.091100
vn -0.981100 0.008000 0.193400
vn 0.669900 -0.740000 -0.060500
vn 0.325900 0.940500 0.096000
vn -0.767300 0.099800 -0.633500
vn 0.357200 -0.857500 -0.370300
vn 0.904200 0.423800 -0.053100
usemtl None
s 1
f 2//1 3//2 5//3
f 5//3 1//4 7//5
f 4//6 1//4 5//3
f 2//1 1//4 6//7
f 7//5 8//8 2//1
f 2//1 5//3 7//5
f 8//8 10//9 1//4
f 10//9 7//5 1//4
f 7//5 11//10 8//8
f 7//5 10//9 11//10
f 9//11 13//12 10//9
f 14//13 10//9 13//12
f 12//14 9//11 14//13
f 4//6 5//3 3//2
f 4//6 3//2 6//7
f 6//7 3//2 2//1
f 1//4 2//1 8//8
f 10//9 8//8 9//11
f 9//11 11//10 14//13
f 11//10 9//11 8//8
f 11//10 10//9 14//13
f 9//11 12//14 13//12
f 14//13 13//12 12//14
f 4//6 6//7 1//4
