# Blender v2.76 (sub 0) OBJ File: 'spines-modeling-2.blend'
# www.blender.org
mtllib spine-6-lr.mtl
o spine-6-lr_Cube.013
v 0.036914 -0.054920 -0.099022
v 0.070736 -0.026339 -0.072344
v 0.081496 -0.079060 -0.058516
v 0.038771 -0.078671 -0.063215
v 0.041607 -0.062238 -0.069095
v 0.023970 -0.047708 -0.229428
v 0.078141 -0.013742 -0.062798
v 0.030159 -0.063482 -0.071950
v -0.008310 -0.066217 -0.114399
v 0.024265 -0.064320 -0.071559
v 0.011794 -0.070427 -0.069408
v -0.003381 -0.092155 -0.065548
v -0.018939 -0.089388 -0.072149
v 0.050381 0.033674 -0.080761
v 0.071112 0.016426 -0.049084
v 0.083311 -0.005168 -0.045371
v -0.035945 -0.058341 -0.115810
v -0.043330 -0.063191 -0.087306
v 0.071958 0.022145 -0.046432
v -0.043138 -0.054017 -0.123652
v 0.055049 -0.010641 -0.141523
v 0.079135 0.021707 -0.036327
v 0.061654 0.037836 -0.044081
v 0.084399 0.025731 -0.032791
v -0.052760 -0.048083 -0.127552
v -0.044132 -0.043822 -0.218014
v 0.050078 0.051893 -0.041549
v -0.065511 -0.009820 -0.220615
v -0.073233 -0.030553 -0.111933
v -0.004993 0.059642 -0.088928
v -0.011025 0.054012 -0.206778
v -0.004576 0.070939 -0.055069
v 0.008446 0.088753 -0.023312
v 0.033236 0.065007 -0.036770
v -0.064369 -0.016291 -0.138467
v -0.072348 -0.021036 -0.130518
v -0.071106 -0.002595 -0.120658
v -0.071148 0.011246 -0.118645
v 0.036410 0.040970 -0.234894
v -0.061930 0.031735 -0.129614
v -0.048777 0.049218 -0.092374
v -0.040692 0.056584 -0.082282
v -0.026117 0.062277 -0.075301
v -0.083319 0.020919 -0.111383
v 0.060124 0.006903 -0.302434
v 0.042384 -0.036256 -0.408121
v -0.052733 0.038106 -0.260798
v -0.006238 0.066142 -0.289543
v -0.041674 0.065973 -0.371685
v 0.023732 0.065836 -0.382816
v -0.088394 0.008379 -0.422990
v -0.033476 -0.054152 -0.405690
v 0.059483 0.029824 -0.414532
v -0.000856 -0.015074 -0.534508
v -0.030554 -0.046394 -0.529502
v -0.044505 0.063522 -0.482708
v 0.004593 0.051478 -0.503549
v -0.107166 -0.027187 -0.562206
v -0.157460 0.007207 -0.638543
v -0.099658 0.033640 -0.612256
v -0.119035 -0.008056 -0.643524
v -0.183920 0.014831 -0.717607
v -0.214181 0.003955 -0.748294
v -0.217066 0.015836 -0.830316
v -0.211451 -0.003786 -0.789512
v -0.221043 0.027112 -1.036043
v -0.240086 -0.011047 -0.908742
v -0.256162 -0.017304 -0.937201
v -0.201532 -0.012970 -1.066194
v -0.246243 0.003089 -0.894464
v -0.247183 -0.032345 -1.048612
v -0.238941 0.028638 -1.210479
v -0.171360 -0.054156 -1.166712
v -0.223100 -0.061863 -1.188826
v -0.178248 0.075632 -1.261699
v -0.253418 -0.029909 -1.186729
v -0.217376 -0.062243 -1.301874
v -0.054241 -0.031251 -1.298668
v -0.131496 -0.092890 -1.340803
v -0.112293 0.054414 -1.240069
v -0.048514 0.120402 -1.430292
v -0.002341 -0.103745 -1.451915
v -0.194845 0.073533 -1.452864
v 0.043996 0.066317 -1.450601
v -0.223330 -0.016442 -1.516577
v -0.196262 0.103872 -1.636109
v -0.128181 0.137762 -1.560422
v -0.109344 0.198542 -1.675839
v -0.252923 0.050450 -1.743264
v 0.198790 0.089491 -1.621182
v -0.229699 0.173751 -1.761418
v -0.170457 -0.117112 -1.637602
v 0.094131 -0.162509 -1.693414
v -0.150640 0.245903 -1.768783
v -0.063282 -0.158753 -1.617984
v 0.097395 0.181353 -1.629340
v -0.247972 -0.059684 -1.854342
v -0.279964 0.111310 -1.893515
v -0.221676 0.218796 -1.844995
v -0.280972 0.002491 -2.019965
v 0.343515 0.058947 -1.759805
v 0.014933 0.263497 -1.758334
v -0.240069 0.104129 -2.035232
v 0.159348 -0.045470 -1.593793
v -0.224004 0.193114 -1.926273
v -0.055256 0.238434 -1.907152
v 0.277820 -0.142441 -1.869047
v 0.200118 0.263126 -1.904659
v -0.143014 -0.186874 -1.905256
v -0.160224 0.029153 -2.169923
v -0.211295 -0.122717 -2.079902
v 0.195918 0.258344 -1.775377
v -0.238728 -0.020431 -2.135771
v -0.065950 -0.225016 -2.095415
v 0.021152 -0.231207 -1.923019
v 0.179436 -0.215744 -1.955366
v 0.367092 -0.041347 -1.840853
v 0.394606 -0.061174 -1.974356
v 0.283169 -0.142162 -2.058118
v 0.185288 0.235491 -1.991564
v 0.328784 0.170167 -1.788561
v -0.159161 -0.065716 -2.198269
v 0.112461 -0.212360 -2.108496
v 0.121613 -0.094704 -2.151909
v 0.273962 -0.023081 -2.105632
v 0.381563 0.022453 -2.041507
v -0.036855 -0.017261 -2.186286
v 0.000713 0.111279 -2.087315
v 0.183096 -0.174613 -2.128080
v 0.429100 0.066001 -1.917078
v 0.381854 0.166702 -1.959784
v -0.071006 -0.167651 -2.198761
v 0.305681 0.154894 -2.043643
v 0.112808 0.187869 -2.025866
v 0.174829 0.027522 -2.118553
v 0.069915 0.023208 -2.135538
v 0.101274 0.091140 -2.087607
v 0.223615 0.164269 -2.069707
v 0.026208 -0.145466 -2.189452
v -0.102964 0.029748 0.075989
v -0.114043 -0.082130 0.018095
v -0.050420 -0.025037 0.182456
v -0.045580 0.060929 0.180587
v -0.067629 -0.121365 0.125034
v -0.098475 -0.065326 -0.060996
v 0.005824 -0.193786 0.030626
v -0.072819 0.079607 -0.006254
v -0.101688 0.000583 -0.081138
v -0.023126 0.125056 0.119658
v -0.043781 -0.128695 -0.045248
v 0.077823 -0.111778 0.180385
v 0.032991 -0.183817 -0.057494
v -0.086405 0.004016 -0.120016
v 0.035307 -0.114915 -0.062298
v -0.064324 0.050385 -0.082261
v 0.048279 0.080746 0.205555
v 0.019289 0.142307 0.050445
v 0.128952 -0.210110 0.123023
v 0.067587 0.076389 -0.016964
v 0.107088 -0.029898 -0.042572
v 0.088615 -0.217767 -0.040817
v 0.147462 -0.120164 -0.048597
v 0.132096 0.011772 -0.022134
v 0.090631 0.174873 0.125475
v 0.139310 0.115973 0.038228
v 0.180780 0.060689 0.148643
v 0.175443 0.151176 0.098072
v 0.164688 -0.207195 0.012428
v 0.210567 -0.143844 0.116641
v 0.251983 0.050539 0.033136
v 0.276717 -0.063147 0.053029
v 0.220265 0.020042 -0.016708
v 0.276942 -0.061198 -0.025053
v 0.245741 -0.149334 -0.035225
v 0.270064 -0.147487 0.009514
v 0.280557 0.019216 -0.021328
vn 0.231300 -0.039400 -0.972000
vn 0.111700 -0.219100 -0.969300
vn 0.335400 -0.563100 -0.755200
vn 0.561100 -0.798300 -0.218500
vn 0.454400 -0.889400 -0.049000
vn 0.981500 -0.132600 -0.137600
vn 0.024200 -0.973100 -0.229100
vn 0.314300 -0.671900 -0.670600
vn 0.828700 0.264400 -0.493200
vn 0.816300 0.287500 -0.500900
vn 0.718200 0.645000 -0.261100
vn 0.221000 -0.798700 -0.559700
vn 0.135600 -0.786600 -0.602400
vn -0.520000 -0.851600 -0.065500
vn 0.665900 0.742100 0.076200
vn 0.805300 0.330400 -0.492300
vn -0.436900 -0.887000 -0.149700
vn -0.294700 -0.937600 -0.184600
vn 0.666000 0.530500 -0.524300
vn 0.543700 0.296500 -0.785100
vn 0.998800 0.027500 0.039200
vn 0.478800 0.657200 -0.582000
vn -0.645200 -0.750600 -0.142400
vn -0.893900 -0.161500 -0.418000
vn 0.105400 0.961300 -0.254400
vn 0.078200 0.921100 -0.381300
vn 0.334600 0.731400 -0.594100
vn -0.844500 0.513900 -0.150900
vn -0.988000 -0.154000 -0.013000
vn -0.730700 0.642400 -0.231100
vn -0.060400 0.997200 0.044800
vn -0.273900 -0.961600 0.016700
vn -0.017000 0.990700 0.134600
vn -0.742700 0.662400 0.097600
vn 0.720700 -0.668600 -0.183000
vn 0.429000 0.903300 -0.008400
vn -0.988100 0.038500 0.148600
vn 0.935900 0.251300 -0.246700
vn -0.512200 -0.858300 0.030900
vn 0.256300 -0.909900 -0.326000
vn -0.449800 0.892400 0.036400
vn 0.792800 -0.227300 -0.565400
vn 0.369300 -0.690800 -0.621600
vn 0.174200 0.877700 -0.446500
vn -0.286000 0.955800 -0.067400
vn 0.312600 -0.942700 -0.116200
vn 0.410900 0.911300 0.024600
vn 0.088200 0.988600 -0.121500
vn 0.636200 0.641200 -0.429000
vn -0.942400 -0.048900 0.330900
vn -0.942200 -0.047700 0.331600
vn 0.191000 -0.944600 0.266700
vn -0.949800 0.227000 0.215200
vn -0.490100 -0.843100 0.221200
vn -0.856600 -0.515800 -0.012000
vn 0.308200 0.907200 0.286300
vn -0.232700 0.957500 0.170500
vn -0.837200 0.546900 -0.001300
vn -0.965700 -0.258600 -0.024500
vn -0.380700 -0.919100 0.101800
vn 0.802300 -0.386300 0.455000
vn 0.369800 -0.859900 0.351800
vn 0.593500 0.641100 0.486500
vn -0.032600 -0.979100 0.200700
vn -0.599000 -0.795900 -0.087500
vn -0.721500 0.690000 0.057400
vn -0.978100 -0.194800 0.072300
vn 0.738100 -0.365600 0.567100
vn 0.132900 0.923000 0.361100
vn -0.370500 0.887400 0.274200
vn 0.697700 0.388200 0.602000
vn 0.416200 -0.812400 0.408400
vn -0.128400 -0.967200 0.218900
vn 0.701300 -0.405300 0.586400
vn 0.261300 0.786400 0.559700
vn -0.625000 -0.766100 0.149900
vn 0.335100 -0.872500 0.355600
vn -0.777800 0.556000 0.293000
vn -0.612400 0.612300 -0.500100
vn -0.148600 0.919300 -0.364400
vn -0.018200 0.686400 -0.727000
vn 0.650600 0.287000 0.703100
vn -0.977700 0.062400 0.200400
vn -0.786400 0.496000 0.368100
vn -0.288700 0.816900 0.499300
vn -0.974600 0.223800 -0.005400
vn -0.898200 -0.429700 0.092300
vn -0.338800 0.907400 0.248800
vn -0.050300 0.968900 0.242300
vn 0.338600 -0.939600 0.049400
vn 0.563000 -0.781200 0.269900
vn 0.783000 -0.461700 0.416900
vn 0.796200 -0.006000 0.605000
vn -0.982400 -0.083300 -0.166900
vn -0.806600 0.003400 -0.591100
vn -0.748400 -0.616200 -0.245200
vn -0.520900 -0.849200 0.086800
vn 0.229500 0.964000 -0.133900
vn 0.328700 0.886200 0.326300
vn 0.635100 -0.642800 -0.428300
vn 0.084300 0.866200 -0.492500
vn 0.689000 0.580300 0.434200
vn 0.725700 0.648000 -0.231300
vn -0.030000 -0.993400 0.110800
vn -0.243000 -0.932700 -0.266500
vn 0.209600 -0.844100 -0.493400
vn -0.411900 -0.125600 -0.902500
vn -0.145200 -0.553400 -0.820100
vn 0.354100 -0.573700 -0.738500
vn 0.280700 -0.010200 -0.959700
vn 0.431000 0.005900 -0.902300
vn -0.255000 0.539800 -0.802300
vn 0.238400 -0.330700 -0.913100
vn 0.850900 -0.502500 -0.153200
vn 0.993300 0.090700 0.071900
vn 0.146500 0.285000 -0.947300
vn 0.438600 0.559200 -0.703500
vn 0.145600 0.329200 -0.933000
vn 0.121200 0.553900 -0.823700
vn 0.187800 0.421400 -0.887200
vn 0.021200 0.505100 -0.862800
vn -0.641100 -0.578100 0.504800
vn -0.570100 -0.146500 0.808400
vn -0.940700 0.269000 0.206800
vn -0.760900 -0.442400 -0.474600
vn -0.932700 -0.360600 0.001300
vn -0.949200 0.151400 -0.275800
vn -0.487900 -0.641600 -0.591800
vn -0.280700 -0.550300 -0.786300
vn -0.445700 -0.889900 0.096500
vn -0.611000 0.357100 0.706500
vn 0.018300 0.336300 0.941500
vn 0.026900 -0.399100 0.916500
vn -0.557800 0.781600 0.278900
vn -0.373600 -0.736900 -0.563300
vn -0.195700 0.911000 -0.363000
vn -0.639300 0.736400 -0.221100
vn 0.100100 -0.673400 -0.732500
vn -0.466300 0.281400 -0.838600
vn -0.632300 0.145100 -0.761000
vn 0.116000 -0.373300 -0.920400
vn 0.008900 -0.091300 -0.995800
vn 0.089400 -0.845600 -0.526200
vn -0.714500 0.518600 -0.469600
vn -0.574000 0.137300 -0.807200
vn -0.261600 0.865400 -0.427300
vn 0.184900 -0.114700 -0.976000
vn -0.134500 0.925400 -0.354400
vn -0.494200 0.773700 -0.396300
vn -0.192100 0.885500 -0.423000
vn 0.328400 -0.917200 -0.225300
vn 0.096800 -0.839600 0.534500
vn 0.083400 0.957600 0.275500
vn 0.286800 0.601300 -0.745800
vn 0.060400 0.812200 -0.580200
vn 0.445100 0.203000 -0.872200
vn 0.756900 -0.295500 -0.582900
vn 0.603000 0.210600 0.769400
vn 0.610900 0.412600 -0.675700
vn 0.384400 0.334300 -0.860500
vn 0.623000 -0.424300 0.657100
vn 0.200600 0.345700 -0.916600
vn 0.083400 0.464500 -0.881600
vn 0.214800 0.709800 -0.670900
vn 0.766200 0.068200 -0.638900
vn 0.448200 -0.479800 -0.754200
vn 0.833700 -0.552100 0.005900
vn 0.931100 0.009400 0.364600
vn 0.791700 0.607700 -0.062300
vn 0.766300 0.405600 -0.498300
vn -0.612000 0.790400 -0.026000
vn -0.528500 0.756200 -0.385900
vn -0.156200 0.689800 -0.706900
vn 0.745500 0.017500 -0.666200
vn -0.734800 -0.554400 -0.390700
vn 0.548000 0.830500 0.099800
usemtl sample
s 1
f 3//1 4//2 5//3
f 1//4 6//5 21//6
f 9//7 1//4 11//8
f 15//9 7//10 14//11
f 10//12 1//4 8//13
f 26//14 6//5 9//7
f 21//6 39//15 14//11
f 15//9 14//11 19//16
f 20//17 26//14 17//18
f 19//16 23//19 22//20
f 6//5 45//21 21//6
f 23//19 14//11 27//22
f 26//14 25//23 36//24
f 30//25 32//26 34//27
f 35//28 28//29 36//24
f 40//30 30//25 31//31
f 28//29 35//28 40//30
f 6//5 26//14 52//32
f 31//31 48//33 47//34
f 46//35 6//5 52//32
f 50//36 39//15 45//21
f 26//14 28//29 51//37
f 51//37 28//29 47//34
f 50//36 45//21 53//38
f 52//32 58//39 55//40
f 51//37 47//34 49//41
f 49//41 48//33 50//36
f 54//42 61//43 60//44
f 52//32 51//37 58//39
f 51//37 56//45 60//44
f 65//46 64//47 62//48
f 56//45 57//49 60//44
f 51//37 59//50 58//39
f 61//43 55//40 58//39
f 62//48 60//44 61//43
f 61//43 59//50 63//51
f 64//47 65//46 67//52
f 14//11 39//15 31//31
f 70//53 71//54 68//55
f 66//56 75//57 72//58
f 76//59 74//60 71//54
f 69//61 71//54 73//62
f 70//53 72//58 76//59
f 66//56 80//63 75//57
f 73//62 71//54 74//60
f 69//61 80//63 66//56
f 79//64 74//60 77//65
f 72//58 75//57 83//66
f 79//64 77//65 85//67
f 72//58 85//67 76//59
f 78//68 73//62 79//64
f 81//69 87//70 83//66
f 76//59 85//67 77//65
f 72//58 83//66 85//67
f 75//57 80//63 81//69
f 80//63 84//71 81//69
f 82//72 79//64 95//73
f 78//68 104//74 84//71
f 87//70 81//69 96//75
f 95//73 79//64 92//76
f 95//73 93//77 82//72
f 83//66 87//70 86//78
f 82//72 93//77 104//74
f 96//75 81//69 84//71
f 103//79 106//80 128//81
f 104//74 90//82 84//71
f 89//83 86//78 91//84
f 86//78 88//85 91//84
f 89//83 98//86 97//87
f 46//35 54//42 57//49
f 94//88 102//89 106//80
f 93//77 116//90 107//91
f 104//74 117//92 101//93
f 100//94 113//95 111//96
f 97//87 111//96 109//97
f 104//74 107//91 117//92
f 102//89 108//98 106//80
f 102//89 112//99 108//98
f 116//90 119//100 107//91
f 108//98 120//101 106//80
f 121//102 131//103 108//98
f 115//104 109//97 114//105
f 116//90 123//106 119//100
f 111//96 122//107 132//108
f 129//109 124//110 125//111
f 113//95 110//112 122//107
f 111//96 113//95 122//107
f 114//105 132//108 139//113
f 117//92 118//114 130//115
f 130//115 131//103 121//102
f 124//110 135//116 125//111
f 108//98 131//103 133//117
f 122//107 110//112 127//118
f 132//108 122//107 127//118
f 125//111 135//116 138//119
f 123//106 139//113 124//110
f 124//110 127//118 136//120
f 138//119 120//101 133//117
f 138//119 135//116 137//121
f 137//121 135//116 136//120
f 144//122 142//123 140//124
f 145//125 141//126 148//127
f 150//128 152//129 146//130
f 143//131 142//123 156//132
f 142//123 144//122 151//133
f 141//126 150//128 146//130
f 151//133 144//122 146//130
f 149//134 143//131 156//132
f 25//23 20//17 18//135
f 149//134 157//136 147//137
f 150//128 18//135 13//138
f 37//139 36//24 153//140
f 12//141 150//128 13//138
f 150//128 12//141 154//142
f 150//128 154//142 152//129
f 152//129 161//143 146//130
f 44//144 38//145 153//140
f 37//139 153//140 38//145
f 41//146 40//30 44//144
f 152//129 154//142 162//147
f 4//2 10//12 8//13
f 32//26 43//148 147//137
f 41//146 155//149 42//150
f 146//130 168//151 158//152
f 146//130 161//143 168//151
f 3//1 162//147 154//142
f 149//134 164//153 157//136
f 149//134 156//132 164//153
f 157//136 159//154 33//155
f 152//129 162//147 161//143
f 160//156 3//1 2//157
f 164//153 156//132 166//158
f 16//159 160//156 7//10
f 162//147 168//151 161//143
f 159//154 24//160 23//19
f 158//152 169//161 151//133
f 163//162 16//159 24//160
f 162//147 163//162 172//163
f 157//136 164//153 165//164
f 162//147 172//163 173//165
f 162//147 173//165 174//166
f 168//151 162//147 174//166
f 175//167 174//166 173//165
f 171//168 173//165 170//169
f 172//163 176//170 173//165
f 2//157 21//6 7//10
f 25//23 26//14 20//17
f 45//21 6//5 46//35
f 39//15 50//36 48//33
f 48//33 49//41 47//34
f 55//40 46//35 52//32
f 26//14 51//37 52//32
f 55//40 54//42 46//35
f 57//49 50//36 53//38
f 49//41 56//45 51//37
f 49//41 50//36 56//45
f 56//45 50//36 57//49
f 61//43 54//42 55//40
f 62//48 59//50 60//44
f 58//39 59//50 61//43
f 62//48 64//47 70//53
f 63//51 70//53 65//46
f 65//46 70//53 67//52
f 70//53 68//55 67//52
f 67//52 69//61 66//56
f 67//52 68//55 69//61
f 68//55 71//54 69//61
f 71//54 70//53 76//59
f 79//64 73//62 74//60
f 77//65 74//60 76//59
f 69//61 73//62 78//68
f 69//61 78//68 80//63
f 82//72 78//68 79//64
f 80//63 78//68 84//71
f 83//66 86//78 85//67
f 89//83 85//67 86//78
f 85//67 97//87 92//76
f 84//71 90//82 96//75
f 87//70 88//85 86//78
f 98//86 89//83 91//84
f 91//84 88//85 94//88
f 92//76 109//97 95//73
f 93//77 95//73 115//104
f 104//74 93//77 107//91
f 101//93 90//82 104//74
f 96//75 90//82 121//102
f 94//88 88//85 102//89
f 88//85 96//75 102//89
f 91//84 94//88 99//171
f 116//90 93//77 115//104
f 97//87 98//86 100//94
f 98//86 99//171 105//172
f 99//171 94//88 106//80
f 98//86 105//172 103//79
f 96//75 112//99 102//89
f 101//93 121//102 90//82
f 96//75 121//102 112//99
f 100//94 111//96 97//87
f 103//79 100//94 98//86
f 95//73 109//97 115//104
f 113//95 100//94 103//79
f 117//92 107//91 118//114
f 107//91 119//100 118//114
f 123//106 115//104 114//105
f 116//90 115//104 123//106
f 103//79 110//112 113//95
f 119//100 123//106 129//109
f 106//80 120//101 134//173
f 106//80 134//173 128//81
f 127//118 110//112 128//81
f 119//100 126//174 118//114
f 101//93 117//92 130//115
f 121//102 101//93 130//115
f 119//100 125//111 126//174
f 136//120 127//118 128//81
f 124//110 129//109 123//106
f 130//115 118//114 126//174
f 133//117 120//101 108//98
f 127//118 124//110 139//113
f 130//115 126//174 131//103
f 134//173 120//101 138//119
f 125//111 133//117 126//174
f 143//131 140//124 142//123
f 148//127 141//126 140//124
f 149//134 140//124 143//131
f 141//126 145//125 150//128
f 141//126 146//130 144//122
f 147//137 140//124 149//134
f 148//127 140//124 147//137
f 142//123 151//133 156//132
f 148//127 36//24 29//175
f 148//127 147//137 155//149
f 151//133 166//158 156//132
f 34//27 159//154 27//22
f 151//133 169//161 166//158
f 168//151 169//161 158//152
f 162//147 160//156 163//162
f 167//176 164//153 166//158
f 166//158 170//169 167//176
f 167//176 170//169 165//164
f 175//167 169//161 168//151
f 165//164 170//169 172//163
f 169//161 171//168 166//158
f 170//169 166//158 171//168
f 170//169 176//170 172//163
f 173//165 171//168 175//167
f 176//170 170//169 173//165
f 21//6 45//21 39//15
f 48//33 31//31 39//15
f 45//21 46//35 53//38
f 63//51 59//50 62//48
f 62//48 70//53 63//51
f 66//56 70//53 64//47
f 70//53 66//56 72//58
f 78//68 82//72 104//74
f 97//87 85//67 89//83
f 92//76 97//87 109//97
f 98//86 91//84 99//171
f 99//171 106//80 105//172
f 103//79 105//172 106//80
f 114//105 109//97 111//96
f 137//121 128//81 134//173
f 136//120 128//81 137//121
f 135//116 124//110 136//120
f 131//103 126//174 133//117
f 151//133 146//130 158//152
f 163//162 165//164 172//163
f 164//153 167//176 165//164
f 171//168 169//161 175//167
f 168//151 174//166 175//167
f 5//3 1//4 2//157
f 21//6 2//157 1//4
f 3//1 154//142 4//2
f 5//3 2//157 3//1
f 9//7 6//5 1//4
f 12//141 13//138 11//8
f 1//4 10//12 11//8
f 11//8 13//138 9//7
f 21//6 14//11 7//10
f 15//9 16//159 7//10
f 17//18 26//14 9//7
f 9//7 18//135 17//18
f 24//160 22//20 23//19
f 19//16 14//11 23//19
f 29//175 36//24 25//23
f 28//29 26//14 36//24
f 34//27 27//22 14//11
f 14//11 30//25 34//27
f 32//26 33//155 34//27
f 30//25 40//30 41//146
f 47//34 40//30 31//31
f 41//146 42//150 30//25
f 43//148 30//25 42//150
f 38//145 40//30 35//28
f 47//34 28//29 40//30
f 35//28 37//139 38//145
f 57//49 54//42 60//44
f 59//50 51//37 60//44
f 61//43 65//46 62//48
f 65//46 61//43 63//51
f 66//56 64//47 67//52
f 30//25 14//11 31//31
f 92//76 79//64 85//67
f 75//57 81//69 83//66
f 88//85 87//70 96//75
f 110//112 103//79 128//81
f 53//38 46//35 57//49
f 112//99 121//102 108//98
f 114//105 111//96 132//108
f 119//100 129//109 125//111
f 123//106 114//105 139//113
f 139//113 132//108 127//118
f 133//117 125//111 138//119
f 134//173 138//119 137//121
f 141//126 144//122 140//124
f 145//125 148//127 29//175
f 29//175 25//23 18//135
f 20//17 17//18 18//135
f 18//135 145//125 29//175
f 9//7 13//138 18//135
f 150//128 145//125 18//135
f 148//127 153//140 36//24
f 37//139 35//28 36//24
f 153//140 148//127 44//144
f 44//144 40//30 38//145
f 44//144 148//127 155//149
f 155//149 41//146 44//144
f 4//2 154//142 12//141
f 1//4 5//3 8//13
f 11//8 10//12 4//2
f 8//13 5//3 4//2
f 4//2 12//141 11//8
f 155//149 147//137 42//150
f 157//136 33//155 147//137
f 32//26 30//25 43//148
f 43//148 42//150 147//137
f 147//137 33//155 32//26
f 34//27 33//155 159//154
f 157//136 165//164 159//154
f 2//157 7//10 160//156
f 160//156 162//147 3//1
f 23//19 27//22 159//154
f 159//154 165//164 163//162
f 163//162 24//160 159//154
f 22//20 24//160 16//159
f 163//162 160//156 16//159
f 16//159 15//9 22//20
f 19//16 22//20 15//9
