# Blender v2.76 (sub 0) OBJ File: 'spines-modeling-2.blend'
# www.blender.org
mtllib spine-2-lr.mtl
o spine-2-lr_Cube.036
v -0.158701 -0.155231 -0.767223
v -0.157718 -0.152611 -0.775450
v -0.177415 -0.223400 -0.847307
v -0.179299 -0.236450 -0.957511
v -0.135507 -0.093837 -0.723983
v -0.225975 -0.272637 -0.942317
v -0.199231 -0.212670 -0.850340
v -0.184782 -0.269488 -1.044016
v -0.121329 -0.109249 -0.715889
v -0.149921 -0.148425 -0.758260
v -0.166764 -0.227646 -1.063073
v -0.249754 -0.250662 -0.985357
v -0.207837 -0.230107 -0.854947
v -0.131439 -0.084646 -0.684167
v -0.219998 -0.274463 -1.039098
v -0.095193 -0.056942 -0.622572
v -0.242051 -0.215564 -1.024836
v -0.198547 -0.207361 -0.996368
v -0.069959 -0.033479 -0.593849
v -0.203168 -0.226158 -1.229628
v -0.058952 -0.011558 -0.474431
v -0.192931 -0.199746 -1.216408
v -0.097508 -0.019504 -0.606040
v -0.070193 0.001847 -0.575452
v -0.230253 -0.213852 -1.174002
v -0.176690 -0.200985 -1.481992
v -0.048482 0.037655 -0.359842
v -0.228850 -0.179830 -1.307584
v -0.195618 -0.239091 -1.534950
v -0.033293 0.022107 -0.484711
v -0.240872 -0.229407 -1.456098
v -0.150485 -0.221851 -1.611439
v -0.249351 -0.195103 -1.469644
v -0.050449 0.012746 -0.350614
v -0.192429 -0.172401 -1.471383
v -0.191002 -0.181959 -1.589914
v 0.010839 0.028799 -0.274448
v -0.192920 -0.220381 -1.610597
v -0.188950 -0.221479 -1.684018
v -0.142223 -0.184595 -1.639721
v 0.016159 0.007975 -0.050982
v -0.039559 0.020048 -0.070768
v -0.168891 -0.169813 -1.716808
v -0.162087 -0.226165 -1.740631
v -0.046258 0.039152 -0.054749
v -0.189931 -0.180039 -1.674690
v -0.290102 -0.243132 -1.854082
v -0.148452 -0.191229 -1.762657
v -0.267695 -0.284907 -1.914510
v -0.274742 -0.198872 -1.800284
v -0.124793 -0.148620 -1.876678
v -0.283344 -0.138834 -1.869091
v -0.219090 -0.105391 -1.906557
v -0.187550 -0.141955 -2.097768
v -0.121903 -0.248139 -1.866025
v -0.171085 -0.278525 -1.872355
v -0.326637 -0.262966 -2.043017
v -0.242068 -0.289727 -2.054031
v -0.339953 -0.165932 -2.020400
v -0.256738 -0.114170 -2.104870
v -0.175077 -0.218050 -2.083345
v -0.301815 -0.117717 -2.053890
v -0.226806 -0.228978 -2.121305
v -0.230727 -0.148936 -2.130855
v -0.287432 -0.143103 -2.130969
v -0.323703 -0.220820 -2.104536
v -0.152562 0.014517 0.048206
v -0.192504 -0.049538 0.084903
v -0.197216 -0.055846 0.167821
v -0.152284 -0.049894 -0.013323
v -0.144742 -0.109486 0.027815
v -0.033585 0.048015 0.219689
v -0.134685 0.009857 -0.046409
v -0.190635 -0.079286 0.174632
v -0.083361 -0.142508 0.022574
v -0.011321 0.016426 0.231775
v -0.101742 -0.009790 -0.082400
v -0.069113 -0.076266 -0.042469
v -0.042277 -0.125655 0.179526
v 0.014996 -0.096235 0.209111
v -0.038784 0.094023 0.130029
v -0.018775 -0.116255 -0.056405
v 0.045258 0.054813 0.197759
v -0.061325 0.078809 0.065885
v 0.023964 -0.047039 -0.051610
v 0.024153 0.133282 0.105526
v -0.001901 -0.145526 0.108070
v 0.018292 0.061692 0.003655
v 0.081925 -0.078139 0.182976
v 0.044756 0.033905 -0.028709
v 0.067634 0.135308 0.064339
v 0.059538 -0.140795 -0.040722
v 0.248570 -0.011131 -0.006540
v 0.099502 0.104389 0.134449
v 0.108003 0.087309 0.024405
v 0.126372 0.110103 0.083575
v 0.261767 0.033449 -0.068060
v 0.169275 -0.081429 -0.058615
v 0.100930 -0.127466 0.145491
v 0.182019 -0.103930 0.008347
v 0.252047 -0.051871 -0.044247
v 0.243056 -0.027243 -0.080463
vn 0.425000 -0.751800 0.504200
vn 0.919600 -0.275500 0.279800
vn -0.013500 0.821900 -0.569400
vn -0.774300 -0.271800 0.571400
vn -0.276800 0.713300 -0.643800
vn 0.888300 -0.458800 -0.016600
vn -0.466600 0.870900 -0.154100
vn 0.976400 0.213400 0.031300
vn 0.597200 -0.799400 -0.065400
vn -0.885100 -0.228100 0.405700
vn -0.976200 -0.202200 0.078500
vn -0.314900 -0.898300 0.306200
vn -0.736500 -0.406400 0.540700
vn 0.979200 0.200400 -0.031300
vn 0.266800 0.954900 0.130300
vn -0.795300 0.606100 0.007100
vn 0.914200 -0.301700 -0.270500
vn -0.265800 -0.777900 0.569300
vn -0.808600 0.576900 -0.115200
vn 0.220800 0.890000 -0.398900
vn -0.371500 -0.916100 -0.150500
vn 0.892600 0.449600 -0.032700
vn -0.443300 0.890100 0.106000
vn 0.402800 -0.914900 -0.023900
vn -0.229300 -0.953400 0.196100
vn -0.787000 -0.614600 -0.052800
vn -0.957400 -0.263600 0.117800
vn 0.695100 0.654700 -0.297000
vn -0.558400 0.829100 -0.026400
vn 0.961100 0.199800 -0.190800
vn -0.695100 -0.717400 -0.046300
vn 0.091600 -0.995400 -0.027600
vn 0.987400 -0.058200 0.146900
vn -0.735700 -0.641300 -0.217600
vn 0.702500 -0.709500 0.056200
vn 0.856900 0.511900 0.059400
vn 0.319700 0.946900 0.035300
vn -0.908900 0.386100 -0.157300
vn -0.576500 0.796100 -0.184000
vn -0.776600 0.590700 0.218800
vn -0.576800 -0.768400 0.277300
vn 0.394400 0.906800 0.149100
vn -0.041900 0.872500 -0.486800
vn 0.383200 0.561100 -0.733700
vn 0.553900 -0.460700 -0.693500
vn 0.290800 -0.949600 0.116500
vn -0.348400 -0.920300 0.177600
vn 0.877600 -0.476700 0.050600
vn 0.839000 0.543100 0.033000
vn 0.973100 0.067300 0.220100
vn -0.683900 0.656000 0.319200
vn -0.877600 0.037700 0.477900
vn 0.046300 0.992900 0.109800
vn 0.121000 -0.927200 -0.354400
vn 0.706900 0.498300 -0.501900
vn 0.806300 -0.315000 -0.500500
vn -0.564300 0.817100 -0.118000
vn 0.012400 0.909800 -0.414800
vn -0.752800 -0.640400 -0.151800
vn -0.810700 -0.462900 0.358300
vn -0.962300 0.271000 0.023100
vn -0.444700 0.371700 -0.814900
vn 0.245700 -0.458500 -0.854000
vn -0.701100 -0.291900 -0.650500
vn 0.307200 0.277700 -0.910200
vn -0.986600 0.009200 -0.162800
vn -0.878900 0.218700 0.423900
vn -0.740000 0.670500 -0.053100
vn -0.633000 -0.686900 -0.356900
vn -0.682600 -0.479400 0.551500
vn -0.769100 -0.296100 -0.566300
vn -0.704900 0.480200 -0.522000
vn -0.444300 0.840800 0.309200
vn -0.448600 0.870300 -0.203200
vn -0.325800 0.017200 -0.945200
vn -0.310500 -0.470200 -0.826100
vn -0.237500 0.604700 0.760200
vn 0.102100 0.085000 0.991100
vn -0.101700 -0.837000 0.537600
vn -0.328100 -0.907300 -0.263000
vn -0.240000 -0.436100 -0.867300
vn 0.074700 0.074500 -0.994400
vn -0.407900 0.850200 -0.332700
vn 0.153200 -0.490900 0.857600
vn 0.579400 -0.140800 0.802800
vn 0.382200 0.451100 0.806400
vn 0.121200 -0.847800 -0.516300
vn 0.881500 -0.004400 0.472100
vn 0.498300 0.618900 0.607100
vn 0.006700 -0.985700 0.168500
vn -0.191300 0.961800 0.195800
vn 0.092900 0.953900 -0.285500
vn 0.488900 -0.730500 0.476700
vn 0.199000 -0.534700 -0.821200
vn 0.577500 0.805100 0.135400
vn 0.596700 -0.801400 0.040100
vn 0.695600 0.517900 -0.497900
vn 0.387800 -0.252800 -0.886400
vn 0.763600 -0.632500 -0.130000
vn -0.452500 -0.449600 -0.770100
vn 0.726800 -0.656600 0.201200
vn 0.067000 0.809600 -0.583100
usemtl sample
s 1
f 10//1 3//2 2//3
f 1//4 5//5 2//3
f 2//3 9//6 10//1
f 7//7 3//2 4//8
f 9//6 2//3 5//5
f 3//2 8//9 4//8
f 10//1 14//10 5//5
f 12//11 6//12 13//13
f 8//9 11//14 4//8
f 13//13 18//15 17//16
f 9//6 19//17 16//18
f 9//6 14//10 10//1
f 9//6 16//18 14//10
f 19//17 9//6 5//5
f 14//10 23//19 5//5
f 19//17 5//5 24//20
f 23//19 24//20 5//5
f 6//12 12//11 15//21
f 11//14 22//22 18//15
f 18//15 22//22 28//23
f 15//21 20//24 8//9
f 19//17 21//25 16//18
f 21//25 23//19 16//18
f 17//16 25//26 20//24
f 24//20 23//19 34//27
f 30//28 24//20 27//29
f 19//17 30//28 37//30
f 20//24 25//26 31//31
f 20//24 29//32 26//33
f 29//32 31//31 38//34
f 32//35 40//36 26//33
f 26//33 40//36 35//37
f 33//38 38//34 31//31
f 35//37 40//36 36//39
f 36//39 46//40 39//41
f 36//39 38//34 33//38
f 32//35 29//32 38//34
f 36//39 40//36 43//42
f 32//35 38//34 39//41
f 37//30 88//43 90//44
f 90//44 41//45 37//30
f 56//46 39//41 49//47
f 55//48 51//49 48//50
f 46//40 52//51 50//52
f 43//42 51//49 53//53
f 58//54 56//46 49//47
f 51//49 54//55 53//53
f 58//54 61//56 55//48
f 62//57 53//53 60//58
f 57//59 47//60 59//61
f 62//57 60//58 65//62
f 54//55 61//56 63//63
f 66//64 57//59 59//61
f 60//58 64//65 65//62
f 66//64 65//62 63//63
f 65//62 64//65 63//63
f 68//66 69//67 67//68
f 71//69 74//70 68//66
f 70//71 68//66 73//72
f 67//68 81//73 84//74
f 70//71 77//75 78//76
f 71//69 70//71 78//76
f 72//77 74//70 76//78
f 72//77 81//73 69//67
f 79//79 74//70 75//80
f 75//80 78//76 82//81
f 41//45 90//44 85//82
f 73//72 84//74 45//83
f 80//84 89//85 83//86
f 82//81 92//87 75//80
f 73//72 45//83 77//75
f 72//77 76//78 83//86
f 93//88 94//89 83//86
f 79//79 75//80 87//90
f 75//80 92//87 87//90
f 84//74 81//73 86//91
f 88//43 84//74 91//92
f 87//90 99//93 80//84
f 80//84 99//93 89//85
f 82//81 98//94 92//87
f 87//90 92//87 99//93
f 89//85 99//93 93//88
f 86//91 94//89 96//95
f 92//87 98//94 100//96
f 90//44 97//97 102//98
f 93//88 99//93 100//96
f 102//98 101//99 100//96
f 101//99 102//98 97//97
f 2//3 7//7 1//4
f 1//4 7//7 13//13
f 2//3 3//2 7//7
f 3//2 13//13 6//12
f 1//4 10//1 5//5
f 8//9 3//2 6//12
f 11//14 18//15 4//8
f 8//9 6//12 15//21
f 13//13 17//16 12//11
f 14//10 16//18 23//19
f 17//16 18//15 28//23
f 8//9 20//24 11//14
f 15//21 12//11 20//24
f 28//23 25//26 17//16
f 11//14 20//24 22//22
f 24//20 30//28 19//17
f 21//25 34//27 23//19
f 22//22 35//37 28//23
f 26//33 22//22 20//24
f 25//26 33//38 31//31
f 29//32 20//24 31//31
f 33//38 28//23 35//37
f 21//25 19//17 37//30
f 37//30 30//28 27//29
f 21//25 37//30 41//45
f 34//27 21//25 41//45
f 29//32 32//35 26//33
f 27//29 34//27 42//100
f 33//38 35//37 36//39
f 34//27 41//45 42//100
f 37//30 27//29 88//43
f 27//29 42//100 45//83
f 32//35 44//101 40//36
f 40//36 44//101 48//50
f 40//36 48//50 43//42
f 39//41 50//52 47//60
f 39//41 47//60 49//47
f 44//101 56//46 55//48
f 48//50 51//49 43//42
f 46//40 43//42 53//53
f 52//51 46//40 53//53
f 50//52 52//51 59//61
f 55//48 61//56 51//49
f 50//52 59//61 47//60
f 1//4 13//13 3//2
f 54//55 51//49 61//56
f 47//60 57//59 49//47
f 53//53 54//55 60//58
f 62//57 59//61 52//51
f 61//56 58//54 63//63
f 59//61 65//62 66//64
f 64//65 60//58 54//55
f 57//59 66//64 58//54
f 63//63 58//54 66//64
f 68//66 70//71 71//69
f 73//72 68//66 67//68
f 77//75 70//71 73//72
f 67//68 69//67 81//73
f 69//67 74//70 72//77
f 71//69 75//80 74//70
f 78//76 75//80 71//69
f 74//70 80//84 76//78
f 80//84 74//70 79//79
f 76//78 80//84 83//86
f 81//73 72//77 83//86
f 81//73 83//86 86//91
f 78//76 77//75 85//82
f 82//81 78//76 85//82
f 89//85 93//88 83//86
f 98//94 85//82 90//44
f 99//93 92//87 100//96
f 86//91 83//86 94//89
f 88//43 91//92 95//102
f 96//95 94//89 93//88
f 95//102 90//44 88//43
f 90//44 95//102 97//97
f 93//88 97//97 96//95
f 98//94 90//44 102//98
f 101//99 93//88 100//96
f 18//15 7//7 4//8
f 7//7 18//15 13//13
f 12//11 17//16 20//24
f 27//29 24//20 34//27
f 35//37 22//22 26//33
f 33//38 25//26 28//23
f 38//34 36//39 39//41
f 46//40 36//39 43//42
f 44//101 32//35 39//41
f 88//43 27//29 45//83
f 39//41 46//40 50//52
f 56//46 44//101 39//41
f 48//50 44//101 55//48
f 62//57 52//51 53//53
f 56//46 58//54 55//48
f 49//47 57//59 58//54
f 59//61 62//57 65//62
f 64//65 54//55 63//63
f 68//66 74//70 69//67
f 73//72 67//68 84//74
f 84//74 88//43 45//83
f 85//82 77//75 41//45
f 77//75 42//100 41//45
f 42//100 77//75 45//83
f 82//81 85//82 98//94
f 91//92 84//74 86//91
f 79//79 87//90 80//84
f 91//92 86//91 96//95
f 95//102 91//92 96//95
f 95//102 96//95 97//97
f 98//94 102//98 100//96
f 93//88 101//99 97//97
f 10//1 1//4 3//2
