# Blender v2.76 (sub 0) OBJ File: 'spines-extraction.blend'
# www.blender.org
mtllib spine16.mtl
o FINAL_Spine16_Cube.136
v -0.061786 -0.268306 -0.006992
v -0.059974 -0.261332 -0.006992
v -0.050952 -0.252996 -0.006992
v -0.013068 -0.248015 -0.006992
v 0.013441 -0.239777 -0.006992
v 0.049850 -0.181002 -0.006992
v 0.085063 -0.182764 -0.006992
v 0.119992 -0.139812 -0.025675
v 0.086804 0.017545 -0.022561
v 0.092338 0.003616 -0.006992
v 0.093164 0.013624 -0.006992
v 0.099568 0.047206 -0.006992
v 0.140061 0.091828 -0.006992
v 0.153365 0.106594 -0.006992
v 0.180654 0.106737 -0.006992
v 0.183482 0.172416 -0.006992
v 0.165359 0.196856 -0.006992
v 0.147960 0.234400 -0.021791
v 0.024522 0.259613 -0.006992
v 0.023315 0.260462 -0.006992
v 0.021417 0.260489 -0.006992
v 0.018182 0.259918 -0.006992
v -0.081486 0.262026 -0.006992
v -0.196108 0.254727 -0.014592
v -0.224560 0.243179 -0.006992
v -0.258706 0.223857 -0.006992
v -0.264096 0.216465 -0.006992
v -0.272336 0.169637 -0.006992
v -0.279708 0.120681 -0.006992
v -0.281451 0.079472 -0.006992
v -0.281816 0.062480 -0.006992
v -0.250095 0.016861 -0.006992
v -0.237447 -0.007448 -0.006992
v -0.229998 -0.036862 -0.006992
v -0.208753 -0.117298 -0.006992
v -0.199441 -0.139438 -0.006992
v -0.194428 -0.158893 -0.006992
v -0.130743 -0.208636 -0.006992
v -0.075110 -0.261720 -0.006992
v -0.073276 -0.267993 -0.006992
v -0.069909 -0.268498 -0.006992
v 0.312520 0.730450 -0.576780
v 0.324349 0.679376 -0.639999
v 0.233074 0.697742 -0.489141
v 0.320288 0.729251 -0.593386
v 0.331224 0.725462 -0.554233
v 0.238100 0.637705 -0.622297
v 0.161647 0.556021 -0.432266
v 0.403027 0.636957 -0.411775
v 0.493735 0.594617 -0.620460
v 0.401690 0.487817 -0.684484
v 0.203073 0.508008 -0.672211
v 0.243660 0.490461 -0.244332
v 0.131404 0.505275 -0.547310
v 0.531154 0.472357 -0.599823
v 0.187791 0.411530 -0.731240
v -0.013926 0.407833 -0.309399
v 0.408746 0.360545 -0.227896
v 0.569479 0.519803 -0.445074
v 0.449633 0.508762 -0.289053
v 0.572681 0.392338 -0.438924
v 0.461373 0.395293 -0.618662
v 0.063972 0.350500 -0.109940
v 0.608385 0.295821 -0.543071
v 0.107709 0.308359 -0.859777
v -0.187794 0.248555 -0.019112
v 0.190205 0.249296 -0.825356
v -0.096403 0.310747 -0.596173
v -0.205134 0.229730 -0.187770
v -0.019581 0.275538 -0.772776
v 0.259179 0.255677 -0.141872
v 0.648317 0.298044 -0.421994
v 0.363891 0.117277 -0.674406
v -0.102639 0.162927 -0.725826
v 0.608714 0.233628 -0.300195
v 0.544945 0.141762 -0.624829
v -0.017799 0.221814 -0.830576
v 0.243959 0.122585 -0.808176
v 0.637456 0.081251 -0.548707
v 0.207988 0.093083 -0.884383
v 0.167434 0.030224 -0.106562
v 0.506996 0.120065 -0.184106
v 0.649958 0.059157 -0.454307
v 0.134356 0.136019 -0.922637
v 0.411311 0.016737 -0.849688
v 0.273253 0.003885 -0.936010
v -0.229140 -0.012599 -0.268487
v 0.585064 -0.056877 -0.469086
v 0.483211 -0.051639 -0.712817
v -0.063373 0.011233 -0.730170
v 0.491107 -0.007243 -0.190231
v 0.403617 -0.125127 -0.291494
v 0.475015 -0.006816 -0.668659
v 0.027874 0.072634 -0.838483
v 0.482564 -0.023164 -0.888712
v 0.140794 -0.186237 -0.905279
v -0.011762 -0.134956 -0.711541
v 0.371497 -0.188397 -0.958612
v 0.515382 -0.107989 -0.865585
v 0.521166 -0.093418 -0.754293
v 0.059159 -0.243741 -0.336543
v 0.411090 -0.118128 -0.567701
v 0.485056 -0.210928 -0.854495
v 0.315235 -0.279362 -0.846459
v 0.024314 -0.226682 -0.551728
v -0.187300 -0.102730 -0.136476
v -0.047205 -0.197163 -0.172834
v 0.306491 -0.194840 -0.266672
v -0.059049 -0.142068 -0.421448
v 0.143363 -0.274311 -0.483537
v -0.067823 -0.262915 -0.011708
vn 0.018900 0.011200 0.999800
vn 0.387600 0.916500 0.098800
vn 0.136300 0.439500 0.887800
vn 0.222500 0.371200 0.901500
vn 0.393700 0.545000 0.740200
vn 0.023900 0.780600 0.624500
vn -0.718300 0.672000 0.180000
vn -0.530400 0.820700 0.212300
vn -0.599100 0.487500 -0.635100
vn 0.411800 0.905000 0.106500
vn 0.349800 0.813000 0.465400
vn -0.012700 0.599800 -0.800000
vn 0.677100 0.519900 -0.520900
vn -0.066700 0.668800 0.740400
vn -0.859300 0.381200 -0.341000
vn 0.304500 -0.132800 -0.943200
vn -0.405000 0.537600 -0.739500
vn 0.495300 0.436400 0.751100
vn 0.902500 0.383200 0.196500
vn 0.796400 -0.137300 -0.589000
vn -0.097400 0.633300 -0.767800
vn -0.552000 0.823100 0.133400
vn 0.434300 0.292200 0.852000
vn -0.158700 0.976700 -0.144200
vn -0.122800 0.965800 -0.228100
vn 0.919000 0.366000 0.146400
vn 0.557700 -0.018400 -0.829900
vn -0.776000 0.575800 -0.257300
vn 0.794500 0.205100 0.571500
vn -0.215600 0.162200 -0.962900
vn -0.565500 0.626000 -0.536900
vn 0.082800 0.805200 0.587200
vn 0.938000 0.329000 0.109300
vn -0.016000 0.444500 0.895600
vn -0.034700 0.447200 0.893700
vn 0.805900 0.219600 -0.549700
vn 0.344900 0.014300 -0.938500
vn -0.731900 0.668200 -0.133100
vn 0.369600 0.289300 0.883000
vn 0.404300 0.230900 0.885000
vn 0.561100 -0.464300 0.685200
vn 0.289600 0.563100 0.774000
vn 0.588000 0.257200 -0.766900
vn -0.502200 0.286500 -0.815900
vn 0.048400 0.947300 0.316700
vn 0.619400 0.093200 0.779500
vn -0.875000 0.059200 -0.480500
vn -0.537100 0.594700 0.598200
vn -0.760600 0.298600 0.576400
vn 0.442800 -0.035900 -0.895900
vn 0.601200 0.480800 -0.638200
vn -0.042100 0.807100 0.588900
vn 0.209500 -0.386000 0.898400
vn 0.861400 -0.103600 -0.497100
vn 0.285700 0.484900 -0.826500
vn -0.324000 0.673100 0.664700
vn 0.204000 -0.420100 0.884200
vn 0.508400 -0.383900 0.770800
vn -0.776000 0.110800 0.620900
vn -0.926700 -0.308500 -0.214500
vn 0.978800 -0.183100 0.091900
vn 0.739300 0.415300 -0.530000
vn 0.093300 0.211200 -0.973000
vn 0.466000 -0.331600 0.820200
vn 0.854900 -0.230800 0.464600
vn 0.372400 -0.318000 0.871800
vn 0.404200 0.891200 -0.205900
vn -0.786400 0.098300 0.609800
vn -0.692000 -0.293600 0.659500
vn -0.614100 -0.370200 0.697000
vn -0.779000 -0.598400 -0.186900
vn 0.704100 -0.709000 -0.038000
vn 0.941800 0.332400 0.050200
vn 0.022800 0.369200 -0.929000
vn -0.593600 -0.073400 -0.801400
vn -0.826300 -0.248300 -0.505400
vn -0.772400 0.035800 0.634100
vn 0.854300 -0.099100 0.510200
vn 0.498600 -0.773800 0.390600
vn 0.646300 0.566600 -0.511200
vn 0.837600 -0.057700 0.543200
vn 0.544700 -0.830900 0.113100
vn -0.481500 -0.488800 -0.727400
vn -0.764900 -0.537500 -0.354800
vn -0.778800 -0.179300 0.601100
vn 0.470700 -0.785300 0.402000
vn 0.968100 0.034400 0.248200
vn 0.186200 -0.366000 -0.911800
vn 0.220300 -0.780400 0.585200
vn -0.348700 -0.927500 -0.134900
vn -0.241500 -0.964500 0.107000
vn 0.276500 -0.652800 0.705300
vn 0.589100 -0.293600 0.752800
vn 0.902000 -0.030500 -0.430600
vn -0.672600 -0.732200 -0.106900
vn 0.714800 -0.664900 -0.216400
vn -0.584000 -0.802700 -0.121000
vn -0.742600 -0.185700 0.643500
vn -0.737100 -0.249100 0.628200
vn 0.251900 -0.775800 0.578500
vn -0.062900 -0.819800 -0.569200
vn 0.567200 -0.671000 0.477500
vn 0.052100 -0.963900 -0.261200
vn 0.026900 -0.998000 0.057200
vn -0.742800 -0.237600 0.625900
vn -0.678600 -0.502000 0.536200
vn -0.521000 -0.635500 0.569800
vn 0.080800 -0.317200 0.944900
vn 0.793500 -0.608600 -0.003100
vn 0.667700 -0.717500 0.198200
vn -0.914100 -0.257400 0.313300
vn -0.647400 -0.728000 0.225800
vn -0.043500 -0.943800 0.327700
usemtl None
s off
f 1//1 2//1 3//1 4//1 5//1 6//1 7//1 8//1 9//1 10//1 11//1 12//1 13//1 14//1 15//1 16//1 17//1 18//1 19//1 20//1 21//1 22//1 23//1 66//1 24//1 25//1 26//1 27//1 28//1 29//1 30//1 31//1 32//1 33//1 34//1 35//1 36//1 37//1 38//1 111//1 39//1 40//1 41//1
f 44//2 46//2 43//2 45//2 42//2
s 1
f 20//3 19//4 71//5 63//6
f 48//7 44//8 47//9
f 46//10 44//8 49//11
f 43//12 46//10 50//13
f 53//14 44//8 48//7
f 54//15 48//7 47//9
f 46//10 49//11 50//13
f 44//8 53//14 49//11
f 51//16 43//12 50//13
f 47//9 43//12 51//16
f 54//15 47//9 52//17
f 53//14 60//18 49//11
f 52//17 47//9 51//16
f 49//11 60//18 59//19
f 55//20 51//16 50//13
f 52//17 51//16 56//21
f 57//22 53//14 48//7
f 57//22 48//7 54//15
f 49//11 59//19 50//13
f 60//18 53//14 58//23
f 55//20 50//13 59//19
f 56//21 51//16 55//20
f 44//8 42//24 45//25 47//9
f 54//15 52//17 57//22
f 71//5 58//23 53//14
f 60//18 61//26 59//19
f 62//27 56//21 55//20
f 53//14 57//22 63//6
f 57//22 52//17 68//28
f 58//23 61//26 60//18
f 63//6 71//5 53//14
f 61//26 55//20 59//19
f 68//28 52//17 56//21
f 71//5 75//29 58//23
f 62//27 55//20 61//26
f 56//21 62//27 65//30
f 68//28 56//21 70//31
f 66//32 57//22 68//28
f 66//32 63//6 57//22
f 72//33 61//26 58//23
f 21//34 63//6 66//32 22//35
f 58//23 75//29 72//33
f 64//36 62//27 61//26
f 70//31 56//21 65//30
f 65//30 62//27 67//37
f 66//32 68//28 69//38
f 17//39 16//40 91//41 18//42
f 61//26 72//33 64//36
f 18//42 71//5 19//4
f 62//27 64//36 73//43
f 73//43 67//37 62//27
f 77//44 68//28 70//31
f 22//35 66//32 23//45
f 71//5 82//46 75//29
f 70//31 65//30 67//37
f 74//47 68//28 77//44
f 68//28 74//47 69//38
f 26//48 69//38 74//47 27//49
f 71//5 18//42 82//46
f 76//50 64//36 72//33
f 64//36 76//50 73//43
f 77//44 70//31 67//37
f 78//51 67//37 73//43
f 24//52 66//32 69//38
f 15//53 91//41 16//40
f 82//46 18//42 91//41
f 79//54 72//33 75//29
f 76//50 72//33 79//54
f 73//43 76//50 79//54
f 78//51 77//44 67//37
f 80//55 78//51 73//43
f 25//56 24//52 69//38 26//48
f 14//57 81//58 91//41 15//53
f 28//59 27//49 74//47 87//60
f 75//29 82//46 83//61
f 83//61 79//54 75//29
f 93//62 73//43 79//54
f 77//44 78//51 84//63
f 80//55 73//43 93//62
f 12//64 9//65 81//58 13//66
f 13//66 81//58 14//57
f 82//46 91//41 83//61
f 84//63 74//47 77//44
f 85//67 80//55 93//62
f 84//63 78//51 80//55
f 28//59 87//60 29//68
f 33//69 32//70 87//60 106//71
f 88//72 83//61 91//41
f 93//62 79//54 88//72
f 85//67 93//62 89//73
f 80//55 85//67 86//74
f 80//55 86//74 94//75
f 90//76 87//60 74//47
f 29//68 87//60 30//77
f 11//78 9//65 12//64
f 92//79 88//72 91//41
f 88//72 79//54 83//61
f 94//75 74//47 84//63
f 85//67 89//73 95//80
f 95//80 86//74 85//67
f 84//63 80//55 94//75
f 90//76 74//47 94//75
f 10//81 9//65 11//78
f 81//58 9//65 92//79
f 81//58 92//79 91//41
f 88//72 92//79 102//82
f 88//72 89//73 93//62
f 94//75 86//74 96//83
f 87//60 90//76 97//84
f 31//85 87//60 32//70
f 108//86 92//79 9//65
f 102//82 89//73 88//72
f 89//73 100//87 95//80
f 98//88 86//74 95//80
f 90//76 94//75 96//83
f 96//83 86//74 98//88
f 97//84 90//76 96//83
f 6//89 107//90 101//91 7//92
f 8//93 108//86 9//65
f 102//82 92//79 108//86
f 95//80 100//87 99//94
f 98//88 95//80 99//94
f 109//95 87//60 97//84
f 7//92 101//91 8//93
f 101//91 108//86 8//93
f 102//82 100//87 89//73
f 103//96 98//88 99//94
f 97//84 96//83 105//97
f 109//95 97//84 105//97
f 34//98 106//71 35//99
f 4//100 111//101 107//90 5//102
f 102//82 103//96 100//87
f 99//94 100//87 103//96
f 98//88 103//96 104//103
f 104//103 96//83 98//88
f 105//97 96//83 104//103
f 109//95 106//71 87//60
f 5//102 107//90 6//89
f 108//86 101//91 110//104
f 110//104 102//82 108//86
f 110//104 103//96 102//82
f 104//103 110//104 105//97
f 101//91 105//97 110//104
f 109//95 105//97 101//91
f 36//105 106//71 37//106
f 37//106 106//71 107//90 38//107
f 107//90 106//71 101//91
f 110//104 104//103 103//96
f 101//91 106//71 109//95
f 3//108 111//101 4//100
f 38//107 107//90 111//101
f 2//109 111//101 3//108
f 1//110 111//101 2//109
f 39//111 111//101 40//112
f 41//113 111//101 1//110
f 40//112 111//101 41//113
f 47//9 45//25 43//12
f 21//34 20//3 63//6
f 30//77 87//60 31//85
f 33//69 106//71 34//98
f 36//105 35//99 106//71
