# Blender v2.76 (sub 0) OBJ File: 'spines-extraction.blend'
# www.blender.org
mtllib spine5.mtl
o FINAL_Spine5_Cube.018
v -0.128165 -0.002347 -0.001218
v -0.131277 -0.005141 -0.001218
v -0.132473 -0.007112 -0.001218
v -0.132809 -0.007911 -0.001218
v -0.132227 -0.008558 -0.001218
v -0.131145 -0.009630 -0.001218
v -0.109080 -0.025397 -0.004351
v -0.118899 -0.019867 -0.001218
v -0.118225 -0.020247 -0.001218
v -0.117592 -0.020659 -0.001218
v -0.114392 -0.022781 -0.001218
v -0.095418 -0.036153 -0.001218
v -0.077241 -0.046707 -0.001218
v -0.073421 -0.048589 -0.001218
v -0.072008 -0.049147 -0.001218
v -0.075016 -0.048258 -0.001429
v -0.050664 -0.057523 -0.001218
v -0.042015 -0.059572 -0.001218
v -0.033832 -0.061170 -0.001218
v -0.028739 -0.059917 -0.001218
v -0.019027 -0.058213 -0.001218
v -0.013681 -0.055380 -0.001218
v -0.003711 -0.051421 -0.001218
v 0.005916 -0.047868 -0.001218
v 0.012607 -0.043862 -0.001218
v 0.021767 -0.041271 -0.001218
v 0.030925 -0.037087 -0.001218
v 0.050255 -0.033715 -0.001218
v 0.052991 -0.033096 -0.001218
v 0.054482 -0.032826 -0.001218
v 0.068644 -0.030631 -0.001218
v 0.082702 -0.030006 -0.001218
v 0.086455 -0.029426 -0.001218
v 0.104442 -0.028152 -0.001218
v 0.108949 -0.027763 -0.001235
v 0.112166 -0.027361 -0.001218
v 0.127044 -0.025229 -0.001218
v 0.130332 -0.024370 -0.001218
v 0.135738 -0.021129 -0.001218
v 0.144084 -0.016253 -0.001218
v 0.145662 -0.010654 -0.001218
v 0.141795 0.011517 -0.001218
v 0.140949 0.014883 -0.001218
v 0.135224 0.027999 -0.001218
v 0.134043 0.031689 -0.001218
v 0.129801 0.042268 -0.001218
v 0.125676 0.052138 -0.001218
v 0.121798 0.060379 -0.001218
v 0.114352 0.068966 -0.001218
v 0.105845 0.074993 -0.001218
v 0.092512 0.078945 -0.001218
v 0.086058 0.079597 -0.001218
v 0.084713 0.079408 -0.001312
v 0.062445 0.079600 -0.001218
v 0.055797 0.079114 -0.001218
v 0.059388 0.083821 -0.005345
v 0.036241 0.077440 -0.001218
v 0.023653 0.074991 -0.001218
v -0.003981 0.066564 -0.001218
v -0.011033 0.063937 -0.001218
v -0.011626 0.063743 -0.001218
v -0.032049 0.053891 -0.001218
v -0.049250 0.044833 -0.001218
v -0.065635 0.035824 -0.001218
v -0.093135 0.019260 -0.001218
v -0.094886 0.018063 -0.001218
v -0.111872 0.007294 -0.001218
v -0.121678 0.002081 -0.001218
v 0.148993 -0.014737 -0.003554
v 0.146070 -0.007203 -0.001367
v 0.141707 0.012315 -0.001312
v 0.091757 -0.029846 -0.213586
v 0.124052 0.025578 -0.076068
v -0.020933 -0.072517 -0.086515
v 0.112396 0.072374 -0.001735
v 0.059952 0.011212 -0.223397
v 0.012846 -0.131410 -0.265146
v 0.170335 -0.060085 -0.552388
v 0.099457 0.065381 -0.079689
v 0.100503 -0.116293 -0.377600
v 0.174413 -0.131583 -0.562929
v -0.000181 0.038881 -0.208523
v 0.149100 -0.026869 -0.612452
v -0.125844 -0.038810 -0.144138
v -0.029787 -0.124608 -0.245622
v 0.139397 -0.255871 -0.478261
v 0.183497 -0.093515 -0.688876
v 0.013160 0.072769 -0.001246
v 0.083013 -0.290149 -0.393072
v -0.035085 0.053183 -0.001267
v -0.054983 0.038767 -0.181994
v -0.130330 -0.011521 -0.133035
v -0.082989 -0.234561 -0.285143
v -0.075924 0.029134 -0.069114
v -0.144595 -0.120306 -0.254719
v 0.168261 -0.062493 -0.766303
v 0.156896 -0.189695 -0.822362
v 0.009149 0.026476 -0.598434
v -0.139050 -0.222559 -0.282838
v 0.188915 -0.218078 -0.712746
v -0.225018 -0.101790 -0.328976
v 0.177859 -0.247440 -0.608275
v 0.066686 -0.013563 -0.765633
v -0.226901 -0.060226 -0.341439
v -0.126791 0.005821 -0.798694
v 0.081002 -0.111525 -0.897340
v 0.046761 -0.186429 -0.928423
v -0.031423 -0.335177 -0.311808
v -0.201270 -0.005975 -0.425681
v -0.229277 0.000714 -0.708457
v -0.275592 -0.250446 -0.326211
v 0.080552 -0.372004 -0.684728
v -0.204859 -0.311797 -0.267648
v -0.145144 -0.349411 -0.271482
v 0.133102 -0.296270 -0.743613
v 0.008215 -0.378772 -0.827640
v -0.036830 -0.055257 -0.886320
v -0.182724 0.031778 -0.659601
v -0.253247 -0.036588 -0.717700
v 0.032946 -0.431902 -0.489267
v -0.143941 -0.083028 -0.900252
v -0.020544 -0.173734 -0.962646
v -0.311167 -0.060291 -0.629338
v -0.405132 -0.276115 -0.403707
v -0.063928 -0.432282 -0.380066
v -0.342916 -0.124946 -0.428641
v -0.235281 -0.083486 -0.826809
v -0.317241 -0.351136 -0.300307
v -0.084966 -0.162537 -0.972395
v -0.102976 -0.275600 -0.916992
v -0.309007 -0.202012 -0.831437
v -0.401656 -0.189187 -0.685081
v -0.239851 -0.374133 -0.283276
v -0.421695 -0.213107 -0.512872
v -0.169899 -0.487599 -0.397205
v -0.468048 -0.318452 -0.475254
v 0.011579 -0.496739 -0.720658
v -0.182246 -0.186689 -0.935300
v -0.416262 -0.356379 -0.392966
v -0.448119 -0.262411 -0.616316
v -0.052411 -0.559012 -0.473885
v -0.330575 -0.315004 -0.814861
v -0.029297 -0.589132 -0.573992
v -0.106897 -0.467561 -0.837725
v -0.431096 -0.296856 -0.684416
v -0.066255 -0.523788 -0.776753
v -0.477466 -0.357390 -0.524995
v -0.114203 -0.591281 -0.478181
v -0.286411 -0.531633 -0.466540
v -0.377780 -0.424753 -0.726119
v -0.216965 -0.390980 -0.853749
v -0.005465 -0.560650 -0.641668
v -0.166652 -0.643444 -0.532622
v -0.117206 -0.660499 -0.588518
v -0.222283 -0.498631 -0.786086
v -0.441757 -0.396617 -0.632757
v -0.337860 -0.522727 -0.607935
v -0.208555 -0.678091 -0.642204
v -0.090211 -0.593667 -0.683612
v -0.182099 -0.576536 -0.731149
v -0.165849 -0.674525 -0.671117
v -0.228181 -0.637796 -0.570695
v -0.269575 -0.553929 -0.678918
v -0.165305 -0.632533 -0.715952
v -0.244631 -0.620515 -0.649235
v -0.214489 -0.637039 -0.717398
vn -0.000400 0.000500 1.000000
vn 0.316000 -0.664000 0.677700
vn 0.218600 -0.692900 0.687100
vn 0.984900 -0.143200 0.096800
vn 0.888600 -0.307000 0.340700
vn 0.902500 0.333900 -0.271800
vn 0.896500 0.273800 0.348200
vn 0.719900 0.168500 0.673300
vn 0.117400 -0.694300 0.710000
vn 0.141900 -0.689300 0.710400
vn 0.258100 -0.430700 0.864800
vn 0.073300 -0.712200 0.698100
vn 0.069500 -0.714200 0.696500
vn 0.249300 -0.047100 0.967300
vn 0.704300 0.290900 0.647500
vn 0.725000 0.266700 0.635000
vn 0.275400 -0.644900 0.712900
vn 0.287100 -0.616800 0.732800
vn 0.077300 -0.978400 0.191600
vn 0.502500 0.814700 -0.289600
vn 0.901100 -0.295400 0.317500
vn 0.916500 -0.375400 0.138100
vn 0.962100 -0.239700 -0.130100
vn 0.979900 -0.019300 0.198300
vn 0.225200 -0.673600 0.703900
vn 0.136100 -0.692100 0.708800
vn 0.338400 0.085400 0.937100
vn 0.796000 -0.409500 0.445800
vn 0.928300 0.349300 0.127400
vn 0.593200 0.788500 -0.162600
vn 0.232100 -0.663600 0.711200
vn 0.231400 -0.608400 0.759100
vn 0.703800 0.289300 0.648800
vn 0.699400 0.314600 0.641700
vn 0.274400 -0.603000 0.749000
vn 0.507300 0.674400 0.536400
vn 0.652900 0.416600 0.632600
vn 0.691800 0.395600 0.604000
vn 0.135100 -0.638900 0.757300
vn 0.227500 -0.647600 0.727200
vn 0.120900 0.981200 -0.150300
vn 0.160600 0.770200 0.617200
vn 0.184600 0.736200 0.651100
vn 0.184700 0.734900 0.652500
vn 0.975700 0.214500 -0.043700
vn -0.025100 0.942500 0.333300
vn -0.216000 -0.665100 0.714800
vn -0.145500 -0.661400 0.735800
vn 0.097800 0.985100 0.141200
vn -0.006800 0.382900 0.923700
vn 0.644000 0.764200 -0.034000
vn -0.370800 -0.760700 0.532800
vn -0.731400 -0.557400 0.392800
vn -0.000500 -0.745400 0.666600
vn 0.487100 -0.647800 0.585600
vn 0.780100 0.525200 -0.340000
vn -0.299600 0.953800 -0.022200
vn 0.196100 0.977500 -0.076900
vn -0.363700 -0.534200 0.763100
vn -0.379600 -0.552300 0.742200
vn -0.591100 -0.805400 -0.045000
vn -0.253000 0.692900 0.675200
vn -0.206000 0.713900 0.669200
vn -0.111900 0.550500 0.827300
vn -0.321200 0.894500 0.310800
vn -0.327600 0.892100 0.311200
vn -0.784400 0.459000 0.417100
vn -0.668700 0.013000 0.743400
vn -0.890000 0.424600 0.165800
vn -0.119000 -0.295800 0.947800
vn -0.117300 -0.296400 0.947800
vn -0.254500 0.697300 0.670000
vn -0.267300 0.701700 0.660400
vn -0.427000 -0.653000 0.625400
vn -0.441400 -0.658200 0.609900
vn 0.236200 -0.206500 0.949500
vn 0.743200 -0.343200 0.574400
vn -0.532300 0.846200 -0.022800
vn 0.297200 0.897600 -0.325400
vn -0.359000 -0.626700 0.691600
vn -0.354900 0.617200 0.702100
vn -0.355600 0.620600 0.698800
vn -0.348200 -0.616300 0.706300
vn -0.461900 -0.543400 0.700900
vn 0.497600 -0.314000 0.808500
vn -0.135100 -0.026900 0.990400
vn 0.171500 -0.340700 0.924300
vn -0.404800 0.600900 0.689200
vn -0.396900 0.602200 0.692600
vn -0.153800 0.893400 -0.422000
vn -0.515700 -0.490400 0.702500
vn -0.791300 -0.124600 0.598600
vn -0.310200 0.610900 -0.728400
vn 0.115100 0.746200 -0.655700
vn 0.515700 0.428600 -0.741800
vn -0.073100 0.118200 -0.990300
vn 0.834100 -0.172000 -0.524000
vn -0.372300 0.633200 0.678500
vn -0.652600 0.334200 0.680000
vn -0.561900 0.813200 0.151300
vn 0.765300 -0.576700 -0.286000
vn -0.379500 0.633000 0.674700
vn -0.575500 0.480300 0.661900
vn -0.453500 0.580800 0.676000
vn -0.281000 0.957600 -0.063200
vn -0.567600 0.755700 -0.326600
vn 0.513500 -0.217000 -0.830100
vn -0.432500 -0.515600 0.739600
vn -0.675400 0.616800 -0.404100
vn 0.830600 -0.544300 -0.117500
vn -0.708900 0.702900 -0.057800
vn -0.599400 0.590800 -0.540000
vn 0.761600 -0.626600 -0.165300
vn 0.750600 -0.530300 -0.394100
vn 0.598100 -0.505200 -0.622200
vn 0.803500 -0.496400 0.328700
vn 0.271000 -0.045800 -0.961500
vn -0.448500 0.292200 0.844700
vn -0.745400 0.582500 0.324000
vn 0.435700 -0.589100 0.680500
vn -0.717600 0.324400 0.616200
vn -0.511000 -0.151400 0.846100
vn -0.458300 0.051200 -0.887300
vn -0.712400 0.246400 -0.657100
vn -0.168400 0.118100 0.978600
vn -0.163700 -0.477000 0.863500
vn -0.016800 -0.397100 -0.917600
vn -0.841900 0.507200 0.184300
vn 0.023300 -0.669200 0.742700
vn 0.153700 -0.713600 0.683500
vn 0.533100 -0.608400 0.587900
vn -0.837500 0.450000 -0.309700
vn -0.937000 0.135500 0.321900
vn -0.752100 -0.273100 0.599800
vn 0.733300 -0.660900 0.159700
vn -0.942100 0.294900 -0.159600
vn -0.658300 -0.159800 -0.735600
vn 0.370200 -0.688700 -0.623500
vn 0.105900 -0.549700 -0.828600
vn -0.339200 -0.391300 -0.855400
vn 0.467200 -0.710500 -0.526200
vn -0.136000 -0.477000 -0.868300
vn -0.886800 0.039000 -0.460400
vn -0.491500 -0.716500 0.494900
vn -0.962100 -0.263500 0.070300
vn -0.702500 -0.448400 -0.552700
vn 0.097900 -0.700700 0.706700
vn 0.076600 -0.707700 0.702400
vn -0.876000 -0.394400 -0.277600
vn -0.069700 -0.836800 0.542900
vn 0.404700 -0.905900 0.124200
vn -0.622700 -0.723500 0.297800
vn -0.723700 -0.688000 -0.053800
vn -0.379600 -0.582600 -0.718600
vn -0.664400 -0.425900 -0.614100
vn -0.794500 -0.603600 -0.066300
vn 0.250800 -0.897900 -0.361800
vn -0.429200 -0.902900 -0.023600
vn 0.316000 -0.465600 -0.826600
vn -0.429900 -0.498900 -0.752500
vn 0.081100 -0.709600 0.699900
vn 0.720200 0.260400 0.643000
vn 0.002300 -0.704200 0.710000
vn -0.026900 0.365400 0.930400
vn 0.051700 -0.703700 0.708500
vn 0.954300 -0.267300 0.133600
vn -0.192400 0.978300 0.076900
usemtl None
s off
f 1//1 2//1 3//1 4//1 5//1 6//1 7//1 8//1 9//1 10//1 11//1 12//1 13//1 14//1 15//1 16//1 17//1 18//1 19//1 20//1 21//1 22//1 23//1 24//1 25//1 26//1 27//1 28//1 29//1 30//1 31//1 32//1 33//1 34//1 35//1 36//1 37//1 38//1 39//1 69//1 40//1 41//1 70//1 71//1 42//1 43//1 44//1 45//1 46//1 47//1 48//1 49//1 75//1 50//1 51//1 52//1 53//1 54//1 55//1 56//1 57//1 58//1 88//1 59//1 60//1 61//1 62//1 90//1 63//1 64//1 65//1 66//1 67//1 68//1
s 1
f 38//2 37//3 72//4 69//5
f 69//5 73//6 71//7 70//8
f 30//9 29//10 72//4
f 38//2 69//5 39//11
f 31//12 72//4 32//13
f 30//9 72//4 31//12
f 40//14 69//5 70//8
f 43//15 71//7 73//6 44//16
f 72//4 25//17 24//18 74//19
f 73//6 72//4 79//20
f 86//21 102//22 100//23 81//24
f 27//25 72//4 28//26
f 42//27 71//7 43//15
f 72//4 74//19 80//28
f 72//4 78//29 76//30
f 25//17 72//4 26//31
f 23//32 74//19 24//18
f 80//28 81//24 72//4
f 46//33 73//6 47//34
f 22//35 74//19 23//32
f 79//20 75//36 49//37 48//38 73//6
f 47//34 73//6 48//38
f 20//39 74//19 21//40
f 82//41 79//20 76//30
f 79//20 53//42 51//43 50//44 75//36
f 78//29 81//24 87//45
f 56//46 53//42 79//20
f 17//47 74//19 18//48
f 51//43 53//42 52//49
f 53//42 56//46 54//50
f 82//41 76//30 83//51
f 16//52 74//19 17//47
f 84//53 85//54 74//19
f 80//28 77//55 86//21
f 78//29 87//45 96//56 83//51
f 56//46 82//41 91//57
f 82//41 83//51 98//58
f 84//53 16//52 13//59 12//60 7//61
f 91//57 61//62 60//63 56//46
f 57//64 56//46 88//65
f 59//66 88//65 56//46 60//63
f 104//67 101//68 84//53 92//69
f 14//70 16//52 15//71
f 87//45 81//24 100//23
f 82//41 98//58 91//57
f 61//62 91//57 62//72
f 13//59 16//52 14//70
f 62//72 91//57 90//73
f 10//74 7//61 11//75
f 92//69 84//53 7//61
f 93//76 77//55 85//54
f 77//55 93//76 89//77
f 91//57 94//78 90//73
f 103//79 83//51 96//56
f 9//80 7//61 10//74
f 63//81 94//78 64//82
f 8//83 7//61 9//80
f 6//84 92//69 7//61
f 108//85 93//76 99//86 114//87
f 91//57 92//69 66//88 65//89 94//78
f 64//82 94//78 65//89
f 103//79 105//90 98//58
f 5//91 92//69 6//84
f 4//92 92//69 5//91
f 121//93 117//94 106//95 129//96
f 96//56 97//97 106//95
f 66//88 92//69 67//98
f 3//99 92//69 4//92
f 92//69 109//100 104//67
f 102//22 115//101 100//23
f 67//98 92//69 68//102
f 91//57 109//100 92//69
f 2//103 92//69 3//99
f 68//102 92//69 1//104
f 91//57 118//105 109//100
f 118//105 105//90 110//106
f 1//104 92//69 2//103
f 97//97 107//107 106//95
f 95//108 101//68 99//86
f 110//106 105//90 119//109
f 105//90 117//94 121//93
f 102//22 112//110 115//101
f 110//106 123//111 118//105
f 119//109 105//90 127//112
f 152//113 137//114 112//110
f 115//101 112//110 116//115
f 120//116 89//77 108//85
f 122//117 129//96 106//95
f 122//117 106//95 107//107
f 111//118 101//68 104//67
f 126//119 109//100 118//105 123//111
f 108//85 125//120 120//116
f 111//118 124//121 128//122
f 127//112 121//93 138//123 131//124
f 113//125 133//126 114//87
f 122//117 107//107 130//127
f 104//67 126//119 134//128 124//121
f 125//120 135//129 148//130 141//131
f 132//132 127//112 131//124
f 124//121 136//133 139//134
f 114//87 133//126 135//129
f 152//113 120//116 143//135
f 125//120 114//87 135//129
f 141//131 143//135 120//116
f 134//128 140//136 136//133
f 131//124 138//123 142//137
f 116//115 137//114 146//138
f 130//127 144//139 151//140
f 144//139 146//138 159//141 160//142
f 145//143 140//136 132//132
f 139//134 149//144 128//122
f 146//138 152//113 159//141
f 147//145 136//133 140//136
f 145//143 142//137 150//146
f 36//147 35//148 72//4 37//3
f 145//143 150//146 156//149
f 147//145 145//143 156//149
f 148//130 153//150 154//151
f 135//129 149//144 153//150
f 154//151 159//141 152//113
f 153//150 149//144 162//152
f 157//153 147//145 156//149
f 150//146 155//154 163//155
f 149//144 165//156 162//152
f 159//141 154//151 161//157
f 153//150 158//158 154//151
f 164//159 166//160 160//142
f 150//146 157//153 156//149
f 165//156 158//158 162//152
f 157//153 166//160 165//156
f 158//158 166//160 161//157
f 164//159 161//157 166//160
f 32//13 72//4 33//161
f 73//6 69//5 72//4
f 28//26 72//4 29//10
f 45//162 44//16 73//6
f 76//30 79//20 72//4
f 27//25 26//31 72//4
f 22//35 21//40 74//19
f 76//30 78//29 83//51
f 77//55 74//19 85//54
f 18//48 74//19 19//163
f 81//24 80//28 86//21
f 82//41 56//46 79//20
f 16//52 84//53 74//19
f 54//50 56//46 55//164
f 11//75 7//61 12//60
f 103//79 98//58 83//51
f 84//53 95//108 85//54
f 77//55 89//77 86//21
f 63//81 90//73 94//78
f 85//54 95//108 93//76
f 87//45 100//23 97//97
f 96//56 87//45 97//97
f 93//76 95//108 99//86
f 91//57 98//58 118//105
f 89//77 93//76 108//85
f 84//53 101//68 95//108
f 114//87 99//86 113//125
f 97//97 100//23 115//101
f 96//56 106//95 103//79
f 103//79 117//94 105//90
f 86//21 112//110 102//22
f 117//94 103//79 106//95
f 34//165 33//161 72//4 35//148
f 99//86 101//68 111//118
f 99//86 111//118 113//125
f 89//77 120//116 86//21
f 86//21 120//116 112//110
f 128//122 113//125 111//118
f 115//101 116//115 97//97
f 104//67 109//100 126//119
f 124//121 111//118 104//67
f 120//116 152//113 112//110
f 107//107 97//97 116//115
f 132//132 119//109 127//112
f 125//120 108//85 114//87
f 129//96 122//117 130//127
f 119//109 132//132 123//111
f 112//110 137//114 116//115
f 134//128 123//111 132//132
f 141//131 120//116 125//120
f 123//111 134//128 126//119
f 128//122 124//121 139//134
f 134//128 132//132 140//136
f 124//121 134//128 136//133
f 144//139 107//107 116//115
f 132//132 131//124 145//143
f 144//139 116//115 146//138
f 138//123 130//127 151//140
f 145//143 131//124 142//137
f 146//138 137//114 152//113
f 133//126 128//122 149//144
f 147//145 140//136 145//143
f 154//151 141//131 148//130
f 133//126 149//144 135//129
f 139//134 147//145 149//144
f 141//131 154//151 143//135
f 153//150 148//130 135//129
f 150//146 142//137 151//140
f 147//145 157//153 149//144
f 154//151 152//113 143//135
f 150//146 151//140 155//154
f 159//141 164//159 160//142
f 163//155 155//154 160//142
f 149//144 157//153 165//156
f 164//159 159//141 161//157
f 154//151 158//158 161//157
f 166//160 163//155 160//142
f 150//146 163//155 157//153
f 157//153 163//155 166//160
f 158//158 165//156 166//160
f 41//166 40//14 70//8
f 46//33 45//162 73//6
f 81//24 78//29 72//4
f 74//19 77//55 80//28
f 19//163 74//19 20//39
f 58//167 57//64 88//65
f 98//58 105//90 118//105
f 110//106 119//109 123//111
f 105//90 121//93 127//112
f 113//125 128//122 133//126
f 138//123 121//93 129//96
f 144//139 130//127 107//107
f 129//96 130//127 138//123
f 138//123 151//140 142//137
f 147//145 139//134 136//133
f 155//154 151//140 144//139
f 144//139 160//142 155//154
f 158//158 153//150 162//152
