# Blender v2.76 (sub 0) OBJ File: 'spines-extraction.blend'
# www.blender.org
mtllib spine6.mtl
o FINAL_Spine6_Cube.127
v -0.178113 0.010292 -0.003198
v -0.180554 -0.049415 -0.003198
v -0.150144 -0.092923 -0.003198
v -0.067594 -0.111621 -0.003198
v 0.062739 -0.090511 -0.003198
v 0.119038 -0.048857 -0.003198
v 0.143139 -0.022204 -0.005339
v 0.158369 0.012516 -0.003198
v 0.163167 0.047248 -0.008464
v 0.139568 0.080604 -0.003198
v 0.116884 0.095475 -0.010418
v 0.085395 0.101438 -0.003198
v 0.080045 0.101486 -0.003198
v -0.005484 0.080078 -0.003198
v -0.109206 0.053871 -0.003198
v -0.127974 0.046180 -0.003198
v -0.109770 0.045881 -0.110990
v -0.177476 0.015903 -0.007632
v -0.134110 0.047490 -0.005222
v -0.157867 -0.022471 -0.103323
v 0.074983 0.097547 -0.010634
v -0.116664 0.017258 -0.215322
v -0.126104 -0.041883 -0.127986
v 0.058049 0.157782 -0.174809
v -0.149288 -0.096766 -0.007821
v -0.004006 0.107794 -0.128170
v -0.105656 0.083263 -0.197664
v 0.136860 0.133475 -0.186786
v -0.058441 -0.047373 -0.183271
v 0.044812 -0.099987 -0.004779
v -0.062631 -0.112629 -0.003507
v -0.045084 -0.037297 -0.373479
v -0.100896 -0.020185 -0.279864
v -0.070571 0.278683 -0.306470
v 0.163754 0.073818 -0.194645
v -0.160869 0.037837 -0.384171
v 0.062417 -0.042317 -0.196517
v 0.045400 0.329169 -0.359559
v -0.160732 0.256756 -0.326746
v -0.200292 0.191863 -0.358909
v 0.169661 0.057363 -0.500289
v 0.112094 -0.014238 -0.389384
v -0.221285 0.279476 -0.451057
v 0.156553 0.298081 -0.384227
v 0.070452 -0.035706 -0.413403
v -0.172727 0.041387 -0.564620
v -0.089738 0.427124 -0.482322
v -0.244617 0.179767 -0.554133
v 0.177008 0.261068 -0.550551
v -0.000879 -0.015065 -0.576291
v -0.137986 0.029218 -0.666608
v 0.041224 0.420693 -0.528659
v -0.225617 0.361108 -0.622123
v -0.193689 0.097612 -0.669848
v -0.161476 0.440253 -0.550016
v 0.105096 0.250753 -0.668450
v 0.095286 0.036147 -0.678396
v 0.102113 0.366218 -0.597535
v -0.064175 0.448409 -0.576291
v 0.111175 0.091698 -0.747080
v 0.072389 0.135572 -0.777533
v 0.023440 0.090355 -0.791975
v -0.130516 0.093987 -0.733923
v -0.021577 0.419576 -0.670950
v -0.170304 0.408353 -0.680640
v 0.009987 0.238964 -0.742380
v 0.001511 0.135595 -0.794977
v 0.001511 0.135595 -0.798832
v -0.046006 0.158465 -0.792110
v -0.048770 0.372396 -0.739668
vn -0.000200 0.007300 1.000000
vn -0.769800 0.560600 0.305300
vn -0.355000 0.744200 0.565800
vn -0.662100 0.749400 0.004500
vn -0.920100 -0.115700 -0.374200
vn -0.790600 0.385000 0.476200
vn -0.958400 -0.284200 0.023600
vn 0.040800 0.869100 0.493000
vn 0.373700 0.666400 0.645100
vn -0.037400 0.856800 0.514200
vn -0.394300 0.777500 0.489900
vn -0.172100 0.717200 0.675200
vn -0.178800 0.701900 0.689400
vn -0.798200 -0.236700 0.554000
vn 0.068400 0.826700 0.558500
vn 0.662100 0.645200 0.381100
vn -0.097400 0.241200 0.965600
vn -0.599700 -0.687000 -0.410300
vn -0.392400 -0.895100 0.211600
vn -0.615300 -0.786800 -0.049100
vn -0.269500 -0.935200 -0.229500
vn 0.194000 -0.814400 0.546900
vn -0.014800 -0.819000 0.573600
vn -0.919500 0.009600 0.392900
vn -0.808900 -0.580300 0.094500
vn -0.100400 -0.446400 0.889200
vn 0.262700 -0.956500 -0.126900
vn 0.656300 -0.752800 -0.050000
vn 0.621100 -0.497900 0.605100
vn -0.589200 0.514100 0.623300
vn 0.790700 0.132700 0.597600
vn 0.675600 0.622900 0.394400
vn -0.252400 -0.963800 -0.085900
vn -0.162000 0.711200 0.684000
vn 0.998200 -0.030400 0.051700
vn 0.754500 0.569000 0.327100
vn 0.152600 0.790200 0.593500
vn 0.897900 -0.304300 0.318100
vn -0.720900 -0.691800 -0.041100
vn 0.269600 -0.956300 -0.113300
vn -0.146800 0.860300 0.488100
vn 0.604900 -0.775400 0.181100
vn -0.882300 0.336700 0.328800
vn 0.900600 -0.418700 -0.116600
vn 0.947100 0.255200 -0.194500
vn -0.986600 -0.156900 -0.044400
vn -0.466000 0.863800 0.191500
vn 0.412200 0.901800 0.129700
vn 0.073200 0.996400 -0.042500
vn -0.437900 -0.799000 -0.412000
vn 0.013900 -0.966200 -0.257500
vn -0.914200 0.319500 -0.249500
vn 0.441500 -0.816900 -0.371000
vn -0.834300 -0.321800 -0.447500
vn -0.513300 0.622600 -0.590600
vn -0.543900 -0.310400 -0.779600
vn 0.731200 -0.305200 -0.610100
vn 0.711400 0.347600 -0.610700
vn 0.714400 0.619900 -0.324600
vn 0.519800 0.204500 -0.829400
vn 0.085000 -0.534700 -0.840700
vn -0.236100 0.000300 -0.971700
vn 0.301200 0.840500 -0.450300
vn 0.456900 0.345800 -0.819500
vn 0.128400 0.500500 -0.856200
vn -0.035400 -0.064600 -0.997300
vn -0.191400 -0.085400 -0.977800
vn -0.252000 0.321900 0.912600
usemtl None
s off
f 1//1 18//1 2//1 25//1 3//1 4//1 31//1 30//1 5//1 6//1 7//1 8//1 9//1 10//1 11//1 12//1 13//1 21//1 14//1 15//1 16//1 19//1
s 1
f 18//2 19//3 17//4
f 20//5 18//2 17//4
f 20//5 17//4 27//6 22//7
f 13//8 12//8 11//9 21//10
f 21//10 26//11 17//4
f 26//11 27//6 17//4
f 14//12 19//3 15//13
f 18//2 20//5 2//14
f 21//10 24//15 26//11
f 28//16 24//15 21//10 11//9
f 15//13 19//3 16//17
f 23//18 20//5 22//7
f 25//19 20//5 23//18
f 2//14 20//5 25//19
f 23//18 22//7 33//20 29//21
f 25//19 29//21 30//22 31//23
f 25//19 23//18 29//21
f 27//6 40//24 22//7
f 22//7 36//25 33//20
f 3//26 25//19 31//23 4//26
f 30//22 37//27 42//28 7//29
f 39//30 27//6 26//11
f 40//24 27//6 39//30
f 9//31 11//9 10//32
f 28//16 11//9 9//31
f 33//20 32//33 29//21
f 36//25 22//7 40//24
f 24//15 34//34 26//11
f 34//34 39//30 26//11
f 35//35 28//16 9//31
f 33//20 36//25 32//33
f 44//36 24//15 28//16
f 24//15 38//37 34//34
f 7//29 9//31 8//38
f 7//29 35//35 9//31
f 28//16 35//35 44//36
f 36//25 46//39 32//33
f 29//21 45//40 37//27
f 34//34 38//37 47//41 39//30
f 44//36 38//37 24//15
f 5//42 30//22 7//29 6//42
f 39//30 43//43 40//24
f 39//30 47//41 43//43
f 35//35 7//29 42//28
f 42//28 41//44 35//35
f 35//35 41//44 49//45
f 36//25 48//46 46//39
f 48//46 36//25 40//24
f 55//47 47//41 52//48 59//49
f 42//28 37//27 45//40
f 40//24 43//43 48//46
f 44//36 35//35 49//45
f 51//50 32//33 46//39
f 32//33 50//51 45//40
f 38//37 44//36 52//48
f 47//41 38//37 52//48
f 43//43 53//52 48//46
f 43//43 47//41 55//47
f 57//53 45//40 50//51
f 54//54 46//39 48//46
f 51//50 46//39 54//54
f 48//46 53//52 54//54
f 53//52 65//55 63//56 54//54
f 42//28 57//53 41//44
f 60//57 49//45 41//44
f 56//58 58//59 49//45
f 42//28 45//40 57//53
f 51//50 57//53 50//51
f 54//54 63//56 51//50
f 58//59 52//48 44//36
f 49//45 58//59 44//36
f 60//57 61//60 49//45
f 61//60 56//58 49//45
f 57//53 51//50 62//61
f 51//50 63//56 69//62 62//61
f 52//48 64//63 59//49
f 21//10 17//4 19//3 14//12
f 57//53 60//57 41//44
f 56//58 61//60 66//64
f 56//58 70//65 58//59
f 55//47 59//49 64//63 65//55
f 63//56 65//55 69//62
f 58//59 64//63 52//48
f 65//55 53//52 55//47
f 62//61 61//60 60//57
f 67//66 66//64 61//60
f 70//65 56//58 66//64
f 64//63 58//59 70//65
f 57//53 62//61 60//57
f 68//67 61//60 62//61
f 67//66 61//60 68//67
f 67//66 68//67 66//64
f 66//64 69//62 70//65
f 69//62 67//66 62//61
f 66//64 68//67 69//62
f 69//62 68//67 67//66
f 1//68 19//3 18//2
f 30//22 29//21 37//27
f 29//21 32//33 45//40
f 53//52 43//43 55//47
f 32//33 51//50 50//51
f 68//67 62//61 67//66
f 69//62 65//55 70//65
f 65//55 64//63 70//65
