# Blender v2.76 (sub 0) OBJ File: 'spines-extraction.blend'
# www.blender.org
mtllib spine9.mtl
o FINAL_Spine9_Cube.014
v -0.185595 0.050133 -0.632620
v -0.210032 0.159783 -0.679289
v -0.031465 0.152504 -0.698758
v -0.247880 0.029670 -0.474354
v -0.050118 0.009642 -0.599430
v -0.061477 0.214491 -0.699059
v -0.153166 -0.044147 -0.497716
v -0.244213 0.144586 -0.507195
v 0.016510 0.069574 -0.553800
v 0.003629 0.169763 -0.598187
v -0.182088 0.224264 -0.641934
v -0.161474 -0.134792 -0.378174
v -0.160727 0.134241 -0.421757
v -0.185590 0.206447 -0.528333
v -0.047030 -0.038117 -0.462125
v -0.088520 0.226601 -0.579658
v -0.207405 -0.065637 -0.346093
v -0.219770 0.052421 -0.324099
v 0.038159 0.049310 -0.379292
v -0.046032 0.128565 -0.457527
v -0.049098 -0.135441 -0.366276
v -0.108862 -0.059795 -0.182225
v -0.159272 0.142478 -0.198672
v 0.033625 -0.056829 -0.375907
v -0.193734 0.022191 -0.185449
v 0.067061 -0.005390 -0.184933
v -0.048944 0.163583 -0.223072
v -0.003436 -0.079394 -0.162965
v -0.109502 0.055774 -0.109171
v 0.051319 0.117724 -0.156974
v -0.083320 -0.063270 -0.072529
v -0.031648 0.138412 -0.122720
v 0.143034 -0.050063 -0.110712
v -0.004206 -0.180878 0.000195
v -0.161764 -0.078278 0.000201
v -0.151158 0.109218 0.000119
v 0.136807 0.075099 -0.086449
v 0.054177 0.147306 -0.000003
v -0.099639 0.181196 0.000296
v 0.173845 -0.007135 0.000333
v 0.115201 -0.140747 -0.000174
v 0.137275 0.071223 -0.000157
vn -0.454700 -0.599000 -0.659100
vn -0.688200 0.093100 -0.719500
vn 0.541900 -0.104600 -0.833800
vn -0.976900 -0.203400 -0.065700
vn 0.372700 -0.738700 -0.561600
vn 0.287400 0.649100 -0.704300
vn -0.241600 -0.825600 -0.510000
vn -0.887800 0.389400 0.245000
vn 0.976600 -0.159600 -0.143800
vn 0.880300 0.473600 0.026500
vn -0.521000 0.817200 -0.246400
vn -0.388100 -0.911900 -0.133400
vn -0.377500 0.871100 0.314100
vn -0.370600 0.866800 0.333400
vn 0.500400 -0.709200 -0.496600
vn 0.243700 0.938400 0.244900
vn -0.866900 -0.461200 0.189100
vn -0.961400 0.246300 0.122400
vn 0.935300 0.254200 -0.246000
vn 0.508100 0.836500 0.205100
vn 0.291200 -0.935600 -0.199400
vn -0.517700 -0.768000 0.376800
vn -0.594000 0.737800 0.320600
vn 0.829200 -0.429500 -0.357700
vn -0.834200 -0.164500 0.526400
vn 0.872300 -0.223800 -0.434600
vn 0.165000 0.985700 -0.033300
vn 0.164400 -0.961900 -0.218200
vn -0.969000 0.201400 0.143200
vn 0.631500 0.730000 -0.261200
vn -0.658700 -0.624100 -0.420200
vn -0.097800 0.995200 0.007000
vn 0.763100 -0.353700 -0.540800
vn -0.120400 -0.913100 0.389600
vn -0.810900 -0.472800 0.344700
vn -0.823800 0.346500 0.448600
vn 0.807500 0.479400 -0.343600
vn 0.327500 0.733600 0.595400
vn -0.405300 0.818200 0.407700
vn 0.827600 -0.005000 0.561200
vn 0.514700 -0.739500 0.433800
vn 0.598800 0.434400 0.672800
usemtl None
s 1
f 1//1 2//2 3//3
f 1//1 4//4 2//2
f 3//3 5//5 1//1
f 3//3 2//2 6//6
f 1//1 7//7 4//4
f 4//4 8//8 2//2
f 5//5 3//3 9//9
f 7//7 1//1 5//5
f 10//10 3//3 6//6
f 6//6 2//2 11//11
f 7//7 12//12 4//4
f 13//13 8//8 4//4
f 2//2 8//8 14//14
f 15//15 5//5 9//9
f 9//9 3//3 10//10
f 5//5 15//15 7//7
f 16//16 10//10 6//6
f 6//6 11//11 16//16
f 11//11 2//2 14//14
f 12//12 7//7 15//15
f 12//12 17//17 4//4
f 13//13 14//14 8//8
f 4//4 18//18 13//13
f 19//19 15//15 9//9
f 10//10 20//20 9//9
f 10//10 16//16 20//20
f 14//14 16//16 11//11
f 12//12 15//15 21//21
f 22//22 17//17 12//12
f 17//17 18//18 4//4
f 14//14 13//13 20//20
f 13//13 18//18 23//23
f 24//24 15//15 19//19
f 19//19 9//9 20//20
f 14//14 20//20 16//16
f 12//12 21//21 22//22
f 21//21 15//15 24//24
f 25//25 17//17 22//22
f 17//17 25//25 18//18
f 13//13 23//23 20//20
f 18//18 25//25 23//23
f 24//24 19//19 26//26
f 27//27 19//19 20//20
f 21//21 28//28 22//22
f 26//26 21//21 24//24
f 25//25 22//22 29//29
f 20//20 23//23 27//27
f 25//25 29//29 23//23
f 26//26 19//19 30//30
f 30//30 19//19 27//27
f 28//28 21//21 26//26
f 22//22 28//28 31//31
f 22//22 31//31 29//29
f 23//23 32//32 27//27
f 23//23 29//29 32//32
f 33//33 26//26 30//30
f 32//32 30//30 27//27
f 26//26 33//33 28//28
f 28//28 34//34 31//31
f 31//31 35//35 29//29
f 29//29 36//36 32//32
f 33//33 30//30 37//37
f 38//38 30//30 32//32
f 28//28 33//33 34//34
f 31//31 34//34 35//35
f 35//35 36//36 29//29
f 32//32 36//36 39//39
f 40//40 33//33 37//37
f 30//30 38//38 37//37
f 39//39 38//38 32//32
f 34//34 33//33 41//41
f 40//40 41//41 33//33
f 42//42 40//40 37//37
f 37//37 38//38 42//42
f 34//34 41//41 40//40 42//42 38//38 39//39 36//36 35//35
