# Blender v2.76 (sub 0) OBJ File: 'spines-extraction.blend'
# www.blender.org
mtllib spine13.mtl
o FINAL_Spine13_Cube.134
v 0.179775 -0.061143 -0.000779
v 0.172535 -0.040135 -0.000779
v 0.164838 -0.013261 -0.000779
v 0.168369 0.007755 -0.000779
v 0.132512 0.042703 -0.000779
v 0.052653 0.094604 -0.000779
v -0.062546 0.124366 -0.000779
v -0.109074 0.132177 -0.000779
v -0.162056 0.110760 -0.000779
v -0.193960 0.098975 -0.000779
v -0.235111 0.073852 -0.000779
v -0.219520 0.015726 -0.000779
v -0.223587 0.001545 -0.000779
v -0.223605 -0.006363 -0.000779
v -0.205262 -0.021734 -0.000779
v -0.096741 -0.092362 -0.000779
v 0.004047 -0.107262 -0.000779
v 0.068489 -0.109473 -0.000779
v 0.107991 -0.103207 -0.000779
v 0.152537 -0.086267 -0.000779
v 0.140409 0.000523 -0.025259
v 0.016831 0.066724 -0.034585
v 0.164359 -0.038598 -0.010026
v 0.059536 -0.006360 -0.117561
v 0.142020 -0.068142 -0.049350
v 0.145874 -0.036094 -0.035129
v 0.107784 -0.028041 -0.115644
v -0.003342 0.027315 -0.088913
v -0.080109 0.059531 -0.052486
v 0.138823 -0.039056 -0.057871
v 0.103150 -0.056055 -0.193265
v 0.128595 -0.053622 -0.123497
v -0.006165 -0.015161 -0.145720
v -0.171326 0.096764 -0.007061
v 0.081656 -0.099443 -0.031030
v 0.062114 -0.047998 -0.209217
v -0.171493 0.041420 -0.028710
v 0.098155 -0.100480 -0.173450
v 0.118251 -0.100503 -0.315064
v 0.139816 -0.105672 -0.269317
v 0.038383 -0.044241 -0.207699
v -0.092290 0.019714 -0.078095
v -0.028039 -0.080217 -0.075652
v 0.127428 -0.081944 -0.153676
v 0.061173 -0.073195 -0.259520
v -0.104658 -0.012808 -0.078317
v 0.079368 -0.119525 -0.279342
v 0.112540 -0.120392 -0.368065
v 0.179878 -0.147375 -0.415674
v 0.014208 -0.069689 -0.200113
v -0.179318 0.009505 -0.029622
v 0.147543 -0.146053 -0.355758
v 0.157984 -0.159176 -0.466197
v 0.091839 -0.121552 -0.346361
v 0.196184 -0.160361 -0.418961
v 0.156682 -0.196782 -0.513800
v 0.130406 -0.149866 -0.429928
v 0.209107 -0.187173 -0.538137
v 0.217704 -0.172874 -0.475156
v 0.199175 -0.187195 -0.476993
v 0.165892 -0.213430 -0.635696
v 0.226998 -0.196131 -0.526649
v 0.221294 -0.224883 -0.575177
v 0.215758 -0.237844 -0.683892
v 0.220160 -0.285257 -0.680244
v 0.130909 -0.240428 -0.670886
v 0.078858 -0.258800 -0.807837
v 0.142864 -0.292288 -0.682564
v 0.162419 -0.273369 -0.879822
v 0.223518 -0.280726 -0.797077
v 0.206258 -0.349765 -0.709524
v 0.061657 -0.288663 -0.863574
v 0.204556 -0.358260 -0.802481
v 0.167214 -0.349501 -0.691842
v 0.073902 -0.296858 -0.755036
v 0.148104 -0.301624 -0.898818
v 0.105547 -0.335880 -0.733499
v 0.155754 -0.367428 -0.731695
v 0.118044 -0.361705 -0.824417
v 0.373224 0.015892 -0.517393
v 0.372998 0.015096 -0.517368
v 0.372411 0.014899 -0.516295
v 0.373398 0.015167 -0.516333
v 0.374113 0.015560 -0.517571
v 0.372263 0.013939 -0.515937
v 0.372611 0.014084 -0.515299
v 0.373526 0.014200 -0.516291
vn -0.000000 0.000000 1.000000
vn 0.916000 0.288600 0.278800
vn 0.637400 0.458900 -0.618900
vn 0.559400 0.763400 0.322900
vn 0.980100 0.122700 0.156200
vn 0.215800 0.695000 -0.685800
vn 0.413700 0.855200 0.312200
vn 0.868300 0.279000 0.410200
vn 0.759700 0.232700 -0.607200
vn 0.278500 0.843100 -0.460000
vn 0.171000 0.931000 0.322500
vn 0.919000 -0.164000 0.358500
vn 0.815200 -0.485400 -0.316000
vn 0.871800 0.183800 -0.454000
vn 0.522800 0.764700 -0.376500
vn 0.092500 0.791500 -0.604100
vn -0.127300 0.617200 -0.776400
vn -0.136000 0.957000 0.256100
vn 0.452500 -0.733100 0.507600
vn 0.971700 0.089100 -0.218800
vn 0.458400 0.838400 -0.294700
vn 0.887200 0.396500 -0.235900
vn -0.222600 0.718300 -0.659100
vn -0.220200 0.439000 -0.871000
vn -0.356200 0.898300 0.257200
vn 0.249300 -0.800800 0.544500
vn 0.142100 -0.969600 -0.199200
vn 0.183700 0.903000 -0.388300
vn -0.406100 0.236200 -0.882700
vn -0.474200 0.854500 0.212000
vn 0.030500 -0.821800 0.568900
vn 0.198400 -0.966900 0.160400
vn 0.290900 0.917800 -0.270200
vn 0.985200 0.122000 0.120100
vn -0.055500 0.879800 -0.472200
vn -0.430200 0.407300 -0.805600
vn -0.911200 0.387100 0.140900
vn -0.062200 -0.816900 0.573400
vn -0.365300 -0.884000 -0.291700
vn 0.815100 -0.569800 0.104300
vn -0.340600 0.774300 -0.533300
vn -0.577900 -0.189900 -0.793700
vn -0.969400 0.100700 -0.223900
vn -0.376800 -0.800100 0.466700
vn -0.439400 -0.897000 0.046500
vn -0.267100 0.852300 -0.449700
vn 0.414300 0.894300 -0.169200
vn -0.840500 -0.125000 -0.527100
vn -0.541900 0.088000 -0.835700
vn -0.956000 0.114800 0.270000
vn -0.574300 -0.714000 0.400400
vn 0.141600 -0.921400 0.361900
vn -0.187300 0.889300 -0.417100
vn -0.900400 0.096900 -0.424200
vn 0.894800 -0.103200 0.434400
vn -0.909400 -0.334300 0.247400
vn -0.794300 -0.577300 0.188800
vn -0.559500 0.655900 -0.506600
vn 0.337000 0.898300 -0.281900
vn 0.932600 0.329400 0.147300
vn 0.206800 -0.904800 0.372300
vn -0.180000 0.952600 -0.245100
vn 0.991500 0.001000 0.130100
vn 0.704000 -0.651000 0.283700
vn 0.719700 0.663400 -0.204600
vn 0.809900 -0.418500 0.411000
vn -0.938400 0.250600 0.238000
vn -0.587400 0.808700 -0.030200
vn -0.542900 -0.439300 0.715700
vn 0.388200 0.644700 -0.658500
vn 0.903900 0.297700 -0.307100
vn 0.644000 -0.622700 0.444400
vn -0.822900 0.117600 -0.555800
vn 0.647700 -0.703100 -0.293600
vn -0.010600 -0.543500 0.839300
vn -0.914800 0.047800 0.401000
vn 0.146300 -0.130700 -0.980600
vn -0.703000 -0.564700 0.432200
vn -0.148200 -0.960500 0.235600
vn -0.361700 -0.886800 -0.287400
vn -0.258500 0.892000 -0.370700
vn -0.466000 -0.303900 -0.831000
vn -0.832600 0.535200 0.142600
vn 0.408600 0.584900 0.700700
vn 0.803300 0.270400 -0.530600
vn -0.733000 -0.680100 -0.013800
vn -0.126300 -0.290600 0.948500
vn 0.734000 -0.677300 0.049400
usemtl None
s off
f 1//1 2//1 3//1 4//1 5//1 6//1 7//1 8//1 9//1 10//1 11//1 12//1 13//1 14//1 15//1 16//1 17//1 18//1 19//1 20//1
s 1
f 4//2 21//3 5//4
f 3//5 21//3 4//2
f 5//4 21//3 22//6 6//7
f 2//8 23//9 21//3 3//5
f 24//10 22//6 21//3
f 6//7 22//6 7//11
f 1//12 25//13 23//9 2//8
f 26//14 21//3 23//9
f 24//10 21//3 27//15
f 28//16 22//6 24//10
f 7//11 22//6 29//17 8//18
f 20//19 25//13 1//12
f 23//9 25//13 26//14
f 21//3 26//14 30//20
f 24//10 27//15 31//21
f 21//3 32//22 27//15
f 33//23 28//16 24//10
f 28//16 29//17 22//6
f 8//18 29//17 34//24 9//25
f 19//26 35//27 25//13 20//19
f 30//20 26//14 25//13
f 21//3 30//20 32//22
f 31//21 36//28 24//10
f 27//15 32//22 31//21
f 33//23 24//10 36//28
f 33//23 29//17 28//16
f 37//29 34//24 29//17
f 9//25 34//24 10//30
f 18//31 35//27 19//26
f 25//13 35//27 38//32
f 30//20 25//13 32//22
f 36//28 31//21 39//33
f 31//21 32//22 40//34
f 33//23 36//28 41//35
f 42//36 29//17 33//23
f 29//17 42//36 37//29
f 10//30 34//24 37//29 11//37
f 17//38 43//39 35//27 18//31
f 38//32 44//40 25//13
f 43//39 38//32 35//27
f 44//40 32//22 25//13
f 36//28 39//33 45//41
f 31//21 40//34 39//33
f 32//22 44//40 40//34
f 33//23 41//35 45//41
f 41//35 36//28 45//41
f 42//36 33//23 46//42
f 37//29 42//36 46//42
f 11//37 37//29 12//43
f 16//44 43//39 17//38
f 38//32 40//34 44//40
f 38//32 43//39 47//45
f 48//46 45//41 39//33
f 39//33 40//34 49//47
f 50//48 33//23 45//41
f 33//23 50//48 46//42
f 37//29 46//42 51//49
f 12//43 37//29 51//49 13//50
f 15//51 43//39 16//44
f 38//32 52//52 40//34
f 52//52 38//32 47//45
f 50//48 47//45 43//39
f 48//46 39//33 53//53
f 54//54 45//41 48//46
f 49//47 53//53 39//33
f 49//47 40//34 55//55
f 45//41 54//54 50//48
f 46//42 50//48 43//39
f 13//50 51//49 46//42 14//56
f 14//56 46//42 43//39 15//51
f 52//52 55//55 40//34
f 52//52 47//45 56//57
f 54//54 47//45 50//48
f 48//46 53//53 57//58
f 48//46 57//58 54//54
f 49//47 58//59 53//53
f 59//60 49//47 55//55
f 55//55 52//52 60//61
f 56//57 60//61 52//52
f 56//57 47//45 54//54
f 56//57 57//58 53//53
f 54//54 57//58 56//57
f 49//47 59//60 58//59
f 58//59 61//62 53//53
f 62//63 59//60 55//55
f 60//61 62//63 55//55
f 63//64 60//61 56//57
f 53//53 61//62 56//57
f 58//59 59//60 62//63
f 61//62 58//59 64//65
f 63//64 62//63 60//61
f 63//64 56//57 65//66
f 61//62 66//67 56//57
f 62//63 64//65 58//59
f 64//65 67//68 61//62
f 62//63 63//64 64//65
f 63//64 65//66 64//65
f 65//66 56//57 68//69
f 61//62 67//68 66//67
f 68//69 56//57 66//67
f 69//70 67//68 64//65
f 65//66 70//71 64//65
f 71//72 65//66 68//69
f 66//67 67//68 68//69
f 69//70 64//65 70//71
f 72//73 67//68 69//70
f 70//71 65//66 73//74
f 74//75 71//72 68//69
f 73//74 65//66 71//72
f 68//69 67//68 75//76
f 69//70 70//71 76//77
f 76//77 72//73 69//70
f 72//73 75//76 67//68
f 70//71 73//74 76//77
f 77//78 74//75 68//69
f 78//79 71//72 74//75
f 71//72 78//79 73//74
f 75//76 77//78 68//69
f 76//77 79//80 72//73
f 77//78 75//76 72//73
f 76//77 73//74 79//80
f 77//78 78//79 74//75
f 73//74 78//79 79//80
f 72//73 79//80 77//78
f 79//80 78//79 77//78
f 80//81 81//82 82//83
f 83//84 80//81 82//83
f 84//85 81//82 80//81
f 82//83 81//82 85//86
f 83//84 82//83 86//87
f 80//81 83//84 84//85
f 81//82 84//85 87//88
f 86//87 82//83 85//86
f 85//86 81//82 87//88
f 86//87 87//88 83//84
f 84//85 83//84 87//88
f 87//88 86//87 85//86
