# Blender v2.76 (sub 0) OBJ File: 'spines-extraction.blend'
# www.blender.org
mtllib spine7.mtl
o FINAL_Spine7_Cube.006
v -0.007554 0.145903 -0.005587
v -0.037780 0.141656 -0.005587
v -0.058870 0.135415 -0.005587
v -0.092150 0.122893 -0.006605
v -0.094197 0.121669 -0.005587
v -0.105087 0.114933 -0.005579
v -0.111098 0.110620 -0.005587
v -0.119360 0.103635 -0.005587
v -0.129727 0.092716 -0.005587
v -0.145865 0.074435 -0.005587
v -0.155862 0.063891 -0.005587
v -0.189822 0.027342 -0.005587
v -0.193191 0.022862 -0.005587
v -0.194817 0.019661 -0.005587
v -0.207494 -0.011419 -0.005587
v -0.209665 -0.018248 -0.005587
v -0.208315 -0.030199 -0.005587
v -0.211564 -0.050943 -0.008489
v -0.208696 -0.039649 -0.005587
v -0.203729 -0.048193 -0.005587
v -0.201192 -0.052681 -0.005587
v -0.196290 -0.058395 -0.005587
v -0.199623 -0.055904 -0.005715
v -0.184188 -0.072998 -0.005587
v -0.183863 -0.073310 -0.005587
v -0.180164 -0.085201 -0.007408
v -0.138884 -0.102518 -0.005587
v -0.137844 -0.103807 -0.005642
v -0.132662 -0.104280 -0.005587
v -0.042286 -0.114868 -0.008564
v -0.125407 -0.104635 -0.005587
v -0.072222 -0.110935 -0.005587
v -0.039914 -0.114407 -0.005587
v -0.033522 -0.115380 -0.005596
v -0.017885 -0.115353 -0.005587
v -0.007883 -0.118595 -0.006034
v 0.001942 -0.119026 -0.005587
v 0.027552 -0.122886 -0.005587
v 0.054387 -0.126473 -0.005587
v 0.071208 -0.128804 -0.005587
v 0.084141 -0.129299 -0.005587
v 0.093421 -0.131666 -0.006135
v 0.110768 -0.130387 -0.005587
v 0.123454 -0.129942 -0.005587
v 0.136240 -0.129284 -0.005894
v 0.157015 -0.122796 -0.005587
v 0.172936 -0.118950 -0.005587
v 0.176874 -0.116956 -0.005587
v 0.183380 -0.121515 -0.013654
v 0.193795 -0.108579 -0.005587
v 0.216877 -0.096584 -0.005587
v 0.221375 -0.092327 -0.005587
v 0.225827 -0.089265 -0.005587
v 0.229816 -0.082883 -0.005587
v 0.237401 -0.074069 -0.005587
v 0.251064 -0.057065 -0.014197
v 0.245977 -0.055424 -0.005587
v 0.246670 -0.052788 -0.005587
v 0.246847 -0.045459 -0.005587
v 0.247766 -0.038810 -0.005587
v 0.248554 -0.030113 -0.005587
v 0.245226 -0.018698 -0.005587
v 0.241531 -0.002383 -0.005638
v 0.237021 0.005788 -0.005587
v 0.239654 0.034763 -0.005587
v 0.240662 0.038222 -0.005748
v 0.240728 0.039556 -0.005587
v 0.234673 0.064477 -0.005587
v 0.234283 0.064991 -0.005587
v 0.233526 0.066268 -0.005587
v 0.223120 0.083654 -0.005587
v 0.217661 0.099500 -0.005587
v 0.216035 0.103794 -0.005587
v 0.210669 0.112028 -0.005587
v 0.205868 0.117806 -0.005587
v 0.199826 0.122778 -0.005587
v 0.181704 0.132131 -0.005587
v 0.151730 0.141025 -0.007884
v 0.172332 0.135335 -0.005587
v 0.158413 0.138699 -0.005587
v 0.148676 0.140618 -0.005587
v 0.141367 0.141800 -0.005587
v 0.131989 0.142883 -0.005587
v 0.123376 0.143486 -0.005587
v 0.109255 0.144307 -0.005587
v 0.087671 0.141794 -0.005587
v 0.083249 0.140946 -0.005587
v 0.063064 0.138724 -0.005587
v 0.059923 0.139821 -0.005587
v 0.047343 0.140953 -0.005587
v 0.035810 0.144244 -0.005587
v 0.030152 0.145532 -0.005587
v 0.020373 0.144982 -0.005587
v -0.002920 0.146559 -0.005587
v 0.234413 0.064718 -0.005663
v 0.227657 0.075932 -0.007117
v 0.119833 0.014755 -0.195751
v 0.234246 0.017500 -0.011891
v 0.206682 0.120504 -0.008739
v 0.203695 0.120293 -0.005671
v 0.103752 0.141627 -0.014738
v 0.243175 -0.081171 -0.136365
v 0.107594 0.144375 -0.005757
v -0.020220 0.143536 -0.009435
v 0.028172 0.094376 -0.107691
v 0.233818 -0.082865 -0.006974
v -0.058767 -0.198860 -0.711264
v 0.039779 0.143635 -0.006552
v 0.227697 -0.094888 -0.011052
v 0.152903 -0.173116 -0.280381
v 0.152535 -0.159573 -0.356710
v 0.080239 -0.176399 -0.111548
v -0.019331 -0.102493 -0.484873
v -0.068954 0.132733 -0.005592
v -0.171943 0.050277 -0.008552
v 0.099231 -0.322034 -0.415373
v 0.104604 -0.296318 -0.486720
v 0.060221 -0.286510 -0.279369
v -0.019641 -0.287475 -0.721617
v -0.166114 -0.185213 -0.722193
v -0.171610 0.050475 -0.005721
v -0.053460 -0.302639 -0.253177
v -0.140267 -0.314510 -0.877975
v -0.340234 -0.163963 -0.289194
v -0.078743 -0.111105 -0.005692
v -0.210466 -0.329437 -0.278483
v -0.289333 -0.119179 -0.397936
v -0.222592 -0.043185 -0.008571
v -0.258643 -0.285402 -0.839139
v -0.292978 -0.186996 -0.638705
v -0.425699 -0.341494 -0.521871
v -0.004134 -0.428097 -0.334249
v -0.087767 -0.427770 -0.899289
v 0.062222 -0.504885 -0.885707
v -0.382880 -0.244651 -0.616180
v 0.125670 -0.400020 -0.515711
v -0.315436 -0.296856 -0.813997
v -0.005871 -0.420191 -0.848139
v -0.206833 -0.389976 -0.897623
v -0.387362 -0.315094 -0.710902
v 0.072850 -0.410718 -0.393051
v -0.293003 -0.337655 -0.341425
v 0.123339 -0.590272 -0.782956
v -0.057930 -0.542462 -0.963780
v -0.446081 -0.490533 -0.540551
v -0.095020 -0.560974 -0.447836
v -0.273895 -0.439679 -0.894622
v -0.154672 -0.484996 -0.359612
v -0.437609 -0.461840 -0.616826
v -0.392317 -0.480839 -0.447146
v 0.088947 -0.561420 -0.596453
v 0.073588 -0.700207 -0.836110
v -0.061441 -0.627262 -0.527399
v -0.157386 -0.616177 -0.953674
v 0.037315 -0.628406 -0.949082
v 0.103205 -0.606701 -0.884326
v -0.317412 -0.566898 -0.821589
v -0.394974 -0.542022 -0.658982
v -0.179539 -0.676171 -0.556326
v -0.305181 -0.656317 -0.644882
v -0.309513 -0.663013 -0.750674
v -0.098347 -0.718932 -0.914386
v -0.316226 -0.541961 -0.538807
v -0.125980 -0.729596 -0.651684
v -0.201794 -0.718826 -0.853757
v -0.003936 -0.735193 -0.754975
v 0.003190 -0.722616 -0.891864
v -0.218710 -0.736306 -0.741212
v -0.115078 -0.753984 -0.824651
vn 0.001500 -0.000500 1.000000
vn 0.858100 0.237200 0.455400
vn 0.746200 0.375000 -0.550100
vn 0.718400 0.543900 0.433500
vn 0.855400 0.202600 0.476600
vn 0.900100 0.048100 0.433100
vn 0.487000 0.711600 -0.506300
vn 0.076800 0.868700 -0.489300
vn 0.046700 0.921500 -0.385400
vn 0.684300 0.728400 -0.033500
vn 0.839500 0.449000 -0.305900
vn 0.768200 0.344900 0.539300
vn 0.849800 0.335200 0.406800
vn 0.463500 0.310900 0.829700
vn 0.736000 0.213600 0.642400
vn 0.964100 0.198600 0.176000
vn 0.459600 0.251200 0.851800
vn 0.960600 -0.063100 -0.270600
vn 0.936300 -0.130000 0.326100
vn 0.624400 -0.403700 0.668700
vn 0.646700 -0.646200 0.405300
vn 0.748600 0.122000 0.651700
vn 0.732700 0.140500 0.665900
vn 0.207100 0.914200 -0.348400
vn 0.500100 -0.049300 0.864500
vn 0.528600 -0.060300 0.846700
vn 0.483100 -0.053700 0.873900
vn 0.141100 0.579800 0.802500
vn 0.138600 0.580600 0.802300
vn -0.007100 0.833400 0.552600
vn 0.049700 0.808800 0.586000
vn 0.050000 0.808900 0.585800
vn 0.095500 0.557800 0.824400
vn 0.076500 0.635900 0.767900
vn 0.064800 0.396600 0.915600
vn 0.017800 0.893100 0.449500
vn 0.056900 0.390700 0.918800
vn 0.056700 0.772900 0.631900
vn 0.474700 0.684200 -0.553600
vn -0.020900 0.921000 -0.389000
vn -0.144200 0.802000 0.579700
vn 0.460600 -0.230800 0.857100
vn 0.274500 -0.291300 0.916400
vn 0.251200 -0.268900 0.929800
vn -0.152300 0.800700 0.579400
vn 0.625200 0.372000 0.686100
vn 0.744000 -0.668100 0.007400
vn 0.341400 -0.782200 0.521200
vn 0.084800 0.240200 0.967000
vn 0.164600 -0.102700 0.981000
vn 0.027600 -0.553700 0.832200
vn 0.030400 -0.554400 0.831700
vn 0.250100 -0.886100 0.390200
vn 0.098300 -0.592000 0.799900
vn -0.157700 0.925900 -0.343200
vn 0.022000 0.874800 0.484000
vn 0.026500 0.855400 0.517300
vn 0.133600 0.582500 0.801700
vn 0.210900 -0.383500 0.899100
vn -0.067900 -0.546000 0.835000
vn -0.070300 -0.544100 0.836000
vn -0.014700 -0.584600 0.811200
vn 0.746600 0.434600 -0.503700
vn 0.950200 0.043000 -0.308600
vn -0.495700 0.794000 -0.351700
vn -0.312900 0.906000 0.285000
vn 0.065000 0.929300 0.363400
vn 0.618400 -0.603700 0.503100
vn 0.952600 -0.203200 0.226400
vn 0.966400 0.128100 -0.222900
vn -0.104400 0.750600 0.652400
vn -0.243900 0.871100 0.426200
vn 0.144800 -0.472100 0.869600
vn 0.188200 -0.370300 0.909600
vn 0.125500 -0.426000 0.896000
vn -0.221900 0.837000 0.500100
vn -0.377700 0.612000 0.694800
vn -0.616400 0.760900 0.203000
vn -0.693100 0.717600 -0.067600
vn -0.623500 0.758000 0.191400
vn -0.513300 0.831400 -0.212700
vn -0.064900 -0.561200 0.825100
vn -0.073100 -0.551700 0.830800
vn -0.056900 -0.872600 0.485000
vn -0.057800 0.880000 -0.471400
vn 0.180100 0.529700 -0.828800
vn -0.399600 0.857400 -0.324100
vn 0.112500 -0.675100 0.729100
vn 0.545100 0.582800 -0.602600
vn -0.174800 0.317900 -0.931800
vn -0.603000 0.489500 -0.629900
vn -0.257100 0.628400 -0.734200
vn -0.004300 -0.132900 0.991100
vn -0.078200 -0.547000 0.833400
vn -0.048500 -0.535900 0.842900
vn -0.326900 0.314100 0.891300
vn -0.529400 0.463800 0.710300
vn -0.931700 0.301600 0.202100
vn -0.696300 -0.001400 0.717700
vn -0.580200 0.312900 0.751900
vn -0.575900 0.310800 0.756200
vn 0.000500 -0.069300 0.997600
vn -0.051400 -0.548800 0.834300
vn -0.115300 -0.848500 0.516400
vn -0.115000 -0.833800 0.539900
vn -0.250800 -0.606200 0.754700
vn -0.148700 -0.089000 0.984900
vn -0.146900 -0.086500 0.985300
vn -0.198100 -0.147200 0.969100
vn -0.222700 -0.184800 0.957200
vn -0.038600 -0.418700 0.907300
vn 0.348000 -0.619100 0.704000
vn 0.745700 -0.460500 0.481500
vn -0.307300 -0.379400 0.872700
vn -0.662300 -0.314400 0.680000
vn -0.142400 -0.435300 0.888900
vn 0.286400 0.454800 -0.843200
vn -0.264300 0.076000 0.961400
vn -0.082200 -0.022900 0.996300
vn 0.875700 -0.076300 -0.476700
vn 0.993900 -0.036600 0.103600
vn 0.990100 -0.139600 -0.016300
vn -0.045700 -0.058800 0.997200
vn -0.112400 -0.675500 0.728800
vn -0.794800 0.570000 -0.208100
vn 0.657100 0.467900 -0.591000
vn -0.146300 -0.085700 0.985500
vn -0.089800 -0.068000 0.993600
vn -0.096000 -0.073800 0.992600
vn -0.052600 -0.046000 0.997500
vn -0.872200 0.281000 -0.400400
vn 0.126400 0.237900 -0.963000
vn -0.354600 -0.226500 -0.907100
vn -0.516200 -0.711000 -0.477500
vn -0.764700 -0.597900 -0.240200
vn -0.795400 -0.230400 -0.560500
vn 0.754100 -0.538200 0.376300
vn -0.576300 0.111100 -0.809700
vn 0.071900 -0.722900 0.687200
vn -0.966200 0.185600 0.179100
vn -0.623800 -0.486800 0.611400
vn -0.961600 -0.056900 -0.268300
vn 0.346400 -0.732800 0.585700
vn -0.872300 -0.439300 0.214700
vn 0.713400 -0.691500 -0.113000
vn 0.450000 -0.192700 -0.871900
vn 0.392900 -0.892900 0.219800
vn -0.851500 -0.518800 -0.076500
vn -0.413800 -0.766300 0.491400
vn -0.199700 -0.757700 0.621300
vn 0.337700 -0.806500 -0.485300
vn -0.107300 -0.706400 -0.699600
vn 0.055600 -0.925400 0.374900
vn -0.391800 -0.918300 0.056400
vn -0.630500 -0.701300 0.332600
vn -0.054300 -0.988500 -0.140900
vn 0.695800 -0.204600 0.688400
vn 0.306600 0.845100 0.437900
vn 0.471000 -0.123900 0.873300
vn 0.243500 -0.256700 0.935300
vn -0.254200 0.224900 0.940600
vn -0.256800 0.227800 0.939200
vn -0.840200 0.427100 0.334000
vn -0.262400 0.083400 0.961300
vn 0.340400 0.289700 0.894500
vn 0.320200 0.399200 0.859100
vn 0.272900 0.413400 0.868700
usemtl None
s off
f 1//1 2//1 3//1 114//1 4//1 5//1 6//1 7//1 8//1 115//1 9//1 10//1 11//1 121//1 12//1 13//1 14//1 128//1 15//1 16//1 17//1 18//1 19//1 20//1 21//1 22//1 23//1 24//1 25//1 26//1 27//1 28//1 29//1 30//1 31//1 125//1 32//1 33//1 34//1 35//1 36//1 37//1 38//1 39//1 40//1 41//1 42//1 43//1 44//1 45//1 46//1 47//1 48//1 49//1 50//1 109//1 51//1 52//1 53//1 54//1 106//1 55//1 56//1 57//1 58//1 59//1 60//1 61//1 62//1 63//1 64//1 98//1 65//1 66//1 67//1 68//1 69//1 95//1 70//1 71//1 96//1 72//1 73//1 74//1 75//1 100//1 76//1 99//1 77//1 78//1 79//1 80//1 81//1 82//1 83//1 84//1 85//1 103//1 86//1 87//1 101//1 88//1 89//1 90//1 108//1 91//1 92//1 93//1 94//1 104//1
s 1
f 68//2 95//3 69//4
f 67//5 66//6 97//7 95//3 68//2
f 105//8 101//9 99//10 97//7
f 96//11 95//3 97//7
f 96//11 99//10 72//12
f 73//13 99//10 74//14
f 63//15 98//16 64//17
f 98//16 63//15 102//18
f 102//18 56//19 106//20 109//21
f 61//22 56//19 102//18 63//15 62//23
f 101//9 78//24 99//10
f 60//25 56//19 61//22
f 58//26 56//19 59//27
f 79//28 78//24 80//29
f 101//9 103//30 85//31 84//32 78//24
f 81//33 78//24 82//34
f 89//35 101//9 108//36 90//37
f 82//34 78//24 83//38
f 97//7 107//39 113//40
f 103//30 101//9 86//41
f 106//20 56//19 55//42
f 106//20 53//43 52//44 109//21
f 86//41 101//9 87//45
f 108//36 101//9 105//8
f 71//46 70//46 95//3 96//11
f 109//21 110//47 102//18
f 110//47 109//21 49//48
f 88//49 101//9 89//35
f 53//43 106//20 54//50
f 44//51 43//52 112//53 45//54
f 105//8 104//55 93//56 92//57 108//36
f 91//58 108//36 92//57
f 50//59 49//48 109//21
f 40//60 39//61 112//53 42//62
f 119//63 107//39 111//64
f 4//65 114//66 104//55
f 93//56 104//55 94//67
f 111//64 118//68 116//69
f 111//64 117//70 119//63
f 1//71 104//55 2//72
f 47//73 49//48 48//74
f 49//48 45//54 112//53
f 45//54 49//48 46//75
f 110//47 112//53 118//68
f 2//72 104//55 3//76
f 5//77 4//65 6//78
f 4//65 115//79 8//80 7//80 6//78
f 115//79 104//55 127//81
f 112//53 36//82 34//83 30//84
f 117//70 111//64 116//69
f 113//40 120//85 127//81
f 42//62 112//53 43//52
f 107//39 123//86 120//85
f 127//81 120//85 130//87
f 118//68 112//53 122//88
f 119//63 138//89 123//86
f 123//86 139//90 137//91 129//92
f 40//60 42//62 41//93
f 38//94 112//53 39//61
f 36//82 112//53 37//95
f 112//53 30//84 122//88
f 11//96 115//79 121//97
f 37//95 112//53 38//94
f 124//98 128//99 13//100 12//101 121//97
f 34//83 36//82 35//102
f 30//84 34//83 33//103 32//103 125//104
f 120//85 129//92 130//87
f 31//105 30//84 125//104
f 122//88 30//84 126//106
f 21//107 20//108 18//109 23//110
f 29//111 126//106 30//84
f 118//68 132//112 141//113
f 26//114 142//115 126//106 28//116
f 28//116 126//106 29//111
f 139//90 123//86 133//117
f 16//118 128//99 17//119
f 156//120 117//70 136//121 143//122
f 27//123 26//114 28//116
f 132//112 118//68 122//88
f 132//112 122//88 148//124
f 130//87 137//91 135//125
f 134//126 138//89 117//70
f 19//127 18//109 20//108
f 128//99 26//114 25//128 24//129 18//109
f 23//110 18//109 24//129
f 21//107 23//110 22//130
f 140//131 135//125 137//91
f 133//117 138//89 134//126 144//132
f 154//133 165//134 161//135 157//136
f 136//121 141//113 151//137
f 140//131 137//91 147//138
f 132//112 146//139 141//113
f 142//115 131//140 150//141
f 126//106 150//141 148//124
f 140//131 147//138 149//142
f 153//143 151//137 141//113
f 149//142 147//138 157//136
f 131//140 145//144 150//141
f 151//137 152//145 143//122
f 134//126 155//146 144//132
f 134//126 156//120 155//146
f 152//145 156//120 143//122
f 152//145 151//137 166//147
f 145//144 158//148 163//149
f 153//143 146//139 159//150
f 153//143 166//147 151//137
f 155//146 154//133 144//132
f 167//151 155//146 156//120 152//145
f 165//134 154//133 162//152
f 164//153 166//147 153//143
f 154//133 155//146 162//152
f 161//135 165//134 168//154
f 152//145 166//147 167//151
f 160//155 168//154 159//150
f 165//134 169//156 168//154
f 167//151 169//156 162//152
f 168//154 169//156 164//153
f 66//6 98//16 97//7
f 96//11 97//7 99//10
f 65//157 98//16 66//6
f 73//13 72//12 99//10
f 97//7 98//16 102//18
f 77//158 99//10 78//24
f 60//25 59//27 56//19
f 81//33 80//29 78//24
f 83//38 78//24 84//32
f 58//26 57//159 56//19
f 97//7 102//18 107//39
f 113//40 104//55 105//8
f 111//64 102//18 110//47
f 51//160 109//21 52//44
f 107//39 102//18 111//64
f 104//55 113//40 127//81
f 110//47 49//48 112//53
f 111//64 110//47 118//68
f 47//73 46//75 49//48
f 3//76 104//55 114//66
f 113//40 107//39 120//85
f 4//65 104//55 115//79
f 123//86 107//39 119//63
f 9//161 115//79 10//162
f 10//162 115//79 11//96
f 121//97 115//79 124//98
f 116//69 118//68 141//113
f 129//92 120//85 123//86
f 123//86 138//89 133//117
f 135//125 124//98 127//81
f 117//70 116//69 136//121
f 14//163 13//100 128//99
f 117//70 138//89 119//63
f 116//69 141//113 136//121
f 129//92 137//91 130//87
f 15//164 128//99 16//118
f 17//119 128//99 18//109
f 131//140 135//125 140//131
f 117//70 156//120 134//126
f 128//99 131//140 142//115
f 26//114 128//99 142//115
f 122//88 126//106 148//124
f 131//140 140//131 149//142
f 145//144 131//140 149//142
f 132//112 148//124 146//139
f 143//122 136//121 151//137
f 141//113 146//139 153//143
f 147//138 139//90 144//132
f 147//138 144//132 154//133
f 158//148 149//142 157//136
f 146//139 148//124 163//149
f 75//165 74//14 99//10 100//166
f 158//148 145//144 149//142
f 148//124 150//141 163//149
f 146//139 163//149 159//150
f 158//148 157//136 161//135
f 158//148 160//155 163//149
f 159//150 163//149 160//155
f 162//152 155//146 167//151
f 160//155 161//135 168//154
f 167//151 166//147 169//156
f 166//147 164//153 169//156
f 76//167 100//166 99//10
f 105//8 97//7 113//40
f 115//79 127//81 124//98
f 127//81 130//87 135//125
f 124//98 135//125 131//140
f 128//99 124//98 131//140
f 137//91 139//90 147//138
f 150//141 126//106 142//115
f 139//90 133//117 144//132
f 154//133 157//136 147//138
f 164//153 153//143 159//150
f 160//155 158//148 161//135
f 145//144 163//149 150//141
f 165//134 162//152 169//156
f 159//150 168//154 164//153
