# Blender v2.76 (sub 0) OBJ File: 'spines-extraction.blend'
# www.blender.org
mtllib spine0.mtl
o Spine0_HEADS_Cube.124
v 0.023601 -0.069450 -0.003926
v 0.033616 -0.061870 -0.003926
v 0.039433 -0.037726 -0.003926
v 0.083605 0.068436 -0.003926
v 0.087682 0.081614 -0.003926
v 0.061812 0.102801 -0.003926
v 0.005600 0.108106 -0.003926
v -0.009833 0.100939 -0.003926
v -0.086977 0.039570 -0.003926
v -0.090224 0.032795 -0.003926
v -0.090131 0.028040 -0.003926
v -0.088763 -0.050338 -0.003926
v -0.071184 -0.077399 -0.003926
v -0.051748 -0.091891 -0.003926
v 0.005738 -0.074970 -0.003926
v 0.430272 -0.230535 -0.754839
v 0.389987 -0.209521 -0.646793
v 0.265296 -0.251005 -0.697879
v 0.276637 -0.233906 -0.833270
v 0.486599 -0.194842 -0.702867
v 0.230542 -0.222339 -0.616837
v 0.182798 -0.221825 -0.764763
v 0.378513 -0.159601 -0.888400
v 0.492049 -0.134519 -0.670261
v 0.489571 -0.105298 -0.843851
v 0.182331 -0.256630 -0.717807
v 0.289898 -0.106992 -0.518271
v 0.181884 -0.189081 -0.801466
v 0.286709 -0.131803 -0.881608
v 0.510924 -0.089261 -0.731916
v 0.298899 -0.025767 -0.519365
v 0.096811 -0.285329 -0.677697
v 0.148613 -0.233803 -0.557407
v 0.135001 -0.249446 -0.791349
v 0.173251 -0.184519 -0.795263
v 0.432119 -0.068994 -0.882556
v 0.486653 -0.056766 -0.772114
v 0.239797 0.044804 -0.477001
v 0.208503 -0.147789 -0.482993
v 0.186101 -0.137676 -0.805905
v 0.115696 -0.219305 -0.841183
v 0.360926 -0.062335 -0.873678
v 0.255722 0.062206 -0.613377
v -0.010397 -0.222805 -0.559133
v 0.023191 -0.247101 -0.805009
v 0.127443 -0.030918 -0.372510
v 0.053137 -0.141217 -0.411455
v 0.119749 -0.089399 -0.397772
v 0.230760 -0.083727 -0.806780
v 0.152686 -0.062682 -0.805775
v 0.358444 -0.011141 -0.762746
v -0.084354 -0.217550 -0.634233
v -0.102538 -0.213215 -0.812713
v 0.089560 0.132630 -0.434396
v 0.045469 -0.159246 -0.866631
v 0.291203 -0.025692 -0.776485
v 0.138953 0.166208 -0.587402
v -0.138011 -0.226352 -0.537028
v -0.152860 -0.149555 -0.926801
v 0.072903 0.036267 -0.307192
v 0.058165 0.209334 -0.497225
v 0.066606 -0.041324 -0.841988
v 0.193641 0.057124 -0.683910
v 0.057171 -0.114533 -0.348349
v -0.206130 -0.151083 -0.719935
v -0.199948 -0.199100 -0.623520
v -0.214052 -0.133944 -0.876917
v 0.033882 0.113840 -0.340078
v 0.032572 -0.044294 -0.264313
v -0.001234 0.156965 -0.375859
v -0.113821 -0.016171 -0.980943
v 0.056389 0.242312 -0.562437
v 0.091166 0.218859 -0.589903
v -0.101655 -0.102374 -0.342383
v -0.286690 -0.161389 -0.547735
v -0.156906 -0.075889 -0.984831
v -0.235805 -0.065964 -0.915058
v 0.065887 0.089816 -0.236486
v -0.063513 0.194307 -0.467500
v -0.039097 0.092873 -0.815252
v -0.077383 0.044351 -0.915350
v 0.013971 0.202820 -0.677352
v -0.246870 -0.165286 -0.482706
v -0.039648 -0.097640 -0.274840
v 0.006824 0.110973 -0.220264
v -0.198962 0.017045 -0.930256
v -0.110659 0.219028 -0.619544
v -0.190109 -0.064872 -0.368893
v -0.060370 -0.098684 -0.177193
v -0.386016 -0.029264 -0.586998
v -0.228066 -0.028208 -0.761154
v -0.374666 -0.066200 -0.492437
v -0.056535 0.081742 -0.228810
v -0.165709 0.081660 -0.783985
v -0.191726 0.037402 -0.846724
v -0.254783 0.143972 -0.587631
v -0.117195 -0.049524 -0.253307
v -0.104046 -0.069538 -0.192666
v -0.406329 0.046865 -0.588645
v 0.089941 0.100662 -0.135183
v -0.217403 0.120583 -0.504133
v -0.191422 0.160201 -0.688622
v -0.178755 0.052997 -0.393091
v -0.340303 -0.002483 -0.453551
v -0.415027 0.010081 -0.513139
v -0.318231 0.075852 -0.658528
v -0.446510 0.186964 -0.513653
v -0.267876 0.070716 -0.448178
v -0.490115 0.097087 -0.517917
v -0.363025 0.135276 -0.445828
v -0.383937 0.078151 -0.426585
v -0.451338 0.069588 -0.450408
v -0.452843 0.176425 -0.476188
vn 0.000000 0.000000 1.000000
vn 0.424900 -0.888500 -0.173300
vn 0.370000 -0.716100 0.591800
vn 0.055500 -0.992600 0.107800
vn -0.177200 -0.779700 -0.600600
vn 0.752300 -0.620500 0.221500
vn 0.277500 -0.851900 0.444000
vn 0.185700 -0.794400 -0.578300
vn 0.195000 -0.400400 -0.895300
vn 0.808300 -0.033600 0.587700
vn 0.825000 -0.034300 -0.564000
vn 0.288200 -0.937400 -0.195500
vn 0.530300 -0.394700 0.750300
vn -0.437600 -0.369500 -0.819700
vn -0.378400 0.083700 -0.921800
vn 0.944700 0.296200 0.140300
vn 0.642400 0.033100 0.765700
vn 0.013500 -0.997500 0.068500
vn 0.218800 -0.857100 0.466400
vn 0.348800 -0.814600 -0.463400
vn -0.085400 0.002600 -0.996300
vn 0.086000 -0.079200 -0.993100
vn 0.347800 0.483600 -0.803200
vn -0.144500 0.619800 -0.771300
vn 0.661000 0.741200 -0.117200
vn 0.670600 0.460400 0.581600
vn 0.466600 -0.607600 0.642700
vn 0.280100 -0.445800 -0.850200
vn 0.532700 0.839800 -0.104300
vn -0.063500 -0.941500 0.330900
vn -0.094200 -0.878600 -0.468100
vn 0.703400 -0.083500 0.705900
vn 0.259100 -0.820700 0.509200
vn 0.317400 -0.463100 0.827500
vn -0.273800 0.525700 -0.805400
vn 0.283900 0.370400 -0.884400
vn 0.121300 0.927900 -0.352500
vn -0.249500 -0.967000 -0.051200
vn -0.373700 -0.909300 -0.183100
vn 0.574200 0.598200 0.559000
vn 0.325200 -0.255400 -0.910500
vn -0.114900 0.811000 -0.573600
vn 0.700200 0.712700 -0.042700
vn -0.147300 -0.967200 0.206700
vn -0.247300 -0.730200 -0.636900
vn 0.922900 0.140400 0.358500
vn 0.365200 0.823500 0.434200
vn 0.405800 0.709100 -0.576600
vn 0.527000 0.333400 -0.781700
vn 0.480900 -0.750600 0.453000
vn -0.688100 -0.681800 -0.248100
vn -0.381900 -0.888100 -0.255700
vn -0.757000 -0.607900 -0.239500
vn 0.773600 0.612200 0.163600
vn 0.791300 -0.514800 0.330000
vn 0.314900 0.884400 0.344600
vn 0.171900 0.316600 -0.932800
vn 0.599400 0.785400 -0.154700
vn 0.274100 0.957600 0.088900
vn -0.297900 -0.854200 0.426100
vn -0.617900 -0.785800 -0.024400
vn -0.219200 -0.232700 -0.947500
vn -0.917100 -0.066000 -0.393000
vn 0.898600 0.438800 -0.002000
vn -0.260100 0.899100 0.352100
vn 0.204400 0.765200 -0.610500
vn 0.237800 0.759200 -0.605900
vn 0.186400 0.814800 -0.548900
vn -0.422300 -0.765800 0.484800
vn 0.083000 -0.979800 0.182000
vn 0.647800 -0.438100 0.623200
vn 0.711100 -0.213400 0.669900
vn -0.048700 0.989900 0.132900
vn -0.599800 0.638200 -0.482600
vn -0.269400 0.951400 -0.149000
vn -0.617000 -0.270700 0.738900
vn -0.132100 -0.989200 0.062700
vn -0.806200 -0.578700 0.122900
vn -0.813100 -0.402500 -0.420500
vn -0.921200 0.043500 -0.386700
vn -0.767000 -0.497000 0.405900
vn 0.346800 -0.661400 0.665000
vn 0.662000 -0.353400 0.660900
vn -0.680400 0.689000 0.249500
vn -0.409500 0.784200 -0.466100
vn -0.483300 0.684900 -0.545300
vn -0.682600 0.706200 -0.187500
vn -0.258800 0.960300 -0.104000
vn -0.955600 -0.111200 0.272700
vn 0.186700 -0.671700 0.716900
vn -0.756200 -0.178600 -0.629400
vn 0.903200 0.417600 -0.099300
vn 0.764600 0.062300 0.641500
vn -0.124300 0.743400 0.657100
vn -0.368200 0.619500 0.693200
vn -0.204600 0.847700 0.489400
vn -0.673000 0.368600 0.641300
vn -0.398800 -0.210400 0.892500
vn -0.504000 -0.501100 0.703500
vn -0.118400 -0.763300 0.635100
vn -0.806300 -0.579000 0.121100
vn -0.555800 0.445300 -0.702000
vn 0.260400 0.695500 0.669600
vn -0.603300 0.446100 0.661000
vn -0.391600 0.892900 -0.222000
vn -0.718200 0.151900 0.679000
vn -0.655900 -0.068800 0.751700
vn -0.042300 0.435900 0.899000
vn -0.695900 -0.202800 0.688800
vn -0.978900 -0.075600 -0.189800
vn 0.151000 0.620400 0.769600
vn -0.098500 -0.026500 0.994800
vn -0.654700 -0.301300 0.693200
vn -0.455900 0.719500 0.523800
usemtl None
s off
f 1//1 2//1 3//1 4//1 5//1 6//1 7//1 8//1 9//1 10//1 11//1 12//1 13//1 14//1 15//1
s 1
f 16//2 17//3 18//4
f 19//5 16//2 18//4
f 17//3 16//2 20//6
f 18//4 17//3 21//7
f 18//4 22//8 19//5
f 16//2 19//5 23//9
f 20//6 24//10 17//3
f 20//6 16//2 25//11
f 18//4 21//7 26//12
f 17//3 27//13 21//7
f 22//8 18//4 26//12
f 19//5 22//8 28//14
f 23//9 25//11 16//2
f 19//5 29//15 23//9
f 30//16 24//10 20//6
f 24//10 31//17 27//13 17//3
f 20//6 25//11 30//16
f 21//7 32//18 26//12
f 33//19 21//7 27//13
f 22//8 26//12 34//20
f 19//5 28//14 40//21 29//15
f 22//8 35//22 28//14
f 25//11 23//9 36//23
f 23//9 29//15 42//24 36//23
f 24//10 30//16 31//17
f 25//11 37//25 30//16
f 21//7 33//19 32//18
f 34//20 26//12 32//18
f 27//13 31//17 38//26
f 33//19 27//13 39//27
f 22//8 34//20 35//22
f 28//14 41//28 35//22
f 34//20 28//14 35//22
f 28//14 35//22 40//21
f 25//11 36//23 37//25
f 30//16 38//26 31//17
f 37//25 43//29 30//16
f 33//19 44//30 32//18
f 32//18 45//31 34//20
f 46//32 27//13 38//26
f 39//27 47//33 33//19
f 39//27 27//13 48//34
f 40//21 49//35 29//15
f 28//14 34//20 41//28
f 41//28 50//36 40//21 35//22
f 36//23 51//37 37//25
f 49//35 42//24 29//15
f 51//37 36//23 42//24
f 43//29 38//26 30//16
f 51//37 43//29 37//25
f 33//19 47//33 44//30
f 32//18 44//30 52//38
f 45//31 32//18 53//39
f 34//20 45//31 41//28
f 46//32 38//26 54//40
f 27//13 46//32 48//34
f 39//27 48//34 47//33
f 40//21 50//36 49//35
f 41//28 55//41 50//36
f 56//42 42//24 49//35
f 56//42 51//37 42//24
f 38//26 43//29 57//43
f 56//42 43//29 51//37
f 44//30 47//33 58//44
f 52//38 53//39 32//18
f 44//30 58//44 52//38
f 45//31 53//39 59//45
f 45//31 55//41 41//28
f 54//40 60//46 46//32
f 38//26 61//47 54//40
f 47//33 48//34 46//32
f 49//35 50//36 63//48 56//42
f 50//36 55//41 62//49
f 57//43 61//47 38//26
f 63//48 57//43 43//29
f 56//42 63//48 43//29
f 47//33 64//50 58//44
f 52//38 65//51 53//39
f 52//38 58//44 66//52
f 45//31 59//45 55//41
f 59//45 53//39 67//53
f 60//46 54//40 68//54
f 46//32 60//46 69//55
f 54//40 61//47 70//56
f 64//50 47//33 46//32
f 63//48 50//36 62//49
f 55//41 71//57 62//49
f 61//47 57//43 73//58 72//59
f 63//48 73//58 57//43
f 58//44 64//50 74//60
f 65//51 52//38 66//52
f 53//39 65//51 67//53
f 58//44 75//61 66//52
f 55//41 59//45 76//62
f 67//53 77//63 59//45
f 68//54 78//64 60//46
f 54//40 70//56 68//54
f 64//50 46//32 69//55
f 60//46 78//64 69//55
f 61//47 79//65 70//56
f 63//48 62//49 80//66
f 55//41 76//62 71//57
f 62//49 71//57 81//67
f 61//47 72//59 79//65
f 63//48 82//68 73//58
f 58//44 74//60 83//69
f 64//50 84//70 74//60
f 66//52 75//61 65//51
f 65//51 77//63 67//53
f 58//44 83//69 75//61
f 77//63 76//62 59//45
f 68//54 70//56 78//64
f 64//50 69//55 84//70
f 2//71 69//55 78//64 3//72
f 70//56 79//65 85//73
f 63//48 80//66 82//68
f 62//49 81//67 80//66
f 76//62 86//74 71//57
f 86//74 81//67 71//57
f 82//68 72//59 73//58
f 87//75 79//65 72//59
f 74//60 88//76 83//69
f 84//70 89//77 98//78 74//60
f 65//51 75//61 90//79
f 65//51 91//80 77//63
f 83//69 92//81 75//61
f 77//63 86//74 76//62
f 78//64 70//56 85//73
f 1//82 84//70 69//55 2//71
f 3//72 78//64 4//83
f 85//73 79//65 93//84
f 82//68 80//66 102//85 87//75
f 94//86 80//66 81//67
f 86//74 95//87 81//67
f 82//68 87//75 72//59
f 79//65 87//75 96//88
f 97//89 88//76 74//60
f 88//76 92//81 83//69
f 15//90 89//77 84//70 1//82
f 65//51 90//79 99//91
f 75//61 92//81 90//79
f 99//91 91//80 65//51
f 91//80 95//87 77//63
f 95//87 86//74 77//63
f 78//64 85//73 100//92
f 4//83 78//64 100//92 5//93
f 7//94 85//73 93//84 8//95
f 79//65 101//96 93//84
f 95//87 94//86 81//67
f 94//86 102//85 80//66
f 79//65 96//88 101//96
f 87//75 102//85 96//88
f 74//60 98//78 97//89
f 97//89 103//97 88//76
f 104//98 92//81 88//76
f 13//99 98//78 89//77 14//100
f 14//100 89//77 15//90
f 105//101 99//91 90//79
f 92//81 105//101 90//79
f 99//91 106//102 91//80
f 94//86 95//87 91//80
f 6//103 100//92 85//73 7//94
f 5//93 100//92 6//103
f 8//95 93//84 9//104
f 93//84 101//96 103//97
f 106//102 102//85 94//86
f 96//88 107//105 101//96
f 96//88 102//85 106//102
f 10//106 97//89 98//78 11//107
f 93//84 103//97 97//89
f 103//97 108//108 88//76
f 88//76 108//108 104//98
f 104//98 105//101 92//81
f 12//109 98//78 13//99
f 105//101 109//110 99//91
f 99//91 109//110 106//102
f 106//102 94//86 91//80
f 9//104 93//84 97//89 10//106
f 101//96 108//108 103//97
f 107//105 96//88 106//102
f 101//96 107//105 110//111
f 11//107 98//78 12//109
f 104//98 108//108 111//112
f 104//98 112//113 105//101
f 105//101 112//113 109//110
f 109//110 107//105 106//102
f 108//108 101//96 110//111
f 107//105 113//114 110//111
f 112//113 104//98 111//112
f 111//112 108//108 110//111
f 112//113 113//114 109//110
f 107//105 109//110 113//114
f 113//114 111//112 110//111
f 111//112 113//114 112//113
