# Blender v2.76 (sub 0) OBJ File: 'spines-extraction.blend'
# www.blender.org
mtllib spine15.mtl
o FINAL_Spine15_Cube.135
v -0.113262 0.013656 -0.006470
v -0.101442 -0.022645 -0.006470
v -0.055053 -0.039085 -0.006470
v -0.024475 -0.059938 -0.006470
v 0.032605 -0.072243 -0.006470
v 0.069042 -0.076501 -0.006470
v 0.139881 0.023728 -0.006470
v 0.135065 0.038442 -0.006470
v 0.133565 0.046861 -0.006470
v 0.105807 0.056895 -0.006470
v 0.089379 0.059120 -0.006470
v 0.039429 0.079749 -0.006470
v 0.016787 0.079327 -0.006470
v -0.083068 0.078396 -0.006470
v -0.073237 0.050120 -0.006470
v 0.005881 -0.055912 -0.039239
v 0.045675 -0.010039 -0.164588
v -0.049216 -0.013362 -0.197485
v -0.022638 0.057331 -0.234085
v -0.073960 0.056462 -0.151664
v -0.233322 0.005790 -0.205176
v 0.038814 0.074780 -0.037807
v -0.263590 0.031183 -0.217937
v -0.077284 0.014591 -0.297821
v -0.224833 0.066114 -0.237870
v -0.339003 0.052810 -0.353051
v -0.193342 -0.074319 -0.369750
v -0.061827 0.066102 -0.291688
v -0.491092 -0.019468 -0.533673
v 0.010621 -0.059182 -0.464821
v -0.109200 0.132313 -0.478230
v -0.324889 0.125883 -0.540687
v -0.421290 0.044405 -0.517997
v -0.369523 -0.090785 -0.450130
v -0.044270 -0.132174 -0.409511
v 0.113902 -0.055109 -0.530575
v 0.057761 0.049891 -0.452436
v -0.381968 0.078933 -0.700009
v -0.466482 -0.043236 -0.511509
v -0.001824 0.088664 -0.437731
v -0.199877 0.173915 -0.519274
v -0.428722 0.000784 -0.780135
v -0.427725 -0.091767 -0.539876
v -0.474080 -0.042171 -0.680484
v -0.090726 -0.218915 -0.484499
v 0.110605 -0.126945 -0.486633
v 0.209598 0.006940 -0.700235
v 0.080450 0.117030 -0.542129
v -0.312358 0.212518 -0.668917
v -0.342732 0.155557 -0.733288
v -0.293046 0.100122 -0.878284
v 0.168627 -0.120912 -0.597725
v -0.113993 0.252051 -0.558709
v -0.278015 0.230643 -0.589555
v -0.327548 -0.108204 -0.783971
v -0.113667 0.001694 -0.973322
v -0.130599 -0.169676 -0.616319
v 0.166546 -0.117415 -0.715738
v 0.201527 0.135110 -0.792002
v 0.123561 0.218846 -0.720684
v -0.148861 0.316600 -0.751696
v -0.076193 0.146252 -0.995379
v -0.013438 -0.120327 -0.812225
v 0.209644 0.056561 -0.752919
v 0.057548 -0.011807 -0.943333
v -0.080548 0.279585 -0.607690
v -0.208778 0.186471 -0.928123
v -0.163559 0.261118 -0.886335
v 0.052004 0.059484 -0.978115
v -0.064181 0.172431 -0.994509
v 0.184130 0.052384 -0.864184
v 0.110425 0.248762 -0.850297
v -0.040481 0.236038 -0.960458
v 0.095747 0.100117 -0.954103
v 0.120689 0.196084 -0.939611
vn -0.000000 0.000000 1.000000
vn -0.404300 -0.783300 0.472100
vn -0.193600 -0.932300 -0.305300
vn -0.118600 -0.821700 0.557500
vn -0.302200 -0.755500 0.581300
vn 0.633000 -0.465900 -0.618200
vn 0.356700 -0.819500 0.448400
vn -0.629200 -0.567200 0.531400
vn -0.467300 -0.622300 -0.627900
vn 0.905500 -0.080400 0.416600
vn -0.849300 0.237500 0.471300
vn 0.509200 0.445700 -0.736300
vn 0.877300 0.229400 0.421500
vn -0.869400 0.123500 0.478300
vn -0.661600 -0.716100 0.222100
vn 0.753000 0.508300 0.417800
vn -0.682500 0.523100 0.510400
vn -0.272700 -0.587200 0.762100
vn 0.181600 0.972400 -0.146600
vn 0.240900 0.732500 0.636700
vn -0.009200 0.760100 0.649700
vn -0.748300 0.072200 0.659400
vn 0.686800 -0.641700 0.341300
vn -0.236100 0.893500 0.381900
vn 0.116700 0.642000 0.757700
vn 0.146800 0.783300 0.604100
vn -0.678700 0.558700 0.476600
vn -0.045200 -0.811200 0.583100
vn 0.723000 0.656300 -0.215600
vn -0.972700 0.023300 0.231000
vn 0.496700 -0.313500 0.809300
vn 0.120000 0.872000 0.474500
vn -0.529800 0.791300 0.305200
vn -0.659900 0.734300 0.158900
vn -0.502600 -0.413500 0.759100
vn 0.274100 -0.260500 0.925700
vn 0.782200 0.126900 0.609900
vn 0.695000 0.308900 0.649300
vn -0.795900 0.595400 -0.109900
vn -0.716900 -0.189900 0.670700
vn -0.125500 0.025600 0.991800
vn -0.226200 0.499700 0.836100
vn -0.819900 0.075900 -0.567400
vn -0.550500 -0.828100 0.106000
vn -0.927500 -0.266200 -0.262400
vn -0.018200 -0.957400 0.288200
vn 0.685500 -0.318700 0.654600
vn 0.994800 -0.038400 0.094700
vn 0.626100 0.564000 0.538400
vn -0.770300 0.636300 0.041900
vn -0.784400 0.561100 -0.264200
vn -0.682900 0.234500 -0.691900
vn 0.732100 -0.625700 0.269400
vn 0.069500 0.708400 0.702400
vn -0.746800 0.374000 0.549900
vn -0.372300 -0.796200 -0.476900
vn -0.191000 -0.483000 -0.854500
vn -0.182500 -0.950500 -0.251500
vn 0.661900 -0.692100 -0.287600
vn 0.940400 0.337400 -0.042200
vn 0.638100 0.703200 0.313500
vn -0.180400 0.982000 -0.055700
vn -0.184300 0.064500 -0.980700
vn 0.062400 -0.877900 -0.474700
vn 0.999100 -0.001300 -0.040900
vn 0.357600 -0.605600 -0.710800
vn 0.220300 0.862100 0.456200
vn -0.577500 0.354000 -0.735600
vn -0.389400 0.789400 -0.474600
vn 0.339100 -0.146100 -0.929300
vn -0.050700 0.229000 -0.972100
vn 0.829600 -0.251300 -0.498500
vn 0.516600 0.841200 -0.159700
vn 0.031600 0.727900 -0.684900
vn 0.567300 -0.016100 -0.823300
vn 0.619900 0.391800 -0.679900
usemtl None
s off
f 1//1 2//1 3//1 4//1 5//1 6//1 7//1 8//1 9//1 10//1 11//1 12//1 13//1 14//1 15//1
s 1
f 4//2 16//3 5//4
f 3//5 16//3 4//2
f 5//4 16//3 17//6 6//7
f 2//8 18//9 16//3 3//5
f 17//6 16//3 18//9
f 6//7 17//6 7//10
f 1//11 18//9 2//8
f 17//6 18//9 19//12
f 7//10 17//6 19//12 8//13
f 15//14 18//9 1//11
f 20//15 19//12 18//9
f 8//13 19//12 9//16
f 14//17 20//15 18//9 15//14
f 21//18 19//12 20//15
f 9//16 19//12 22//19 10//20
f 13//21 22//19 20//15 14//17
f 20//15 23//22 21//18
f 21//18 24//23 19//12
f 25//24 22//19 19//12
f 10//20 22//19 11//25
f 12//26 22//19 13//21
f 20//15 22//19 25//24
f 25//24 23//22 20//15
f 23//22 26//27 21//18
f 27//28 24//23 21//18
f 19//12 24//23 28//29
f 19//12 28//29 25//24
f 11//25 22//19 12//26
f 23//22 25//24 26//27
f 21//18 26//27 29//30
f 21//18 29//30 27//28
f 27//28 30//31 24//23
f 24//23 31//32 28//29
f 28//29 32//33 25//24
f 25//24 32//33 26//27
f 29//30 26//27 33//34
f 29//30 34//35 27//28
f 35//36 30//31 27//28
f 30//31 36//37 24//23
f 24//23 37//38 31//32
f 31//32 32//33 28//29
f 26//27 32//33 33//34
f 38//39 29//30 33//34
f 34//35 29//30 39//40
f 35//36 27//28 34//35
f 35//36 36//37 30//31
f 24//23 36//37 37//38
f 37//38 40//41 31//32
f 31//32 41//42 32//33
f 32//33 38//39 33//34
f 29//30 38//39 42//43
f 43//44 34//35 39//40
f 39//40 29//30 44//45
f 34//35 45//46 35//36
f 46//47 36//37 35//36
f 37//38 36//37 47//48
f 48//49 40//41 37//38
f 31//32 40//41 48//49
f 31//32 48//49 41//42
f 32//33 41//42 49//50
f 32//33 50//51 38//39
f 29//30 42//43 44//45
f 42//43 38//39 51//52
f 43//44 39//40 44//45
f 43//44 45//46 34//35
f 46//47 35//36 45//46
f 36//37 46//47 52//53
f 48//49 37//38 47//48
f 47//48 36//37 52//53
f 48//49 53//54 41//42
f 49//50 50//51 32//33
f 41//42 54//55 49//50
f 51//52 38//39 50//51
f 55//56 44//45 42//43
f 42//43 51//52 56//57
f 43//44 44//45 55//56
f 45//46 43//44 57//58
f 46//47 45//46 58//59
f 52//53 46//47 58//59
f 59//60 48//49 47//48
f 47//48 52//53 58//59
f 53//54 48//49 60//61
f 41//42 53//54 54//55
f 50//51 49//50 51//52
f 54//55 61//62 49//50
f 55//56 42//43 56//57
f 56//57 51//52 62//63
f 55//56 57//58 43//44
f 45//46 57//58 63//64
f 45//46 63//64 58//59
f 47//48 64//65 59//60
f 60//61 48//49 59//60
f 65//66 47//48 58//59
f 53//54 60//61 66//67
f 61//62 54//55 53//54
f 49//50 67//68 51//52
f 61//62 68//69 49//50
f 55//56 56//57 65//66
f 69//70 56//57 62//63
f 62//63 51//52 70//71
f 63//64 57//58 55//56
f 58//59 63//64 65//66
f 47//48 71//72 64//65
f 64//65 71//72 59//60
f 60//61 59//60 72//73
f 65//66 71//72 47//48
f 53//54 66//67 61//62
f 66//67 60//61 72//73
f 49//50 68//69 67//68
f 51//52 67//68 70//71
f 68//69 61//62 73//74
f 63//64 55//56 65//66
f 65//66 56//57 69//70
f 69//70 62//63 74//75
f 62//63 70//71 75//76
f 59//60 71//72 74//75
f 72//73 59//60 75//76
f 69//70 71//72 65//66
f 66//67 72//73 61//62
f 67//68 68//69 73//74
f 70//71 67//68 73//74
f 61//62 72//73 73//74
f 74//75 71//72 69//70
f 74//75 62//63 75//76
f 70//71 73//74 75//76
f 75//76 59//60 74//75
f 72//73 75//76 73//74
