# Blender v2.78 (sub 0) OBJ File: 'new-interface.blend'
# www.blender.org
mtllib spine8.mtl
o spine8_spine8_Synapse_sample.009_Vert.303
v -0.040072 -0.064152 -0.110892
v 0.088902 -0.058828 -0.101021
v 0.045374 -0.134703 -0.060688
v -0.036286 -0.182941 -0.056922
v -0.117592 -0.134387 -0.047992
v -0.166327 -0.058592 -0.082135
v -0.120684 0.025747 -0.092425
v -0.041139 0.065520 -0.126234
v 0.042282 0.025432 -0.105121
v 0.001058 -0.006852 0.444797
v 0.034165 -0.006350 0.436331
v 0.033795 0.014272 0.422015
v 0.000974 0.010831 0.427309
v -0.025765 -0.000350 0.424946
v -0.022754 -0.021749 0.435682
v -0.015154 -0.053566 0.436325
v 0.010436 -0.038930 0.444704
v 0.044405 -0.038944 0.433394
v -0.032529 -0.154227 -0.002974
v 0.050529 -0.126621 -0.017901
v 0.005728 -0.063604 0.034162
v -0.027625 -0.075572 0.042357
v -0.061370 -0.062279 0.044125
v -0.116639 -0.125912 -0.003379
v -0.146079 -0.041912 -0.023956
v -0.073140 -0.024170 0.036144
v -0.062544 0.013498 0.024841
v -0.119796 0.041851 -0.049373
v -0.036739 0.069456 -0.064300
v -0.029191 0.025465 0.016646
v 0.004554 0.012173 0.014878
v 0.047371 0.041141 -0.063895
v 0.076812 -0.042858 -0.043318
v 0.016324 -0.025937 0.022859
v 0.034060 -0.105615 0.417846
v 0.088275 -0.074995 0.410361
v -0.027361 -0.101247 0.421227
v -0.045862 -0.144688 0.384128
v 0.043577 -0.151733 0.369927
v 0.123144 -0.106983 0.356620
v -0.057442 -0.053141 0.416881
v -0.048978 0.003714 0.408913
v -0.075479 0.010695 0.386807
v -0.088838 -0.073280 0.390052
v 0.005238 0.034334 0.401427
v 0.066659 0.029966 0.398047
v 0.093527 0.048400 0.359299
v 0.004088 0.055445 0.373500
v 0.096740 -0.018139 0.402393
v 0.136503 -0.023007 0.353375
v -0.020402 -0.044536 0.070478
v -0.004917 -0.038425 0.064272
v 0.001384 -0.032264 0.083437
v -0.012434 -0.037655 0.089183
v -0.026295 -0.030617 0.092332
v -0.035990 -0.036673 0.073649
v -0.041323 -0.015422 0.070659
v -0.030974 -0.011697 0.089918
v -0.026426 0.006673 0.084539
v -0.036299 0.005246 0.064544
v -0.020814 0.011356 0.058338
v -0.012608 0.012065 0.078793
v 0.001253 0.005027 0.075644
v -0.005227 0.003494 0.055167
v 0.000107 -0.017758 0.058157
v 0.005932 -0.013893 0.078058
v -0.005296 -0.031466 0.106267
v 0.007422 -0.026299 0.102662
v 0.010957 -0.021303 0.119784
v -0.001312 -0.026845 0.120447
v -0.013667 -0.022233 0.118249
v -0.018083 -0.025635 0.107312
v -0.022437 -0.009027 0.104248
v -0.017900 -0.007156 0.113703
v -0.013924 0.008230 0.109668
v -0.018289 0.007360 0.099633
v -0.005571 0.012526 0.096028
v -0.001655 0.013772 0.109005
v 0.010700 0.009160 0.111203
v 0.007216 0.006695 0.094983
v 0.011570 -0.009913 0.098047
v 0.014932 -0.005916 0.115749
v -0.002806 -0.024669 0.130440
v 0.009745 -0.018045 0.132640
v 0.004990 -0.015150 0.146755
v -0.009125 -0.023403 0.141988
v -0.023132 -0.020019 0.132984
v -0.015359 -0.020918 0.124802
v -0.019545 -0.005833 0.118337
v -0.027658 -0.003375 0.124334
v -0.022811 0.014893 0.120275
v -0.015364 0.010210 0.114485
v -0.002813 0.016834 0.116685
v -0.008696 0.023146 0.125042
v 0.005311 0.019762 0.134046
v 0.009739 0.013083 0.122324
v 0.013926 -0.002002 0.128788
v 0.009837 0.003117 0.142696
v -0.019617 -0.021510 0.160830
v -0.002108 -0.011243 0.167656
v -0.010534 -0.006528 0.191121
v -0.033561 -0.019235 0.183884
v -0.056823 -0.014589 0.171951
v -0.036962 -0.017865 0.148810
v -0.042522 0.001900 0.137877
v -0.064891 0.010098 0.161714
v -0.057529 0.037471 0.157866
v -0.036465 0.023872 0.133225
v -0.018955 0.034140 0.140051
v -0.034502 0.050178 0.165103
v -0.011239 0.045532 0.177035
v -0.001611 0.030495 0.152071
v 0.003950 0.010729 0.163004
v -0.003172 0.020845 0.187273
v -0.050232 -0.016822 0.208064
v -0.019277 -0.001210 0.212931
v -0.021368 -0.000128 0.226737
v -0.060667 -0.019995 0.226982
v -0.102114 -0.013199 0.232344
v -0.082692 -0.010323 0.202078
v -0.095517 0.021325 0.198592
v -0.118796 0.024617 0.240952
v -0.108562 0.066790 0.247692
v -0.087203 0.056010 0.198724
v -0.056247 0.071622 0.203591
v -0.069263 0.086657 0.247446
v -0.027816 0.079861 0.242085
v -0.023788 0.065123 0.209577
v -0.010963 0.033475 0.213063
v -0.011134 0.042045 0.233477
v -0.055898 -0.034480 0.234251
v -0.009841 -0.008122 0.226189
v 0.022852 -0.032070 0.238432
v -0.033079 -0.066458 0.253073
v -0.089688 -0.065996 0.285401
v -0.102636 -0.031350 0.255900
v -0.119123 0.009009 0.281232
v -0.109461 -0.019377 0.319758
v -0.091720 0.038551 0.338460
v -0.104678 0.057110 0.296661
v -0.058621 0.083468 0.288599
v -0.035789 0.072939 0.323818
v 0.020820 0.072477 0.291491
v -0.011883 0.080338 0.266950
v 0.004604 0.039979 0.241618
v 0.040593 0.025858 0.257133
v 0.010639 -0.122111 0.306651
v 0.084258 -0.078849 0.290609
v -0.068700 -0.118356 0.333498
v -0.102772 -0.054416 0.356855
v -0.085857 0.022694 0.365916
v -0.012237 0.065956 0.349874
v 0.067102 0.062201 0.323027
v 0.101173 -0.001739 0.299670
vn -0.0729 -0.2688 -0.9604
vn 0.7976 -0.1480 -0.5848
vn 0.6121 -0.7218 -0.3230
vn -0.0235 -0.9485 -0.3160
vn -0.6532 -0.7214 -0.2299
vn -0.8727 -0.1470 -0.4657
vn -0.6771 0.4740 -0.5629
vn -0.0553 0.6452 -0.7620
vn 0.5888 0.4717 -0.6563
vn -0.1133 0.3306 0.9369
vn 0.3326 0.3136 0.8894
vn 0.2251 0.6286 0.7445
vn -0.1503 0.6797 0.7179
vn -0.4543 0.5087 0.7314
vn -0.4496 0.1384 0.8824
vn -0.2428 -0.2083 0.9474
vn 0.0517 -0.1376 0.9891
vn 0.3744 -0.0731 0.9244
vn 0.0521 -0.7804 0.6231
vn 0.6919 -0.5062 0.5148
vn 0.6237 -0.3257 0.7106
vn 0.0903 -0.5751 0.8131
vn -0.4592 -0.3178 0.8295
vn -0.6050 -0.5119 0.6099
vn -0.8792 0.1099 0.4635
vn -0.6973 0.1706 0.6962
vn -0.4811 0.6726 0.5623
vn -0.6318 0.7292 0.2630
vn 0.0167 0.9918 0.1268
vn 0.0615 0.9084 0.4135
vn 0.6093 0.6576 0.4430
vn 0.6705 0.7222 0.1698
vn 0.9366 0.1085 0.3332
vn 0.8383 0.1515 0.5237
vn 0.2069 -0.5206 0.8284
vn 0.5634 -0.2671 0.7818
vn -0.2457 -0.4420 0.8627
vn -0.4105 -0.8612 0.2997
vn 0.2456 -0.9614 0.1239
vn 0.8199 -0.5721 0.0223
vn -0.5690 -0.0446 0.8212
vn -0.5042 0.4781 0.7192
vn -0.6318 0.4460 0.6340
vn -0.8188 -0.2462 0.5185
vn -0.1066 0.7825 0.6134
vn 0.3817 0.6374 0.6693
vn 0.6297 0.7447 0.2209
vn -0.0605 0.8663 0.4958
vn 0.6599 0.1985 0.7246
vn 0.9876 0.1511 0.0421
vn 0.0731 -0.8188 0.5694
vn 0.7667 -0.5538 0.3248
vn 0.7500 -0.6606 -0.0327
vn 0.0466 -0.9443 0.3259
vn -0.6562 -0.5399 0.5273
vn -0.5901 -0.4529 0.6683
vn -0.8185 0.1253 0.5607
vn -0.8749 0.0979 0.4743
vn -0.6513 0.7009 0.2906
vn -0.5949 0.6949 0.4040
vn 0.0531 0.9861 0.1577
vn 0.0408 0.9981 -0.0464
vn 0.7471 0.6029 -0.2799
vn 0.7443 0.6663 0.0465
vn 0.9966 0.0348 0.0747
vn 0.9626 -0.0527 -0.2658
vn 0.0474 -0.9486 0.3128
vn 0.7603 -0.6495 -0.0031
vn 0.7848 -0.6078 0.1209
vn 0.0787 -0.9652 0.2494
vn -0.7020 -0.6764 0.2230
vn -0.6715 -0.5483 0.4985
vn -0.8878 0.0978 0.4497
vn -0.9974 -0.0035 0.0716
vn -0.7339 0.6716 -0.1018
vn -0.6652 0.6967 0.2685
vn 0.0304 0.9972 -0.0679
vn 0.0510 0.9679 -0.2462
vn 0.7805 0.5916 -0.2022
vn 0.7550 0.5995 -0.2657
vn 0.9743 -0.0471 -0.2201
vn 0.9986 -0.0107 -0.0517
vn 0.1026 -0.9772 0.1857
vn 0.7681 -0.5688 0.2941
vn 0.7360 -0.5737 0.3594
vn 0.0988 -0.9849 0.1424
vn -0.4881 -0.8026 -0.3431
vn -0.5779 -0.7919 -0.1972
vn -0.8253 -0.1890 -0.5322
vn -0.6776 -0.2447 -0.6936
vn -0.4593 0.3864 -0.7998
vn -0.5765 0.4812 -0.6604
vn 0.1038 0.8815 -0.4607
vn 0.1217 0.8269 -0.5491
vn 0.7490 0.6547 -0.1014
vn 0.7752 0.6217 -0.1119
vn 0.9844 0.0522 0.1681
vn 0.9630 0.0841 0.2561
vn 0.1069 -0.9823 0.1537
vn 0.7262 -0.5826 0.3650
vn 0.7096 -0.5867 0.3902
vn 0.1057 -0.9799 0.1691
vn -0.5152 -0.7986 -0.3110
vn -0.4974 -0.8099 -0.3110
vn -0.7286 -0.2178 -0.6494
vn -0.7655 -0.1635 -0.6223
vn -0.5424 0.4850 -0.6860
vn -0.4988 0.4397 -0.7469
vn 0.1022 0.8465 -0.5225
vn 0.0421 0.8643 -0.5012
vn 0.7089 0.6933 -0.1295
vn 0.7378 0.6660 -0.1104
vn 0.9629 0.0812 0.2574
vn 0.9607 0.0801 0.2659
vn 0.1189 -0.9916 0.0506
vn 0.7399 -0.6125 0.2784
vn 0.6143 -0.4249 -0.6649
vn -0.0650 -0.8180 -0.5716
vn -0.7008 -0.5558 -0.4472
vn -0.5613 -0.7313 -0.3874
vn -0.8321 -0.0634 -0.5509
vn -0.9693 0.0043 -0.2457
vn -0.7678 0.6287 -0.1234
vn -0.6288 0.5529 -0.5467
vn -0.0766 0.8977 -0.4339
vn -0.1995 0.9726 -0.1190
vn 0.4168 0.8639 -0.2827
vn 0.6269 0.7471 -0.2212
vn 0.9868 0.0867 0.1366
vn 0.8124 0.3188 -0.4882
vn -0.1596 -0.5488 -0.8206
vn 0.2344 -0.1170 -0.9651
vn 0.3627 -0.2521 -0.8971
vn -0.0979 -0.6409 -0.7613
vn -0.6911 -0.6068 -0.3926
vn -0.7376 -0.5499 -0.3918
vn -0.9947 -0.0530 0.0885
vn -0.9836 -0.0999 0.1505
vn -0.6965 0.5437 0.4682
vn -0.7481 0.5785 0.3252
vn -0.1758 0.9544 0.2414
vn -0.1374 0.9215 0.3633
vn 0.3802 0.8984 -0.2198
vn 0.3649 0.9043 -0.2215
vn 0.5089 0.3953 -0.7647
vn 0.5773 0.3468 -0.7393
vn 0.0332 -0.8038 -0.5940
vn 0.5504 -0.4276 -0.7171
vn -0.6091 -0.7419 -0.2802
vn -0.9647 -0.1742 0.1977
vn -0.7004 0.4980 0.5113
vn -0.1015 0.9135 0.3939
vn 0.4825 0.8618 -0.1563
vn 0.7635 0.2459 -0.5971
usemtl Material.024
s 1
f 1//1 2//2 3//3 4//4
f 1//1 4//4 5//5 6//6
f 1//1 6//6 7//7 8//8
f 1//1 8//8 9//9 2//2
f 10//10 11//11 12//12 13//13
f 10//10 13//13 14//14 15//15
f 10//10 15//15 16//16 17//17
f 10//10 17//17 18//18 11//11
f 19//19 20//20 21//21 22//22
f 19//19 22//22 23//23 24//24
f 19//19 24//24 5//5 4//4
f 19//19 4//4 3//3 20//20
f 25//25 24//24 23//23 26//26
f 25//25 26//26 27//27 28//28
f 25//25 28//28 7//7 6//6
f 25//25 6//6 5//5 24//24
f 29//29 28//28 27//27 30//30
f 29//29 30//30 31//31 32//32
f 29//29 32//32 9//9 8//8
f 29//29 8//8 7//7 28//28
f 33//33 32//32 31//31 34//34
f 33//33 34//34 21//21 20//20
f 33//33 20//20 3//3 2//2
f 33//33 2//2 9//9 32//32
f 35//35 36//36 18//18 17//17
f 35//35 17//17 16//16 37//37
f 35//35 37//37 38//38 39//39
f 35//35 39//39 40//40 36//36
f 41//41 37//37 16//16 15//15
f 41//41 15//15 14//14 42//42
f 41//41 42//42 43//43 44//44
f 41//41 44//44 38//38 37//37
f 45//45 42//42 14//14 13//13
f 45//45 13//13 12//12 46//46
f 45//45 46//46 47//47 48//48
f 45//45 48//48 43//43 42//42
f 49//49 46//46 12//12 11//11
f 49//49 11//11 18//18 36//36
f 49//49 36//36 40//40 50//50
f 49//49 50//50 47//47 46//46
f 51//51 52//52 53//53 54//54
f 51//51 54//54 55//55 56//56
f 51//51 56//56 23//23 22//22
f 51//51 22//22 21//21 52//52
f 57//57 56//56 55//55 58//58
f 57//57 58//58 59//59 60//60
f 57//57 60//60 27//27 26//26
f 57//57 26//26 23//23 56//56
f 61//61 60//60 59//59 62//62
f 61//61 62//62 63//63 64//64
f 61//61 64//64 31//31 30//30
f 61//61 30//30 27//27 60//60
f 65//65 64//64 63//63 66//66
f 65//65 66//66 53//53 52//52
f 65//65 52//52 21//21 34//34
f 65//65 34//34 31//31 64//64
f 67//67 68//68 69//69 70//70
f 67//67 70//70 71//71 72//72
f 67//67 72//72 55//55 54//54
f 67//67 54//54 53//53 68//68
f 73//73 72//72 71//71 74//74
f 73//73 74//74 75//75 76//76
f 73//73 76//76 59//59 58//58
f 73//73 58//58 55//55 72//72
f 77//77 76//76 75//75 78//78
f 77//77 78//78 79//79 80//80
f 77//77 80//80 63//63 62//62
f 77//77 62//62 59//59 76//76
f 81//81 80//80 79//79 82//82
f 81//81 82//82 69//69 68//68
f 81//81 68//68 53//53 66//66
f 81//81 66//66 63//63 80//80
f 83//83 84//84 85//85 86//86
f 83//83 86//86 87//87 88//88
f 83//83 88//88 71//71 70//70
f 83//83 70//70 69//69 84//84
f 89//89 88//88 87//87 90//90
f 89//89 90//90 91//91 92//92
f 89//89 92//92 75//75 74//74
f 89//89 74//74 71//71 88//88
f 93//93 92//92 91//91 94//94
f 93//93 94//94 95//95 96//96
f 93//93 96//96 79//79 78//78
f 93//93 78//78 75//75 92//92
f 97//97 96//96 95//95 98//98
f 97//97 98//98 85//85 84//84
f 97//97 84//84 69//69 82//82
f 97//97 82//82 79//79 96//96
f 99//99 100//100 101//101 102//102
f 99//99 102//102 103//103 104//104
f 99//99 104//104 87//87 86//86
f 99//99 86//86 85//85 100//100
f 105//105 104//104 103//103 106//106
f 105//105 106//106 107//107 108//108
f 105//105 108//108 91//91 90//90
f 105//105 90//90 87//87 104//104
f 109//109 108//108 107//107 110//110
f 109//109 110//110 111//111 112//112
f 109//109 112//112 95//95 94//94
f 109//109 94//94 91//91 108//108
f 113//113 112//112 111//111 114//114
f 113//113 114//114 101//101 100//100
f 113//113 100//100 85//85 98//98
f 113//113 98//98 95//95 112//112
f 115//115 116//116 117//117 118//118
f 115//115 118//118 119//119 120//120
f 115//115 120//120 103//103 102//102
f 115//115 102//102 101//101 116//116
f 121//121 120//120 119//119 122//122
f 121//121 122//122 123//123 124//124
f 121//121 124//124 107//107 106//106
f 121//121 106//106 103//103 120//120
f 125//125 124//124 123//123 126//126
f 125//125 126//126 127//127 128//128
f 125//125 128//128 111//111 110//110
f 125//125 110//110 107//107 124//124
f 129//129 128//128 127//127 130//130
f 129//129 130//130 117//117 116//116
f 129//129 116//116 101//101 114//114
f 129//129 114//114 111//111 128//128
f 131//131 132//132 133//133 134//134
f 131//131 134//134 135//135 136//136
f 131//131 136//136 119//119 118//118
f 131//131 118//118 117//117 132//132
f 137//137 136//136 135//135 138//138
f 137//137 138//138 139//139 140//140
f 137//137 140//140 123//123 122//122
f 137//137 122//122 119//119 136//136
f 141//141 140//140 139//139 142//142
f 141//141 142//142 143//143 144//144
f 141//141 144//144 127//127 126//126
f 141//141 126//126 123//123 140//140
f 145//145 144//144 143//143 146//146
f 145//145 146//146 133//133 132//132
f 145//145 132//132 117//117 130//130
f 145//145 130//130 127//127 144//144
f 147//147 148//148 40//40 39//39
f 147//147 39//39 38//38 149//149
f 147//147 149//149 135//135 134//134
f 147//147 134//134 133//133 148//148
f 150//150 149//149 38//38 44//44
f 150//150 44//44 43//43 151//151
f 150//150 151//151 139//139 138//138
f 150//150 138//138 135//135 149//149
f 152//152 151//151 43//43 48//48
f 152//152 48//48 47//47 153//153
f 152//152 153//153 143//143 142//142
f 152//152 142//142 139//139 151//151
f 154//154 153//153 47//47 50//50
f 154//154 50//50 40//40 148//148
f 154//154 148//148 133//133 146//146
f 154//154 146//146 143//143 153//153
