# Blender v3.5.0 OBJ File: 'spine-models.blend'
# www.blender.org
mtllib spine_18.mtl
o spine_18_<bpy_struct,_Object("spine_18")>-simple_2.002
v 0.094301 0.007136 -0.462635
v 0.108009 0.032907 -0.556335
v 0.145684 -0.014244 -0.509311
v 0.031214 0.111575 -0.330357
v 0.022331 0.085772 -0.482566
v 0.007213 0.131538 -0.522234
v 0.059493 0.067770 -0.445203
v 0.001093 0.106313 -0.498555
v 0.072482 0.014826 -0.442252
v 0.049252 -0.033337 -0.427107
v -0.017955 0.038912 -0.455408
v -0.085864 0.090139 -0.464154
v 0.118440 0.009347 -0.412486
v 0.141469 -0.046073 -0.375000
v 0.158619 -0.067503 -0.456349
v 0.156140 -0.064417 -0.458621
v 0.158180 -0.080893 -0.431229
v 0.109292 0.007411 -0.285715
v 0.147294 -0.039462 -0.480972
v 0.048494 -0.080553 -0.373270
v -0.220412 0.172269 -0.396003
v -0.221187 0.136883 -0.358812
v -0.130168 0.135378 -0.344198
v -0.235780 0.144915 -0.314525
v -0.257153 0.071228 -0.303095
v -0.337482 0.197370 -0.426042
v -0.368327 0.182790 -0.305210
v -0.260398 0.159620 -0.234600
v -0.374657 0.000923 -0.170094
v -0.391230 0.133078 -0.191788
v -0.425476 0.125178 -0.171172
v -0.336794 0.083534 -0.047178
v -0.258962 0.164973 -0.150274
v 0.065673 0.123627 -0.138983
v -0.030536 0.164293 0.119822
v -0.264614 0.078151 -0.031533
v 0.173290 0.014988 -0.032429
v 0.153600 -0.040854 -0.034359
v 0.152243 0.032745 -0.127642
v 0.110406 0.081546 0.193242
v -0.095644 0.048597 0.203006
v 0.128883 0.203227 0.415629
v 0.224544 -0.002006 0.507136
v 0.186398 -0.013390 0.366139
v 0.100423 0.128116 0.297668
v -0.094926 0.031203 0.341098
v -0.070371 0.114660 0.267087
v 0.070056 0.154727 0.516484
v 0.060420 0.159653 0.565617
v -0.115249 0.153326 0.593961
v -0.218121 0.056471 0.683076
v -0.143824 0.159949 0.664427
v -0.111490 0.046818 0.464171
v -0.000731 0.053641 1.005414
v -0.024304 -0.059377 0.876727
v -0.015366 0.164307 0.819120
v 0.094416 0.003904 0.738956
v 0.213676 0.090110 0.563978
v -0.180208 0.202617 -0.426817
v -0.024657 0.214767 -0.381862
v 0.172303 -0.122765 -0.397914
v 0.108512 -0.162341 -0.340583
v 0.174194 -0.124038 -0.397755
v 0.184401 -0.129683 -0.352018
v 0.208272 -0.155821 -0.181815
v 0.200483 -0.127736 -0.365805
v 0.171418 -0.122179 -0.398096
v 0.147635 -0.092116 -0.331824
v 0.226337 -0.185690 -0.333363
v 0.133392 -0.210867 -0.127996
v 0.297318 -0.333638 -0.230877
v 0.260405 -0.257091 -0.277867
v 0.219976 -0.322802 -0.248576
v 0.204091 -0.342567 -0.162819
v 0.031994 -0.345746 -0.182319
v 0.051789 -0.311082 -0.237560
v -0.214557 -0.083445 -0.233750
v -0.069992 -0.114075 -0.282801
v -0.315346 -0.154382 -0.189465
v -0.194805 -0.304840 -0.203590
v -0.338254 -0.322333 -0.153500
v -0.293607 -0.271250 -0.204954
v -0.029159 -0.383780 -0.174984
v -0.113915 -0.433004 -0.140998
v -0.261376 -0.498073 -0.147665
v -0.270460 -0.321007 -0.145454
v 0.202354 -0.086066 -0.087245
v 0.164751 -0.020809 -0.102565
v 0.046838 -0.300508 -0.058419
v 0.159029 -0.104429 0.074265
v -0.069464 -0.443644 -0.049740
v -0.011010 -0.377583 -0.088166
v 0.071945 -0.197455 0.083586
v 0.003244 -0.155966 0.146183
v -0.056827 -0.177876 0.048075
v -0.183478 -0.074514 -0.023598
v -0.146367 -0.520335 -0.097427
v -0.204264 -0.473961 -0.111954
v -0.392280 -0.058764 -0.106199
v -0.330110 -0.191177 -0.086659
v -0.400233 -0.152494 -0.127849
v 0.120709 -0.074963 0.347761
v 0.003615 -0.093645 0.319833
v 0.147615 -0.093507 0.215756
v 0.092387 -0.114147 0.180484
v -0.041236 -0.069246 0.401774
v 0.092214 -0.111822 0.633938
v -0.127631 -0.084206 0.603984
v 0.051989 -0.079735 0.414422
v 0.204477 -0.058804 0.616210
v -0.032666 -0.079287 0.770219
v -0.152256 0.244809 0.765934
v -0.060400 0.283414 0.959279
v -0.056569 0.247109 0.866356
v -0.251784 0.201275 1.075026
v -0.160907 0.352082 1.165082
v -0.287612 0.109441 0.921745
v 0.045048 0.210238 1.073198
v -0.230398 0.197245 1.251867
v -0.059033 0.248734 1.284614
v -0.027869 0.305313 1.152657
v -0.267958 0.019608 0.756504
v -0.236693 0.051879 0.732619
v -0.266674 0.020599 0.754579
v -0.303808 -0.005011 0.804476
v -0.203452 -0.086070 0.827154
v -0.301629 -0.018185 1.030672
v -0.072937 -0.053701 0.989267
v 0.037932 -0.054615 1.110114
v -0.263955 -0.008666 1.161557
v -0.139846 0.159451 1.387245
v 0.172480 0.154864 1.349491
v 0.137782 0.145844 1.210074
v 0.070900 0.259306 1.186817
v 0.243592 0.213580 1.702064
v 0.266270 0.122709 1.698338
v 0.280243 0.158242 1.539661
v 0.159617 0.254072 1.659836
v 0.096660 0.342338 1.745562
v 0.222503 0.281334 1.802892
v 0.050433 0.184929 1.813771
v 0.102642 0.203239 1.650383
v -0.003540 0.394751 1.821993
v 0.198463 0.407286 1.900026
v 0.065565 0.495269 1.909496
v 0.036851 0.213205 1.921343
v 0.076179 0.148368 1.887555
v 0.161050 0.200717 1.898283
v 0.129461 0.258706 1.990004
v 0.025071 0.243354 2.030868
v -0.068426 0.355946 1.994589
v -0.046323 0.342603 1.941863
v -0.000899 0.264111 2.219129
v -0.099061 0.338552 2.148109
v 0.231444 0.699362 2.467746
v 0.329317 0.603432 2.376740
v 0.149963 0.732118 2.338209
v 0.125570 0.481005 2.226362
v 0.134687 0.446960 2.219726
v 0.076882 0.520532 2.148020
v 0.125388 0.327223 2.327872
v 0.316979 0.505278 2.344661
v 0.326352 0.543835 2.373134
v 0.215689 0.416897 2.378477
v 0.342624 0.685544 2.483051
v 0.335510 0.683682 2.557694
v 0.231588 0.487367 2.557804
v 0.181262 0.367972 2.482546
v 0.044927 0.522143 2.256767
v 0.149486 0.658129 2.631464
v 0.103206 0.720728 2.505343
v 0.038429 0.589370 2.512741
v -0.003331 0.515358 2.459766
v -0.009242 0.484288 2.191751
v -0.094882 0.400537 2.343598
v -0.168488 0.236013 2.414005
v -0.163111 0.342976 2.255935
v -0.088181 0.211742 2.301073
v -0.066698 0.288045 2.447493
v 0.004287 0.271008 2.328407
v -0.066328 0.292910 2.461807
v 0.006306 0.525789 2.476436
v 0.006057 0.358836 2.474579
v 0.006309 0.525768 2.476177
v -0.041686 0.298274 2.483740
v -0.043593 0.295316 2.483056
v 0.160769 0.484229 2.604786
v 0.033305 0.324470 2.493336
v 0.239141 0.786416 2.671937
v 0.357579 0.714528 2.678183
v 0.296267 0.606793 2.641327
v 0.183956 0.722206 2.672967
v 0.278489 0.564949 2.594650
v 0.179227 0.473916 2.084424
v 0.202964 0.458110 1.976538
v 0.006557 0.479596 2.045820
v -0.074586 0.213932 2.272141
v 0.189745 0.040453 1.417963
v 0.186353 0.016655 1.316200
v 0.160509 0.041258 1.587472
v 0.108227 -0.059534 1.491525
v -0.016828 0.002420 1.627431
v -0.094143 0.012531 1.597599
v -0.020146 0.092218 1.599125
v -0.113996 0.030324 1.548239
v -0.208739 0.050846 1.502384
v 0.224416 0.045416 1.508973
v 0.050506 0.077351 1.831016
v -0.003622 0.080104 1.719079
v 0.171187 0.137812 1.857240
v -0.246699 0.003793 1.327606
v -0.078265 0.217864 2.270110
v 0.090354 -0.050949 1.208331
v -0.062365 0.195599 0.755108
v 0.234019 0.097331 1.271693
v 0.013982 0.138535 1.656750
v 0.073312 0.161455 1.624723
v -0.204550 0.167962 -0.404135
v -0.168772 -0.267451 -0.042789
v -0.022963 -0.090248 0.243204
v 0.055623 0.288613 2.450981
vn -0.0128 0.1077 -0.9941
vn 0.3960 -0.0022 -0.9183
vn 0.5394 0.1079 -0.8351
vn 0.6209 0.7811 0.0661
vn 0.4037 0.0266 -0.9145
vn 0.4124 0.1469 -0.8991
vn 0.7097 0.7003 -0.0771
vn 0.0915 0.6951 -0.7130
vn 0.2386 -0.1494 -0.9596
vn -0.3957 -0.5600 -0.7279
vn -0.3608 -0.5716 -0.7369
vn 0.0915 0.6952 -0.7130
vn -0.4707 -0.4382 -0.7658
vn 0.7807 0.6198 -0.0790
vn 0.9246 0.3627 0.1167
vn 0.4660 -0.7881 -0.4021
vn 0.5975 -0.4348 -0.6738
vn 0.7210 -0.4601 -0.5182
vn 0.8617 0.4948 -0.1123
vn 0.5987 -0.2392 -0.7644
vn 0.5393 0.1079 -0.8352
vn 0.5976 -0.4347 -0.6738
vn 0.2387 -0.1493 -0.9596
vn -0.3675 -0.6360 -0.6786
vn 0.4660 -0.7882 -0.4021
vn -0.9501 0.3106 -0.0282
vn -0.9684 -0.1440 0.2035
vn -0.0088 0.8836 0.4682
vn 0.2402 0.7988 -0.5516
vn -0.4647 -0.4535 -0.7605
vn -0.2848 0.3688 -0.8848
vn -0.7930 0.5693 -0.2168
vn 0.1497 0.9848 0.0878
vn -0.7031 -0.2786 -0.6543
vn -0.7104 0.6992 -0.0800
vn -0.8326 0.5254 -0.1754
vn -0.4231 0.3693 0.8274
vn -0.3514 0.9329 0.0785
vn 0.4922 0.8624 -0.1184
vn -0.0235 0.9219 0.3866
vn -0.5173 0.3287 0.7902
vn 0.9733 0.2114 -0.0893
vn 0.9912 0.1288 0.0309
vn 0.8563 0.4977 -0.1383
vn 0.7163 0.6977 -0.0100
vn -0.9285 0.2186 0.3003
vn 0.1571 0.9550 -0.2517
vn 0.9735 -0.1756 -0.1468
vn 0.9034 -0.2474 -0.3502
vn 0.4108 0.8500 -0.3297
vn -0.9744 -0.2099 -0.0807
vn -0.5436 0.7776 -0.3160
vn -0.4885 0.8531 -0.1834
vn 0.2114 0.9624 0.1708
vn -0.4859 0.8339 -0.2618
vn -0.9084 0.1092 -0.4036
vn -0.5200 0.7565 -0.3966
vn -0.9609 -0.0730 -0.2673
vn 0.9419 -0.1392 -0.3057
vn 0.7327 -0.6748 0.0883
vn 0.9086 0.4101 0.0797
vn 0.6630 -0.0525 0.7468
vn 0.8249 0.4922 0.2781
vn -0.6203 0.7177 -0.3164
vn 0.3532 0.8969 0.2662
vn -0.3112 -0.6994 -0.6434
vn -0.2177 -0.5697 -0.7925
vn 0.5657 -0.7200 -0.4020
vn -0.3113 -0.6994 -0.6434
vn 0.9586 0.0856 -0.2716
vn 0.9617 0.1795 0.2072
vn 0.8114 0.2233 -0.5401
vn 0.3140 -0.5257 0.7906
vn 0.8663 0.4981 0.0379
vn 0.6978 -0.0657 -0.7132
vn 0.5861 -0.7863 -0.1953
vn 0.8403 -0.5387 -0.0606
vn 0.8131 -0.0336 -0.5812
vn 0.0067 -0.7729 -0.6345
vn 0.4307 -0.7279 0.5336
vn 0.3428 -0.9291 -0.1390
vn -0.1620 -0.6214 -0.7666
vn -0.3114 0.0350 -0.9496
vn -0.3606 -0.4565 -0.8134
vn -0.5087 -0.0414 -0.8599
vn -0.1418 -0.3344 -0.9317
vn -0.6217 -0.7827 0.0279
vn -0.3903 -0.2556 -0.8845
vn 0.2666 -0.7592 -0.5938
vn 0.2945 -0.6303 -0.7183
vn -0.5906 -0.7987 -0.1152
vn -0.5715 -0.7263 0.3819
vn 0.9714 0.1902 0.1422
vn 0.7430 0.4487 0.4966
vn 0.6426 -0.6538 0.3996
vn 0.9064 -0.3647 0.2132
vn 0.4013 -0.7692 0.4973
vn 0.7390 -0.6676 0.0910
vn 0.3712 -0.7417 0.5587
vn -0.3163 -0.7824 0.5365
vn -0.5225 -0.4281 0.7374
vn -0.5641 -0.2916 0.7725
vn -0.0465 -0.9983 0.0363
vn -0.3112 -0.7691 0.5582
vn -0.8820 -0.0436 0.4692
vn -0.3537 -0.3084 0.8831
vn -0.9764 -0.2147 0.0229
vn 0.5253 -0.8483 -0.0673
vn -0.3211 -0.9406 0.1106
vn 0.8133 -0.5319 0.2359
vn 0.2648 -0.9014 0.3427
vn -0.5693 -0.8093 -0.1445
vn 0.2614 -0.9411 0.2146
vn -0.5625 -0.7941 -0.2304
vn 0.0372 -0.9993 0.0014
vn 0.7884 -0.5159 0.3350
vn 0.3746 -0.8675 0.3272
vn -0.2968 0.8248 -0.4813
vn 0.5691 0.7752 -0.2742
vn 0.6192 0.7307 -0.2875
vn -0.9188 0.3943 0.0166
vn -0.3121 0.9244 0.2191
vn -0.9234 0.3658 -0.1162
vn 0.8109 0.3163 -0.4924
vn -0.8002 0.4433 0.4039
vn 0.0819 0.8070 0.5848
vn 0.4303 0.9011 0.0542
vn -0.4931 0.8667 0.0755
vn -0.7973 0.5234 -0.3006
vn -0.8401 0.0559 -0.5395
vn -0.8820 -0.2615 -0.3920
vn -0.4931 0.8667 0.0756
vn -0.3359 -0.9389 -0.0749
vn -0.8204 -0.5379 0.1936
vn 0.2822 -0.9555 0.0858
vn 0.5336 -0.7910 -0.2994
vn -0.7702 -0.6133 0.1749
vn -0.4566 0.7590 0.4643
vn 0.6455 0.7637 -0.0010
vn 0.8297 0.3535 -0.4321
vn 0.6735 0.7245 0.1467
vn 0.8299 0.5483 -0.1030
vn 0.8612 -0.4212 0.2845
vn 0.8614 0.4000 -0.3130
vn -0.0847 0.8153 -0.5728
vn -0.1777 0.5516 -0.8150
vn 0.9445 0.3284 0.0038
vn -0.9938 0.0047 -0.1115
vn -0.6218 0.7204 -0.3073
vn -0.6453 0.4560 -0.6129
vn 0.8930 0.3666 -0.2610
vn -0.1502 0.8686 -0.4723
vn -0.5455 -0.7727 0.3247
vn -0.3681 -0.5499 0.7497
vn 0.6231 -0.4154 0.6627
vn 0.6560 -0.6639 0.3589
vn -0.3151 -0.9459 0.0771
vn -0.9504 0.0144 -0.3108
vn -0.9677 -0.0590 -0.2451
vn 0.1385 -0.9839 -0.1132
vn -0.9411 -0.1054 -0.3212
vn 0.2750 0.9412 -0.1964
vn 0.8197 0.3188 -0.4758
vn -0.1007 0.8546 -0.5094
vn 0.5665 0.4968 -0.6574
vn 0.9576 0.0293 -0.2865
vn 0.1020 0.9947 0.0096
vn 0.6777 -0.7311 -0.0789
vn 0.8500 -0.3271 -0.4129
vn 0.9726 -0.2322 0.0118
vn 0.6514 -0.7135 -0.2581
vn 0.7912 0.5855 -0.1766
vn 0.9379 0.3315 -0.1022
vn 0.6435 -0.5932 0.4837
vn 0.5737 -0.7391 0.3530
vn -0.4119 0.8484 -0.3325
vn -0.6222 -0.0442 0.7816
vn -0.5489 0.8280 0.1143
vn -0.8876 0.2573 0.3820
vn -0.8555 0.4629 0.2320
vn -0.6567 0.7454 -0.1140
vn -0.7889 0.5661 0.2391
vn -0.6785 -0.5166 0.5223
vn -0.9208 0.2658 -0.2854
vn -0.8758 -0.4385 0.2017
vn -0.2046 -0.3934 0.8963
vn 0.3975 -0.9098 0.1197
vn 0.8742 -0.2298 -0.4277
vn 0.2893 0.8525 0.4353
vn -0.6145 0.1748 0.7693
vn -0.7168 0.6550 0.2390
vn -0.7168 0.6550 0.2391
vn 0.2892 0.8525 0.4353
vn -0.6072 0.0510 -0.7929
vn -0.5591 -0.4256 0.7116
vn -0.0988 -0.4307 0.8971
vn -0.0815 -0.4183 0.9047
vn -0.5591 -0.4256 0.7115
vn -0.1288 0.8980 0.4208
vn 0.8036 0.2206 0.5528
vn 0.5281 -0.5371 0.6577
vn -0.5926 0.2957 0.7492
vn 0.7452 -0.5831 0.3236
vn 0.8877 0.4301 0.1644
vn 0.9235 0.3807 -0.0470
vn -0.6586 0.7372 -0.1509
vn -0.0232 -0.9644 -0.2633
vn 0.9287 -0.3629 -0.0757
vn 0.8749 -0.4560 -0.1634
vn 0.3845 -0.8600 0.3354
vn 0.3258 -0.9174 0.2284
vn -0.2889 -0.6805 0.6734
vn -0.7531 -0.3495 0.5574
vn -0.7457 0.5080 0.4312
vn -0.7573 -0.2659 0.5965
vn -0.7452 -0.0012 0.6668
vn 0.6336 -0.7645 -0.1184
vn -0.4341 -0.7041 0.5620
vn -0.8770 -0.3062 0.3704
vn 0.5636 -0.5659 0.6018
vn -0.8306 -0.4842 0.2751
vn 0.0190 -0.2469 -0.9689
vn 0.5143 -0.7984 -0.3131
vn 0.3839 0.8824 -0.2720
vn 0.5657 -0.7200 -0.4019
vn 0.9528 -0.0162 -0.3032
vn -0.6647 0.7397 0.1051
vn -0.3973 0.8657 -0.3046
vn -0.8758 -0.4385 0.2016
vn -0.7300 0.4347 -0.5274
vn 0.9586 0.0856 -0.2717
vn -0.5988 -0.1504 0.7867
vn -0.6241 -0.7662 0.1532
vn 0.2767 -0.9027 0.3296
vn 0.8743 -0.2298 -0.4277
usemtl color.basal_dendrites_skeleton_color_0_color.010
s 1
f 1//1 2//2 3//3
f 4//4 5//5 6//6
f 4//4 7//7 8//8
f 9//9 10//10 11//11
f 8//12 12//13 5//5
f 5//5 7//7 2//2
f 10//10 9//9 1//1
f 5//5 11//11 8//12
f 13//14 14//15 15//16
f 16//17 14//15 17//18
f 18//19 14//15 13//14
f 13//14 19//20 3//21
f 1//1 13//14 3//21
f 16//22 10//10 19//20
f 7//7 13//14 9//23
f 9//23 13//14 1//1
f 20//24 10//10 15//25
f 21//26 12//13 22//27
f 23//28 24//29 4//4
f 11//11 25//30 12//13
f 24//29 25//30 26//31
f 27//32 28//33 26//31
f 26//31 28//33 24//29
f 25//30 29//34 27//32
f 25//30 24//29 12//13
f 24//29 23//28 22//27
f 30//35 31//36 32//37
f 33//38 34//39 24//29
f 33//38 35//40 34//39
f 36//41 35//40 33//38
f 37//42 38//43 39//44
f 34//39 37//42 39//44
f 35//40 40//45 34//39
f 41//46 40//45 35//40
f 42//47 43//48 44//49
f 42//47 44//49 45//50
f 46//51 47//52 41//46
f 48//53 49//54 42//47
f 47//52 50//55 48//53
f 50//55 51//56 52//57
f 52//57 49//54 50//55
f 50//55 47//52 53//58
f 54//59 55//60 56//61
f 56//61 57//62 49//54
f 58//63 43//48 42//47
f 1//1 3//21 19//20 10//10
f 48//53 42//47 45//50
f 47//52 48//53 45//50
f 40//45 37//42 34//39
f 59//64 60//65 6//6
f 11//11 12//13 8//12
f 6//6 12//13 59//64
f 4//4 18//19 13//14
f 61//66 62//67 63//68
f 63//68 62//67 20//24
f 61//69 20//24 17//18
f 64//70 65//71 66//72
f 61//66 66//72 67//73
f 68//74 65//71 64//70
f 65//71 69//75 66//72
f 65//71 70//76 71//77
f 72//78 71//77 73//79
f 74//80 73//79 71//77
f 74//80 71//77 70//76
f 65//71 72//78 69//75
f 65//71 68//74 18//19
f 75//81 76//82 73//79
f 73//79 69//75 72//78
f 76//82 62//67 69//75
f 77//83 29//34 78//84
f 79//85 29//34 77//83
f 80//86 81//87 82//88
f 80//86 77//83 78//84
f 83//89 78//84 76//82
f 83//89 84//90 80//86
f 76//82 75//81 83//89
f 85//91 86//92 80//86
f 38//43 87//93 88//94
f 65//71 89//95 70//76
f 87//93 90//96 65//71
f 89//95 74//80 70//76
f 91//97 92//98 93//99
f 89//95 93//99 92//98
f 90//96 93//99 89//95
f 94//100 41//46 95//101
f 94//100 95//101 93//99
f 41//46 96//102 95//101
f 84//90 91//97 97//103
f 91//97 84//90 83//89
f 84//90 97//103 98//104
f 36//41 99//105 100//106
f 100//106 81//87 86//92
f 100//106 99//105 101//107
f 36//41 100//106 96//102
f 85//91 98//104 86//92
f 102//108 103//109 104//110
f 93//99 90//96 105//111
f 46//51 106//112 53//58
f 107//113 108//114 106//112
f 108//114 51//56 53//58
f 106//112 103//109 109//115
f 57//62 110//116 58//63
f 57//62 111//117 107//113
f 43//48 110//116 102//108
f 37//42 90//96 38//43
f 112//118 113//119 114//120
f 115//121 116//122 117//123
f 112//118 116//122 113//119
f 118//124 54//59 113//119
f 119//125 120//126 116//122
f 116//122 121//127 113//119
f 122//128 123//129 124//130
f 125//131 122//128 124//130
f 122//132 126//133 124//130
f 126//133 125//131 124//130
f 127//134 126//133 128//135
f 127//134 115//121 117//123
f 129//136 130//137 128//135
f 54//59 129//136 128//135
f 126//133 127//134 125//131
f 131//138 132//139 120//126
f 133//140 120//126 132//139
f 133//140 134//141 120//126
f 135//142 136//143 137//144
f 138//145 135//142 137//144
f 139//146 140//147 138//145
f 141//148 139//146 138//145
f 141//148 138//145 142//149
f 136//143 135//142 140//147
f 141//148 143//150 139//146
f 144//151 143//150 145//152
f 146//153 147//154 148//155
f 144//151 149//156 148//155
f 150//157 151//158 152//159
f 153//160 154//161 150//157
f 150//157 154//161 151//158
f 152//159 145//152 143//150
f 141//148 146//153 152//159
f 149//156 150//157 146//153
f 144//151 148//155 140//147
f 155//162 156//163 157//164
f 158//165 159//166 160//167
f 161//168 149//156 159//166
f 149//156 161//168 153//160
f 156//163 162//169 159//166
f 163//170 162//169 156//163
f 164//171 161//168 159//166
f 165//172 166//173 156//163
f 156//163 155//162 165//172
f 163//170 167//174 162//169
f 162//169 167//174 168//175
f 158//165 169//176 157//164
f 156//163 158//165 157//164
f 166//173 163//170 156//163
f 170//177 171//178 172//179
f 173//180 169//176 174//181
f 175//182 173//180 174//181
f 176//183 177//184 178//185
f 179//186 180//187 181//188
f 182//189 183//190 184//191
f 173//180 182//189 184//192
f 172//179 182//193 184//191
f 184//192 169//176 173//180
f 185//194 179//186 186//195
f 187//196 183//190 188//197
f 188//197 183//190 186//198
f 189//199 190//200 166//173
f 191//201 190//200 192//202
f 192//202 189//199 155//162
f 191//201 170//177 187//196
f 187//196 167//174 193//203
f 187//196 168//175 167//174
f 194//204 144//151 195//205
f 174//181 160//167 196//206
f 197//207 177//184 154//161
f 177//184 175//182 154//161
f 171//178 155//162 157//164
f 155//162 166//173 165//172
f 174//181 169//176 160//167
f 161//168 180//187 153//160
f 191//201 193//203 166//173
f 197//207 154//161 153//160
f 198//208 199//209 132//139
f 200//210 201//211 198//208
f 202//212 203//213 201//211
f 203//213 204//214 205//215
f 206//216 205//215 131//138
f 136//143 200//210 207//217
f 208//218 141//148 209//219
f 147//154 208//218 210//220
f 132//139 207//217 198//208
f 207//217 200//210 198//208
f 209//219 204//214 202//212
f 205//215 206//216 211//221
f 208//218 209//219 200//210
f 179//186 176//183 212//222
f 118//124 213//223 129//136
f 211//221 130//137 201//211
f 114//120 56//61 214//224
f 112//118 214//224 52//57
f 108//114 126//133 51//56
f 128//135 126//133 55//60
f 54//59 128//135 55//60
f 16//17 20//24 15//25
f 14//15 61//69 17//18
f 68//74 14//15 18//19
f 14//15 68//74 63//225
f 99//105 36//41 32//37
f 96//102 41//46 36//41
f 44//49 102//108 40//45
f 51//56 50//55 53//58
f 55//60 111//117 56//61
f 111//117 57//62 56//61
f 130//137 115//121 127//134
f 54//59 118//124 129//136
f 132//139 199//209 215//226
f 215//226 199//209 133//140
f 207//217 137//144 136//143
f 216//227 217//228 204//214
f 212//222 177//184 197//207
f 178//229 179//186 212//222
f 51//56 123//129 52//57
f 2//2 1//1 9//9 11//11
f 4//4 8//8 5//5
f 5//5 8//8 7//7
f 20//24 11//11 10//10
f 6//6 5//5 12//13
f 59//64 21//26 23//28 60//65
f 1//1 3//3 7//7
f 7//7 3//3 2//2
f 2//2 11//11 5//5
f 9//23 1//1 7//7
f 6//6 60//65 4//4
f 15//16 16//22 13//14
f 16//17 15//16 14//15
f 13//14 16//22 19//20
f 16//22 15//25 10//10
f 7//7 4//4 13//14
f 21//26 22//27 218//230
f 21//26 22//27 23//28
f 12//13 21//26 218//230
f 60//65 23//28 4//4
f 11//11 29//34 25//30
f 33//38 28//33 32//37
f 27//32 32//37 28//33
f 25//30 27//32 26//31
f 28//33 33//38 24//29
f 22//27 12//13 24//29
f 59//64 22//27 21//26
f 218//230 22//27 59//64
f 59//64 12//13 218//230
f 67//73 66//72 64//231 62//67
f 30//35 29//34 31//36
f 4//4 34//39 18//19
f 4//4 24//29 34//39
f 39//44 38//43 88//94
f 36//41 41//46 35//40
f 34//39 39//44 18//19
f 27//32 30//35 32//37
f 27//32 29//34 30//35
f 33//38 32//37 36//41
f 40//45 41//46 47//52
f 45//50 40//45 47//52
f 40//45 45//50 44//49
f 40//45 104//110 37//42
f 47//52 46//51 53//58
f 50//55 49//54 48//53
f 214//224 56//61 49//54
f 52//57 214//224 49//54
f 42//47 49//54 58//63
f 39//44 88//94 87//93
f 61//66 67//73 62//67
f 61//69 63//68 20//24
f 64//70 66//72 68//74
f 61//66 68//74 66//72
f 61//66 63//225 68//74
f 64//231 66//72 69//75 62//67
f 62//67 78//84 20//24
f 62//67 76//82 78//84
f 125//131 117//123 123//129 122//128
f 71//77 72//78 65//71
f 39//44 87//93 65//71
f 74//80 75//81 73//79
f 18//19 39//44 65//71
f 69//75 73//79 76//82
f 77//83 80//86 82//88
f 79//85 82//88 81//87
f 78//84 29//34 11//11
f 77//83 82//88 79//85
f 101//107 99//105 29//34
f 83//89 75//81 92//98
f 83//89 80//86 78//84
f 96//102 100//106 86//92
f 98//104 97//103 95//101
f 98//104 95//101 219//232
f 219//232 86//92 98//104
f 38//43 90//96 87//93
f 90//96 89//95 65//71
f 74//80 89//95 75//81
f 89//95 92//98 75//81
f 95//101 97//103 93//99
f 219//232 95//101 96//102
f 84//90 85//91 80//86
f 97//103 91//97 93//99
f 219//232 96//102 86//92
f 98//104 85//91 84//90
f 86//92 81//87 80//86
f 79//85 101//107 29//34
f 79//85 81//87 101//107
f 83//89 92//98 91//97
f 100//106 101//107 81//87
f 37//42 104//110 90//96
f 94//100 93//99 105//111
f 105//111 220//233 94//100
f 41//46 94//100 220//233
f 105//111 104//110 103//109
f 103//109 220//233 105//111
f 44//49 43//48 102//108
f 90//96 104//110 105//111
f 220//233 46//51 41//46
f 103//109 106//112 46//51
f 103//109 46//51 220//233
f 110//116 107//113 109//115
f 109//115 107//113 106//112
f 53//58 106//112 108//114
f 49//54 57//62 58//63
f 57//62 107//113 110//116
f 111//117 55//60 126//133
f 126//133 108//114 111//117
f 111//117 108//114 107//113
f 102//108 110//116 109//115
f 102//108 109//115 103//109
f 113//119 56//61 114//120
f 112//118 117//123 116//122
f 113//119 121//127 118//124
f 130//137 119//125 115//121
f 119//125 116//122 115//121
f 123//129 51//56 124//130
f 51//56 122//132 124//130
f 175//182 176//183 179//186 183//190
f 51//56 126//133 122//132
f 125//131 127//134 117//123
f 130//137 211//221 119//125
f 130//137 127//134 128//135
f 213//223 130//137 129//136
f 120//126 134//141 121//127
f 134//141 133//140 118//124
f 119//125 131//138 120//126
f 133//140 132//139 215//226
f 132//139 131//138 217//228
f 142//149 217//228 216//227
f 137//144 217//228 138//145
f 209//219 141//148 142//149
f 138//145 140//147 135//142
f 138//145 217//228 142//149
f 140//147 210//220 136//143
f 141//148 152//159 143//150
f 139//146 143//150 144//151
f 144//151 145//152 195//205
f 144//151 159//166 149//156
f 149//156 146//153 148//155
f 196//206 145//152 152//159
f 196//206 154//161 174//181
f 145//152 196//206 160//167
f 147//154 146//153 141//148
f 146//153 150//157 152//159
f 139//146 144//151 140//147
f 152//159 151//158 196//206
f 154//161 196//206 151//158
f 132//139 217//228 137//144
f 148//155 210//220 140//147
f 194//204 159//166 144//151
f 160//167 169//176 158//165
f 159//166 194//204 160//167
f 159//166 162//169 164//171
f 156//163 159//166 158//165
f 161//168 164//171 168//175
f 161//168 168//175 221//234
f 162//169 168//175 164//171
f 163//170 193//203 167//174
f 193//203 163//170 166//173
f 169//176 171//178 157//164
f 172//179 171//178 169//176
f 177//184 176//183 175//182
f 178//229 197//207 180//187 179//186
f 172//179 184//191 183//190 187//196
f 183//190 182//189 173//180
f 182//193 172//179 169//176 184//192
f 221//234 168//175 187//196 188//197
f 187//196 170//177 172//179
f 185//194 186//195 181//235 183//190
f 188//197 186//198 221//234
f 181//188 186//195 179//186
f 179//186 185//194 183//190
f 180//187 221//234 186//198 181//188
f 181//235 186//198 183//190
f 194//204 195//205 145//152 160//167
f 154//161 175//182 174//181
f 183//190 173//180 175//182
f 166//173 190//200 191//201
f 155//162 189//199 166//173
f 192//202 190//200 189//199
f 191//201 187//196 193//203
f 170//177 192//202 171//178
f 155//162 171//178 192//202
f 191//201 192//202 170//177
f 149//156 153//160 150//157
f 180//187 197//207 153//160
f 221//234 180//187 161//168
f 199//209 201//211 213//223
f 199//209 198//208 201//211
f 131//138 204//214 217//228
f 203//213 205//215 201//211
f 201//211 205//215 211//221
f 202//212 204//214 203//213
f 136//143 210//220 200//210
f 208//218 147//154 141//148
f 204//214 209//219 216//227
f 206//216 131//138 211//221
f 131//138 205//215 204//214
f 209//219 201//211 200//210
f 210//220 208//218 200//210
f 201//211 209//219 202//212
f 121//127 134//141 118//124
f 121//127 116//122 120//126
f 201//211 130//137 213//223
f 123//129 117//123 52//57
f 52//57 117//123 112//118
f 214//224 112//118 114//120
f 113//119 54//59 56//61
f 16//17 17//18 20//24
f 14//15 63//225 61//69
f 20//24 78//84 11//11
f 29//34 99//105 31//36
f 99//105 32//37 31//36
f 102//108 104//110 40//45
f 58//63 110//116 43//48
f 133//140 199//209 213//223
f 118//124 133//140 213//223
f 211//221 131//138 119//125
f 209//219 142//149 216//227
f 210//220 148//155 147//154
f 132//139 137//144 207//217
f 178//229 212//222 197//207
f 212//222 178//185 177//184
f 178//185 212//222 176//183
