# Blender v2.82 (sub 7) OBJ File: 'eyewire-neuron-em-stack.blend'
# www.blender.org
mtllib spine_45.mtl
o <bpy_struct,_Object("spine_45")>-simple_2.092
v -0.669584 -0.353215 -0.776973
v -0.708332 -0.129173 -0.753589
v -0.734899 0.024485 -0.671556
v -0.583038 -0.366064 -0.481471
v -0.642801 -0.443533 -0.232324
v -0.677151 -0.409888 -0.568896
v -0.696753 -0.163228 -0.264357
v -0.585418 -0.250282 -0.252204
v -0.736518 -0.049247 -0.250295
v -0.687397 0.027439 -0.547894
v -0.627965 -0.276243 -0.156496
v -0.654168 -0.179794 -0.112457
v -0.680266 -0.064992 -0.145817
v -0.511786 -0.612412 -0.763629
v -0.498284 -0.526753 -0.310478
v -0.342620 -0.658667 -0.390669
v -0.393433 -0.574522 -0.300376
v -0.288395 -0.571441 -0.249422
v -0.242534 -0.597678 -0.542980
v -0.061054 -0.609382 -0.390094
v 0.042172 -0.571482 -0.268583
v -0.093104 -0.494944 -0.202836
v -0.417837 -0.521512 -0.844353
v -0.351200 -0.378710 -0.580520
v -0.440122 -0.378025 -0.812700
v -0.273402 -0.239570 -0.727396
v -0.356197 -0.553954 -0.784437
v -0.272945 -0.488471 -0.665532
v -0.435180 -0.078352 -0.739517
v -0.444027 0.029958 -0.689212
v 0.019973 -0.292570 -0.897568
v -0.230016 -0.477126 -0.834952
v -0.120090 -0.352814 -0.862181
v -0.057930 -0.504093 -0.746220
v 0.018942 -0.391169 -0.864935
v 0.019973 -0.292571 -0.897568
v -0.100261 -0.087948 -0.581827
v -0.106927 -0.174737 -0.674923
v -0.215392 0.015443 -0.578899
v -0.014974 -0.203117 -0.798085
v 0.202015 -0.110292 -0.705004
v -0.453345 -0.355539 -0.483471
v -0.562236 -0.186888 -0.330373
v -0.451687 -0.400141 -0.350991
v -0.399795 -0.542651 -0.316141
v -0.445415 -0.572805 -0.234374
v -0.482086 -0.327104 -0.083317
v -0.282535 -0.430209 -0.105540
v -0.257862 -0.191258 -0.002160
v -0.336205 -0.087904 0.003500
v 0.062948 -0.263858 -0.035355
v 0.175398 -0.464670 -0.151539
v 0.027260 0.027172 0.104033
v -0.115207 0.038733 0.208594
v 0.010833 -0.055083 0.133365
v 0.007045 0.101394 0.236565
v -0.375686 -0.034488 2.339186
v -0.507093 0.018625 2.463524
v -0.130444 -0.141268 2.422793
v -0.069286 0.064322 2.370718
v 0.027073 -0.052794 2.415040
v -0.593090 0.042979 2.772668
v -0.581526 0.044166 2.809526
v -0.191811 -0.334056 2.714918
v -0.433244 -0.275209 2.769453
v -0.572013 -0.120698 2.714838
v -0.491296 -0.178521 2.408909
v -0.589843 0.001000 2.758849
v -0.428487 -0.235875 2.887086
v -0.523679 0.116478 3.026165
v -0.280117 -0.155266 3.091293
v 0.061416 -0.336973 2.673107
v 0.053919 -0.274572 2.961908
v 0.084343 -0.353190 2.797177
v -0.326571 0.129535 3.233794
v -0.005465 -0.124326 3.227086
v -0.713341 0.065580 -0.311543
v -0.417802 0.089945 -0.534611
v -0.140052 0.091834 -0.187961
v -0.304987 0.006968 -0.047444
v 0.084103 0.103367 -0.367886
v -0.143929 0.135585 0.125462
v -0.091256 0.180329 0.093826
v -0.078820 0.126976 0.173545
v -0.104805 0.178114 0.207180
v -0.096450 0.254883 0.268761
v -0.033171 0.178119 0.472878
v -0.086555 0.113917 0.307067
v -0.080950 0.285875 0.448768
v -0.045989 0.283294 0.654801
v -0.052262 0.386257 0.321299
v -0.026985 0.473481 0.511986
v -0.006140 0.526449 0.729890
v -0.281358 0.435421 1.233526
v 0.011367 0.226633 0.850540
v -0.069243 0.269319 0.881292
v -0.246757 0.249775 1.208147
v -0.008731 0.225296 1.078178
v -0.113440 0.276962 1.038152
v -0.090510 0.512993 0.692943
v -0.085888 0.410337 0.981494
v -0.172822 0.460354 1.059089
v -0.017530 0.455212 1.138634
v 0.094778 0.376937 1.236754
v -0.375146 0.383168 1.698085
v -0.305552 0.287030 1.728401
v -0.426544 0.249090 1.848505
v -0.293716 0.344315 1.442018
v -0.292172 0.476778 1.761143
v -0.406301 0.381534 1.882230
v -0.275531 0.383464 1.923676
v -0.231819 0.253538 1.530466
v -0.111676 0.224033 1.444897
v 0.074569 0.311548 1.317421
v 0.105948 0.382423 1.644700
v -0.174661 0.268906 1.744734
v -0.201696 0.295882 1.775076
v -0.201696 0.295882 1.775076
v -0.201695 0.295883 1.775074
v -0.046310 0.347971 1.697330
v -0.141650 0.532033 1.430309
v -0.246115 0.435093 1.549164
v -0.080809 0.512782 1.268498
v 0.097046 0.560185 1.514292
v -0.121978 0.426615 1.675138
v -0.326027 0.158065 2.037314
v -0.224081 0.211349 1.934967
v -0.348604 0.246501 2.159990
v -0.238021 0.340406 2.039287
v -0.346484 0.130564 2.254677
v -0.305307 0.217570 2.312356
v -0.187542 0.183762 2.200893
v -0.207914 0.246196 2.196814
v -0.105673 0.195677 2.405582
v -0.551463 0.154150 2.791482
v -0.395610 0.255953 2.512340
v -0.415665 0.380483 2.595319
v -0.525951 0.584061 2.928534
v -0.507497 0.546636 2.707120
v -0.495402 0.692979 2.814098
v -0.312570 0.566679 2.630949
v -0.358402 0.757838 2.766315
v -0.442670 0.461108 3.073773
v -0.461665 0.576998 3.003425
v -0.175121 0.327850 2.562278
v -0.106155 0.534872 2.635932
v -0.117663 0.489987 3.078678
v -0.341133 0.301593 3.250077
v -0.097458 0.090524 3.400461
v -0.119591 0.358687 3.255147
v 0.002612 0.162200 3.472545
v 0.048111 0.234946 3.426757
v -0.136585 0.694262 2.926671
v 0.019972 -0.292571 -0.897567
v 0.216257 -0.281210 -0.925916
v 0.179841 -0.291352 -0.716581
v 0.070494 -0.188888 -0.900962
v 0.202965 -0.054734 -0.593709
v 0.236483 -0.156029 -0.815328
v 0.343492 -0.115252 -0.738569
v 0.428603 -0.090586 -0.603688
v 0.247492 -0.428045 -0.320252
v 0.265056 -0.261115 -0.545623
v 0.297636 -0.494298 -0.242459
v 0.318661 -0.339068 -0.160199
v 0.398784 0.007045 -0.473153
v 0.302497 0.076492 -0.433306
v 0.039982 0.068115 -0.116391
v 0.146769 -0.059414 -0.071428
v 0.225486 -0.062751 -0.177387
v 0.436621 -0.384124 -0.258422
v 0.495974 -0.204471 -0.389822
v 0.558337 -0.147683 -0.436793
v 0.537640 -0.143833 -0.450324
v 0.441252 -0.098077 -0.351775
v 0.387585 -0.199678 2.715969
v 0.315486 -0.149127 2.577231
v 0.128212 0.019814 2.453751
v 0.407212 -0.152320 2.960427
v 0.627829 -0.025651 2.755511
v 0.447711 0.017753 2.593212
v 0.506414 -0.040673 3.049426
v 0.727850 0.024774 2.949425
v 0.161574 -0.086086 3.270401
v 0.253893 0.028693 3.297301
v 0.437725 0.055212 3.159347
v 0.060335 0.083388 -0.416837
v 0.058373 0.172584 0.296071
v 0.038596 0.209439 0.577859
v 0.104971 0.337271 0.457521
v 0.140909 0.275102 0.593562
v 0.121952 0.335391 0.652483
v 0.106908 0.347275 0.948834
v 0.053846 0.441480 0.885905
v 0.248483 0.451188 1.474486
v 0.113651 0.615492 1.413144
v 0.254066 0.528266 1.364478
v 0.302671 0.555682 1.483589
v 0.120649 0.122504 2.492153
v 0.316216 0.287548 2.701695
v 0.205648 0.488849 2.724319
v 0.320874 0.435417 2.957295
v 0.004663 0.598466 2.908707
v 0.294917 0.485788 2.847950
v 0.436510 0.349571 2.773351
v 0.327260 0.252624 3.071336
v 0.618213 0.088770 3.076478
v 0.710319 0.219208 3.014632
v 0.607663 0.304610 2.786769
v 0.560532 0.360882 2.868617
v 0.194734 0.093925 3.348203
v 0.143823 0.246643 3.193288
v 0.632030 0.161580 2.737375
v 0.796516 0.153855 2.934726
vn -0.7476 -0.6039 0.2765
vn -0.6905 -0.1746 -0.7020
vn -0.2450 -0.9465 -0.2101
vn -0.0141 -0.7403 0.6721
vn -0.8195 -0.5350 0.2054
vn -0.9620 0.0737 0.2629
vn -0.3778 0.9254 0.0287
vn -0.6924 0.5920 -0.4124
vn -0.6640 0.7339 0.1429
vn -0.7537 -0.3425 -0.5608
vn -0.8516 -0.3912 0.3489
vn -0.6819 0.2819 0.6749
vn -0.6884 -0.1905 0.6998
vn -0.4686 -0.8780 -0.0973
vn 0.0197 -0.8222 0.5688
vn -0.6453 -0.5202 0.5594
vn 0.2914 -0.9548 -0.0586
vn 0.1301 -0.9030 0.4094
vn -0.2432 -0.9167 0.3171
vn -0.4679 -0.5750 -0.6711
vn -0.6435 -0.7619 0.0741
vn -0.4236 -0.8789 0.2191
vn 0.3249 -0.9440 -0.0576
vn -0.0749 0.1773 -0.9813
vn 0.0484 0.3711 -0.9273
vn 0.0116 -0.4790 -0.8777
vn -0.1833 -0.2932 -0.9383
vn 0.1393 0.7020 -0.6984
vn 0.3014 0.6353 -0.7109
vn 0.1549 0.3498 -0.9239
vn -0.2878 0.1822 -0.9402
vn -0.3307 -0.8502 -0.4095
vn 0.3724 -0.8465 -0.3805
vn 0.2768 -0.6598 -0.6986
vn 0.1727 0.6366 -0.7516
vn -0.0259 0.7984 -0.6015
vn -0.3789 0.7811 -0.4962
vn -0.5007 -0.0469 -0.8643
vn -0.1482 -0.9880 -0.0434
vn -0.6710 -0.3704 -0.6422
vn -0.6430 -0.5960 -0.4809
vn -0.2710 -0.9148 0.2994
vn -0.4625 -0.8811 0.0982
vn -0.1709 -0.4501 0.8765
vn -0.2956 -0.3567 0.8862
vn 0.0674 -0.5317 0.8442
vn -0.9080 -0.4132 -0.0695
vn -0.4733 0.7549 0.4540
vn -0.4804 0.0795 0.8734
vn 0.2448 -0.4197 0.8740
vn 0.0368 -0.6058 0.7948
vn -0.6580 0.1150 -0.7442
vn -0.5673 -0.5249 -0.6345
vn -0.8748 0.1978 -0.4422
vn -0.3177 -0.3524 -0.8802
vn 0.4246 0.0921 -0.9007
vn 0.2990 -0.3305 -0.8951
vn 0.5735 -0.0001 -0.8192
vn 0.1699 -0.6345 -0.7540
vn -0.4835 -0.8695 0.1010
vn -0.9301 -0.3656 0.0331
vn -0.8503 -0.1564 0.5024
vn -0.5154 -0.7266 0.4543
vn -0.3821 -0.6784 0.6275
vn 0.1598 -0.8900 -0.4271
vn 0.0519 -0.8948 0.4434
vn -0.1414 -0.7581 0.6366
vn -0.1252 -0.9890 -0.0786
vn -0.6394 -0.2733 0.7186
vn -0.0656 0.9973 0.0327
vn 0.0144 0.9770 -0.2129
vn -0.0300 0.8902 -0.4546
vn -0.7781 0.5847 0.2295
vn -0.0096 0.9628 -0.2699
vn 0.4928 0.8640 0.1026
vn 0.9060 0.3474 0.2419
vn 0.1909 0.9573 0.2172
vn -0.5437 -0.6714 0.5035
vn -0.6487 0.3790 -0.6600
vn -0.5100 -0.3113 0.8018
vn 0.9784 -0.1690 0.1190
vn -0.2684 0.7301 -0.6284
vn 0.8288 -0.3447 -0.4407
vn 0.6317 0.1958 0.7500
vn -0.3866 -0.8563 0.3422
vn -0.9890 0.0110 0.1473
vn -0.7272 -0.6796 0.0961
vn -0.2826 0.8875 -0.3640
vn 0.1709 -0.9831 -0.0654
vn -0.8193 -0.5626 -0.1099
vn -0.6876 -0.5805 -0.4360
vn 0.2490 -0.9667 -0.0581
vn -0.6919 -0.6634 -0.2849
vn -0.8458 0.4631 -0.2648
vn 0.3052 0.9513 0.0426
vn -0.7688 0.6287 -0.1165
vn -0.0408 0.9371 -0.3466
vn 0.4059 0.9060 -0.1198
vn -0.5007 0.6175 -0.6066
vn -0.8599 0.4475 -0.2457
vn -0.8906 0.1749 -0.4198
vn -0.3540 -0.8901 -0.2871
vn -0.8025 -0.5464 -0.2394
vn -0.7592 0.6078 0.2326
vn -0.1485 0.9823 0.1143
vn 0.3426 0.8640 0.3689
vn 0.1501 -0.9820 0.1149
vn 0.7313 -0.6614 0.1665
vn 0.7130 -0.6634 -0.2269
vn 0.4024 -0.9063 0.1292
vn 0.4386 -0.2047 0.8751
vn 0.3363 -0.7202 0.6068
vn 0.0392 0.9922 -0.1182
vn -0.4016 0.9103 0.1001
vn -0.0160 0.7901 0.6128
vn 0.2258 0.7633 0.6052
vn -0.9826 -0.1005 0.1559
vn -0.7139 0.7001 -0.0115
vn -0.5949 -0.8036 0.0196
vn 0.2122 -0.0219 -0.9770
vn 0.5473 -0.2726 0.7913
vn -0.3322 -0.9369 -0.1084
vn -0.7978 0.5082 0.3244
vn 0.5493 0.7738 0.3153
vn 0.4644 0.7390 -0.4880
vn 0.3770 0.4936 -0.7837
vn 0.8098 -0.2825 -0.5142
vn 0.5786 0.8100 0.0950
vn -0.4282 0.9036 -0.0132
vn -0.8003 -0.2046 -0.5636
vn -0.9134 0.2160 -0.3448
vn -0.5615 0.6028 -0.5669
vn -0.5063 0.2667 -0.8201
vn 0.2095 0.4775 -0.8533
vn 0.1037 0.5479 -0.8301
vn -0.1446 0.9572 -0.2505
vn -0.7812 0.2746 -0.5607
vn -0.6818 0.7309 -0.0286
vn -0.0949 0.4125 -0.9060
vn -0.8729 0.3653 0.3235
vn 0.3195 0.4203 -0.8492
vn 0.4665 0.7926 0.3926
vn 0.2713 0.8752 0.4006
vn 0.1560 0.7015 0.6953
vn -0.5311 0.3845 0.7550
vn 0.3364 0.6460 0.6852
vn 0.0767 0.7820 0.6185
vn -0.0128 0.0042 0.9999
vn -0.5437 0.3103 0.7798
vn -0.4166 -0.4518 0.7889
vn 0.4031 0.6616 -0.6323
vn -0.3816 0.5649 0.7316
vn 0.9543 -0.0625 -0.2923
vn 0.6601 -0.2650 -0.7029
vn 0.6170 0.4665 -0.6338
vn -0.2866 0.6236 -0.7273
vn -0.0944 0.9254 -0.3669
vn -0.0248 0.8391 -0.5434
vn 0.6803 0.2668 -0.6827
vn 0.6986 -0.6969 -0.1622
vn 0.4655 -0.6255 -0.6261
vn 0.5569 -0.8284 0.0600
vn 0.5549 -0.1151 0.8238
vn 0.1914 -0.6014 0.7757
vn 0.6031 0.5756 0.5521
vn 0.3503 0.9329 -0.0833
vn 0.0827 0.9964 -0.0189
vn 0.7663 0.3619 0.5308
vn 0.5059 -0.4333 0.7458
vn 0.9158 -0.3933 0.0815
vn 0.8552 -0.4972 0.1463
vn 0.7052 0.2068 -0.6782
vn 0.3991 0.8911 0.2160
vn 0.9439 -0.3091 0.1162
vn 0.6654 0.4599 0.5880
vn 0.5449 0.8198 -0.1761
vn 0.5530 -0.7931 -0.2550
vn 0.4436 -0.8418 0.3075
vn 0.1613 -0.9751 0.1519
vn 0.2464 -0.6944 0.6761
vn 0.5137 -0.0160 -0.8578
vn 0.4519 -0.5331 -0.7152
vn 0.7564 -0.5953 0.2709
vn 0.4562 -0.6573 0.5998
vn 0.4812 -0.0027 0.8766
vn 0.5130 -0.2030 0.8340
vn 0.9163 0.2521 -0.3110
vn 0.8755 -0.4493 0.1777
vn 0.2931 -0.8677 0.4014
vn 0.9958 -0.0359 0.0847
vn 0.9848 -0.0564 0.1639
vn 0.6666 -0.7454 0.0095
vn 0.7774 0.6214 0.0978
vn 0.8752 0.4081 0.2598
vn 0.7938 -0.6042 0.0682
vn 0.7431 0.2216 -0.6314
vn 0.3517 0.7490 0.5615
vn 0.3293 0.6291 -0.7041
vn 0.5297 0.6335 -0.5640
vn 0.4455 0.8938 -0.0512
vn 0.4855 0.8734 -0.0374
vn 0.4948 0.6651 0.5593
vn 0.5929 -0.1079 0.7980
vn 0.3409 0.5176 0.7847
vn 0.7087 0.1136 0.6963
vn 0.6281 0.4765 0.6151
vn 0.9891 0.1085 0.0993
vn 0.9329 0.1367 -0.3332
vn -0.9208 0.1542 -0.3581
vn -0.9619 -0.0407 0.2705
vn -0.8993 0.1334 -0.4165
vn 0.6016 -0.7103 -0.3655
vn 0.7026 -0.5432 -0.4596
vn 0.5976 0.2009 -0.7762
usemtl color.basal_dendrites_skeleton_color_0_color
s 1
f 6//1 1//2 14//3
f 6//1 4//4 7//5
f 9//6 10//7 3//8
f 6//1 9//6 3//8
f 9//6 77//9 10//7
f 8//10 11//11 7//5
f 13//12 9//6 7//5 12//13
f 16//14 18//15 17//16
f 20//17 21//18 18//15
f 17//16 46//19 15//20
f 28//21 24//22 27//23
f 25//24 26//25 32//26
f 23//27 27//23 14//3
f 27//23 24//22 14//3
f 30//28 39//29 29//30
f 26//25 33//31 32//26
f 32//26 19//32 28//21
f 34//33 19//32 32//26
f 33//31 35//34 32//26
f 37//35 38//36 29//30
f 23//27 32//26 27//23
f 25//24 32//26 23//27
f 32//26 28//21 27//23
f 40//37 36//38 33//31
f 35//34 36//38 31//39
f 36//38 40//37 31//39
f 19//32 44//40 24//22
f 15//20 44//40 45//41
f 4//4 42//42 43//43
f 49//44 47//45 48//46
f 47//45 5//47 46//19
f 48//46 47//45 46//19
f 13//12 80//48 77//9
f 50//49 13//12 12//13
f 51//50 49//44 22//51
f 49//44 48//46 22//51
f 22//51 48//46 18//15
f 15//20 46//19 5//47
f 18//15 46//19 45//41
f 3//8 29//30 2//52
f 2//52 29//30 1//2
f 5//47 8//10 15//20
f 4//4 43//43 7//5
f 16//14 45//41 44//40
f 21//18 22//51 18//15
f 45//41 46//19 17//16
f 2//52 6//1 3//8
f 14//3 4//4 6//1
f 67//53 58//54 57//55
f 178//56 61//57 60//58
f 59//59 60//58 61//57
f 67//53 65//60 66//61
f 66//61 58//54 67//53
f 70//62 69//63 71//64
f 61//57 72//65 59//59
f 73//66 76//67 71//64
f 64//68 69//63 65//60
f 64//68 65//60 67//53
f 73//66 71//64 64//68
f 75//69 70//62 71//64
f 79//70 78//71 77//9
f 77//9 78//71 10//7
f 79//70 187//72 78//71
f 82//73 79//70 80//48
f 82//73 83//74 168//75
f 168//75 79//70 82//73
f 53//76 83//74 84//77
f 88//78 86//79 54//80
f 56//81 88//78 54//80
f 86//79 91//82 188//83
f 86//79 188//83 56//81
f 84//77 86//79 85//84
f 86//79 56//81 85//84
f 87//85 89//86 88//78
f 90//87 92//88 89//86
f 89//86 91//82 86//79
f 95//89 96//90 90//87
f 99//91 98//92 97//93
f 101//94 93//95 100//96
f 123//97 103//98 102//99
f 96//90 101//94 100//96
f 97//93 94//100 102//99
f 95//89 98//92 96//90
f 99//91 101//94 96//90
f 100//96 92//88 90//87
f 100//96 93//95 92//88
f 105//101 106//102 107//103
f 110//104 109//105 105//101
f 111//106 109//105 110//104
f 98//92 113//107 97//93
f 118//108 127//109 117//110
f 113//107 120//111 116//112
f 106//102 116//112 117//110
f 196//113 123//97 121//114
f 124//115 121//114 125//116
f 108//117 122//118 94//100
f 121//114 94//100 122//118
f 125//116 122//118 109//105
f 109//105 111//106 125//116
f 106//102 105//101 112//119
f 111//106 119//120 118//108
f 125//116 118//108 116//112
f 115//121 120//111 113//107
f 126//122 128//123 107//103
f 128//123 129//124 110//104
f 134//125 199//126 60//58
f 132//127 134//125 60//58
f 133//128 129//124 128//123
f 131//129 133//128 128//123
f 132//127 130//130 126//122
f 129//124 127//109 119//120
f 129//124 119//120 111//106
f 58//54 135//131 136//132
f 136//132 135//131 137//133
f 137//133 146//134 145//135
f 142//136 139//137 140//138
f 141//139 146//134 137//133
f 139//137 141//139 137//133
f 138//140 140//138 139//137
f 142//136 146//134 141//139
f 145//135 146//134 200//141
f 203//142 153//143 147//144
f 147//144 153//143 143//145
f 137//133 145//135 136//132
f 135//131 138//140 139//137
f 152//146 150//147 151//148
f 150//147 148//149 151//148
f 148//149 75//69 149//150
f 147//144 143//145 150//147
f 142//136 153//143 201//151
f 144//152 140//138 138//140
f 145//135 199//126 134//125
f 154//153 155//154 35//34
f 159//155 157//156 41//157
f 37//35 158//158 38//36
f 160//159 156//160 159//155
f 157//156 155//154 154//153
f 162//161 164//162 20//17
f 164//162 165//163 52//164
f 170//165 167//166 81//167
f 169//168 81//167 168//75
f 170//165 81//167 169//168
f 169//168 55//169 51//50
f 169//168 165//163 170//165
f 172//170 171//171 162//161
f 171//171 165//163 164//162
f 161//172 174//173 173//174
f 175//175 166//176 167//166
f 166//176 175//175 173//174
f 175//175 174//173 173//174
f 174//173 166//176 173//174
f 167//166 170//165 175//175
f 20//17 164//162 21//18
f 171//171 164//162 162//161
f 175//175 170//165 165//163
f 20//17 34//33 156//160
f 176//177 179//178 74//179
f 179//178 184//180 73//66
f 179//178 73//66 74//179
f 178//56 181//181 177//182
f 183//183 182//184 179//178
f 176//177 74//179 72//65
f 186//185 184//180 182//184
f 183//183 207//186 182//184
f 182//184 184//180 179//178
f 187//72 167//166 158//158
f 190//187 191//188 189//189
f 193//190 95//89 192//191
f 114//192 98//92 193//190
f 194//193 192//191 93//95
f 198//194 196//113 124//115
f 195//195 114//192 197//196
f 202//197 203//142 147//144
f 205//198 209//199 200//141
f 200//141 181//181 199//126
f 204//200 202//197 210//201
f 205//198 210//201 209//199
f 204//200 205//198 201//151
f 212//202 185//203 206//204
f 212//202 152//146 211//205
f 185//203 186//185 206//204
f 208//206 207//186 183//183
f 208//206 214//207 209//199
f 208//206 209//199 210//201
f 212//202 206//204 202//197
f 156//160 34//33 35//34
f 31//39 157//156 154//153
f 52//164 51//50 22//51
f 187//72 158//158 37//35
f 184//180 151//148 149//150
f 189//189 90//87 87//85
f 92//88 190//187 91//82
f 93//95 190//187 92//88
f 188//83 88//78 56//81
f 194//193 103//98 193//190
f 104//208 193//190 103//98
f 103//98 194//193 93//95
f 114//192 115//121 113//107
f 196//113 197//196 123//97
f 123//97 197//196 104//208
f 212//202 147//144 150//147
f 30//28 78//71 39//29
f 39//29 187//72 37//35
f 80//48 79//70 77//9
f 53//76 56//81 55//169
f 83//74 53//76 168//75
f 53//76 169//168 168//75
f 60//58 59//59 132//127
f 62//209 63//210 135//131
f 70//62 63//210 66//61
f 135//131 68//211 62//209
f 211//205 184//180 185//203
f 211//205 151//148 184//180
f 207//186 186//185 182//184
f 123//97 102//99 94//100
f 123//97 104//208 103//98
f 1//2 6//1 2//52
f 5//47 11//11 8//10
f 6//1 7//5 9//6
f 11//11 12//13 7//5
f 42//42 4//4 14//3 24//22
f 13//12 77//9 9//6
f 16//14 20//17 18//15
f 19//32 20//17 16//14
f 23//27 14//3 25//24
f 29//30 26//25 25//24
f 26//25 40//37 33//31
f 33//31 36//38 35//34
f 35//34 34//33 32//26
f 26//25 29//30 38//36
f 40//37 38//36 41//157
f 38//36 40//37 26//25
f 39//29 37//35 29//30
f 43//43 42//42 44//40
f 15//20 43//43 44//40
f 42//42 24//22 44//40
f 46//19 18//15 48//46
f 49//44 50//49 12//13
f 50//49 80//48 13//12
f 47//45 12//13 11//11
f 49//44 12//13 47//45
f 15//20 8//10 43//43
f 14//3 1//2 25//24
f 1//2 29//30 25//24
f 3//8 30//28 29//30
f 5//47 47//45 11//11
f 8//10 7//5 43//43
f 19//32 34//33 20//17
f 19//32 16//14 44//40
f 16//14 17//16 45//41
f 18//15 45//41 17//16
f 15//20 45//41 17//16
f 63//210 62//209 68//211 66//61
f 28//21 19//32 24//22
f 54//80 50//49 49//44
f 55//169 56//81 54//80
f 51//50 55//169 54//80
f 49//44 51//50 54//80
f 50//49 54//80 80//48
f 67//53 57//55 59//59
f 66//61 62//209 58//54
f 66//61 69//63 70//62
f 59//59 72//65 64//68
f 64//68 74//179 73//66
f 67//53 59//59 64//68
f 65//60 69//63 66//61
f 64//68 71//64 69//63
f 71//64 76//67 75//69
f 76//67 149//150 75//69
f 62//209 68//211 58//54
f 68//211 62//209 66//61
f 56//81 53//76 84//77 85//84
f 79//70 81//167 187//72
f 79//70 168//75 81//167
f 78//71 30//28 3//8
f 10//7 78//71 3//8
f 83//74 85//84 84//77
f 116//112 106//102 112//119 113//107
f 82//73 85//84 83//74
f 84//77 85//84 82//73
f 84//77 54//80 86//79
f 87//85 90//87 89//86
f 89//86 92//88 91//82
f 88//78 89//86 86//79
f 102//99 99//91 97//93
f 103//98 101//94 102//99
f 96//90 100//96 90//87
f 99//91 102//99 101//94
f 96//90 98//92 99//91
f 101//94 103//98 93//95
f 105//101 109//105 122//118
f 97//93 113//107 112//119
f 98//92 114//192 113//107
f 143//145 70//62 75//69 148//149
f 118//108 119//120 127//109
f 116//112 118//108 117//110
f 121//114 123//97 94//100
f 121//114 124//115 196//113
f 108//117 97//93 112//119
f 106//102 117//110 127//109
f 105//101 107//103 110//104
f 125//116 111//106 118//108
f 120//111 125//116 116//112
f 122//118 125//116 121//114
f 108//117 112//119 122//118
f 112//119 105//101 122//118
f 128//123 110//104 107//103
f 126//122 107//103 127//109
f 131//129 130//130 58//54
f 130//130 131//129 128//123
f 127//109 133//128 132//127
f 129//124 133//128 127//109
f 131//129 134//125 133//128
f 133//128 134//125 132//127
f 126//122 127//109 132//127
f 130//130 132//127 57//55
f 136//132 134//125 131//129
f 129//124 111//106 110//104
f 126//122 130//130 128//123
f 106//102 127//109 107//103
f 63//210 138//140 135//131
f 63//210 70//62 138//140
f 139//137 142//136 141//139
f 143//145 153//143 144//152
f 143//145 144//152 138//140
f 142//136 201//151 146//134
f 137//133 135//131 139//137
f 138//140 70//62 143//145
f 153//143 203//142 201//151
f 142//136 140//138 144//152 153//143
f 149//150 151//148 148//149
f 148//149 150//147 143//145
f 163//212 156//160 160//159 161//172
f 58//54 136//132 131//129
f 136//132 145//135 134//125
f 38//36 158//158 41//157
f 41//157 158//158 161//172 160//159
f 189//189 191//188 192//191 90//87
f 159//155 41//157 160//159
f 159//155 156//160 155//154
f 35//34 155//154 156//160
f 157//156 159//155 155//154
f 162//161 20//17 163//212
f 21//18 164//162 52//164
f 52//164 165//163 51//50
f 158//158 167//166 166//176
f 165//163 169//168 51//50
f 53//76 55//169 169//168
f 171//171 175//175 165//163
f 161//172 173//174 172//170
f 161//172 172//170 163//212
f 172//170 173//174 174//173
f 166//176 174//173 161//172
f 175//175 172//170 174//173
f 175//175 171//171 172//170
f 172//170 162//161 163//212
f 156//160 163//212 20//17
f 158//158 166//176 161//172
f 61//57 178//56 177//182
f 177//182 176//177 72//65
f 176//177 181//181 180//213
f 181//181 176//177 177//182
f 180//213 183//183 179//178
f 180//213 179//178 176//177
f 184//180 186//185 185//203
f 81//167 167//166 187//72
f 190//187 189//189 188//83
f 93//95 192//191 190//187
f 192//191 191//188 190//187
f 192//191 95//89 90//87
f 194//193 193//190 192//191
f 193//190 104//208 114//192
f 193//190 98//92 95//89
f 202//197 206//204 186//185 208//206
f 114//192 195//195 115//121
f 104//208 197//196 114//192
f 195//195 198//194 115//121
f 197//196 198//194 195//195
f 196//113 198//194 197//196
f 198//194 124//115 115//121
f 145//135 200//141 199//126
f 202//197 147//144 212//202
f 202//197 204//200 203//142
f 181//181 200//141 213//214
f 200//141 209//199 213//214
f 207//186 208//206 186//185
f 208//206 210//201 202//197
f 87//85 88//78 188//83 189//189
f 204//200 210//201 205//198
f 203//142 204//200 201//151
f 200//141 201//151 205//198
f 211//205 185//203 212//202
f 211//205 152//146 151//148
f 183//183 214//207 208//206
f 213//214 214//207 180//213
f 213//214 209//199 214//207
f 35//34 31//39 154//153
f 41//157 157//156 40//37
f 31//39 40//37 157//156
f 22//51 21//18 52//164
f 72//65 74//179 64//68
f 61//57 177//182 72//65
f 76//67 73//66 184//180
f 184//180 149//150 76//67
f 188//83 91//82 190//187
f 120//111 115//121 124//115 125//116
f 200//141 146//134 201//151
f 152//146 212//202 150//147
f 39//29 78//71 187//72
f 54//80 84//77 82//73
f 80//48 54//80 82//73
f 58//54 130//130 57//55
f 57//55 132//127 59//59
f 58//54 68//211 135//131
f 181//181 213//214 180//213
f 178//56 199//126 181//181
f 180//213 214//207 183//183
f 97//93 108//117 94//100
f 178//56 60//58 199//126
