# Blender v2.82 (sub 7) OBJ File: 'eyewire-neuron-em-stack.blend'
# www.blender.org
mtllib spine_18.mtl
o <bpy_struct,_Object("spine_18")>-simple_2.119
v 0.007213 0.131538 -0.522234
v -0.024657 0.214767 -0.381862
v 0.108009 0.032907 -0.556335
v 0.059493 0.067770 -0.445203
v 0.145684 -0.014244 -0.509311
v 0.147294 -0.039462 -0.480972
v 0.094301 0.007136 -0.462635
v 0.022331 0.085772 -0.482566
v 0.031214 0.111575 -0.330357
v 0.001093 0.106313 -0.498555
v 0.049252 -0.033337 -0.427107
v 0.072482 0.014826 -0.442252
v 0.048494 -0.080553 -0.373270
v 0.118440 0.009347 -0.412486
v 0.156140 -0.064417 -0.458621
v 0.158619 -0.067503 -0.456349
v 0.141469 -0.046073 -0.375000
v 0.109292 0.007411 -0.285715
v 0.152243 0.032745 -0.127642
v 0.202354 -0.086066 -0.087245
v -0.180208 0.202617 -0.426817
v -0.017955 0.038912 -0.455408
v -0.204550 0.167962 -0.404135
v -0.220412 0.172269 -0.396003
v -0.085864 0.090139 -0.464154
v -0.221187 0.136883 -0.358812
v -0.130168 0.135378 -0.344198
v -0.337482 0.197370 -0.426042
v -0.257153 0.071228 -0.303095
v -0.235780 0.144915 -0.314525
v -0.368327 0.182790 -0.305210
v -0.260398 0.159620 -0.234600
v -0.374657 0.000923 -0.170094
v -0.258962 0.164973 -0.150274
v -0.336794 0.083534 -0.047178
v -0.391230 0.133078 -0.191788
v -0.425476 0.125178 -0.171172
v 0.065673 0.123627 -0.138983
v -0.030536 0.164293 0.119822
v 0.164751 -0.020809 -0.102565
v 0.153600 -0.040854 -0.034359
v 0.173290 0.014988 -0.032429
v -0.095644 0.048597 0.203006
v -0.264614 0.078151 -0.031533
v 0.147615 -0.093507 0.215756
v 0.110406 0.081546 0.193242
v 0.100423 0.128116 0.297668
v -0.070371 0.114660 0.267087
v 0.186398 -0.013390 0.366139
v 0.128883 0.203227 0.415629
v 0.224544 -0.002006 0.507136
v -0.094926 0.031203 0.341098
v -0.111490 0.046818 0.464171
v 0.070056 0.154727 0.516484
v -0.115249 0.153326 0.593961
v 0.060420 0.159653 0.565617
v -0.218121 0.056471 0.683076
v -0.143824 0.159949 0.664427
v 0.213676 0.090110 0.563978
v -0.062365 0.195599 0.755108
v -0.015366 0.164307 0.819120
v -0.024304 -0.059377 0.876727
v -0.000731 0.053641 1.005414
v 0.158180 -0.080893 -0.431229
v 0.108512 -0.162341 -0.340583
v 0.172303 -0.122765 -0.397914
v 0.171418 -0.122179 -0.398096
v 0.174194 -0.124038 -0.397755
v 0.051789 -0.311082 -0.237560
v 0.147635 -0.092116 -0.331824
v 0.200483 -0.127736 -0.365805
v 0.184401 -0.129683 -0.352018
v 0.208272 -0.155821 -0.181815
v 0.226337 -0.185690 -0.333363
v 0.260405 -0.257091 -0.277867
v 0.219976 -0.322802 -0.248576
v 0.031994 -0.345746 -0.182319
v 0.297318 -0.333638 -0.230877
v 0.133392 -0.210867 -0.127996
v 0.204091 -0.342567 -0.162819
v -0.069992 -0.114075 -0.282801
v -0.194805 -0.304840 -0.203590
v -0.214557 -0.083445 -0.233750
v -0.315346 -0.154382 -0.189465
v -0.293607 -0.271250 -0.204954
v -0.338254 -0.322333 -0.153500
v -0.392280 -0.058764 -0.106199
v -0.400233 -0.152494 -0.127849
v -0.029159 -0.383780 -0.174984
v -0.113915 -0.433004 -0.140998
v -0.011010 -0.377583 -0.088166
v -0.330110 -0.191177 -0.086659
v -0.168772 -0.267451 -0.042789
v -0.183478 -0.074514 -0.023598
v -0.261376 -0.498073 -0.147665
v -0.270460 -0.321007 -0.145454
v 0.159029 -0.104429 0.074265
v 0.046838 -0.300508 -0.058419
v 0.071945 -0.197455 0.083586
v -0.056827 -0.177876 0.048075
v 0.003244 -0.155966 0.146183
v -0.146367 -0.520335 -0.097427
v -0.069464 -0.443644 -0.049740
v -0.204264 -0.473961 -0.111954
v 0.092387 -0.114147 0.180484
v 0.120709 -0.074963 0.347761
v 0.003615 -0.093645 0.319833
v -0.022963 -0.090248 0.243204
v -0.041236 -0.069246 0.401774
v 0.051989 -0.079735 0.414422
v -0.127631 -0.084206 0.603984
v 0.092214 -0.111822 0.633938
v -0.032666 -0.079287 0.770219
v 0.204477 -0.058804 0.616210
v 0.094416 0.003904 0.738956
v -0.236693 0.051879 0.732619
v -0.152256 0.244809 0.765934
v -0.056569 0.247109 0.866356
v -0.160907 0.352082 1.165082
v -0.287612 0.109441 0.921745
v -0.060400 0.283414 0.959279
v 0.045048 0.210238 1.073198
v -0.027869 0.305313 1.152657
v -0.251784 0.201275 1.075026
v -0.263955 -0.008666 1.161557
v -0.230398 0.197245 1.251867
v -0.266674 0.020599 0.754579
v -0.267958 0.019608 0.756504
v -0.203452 -0.086070 0.827154
v -0.303808 -0.005011 0.804476
v -0.072937 -0.053701 0.989267
v -0.301629 -0.018185 1.030672
v 0.037932 -0.054615 1.110114
v -0.246699 0.003793 1.327606
v 0.070900 0.259306 1.186817
v -0.059033 0.248734 1.284614
v 0.137782 0.145844 1.210074
v 0.172480 0.154864 1.349491
v -0.139846 0.159451 1.387245
v 0.234019 0.097331 1.271693
v 0.280243 0.158242 1.539661
v 0.073312 0.161455 1.624723
v 0.102642 0.203239 1.650383
v 0.013982 0.138535 1.656750
v 0.266270 0.122709 1.698338
v 0.159617 0.254072 1.659836
v 0.243592 0.213580 1.702064
v -0.003622 0.080104 1.719079
v 0.222503 0.281334 1.802892
v 0.096660 0.342338 1.745562
v -0.003540 0.394751 1.821993
v 0.050433 0.184929 1.813771
v 0.198463 0.407286 1.900026
v 0.065565 0.495269 1.909496
v 0.202964 0.458110 1.976538
v 0.161050 0.200717 1.898283
v 0.076179 0.148368 1.887555
v 0.036851 0.213205 1.921343
v 0.129461 0.258706 1.990004
v -0.046323 0.342603 1.941863
v 0.006557 0.479596 2.045820
v -0.099061 0.338552 2.148109
v -0.009242 0.484288 2.191751
v -0.068426 0.355946 1.994589
v 0.025071 0.243354 2.030868
v -0.000899 0.264111 2.219129
v -0.163111 0.342976 2.255935
v 0.149963 0.732118 2.338209
v 0.329317 0.603432 2.376740
v 0.179227 0.473916 2.084424
v 0.076882 0.520532 2.148020
v 0.134687 0.446960 2.219726
v 0.125570 0.481005 2.226362
v 0.044927 0.522143 2.256767
v 0.125388 0.327223 2.327872
v 0.326352 0.543835 2.373134
v 0.316979 0.505278 2.344661
v 0.215689 0.416897 2.378477
v 0.181262 0.367972 2.482546
v 0.342624 0.685544 2.483051
v 0.335510 0.683682 2.557694
v 0.278489 0.564949 2.594650
v 0.231588 0.487367 2.557804
v 0.103206 0.720728 2.505343
v 0.149486 0.658129 2.631464
v -0.003331 0.515358 2.459766
v -0.094882 0.400537 2.343598
v -0.074586 0.213932 2.272141
v -0.088181 0.211742 2.301073
v -0.168488 0.236013 2.414005
v 0.004287 0.271008 2.328407
v -0.066698 0.288045 2.447493
v 0.006057 0.358836 2.474579
v -0.066328 0.292910 2.461807
v 0.038429 0.589370 2.512741
v 0.006309 0.525768 2.476177
v 0.006306 0.525789 2.476436
v 0.055623 0.288613 2.450981
v -0.043593 0.295316 2.483056
v -0.041686 0.298274 2.483740
v 0.033305 0.324470 2.493336
v 0.231444 0.699362 2.467746
v 0.183956 0.722206 2.672967
v 0.239141 0.786416 2.671937
v 0.357579 0.714528 2.678183
v 0.296267 0.606793 2.641327
v 0.160769 0.484229 2.604786
v 0.090354 -0.050949 1.208331
v 0.186353 0.016655 1.316200
v 0.108227 -0.059534 1.491525
v -0.113996 0.030324 1.548239
v 0.189745 0.040453 1.417963
v 0.160509 0.041258 1.587472
v -0.020146 0.092218 1.599125
v -0.016828 0.002420 1.627431
v -0.208739 0.050846 1.502384
v -0.094143 0.012531 1.597599
v 0.224416 0.045416 1.508973
v 0.171187 0.137812 1.857240
v 0.050506 0.077351 1.831016
v -0.078265 0.217864 2.270110
vn -0.0128 0.1077 -0.9941
vn 0.3959 -0.0022 -0.9182
vn 0.5393 0.1079 -0.8351
vn 0.6209 0.7811 0.0661
vn 0.4037 0.0266 -0.9145
vn 0.4123 0.1469 -0.8991
vn 0.7097 0.7002 -0.0771
vn 0.0915 0.6952 -0.7130
vn 0.2386 -0.1494 -0.9596
vn -0.3957 -0.5600 -0.7279
vn -0.3608 -0.5716 -0.7369
vn -0.4707 -0.4382 -0.7658
vn 0.7807 0.6198 -0.0790
vn 0.9246 0.3627 0.1167
vn 0.4660 -0.7881 -0.4021
vn 0.5975 -0.4347 -0.6737
vn 0.7210 -0.4600 -0.5182
vn 0.8617 0.4948 -0.1122
vn 0.5987 -0.2392 -0.7644
vn -0.3675 -0.6359 -0.6786
vn -0.9501 0.3106 -0.0282
vn -0.9684 -0.1440 0.2035
vn -0.0088 0.8836 0.4682
vn 0.2402 0.7988 -0.5516
vn -0.4647 -0.4535 -0.7605
vn -0.2848 0.3688 -0.8848
vn -0.7930 0.5693 -0.2168
vn 0.1497 0.9848 0.0878
vn -0.7031 -0.2786 -0.6543
vn -0.7104 0.6992 -0.0800
vn -0.8325 0.5254 -0.1753
vn -0.4230 0.3693 0.8274
vn -0.3514 0.9329 0.0785
vn 0.4921 0.8624 -0.1184
vn -0.0235 0.9219 0.3866
vn -0.5173 0.3287 0.7901
vn 0.9733 0.2114 -0.0892
vn 0.9912 0.1288 0.0309
vn 0.8563 0.4977 -0.1383
vn 0.7163 0.6977 -0.0100
vn -0.9284 0.2185 0.3003
vn 0.1570 0.9550 -0.2517
vn 0.9734 -0.1756 -0.1468
vn 0.9034 -0.2474 -0.3502
vn 0.4107 0.8500 -0.3297
vn -0.9744 -0.2098 -0.0807
vn -0.5436 0.7776 -0.3160
vn -0.4885 0.8531 -0.1833
vn 0.2113 0.9623 0.1708
vn -0.4859 0.8339 -0.2618
vn -0.9084 0.1091 -0.4036
vn -0.5199 0.7565 -0.3966
vn -0.9608 -0.0730 -0.2673
vn 0.9419 -0.1391 -0.3057
vn 0.7327 -0.6748 0.0883
vn 0.9085 0.4101 0.0797
vn 0.6630 -0.0525 0.7468
vn 0.8249 0.4921 0.2781
vn -0.6203 0.7177 -0.3164
vn 0.3532 0.8968 0.2662
vn -0.3113 -0.6994 -0.6434
vn -0.2177 -0.5697 -0.7925
vn 0.5657 -0.7200 -0.4019
vn 0.9586 0.0856 -0.2716
vn 0.9617 0.1795 0.2072
vn 0.8115 0.2233 -0.5401
vn 0.3140 -0.5257 0.7905
vn 0.8663 0.4981 0.0379
vn 0.6978 -0.0657 -0.7132
vn 0.5861 -0.7863 -0.1953
vn 0.8403 -0.5387 -0.0606
vn 0.8131 -0.0335 -0.5812
vn 0.0067 -0.7729 -0.6345
vn 0.4307 -0.7279 0.5336
vn 0.3428 -0.9290 -0.1390
vn -0.1620 -0.6213 -0.7666
vn -0.3114 0.0350 -0.9496
vn -0.3606 -0.4565 -0.8133
vn -0.5087 -0.0414 -0.8599
vn -0.1418 -0.3344 -0.9317
vn -0.6217 -0.7827 0.0279
vn -0.3903 -0.2556 -0.8845
vn 0.2666 -0.7592 -0.5937
vn 0.2944 -0.6303 -0.7183
vn -0.5906 -0.7986 -0.1152
vn -0.5715 -0.7263 0.3819
vn 0.9714 0.1902 0.1422
vn 0.7430 0.4486 0.4966
vn 0.6425 -0.6538 0.3996
vn 0.9064 -0.3647 0.2132
vn 0.4013 -0.7692 0.4973
vn 0.7390 -0.6675 0.0909
vn 0.3711 -0.7417 0.5587
vn -0.3163 -0.7823 0.5365
vn -0.5225 -0.4281 0.7374
vn -0.5641 -0.2916 0.7725
vn -0.0465 -0.9982 0.0363
vn -0.3112 -0.7691 0.5582
vn -0.8820 -0.0436 0.4692
vn -0.3537 -0.3084 0.8830
vn -0.9764 -0.2147 0.0229
vn 0.5253 -0.8482 -0.0673
vn -0.3211 -0.9405 0.1106
vn 0.8133 -0.5319 0.2359
vn 0.2647 -0.9014 0.3427
vn -0.5693 -0.8093 -0.1445
vn 0.2614 -0.9410 0.2146
vn -0.5625 -0.7941 -0.2304
vn 0.0372 -0.9993 0.0014
vn 0.7884 -0.5159 0.3350
vn 0.3746 -0.8675 0.3272
vn -0.2968 0.8248 -0.4813
vn 0.5691 0.7752 -0.2742
vn 0.6192 0.7307 -0.2875
vn -0.9188 0.3943 0.0166
vn -0.3121 0.9244 0.2190
vn -0.9234 0.3658 -0.1162
vn 0.8108 0.3163 -0.4924
vn -0.8002 0.4433 0.4039
vn 0.0819 0.8070 0.5848
vn 0.4303 0.9011 0.0542
vn -0.4931 0.8667 0.0756
vn -0.7973 0.5234 -0.3006
vn -0.8401 0.0559 -0.5395
vn -0.8820 -0.2615 -0.3920
vn -0.3359 -0.9389 -0.0749
vn -0.8204 -0.5379 0.1936
vn 0.2822 -0.9555 0.0857
vn 0.5336 -0.7909 -0.2994
vn -0.7702 -0.6133 0.1749
vn -0.4566 0.7589 0.4642
vn 0.6455 0.7637 -0.0010
vn 0.8296 0.3534 -0.4321
vn 0.6735 0.7244 0.1467
vn 0.8299 0.5483 -0.1030
vn 0.8611 -0.4212 0.2845
vn 0.8614 0.4000 -0.3130
vn -0.0847 0.8153 -0.5727
vn -0.1776 0.5516 -0.8149
vn 0.9445 0.3284 0.0038
vn -0.9937 0.0047 -0.1115
vn -0.6218 0.7204 -0.3073
vn -0.6453 0.4560 -0.6128
vn 0.8930 0.3666 -0.2610
vn -0.1502 0.8685 -0.4723
vn -0.5454 -0.7727 0.3247
vn -0.3681 -0.5499 0.7497
vn 0.6231 -0.4154 0.6627
vn 0.6560 -0.6639 0.3589
vn -0.3151 -0.9459 0.0770
vn -0.9504 0.0143 -0.3107
vn -0.9677 -0.0590 -0.2451
vn 0.1385 -0.9839 -0.1132
vn -0.9411 -0.1053 -0.3212
vn 0.2750 0.9412 -0.1964
vn 0.8197 0.3188 -0.4758
vn -0.1007 0.8546 -0.5093
vn 0.5665 0.4968 -0.6574
vn 0.9576 0.0293 -0.2865
vn 0.1020 0.9947 0.0096
vn 0.6777 -0.7311 -0.0789
vn 0.8500 -0.3270 -0.4129
vn 0.9726 -0.2322 0.0117
vn 0.6514 -0.7135 -0.2580
vn 0.7912 0.5855 -0.1765
vn 0.9379 0.3315 -0.1022
vn 0.6435 -0.5932 0.4837
vn 0.5737 -0.7391 0.3529
vn -0.4119 0.8484 -0.3325
vn -0.6222 -0.0442 0.7815
vn -0.5489 0.8280 0.1143
vn -0.8876 0.2573 0.3819
vn -0.8555 0.4629 0.2320
vn -0.6567 0.7454 -0.1140
vn -0.7889 0.5661 0.2391
vn -0.6784 -0.5166 0.5223
vn -0.9208 0.2658 -0.2853
vn -0.8758 -0.4385 0.2016
vn -0.2046 -0.3934 0.8963
vn 0.3975 -0.9098 0.1197
vn 0.8742 -0.2298 -0.4277
vn 0.2893 0.8525 0.4353
vn -0.6144 0.1748 0.7693
vn -0.7168 0.6550 0.2391
vn -0.6073 0.0510 -0.7928
vn -0.5591 -0.4256 0.7115
vn -0.0988 -0.4307 0.8971
vn -0.0815 -0.4183 0.9047
vn -0.1288 0.8980 0.4208
vn 0.8036 0.2206 0.5528
vn 0.5281 -0.5371 0.6577
vn -0.5926 0.2957 0.7492
vn 0.7451 -0.5831 0.3236
vn 0.8877 0.4301 0.1643
vn 0.9235 0.3806 -0.0469
vn -0.6586 0.7372 -0.1509
vn -0.0233 -0.9644 -0.2633
vn 0.9287 -0.3629 -0.0757
vn 0.8748 -0.4560 -0.1634
vn 0.3845 -0.8600 0.3354
vn 0.3258 -0.9174 0.2284
vn -0.2889 -0.6805 0.6734
vn -0.7531 -0.3495 0.5574
vn -0.7456 0.5080 0.4312
vn -0.7573 -0.2659 0.5965
vn -0.7452 -0.0012 0.6668
vn 0.6336 -0.7645 -0.1184
vn -0.4341 -0.7041 0.5620
vn -0.8769 -0.3062 0.3703
vn 0.5636 -0.5658 0.6018
vn -0.8306 -0.4841 0.2751
vn 0.0190 -0.2469 -0.9688
vn 0.5143 -0.7984 -0.3131
vn 0.3838 0.8824 -0.2720
vn 0.9528 -0.0162 -0.3032
vn -0.6647 0.7397 0.1050
vn -0.3973 0.8657 -0.3045
vn -0.7300 0.4347 -0.5273
vn -0.5987 -0.1504 0.7867
vn -0.6241 -0.7661 0.1532
vn 0.2767 -0.9026 0.3296
usemtl color.basal_dendrites_skeleton_color_0_color
s 1
f 7//1 3//2 5//3
f 9//4 8//5 1//6
f 9//4 4//7 10//8
f 12//9 11//10 22//11
f 10//8 25//12 8//5
f 8//5 4//7 3//2
f 11//10 12//9 7//1
f 8//5 22//11 10//8
f 14//13 17//14 16//15
f 15//16 17//14 64//17
f 18//18 17//14 14//13
f 14//13 6//19 5//3
f 7//1 14//13 5//3
f 15//16 11//10 6//19
f 4//7 14//13 12//9
f 12//9 14//13 7//1
f 13//20 11//10 16//15
f 24//21 25//12 26//22
f 27//23 30//24 9//4
f 22//11 29//25 25//12
f 30//24 29//25 28//26
f 31//27 32//28 28//26
f 28//26 32//28 30//24
f 29//25 33//29 31//27
f 29//25 30//24 25//12
f 30//24 27//23 26//22
f 36//30 37//31 35//32
f 34//33 38//34 30//24
f 34//33 39//35 38//34
f 44//36 39//35 34//33
f 42//37 41//38 19//39
f 38//34 42//37 19//39
f 39//35 46//40 38//34
f 43//41 46//40 39//35
f 50//42 51//43 49//44
f 50//42 49//44 47//45
f 52//46 48//47 43//41
f 54//48 56//49 50//42
f 48//47 55//50 54//48
f 55//50 57//51 58//52
f 58//52 56//49 55//50
f 55//50 48//47 53//53
f 63//54 62//55 61//56
f 61//56 115//57 56//49
f 59//58 51//43 50//42
f 7//1 5//3 6//19 11//10
f 54//48 50//42 47//45
f 48//47 54//48 47//45
f 46//40 42//37 38//34
f 21//59 2//60 1//6
f 22//11 25//12 10//8
f 1//6 25//12 21//59
f 9//4 18//18 14//13
f 66//61 65//62 68//63
f 68//63 65//62 13//20
f 66//61 13//20 64//17
f 72//64 73//65 71//66
f 66//61 71//66 67//67
f 70//68 73//65 72//64
f 73//65 74//69 71//66
f 73//65 79//70 78//71
f 75//72 78//71 76//73
f 80//74 76//73 78//71
f 80//74 78//71 79//70
f 73//65 75//72 74//69
f 73//65 70//68 18//18
f 77//75 69//76 76//73
f 76//73 74//69 75//72
f 69//76 65//62 74//69
f 83//77 33//29 81//78
f 84//79 33//29 83//77
f 82//80 86//81 85//82
f 82//80 83//77 81//78
f 89//83 81//78 69//76
f 89//83 90//84 82//80
f 69//76 77//75 89//83
f 95//85 96//86 82//80
f 41//38 20//87 40//88
f 73//65 98//89 79//70
f 20//87 97//90 73//65
f 98//89 80//74 79//70
f 103//91 91//92 99//93
f 98//89 99//93 91//92
f 97//90 99//93 98//89
f 101//94 43//41 100//95
f 101//94 100//95 99//93
f 43//41 94//96 100//95
f 90//84 103//91 102//97
f 103//91 90//84 89//83
f 90//84 102//97 104//98
f 44//36 87//99 92//100
f 92//100 86//81 96//86
f 92//100 87//99 88//101
f 44//36 92//100 94//96
f 95//85 104//98 96//86
f 106//102 107//103 45//104
f 99//93 97//90 105//105
f 52//46 109//106 53//53
f 112//107 111//108 109//106
f 111//108 57//51 53//53
f 109//106 107//103 110//109
f 115//57 114//110 59//58
f 115//57 113//111 112//107
f 51//43 114//110 106//102
f 42//37 97//90 41//38
f 117//112 121//113 118//114
f 124//115 119//116 120//117
f 117//112 119//116 121//113
f 122//118 63//54 121//113
f 126//119 136//120 119//116
f 119//116 123//121 121//113
f 128//122 116//123 127//124
f 130//125 128//122 127//124
f 128//122 129//126 127//124
f 129//126 130//125 127//124
f 132//127 129//126 131//128
f 132//127 124//115 120//117
f 133//129 125//130 131//128
f 63//54 133//129 131//128
f 129//126 132//127 130//125
f 139//131 138//132 136//120
f 137//133 136//120 138//132
f 137//133 135//134 136//120
f 147//135 145//136 141//137
f 146//138 147//135 141//137
f 150//139 149//140 146//138
f 152//141 150//139 146//138
f 152//141 146//138 143//142
f 145//136 147//135 149//140
f 152//141 151//143 150//139
f 153//144 151//143 154//145
f 158//146 157//147 156//148
f 153//144 159//149 156//148
f 165//150 164//151 160//152
f 166//153 162//154 165//150
f 165//150 162//154 164//151
f 160//152 154//145 151//143
f 152//141 158//146 160//152
f 159//149 165//150 158//146
f 153//144 156//148 149//140
f 202//155 169//156 168//157
f 173//158 172//159 171//160
f 175//161 159//149 172//159
f 159//149 175//161 166//153
f 169//156 177//162 172//159
f 176//163 177//162 169//156
f 178//164 175//161 172//159
f 180//165 181//166 169//156
f 169//156 202//155 180//165
f 176//163 183//167 177//162
f 177//162 183//167 179//168
f 173//158 174//169 168//157
f 169//156 173//158 168//157
f 181//166 176//163 169//156
f 185//170 184//171 195//172
f 186//173 174//169 163//174
f 187//175 186//173 163//174
f 190//176 167//177 189//178
f 192//179 191//180 194//181
f 197//182 193//183 196//184
f 186//173 197//182 196//184
f 195//172 197//182 196//184
f 196//184 174//169 186//173
f 200//185 192//179 199//186
f 207//187 193//183 201//188
f 201//188 193//183 199//186
f 204//189 205//190 181//166
f 206//191 205//190 203//192
f 203//192 204//189 202//155
f 206//191 185//170 207//187
f 207//187 183//167 182//193
f 207//187 179//168 183//167
f 170//194 153//144 155//195
f 163//174 171//160 161//196
f 188//197 167//177 162//154
f 167//177 187//175 162//154
f 184//171 202//155 168//157
f 202//155 181//166 180//165
f 163//174 174//169 171//160
f 175//161 191//180 166//153
f 206//191 182//193 181//166
f 188//197 162//154 166//153
f 212//198 209//199 138//132
f 213//200 210//201 212//198
f 215//202 217//203 210//201
f 217//203 214//204 211//205
f 216//206 211//205 139//131
f 145//136 213//200 218//207
f 220//208 152//141 148//209
f 157//147 220//208 219//210
f 138//132 218//207 212//198
f 218//207 213//200 212//198
f 148//209 214//204 215//202
f 211//205 216//206 134//211
f 220//208 148//209 213//200
f 192//179 190//176 221//212
f 122//118 208//213 133//129
f 134//211 125//130 210//201
f 118//114 61//56 60//214
f 117//112 60//214 58//52
f 111//108 129//126 57//51
f 131//128 129//126 62//55
f 63//54 131//128 62//55
f 15//16 13//20 16//15
f 17//14 66//61 64//17
f 70//68 17//14 18//18
f 17//14 70//68 68//63
f 87//99 44//36 35//32
f 94//96 43//41 44//36
f 49//44 106//102 46//40
f 57//51 55//50 53//53
f 62//55 113//111 61//56
f 113//111 115//57 61//56
f 125//130 124//115 132//127
f 63//54 122//118 133//129
f 138//132 209//199 140//215
f 140//215 209//199 137//133
f 218//207 141//137 145//136
f 144//216 142//217 214//204
f 221//212 167//177 188//197
f 189//178 192//179 221//212
f 57//51 116//123 58//52
f 3//2 7//1 12//9 22//11
f 9//4 10//8 8//5
f 8//5 10//8 4//7
f 13//20 22//11 11//10
f 1//6 8//5 25//12
f 21//59 24//21 27//23 2//60
f 7//1 5//3 4//7
f 4//7 5//3 3//2
f 3//2 22//11 8//5
f 12//9 7//1 4//7
f 1//6 2//60 9//4
f 16//15 15//16 14//13
f 15//16 16//15 17//14
f 14//13 15//16 6//19
f 15//16 16//15 11//10
f 4//7 9//4 14//13
f 24//21 26//22 23//218
f 24//21 26//22 27//23
f 25//12 24//21 23//218
f 2//60 27//23 9//4
f 22//11 33//29 29//25
f 34//33 32//28 35//32
f 31//27 35//32 32//28
f 29//25 31//27 28//26
f 32//28 34//33 30//24
f 26//22 25//12 30//24
f 21//59 26//22 24//21
f 23//218 26//22 21//59
f 21//59 25//12 23//218
f 67//67 71//66 72//64 65//62
f 36//30 33//29 37//31
f 9//4 38//34 18//18
f 9//4 30//24 38//34
f 19//39 41//38 40//88
f 44//36 43//41 39//35
f 38//34 19//39 18//18
f 31//27 36//30 35//32
f 31//27 33//29 36//30
f 34//33 35//32 44//36
f 46//40 43//41 48//47
f 47//45 46//40 48//47
f 46//40 47//45 49//44
f 46//40 45//104 42//37
f 48//47 52//46 53//53
f 55//50 56//49 54//48
f 60//214 61//56 56//49
f 58//52 60//214 56//49
f 50//42 56//49 59//58
f 19//39 40//88 20//87
f 66//61 67//67 65//62
f 66//61 68//63 13//20
f 72//64 71//66 70//68
f 66//61 70//68 71//66
f 66//61 68//63 70//68
f 72//64 71//66 74//69 65//62
f 65//62 81//78 13//20
f 65//62 69//76 81//78
f 130//125 120//117 116//123 128//122
f 78//71 75//72 73//65
f 19//39 20//87 73//65
f 80//74 77//75 76//73
f 18//18 19//39 73//65
f 74//69 76//73 69//76
f 83//77 82//80 85//82
f 84//79 85//82 86//81
f 81//78 33//29 22//11
f 83//77 85//82 84//79
f 88//101 87//99 33//29
f 89//83 77//75 91//92
f 89//83 82//80 81//78
f 94//96 92//100 96//86
f 104//98 102//97 100//95
f 104//98 100//95 93//219
f 93//219 96//86 104//98
f 41//38 97//90 20//87
f 97//90 98//89 73//65
f 80//74 98//89 77//75
f 98//89 91//92 77//75
f 100//95 102//97 99//93
f 93//219 100//95 94//96
f 90//84 95//85 82//80
f 102//97 103//91 99//93
f 93//219 94//96 96//86
f 104//98 95//85 90//84
f 96//86 86//81 82//80
f 84//79 88//101 33//29
f 84//79 86//81 88//101
f 89//83 91//92 103//91
f 92//100 88//101 86//81
f 42//37 45//104 97//90
f 101//94 99//93 105//105
f 105//105 108//220 101//94
f 43//41 101//94 108//220
f 105//105 45//104 107//103
f 107//103 108//220 105//105
f 49//44 51//43 106//102
f 97//90 45//104 105//105
f 108//220 52//46 43//41
f 107//103 109//106 52//46
f 107//103 52//46 108//220
f 114//110 112//107 110//109
f 110//109 112//107 109//106
f 53//53 109//106 111//108
f 56//49 115//57 59//58
f 115//57 112//107 114//110
f 113//111 62//55 129//126
f 129//126 111//108 113//111
f 113//111 111//108 112//107
f 106//102 114//110 110//109
f 106//102 110//109 107//103
f 121//113 61//56 118//114
f 117//112 120//117 119//116
f 121//113 123//121 122//118
f 125//130 126//119 124//115
f 126//119 119//116 124//115
f 116//123 57//51 127//124
f 57//51 128//122 127//124
f 187//175 190//176 192//179 193//183
f 57//51 129//126 128//122
f 130//125 132//127 120//117
f 125//130 134//211 126//119
f 125//130 132//127 131//128
f 208//213 125//130 133//129
f 136//120 135//134 123//121
f 135//134 137//133 122//118
f 126//119 139//131 136//120
f 137//133 138//132 140//215
f 138//132 139//131 142//217
f 143//142 142//217 144//216
f 141//137 142//217 146//138
f 148//209 152//141 143//142
f 146//138 149//140 147//135
f 146//138 142//217 143//142
f 149//140 219//210 145//136
f 152//141 160//152 151//143
f 150//139 151//143 153//144
f 153//144 154//145 155//195
f 153//144 172//159 159//149
f 159//149 158//146 156//148
f 161//196 154//145 160//152
f 161//196 162//154 163//174
f 154//145 161//196 171//160
f 157//147 158//146 152//141
f 158//146 165//150 160//152
f 150//139 153//144 149//140
f 160//152 164//151 161//196
f 162//154 161//196 164//151
f 138//132 142//217 141//137
f 156//148 219//210 149//140
f 170//194 172//159 153//144
f 171//160 174//169 173//158
f 172//159 170//194 171//160
f 172//159 177//162 178//164
f 169//156 172//159 173//158
f 175//161 178//164 179//168
f 175//161 179//168 198//221
f 177//162 179//168 178//164
f 176//163 182//193 183//167
f 182//193 176//163 181//166
f 174//169 184//171 168//157
f 195//172 184//171 174//169
f 167//177 190//176 187//175
f 189//178 188//197 191//180 192//179
f 195//172 196//184 193//183 207//187
f 193//183 197//182 186//173
f 197//182 195//172 174//169 196//184
f 198//221 179//168 207//187 201//188
f 207//187 185//170 195//172
f 200//185 199//186 194//181 193//183
f 201//188 199//186 198//221
f 194//181 199//186 192//179
f 192//179 200//185 193//183
f 191//180 198//221 199//186 194//181
f 194//181 199//186 193//183
f 170//194 155//195 154//145 171//160
f 162//154 187//175 163//174
f 193//183 186//173 187//175
f 181//166 205//190 206//191
f 202//155 204//189 181//166
f 203//192 205//190 204//189
f 206//191 207//187 182//193
f 185//170 203//192 184//171
f 202//155 184//171 203//192
f 206//191 203//192 185//170
f 159//149 166//153 165//150
f 191//180 188//197 166//153
f 198//221 191//180 175//161
f 209//199 210//201 208//213
f 209//199 212//198 210//201
f 139//131 214//204 142//217
f 217//203 211//205 210//201
f 210//201 211//205 134//211
f 215//202 214//204 217//203
f 145//136 219//210 213//200
f 220//208 157//147 152//141
f 214//204 148//209 144//216
f 216//206 139//131 134//211
f 139//131 211//205 214//204
f 148//209 210//201 213//200
f 219//210 220//208 213//200
f 210//201 148//209 215//202
f 123//121 135//134 122//118
f 123//121 119//116 136//120
f 210//201 125//130 208//213
f 116//123 120//117 58//52
f 58//52 120//117 117//112
f 60//214 117//112 118//114
f 121//113 63//54 61//56
f 15//16 64//17 13//20
f 17//14 68//63 66//61
f 13//20 81//78 22//11
f 33//29 87//99 37//31
f 87//99 35//32 37//31
f 106//102 45//104 46//40
f 59//58 114//110 51//43
f 137//133 209//199 208//213
f 122//118 137//133 208//213
f 134//211 139//131 126//119
f 148//209 143//142 144//216
f 219//210 156//148 157//147
f 138//132 141//137 218//207
f 189//178 221//212 188//197
f 221//212 189//178 167//177
f 189//178 221//212 190//176
