# Blender v2.76 (sub 0) OBJ File: 'spines-design.blend'
# www.blender.org
mtllib spine24.mtl
o spine_2_lq_spine_2.001
v -0.515942 -0.126987 -0.079319
v -0.501096 0.432298 -0.162360
v -0.389631 0.289312 -0.424732
v 0.554526 -0.108327 -0.141640
v 0.144523 0.076757 0.108041
v -0.153668 -0.131089 0.131393
v 0.383192 -0.228721 0.015728
v -0.134671 -0.531274 -0.090297
v 0.163222 -0.533744 -0.064579
v -0.084197 -0.453210 0.059313
v 0.539405 0.688232 -0.009104
v 0.564729 0.678417 -0.144542
v -0.588606 0.677402 0.066773
v -0.509501 0.652106 -0.065356
v 0.158448 0.705493 0.109103
v -0.371862 0.703744 0.149575
v 0.303807 -0.080670 -0.720636
v 0.458700 0.220436 -0.346567
v -0.214660 -0.322612 -0.780459
v -0.130021 0.480312 -0.334468
v 0.290764 0.404691 -0.391087
v -0.101077 -0.221212 -1.063241
v 0.164496 -0.311047 -0.713743
v -0.026352 0.235164 -0.997328
v 0.111185 0.047780 -1.120502
v 0.057562 -0.156439 -1.081536
v -0.303393 0.057059 -1.095605
v -0.298846 -0.091917 -1.091012
v 0.362899 -0.205657 -1.856790
v -0.213973 0.187833 -1.061824
v -0.102488 -0.281022 -1.998537
v 0.125673 -0.317730 -1.643296
v -0.343407 -0.024461 -1.795554
v -0.321245 0.209114 -1.702410
v -0.321245 -0.209114 -1.702409
v -0.132197 -0.335528 -1.594607
v -0.132197 0.335529 -1.594607
v 0.551771 -0.076593 -2.621466
v 0.503679 0.205789 -2.621538
v 0.240433 0.290622 -1.738194
v -0.102490 0.281022 -1.998533
v 0.400817 0.083349 -1.826212
v -0.225195 0.076878 -2.019576
v -0.132781 0.078344 -2.748848
v -0.050520 -0.271980 -2.729024
v 0.304081 -0.333214 -2.638393
v 0.304081 0.333215 -2.638393
v -0.000134 0.301969 -2.734022
v 0.329652 -0.479401 -3.102840
v 0.617479 -0.000000 -3.579307
v 0.501292 -0.316029 -3.630510
v 0.501294 0.316029 -3.630509
v 0.329652 0.479401 -3.102841
v 0.668821 -0.130662 -3.143954
v 0.603494 0.299335 -3.145231
v -0.290535 0.141677 -3.036805
v -0.233169 -0.323377 -3.085955
v -0.057523 -0.304236 -4.068462
v 0.214826 -0.499572 -3.502518
v -0.057257 -0.491367 -3.252922
v 0.214826 0.499572 -3.502519
v -0.057257 0.491367 -3.252921
v -0.057529 0.304242 -4.068444
v 0.158599 0.137243 -4.138489
v 0.142509 -0.194651 -4.099776
v -0.407386 0.136669 -3.927616
v -0.364588 -0.187435 -4.014058
v -0.195919 -0.036372 -5.238427
v -0.230079 0.092023 -5.181643
v -0.148325 -0.129303 -4.768178
v -0.370838 -0.077516 -5.051751
v -0.381989 0.066449 -5.053538
v -0.246015 -0.110932 -5.189945
v -0.263428 0.097501 -5.074898
v 0.348125 -0.163780 -7.106519
v 0.286678 0.308938 -7.076519
v -0.895892 0.098429 -5.821044
v -0.809318 -0.261975 -5.779753
v -0.565438 -0.452173 -5.851746
v -0.260057 -0.569968 -6.288798
v -0.336229 0.561765 -6.176148
v -0.682989 0.345165 -5.726607
v -0.174593 -0.723942 -7.867809
v -0.785107 -0.617522 -7.852847
v -1.153774 0.000000 -6.552476
v -1.047670 0.389767 -6.475096
v -1.047670 -0.389766 -6.475096
v -0.283755 -0.756900 -7.048312
v -0.896118 -0.640729 -6.866880
v -0.283755 0.756899 -7.048308
v -0.756340 0.681005 -6.785818
v 0.622714 0.000000 -8.997413
v 0.541820 -0.392555 -8.952936
v 0.541820 0.392554 -8.952935
v -0.174594 0.723942 -7.867809
v -0.785107 0.617522 -7.852844
v 0.285685 -0.443891 -7.897788
v 0.386686 0.187206 -7.910809
v -1.071511 -0.000000 -7.837527
v -1.032528 0.280094 -7.813725
v -1.032527 -0.280092 -7.813722
v -0.325864 0.000000 -9.595587
v -0.325880 0.426581 -9.543362
v 0.098855 -0.171567 -9.543283
v -0.325880 -0.426581 -9.543362
v -0.882780 0.000000 -9.510983
v -0.718118 0.489501 -9.473001
v 0.232764 0.383975 -9.446849
v -0.718108 -0.489501 -9.473005
v -1.267671 -0.000000 -9.033426
v -1.132390 0.549104 -8.920142
v -1.132390 -0.549104 -8.920142
v -0.129660 -0.942132 -8.990931
v -0.704362 -0.874432 -8.981168
v -0.129660 0.942132 -8.990932
v -0.704361 0.874433 -8.981170
v -0.417481 -0.067060 0.115975
v -0.429749 -0.353406 0.013769
v 0.545158 -0.320387 -3.043667
v 0.132997 -0.569449 -7.071685
v -0.969661 0.555013 -7.103004
v 0.197717 0.535841 -7.906706
v -1.017125 -0.472657 -9.291613
v -0.191588 0.766717 -9.382898
v 0.429094 -0.144327 -9.389297
v -0.191592 -0.766717 -9.382903
v 0.353414 -0.689744 -8.987282
v -1.017129 0.472651 -9.291625
v 0.400784 -0.399329 -0.107401
v 0.033060 0.171849 -1.075609
v -0.177875 0.380249 -3.090563
v 0.132991 0.569443 -7.071662
v 0.353415 0.689744 -8.987282
vn -0.474900 -0.172000 0.863100
vn -0.143900 0.728300 0.669900
vn -0.768500 0.581500 0.267100
vn -0.977400 -0.210000 0.025700
vn -0.792600 0.216300 -0.570100
vn -0.799500 0.470100 -0.373800
vn -0.904900 -0.419400 -0.072100
vn -0.417200 -0.855200 -0.307500
vn 0.200100 -0.050300 0.978500
vn 0.498200 -0.260700 0.826900
vn 0.608800 0.607600 0.510100
vn 0.965400 -0.233300 0.116800
vn 0.706200 -0.682100 0.189500
vn 0.138400 0.726000 0.673600
vn 0.005300 -0.154500 0.988000
vn -0.684500 -0.590200 0.427900
vn -0.971000 0.236000 -0.037900
vn -0.973700 -0.058700 -0.220000
vn -0.841100 -0.528100 -0.116600
vn -0.248500 -0.964700 0.086700
vn 0.291600 -0.904800 0.310200
vn -0.038300 -0.576100 0.816400
vn 0.836300 0.164600 -0.523000
vn 0.687400 0.639700 -0.343800
vn -0.459800 0.688800 -0.560400
vn -0.165900 0.822800 -0.543600
vn 0.367700 0.651800 -0.663200
vn 0.700900 -0.702700 -0.122700
vn 0.874800 -0.230200 -0.426200
vn 0.483900 -0.781100 -0.394500
vn 0.501200 0.852900 -0.146200
vn 0.103000 0.882400 -0.459100
vn -0.485200 0.866400 -0.118000
vn -0.081300 -0.983900 -0.159300
vn 0.987600 0.157000 0.004400
vn 0.939000 0.196100 0.282300
vn 0.534300 0.817700 0.214300
vn -0.844700 0.524400 -0.107200
vn -0.963500 0.146000 0.224200
vn -0.927500 0.178300 0.328400
vn -0.807400 -0.522400 0.274000
vn -0.263000 -0.958800 0.107500
vn -0.222300 0.970100 0.097200
vn -0.887400 0.347200 -0.303100
vn -0.547300 -0.823900 -0.147300
vn 0.089400 -0.985600 0.143500
vn 0.340400 -0.920300 0.192600
vn 0.212100 0.962600 0.168700
vn -0.579700 0.791900 -0.191700
vn 0.977800 -0.089700 0.189500
vn 0.827200 0.526000 0.197300
vn 0.806000 -0.542500 0.236700
vn 0.727900 -0.674300 0.124000
vn -0.507000 0.833800 0.218200
vn -0.669100 0.689900 0.276200
vn 0.268800 -0.949500 0.161400
vn -0.648700 -0.730600 0.213300
vn 0.704300 -0.586500 -0.399800
vn 0.266500 0.950200 0.161300
vn 0.839500 0.540100 0.059300
vn 0.977500 -0.206200 0.043500
vn -0.347800 0.934800 0.072700
vn 0.161600 -0.964500 -0.208600
vn 0.173600 -0.938500 -0.298300
vn 0.681700 -0.527300 -0.507200
vn 0.756000 0.382900 -0.530800
vn 0.926200 -0.000500 -0.376900
vn 0.704300 0.594900 -0.387300
vn 0.160800 0.965500 -0.204800
vn -0.942900 0.332700 0.013100
vn -0.351200 -0.931600 0.093500
vn -0.868200 -0.496000 -0.013100
vn 0.183800 0.929200 -0.320600
vn -0.767700 0.569900 0.293000
vn -0.683000 -0.687100 0.247800
vn -0.011300 0.997200 0.073400
vn 0.595400 -0.732400 -0.330200
vn 0.902700 0.406000 0.142500
vn 0.630100 -0.730000 0.264600
vn 0.902600 -0.131400 0.409800
vn 0.681200 -0.716100 0.152100
vn -0.740000 -0.494700 0.455700
vn -0.184700 -0.906100 0.380600
vn -0.877800 0.156000 0.452800
vn 0.929600 0.326100 0.171900
vn 0.667500 0.730300 0.144800
vn 0.205100 0.925300 0.318800
vn -0.992200 -0.005100 0.124700
vn -0.827200 -0.515000 0.224800
vn -0.467900 0.761100 0.449000
vn -0.819300 0.533600 0.209600
vn -0.515600 -0.853800 0.071400
vn 0.191600 -0.977200 0.090900
vn 0.116100 -0.989300 0.088600
vn -0.346900 0.927100 0.141600
vn 0.826700 -0.549500 0.120700
vn -0.936900 0.348400 0.029600
vn -0.999200 0.000000 0.039900
vn -0.933600 -0.356100 0.039200
vn 0.918500 0.369900 -0.139300
vn 0.677900 0.715800 -0.167700
vn 0.697000 0.706400 0.123200
vn -0.555900 -0.828300 0.069400
vn 0.302300 -0.908000 0.290000
vn -0.761200 0.648000 -0.026100
vn 0.988400 0.021900 -0.150100
vn 0.974700 0.178000 0.134700
vn 0.923500 -0.373300 -0.088000
vn 0.689900 -0.179900 -0.701200
vn 0.519500 0.343000 -0.782600
vn 0.133500 0.987800 0.079900
vn 0.164600 0.982300 0.089300
vn -0.510600 0.857500 0.062700
vn -0.007900 0.015900 -0.999800
vn -0.485500 0.000000 -0.874200
vn -0.314500 0.455200 -0.832900
vn 0.969200 -0.176400 0.171800
vn 0.012800 0.264800 -0.964200
vn -0.675500 0.451100 -0.583200
vn 0.322800 -0.189000 -0.927400
vn 0.668000 -0.713600 -0.211100
vn 0.110400 0.718400 -0.686800
vn 0.002500 -0.281000 -0.959700
vn -0.314500 -0.455200 -0.832900
vn -0.834900 -0.546300 -0.067300
vn -0.675500 -0.451100 -0.583200
vn 0.149400 -0.700800 -0.697500
vn -0.834900 0.546300 -0.067300
vn -0.974900 0.000000 -0.222400
vn -0.364300 -0.916200 -0.167000
vn 0.185100 -0.975700 -0.116900
vn 0.185400 0.975700 -0.116500
vn -0.364300 0.916200 -0.167000
usemtl None
s 1
f 117//1 16//2 13//3
f 1//4 13//3 2//5
f 1//4 2//5 3//6
f 1//4 28//7 19//8
f 5//9 7//10 11//11
f 4//12 7//10 129//13
f 5//9 15//14 16//2
f 6//15 117//1 118//16
f 27//17 33//18 35//19
f 6//15 7//10 5//9
f 8//20 9//21 10//22
f 8//20 10//22 118//16
f 4//12 18//23 12//24
f 12//24 15//14 11//11
f 14//25 2//5 13//3
f 20//26 12//24 21//27
f 26//28 17//29 23//30
f 17//29 129//13 23//30
f 18//23 130//31 21//27
f 23//30 9//21 19//8
f 23//30 129//13 9//21
f 3//6 2//5 20//26
f 20//26 21//27 24//32
f 24//32 21//27 130//31
f 27//17 3//6 30//33
f 19//8 28//7 22//34
f 19//8 22//34 23//30
f 23//30 22//34 26//28
f 24//32 30//33 20//26
f 25//35 17//29 26//28
f 42//36 40//37 130//31
f 27//17 30//33 34//38
f 44//39 56//40 57//41
f 36//42 22//34 28//7
f 28//7 35//19 36//42
f 37//43 130//31 40//37
f 37//43 34//38 30//33
f 33//18 34//38 43//44
f 35//19 33//18 31//45
f 36//42 31//45 46//46
f 36//42 46//46 32//47
f 47//48 41//49 37//43
f 38//50 39//51 42//36
f 38//50 42//36 29//52
f 29//52 119//53 38//50
f 44//39 48//54 131//55
f 49//56 46//46 45//57
f 45//57 33//18 43//44
f 44//39 41//49 48//54
f 47//48 48//54 41//49
f 47//48 40//37 39//51
f 49//56 51//58 119//53
f 48//54 47//48 53//59
f 53//59 39//51 55//60
f 54//61 55//60 39//51
f 48//54 62//62 131//55
f 59//63 58//64 65//65
f 64//66 51//58 65//65
f 50//67 64//66 52//68
f 55//60 52//68 53//59
f 53//59 61//69 62//62
f 50//67 54//61 51//58
f 54//61 119//53 51//58
f 131//55 66//70 56//40
f 60//71 57//41 67//72
f 52//68 64//66 63//73
f 72//74 71//75 67//72
f 61//69 63//73 62//62
f 72//74 66//70 62//62
f 74//76 63//73 64//66
f 66//70 67//72 57//41
f 64//66 65//65 70//77
f 69//78 70//77 73//79
f 68//80 73//79 120//81
f 71//75 70//77 58//64
f 60//71 67//72 71//75
f 71//75 78//82 79//83
f 72//74 77//84 78//82
f 68//80 76//85 69//78
f 76//85 132//86 69//78
f 74//76 69//78 81//87
f 77//84 85//88 87//89
f 77//84 82//90 86//91
f 79//83 78//82 87//89
f 84//92 83//93 88//94
f 81//87 69//78 132//86
f 81//87 91//95 82//90
f 91//95 86//91 82//90
f 97//96 120//81 83//93
f 85//88 86//91 100//97
f 85//88 99//98 101//99
f 94//100 133//101 122//102
f 87//89 101//99 89//103
f 88//94 79//83 89//103
f 80//104 88//94 120//81
f 91//95 121//105 86//91
f 92//106 94//100 98//107
f 93//108 92//106 98//107
f 92//106 125//109 108//110
f 92//106 93//108 125//109
f 90//111 95//112 96//113
f 94//100 108//110 133//101
f 102//114 106//115 107//116
f 95//112 132//86 122//102
f 75//117 98//107 76//85
f 98//107 122//102 132//86
f 97//96 75//117 120//81
f 84//92 89//103 101//99
f 100//97 121//105 96//113
f 102//114 103//118 108//110
f 106//115 128//119 107//116
f 104//120 125//109 127//121
f 124//122 133//101 108//110
f 102//114 105//123 109//124
f 112//125 101//99 99//98
f 109//124 123//126 106//115
f 105//123 126//127 109//124
f 99//98 100//97 111//128
f 112//125 84//92 101//99
f 110//129 111//128 128//119
f 100//97 96//113 111//128
f 110//129 106//115 123//126
f 127//121 97//96 83//93
f 114//130 113//131 83//93
f 114//130 109//124 126//127
f 95//112 115//132 116//133
f 112//125 123//126 114//130
f 113//131 126//127 127//121
f 115//132 95//112 122//102
f 116//133 111//128 96//113
f 124//122 107//116 116//133
f 116//133 128//119 111//128
f 116//133 107//116 128//119
f 1//4 118//16 13//3
f 118//16 117//1 13//3
f 4//12 11//11 7//10
f 117//1 6//15 16//2
f 6//15 10//22 7//10
f 8//20 19//8 9//21
f 10//22 9//21 7//10
f 7//10 9//21 129//13
f 4//12 12//24 11//11
f 12//24 18//23 21//27
f 16//2 12//24 14//25
f 16//2 14//25 13//3
f 15//14 12//24 16//2
f 14//25 20//26 2//5
f 20//26 14//25 12//24
f 17//29 18//23 4//12
f 17//29 4//12 129//13
f 19//8 8//20 118//16
f 20//26 30//33 3//6
f 30//33 24//32 130//31
f 17//29 25//35 18//23
f 18//23 25//35 130//31
f 25//35 42//36 130//31
f 29//52 25//35 26//28
f 25//35 29//52 42//36
f 33//18 27//17 34//38
f 36//42 26//28 22//34
f 26//28 36//42 32//47
f 37//43 30//33 130//31
f 43//44 34//38 41//49
f 36//42 35//19 31//45
f 26//28 32//47 29//52
f 47//48 37//43 40//37
f 37//43 41//49 34//38
f 42//36 39//51 40//37
f 44//39 131//55 56//40
f 44//39 45//57 43//44
f 45//57 31//45 33//18
f 44//39 43//44 41//49
f 46//46 29//52 32//47
f 45//57 46//46 31//45
f 29//52 46//46 119//53
f 59//63 49//56 60//71
f 49//56 59//63 51//58
f 49//56 119//53 46//46
f 60//71 45//57 57//41
f 53//59 47//48 39//51
f 38//50 119//53 54//61
f 64//66 50//67 51//58
f 53//59 52//68 61//69
f 50//67 55//60 54//61
f 55//60 50//67 52//68
f 56//40 66//70 57//41
f 58//64 59//63 60//71
f 131//55 62//62 66//70
f 72//74 62//62 63//73
f 74//76 72//74 63//73
f 68//80 69//78 73//79
f 69//78 74//76 64//66
f 69//78 64//66 70//77
f 58//64 70//77 65//65
f 71//75 58//64 60//71
f 73//79 71//75 80//104
f 73//79 70//77 71//75
f 68//80 75//117 76//85
f 82//90 72//74 74//76
f 77//84 72//74 82//90
f 85//88 77//84 86//91
f 79//83 80//104 71//75
f 73//79 80//104 120//81
f 74//76 81//87 82//90
f 83//93 120//81 88//94
f 100//97 86//91 121//105
f 88//94 80//104 79//83
f 28//7 1//4 3//6
f 81//87 90//111 91//95
f 90//111 81//87 132//86
f 127//121 93//108 97//96
f 125//109 93//108 127//121
f 91//95 96//113 121//105
f 95//112 90//111 132//86
f 76//85 98//107 132//86
f 75//117 97//96 98//107
f 124//122 103//118 107//116
f 104//120 108//110 125//109
f 103//118 124//122 108//110
f 102//114 104//120 105//123
f 105//123 104//120 126//127
f 112//125 114//130 84//92
f 109//124 114//130 123//126
f 124//122 115//132 133//101
f 118//16 1//4 19//8
f 15//14 5//9 11//11
f 6//15 5//9 16//2
f 10//22 6//15 118//16
f 28//7 27//17 35//19
f 45//57 44//39 57//41
f 60//71 49//56 45//57
f 62//62 48//54 53//59
f 38//50 54//61 39//51
f 51//58 59//63 65//65
f 61//69 52//68 63//73
f 66//70 72//74 67//72
f 75//117 68//80 120//81
f 71//75 72//74 78//82
f 78//82 77//84 87//89
f 89//103 79//83 87//89
f 89//103 84//92 88//94
f 99//98 85//88 100//97
f 87//89 85//88 101//99
f 98//107 94//100 122//102
f 97//96 93//108 98//107
f 94//100 92//106 108//110
f 91//95 90//111 96//113
f 103//118 102//114 107//116
f 104//120 102//114 108//110
f 126//127 104//120 127//121
f 106//115 102//114 109//124
f 110//129 112//125 99//98
f 110//129 99//98 111//128
f 106//115 110//129 128//119
f 112//125 110//129 123//126
f 113//131 127//121 83//93
f 84//92 114//130 83//93
f 113//131 114//130 126//127
f 96//113 95//112 116//133
f 133//101 115//132 122//102
f 115//132 124//122 116//133
f 27//17 28//7 3//6
