# Blender v2.76 (sub 0) OBJ File: 'spines-design.blend'
# www.blender.org
mtllib spine18.mtl
o spine_10_lq_spine_10.001
v -1.103222 -0.121922 0.142005
v -1.334806 0.301255 -0.131335
v -1.124261 -0.835301 -0.119819
v -0.933365 0.616567 0.129114
v -0.958584 -0.692311 0.100504
v 1.349569 -0.224931 -0.144267
v 1.038825 0.656332 0.085778
v 1.112818 -0.332250 0.119791
v -0.337358 -0.179799 0.246418
v -0.272743 0.872052 0.194125
v 0.225951 -0.539202 0.227189
v 0.753303 0.210264 0.208729
v 0.010306 -1.349950 -0.126956
v -0.540794 -1.256245 -0.129365
v 0.558862 -1.251606 -0.136190
v -0.206961 -1.028762 0.154389
v 0.616569 -0.933365 0.129114
v 0.010306 1.349950 -0.126956
v 0.558862 1.251604 -0.136190
v -0.540797 1.256245 -0.129365
v 0.206961 1.028762 0.154389
v -0.109896 -0.587611 -1.808044
v 0.411781 -0.549784 -1.605100
v 1.089711 0.875639 -0.169916
v -0.109895 0.587613 -1.808044
v 0.411780 0.549783 -1.605103
v 0.643078 0.142946 -1.575075
v 0.602303 -0.264096 -1.554464
v -0.638879 -0.141375 -1.654222
v -0.550566 0.405484 -1.621619
v 0.206643 0.147156 -3.931909
v 0.506383 -0.201161 -3.961116
v 0.234171 -0.166028 -3.946167
v 0.619909 -0.049701 -3.901140
v 0.545063 0.197774 -3.893709
v 0.175254 0.097760 -5.703701
v -0.106007 0.178343 -5.571447
v 0.133322 -0.227950 -6.803234
v -0.017432 0.118923 -6.901976
v -0.187944 -0.093872 -5.702507
v 0.092233 -0.196503 -5.966540
v 0.133322 0.227951 -6.803233
v 0.384690 0.176376 -6.867343
v -0.031392 -0.108013 -6.932686
v 1.055392 0.150970 -8.275256
v 0.852413 -0.478359 -8.186322
v 0.420548 -0.151488 -6.870918
v 1.266104 -1.244293 -9.659708
v -0.372734 0.216070 -9.050615
v -0.226300 -0.567541 -8.976550
v 0.272591 -0.727234 -8.501221
v 0.272579 0.727226 -8.501245
v 0.797600 0.563927 -8.274256
v 2.110603 -0.343646 -9.914058
v 1.868084 -0.249744 -10.188025
v 1.834251 0.661926 -10.138797
v 1.266074 1.244278 -9.659696
v 1.812439 -0.221291 -9.224910
v 1.928869 0.523296 -9.555191
v 1.022217 0.000000 -10.339499
v 0.926323 0.865601 -10.289912
v 0.926336 -0.865585 -10.289919
v -0.176039 -0.149403 -10.316553
v -0.061600 0.702576 -10.282681
v 0.235886 -0.728653 -10.303019
v -0.595520 -0.266188 -10.173568
v -0.662704 -0.310110 -9.853848
v -0.620176 0.588409 -10.072883
v 0.988027 -1.331442 -10.108489
v 0.387159 -1.356848 -9.772138
v -0.019451 -1.119957 -10.165334
v 0.988014 1.331440 -10.108493
v 0.387163 1.356850 -9.772143
v -0.270346 1.124727 -10.076240
v -0.972810 0.983311 -0.117410
v 0.991882 -0.981100 -0.151066
v -0.497892 -0.495619 -1.552609
v -0.120643 0.722702 -9.076831
v 1.534260 -0.850830 -9.295117
v -0.324616 -1.043162 -9.962901
v 1.778222 1.033792 -9.791408
v 1.738350 -1.038269 -10.049289
vn -0.544500 -0.063900 0.836300
vn -0.818600 -0.555500 0.146000
vn -0.415900 -0.314700 0.853200
vn -0.653800 -0.641500 -0.401200
vn -0.385300 -0.902800 0.191100
vn 0.988700 -0.106800 0.105000
vn 0.804200 0.591400 0.059200
vn 0.579400 0.305400 0.755600
vn 0.535300 -0.160800 0.829200
vn 0.165100 0.049100 0.985000
vn -0.111000 0.325900 0.938800
vn 0.082600 0.441300 0.893600
vn -0.066600 -0.027300 0.997400
vn 0.051800 -0.096600 0.994000
vn -0.083400 -0.435900 0.896100
vn 0.257900 -0.417900 0.871100
vn 0.026000 -0.979600 0.199000
vn 0.335300 -0.926600 0.170400
vn 0.377300 0.907400 0.184900
vn 0.735300 -0.663000 0.141000
vn -0.009200 0.978200 0.207400
vn -0.359100 0.903700 0.233000
vn -0.684000 0.697400 0.214100
vn 0.531400 -0.788400 -0.309700
vn 0.543000 0.776800 -0.318800
vn -0.136400 -0.946000 -0.294000
vn -0.754400 0.513600 -0.408700
vn -0.973100 0.172000 0.153200
vn -0.909600 -0.138700 -0.391500
vn 0.947500 0.189200 -0.257600
vn 0.589300 0.795400 -0.141800
vn 0.981700 -0.148700 -0.118700
vn 0.291800 -0.953500 0.075100
vn -0.901500 -0.432000 0.024300
vn -0.907300 -0.412400 0.082000
vn 0.907700 -0.322400 -0.268600
vn -0.736500 0.667100 -0.111900
vn 0.452600 -0.882900 -0.124800
vn -0.673400 -0.731000 -0.110200
vn -0.176600 0.934400 -0.309300
vn 0.781200 -0.528900 0.331600
vn 0.707900 0.631000 0.317200
vn 0.824200 0.565100 -0.037000
vn -0.562600 0.824900 0.055000
vn -0.198200 -0.972700 0.120100
vn -0.882200 0.467400 0.056800
vn 0.647000 -0.594700 0.477200
vn 0.657600 -0.638600 -0.399700
vn 0.974100 -0.182600 -0.133200
vn -0.189700 0.975900 0.107700
vn -0.172700 0.919000 0.354400
vn 0.462500 0.755600 0.463900
vn 0.825000 0.159000 0.542200
vn 0.729300 0.684200 0.002700
vn 0.837400 -0.146500 0.526600
vn 0.902300 0.289500 0.319400
vn -0.948400 0.165300 0.270700
vn -0.790400 -0.525200 0.315200
vn -0.204300 -0.909300 0.362500
vn -0.200300 -0.973800 0.107200
vn -0.686600 0.653900 0.317800
vn 0.572700 -0.649500 0.500200
vn 0.332800 -0.901100 0.277800
vn 0.294000 0.914000 0.279600
vn 0.677600 0.299400 -0.671700
vn 0.495600 -0.062200 -0.866300
vn -0.185900 0.975800 0.115100
vn -0.570000 0.736100 -0.365000
vn -0.873500 0.317500 -0.369000
vn -0.977800 -0.193500 0.079600
vn 0.087300 0.007700 -0.996100
vn -0.200200 -0.025200 -0.979400
vn -0.186200 0.202400 -0.961400
vn 0.071700 0.227100 -0.971200
vn 0.076600 -0.228200 -0.970600
vn -0.082400 -0.180100 -0.980200
vn -0.732400 -0.143700 -0.665500
vn 0.137300 -0.834700 -0.533200
vn -0.313100 -0.648200 -0.694100
vn -0.705900 -0.693600 -0.143500
vn 0.153600 0.828000 -0.539200
vn -0.408900 0.273500 0.870600
usemtl None
s 1
f 1//1 3//2 5//3
f 3//2 77//4 14//5
f 6//6 24//7 7//8
f 8//9 7//8 12//10
f 10//11 12//10 21//12
f 9//13 1//1 5//3
f 11//14 9//13 16//15
f 14//5 16//15 5//3
f 12//10 11//14 8//9
f 11//14 16//15 17//16
f 13//17 15//18 17//16
f 19//19 21//12 7//8
f 15//18 76//20 17//16
f 18//21 20//22 10//11
f 10//11 20//22 75//23
f 23//24 15//18 13//17
f 18//21 19//19 26//25
f 23//24 76//20 15//18
f 22//26 13//17 14//5
f 22//26 14//5 77//4
f 20//22 30//27 75//23
f 2//28 75//23 30//27
f 3//2 29//29 77//4
f 27//30 35//31 26//25
f 34//32 35//31 27//30
f 41//33 40//34 44//35
f 19//19 24//7 26//25
f 27//30 26//25 24//7
f 27//30 6//6 28//36
f 29//29 30//27 31//37
f 32//38 23//24 22//26
f 77//4 33//39 22//26
f 25//40 26//25 35//31
f 25//40 31//37 30//27
f 47//41 43//42 36//43
f 35//31 36//43 37//44
f 34//32 32//38 41//33
f 47//41 41//33 38//45
f 40//34 37//44 39//46
f 79//47 82//48 54//49
f 37//44 36//43 43//42
f 42//50 39//46 37//44
f 52//51 43//42 53//52
f 44//35 40//34 39//46
f 45//53 81//54 53//52
f 58//55 59//56 45//53
f 47//41 45//53 43//42
f 45//53 53//52 43//42
f 44//35 39//46 49//57
f 44//35 49//57 50//58
f 51//59 38//45 44//35
f 70//60 51//59 50//58
f 49//57 39//46 78//61
f 46//62 48//63 79//47
f 52//51 78//61 39//46
f 52//51 53//52 57//64
f 54//49 56//65 59//56
f 54//49 55//66 56//65
f 73//67 74//68 78//61
f 68//69 49//57 78//61
f 67//70 50//58 49//57
f 60//71 63//72 64//73
f 60//71 61//74 56//65
f 60//71 62//75 65//76
f 62//75 55//66 82//48
f 63//72 66//77 68//69
f 69//78 71//79 65//76
f 68//69 74//68 64//73
f 66//77 63//72 71//79
f 69//78 48//63 70//60
f 71//79 70//60 80//80
f 72//81 61//74 64//73
f 69//78 62//75 82//48
f 72//81 74//68 73//67
f 73//67 57//64 72//81
f 72//81 81//54 56//65
f 2//28 1//1 4//82
f 75//23 2//28 4//82
f 1//1 2//28 3//2
f 8//9 6//6 7//8
f 76//20 8//9 17//16
f 8//9 76//20 6//6
f 10//11 9//13 12//10
f 21//12 12//10 7//8
f 12//10 9//13 11//14
f 8//9 11//14 17//16
f 14//5 13//17 16//15
f 19//19 18//21 21//12
f 29//29 2//28 30//27
f 3//2 2//28 29//29
f 6//6 76//20 28//36
f 24//7 6//6 27//30
f 9//13 10//11 4//82
f 32//38 28//36 23//24
f 27//30 28//36 34//32
f 28//36 32//38 34//32
f 18//21 25//40 20//22
f 20//22 25//40 30//27
f 23//24 28//36 76//20
f 29//29 31//37 33//39
f 77//4 29//29 33//39
f 41//33 32//38 33//39
f 41//33 33//39 40//34
f 32//38 22//26 33//39
f 35//31 31//37 25//40
f 35//31 34//32 36//43
f 36//43 41//33 47//41
f 37//44 31//37 35//31
f 36//43 34//32 41//33
f 31//37 40//34 33//39
f 37//44 40//34 31//37
f 42//50 37//44 43//42
f 42//50 52//51 39//46
f 52//51 42//50 43//42
f 45//53 46//62 58//55
f 46//62 79//47 58//55
f 45//53 59//56 81//54
f 47//41 46//62 45//53
f 51//59 47//41 38//45
f 47//41 51//59 46//62
f 70//60 48//63 51//59
f 80//80 70//60 50//58
f 79//47 48//63 82//48
f 50//58 51//59 44//35
f 46//62 51//59 48//63
f 57//64 53//52 81//54
f 58//55 54//49 59//56
f 59//56 56//65 81//54
f 54//49 82//48 55//66
f 52//51 73//67 78//61
f 73//67 52//51 57//64
f 67//70 80//80 50//58
f 67//70 49//57 68//69
f 62//75 60//71 55//66
f 63//72 65//76 71//79
f 66//77 80//80 67//70
f 66//77 67//70 68//69
f 80//80 66//77 71//79
f 69//78 82//48 48//63
f 71//79 69//78 70//60
f 72//81 57//64 81//54
f 61//74 72//81 56//65
f 16//15 9//13 5//3
f 3//2 14//5 5//3
f 16//15 13//17 17//16
f 24//7 19//19 7//8
f 21//12 18//21 10//11
f 4//82 10//11 75//23
f 22//26 23//24 13//17
f 25//40 18//21 26//25
f 38//45 41//33 44//35
f 58//55 79//47 54//49
f 74//68 68//69 78//61
f 61//74 60//71 64//73
f 55//66 60//71 56//65
f 63//72 60//71 65//76
f 64//73 63//72 68//69
f 62//75 69//78 65//76
f 74//68 72//81 64//73
f 1//1 9//13 4//82
