# Blender v2.76 (sub 0) OBJ File: 'spines-design.blend'
# www.blender.org
mtllib spine21.mtl
o spine_13_lq_spine_13.001
v -1.902988 0.000000 -0.051437
v -1.755001 0.296833 -0.036226
v -1.755000 -0.296834 -0.036226
v -1.435340 0.117254 0.559090
v -1.359903 -0.229819 0.529425
v 0.237940 -0.808963 -1.835445
v -0.607905 -0.754350 -2.061020
v 1.138420 -0.766089 -1.653126
v 2.284565 -0.162869 0.092598
v 2.169275 0.292918 0.035150
v 1.853162 0.116225 0.564549
v 1.778284 -0.228904 0.534624
v -0.326489 0.102010 0.819580
v 0.577973 0.305919 0.765032
v -0.147613 -0.305920 0.765033
v 1.080928 -0.128196 0.765033
v -0.247219 -0.740022 0.036221
v 1.040679 -0.690403 0.021014
v 0.544342 -0.579982 0.563119
v -0.436025 -0.554389 0.531722
v -0.247219 0.740022 0.036219
v 1.040683 0.690402 0.021010
v 0.544342 0.579982 0.563119
v -0.436023 0.554389 0.531722
v 3.865089 0.000000 -3.030765
v 3.685474 -0.424041 -3.082207
v 3.685473 0.424041 -3.082205
v 0.237944 0.808963 -1.835445
v 1.138410 0.766091 -1.653145
v -0.607911 0.754348 -2.060959
v 2.365471 0.000000 -1.129540
v 2.214457 -0.322390 -1.133910
v 2.214456 0.322388 -1.133910
v 2.400206 -0.758755 -5.826447
v 1.131451 -0.722939 -6.306259
v -1.812772 -0.000000 -4.631773
v -1.694648 0.373492 -4.035976
v -1.694647 -0.373491 -4.035974
v 1.165663 -1.056219 -4.337599
v 0.033520 -0.994181 -4.767030
v 2.230147 -0.993024 -3.759714
v 1.165664 1.056219 -4.337599
v 2.230151 0.993024 -3.759710
v 0.033515 0.994180 -4.767030
v 4.173728 0.134307 -6.481949
v 3.877078 -0.415569 -6.621303
v 2.400222 0.758755 -5.826492
v 1.131427 0.722933 -6.306259
v 3.913592 -0.170529 -5.135937
v 3.655655 0.448685 -5.283340
v -0.089690 -0.000000 -6.841629
v -1.340019 -0.000000 -5.776367
v -1.262231 0.416275 -5.621548
v -1.262232 -0.416283 -5.621549
v 0.332286 0.459816 -6.835510
v 0.054555 -0.312479 -6.787096
v 3.108829 -0.000000 -7.841194
v 2.433095 0.256561 -8.055077
v 2.433130 -0.256557 -8.055061
v 1.699344 -0.000000 -8.267331
v 3.847600 0.142252 -7.271173
v 3.660721 -0.256630 -7.333246
v 0.912851 -0.000000 -8.046185
v 0.977975 0.255341 -7.946232
v 0.977977 -0.255356 -7.946228
v 2.872153 -0.643606 -7.094696
v 2.022851 -0.538013 -7.784763
v 2.872157 0.643606 -7.094698
v 2.022857 0.538012 -7.784763
v -1.226692 -0.522333 0.295143
v 1.701091 0.507567 0.293682
v 3.139067 -0.780010 -3.337466
v -1.244698 -0.660169 -3.686325
v 0.454314 -0.570627 -6.601402
v -0.732723 0.763464 -5.366861
v 1.589679 -0.240940 -8.160759
v 2.967104 0.476896 -7.589390
v 2.967067 -0.476885 -7.589390
v 1.278173 0.476835 -7.744823
v 1.278170 -0.476831 -7.744839
v -1.226694 0.522333 0.295141
v 1.701094 -0.507566 0.293682
v 1.781482 0.585697 -1.242712
v -1.244697 0.660169 -3.686295
v 1.781484 -0.585697 -1.242709
v -0.732729 -0.763459 -5.366842
v 3.139072 0.780009 -3.337464
v 3.378700 -0.567617 -5.250481
v 1.589681 0.240948 -8.160749
v 3.731605 0.471118 -6.663941
vn -0.714700 0.659400 0.233200
vn -0.551700 0.211500 0.806800
vn -0.352500 0.843700 0.404900
vn -0.392700 0.919600 -0.005700
vn 0.929000 0.006500 0.369900
vn 0.671100 0.694200 0.260000
vn 0.760100 0.588900 0.274600
vn 0.098500 -0.989300 0.107100
vn 0.129600 -0.979000 0.157200
vn -0.025400 -0.997800 0.060700
vn -0.188500 -0.980800 0.049900
vn -0.076800 -0.983800 0.162000
vn -0.392700 -0.919600 -0.005700
vn 0.315800 0.936700 0.151100
vn 0.358500 -0.839900 0.407500
vn 0.318400 -0.935000 0.155800
vn 0.662200 -0.702900 0.259600
vn 0.884000 -0.313300 0.346900
vn 0.510100 0.241200 0.825600
vn 0.420600 -0.441600 0.792500
vn 0.074200 0.381300 0.921400
vn 0.355400 0.827900 0.433800
vn -0.118700 0.167100 0.978800
vn 0.178600 -0.215900 0.959900
vn 0.061400 0.809400 0.584000
vn -0.121700 0.767900 0.628900
vn -0.487200 -0.410100 0.771000
vn -0.132100 -0.792600 0.595200
vn -0.064300 -0.400000 0.914200
vn 0.073800 -0.790100 0.608500
vn 0.727200 0.634800 0.261100
vn 0.356800 0.926800 0.117100
vn -0.350500 -0.856800 0.378200
vn 0.129600 0.979000 0.157200
vn -0.076800 0.983800 0.162000
vn 0.368800 -0.922600 0.112500
vn 0.714700 -0.646300 0.267400
vn 0.942700 0.009800 0.333400
vn 0.011700 -0.999400 -0.033200
vn -0.123700 -0.989000 -0.081300
vn -0.051300 -0.983100 -0.175800
vn -0.025400 0.997800 0.060700
vn -0.188500 0.980800 0.049900
vn 0.098500 0.989300 0.107100
vn -0.761600 -0.644900 -0.063500
vn -0.720200 -0.642600 0.261400
vn -0.957900 -0.011600 0.286800
vn -0.761600 0.644900 -0.063500
vn -0.976200 0.000000 -0.216700
vn -0.316400 -0.920600 -0.228600
vn -0.240500 -0.920700 -0.307400
vn 0.139200 -0.989800 0.030600
vn 0.123500 -0.988500 -0.087700
vn 0.407200 -0.913300 -0.010800
vn -0.316900 0.922600 -0.219800
vn -0.654800 0.627000 -0.422000
vn -0.651000 -0.629600 -0.424000
vn -0.794200 0.000000 -0.607600
vn 0.144000 0.989200 0.027300
vn -0.123700 0.989000 -0.080400
vn 0.649500 -0.746500 -0.144600
vn 0.634500 -0.550100 -0.542900
vn 0.785900 0.271400 -0.555700
vn 0.624400 0.779700 0.046000
vn 0.011700 0.999400 -0.033200
vn 0.131500 0.988000 -0.080200
vn -0.061800 0.980800 -0.184900
vn -0.396100 0.811400 -0.429800
vn 0.955400 -0.280900 0.091700
vn -0.520200 -0.660900 -0.541000
vn -0.686800 0.065900 -0.723800
vn -0.444300 -0.631100 -0.635800
vn 0.499500 0.020600 -0.866000
vn -0.009400 0.000000 -0.999900
vn 0.259700 0.438000 -0.860700
vn 0.336800 0.777300 -0.531300
vn 0.456400 0.880200 -0.129900
vn 0.257800 -0.437900 -0.861300
vn 0.324500 -0.788400 -0.522600
vn -0.110300 -0.587100 -0.802000
vn 0.021300 -0.907100 -0.420300
vn -0.199000 -0.902300 -0.382400
vn -0.572800 0.012300 -0.819600
vn -0.472600 0.615900 -0.630300
vn -0.110300 0.587100 -0.801900
vn -0.193500 0.903700 -0.382000
vn 0.166100 -0.973300 -0.158500
vn 0.157500 0.974000 -0.162500
vn 0.021300 0.907100 -0.420300
vn 0.976100 0.197900 -0.089700
usemtl None
s 1
f 2//1 4//2 81//3
f 2//1 81//3 84//4
f 31//5 33//6 10//7
f 8//8 18//9 6//10
f 7//11 17//12 73//13
f 10//7 33//6 83//14
f 82//15 85//16 32//17
f 9//18 10//7 11//19
f 9//18 11//19 12//20
f 9//18 12//20 82//15
f 9//18 32//17 31//5
f 14//21 11//19 71//22
f 13//23 16//24 14//21
f 13//23 14//21 23//25
f 4//2 13//23 24//26
f 13//23 4//2 5//27
f 20//28 15//29 5//27
f 16//24 19//30 82//15
f 13//23 15//29 16//24
f 33//6 27//31 87//32
f 17//12 19//30 20//28
f 17//12 20//28 70//33
f 70//33 73//13 17//12
f 17//12 18//9 19//30
f 22//34 23//25 71//22
f 22//34 71//22 83//14
f 21//35 84//4 81//3
f 31//5 27//31 33//6
f 72//36 26//37 32//17
f 25//38 31//5 26//37
f 39//39 40//40 35//41
f 28//42 30//43 21//35
f 28//42 22//34 29//44
f 38//45 3//46 1//47
f 1//47 2//1 37//48
f 1//47 36//49 38//45
f 40//40 86//50 74//51
f 41//52 34//53 88//54
f 37//48 84//4 75//55
f 36//49 37//48 53//56
f 38//45 54//57 86//50
f 41//52 72//36 85//16
f 36//49 52//58 54//57
f 41//52 8//8 6//10
f 43//59 29//44 83//14
f 39//39 6//10 40//40
f 40//40 7//11 73//13
f 73//13 86//50 40//40
f 28//42 44//60 30//43
f 28//42 29//44 43//59
f 46//61 62//62 61//63
f 44//60 75//55 84//4
f 43//59 87//32 50//64
f 42//65 43//59 47//66
f 42//65 47//66 48//67
f 48//67 55//68 75//55
f 72//36 88//54 49//69
f 49//69 50//64 27//31
f 86//50 54//57 56//70
f 51//71 53//56 55//68
f 53//56 75//55 55//68
f 65//72 56//70 51//71
f 57//73 60//74 58//75
f 58//75 61//63 57//73
f 77//76 90//77 61//63
f 57//73 62//62 59//78
f 62//62 46//61 78//79
f 60//74 59//78 76//80
f 59//78 78//79 67//81
f 59//78 67//81 76//80
f 65//72 80//82 74//51
f 63//83 51//71 55//68
f 63//83 64//84 89//85
f 63//83 60//74 76//80
f 64//84 79//86 89//85
f 46//61 88//54 34//53
f 47//66 50//64 90//77
f 67//81 35//41 80//82
f 66//87 34//53 35//41
f 80//82 76//80 67//81
f 66//87 78//79 46//61
f 68//88 69//89 48//67
f 48//67 79//86 55//68
f 69//89 89//85 79//86
f 2//1 1//47 4//2
f 70//33 3//46 73//13
f 5//27 3//46 70//33
f 6//10 18//9 17//12
f 8//8 85//16 18//9
f 7//11 6//10 17//12
f 11//19 10//7 71//22
f 14//21 16//24 11//19
f 19//30 15//29 20//28
f 11//19 16//24 12//20
f 16//24 15//29 19//30
f 82//15 18//9 85//16
f 19//30 18//9 82//15
f 22//34 21//35 23//25
f 23//25 21//35 24//26
f 24//26 21//35 81//3
f 31//5 25//38 27//31
f 26//37 31//5 32//17
f 21//35 30//43 84//4
f 29//44 22//34 83//14
f 28//42 21//35 22//34
f 38//45 73//13 3//46
f 37//48 2//1 84//4
f 36//49 1//47 37//48
f 41//52 39//39 34//53
f 52//58 36//49 53//56
f 38//45 36//49 54//57
f 39//39 41//52 6//10
f 40//40 6//10 7//11
f 28//42 42//65 44//60
f 30//43 44//60 84//4
f 42//65 28//42 43//59
f 49//69 45//90 50//64
f 50//64 45//90 90//77
f 46//61 45//90 49//69
f 46//61 49//69 88//54
f 45//90 61//63 90//77
f 25//38 26//37 49//69
f 27//31 50//64 87//32
f 51//71 54//57 52//58
f 51//71 52//58 53//56
f 4//2 1//47 3//46
f 54//57 51//71 56//70
f 77//76 58//75 69//89
f 58//75 60//74 89//85
f 69//89 58//75 89//85
f 58//75 77//76 61//63
f 59//78 62//62 78//79
f 57//73 61//63 62//62
f 60//74 57//73 59//78
f 64//84 55//68 79//86
f 80//82 65//72 76//80
f 67//81 66//87 35//41
f 80//82 35//41 74//51
f 66//87 67//81 78//79
f 47//66 68//88 48//67
f 48//67 69//89 79//86
f 77//76 68//88 90//77
f 68//88 77//76 69//89
f 9//18 31//5 10//7
f 71//22 10//7 83//14
f 9//18 82//15 32//17
f 23//25 14//21 71//22
f 24//26 13//23 23//25
f 81//3 4//2 24//26
f 15//29 13//23 5//27
f 70//33 20//28 5//27
f 12//20 16//24 82//15
f 83//14 33//6 87//32
f 85//16 72//36 32//17
f 34//53 39//39 35//41
f 35//41 40//40 74//51
f 72//36 41//52 88//54
f 53//56 37//48 75//55
f 73//13 38//45 86//50
f 8//8 41//52 85//16
f 87//32 43//59 83//14
f 45//90 46//61 61//63
f 47//66 43//59 50//64
f 44//60 42//65 48//67
f 44//60 48//67 75//55
f 26//37 72//36 49//69
f 25//38 49//69 27//31
f 74//51 86//50 56//70
f 63//83 65//72 51//71
f 56//70 65//72 74//51
f 64//84 63//83 55//68
f 60//74 63//83 89//85
f 65//72 63//83 76//80
f 66//87 46//61 34//53
f 68//88 47//66 90//77
f 5//27 4//2 3//46
