# Blender v2.76 (sub 0) OBJ File: 'spines-design.blend'
# www.blender.org
mtllib spine31.mtl
o spine_8_lq_spine_8.001
v -1.201400 0.164281 0.224649
v -0.992990 -0.510454 0.171297
v 1.147690 -0.150418 -0.201455
v 0.915255 0.544344 -0.187276
v 1.061357 -0.135902 0.303974
v -0.110897 -0.271647 0.493630
v -0.212038 0.647412 0.370522
v 0.923734 0.189359 0.377885
v 0.246207 -0.790542 -0.061049
v -0.333227 -0.795690 0.217360
v 0.608970 -0.629534 0.257667
v -0.237877 0.786794 -0.051914
v 0.608970 0.629534 0.257667
v 0.178131 0.019375 -1.197400
v -0.671405 -0.361830 -1.352731
v -0.011763 -0.304835 -1.245314
v -0.406352 0.366088 -1.387886
v -0.857628 0.259295 -1.325098
v -0.945106 -0.100648 -1.335062
v -0.587916 0.096176 -1.849082
v -0.157385 0.297745 -1.390011
v -0.181772 -0.105922 -2.251010
v -0.472128 -0.146951 -1.882604
v -0.185086 0.111908 -2.231052
v -0.160749 -0.097930 -3.976111
v -0.374829 -0.051535 -3.418162
v -0.377440 0.058074 -3.442719
v -0.032840 0.177186 -5.063263
v -0.698234 0.262697 -5.663357
v -0.370362 0.157493 -4.932893
v -0.116476 0.078701 -3.816799
v 0.185204 -0.019937 -5.096269
v -0.509342 -0.184377 -5.359954
v 0.013320 -0.229546 -5.222877
v -1.057510 -1.335052 -6.973447
v 0.177000 -1.249386 -7.197167
v -1.891883 0.213903 -6.058088
v -1.704892 -0.598728 -6.106531
v -0.799880 -0.976683 -6.276174
v -0.564654 -0.429887 -5.708380
v -0.799886 0.976691 -6.276199
v 0.296056 0.201748 -5.461723
v 1.374872 -0.324299 -8.738596
v 0.824682 0.000000 -9.170377
v 1.063991 0.726281 -8.885384
v 0.829119 -0.748185 -8.974374
v -1.057510 1.335051 -6.973445
v 0.176999 1.249384 -7.197157
v 1.380111 0.349550 -7.583459
v 1.247096 -0.553649 -7.504010
v -2.504269 0.293051 -6.553861
v -2.242440 -0.816151 -6.659500
v -0.316229 -0.000001 -9.223603
v -1.247371 0.613077 -9.015270
v -1.408732 -0.377072 -9.032469
v 0.329397 0.501064 -9.184820
v 0.329372 -0.501073 -9.184820
v -2.936942 -0.330659 -7.875053
v -2.601232 0.917469 -7.983229
v -2.631725 0.242417 -8.534991
v -2.361172 -1.021584 -8.432302
v -1.247584 -1.466688 -8.225745
v -0.483279 -1.161843 -8.935157
v 0.584642 -1.238718 -8.550035
v -1.842692 -1.076447 -8.603286
v -1.247584 1.466688 -8.225744
v 0.584645 1.238718 -8.550038
v -0.483291 1.161852 -8.935150
v -1.842702 1.076481 -8.603316
v 0.861434 -0.545748 -0.181762
v -0.856228 0.598926 0.130580
v -0.466335 0.471762 -5.741196
v 0.825017 0.990919 -7.326243
v -1.886016 0.879200 -6.352900
v 0.825016 -0.990924 -7.326249
vn 0.826000 0.079700 -0.557900
vn 0.951100 -0.141800 -0.274200
vn 0.624100 -0.748500 -0.224100
vn 0.401700 0.823900 -0.399600
vn 0.697800 0.685300 -0.208400
vn 0.596500 0.269300 0.756100
vn 0.778400 -0.166800 0.605200
vn -0.064900 0.997700 -0.019500
vn -0.083700 0.631900 0.770400
vn 0.330600 0.786100 0.522200
vn -0.051800 -0.172500 0.983600
vn -0.852000 0.166000 0.496400
vn -0.673000 -0.611100 0.416500
vn -0.185700 -0.881300 0.434400
vn 0.368700 -0.717100 0.591400
vn 0.159600 -0.983500 -0.084600
vn 0.470500 -0.769000 -0.432700
vn -0.757300 -0.651400 -0.046000
vn 0.495700 -0.856400 0.144000
vn 0.686500 -0.710100 -0.156100
vn -0.009700 0.910600 -0.413200
vn 0.614100 0.771100 -0.168200
vn -0.338500 -0.866500 -0.366800
vn -0.686000 0.633600 -0.357600
vn -0.533400 0.786200 0.312000
vn -0.895200 -0.245200 -0.372100
vn -0.727400 0.488700 -0.481700
vn 0.785300 0.609900 0.106100
vn -0.745800 0.664500 -0.047000
vn -0.473000 -0.822800 -0.314900
vn -0.109800 -0.948600 0.296900
vn -0.022200 -0.825300 0.564300
vn -0.397300 -0.478700 0.782900
vn -0.729600 -0.542500 0.416300
vn 0.311500 0.916500 0.250800
vn -0.489300 0.334900 0.805200
vn -0.575100 0.804100 0.150400
vn 0.602000 0.642500 0.474000
vn -0.129700 0.728200 0.673000
vn 0.906100 -0.084500 0.414500
vn 0.944400 0.274300 0.181300
vn 0.621900 0.741100 0.253000
vn -0.359600 -0.542100 0.759500
vn 0.552500 -0.770200 -0.318500
vn -0.483800 0.086100 0.870900
vn -0.429100 0.695300 0.576500
vn 0.397200 0.872100 -0.285600
vn 0.261700 -0.926700 0.269800
vn 0.023700 0.819700 0.572300
vn 0.260000 0.927700 0.267800
vn 0.885000 -0.413700 0.213300
vn 0.600100 -0.756000 0.261500
vn 0.407700 -0.868600 -0.281500
vn 0.887200 -0.228500 -0.400800
vn -0.822700 0.180700 0.539000
vn -0.616100 -0.631000 0.471300
vn 0.370000 0.003700 -0.929000
vn 0.452300 -0.522100 -0.723000
vn 0.086500 -0.255900 -0.962800
vn 0.666800 0.507000 -0.546200
vn -0.092100 0.957500 0.273100
vn -0.158900 -0.973200 -0.165800
vn -0.243700 0.244400 -0.938500
vn -0.402400 0.652200 -0.642400
vn -0.022800 0.674900 -0.737500
vn -0.722100 0.144000 -0.676600
vn -0.080300 -0.004500 -0.996700
vn 0.106800 0.282500 -0.953300
vn -0.272600 -0.155500 -0.949500
vn -0.034800 -0.667900 -0.743400
vn -0.278300 -0.625100 -0.729200
vn -0.973600 -0.222800 -0.049800
vn -0.602900 -0.660200 -0.448000
vn -0.746400 0.656400 -0.109400
vn -0.160900 0.971800 -0.172200
usemtl None
s 1
f 14//1 3//2 70//3
f 3//2 21//4 4//5
f 3//2 4//5 8//6
f 70//3 3//2 5//7
f 12//8 7//9 13//10
f 7//9 8//6 13//10
f 6//11 7//9 1//12
f 6//11 1//12 2//13
f 8//6 6//11 5//7
f 6//11 10//14 11//15
f 9//16 16//17 70//3
f 9//16 70//3 11//15
f 26//18 25//19 22//20
f 12//8 4//5 17//21
f 22//20 24//22 14//1
f 15//23 9//16 10//14
f 12//8 18//24 71//25
f 17//21 4//5 21//4
f 15//23 2//13 19//26
f 21//4 20//27 17//21
f 24//22 31//28 27//29
f 22//20 16//17 23//30
f 31//28 24//22 22//20
f 35//31 39//32 38//33
f 26//18 23//30 20//27
f 25//19 26//18 33//34
f 28//35 29//36 30//37
f 28//35 42//38 72//39
f 31//28 25//19 32//40
f 31//28 32//40 28//35
f 27//29 30//37 26//18
f 42//38 49//41 73//42
f 32//40 42//38 28//35
f 33//34 26//18 30//37
f 30//37 29//36 33//34
f 29//36 40//43 33//34
f 34//44 33//34 40//43
f 40//43 32//40 34//44
f 29//36 37//45 38//33
f 74//46 37//45 29//36
f 67//47 73//42 49//41
f 39//32 36//48 32//40
f 41//49 72//39 42//38
f 42//38 48//50 41//49
f 50//51 75//52 64//53
f 49//41 50//51 43//54
f 37//45 51//55 52//56
f 44//57 46//58 57//59
f 43//54 64//53 46//58
f 43//54 44//57 45//60
f 47//61 41//49 48//50
f 62//62 64//53 36//48
f 51//55 37//45 74//46
f 54//63 69//64 68//65
f 54//63 60//66 69//64
f 53//67 54//63 56//68
f 55//69 57//59 63//70
f 53//67 44//57 57//59
f 63//70 65//71 55//69
f 58//72 61//73 52//56
f 59//74 51//55 74//46
f 59//74 69//64 60//66
f 60//66 61//73 58//72
f 62//62 35//31 52//56
f 59//74 74//46 47//61
f 62//62 61//73 65//71
f 63//70 46//58 64//53
f 63//70 57//59 46//58
f 66//75 47//61 48//50
f 67//47 48//50 73//42
f 67//47 45//60 68//65
f 45//60 56//68 68//65
f 66//75 68//65 69//64
f 19//26 1//12 18//24
f 18//24 1//12 71//25
f 2//13 1//12 19//26
f 3//2 14//1 21//4
f 8//6 4//5 13//10
f 7//9 6//11 8//6
f 1//12 7//9 71//25
f 10//14 6//11 2//13
f 5//7 6//11 11//15
f 10//14 9//16 11//15
f 7//9 12//8 71//25
f 14//1 16//17 22//20
f 14//1 24//22 21//4
f 15//23 16//17 9//16
f 15//23 10//14 2//13
f 12//8 17//21 18//24
f 20//27 19//26 18//24
f 19//26 20//27 23//30
f 15//23 19//26 23//30
f 23//30 16//17 15//23
f 17//21 20//27 18//24
f 21//4 24//22 20//27
f 26//18 20//27 27//29
f 31//28 30//37 27//29
f 29//36 28//35 72//39
f 28//35 30//37 31//28
f 32//40 25//19 34//44
f 50//51 32//40 75//52
f 42//38 32//40 49//41
f 34//44 25//19 33//34
f 39//32 35//31 36//48
f 40//43 39//32 32//40
f 39//32 40//43 38//33
f 32//40 36//48 75//52
f 41//49 74//46 72//39
f 42//38 73//42 48//50
f 43//54 45//60 49//41
f 44//57 43//54 46//58
f 45//60 44//57 56//68
f 47//61 74//46 41//49
f 49//41 32//40 50//51
f 53//67 55//69 54//63
f 54//63 55//69 60//66
f 44//57 53//67 56//68
f 56//68 54//63 68//65
f 55//69 53//67 57//59
f 60//66 55//69 61//73
f 61//73 55//69 65//71
f 51//55 58//72 52//56
f 59//74 58//72 51//55
f 58//72 59//74 60//66
f 36//48 64//53 75//52
f 63//70 62//62 65//71
f 62//62 63//70 64//53
f 66//75 67//47 68//65
f 59//74 66//75 69//64
f 16//17 14//1 70//3
f 5//7 3//2 8//6
f 11//15 70//3 5//7
f 4//5 12//8 13//10
f 23//30 26//18 22//20
f 20//27 24//22 27//29
f 25//19 31//28 22//20
f 52//56 35//31 38//33
f 40//43 29//36 38//33
f 72//39 74//46 29//36
f 45//60 67//47 49//41
f 43//54 50//51 64//53
f 38//33 37//45 52//56
f 35//31 62//62 36//48
f 61//73 62//62 52//56
f 66//75 59//74 47//61
f 67//47 66//75 48//50
