# Blender v2.76 (sub 0) OBJ File: 'spines-design.blend'
# www.blender.org
mtllib spine28.mtl
o spine_5_lq_spine_5.001
v -1.100101 -0.167582 0.111515
v -1.084013 0.187666 0.072069
v -0.057860 -0.385211 -1.081511
v -0.411564 -0.332596 -0.820065
v 1.058765 -0.158509 -0.028018
v 1.000784 0.328304 0.108790
v 0.963934 -0.123587 0.166083
v -0.182549 -0.229175 0.261663
v 0.193901 0.589999 0.201650
v -0.739547 0.134066 0.220553
v 0.531630 -0.148022 0.241151
v 0.112904 -0.741459 0.072922
v -0.694733 -0.609499 0.061303
v 0.630242 -0.611866 -0.052209
v 0.002268 0.715643 -0.032006
v 0.630242 0.611866 -0.052210
v -0.670282 0.595746 -0.051243
v -0.552907 0.572782 0.140481
v 0.303350 -0.317985 -1.320368
v 0.114380 0.377153 -1.074319
v -0.328661 0.333654 -0.924709
v -0.616110 -0.042531 -0.800566
v -0.574329 0.285959 -0.655895
v 0.311505 -0.227586 -2.613576
v 0.311505 0.227586 -2.613576
v 0.533439 0.085064 -1.226415
v 0.514105 -0.252172 -0.926833
v -0.795413 -0.092715 -2.057567
v -0.702094 0.254357 -2.046634
v -0.501794 -0.382258 -2.032418
v 0.177554 -0.321456 -3.084612
v -0.177880 0.412670 -2.356038
v -0.238642 -0.540709 -4.436028
v 0.268210 -0.505197 -4.473652
v -0.663136 -0.083514 -3.343613
v -0.235781 -0.364258 -3.056041
v -0.235781 0.364258 -3.056040
v 1.150680 -0.102961 -5.346997
v -0.238642 0.540709 -4.436029
v 0.268210 0.505197 -4.473654
v 0.384395 -0.018825 -2.976781
v 0.587084 0.306503 -4.236519
v -0.884804 -0.116374 -4.510764
v -0.752776 0.342387 -4.483034
v -0.607230 -0.254070 -5.430019
v -0.671599 0.072461 -5.363788
v -0.367854 -0.410690 -5.722789
v -0.367853 0.410690 -5.722789
v 0.000254 0.000000 -6.498714
v 0.011419 0.148579 -6.470799
v 0.011416 -0.148579 -6.470799
v 0.845669 -0.392894 -5.419141
v 0.845669 0.392894 -5.419141
v 0.725843 -0.425045 -6.194384
v 1.451154 -0.405557 -5.966121
v -1.342644 0.342948 -5.660423
v -1.109158 0.398521 -6.230251
v -0.596098 0.000000 -6.668013
v -0.608081 -0.218250 -6.601796
v -1.109154 -0.398521 -6.230246
v -2.050513 -0.404405 -6.302927
v -1.169345 -0.059224 -5.413206
v -1.512338 0.224043 -5.537586
v -1.342621 -0.342946 -5.660421
v -1.006048 -0.000000 -6.609073
v -1.542269 -0.080883 -6.817708
v -1.777771 0.248258 -6.870514
v -1.029898 -0.221441 -6.551361
v -1.029898 0.221443 -6.551361
v -2.533466 0.086529 -6.124725
v -1.721139 -0.077109 -5.574285
v -2.446778 -0.265399 -6.175769
v -2.640475 0.256356 -7.204132
v -2.428638 0.215404 -7.719945
v -3.196151 0.201567 -8.627814
v -1.893691 -0.277802 -6.883905
v -2.670377 -0.251336 -7.251771
v -2.428637 -0.215404 -7.719943
v -2.237969 -0.000000 -7.654329
v -2.982497 0.261631 -8.929842
v -3.138529 -0.145989 -8.168062
v -3.083312 0.026056 -7.724255
v -2.992742 0.031912 -9.151396
v -2.841702 -0.109016 -9.128831
v -3.351120 -0.014467 -8.863729
v -3.088826 -0.252085 -8.888348
v -2.747197 0.067415 -9.133157
v -2.593488 -0.194203 -8.838663
v -2.533359 0.130101 -8.861128
v 1.957553 0.645997 -6.832980
v 1.317371 0.538120 -7.460385
v 0.488700 -0.098731 -6.747273
v 0.529760 0.187180 -6.722489
v 0.725845 0.425046 -6.194386
v 1.451168 0.405556 -5.966133
v 1.565278 0.077729 -5.719908
v 1.051166 -0.000000 -7.715104
v 1.089678 0.261234 -7.655967
v 1.089674 -0.261248 -7.655972
v 1.957554 -0.645997 -6.832981
v 1.317371 -0.538119 -7.460387
v 2.497733 0.000000 -6.242620
v 2.444452 -0.252433 -6.281359
v 2.444452 0.252437 -6.281355
v 2.666742 0.093150 -8.142672
v 3.127320 -0.024860 -7.562675
v 2.571011 0.373652 -7.974660
v 3.011360 0.274720 -7.587204
v 2.279789 -0.000000 -8.300865
v 2.321133 0.205091 -8.249293
v 2.321135 -0.205086 -8.249295
v 2.608479 -0.358190 -8.003414
v 2.999116 -0.282715 -7.561477
v -0.178242 -0.576488 0.190738
v 0.602742 -0.528853 0.149860
v -0.569056 0.235168 -3.289833
v -0.657170 -0.400107 -4.467420
v -0.570726 0.300687 -5.494669
v 0.280157 0.300711 -6.376922
v -2.310212 0.383325 -6.372549
v 2.299626 0.478671 -6.429543
v 2.299621 -0.478670 -6.429538
v 0.407284 0.286186 -0.995011
v -0.503071 -0.277951 -3.166608
v -0.608084 0.218248 -6.601797
v 0.280159 -0.300711 -6.376915
vn -0.895300 0.356700 0.266900
vn -0.214300 0.097300 0.971900
vn -0.260300 0.674300 0.691000
vn -0.963700 -0.070300 -0.257300
vn -0.531400 -0.829400 -0.172300
vn -0.494100 -0.810200 0.315200
vn 0.953000 -0.302900 -0.000900
vn 0.593300 -0.206600 0.778000
vn 0.363900 -0.578400 0.730100
vn 0.110600 -0.053000 0.992400
vn 0.775300 0.468700 0.423300
vn 0.503400 -0.863900 -0.015100
vn 0.636600 -0.699600 -0.324600
vn -0.055000 -0.096800 0.993800
vn 0.093600 0.584100 0.806300
vn -0.872800 -0.319500 0.369000
vn -0.708700 0.497000 -0.500700
vn -0.091800 -0.445000 0.890800
vn -0.015500 0.997300 0.071300
vn -0.501000 0.864200 -0.046300
vn 0.040400 -0.946600 0.319800
vn 0.436900 0.898000 0.051800
vn -0.452700 0.873800 -0.177600
vn 0.270100 -0.962400 -0.029400
vn 0.023200 -0.993200 -0.113800
vn -0.363700 -0.931500 0.000600
vn 0.951200 0.231200 -0.204000
vn 0.810200 -0.582400 -0.065400
vn 0.111600 0.982300 -0.150100
vn 0.510300 0.816600 -0.269700
vn -0.968400 -0.249100 0.009400
vn -0.734700 0.678100 0.017000
vn -0.738600 0.672100 0.051600
vn 0.970200 -0.222400 0.096500
vn 0.705900 0.708300 0.006100
vn -0.132900 -0.991100 0.009700
vn -0.087800 -0.995500 0.035600
vn -0.563100 -0.826200 0.017900
vn -0.980400 -0.182000 0.075200
vn 0.459000 -0.883100 0.097000
vn -0.006200 0.999900 -0.006300
vn -0.337200 0.941400 -0.005900
vn -0.149800 0.988500 0.021900
vn -0.748300 0.663200 0.007900
vn 0.215000 -0.975000 0.056300
vn 0.673600 0.706200 0.217700
vn 0.225800 0.972600 0.054600
vn 0.659000 -0.556200 0.506300
vn 0.556700 0.418400 0.717600
vn -0.109800 0.006800 -0.993900
vn 0.071000 0.000000 -0.997500
vn 0.040000 0.614200 -0.788100
vn -0.575000 -0.818100 0.001700
vn -0.981700 -0.190100 -0.009700
vn -0.832100 0.257200 0.491300
vn -0.500100 -0.804600 0.320100
vn 0.299500 -0.939600 0.165500
vn -0.090500 -0.994600 0.049700
vn -0.416500 0.865500 0.278100
vn 0.236300 0.965400 0.109800
vn -0.082800 0.995800 0.038800
vn -0.004600 -0.303500 -0.952800
vn 0.040000 -0.614200 -0.788100
vn 0.024700 -0.985100 -0.169900
vn -0.168400 -0.829800 -0.531900
vn -0.165900 0.846000 -0.506600
vn 0.017700 0.985300 -0.169800
vn -0.089100 0.996000 -0.000900
vn -0.095400 0.905700 0.413000
vn 0.159200 -0.912400 0.377100
vn -0.089100 -0.996000 -0.000900
vn -0.292600 -0.894100 -0.338900
vn -0.292200 0.534500 0.793000
vn 0.108900 0.644900 -0.756400
vn 0.284500 -0.861200 -0.421200
vn 0.121600 -0.653600 -0.747000
vn -0.188700 -0.192600 0.962900
vn -0.157500 -0.854500 0.495000
vn 0.109300 0.011800 -0.993900
vn 0.483700 -0.130900 -0.865300
vn -0.009200 0.294700 -0.955500
vn -0.684700 0.328300 -0.650700
vn 0.394700 0.742900 -0.540500
vn -0.776800 0.255300 0.575700
vn -0.612000 -0.658600 0.437800
vn -0.430900 -0.248300 0.867500
vn -0.338900 0.925300 0.170000
vn -0.272900 0.962000 0.008200
vn -0.944100 0.102600 0.313300
vn -0.347100 -0.937000 0.039600
vn -0.341900 -0.880200 -0.329000
vn 0.619500 -0.703100 -0.349100
vn 0.417800 -0.895300 -0.154400
vn -0.823100 -0.541300 0.171400
vn 0.425600 0.891500 -0.155400
vn 0.881700 -0.022000 -0.471200
vn 0.785500 0.473200 -0.398800
vn 0.452600 0.297300 -0.840700
vn -0.160500 0.910100 -0.382100
vn -0.674500 0.733900 0.080200
vn -0.950700 -0.031500 -0.308300
vn 0.149100 -0.564600 -0.811800
vn 0.097100 0.993900 0.052200
vn -0.288300 0.895400 -0.339400
vn 0.204900 0.875000 0.438700
vn -0.693700 -0.201900 -0.691400
vn -0.669400 0.003400 -0.742900
vn 0.645400 -0.461800 0.608400
vn 0.096300 -0.994000 0.051000
vn 0.409000 -0.742800 -0.530100
vn 0.736000 -0.667100 -0.115100
vn 0.742300 -0.004800 0.670000
vn 0.643600 0.467600 0.605900
vn 0.402900 0.829000 0.387800
vn 0.993800 -0.058600 -0.094600
vn 0.761100 0.638300 -0.115400
vn -0.066600 -0.008100 -0.997700
vn -0.595800 0.502200 -0.626600
vn -0.593300 -0.509800 -0.622900
vn 0.010800 0.541600 -0.840600
vn 0.613100 0.138700 -0.777700
vn 0.044900 -0.529300 -0.847200
vn -0.134000 -0.988500 0.069900
vn -0.355600 0.130700 -0.925400
vn 0.401700 -0.829100 0.388900
vn 0.309700 0.835900 -0.453100
usemtl None
s 1
f 2//1 10//2 18//3
f 22//4 4//5 13//6
f 5//7 7//8 115//9
f 11//10 7//8 6//11
f 5//7 14//12 27//13
f 8//14 11//10 9//15
f 8//14 1//16 13//6
f 8//14 9//15 10//2
f 2//1 23//17 22//4
f 11//10 8//14 114//18
f 15//19 17//20 18//3
f 12//21 13//6 4//5
f 16//22 9//15 6//11
f 17//20 21//23 23//17
f 19//24 3//25 30//26
f 3//25 4//5 30//26
f 26//27 27//13 24//28
f 20//29 15//19 16//22
f 20//29 16//22 123//30
f 23//17 21//23 22//4
f 26//27 6//11 5//7
f 28//31 29//32 116//33
f 26//27 41//34 25//35
f 26//27 25//35 123//30
f 28//31 30//26 4//5
f 29//32 22//4 21//23
f 33//36 36//37 124//38
f 28//31 35//39 124//38
f 24//28 19//24 31//40
f 30//26 124//38 36//37
f 32//41 123//30 25//35
f 37//42 116//33 29//32
f 39//43 44//44 116//33
f 36//37 34//45 31//40
f 32//41 25//35 42//46
f 32//41 40//47 37//42
f 38//48 96//49 42//46
f 49//50 58//51 125//52
f 39//43 37//42 40//47
f 35//39 117//53 124//38
f 43//54 116//33 44//44
f 43//54 35//39 116//33
f 46//55 45//56 43//54
f 45//56 117//53 43//54
f 46//55 43//54 44//44
f 52//57 31//40 34//45
f 47//58 52//57 34//45
f 39//43 118//59 44//44
f 40//47 42//46 53//60
f 40//47 53//60 48//61
f 39//43 48//61 118//59
f 49//50 51//62 59//63
f 60//64 59//63 126//65
f 51//62 126//65 59//63
f 119//66 125//52 57//67
f 94//68 57//67 48//61
f 94//68 48//61 53//60
f 56//69 48//61 57//67
f 55//70 52//57 54//71
f 126//65 101//72 54//71
f 56//69 63//73 46//55
f 56//69 118//59 48//61
f 57//67 125//52 69//74
f 60//64 76//75 68//76
f 62//77 64//78 45//56
f 60//64 47//58 64//78
f 68//76 59//63 60//64
f 65//79 69//74 125//52
f 47//58 45//56 64//78
f 65//79 58//51 59//63
f 69//74 65//79 66//80
f 65//79 68//76 66//80
f 49//50 50//81 93//82
f 69//74 67//83 57//67
f 70//84 72//85 71//86
f 71//86 72//85 64//78
f 70//84 71//86 63//73
f 63//73 120//87 70//84
f 73//88 120//87 57//67
f 120//87 73//88 82//89
f 82//89 77//90 72//85
f 77//90 76//75 60//64
f 86//91 88//92 78//93
f 82//89 81//94 77//90
f 77//90 78//93 76//75
f 74//95 67//83 79//96
f 79//96 76//75 78//93
f 89//97 87//98 80//99
f 79//96 78//93 88//92
f 80//99 73//88 74//95
f 74//95 89//97 80//99
f 82//89 75//100 81//94
f 85//101 75//100 80//99
f 85//101 81//94 75//100
f 86//91 84//102 88//92
f 87//98 88//92 84//102
f 90//103 91//104 94//68
f 94//68 95//105 90//103
f 92//106 51//62 49//50
f 97//107 92//106 93//82
f 93//82 119//66 91//104
f 94//68 53//60 95//105
f 94//68 91//104 119//66
f 96//49 95//105 53//60
f 38//48 103//108 96//49
f 100//109 112//110 113//111
f 102//112 103//108 113//111
f 100//109 55//70 54//71
f 104//113 121//114 95//105
f 102//112 96//49 103//108
f 102//112 106//115 108//116
f 109//117 97//107 98//118
f 90//103 121//114 108//116
f 99//119 97//107 109//117
f 98//118 91//104 110//120
f 105//121 106//115 113//111
f 105//121 108//116 106//115
f 105//121 112//110 111//122
f 105//121 109//117 110//120
f 17//20 2//1 18//3
f 2//1 17//20 23//17
f 10//2 2//1 1//16
f 12//21 3//25 14//12
f 14//12 3//25 27//13
f 3//25 12//21 4//5
f 3//25 19//24 27//13
f 16//22 6//11 123//30
f 7//8 5//7 6//11
f 10//2 9//15 18//3
f 8//14 10//2 1//16
f 7//8 11//10 115//9
f 13//6 12//21 114//18
f 114//18 12//21 115//9
f 12//21 14//12 115//9
f 16//22 15//19 9//15
f 17//20 15//19 21//23
f 20//29 21//23 15//19
f 26//27 123//30 6//11
f 26//27 5//7 27//13
f 32//41 20//29 123//30
f 20//29 32//41 21//23
f 21//23 32//41 29//32
f 24//28 27//13 19//24
f 22//4 28//31 4//5
f 29//32 28//31 22//4
f 41//34 24//28 31//40
f 25//35 41//34 42//46
f 30//26 28//31 124//38
f 36//37 31//40 30//26
f 32//41 37//42 29//32
f 36//37 33//36 34//45
f 32//41 42//46 40//47
f 52//57 38//48 31//40
f 42//46 96//49 53//60
f 41//34 31//40 38//48
f 41//34 38//48 42//46
f 43//54 117//53 35//39
f 46//55 44//44 118//59
f 47//58 34//45 33//36
f 45//56 33//36 117//53
f 47//58 33//36 45//56
f 48//61 39//43 40//47
f 119//66 50//81 125//52
f 47//58 54//71 52//57
f 60//64 54//71 47//58
f 61//123 64//78 72//85
f 46//55 62//77 45//56
f 63//73 62//77 46//55
f 62//77 63//73 71//86
f 62//77 71//86 64//78
f 79//96 66//80 76//75
f 67//83 66//80 79//96
f 66//80 68//76 76//75
f 120//87 63//73 56//69
f 74//95 73//88 67//83
f 67//83 73//88 57//67
f 70//84 120//87 82//89
f 70//84 82//89 72//85
f 61//123 77//90 60//64
f 77//90 61//123 72//85
f 77//90 86//91 78//93
f 86//91 77//90 81//94
f 75//100 82//89 73//88
f 80//99 87//98 83//124
f 89//97 79//96 88//92
f 74//95 79//96 89//97
f 80//99 75//100 73//88
f 83//124 86//91 85//101
f 83//124 85//101 80//99
f 86//91 83//124 84//102
f 81//94 85//101 86//91
f 87//98 89//97 88//92
f 83//124 87//98 84//102
f 90//103 95//105 121//114
f 92//106 126//65 51//62
f 93//82 50//81 119//66
f 126//65 92//106 101//72
f 55//70 38//48 52//57
f 38//48 55//70 103//108
f 96//49 104//113 95//105
f 100//109 101//72 112//110
f 101//72 111//122 112//110
f 122//125 100//109 113//111
f 97//107 99//119 92//106
f 99//119 101//72 92//106
f 98//118 93//82 91//104
f 100//109 122//125 55//70
f 101//72 100//109 54//71
f 96//49 102//112 104//113
f 122//125 103//108 55//70
f 103//108 122//125 113//111
f 104//113 108//116 121//114
f 107//126 90//103 108//116
f 90//103 107//126 91//104
f 91//104 107//126 110//120
f 101//72 99//119 111//122
f 109//117 105//121 111//122
f 105//121 107//126 108//116
f 107//126 105//121 110//120
f 1//16 22//4 13//6
f 14//12 5//7 115//9
f 9//15 11//10 6//11
f 114//18 8//14 13//6
f 1//16 2//1 22//4
f 115//9 11//10 114//18
f 9//15 15//19 18//3
f 31//40 19//24 30//26
f 41//34 26//27 24//28
f 35//39 28//31 116//33
f 117//53 33//36 124//38
f 37//42 39//43 116//33
f 50//81 49//50 125//52
f 58//51 49//50 59//63
f 54//71 60//64 126//65
f 94//68 119//66 57//67
f 120//87 56//69 57//67
f 118//59 56//69 46//55
f 61//123 60//64 64//78
f 58//51 65//79 125//52
f 68//76 65//79 59//63
f 67//83 69//74 66//80
f 92//106 49//50 93//82
f 98//118 97//107 93//82
f 106//115 102//112 113//111
f 104//113 102//112 108//116
f 110//120 109//117 98//118
f 111//122 99//119 109//117
f 112//110 105//121 113//111
